<svg xmlns="http://www.w3.org/2000/svg" width="1240" height="1753" viewBox="0 0 1240 1753" version="1.1">
	<path d="M 722.399 23.575 C 720.694 24.417, 717.769 26.422, 715.899 28.030 L 712.500 30.955 716 29.832 C 717.925 29.215, 720.005 28.317, 720.623 27.838 C 721.241 27.358, 722.591 27.241, 723.623 27.577 C 725.207 28.093, 725.265 28.007, 724 27.029 C 722.758 26.068, 722.867 25.971, 724.635 26.465 C 726.799 27.070, 732 25.291, 732 23.946 C 732 23.034, 729.385 21.993, 727.168 22.023 C 726.251 22.035, 724.105 22.734, 722.399 23.575 M 729 29.257 C 724.120 31.445, 718.421 33.800, 712.500 36.074 C 709.200 37.342, 703.119 40.052, 698.986 42.098 C 690.836 46.131, 679.907 50.241, 679.203 49.536 C 678.961 49.295, 679.939 48.802, 681.375 48.442 C 682.811 48.082, 683.737 47.383, 683.432 46.890 C 682.497 45.377, 677.926 47.031, 668 52.474 C 657.600 58.177, 654.970 59.321, 647.500 61.398 C 644.750 62.163, 640.025 63.680, 637 64.770 C 630.172 67.229, 613.734 72, 612.090 72 C 610.675 72, 599.741 76.886, 599 77.849 C 598.725 78.207, 596.475 79.578, 594 80.895 C 591.525 82.213, 588.571 84.125, 587.436 85.145 C 586.300 86.165, 585.010 87, 584.570 87 C 584.129 87, 581.622 88.575, 579 90.500 C 576.378 92.425, 573.927 94, 573.553 94 C 573.180 94, 565.815 97.456, 557.187 101.681 C 548.559 105.905, 541.168 109.282, 540.763 109.185 C 540.357 109.088, 537.657 110.522, 534.763 112.371 C 529.304 115.859, 516.790 122, 515.141 122 C 514.622 122, 511.504 124.025, 508.212 126.500 C 504.919 128.975, 501.698 131, 501.054 131 C 500.409 131, 500.203 131.520, 500.595 132.155 C 501.047 132.885, 500.869 133.037, 500.110 132.568 C 499.404 132.132, 496.681 133.511, 493.492 135.918 C 490.512 138.168, 486.946 140.523, 485.568 141.151 C 484.190 141.779, 483.343 142.746, 483.686 143.301 C 484.049 143.889, 483.806 143.998, 483.101 143.563 C 482.397 143.128, 481.137 143.689, 480.080 144.908 C 479.082 146.059, 477.756 147, 477.133 147 C 476.510 147, 476 147.450, 476 148 C 476 148.550, 475.355 149, 474.567 149 C 473.779 149, 472.856 149.877, 472.516 150.949 C 472.142 152.128, 471.325 152.678, 470.449 152.342 C 469.652 152.036, 469 152.284, 469 152.893 C 469 153.502, 468.438 154.002, 467.750 154.004 C 467.063 154.007, 464.250 156.078, 461.500 158.608 C 458.750 161.138, 454.137 164.799, 451.250 166.745 C 448.363 168.691, 446 170.639, 446 171.074 C 446 171.509, 445.064 172.162, 443.920 172.525 C 442.776 172.889, 439.625 175.389, 436.918 178.081 C 434.211 180.774, 430.102 184.173, 427.787 185.634 C 425.472 187.096, 420.829 191.151, 417.469 194.646 C 414.109 198.141, 410.896 201, 410.329 201 C 408.851 201, 397.036 213.702, 397.801 214.468 C 398.152 214.819, 397.587 214.779, 396.546 214.379 C 395.066 213.811, 394.789 214.007, 395.275 215.275 C 395.735 216.473, 395.475 216.736, 394.285 216.279 C 393.211 215.867, 392.913 216.051, 393.395 216.830 C 393.793 217.474, 393.647 218, 393.070 218 C 391.356 218, 388.054 221.278, 388.706 222.333 C 389.041 222.876, 388.794 222.991, 388.147 222.591 C 387.497 222.189, 386.722 222.562, 386.386 223.437 C 386.056 224.296, 385.199 225, 384.482 225 C 383.765 225, 382.122 226.238, 380.831 227.750 C 379.541 229.262, 375.024 233.592, 370.795 237.371 C 366.565 241.151, 362.008 245.876, 360.668 247.871 C 359.328 249.867, 356.267 253.573, 353.866 256.106 C 351.465 258.639, 348.777 261.564, 347.893 262.606 C 347.009 263.648, 345.434 265.216, 344.393 266.091 C 342.101 268.016, 337.005 273.858, 334.769 277.121 C 332.549 280.361, 326.390 288.678, 321.250 295.376 C 318.912 298.422, 317 301.189, 317 301.525 C 317 301.860, 314.991 304.692, 312.535 307.817 C 305.370 316.937, 304.493 318.210, 301.419 323.953 C 299.813 326.952, 297.718 330.294, 296.761 331.379 C 295.805 332.464, 294.729 334.280, 294.369 335.413 C 293.739 337.398, 289.135 344.973, 287.934 346 C 287.612 346.275, 286.489 348.075, 285.438 350 C 284.386 351.925, 282.762 354.400, 281.829 355.500 C 280.139 357.490, 269 376.726, 269 377.653 C 269 377.921, 267.626 380.137, 265.946 382.578 C 264.267 385.019, 263.211 387.533, 263.601 388.163 C 264.038 388.870, 263.867 389.036, 263.155 388.595 C 262.481 388.179, 262 388.497, 262 389.358 C 262 390.169, 261.640 390.983, 261.199 391.167 C 260.289 391.546, 256.468 398.103, 250.902 408.839 C 248.809 412.876, 246.586 416.794, 245.962 417.546 C 245.338 418.297, 245.161 419.452, 245.568 420.111 C 245.994 420.799, 245.887 421.048, 245.316 420.695 C 244.770 420.358, 243.271 421.976, 241.986 424.291 C 240.701 426.606, 238.677 429.850, 237.487 431.500 C 233.746 436.692, 229.819 445.200, 230.306 447.062 C 230.582 448.119, 230.309 448.685, 229.637 448.444 C 229.012 448.221, 227.011 451.292, 225.192 455.269 C 223.373 459.246, 220.280 465.734, 218.320 469.686 C 216.359 473.638, 214.832 477.138, 214.926 477.463 C 215.020 477.789, 214.215 479.730, 213.136 481.777 C 208.861 489.891, 206.882 495.001, 207.579 496.127 C 207.984 496.783, 207.882 497.045, 207.350 496.716 C 206.823 496.390, 205.143 499.133, 203.617 502.812 C 202.092 506.490, 200.264 510.852, 199.555 512.504 C 198.847 514.156, 197.930 517.081, 197.518 519.004 C 197.106 520.927, 196.441 522.950, 196.040 523.500 C 195.639 524.050, 194.704 526.750, 193.963 529.500 C 193.222 532.250, 192.027 535.095, 191.308 535.821 C 190.588 536.548, 190 538.280, 190 539.670 C 190 541.060, 189.388 543.616, 188.640 545.349 C 186.423 550.482, 182.603 565.248, 182.601 568.685 C 182.601 570.437, 182.316 571.695, 181.968 571.480 C 181.621 571.266, 180.854 573.657, 180.264 576.795 C 178.809 584.533, 178.586 585.422, 177.952 586 C 177.252 586.639, 174.412 596.861, 172.952 604 C 172.333 607.025, 171.416 611.127, 170.913 613.116 C 170.411 615.105, 170 618.338, 170 620.301 C 170 622.264, 169.574 624.989, 169.054 626.357 C 168.534 627.725, 167.899 630.567, 167.642 632.672 C 167.386 634.778, 166.671 638.697, 166.054 641.381 C 165.437 644.066, 164.744 648.566, 164.512 651.381 C 164.281 654.197, 163.657 660.775, 163.125 666 C 162.594 671.225, 162.167 677.075, 162.177 679 C 162.187 680.925, 162.091 682.725, 161.963 683 C 161.835 683.275, 161.619 690.743, 161.483 699.596 C 161.346 708.450, 160.790 716.550, 160.246 717.596 C 159.703 718.643, 159.184 728.500, 159.094 739.500 C 158.904 762.617, 158.808 764.277, 157.612 765.144 C 156.542 765.921, 155.183 784.995, 156.155 785.596 C 156.530 785.828, 156.169 787.358, 155.352 788.996 C 154.535 790.634, 154.160 792.450, 154.519 793.031 C 154.878 793.612, 154.725 794.630, 154.179 795.294 C 153.633 795.957, 153.061 798.300, 152.907 800.500 C 152.753 802.700, 152.210 805.058, 151.699 805.741 C 151.188 806.423, 150.966 808.312, 151.204 809.938 C 151.443 811.564, 151.270 812.667, 150.819 812.388 C 150.064 811.922, 149.523 818.107, 149.954 822.285 C 150.055 823.267, 149.386 826.333, 148.467 829.100 C 147.548 831.866, 147.026 834.359, 147.307 834.640 C 147.587 834.921, 147.401 836.579, 146.892 838.325 C 146.384 840.071, 145.791 842.625, 145.574 844 C 144.081 853.498, 143.683 856.605, 143.864 857.355 C 143.977 857.826, 143.688 858.726, 143.221 859.355 C 142.754 859.985, 142.264 862.300, 142.131 864.500 C 141.998 866.700, 140.816 873, 139.503 878.500 C 138.190 884, 136.836 891.650, 136.493 895.500 C 136.150 899.350, 135.039 907.675, 134.024 914 C 133.009 920.325, 132.137 929.708, 132.086 934.851 C 132.035 939.994, 131.724 944.638, 131.395 945.170 C 130.738 946.232, 130.762 997.379, 131.446 1053.196 C 131.892 1089.684, 131.996 1090.912, 137.125 1120.636 C 137.707 1124.011, 138.294 1128.061, 138.430 1129.636 C 138.566 1131.211, 139.753 1136.775, 141.068 1142 C 143.087 1150.021, 143.554 1151.033, 144.068 1148.500 C 144.674 1145.508, 144.677 1145.507, 145.344 1148 C 145.712 1149.375, 146.167 1151.400, 146.356 1152.500 C 146.545 1153.600, 146.956 1155.175, 147.269 1156 C 147.582 1156.825, 148.074 1158.625, 148.363 1160 C 149.740 1166.546, 153.056 1178.711, 153.953 1180.500 C 154.504 1181.600, 155.870 1186.982, 156.988 1192.461 C 158.107 1197.939, 159.467 1202.867, 160.011 1203.411 C 160.555 1203.955, 161 1205.181, 161 1206.135 C 161 1207.089, 161.523 1209.137, 162.161 1210.685 C 162.800 1212.233, 163.269 1213.782, 163.203 1214.127 C 163.136 1214.471, 163.998 1217.171, 165.117 1220.127 C 166.235 1223.082, 168.208 1228.425, 169.500 1232 C 170.792 1235.575, 172.728 1240.750, 173.802 1243.500 C 174.876 1246.250, 177.117 1252.100, 178.782 1256.500 C 182.072 1265.195, 192.297 1289.724, 194.582 1294.404 C 195.362 1296.001, 196 1297.881, 196 1298.582 C 196 1299.283, 196.707 1300.564, 197.571 1301.429 C 198.436 1302.293, 198.893 1303, 198.589 1303 C 198.284 1303, 198.884 1304.513, 199.923 1306.363 C 202.388 1310.751, 203.335 1312.561, 206.056 1318.078 C 208.607 1323.250, 213.510 1329.787, 212.373 1326.500 C 211.516 1324.021, 212.319 1324.713, 213.964 1327.871 C 214.900 1329.667, 214.909 1330.062, 214 1329.500 C 212.535 1328.594, 214.240 1332.081, 216.286 1334.172 C 217 1334.902, 218.138 1336.854, 218.814 1338.509 C 219.490 1340.163, 221.287 1342.863, 222.808 1344.509 C 224.329 1346.154, 226.562 1349.117, 227.771 1351.093 C 230.038 1354.798, 234.902 1361.360, 237.339 1364 C 238.100 1364.825, 239.232 1366.477, 239.855 1367.672 C 240.478 1368.867, 241.552 1370.450, 242.243 1371.190 C 242.935 1371.931, 244.365 1374.103, 245.422 1376.018 C 246.479 1377.933, 247.951 1379.865, 248.693 1380.311 C 249.435 1380.758, 249.836 1381.457, 249.584 1381.865 C 249.331 1382.273, 250.614 1384.233, 252.435 1386.220 C 254.255 1388.207, 256.800 1391.333, 258.089 1393.166 C 259.379 1395, 260.899 1397.047, 261.467 1397.715 C 264.521 1401.309, 265.040 1402.006, 265.017 1402.484 C 264.988 1403.072, 268.542 1407.160, 274.500 1413.392 C 283.154 1422.444, 288.375 1428.881, 293.792 1437.180 C 298.061 1443.719, 312.060 1459.622, 313.220 1459.250 C 313.649 1459.113, 313.887 1459.411, 313.750 1459.914 C 313.357 1461.351, 321.019 1470.106, 322.090 1469.444 C 322.618 1469.118, 322.926 1469.288, 322.775 1469.821 C 322.624 1470.355, 324.300 1472.552, 326.500 1474.704 C 328.700 1476.855, 332.940 1481.175, 335.922 1484.303 C 338.904 1487.431, 341.522 1489.811, 341.741 1489.592 C 341.960 1489.374, 344.020 1491.289, 346.319 1493.847 C 348.619 1496.406, 351.400 1499.322, 352.500 1500.327 C 353.600 1501.332, 356.750 1504.271, 359.500 1506.858 C 362.250 1509.445, 366.740 1513.348, 369.477 1515.531 C 372.215 1517.714, 375.517 1520.737, 376.816 1522.250 C 378.115 1523.763, 379.813 1525, 380.589 1525 C 381.365 1525, 382 1525.375, 382 1525.833 C 382 1527.185, 389.206 1533.991, 390.071 1533.456 C 390.507 1533.187, 391.456 1533.769, 392.182 1534.751 C 392.907 1535.732, 394.768 1537.345, 396.317 1538.334 C 397.866 1539.324, 399.891 1540.802, 400.817 1541.618 C 401.743 1542.435, 404.750 1544.580, 407.500 1546.385 C 415.729 1551.788, 432.321 1563.146, 435 1565.210 C 440.550 1569.486, 467.311 1586, 468.691 1586 C 469.013 1586, 472.834 1588.138, 477.183 1590.750 C 490.586 1598.801, 492.450 1599.884, 494 1600.522 C 494.825 1600.862, 498.875 1602.796, 503 1604.820 C 507.125 1606.844, 510.950 1608.500, 511.500 1608.500 C 512.050 1608.500, 512.725 1608.769, 513 1609.099 C 513.647 1609.873, 524.322 1614.731, 534.500 1618.882 C 557.591 1628.299, 605.562 1644.312, 623.500 1648.589 C 626.800 1649.376, 630.400 1650.429, 631.500 1650.930 C 635.040 1652.542, 643.301 1655, 645.178 1655 C 646.180 1655, 647 1655.466, 647 1656.035 C 647 1656.697, 647.810 1656.635, 649.250 1655.862 C 651.544 1654.630, 662.798 1654.428, 671 1655.470 C 673.475 1655.785, 677.300 1656.247, 679.500 1656.498 C 692.539 1657.982, 705.922 1660.918, 711.651 1663.551 C 713.384 1664.348, 715.213 1665, 715.714 1665 C 716.216 1665, 717.919 1666.350, 719.500 1668 C 723.347 1672.015, 725.448 1671.989, 724.637 1667.937 C 724.121 1665.356, 724.298 1664.950, 725.762 1665.362 C 728.688 1666.185, 734.389 1667.311, 736.500 1667.483 C 737.600 1667.572, 742.192 1667.995, 746.705 1668.423 C 754.323 1669.145, 755.146 1669.036, 758.205 1666.898 C 763.338 1663.312, 764.270 1661.324, 761.250 1660.405 C 758.226 1659.485, 752.559 1656.561, 751.088 1655.162 C 749.872 1654.005, 749.872 1653.694, 751.088 1652.925 C 752.162 1652.245, 751.961 1652.027, 750.250 1652.015 C 748.975 1652.007, 748 1651.382, 748 1650.573 C 748 1648.551, 754.649 1643.320, 758.096 1642.631 C 762.512 1641.748, 766.121 1638.954, 767.686 1635.208 C 768.704 1632.774, 768.800 1631.463, 768.028 1630.534 C 767.275 1629.626, 767.268 1628.425, 768.006 1626.483 C 769.254 1623.203, 768.821 1622.503, 766.336 1623.784 C 764.360 1624.802, 762 1624.366, 762 1622.983 C 762 1622.515, 763.237 1621.990, 764.750 1621.816 C 766.861 1621.574, 767.570 1620.899, 767.800 1618.916 C 768.075 1616.557, 767.835 1616.371, 765.050 1616.779 C 761.397 1617.316, 760.936 1615.484, 764.500 1614.589 C 765.875 1614.244, 767.003 1613.408, 767.006 1612.731 C 767.010 1612.054, 768.328 1610.752, 769.935 1609.837 C 772.168 1608.567, 772.725 1607.666, 772.295 1606.022 C 771.808 1604.158, 771.244 1603.952, 768.089 1604.485 C 766.085 1604.823, 763.333 1604.679, 761.973 1604.163 C 759.580 1603.256, 759.620 1603.203, 763.185 1602.514 C 765.212 1602.122, 767.331 1602.087, 767.894 1602.435 C 768.458 1602.783, 769.724 1602.635, 770.709 1602.107 C 771.694 1601.578, 773.288 1600.902, 774.250 1600.604 C 776.644 1599.864, 776.445 1598.520, 773.750 1597.220 C 771.652 1596.209, 771.636 1596.130, 773.500 1596.052 C 775.168 1595.983, 775.251 1595.806, 774 1594.985 C 772.739 1594.157, 772.720 1593.858, 773.882 1593.109 C 774.972 1592.407, 774.816 1592.076, 773.141 1591.545 C 771.973 1591.174, 770.564 1591.152, 770.009 1591.494 C 769.454 1591.837, 769 1591.444, 769 1590.620 C 769 1589.609, 770.481 1588.900, 773.560 1588.439 C 777.080 1587.911, 777.987 1587.408, 777.536 1586.233 C 777.215 1585.396, 777.710 1583.873, 778.636 1582.849 C 779.563 1581.825, 779.999 1580.666, 779.606 1580.273 C 779.213 1579.880, 778.452 1580.220, 777.915 1581.029 C 777.218 1582.080, 777.122 1581.712, 777.581 1579.737 C 777.975 1578.042, 777.715 1576.362, 776.909 1575.390 C 775.805 1574.060, 775.870 1573.652, 777.318 1572.842 C 778.266 1572.311, 778.763 1571.425, 778.421 1570.872 C 778.079 1570.319, 778.615 1569.271, 779.612 1568.542 C 781.085 1567.465, 781.193 1566.937, 780.187 1565.725 C 779.195 1564.530, 779.220 1564.130, 780.309 1563.712 C 781.148 1563.390, 781.736 1561.397, 781.846 1558.508 C 781.943 1555.933, 782.452 1553.024, 782.976 1552.045 C 783.501 1551.065, 783.660 1549.993, 783.329 1549.663 C 782.999 1549.333, 783.408 1548.026, 784.238 1546.759 C 785.068 1545.493, 786.068 1542.556, 786.461 1540.233 C 786.853 1537.911, 787.550 1535.778, 788.011 1535.493 C 788.471 1535.209, 789.591 1532.737, 790.500 1530.001 C 791.409 1527.264, 793.194 1524.206, 794.467 1523.205 C 796.454 1521.641, 796.730 1520.662, 796.422 1516.265 C 796.074 1511.292, 796.149 1511.126, 799.032 1510.493 C 802.240 1509.788, 802.925 1508.292, 800.471 1507.350 C 799.142 1506.841, 799.170 1506.596, 800.679 1505.493 C 801.634 1504.794, 802.885 1504.398, 803.458 1504.612 C 804.812 1505.117, 807 1500.360, 807 1496.912 C 807 1495.402, 806.452 1494.243, 805.750 1494.269 C 801.415 1494.430, 801.086 1494.073, 803.289 1491.600 C 805.236 1489.414, 805.538 1489.348, 806.681 1490.850 C 807.806 1492.328, 807.940 1492.266, 807.968 1490.250 C 807.988 1488.882, 807.399 1488, 806.469 1488 C 804.379 1488, 803.380 1485.006, 805.104 1483.914 C 806.131 1483.264, 806.164 1483.027, 805.230 1483.015 C 804.449 1483.006, 804.134 1482.135, 804.412 1480.750 C 805.835 1473.652, 806.344 1471.906, 807.129 1471.420 C 807.608 1471.124, 808 1469.091, 808 1466.901 C 808 1464.712, 808.923 1461.111, 810.051 1458.900 C 813.388 1452.359, 816.248 1441.915, 815.673 1438.369 C 815.324 1436.220, 815.635 1434.718, 816.595 1433.921 C 817.392 1433.260, 818.007 1431.320, 817.961 1429.609 C 817.916 1427.899, 818.019 1425.600, 818.189 1424.500 C 818.392 1423.195, 818.007 1422.607, 817.081 1422.806 C 815.907 1423.060, 815.885 1422.843, 816.953 1421.556 C 817.664 1420.700, 819.090 1420, 820.122 1420 C 823.204 1420, 822.253 1418.239, 818.503 1417.001 C 816.580 1416.366, 814.330 1414.881, 813.503 1413.701 C 812.676 1412.521, 812 1411.950, 812 1412.432 C 812 1412.915, 811.128 1412.521, 810.063 1411.557 C 808.998 1410.593, 807.679 1410.081, 807.132 1410.418 C 806.585 1410.756, 805.826 1410.527, 805.444 1409.910 C 804.945 1409.101, 804.560 1409.093, 804.073 1409.881 C 803.588 1410.666, 802.478 1410.629, 800.153 1409.752 C 797.439 1408.727, 796.757 1408.770, 795.970 1410.014 C 795.175 1411.271, 795.028 1411.230, 795.015 1409.750 C 795.007 1408.787, 794.212 1407.933, 793.250 1407.852 C 792.288 1407.771, 790.825 1407.654, 790 1407.593 C 788.707 1407.498, 784.038 1405.916, 776.500 1403.020 C 775.400 1402.597, 771.350 1401.280, 767.500 1400.093 C 759.367 1397.584, 756.364 1396.048, 759.500 1396 C 761.156 1395.975, 761.242 1395.804, 760 1395.008 C 759.175 1394.478, 757.656 1394.309, 756.625 1394.630 C 755.593 1394.951, 755.004 1394.802, 755.315 1394.299 C 756.256 1392.777, 747.030 1390.730, 745.385 1392.096 C 744.133 1393.135, 743.597 1392.685, 743.859 1390.818 C 743.912 1390.442, 742.615 1390.173, 740.977 1390.220 C 739.340 1390.266, 738 1390.772, 738 1391.343 C 738 1391.915, 737.437 1391.614, 736.750 1390.675 C 735.874 1389.478, 731.909 1388.354, 723.500 1386.917 C 716.900 1385.789, 708.359 1383.996, 704.520 1382.933 C 696.357 1380.672, 697 1380.758, 697 1381.933 C 697 1382.928, 699.826 1384.044, 703.350 1384.440 C 704.532 1384.572, 708.875 1385.864, 713 1387.311 C 717.125 1388.757, 721.708 1390.143, 723.184 1390.392 C 724.660 1390.640, 727.360 1391.545, 729.184 1392.402 C 731.008 1393.259, 734.300 1394.652, 736.500 1395.498 L 740.500 1397.035 735.500 1396.590 C 730.941 1396.184, 727.050 1394.985, 705.500 1387.341 C 701.650 1385.976, 698.050 1384.756, 697.500 1384.631 C 696.950 1384.506, 695.400 1383.800, 694.055 1383.062 C 692.710 1382.324, 689.110 1381.641, 686.055 1381.543 C 680.018 1381.349, 671.840 1379.304, 664.902 1376.252 C 656.440 1372.530, 654.112 1371.813, 652.906 1372.558 C 652.222 1372.981, 651.949 1372.891, 652.281 1372.354 C 652.606 1371.829, 650.763 1370.817, 648.186 1370.105 C 645.609 1369.393, 641.272 1368.112, 638.549 1367.258 C 634.967 1366.135, 633.492 1366.023, 633.216 1366.853 C 633.005 1367.484, 632.435 1368, 631.948 1368 C 631.461 1368, 631.350 1367.251, 631.701 1366.336 C 632.132 1365.213, 631.957 1364.908, 631.163 1365.399 C 630.516 1365.799, 628.588 1365.131, 626.879 1363.914 C 625.170 1362.697, 622.474 1361.656, 620.888 1361.601 C 619.302 1361.545, 618.004 1361.211, 618.002 1360.858 C 618.001 1360.506, 616.863 1359.931, 615.473 1359.582 C 612.374 1358.805, 602.054 1354.087, 600 1352.509 C 599.175 1351.875, 595.575 1350.086, 592 1348.533 C 588.425 1346.980, 583.860 1344.425, 581.856 1342.855 C 579.852 1341.285, 577.770 1340, 577.229 1340 C 576.688 1340, 575.685 1339.325, 575 1338.500 C 574.315 1337.675, 573.158 1337, 572.429 1337 C 571.700 1337, 569.842 1335.821, 568.302 1334.380 C 566.761 1332.939, 562.183 1329.514, 558.129 1326.768 C 552.362 1322.862, 550.569 1322.072, 549.894 1323.138 C 549.261 1324.137, 549.027 1323.901, 549.015 1322.250 C 549.006 1320.823, 548.391 1320, 547.333 1320 C 546.417 1320, 545.945 1319.721, 546.286 1319.381 C 547.213 1318.454, 544.396 1316, 542.405 1316 C 541.449 1316, 540.939 1315.727, 541.273 1315.394 C 541.882 1314.784, 537.626 1310, 536.474 1310 C 535.520 1310, 532.748 1307.003, 533.679 1306.977 C 534.130 1306.965, 533.038 1306.233, 531.250 1305.352 C 529.462 1304.471, 528 1303.131, 528 1302.375 C 528 1301.619, 527.566 1301, 527.035 1301 C 526.504 1301, 524.532 1299.650, 522.653 1298 C 517.317 1293.315, 517.738 1294.466, 523.530 1300.399 C 526.429 1303.368, 529.101 1306.743, 529.468 1307.899 C 529.835 1309.054, 530.711 1310, 531.414 1310 C 532.985 1310, 537.520 1313.813, 536.803 1314.531 C 536.518 1314.815, 535.716 1314.362, 535.020 1313.524 C 534.324 1312.686, 533.320 1312, 532.789 1312 C 532.257 1312, 533.055 1313.463, 534.563 1315.250 C 536.070 1317.038, 537.876 1318.376, 538.576 1318.224 C 539.276 1318.072, 540.132 1318.841, 540.479 1319.933 C 540.825 1321.025, 542.990 1323.399, 545.290 1325.209 C 547.590 1327.019, 551.230 1330.197, 553.379 1332.272 C 556.077 1334.877, 557.859 1335.862, 559.137 1335.457 C 560.449 1335.040, 560.832 1335.275, 560.452 1336.263 C 560.114 1337.145, 561.586 1338.713, 564.459 1340.528 C 566.956 1342.107, 569 1343.759, 569 1344.199 C 569 1344.640, 569.418 1345, 569.929 1345 C 570.440 1345, 573.654 1346.912, 577.072 1349.250 C 584.275 1354.177, 586.343 1355.488, 594.500 1360.300 C 597.800 1362.247, 601.288 1364.551, 602.250 1365.420 C 603.212 1366.289, 604.112 1366.920, 604.250 1366.822 C 604.887 1366.368, 614.863 1370.680, 617.890 1372.717 C 619.754 1373.973, 621.741 1375, 622.306 1375 C 622.871 1375, 623.135 1375.198, 622.893 1375.440 C 622.321 1376.012, 612.373 1372.673, 608.500 1370.610 C 606.850 1369.731, 605.040 1369.010, 604.478 1369.006 C 603.916 1369.003, 601.891 1367.762, 599.978 1366.250 C 598.065 1364.737, 594.263 1362.375, 591.530 1361 C 588.796 1359.625, 585.674 1357.713, 584.591 1356.750 C 583.509 1355.788, 582.242 1355, 581.777 1355 C 580.409 1355, 566.717 1345.394, 564.076 1342.582 C 562.742 1341.162, 560.830 1340, 559.826 1340 C 558.822 1340, 557.198 1339.213, 556.217 1338.250 C 555.236 1337.288, 552.805 1335.273, 550.815 1333.774 C 547.407 1331.206, 526.279 1310.948, 507.249 1292 C 493.783 1278.592, 487.162 1269.395, 484.571 1260.500 C 483.610 1257.200, 482.163 1253.263, 481.355 1251.750 C 480.548 1250.237, 480.192 1249, 480.566 1249 C 480.939 1249, 480.792 1248.438, 480.238 1247.750 C 479.684 1247.063, 478.907 1244.925, 478.510 1243 C 477.414 1237.678, 473.081 1227.834, 472.099 1228.436 C 471.770 1228.638, 471.457 1227.595, 471.405 1226.119 C 471.352 1224.643, 469.583 1220.749, 467.474 1217.467 C 460.047 1205.910, 456.971 1201.465, 454.003 1198 C 452.354 1196.075, 451.004 1194.121, 451.002 1193.658 C 450.998 1192.224, 447.302 1188.031, 446.633 1188.701 C 446.285 1189.049, 446 1188.514, 446 1187.514 C 446 1185.916, 445.756 1185.976, 444 1188 C 442.900 1189.268, 441.993 1189.900, 441.985 1189.403 C 441.976 1188.906, 441.497 1189.175, 440.919 1190 C 440.109 1191.157, 440.023 1190.956, 440.542 1189.125 C 440.999 1187.509, 440.860 1186.968, 440.107 1187.434 C 439.119 1188.044, 438.490 1186.074, 438.906 1183.676 C 438.985 1183.222, 438.588 1183.136, 438.025 1183.485 C 437.461 1183.833, 437 1183.609, 437 1182.988 C 437 1181.582, 434.493 1179, 433.128 1179 C 432.570 1179, 431.316 1177.650, 430.341 1176 C 429.366 1174.350, 428.205 1173, 427.760 1173 C 427.315 1173, 426.523 1171.875, 426 1170.500 C 425.477 1169.125, 424.337 1168, 423.466 1168 C 422.595 1168, 422.127 1167.604, 422.426 1167.120 C 422.725 1166.636, 421.851 1164.138, 420.485 1161.567 C 419.118 1158.997, 418 1155.879, 418 1154.638 C 418 1153.397, 417.339 1151.509, 416.532 1150.441 C 415.724 1149.374, 415.049 1147.884, 415.032 1147.132 C 415.014 1146.380, 413.650 1144.226, 412 1142.347 C 410.350 1140.468, 409 1138.265, 409 1137.452 C 409 1135.995, 407.532 1132.936, 405.423 1130 C 404.064 1128.109, 402 1120.952, 402 1118.134 C 402 1116.960, 401.550 1116, 401 1116 C 400.450 1116, 400 1115.070, 400 1113.934 C 400 1112.798, 399.549 1111.027, 398.999 1109.998 C 398.448 1108.969, 397.754 1106.189, 397.457 1103.821 C 397.159 1101.453, 396.485 1099.085, 395.958 1098.558 C 394.700 1097.300, 394.728 1095, 396 1095 C 396.550 1095, 397.014 1095.787, 397.030 1096.750 C 397.058 1098.360, 397.147 1098.352, 398.134 1096.654 C 398.903 1095.330, 398.895 1094.495, 398.104 1093.704 C 396.764 1092.364, 396.627 1087, 397.933 1087 C 399.089 1087, 399.012 1081.125, 397.847 1080.405 C 397.381 1080.117, 397 1078.399, 397 1076.587 C 397 1074.453, 396.114 1072.336, 394.484 1070.577 C 393.100 1069.084, 392.226 1067.443, 392.543 1066.931 C 392.859 1066.419, 392.698 1066, 392.184 1066 C 391.670 1066, 390.966 1064.578, 390.618 1062.840 C 389.408 1056.788, 388.830 1060.895, 389.911 1067.864 C 391.243 1076.450, 391.307 1081.308, 390.077 1080.548 C 389.569 1080.234, 388.858 1078.632, 388.497 1076.989 C 388.136 1075.345, 387.397 1074, 386.853 1074 C 386.310 1074, 386.139 1073.138, 386.473 1072.084 C 386.808 1071.030, 386.664 1069.911, 386.154 1069.595 C 385.645 1069.280, 384.951 1070.030, 384.614 1071.261 C 384.116 1073.078, 383.824 1073.226, 383.066 1072.048 C 382.552 1071.249, 382.331 1070.273, 382.575 1069.879 C 383.097 1069.034, 380.573 1058.948, 379.182 1056.321 C 378.652 1055.320, 377.686 1050.379, 377.036 1045.341 C 376.002 1037.329, 376.056 1035.792, 377.470 1033.059 C 378.358 1031.340, 379.523 1030.205, 380.059 1030.536 C 380.594 1030.867, 380.857 1031.445, 380.641 1031.819 C 380.426 1032.194, 380.618 1033.400, 381.067 1034.500 C 381.858 1036.438, 381.904 1036.430, 382.558 1034.250 C 383.242 1031.971, 384.896 1031.165, 385.125 1033 C 385.194 1033.550, 385.363 1034.450, 385.500 1035 C 385.637 1035.550, 385.820 1038.138, 385.905 1040.750 C 386.033 1044.643, 386.254 1045.168, 387.130 1043.660 C 387.729 1042.631, 387.933 1039.987, 387.593 1037.660 C 387.184 1034.858, 387.478 1032.565, 388.493 1030.636 C 389.322 1029.060, 390.003 1027.260, 390.006 1026.636 C 390.010 1026.011, 390.637 1024.302, 391.401 1022.839 C 392.165 1021.375, 393.290 1017.100, 393.903 1013.339 C 395.697 1002.315, 395.843 1001.500, 396.017 1001.500 C 396.109 1001.500, 396.368 999.925, 396.593 998 C 397.045 994.141, 398.216 987.476, 400.481 975.864 C 402.269 966.696, 402.637 938.354, 401.211 919.500 C 399.803 900.867, 400.778 858.393, 402.968 843 C 403.476 839.425, 404.166 833.125, 404.501 829 C 404.836 824.875, 406.191 816.100, 407.513 809.500 C 408.835 802.900, 410.409 792.775, 411.011 787 C 411.612 781.225, 413.155 772.225, 414.439 767 C 415.723 761.775, 417.085 755.250, 417.464 752.500 C 417.844 749.750, 419.285 743, 420.666 737.500 C 422.047 732, 424.001 723.900, 425.009 719.500 C 426.017 715.100, 428.287 706.325, 430.055 700 C 431.822 693.675, 433.605 686.250, 434.015 683.500 C 434.426 680.750, 435.753 675.350, 436.964 671.500 C 439.742 662.665, 441.472 656.104, 443.008 648.569 C 443.673 645.306, 446.129 636.756, 448.466 629.569 C 450.803 622.381, 453.040 615.150, 453.438 613.500 C 454.589 608.723, 460.221 594.653, 461.674 592.921 C 462.404 592.053, 463.003 590.928, 463.006 590.421 C 463.017 588.815, 471.710 572.274, 477.301 563.220 C 480.262 558.424, 483.511 552.700, 484.520 550.500 C 485.529 548.300, 488.300 543.448, 490.677 539.719 C 493.055 535.989, 495 532.674, 495 532.353 C 495 532.031, 496.502 529.683, 498.338 527.134 C 501.741 522.410, 506.344 514.753, 511.220 505.703 C 512.716 502.927, 514.301 500.395, 514.741 500.077 C 515.181 499.760, 516.094 498.375, 516.771 497 C 517.448 495.625, 520.927 490.450, 524.503 485.500 C 528.080 480.550, 531.766 475.375, 532.695 474 C 534.266 471.675, 544.875 458.118, 545.998 457 C 547.355 455.648, 553.945 447.062, 556.175 443.741 C 565.034 430.539, 614.316 380.929, 629.924 369.500 C 631.426 368.400, 635.021 365.250, 637.913 362.500 C 643.416 357.266, 649.931 352.791, 653.866 351.543 C 655.142 351.138, 665.032 346.399, 675.843 341.012 C 686.654 335.625, 697.525 330.635, 700 329.924 C 702.475 329.213, 706.309 327.362, 708.519 325.811 C 712.766 322.833, 725.594 318.109, 735.292 315.951 C 739.240 315.073, 740.928 314.255, 740.593 313.382 C 740.291 312.594, 740.644 312.310, 741.514 312.644 C 742.650 313.080, 752.569 310.513, 753.824 309.458 C 754.002 309.308, 753.435 307.807, 752.563 306.123 C 751.045 303.187, 751.074 303.001, 753.240 301.641 C 755.870 299.990, 762.372 297.813, 763.633 298.161 C 764.110 298.293, 766.975 297.116, 770 295.547 C 773.025 293.977, 777.075 292.299, 779 291.818 C 783.148 290.780, 784.103 290.503, 790 288.618 C 799.230 285.669, 806.531 283.515, 807.500 283.456 C 808.050 283.422, 810.540 282.474, 813.034 281.349 C 815.527 280.224, 819.325 278.974, 821.472 278.571 C 823.620 278.168, 827.879 276.548, 830.938 274.971 C 835.418 272.661, 837.375 270.780, 841 265.301 C 843.475 261.561, 845.741 258.275, 846.036 258 C 847.857 256.302, 858.995 241.873, 860.861 238.796 C 863.696 234.120, 863.691 224.809, 860.852 221.129 C 859.720 219.663, 859.240 217.893, 859.592 216.488 C 859.906 215.240, 859.676 213.918, 859.081 213.550 C 858.486 213.183, 858 211.870, 858 210.632 C 858 209.395, 857.339 207.509, 856.532 206.441 C 855.724 205.374, 855.049 203.764, 855.032 202.865 C 854.989 200.640, 850.362 197.592, 849.584 199.276 C 849.273 199.949, 849.249 199.551, 849.532 198.391 C 849.827 197.180, 849.402 195.749, 848.534 195.028 C 847.702 194.338, 847.240 193.421, 847.506 192.991 C 848.116 192.003, 846.291 188.512, 842.750 183.896 C 841.237 181.924, 840 179.298, 840 178.060 C 840 176.822, 839.166 174.614, 838.146 173.154 C 837.126 171.694, 835.981 169.215, 835.600 167.644 C 835.209 166.027, 834.062 164.567, 832.954 164.278 C 831.764 163.966, 831 162.909, 831 161.571 C 831 159.137, 827.561 151.465, 826.051 150.532 C 825.521 150.204, 825.338 149.282, 825.645 148.483 C 825.952 147.683, 825.032 145.638, 823.601 143.938 C 822.171 142.238, 820.990 140.319, 820.978 139.673 C 820.966 139.028, 820.076 137.375, 819 136 C 817.924 134.625, 817.020 132.600, 816.990 131.500 C 816.961 130.400, 816.276 128.626, 815.468 127.559 C 814.661 126.491, 814 124.778, 814 123.752 C 814 122.727, 812.576 120.586, 810.835 118.997 C 808.297 116.678, 807.294 116.307, 805.771 117.122 C 804.470 117.819, 803.470 117.805, 802.594 117.078 C 801.891 116.495, 801.127 116.126, 800.896 116.259 C 800.665 116.391, 801.154 115.920, 801.983 115.211 C 803.021 114.322, 803.148 113.700, 802.390 113.211 C 801.190 112.435, 798.440 105.032, 798.834 103.634 C 798.968 103.157, 798.390 101.718, 797.550 100.436 C 796.710 99.154, 796.309 97.294, 796.658 96.302 C 797.178 94.829, 797.049 94.728, 795.947 95.750 C 794.059 97.502, 792.494 97.315, 793.987 95.516 C 794.981 94.318, 794.808 93.244, 793.091 89.950 C 791.921 87.705, 791.200 85.486, 791.489 85.018 C 792.387 83.565, 790.309 79.449, 786.674 75.481 C 784.759 73.391, 782.197 69.389, 780.981 66.590 C 777.216 57.920, 776.242 56.560, 773.235 55.781 C 770.504 55.073, 760 44.833, 760 42.878 C 760 42.395, 759.392 42, 758.650 42 C 757.907 42, 756.281 40.671, 755.036 39.047 C 752.320 35.502, 738.042 27.972, 734.218 28.068 C 732.723 28.105, 730.375 28.640, 729 29.257 M 591.500 84 C 591.160 84.550, 591.359 85, 591.941 85 C 592.523 85, 593 84.550, 593 84 C 593 83.450, 592.802 83, 592.559 83 C 592.316 83, 591.840 83.450, 591.500 84 M 721 213.059 C 721 213.641, 721.450 213.840, 722 213.500 C 722.550 213.160, 723 212.684, 723 212.441 C 723 212.198, 722.550 212, 722 212 C 721.450 212, 721 212.477, 721 213.059 M 629.813 272.683 C 630.534 272.972, 631.397 272.936, 631.729 272.604 C 632.061 272.272, 631.471 272.036, 630.417 272.079 C 629.252 272.127, 629.015 272.364, 629.813 272.683 M 355.600 317.600 C 355.244 318.527, 355.178 319.511, 355.453 319.786 C 355.728 320.061, 356.244 319.527, 356.600 318.600 C 356.956 317.673, 357.022 316.689, 356.747 316.414 C 356.472 316.139, 355.956 316.673, 355.600 317.600 M 479 390.500 C 478.293 391.352, 477.940 392.273, 478.215 392.548 C 478.490 392.823, 479.293 392.352, 480 391.500 C 480.707 390.648, 481.060 389.727, 480.785 389.452 C 480.510 389.177, 479.707 389.648, 479 390.500 M 360.150 416 C 359.575 417.650, 359.273 419, 359.479 419 C 359.685 419, 360.527 417.650, 361.350 416 C 362.173 414.350, 362.475 413, 362.021 413 C 361.567 413, 360.725 414.350, 360.150 416 M 350.182 432.500 C 349.555 433.875, 349.206 435, 349.406 435 C 349.606 435, 350.507 433.875, 351.408 432.500 C 352.309 431.125, 352.658 430, 352.184 430 C 351.709 430, 350.808 431.125, 350.182 432.500 M 266 439.059 C 266 439.641, 266.450 439.840, 267 439.500 C 267.550 439.160, 268 438.684, 268 438.441 C 268 438.198, 267.550 438, 267 438 C 266.450 438, 266 438.477, 266 439.059 M 344.345 442.543 C 343.445 444.889, 344.417 445.164, 345.796 442.955 C 346.569 441.717, 346.635 441, 345.977 441 C 345.405 441, 344.671 441.694, 344.345 442.543 M 337.664 454.750 C 336.214 457.937, 336.197 458.199, 337.552 456.500 C 339.974 453.462, 341.169 451, 340.220 451 C 339.753 451, 338.602 452.688, 337.664 454.750 M 246.195 464.250 C 242.802 470.484, 239.724 478.610, 241.383 476.951 C 242.218 476.115, 250.989 457, 250.537 457 C 250.319 457, 248.365 460.262, 246.195 464.250 M 252.183 467.217 C 250.783 468.617, 250.638 470, 251.893 470 C 252.809 470, 254.318 466.984, 253.707 466.374 C 253.520 466.186, 252.834 466.566, 252.183 467.217 M 327.731 471.920 C 327.296 473.583, 327.426 473.974, 328.168 473.232 C 328.750 472.650, 329.028 471.585, 328.788 470.863 C 328.538 470.114, 328.085 470.568, 327.731 471.920 M 427.667 470.667 C 427.300 471.033, 427 471.798, 427 472.367 C 427 472.993, 427.466 472.934, 428.183 472.217 C 428.834 471.566, 429.134 470.801, 428.850 470.517 C 428.566 470.233, 428.033 470.300, 427.667 470.667 M 248.500 475 C 248.160 475.550, 248.359 476, 248.941 476 C 249.523 476, 250 475.550, 250 475 C 250 474.450, 249.802 474, 249.559 474 C 249.316 474, 248.840 474.450, 248.500 475 M 325 477 C 324.409 478.105, 324.341 479, 324.848 479 C 325.353 479, 326.002 478.100, 326.290 477 C 326.577 475.900, 326.646 475, 326.442 475 C 326.237 475, 325.589 475.900, 325 477 M 424.500 476 C 424.160 476.550, 424.359 477, 424.941 477 C 425.523 477, 426 476.550, 426 476 C 426 475.450, 425.802 475, 425.559 475 C 425.316 475, 424.840 475.450, 424.500 476 M 311.564 504.707 C 311.022 506.132, 311.136 506.247, 312.124 505.267 C 312.808 504.588, 313.115 503.781, 312.807 503.474 C 312.499 503.166, 311.940 503.721, 311.564 504.707 M 231.635 512.250 C 230.680 514.038, 229.206 516.772, 228.359 518.326 C 227.511 519.880, 227.089 521.422, 227.419 521.753 C 228.173 522.506, 230.925 518.959, 230.968 517.179 C 230.986 516.452, 231.675 515.182, 232.500 514.357 C 233.766 513.091, 234.671 509, 233.685 509 C 233.512 509, 232.589 510.462, 231.635 512.250 M 308 512.500 C 308 513.325, 308.177 514, 308.393 514 C 308.609 514, 309.045 513.325, 309.362 512.500 C 309.678 511.675, 309.501 511, 308.969 511 C 308.436 511, 308 511.675, 308 512.500 M 225.449 525.349 C 225.070 526.858, 225.039 528.372, 225.380 528.713 C 225.721 529.054, 226 528.621, 226 527.750 C 226 526.879, 226.436 526.017, 226.968 525.833 C 227.557 525.631, 227.584 524.933, 227.037 524.052 C 226.337 522.925, 225.985 523.213, 225.449 525.349 M 223 532 C 223 532.550, 223.450 533, 224 533 C 224.550 533, 225 532.550, 225 532 C 225 531.450, 224.550 531, 224 531 C 223.450 531, 223 531.450, 223 532 M 222 536 C 222 537.100, 222.173 538, 222.383 538 C 222.594 538, 223.002 537.100, 223.290 536 C 223.577 534.900, 223.405 534, 222.906 534 C 222.408 534, 222 534.900, 222 536 M 315 536.559 C 315 537.416, 315.450 537.840, 316 537.500 C 316.550 537.160, 317 536.459, 317 535.941 C 317 535.423, 316.550 535, 316 535 C 315.450 535, 315 535.702, 315 536.559 M 221.500 540 C 219.592 540.820, 219.603 540.863, 221.750 540.930 C 222.988 540.968, 224 540.550, 224 540 C 224 539.450, 223.887 539.032, 223.750 539.070 C 223.613 539.109, 222.600 539.527, 221.500 540 M 217.564 548.707 C 217.022 550.132, 217.136 550.247, 218.124 549.267 C 218.808 548.588, 219.115 547.781, 218.807 547.474 C 218.499 547.166, 217.940 547.721, 217.564 548.707 M 216.161 553.111 C 214.269 558.160, 207.988 578.655, 207.384 581.750 C 206.235 587.641, 207.876 585.136, 210.005 577.750 C 211.154 573.763, 212.494 569.600, 212.983 568.500 C 214.911 564.162, 218.256 551.923, 217.674 551.340 C 217.334 551.001, 216.653 551.798, 216.161 553.111 M 289.624 559.539 C 289.281 560.432, 289.029 561.689, 289.063 562.332 C 289.098 562.974, 289.558 562.422, 290.085 561.105 C 290.612 559.787, 290.864 558.531, 290.645 558.312 C 290.426 558.093, 289.966 558.645, 289.624 559.539 M 216.729 560.604 C 216.328 561.005, 216.014 562.271, 216.030 563.417 C 216.058 565.340, 216.141 565.363, 217.101 563.712 C 218.220 561.790, 217.934 559.400, 216.729 560.604 M 372.079 585.583 C 372.127 586.748, 372.364 586.985, 372.683 586.188 C 372.972 585.466, 372.936 584.603, 372.604 584.271 C 372.272 583.939, 372.036 584.529, 372.079 585.583 M 340.079 596.583 C 340.127 597.748, 340.364 597.985, 340.683 597.188 C 340.972 596.466, 340.936 595.603, 340.604 595.271 C 340.272 594.939, 340.036 595.529, 340.079 596.583 M 367.624 597.539 C 367.281 598.432, 367.029 599.689, 367.063 600.332 C 367.098 600.974, 367.558 600.422, 368.085 599.105 C 368.612 597.787, 368.864 596.531, 368.645 596.312 C 368.426 596.093, 367.966 596.645, 367.624 597.539 M 365.624 603.539 C 364.659 606.053, 364.943 606.702, 366.122 604.675 C 366.706 603.671, 366.973 602.639, 366.715 602.382 C 366.458 602.124, 365.966 602.645, 365.624 603.539 M 361.731 613.920 C 361.296 615.583, 361.426 615.974, 362.168 615.232 C 362.750 614.650, 363.028 613.585, 362.788 612.863 C 362.538 612.114, 362.085 612.568, 361.731 613.920 M 197.248 626.622 C 195.082 638.048, 194.515 642.818, 195.433 641.901 C 196.343 640.990, 200.118 619.875, 199.817 617.374 C 199.642 615.928, 198.487 620.089, 197.248 626.622 M 356.665 629.651 C 355.856 632.318, 354.859 635.400, 354.450 636.500 C 353.945 637.858, 354.034 638.179, 354.730 637.500 C 356.069 636.193, 359.361 626.028, 358.670 625.337 C 358.376 625.043, 357.474 626.985, 356.665 629.651 M 278.079 627.583 C 278.127 628.748, 278.364 628.985, 278.683 628.188 C 278.972 627.466, 278.936 626.603, 278.604 626.271 C 278.272 625.939, 278.036 626.529, 278.079 627.583 M 267.625 636.125 C 266.791 640.293, 267.599 641.101, 268.500 637 C 268.880 635.271, 268.982 633.649, 268.727 633.394 C 268.472 633.139, 267.976 634.368, 267.625 636.125 M 352.500 641 C 352.125 642.183, 352.042 643.376, 352.317 643.651 C 352.592 643.926, 353.125 643.183, 353.500 642 C 353.875 640.817, 353.958 639.624, 353.683 639.349 C 353.408 639.074, 352.875 639.817, 352.500 641 M 266.079 642.583 C 266.127 643.748, 266.364 643.985, 266.683 643.188 C 266.972 642.466, 266.936 641.603, 266.604 641.271 C 266.272 640.939, 266.036 641.529, 266.079 642.583 M 265.079 647.583 C 265.127 648.748, 265.364 648.985, 265.683 648.188 C 265.972 647.466, 265.936 646.603, 265.604 646.271 C 265.272 645.939, 265.036 646.529, 265.079 647.583 M 273.624 647.539 C 273.281 648.432, 273.039 649.914, 273.086 650.832 C 273.133 651.749, 273.568 651.173, 274.053 649.550 C 274.996 646.394, 274.662 644.832, 273.624 647.539 M 272.667 653.667 C 272.300 654.033, 272.039 655.496, 272.086 656.917 C 272.170 659.453, 272.188 659.447, 273.053 656.550 C 273.962 653.507, 273.828 652.506, 272.667 653.667 M 263.543 654.931 C 263.226 655.443, 263.425 656.144, 263.984 656.490 C 264.543 656.835, 265 656.416, 265 655.559 C 265 653.802, 264.400 653.544, 263.543 654.931 M 263.079 659.583 C 263.127 660.748, 263.364 660.985, 263.683 660.188 C 263.972 659.466, 263.936 658.603, 263.604 658.271 C 263.272 657.939, 263.036 658.529, 263.079 659.583 M 191.158 661 C 191.158 662.375, 191.385 662.938, 191.662 662.250 C 191.940 661.563, 191.940 660.438, 191.662 659.750 C 191.385 659.063, 191.158 659.625, 191.158 661 M 262.079 664.583 C 262.127 665.748, 262.364 665.985, 262.683 665.188 C 262.972 664.466, 262.936 663.603, 262.604 663.271 C 262.272 662.939, 262.036 663.529, 262.079 664.583 M 189.548 669.750 C 189.173 672.913, 188.434 677.167, 187.907 679.204 C 187.379 681.241, 186.095 689.791, 185.054 698.204 C 181.997 722.887, 181.691 726.607, 182.802 725.500 C 183.354 724.950, 184.016 722.475, 184.273 720 C 185.279 710.303, 187.298 698, 187.883 697.997 C 188.222 697.995, 188.465 695.183, 188.421 691.747 C 188.374 687.961, 188.908 684.564, 189.777 683.124 C 190.896 681.271, 190.940 680.581, 189.977 679.986 C 189.266 679.546, 189.080 678.679, 189.538 677.939 C 190.424 676.504, 191.483 664, 190.718 664 C 190.450 664, 189.923 666.587, 189.548 669.750 M 270.667 664.667 C 270.300 665.033, 270.014 666.046, 270.030 666.917 C 270.055 668.217, 270.251 668.174, 271.122 666.675 C 272.199 664.823, 271.887 663.447, 270.667 664.667 M 260.625 670.125 C 259.791 674.293, 260.599 675.101, 261.500 671 C 261.880 669.271, 261.982 667.649, 261.727 667.394 C 261.472 667.139, 260.976 668.368, 260.625 670.125 M 304.624 668.539 C 303.659 671.053, 303.943 671.702, 305.122 669.675 C 305.706 668.671, 305.973 667.639, 305.715 667.382 C 305.458 667.124, 304.966 667.645, 304.624 668.539 M 345.158 670 C 345.158 671.375, 345.385 671.938, 345.662 671.250 C 345.940 670.563, 345.940 669.438, 345.662 668.750 C 345.385 668.063, 345.158 668.625, 345.158 670 M 169 674.059 C 169 674.641, 169.450 674.840, 170 674.500 C 170.550 674.160, 171 673.684, 171 673.441 C 171 673.198, 170.550 673, 170 673 C 169.450 673, 169 673.477, 169 674.059 M 182.500 678 C 182.840 678.550, 183.541 679, 184.059 679 C 184.577 679, 185 678.550, 185 678 C 185 677.450, 184.298 677, 183.441 677 C 182.584 677, 182.160 677.450, 182.500 678 M 301.079 683.583 C 301.127 684.748, 301.364 684.985, 301.683 684.188 C 301.972 683.466, 301.936 682.603, 301.604 682.271 C 301.272 681.939, 301.036 682.529, 301.079 683.583 M 341 684 C 341 684.550, 341.477 685, 342.059 685 C 342.641 685, 342.840 684.550, 342.500 684 C 342.160 683.450, 341.684 683, 341.441 683 C 341.198 683, 341 683.450, 341 684 M 278.123 691 C 278.040 691.825, 277.723 693.625, 277.418 695 C 276.938 697.161, 277.016 697.259, 277.997 695.721 C 278.621 694.743, 278.938 692.943, 278.702 691.721 C 278.466 690.500, 278.205 690.175, 278.123 691 M 340.079 694.583 C 340.127 695.748, 340.364 695.985, 340.683 695.188 C 340.972 694.466, 340.936 693.603, 340.604 693.271 C 340.272 692.939, 340.036 693.529, 340.079 694.583 M 256.195 698.500 C 256.215 700.150, 256.439 700.704, 256.693 699.731 C 256.947 698.758, 256.930 697.408, 256.656 696.731 C 256.382 696.054, 256.175 696.850, 256.195 698.500 M 298.158 703 C 298.158 704.375, 298.385 704.938, 298.662 704.250 C 298.940 703.563, 298.940 702.438, 298.662 701.750 C 298.385 701.063, 298.158 701.625, 298.158 703 M 255.079 704.583 C 255.127 705.748, 255.364 705.985, 255.683 705.188 C 255.972 704.466, 255.936 703.603, 255.604 703.271 C 255.272 702.939, 255.036 703.529, 255.079 704.583 M 275.459 705.067 C 275.096 705.653, 275.014 706.348, 275.276 706.610 C 275.538 706.872, 276.019 706.392, 276.345 705.543 C 277.021 703.781, 276.445 703.471, 275.459 705.067 M 163.500 709 C 163.160 709.550, 163.359 710, 163.941 710 C 164.523 710, 165 709.550, 165 709 C 165 708.450, 164.802 708, 164.559 708 C 164.316 708, 163.840 708.450, 163.500 709 M 254.079 710.583 C 254.127 711.748, 254.364 711.985, 254.683 711.188 C 254.972 710.466, 254.936 709.603, 254.604 709.271 C 254.272 708.939, 254.036 709.529, 254.079 710.583 M 274.158 712 C 274.158 713.375, 274.385 713.938, 274.662 713.250 C 274.940 712.563, 274.940 711.438, 274.662 710.750 C 274.385 710.063, 274.158 710.625, 274.158 712 M 295.625 716.125 C 294.771 720.394, 294.841 722.216, 295.834 721.602 C 296.635 721.107, 297.374 713, 296.618 713 C 296.416 713, 295.969 714.406, 295.625 716.125 M 253.079 715.583 C 253.127 716.748, 253.364 716.985, 253.683 716.188 C 253.972 715.466, 253.936 714.603, 253.604 714.271 C 253.272 713.939, 253.036 714.529, 253.079 715.583 M 273.547 717.250 C 273.332 717.938, 272.917 721.425, 272.625 725 C 272.210 730.067, 272.308 730.839, 273.069 728.500 C 274.316 724.666, 275.338 716, 274.543 716 C 274.210 716, 273.762 716.563, 273.547 717.250 M 294.158 731 C 294.158 732.375, 294.385 732.938, 294.662 732.250 C 294.940 731.563, 294.940 730.438, 294.662 729.750 C 294.385 729.063, 294.158 729.625, 294.158 731 M 332.556 735.556 C 332.179 737.562, 332.071 739.404, 332.315 739.649 C 332.560 739.893, 333.068 738.451, 333.444 736.444 C 333.821 734.438, 333.929 732.596, 333.685 732.351 C 333.440 732.107, 332.932 733.549, 332.556 735.556 M 293.195 736.500 C 293.215 738.150, 293.439 738.704, 293.693 737.731 C 293.947 736.758, 293.930 735.408, 293.656 734.731 C 293.382 734.054, 293.175 734.850, 293.195 736.500 M 271.079 736.583 C 271.127 737.748, 271.364 737.985, 271.683 737.188 C 271.972 736.466, 271.936 735.603, 271.604 735.271 C 271.272 734.939, 271.036 735.529, 271.079 736.583 M 180.543 739.931 C 180.226 740.443, 180.425 741.144, 180.984 741.490 C 181.543 741.835, 182 741.416, 182 740.559 C 182 738.802, 181.400 738.544, 180.543 739.931 M 331.195 743.500 C 331.215 745.150, 331.439 745.704, 331.693 744.731 C 331.947 743.758, 331.930 742.408, 331.656 741.731 C 331.382 741.054, 331.175 741.850, 331.195 743.500 M 178.393 747.582 C 178.727 748.452, 179 750.327, 179 751.748 C 179 755.234, 179.590 754.324, 180.296 749.750 C 180.753 746.786, 180.551 746, 179.330 746 C 178.333 746, 178.001 746.560, 178.393 747.582 M 329.625 751.125 C 328.796 755.270, 328.834 756, 329.882 756 C 330.367 756, 330.789 754.200, 330.819 752 C 330.886 747.196, 330.471 746.893, 329.625 751.125 M 268 751 C 268 751.550, 268.450 752, 269 752 C 269.550 752, 270 751.550, 270 751 C 270 750.450, 269.550 750, 269 750 C 268.450 750, 268 750.450, 268 751 M 255 755.559 C 255 756.416, 255.450 756.840, 256 756.500 C 256.550 756.160, 257 755.459, 257 754.941 C 257 754.423, 256.550 754, 256 754 C 255.450 754, 255 754.702, 255 755.559 M 253.624 763.539 C 252.659 766.053, 252.943 766.702, 254.122 764.675 C 254.706 763.671, 254.973 762.639, 254.715 762.382 C 254.458 762.124, 253.966 762.645, 253.624 763.539 M 328.079 764.583 C 328.127 765.748, 328.364 765.985, 328.683 765.188 C 328.972 764.466, 328.936 763.603, 328.604 763.271 C 328.272 762.939, 328.036 763.529, 328.079 764.583 M 245.079 765.583 C 245.127 766.748, 245.364 766.985, 245.683 766.188 C 245.972 765.466, 245.936 764.603, 245.604 764.271 C 245.272 763.939, 245.036 764.529, 245.079 765.583 M 177.232 768 C 177.232 769.925, 177.438 770.712, 177.689 769.750 C 177.941 768.788, 177.941 767.212, 177.689 766.250 C 177.438 765.288, 177.232 766.075, 177.232 768 M 168.079 773.583 C 168.127 774.748, 168.364 774.985, 168.683 774.188 C 168.972 773.466, 168.936 772.603, 168.604 772.271 C 168.272 771.939, 168.036 772.529, 168.079 773.583 M 326 773.059 C 326 773.641, 326.450 773.840, 327 773.500 C 327.550 773.160, 328 772.684, 328 772.441 C 328 772.198, 327.550 772, 327 772 C 326.450 772, 326 772.477, 326 773.059 M 157.232 777 C 157.232 778.925, 157.438 779.712, 157.689 778.750 C 157.941 777.788, 157.941 776.212, 157.689 775.250 C 157.438 774.288, 157.232 775.075, 157.232 777 M 250.158 780 C 250.158 781.375, 250.385 781.938, 250.662 781.250 C 250.940 780.563, 250.940 779.438, 250.662 778.750 C 250.385 778.063, 250.158 778.625, 250.158 780 M 171.138 784.667 C 169.756 791.547, 169.653 795.766, 170.899 794.450 C 171.833 793.463, 173.556 779, 172.740 779 C 172.485 779, 171.764 781.550, 171.138 784.667 M 248.079 795.583 C 248.127 796.748, 248.364 796.985, 248.683 796.188 C 248.972 795.466, 248.936 794.603, 248.604 794.271 C 248.272 793.939, 248.036 794.529, 248.079 795.583 M 221.079 814.583 C 221.127 815.748, 221.364 815.985, 221.683 815.188 C 221.972 814.466, 221.936 813.603, 221.604 813.271 C 221.272 812.939, 221.036 813.529, 221.079 814.583 M 242.079 831.583 C 242.127 832.748, 242.364 832.985, 242.683 832.188 C 242.972 831.466, 242.936 830.603, 242.604 830.271 C 242.272 829.939, 242.036 830.529, 242.079 831.583 M 240.250 840.769 C 238.569 850.546, 238.804 854.104, 240.596 846 C 241.387 842.425, 241.914 838.150, 241.767 836.500 C 241.592 834.533, 241.069 836.004, 240.250 840.769 M 297.667 838.667 C 297.300 839.033, 297.014 840.046, 297.030 840.917 C 297.055 842.217, 297.251 842.174, 298.122 840.675 C 299.199 838.823, 298.887 837.447, 297.667 838.667 M 296.079 845.583 C 296.127 846.748, 296.364 846.985, 296.683 846.188 C 296.972 845.466, 296.936 844.603, 296.604 844.271 C 296.272 843.939, 296.036 844.529, 296.079 845.583 M 273.079 849.583 C 273.127 850.748, 273.364 850.985, 273.683 850.188 C 273.972 849.466, 273.936 848.603, 273.604 848.271 C 273.272 847.939, 273.036 848.529, 273.079 849.583 M 295.158 851 C 295.158 852.375, 295.385 852.938, 295.662 852.250 C 295.940 851.563, 295.940 850.438, 295.662 849.750 C 295.385 849.063, 295.158 849.625, 295.158 851 M 238.286 860.500 C 238.294 863.250, 238.488 864.256, 238.718 862.736 C 238.947 861.216, 238.941 858.966, 238.704 857.736 C 238.467 856.506, 238.279 857.750, 238.286 860.500 M 271.079 868.583 C 271.127 869.748, 271.364 869.985, 271.683 869.188 C 271.972 868.466, 271.936 867.603, 271.604 867.271 C 271.272 866.939, 271.036 867.529, 271.079 868.583 M 270.079 873.583 C 270.127 874.748, 270.364 874.985, 270.683 874.188 C 270.972 873.466, 270.936 872.603, 270.604 872.271 C 270.272 871.939, 270.036 872.529, 270.079 873.583 M 288.524 891.169 C 287.520 895.579, 286.927 903.406, 287.652 902.681 C 288.751 901.582, 290.713 890.153, 290 889 C 289.576 888.314, 288.972 889.202, 288.524 891.169 M 284 893 C 284 894.867, 284.267 895.133, 285.200 894.200 C 286.133 893.267, 286.133 892.733, 285.200 891.800 C 284.267 890.867, 284 891.133, 284 893 M 235 896.167 C 235 899.794, 235.861 899.494, 236.564 895.623 C 236.825 894.180, 236.580 893, 236.020 893 C 235.459 893, 235 894.425, 235 896.167 M 272.736 894.598 C 271.934 895.399, 272.983 898, 274.107 898 C 274.598 898, 275 897.100, 275 896 C 275 894.051, 273.939 893.394, 272.736 894.598 M 263.431 896.112 C 263.053 896.723, 263.191 897.511, 263.737 897.862 C 264.283 898.213, 264.638 899.962, 264.526 901.750 C 264.278 905.699, 265.077 905.894, 266.750 902.293 C 268.424 898.689, 268.325 897, 266.441 897 C 265.584 897, 265.160 896.550, 265.500 896 C 265.840 895.450, 265.668 895, 265.118 895 C 264.568 895, 263.809 895.500, 263.431 896.112 M 231 896.941 C 231 897.459, 231.450 898.160, 232 898.500 C 232.550 898.840, 233 898.416, 233 897.559 C 233 896.702, 232.550 896, 232 896 C 231.450 896, 231 896.423, 231 896.941 M 245.791 896.586 C 245.403 897.183, 245.419 898.921, 245.827 900.447 C 246.490 902.926, 246.713 903.050, 247.907 901.612 C 248.694 900.663, 248.811 900, 248.192 900 C 247.613 900, 246.995 898.987, 246.818 897.750 C 246.633 896.447, 246.200 895.957, 245.791 896.586 M 305.158 899 C 305.158 900.375, 305.385 900.938, 305.662 900.250 C 305.940 899.563, 305.940 898.438, 305.662 897.750 C 305.385 897.063, 305.158 897.625, 305.158 899 M 204.520 903.648 C 203.339 911.110, 203.284 912, 203.999 912 C 204.754 912, 206.184 900.851, 205.515 900.181 C 205.302 899.969, 204.855 901.529, 204.520 903.648 M 234.720 901.332 C 234.324 902.339, 234.049 905.039, 234.110 907.332 L 234.219 911.500 235.117 907 C 236.146 901.845, 235.900 898.332, 234.720 901.332 M 231.079 902.583 C 231.127 903.748, 231.364 903.985, 231.683 903.188 C 231.972 902.466, 231.936 901.603, 231.604 901.271 C 231.272 900.939, 231.036 901.529, 231.079 902.583 M 231.500 906 C 231.840 906.550, 232.316 907, 232.559 907 C 232.802 907, 233 906.550, 233 906 C 233 905.450, 232.523 905, 231.941 905 C 231.359 905, 231.160 905.450, 231.500 906 M 261.086 918.500 C 261.190 920.394, 262.856 923.584, 262.914 922 C 262.945 921.175, 262.533 919.825, 262 919 C 261.467 918.175, 261.055 917.950, 261.086 918.500 M 266.195 920.500 C 266.215 922.150, 266.439 922.704, 266.693 921.731 C 266.947 920.758, 266.930 919.408, 266.656 918.731 C 266.382 918.054, 266.175 918.850, 266.195 920.500 M 300.158 931 C 300.158 932.375, 300.385 932.938, 300.662 932.250 C 300.940 931.563, 300.940 930.438, 300.662 929.750 C 300.385 929.063, 300.158 929.625, 300.158 931 M 231.728 938.500 C 231.336 942.350, 231.074 947.975, 231.146 951 C 231.237 954.790, 231.552 953.236, 232.157 946 C 233.161 934.017, 232.810 927.893, 231.728 938.500 M 259.223 935.750 C 259.241 938.650, 259.429 939.047, 260.053 937.500 C 261.161 934.751, 261.185 932, 260.100 932 C 259.605 932, 259.210 933.688, 259.223 935.750 M 219.252 936.500 C 219.263 938.700, 219.468 939.482, 219.707 938.238 C 219.946 936.994, 219.937 935.194, 219.687 934.238 C 219.437 933.282, 219.241 934.300, 219.252 936.500 M 278.195 940.500 C 278.215 942.150, 278.439 942.704, 278.693 941.731 C 278.947 940.758, 278.930 939.408, 278.656 938.731 C 278.382 938.054, 278.175 938.850, 278.195 940.500 M 298.078 943.656 C 297.491 945.770, 297.044 948.850, 297.085 950.500 C 297.132 952.395, 297.673 951.127, 298.556 947.059 C 300.096 939.955, 299.764 937.586, 298.078 943.656 M 218.158 943 C 218.158 944.375, 218.385 944.938, 218.662 944.250 C 218.940 943.563, 218.940 942.438, 218.662 941.750 C 218.385 941.063, 218.158 941.625, 218.158 943 M 258.252 944.500 C 258.263 946.700, 258.468 947.482, 258.707 946.238 C 258.946 944.994, 258.937 943.194, 258.687 942.238 C 258.437 941.282, 258.241 942.300, 258.252 944.500 M 252.158 944 C 252.158 945.375, 252.385 945.938, 252.662 945.250 C 252.940 944.563, 252.940 943.438, 252.662 942.750 C 252.385 942.063, 252.158 942.625, 252.158 944 M 270.418 949.332 C 270.738 950.339, 271 951.577, 271 952.082 C 271 952.587, 271.450 953, 272 953 C 273.448 953, 273.230 951.664, 271.418 949.441 C 269.971 947.665, 269.886 947.656, 270.418 949.332 M 281.232 951 C 281.232 952.925, 281.438 953.712, 281.689 952.750 C 281.941 951.788, 281.941 950.212, 281.689 949.250 C 281.438 948.288, 281.232 949.075, 281.232 951 M 282 963 C 282 963.550, 282.477 964, 283.059 964 C 283.641 964, 283.840 963.550, 283.500 963 C 283.160 962.450, 282.684 962, 282.441 962 C 282.198 962, 282 962.450, 282 963 M 269.684 964.750 C 269.446 965.163, 269.612 966.400, 270.055 967.500 C 270.757 969.246, 270.868 969.151, 270.930 966.750 C 270.999 964.037, 270.531 963.286, 269.684 964.750 M 260.232 971 C 260.232 972.925, 260.438 973.712, 260.689 972.750 C 260.941 971.788, 260.941 970.212, 260.689 969.250 C 260.438 968.288, 260.232 969.075, 260.232 971 M 269.750 970.577 C 269.337 970.993, 269.041 973.171, 269.090 975.417 L 269.180 979.500 270.144 976.151 C 271.187 972.530, 270.962 969.354, 269.750 970.577 M 253.195 989.500 C 253.215 991.150, 253.439 991.704, 253.693 990.731 C 253.947 989.758, 253.930 988.408, 253.656 987.731 C 253.382 987.054, 253.175 987.850, 253.195 989.500 M 268.158 989 C 268.158 990.375, 268.385 990.938, 268.662 990.250 C 268.940 989.563, 268.940 988.438, 268.662 987.750 C 268.385 987.063, 268.158 987.625, 268.158 989 M 380.079 1015.583 C 380.127 1016.748, 380.364 1016.985, 380.683 1016.188 C 380.972 1015.466, 380.936 1014.603, 380.604 1014.271 C 380.272 1013.939, 380.036 1014.529, 380.079 1015.583 M 170.328 1043.500 C 170.333 1047.350, 170.513 1048.802, 170.730 1046.728 C 170.946 1044.653, 170.943 1041.503, 170.722 1039.728 C 170.501 1037.952, 170.324 1039.650, 170.328 1043.500 M 381.500 1043 C 381.840 1043.550, 382.316 1044, 382.559 1044 C 382.802 1044, 383 1043.550, 383 1043 C 383 1042.450, 382.523 1042, 381.941 1042 C 381.359 1042, 381.160 1042.450, 381.500 1043 M 387 1048 C 387 1049.100, 387.408 1050, 387.906 1050 C 388.405 1050, 388.577 1049.100, 388.290 1048 C 388.002 1046.900, 387.594 1046, 387.383 1046 C 387.173 1046, 387 1046.900, 387 1048 M 387.015 1052.191 C 387.007 1053.121, 387.450 1054.160, 388 1054.500 C 389.266 1055.282, 389.266 1053.958, 388 1052 C 387.165 1050.707, 387.029 1050.734, 387.015 1052.191 M 388 1058 C 388 1058.550, 388.477 1059, 389.059 1059 C 389.641 1059, 389.840 1058.550, 389.500 1058 C 389.160 1057.450, 388.684 1057, 388.441 1057 C 388.198 1057, 388 1057.450, 388 1058 M 169.707 1063.750 C 169.403 1066.912, 169.510 1071.750, 169.944 1074.500 C 170.612 1078.736, 170.753 1077.856, 170.866 1068.750 C 170.940 1062.838, 170.833 1058, 170.629 1058 C 170.425 1058, 170.010 1060.588, 169.707 1063.750 M 389.755 1084.829 C 389.492 1085.835, 389.799 1087.373, 390.438 1088.247 C 391.404 1089.567, 391.600 1089.258, 391.600 1086.418 C 391.600 1082.749, 390.538 1081.834, 389.755 1084.829 M 419 1148.059 C 419 1148.641, 419.450 1148.840, 420 1148.500 C 420.550 1148.160, 421 1147.684, 421 1147.441 C 421 1147.198, 420.550 1147, 420 1147 C 419.450 1147, 419 1147.477, 419 1148.059 M 164.070 1151.191 C 164.032 1152.671, 164.450 1154.160, 165 1154.500 C 166.194 1155.238, 166.194 1153.278, 165 1150.500 C 164.233 1148.714, 164.133 1148.788, 164.070 1151.191 M 166.548 1161.357 C 167.233 1165.894, 168.854 1170.479, 169.533 1169.801 C 169.795 1169.539, 169.099 1166.664, 167.987 1163.412 C 166.373 1158.693, 166.083 1158.279, 166.548 1161.357 M 161 1171 C 161 1171.550, 161.450 1172, 162 1172 C 162.550 1172, 163 1171.550, 163 1171 C 163 1170.450, 162.550 1170, 162 1170 C 161.450 1170, 161 1170.450, 161 1171 M 169.411 1173.614 C 169.812 1174.651, 170.390 1176.737, 170.695 1178.250 C 171 1179.763, 171.652 1181, 172.144 1181 C 172.636 1181, 172.777 1179.961, 172.459 1178.691 C 172.140 1177.421, 171.755 1175.533, 171.602 1174.495 C 171.450 1173.458, 170.730 1172.410, 170.003 1172.168 C 169.068 1171.856, 168.894 1172.278, 169.411 1173.614 M 492 1280 C 492 1280.550, 492.450 1281, 493 1281 C 493.550 1281, 494 1280.550, 494 1280 C 494 1279.450, 493.550 1279, 493 1279 C 492.450 1279, 492 1279.450, 492 1280 M 492 1283.559 C 492 1284.971, 499.479 1293.540, 510.478 1304.730 C 517.090 1311.457, 522.950 1317.434, 523.500 1318.012 C 527.812 1322.550, 541.703 1334.939, 542.509 1334.966 C 543.756 1335.008, 546.340 1338.993, 545.600 1339.733 C 545.305 1340.029, 543.884 1339.499, 542.444 1338.556 C 538.354 1335.875, 538.692 1337.199, 543.206 1341.540 C 546.638 1344.840, 547.230 1345.125, 546.756 1343.250 C 546.363 1341.696, 546.632 1341, 547.625 1341 C 549.584 1341, 550.603 1344.009, 548.984 1345.010 C 547.940 1345.655, 548.011 1346.154, 549.338 1347.481 C 550.887 1349.030, 551 1348.932, 551 1346.025 L 551 1342.907 553.397 1344.703 C 554.715 1345.691, 555.606 1346.810, 555.375 1347.189 C 555.145 1347.569, 555.754 1347.822, 556.728 1347.752 C 557.703 1347.682, 561.352 1349.622, 564.838 1352.062 C 578.222 1361.432, 591.893 1370, 593.460 1370 C 594.474 1370, 594.003 1367.860, 592.703 1366.561 C 591.990 1365.847, 590.415 1364.949, 589.203 1364.565 C 587.992 1364.180, 587 1363.446, 587 1362.933 C 587 1362.420, 586.637 1362.113, 586.194 1362.250 C 585.175 1362.566, 578.016 1357.757, 578.007 1356.750 C 578.003 1356.338, 577.514 1356, 576.919 1356 C 575.918 1356, 566.421 1350.062, 563 1347.297 C 557.299 1342.688, 553.627 1340, 553.031 1340 C 552.650 1340, 551.744 1338.890, 551.018 1337.534 C 550.292 1336.178, 549.312 1335.307, 548.840 1335.599 C 547.469 1336.446, 537.390 1328.293, 529.131 1319.657 C 526.584 1316.993, 520 1310.330, 514.500 1304.849 C 509 1299.368, 504.500 1294.469, 504.500 1293.961 C 504.500 1293.454, 503.375 1292.259, 502 1291.306 C 500.625 1290.352, 498.180 1288.094, 496.566 1286.286 C 493.879 1283.277, 492 1282.154, 492 1283.559 M 478 1287.878 C 478 1288.360, 478.675 1289.315, 479.500 1290 C 480.325 1290.685, 481 1291.598, 481 1292.029 C 481 1292.932, 496.758 1309, 497.643 1309 C 498.639 1309, 494.772 1303.580, 492.744 1302.133 C 491.602 1301.318, 491.023 1300.019, 491.311 1298.917 C 491.577 1297.900, 491.315 1297.165, 490.729 1297.284 C 490.143 1297.403, 489.173 1296.564, 488.574 1295.419 C 487.975 1294.275, 486.966 1293.511, 486.333 1293.722 C 485.700 1293.933, 483.963 1292.507, 482.473 1290.553 C 479.871 1287.143, 478 1286.023, 478 1287.878 M 468.449 1296.533 C 469.492 1299.030, 469.650 1300.790, 468.987 1302.533 C 468.196 1304.615, 468.344 1305, 469.936 1305 C 470.973 1305, 473.018 1306.463, 474.480 1308.250 C 475.943 1310.037, 477.783 1312.293, 478.569 1313.261 C 479.356 1314.230, 480 1315.262, 480 1315.553 C 480 1316.478, 486.468 1324.920, 487.207 1324.961 C 487.596 1324.982, 486.306 1322.300, 484.340 1319 C 482.375 1315.700, 480.369 1313, 479.883 1313 C 479.397 1313, 479 1312.136, 479 1311.081 C 479 1308.562, 476.077 1303.084, 473.250 1300.307 C 472.012 1299.090, 471 1297.489, 471 1296.748 C 471 1295.261, 469.062 1293, 467.787 1293 C 467.339 1293, 467.637 1294.590, 468.449 1296.533 M 473.738 1295.596 C 473.086 1296.247, 476.507 1302.804, 478.364 1304.466 C 479 1305.035, 480.641 1306.793, 482.010 1308.374 L 484.500 1311.248 482.104 1310.511 C 480.138 1309.905, 479.920 1310.017, 480.889 1311.136 C 481.537 1311.886, 482.751 1313.400, 483.586 1314.500 C 485.076 1316.463, 485.092 1316.458, 484.484 1314.250 C 484.095 1312.835, 484.305 1312, 485.049 1312 C 485.803 1312, 486.040 1312.998, 485.700 1314.750 C 485.352 1316.544, 485.887 1318.672, 487.241 1320.873 L 489.315 1324.246 490.823 1321.373 C 491.677 1319.745, 492.511 1319.042, 492.748 1319.750 C 493.513 1322.034, 495.154 1321.064, 494.441 1318.750 C 493.775 1316.590, 488.456 1308.679, 484.860 1304.500 C 483.913 1303.400, 481.711 1300.813, 479.966 1298.750 C 476.963 1295.201, 475.084 1294.250, 473.738 1295.596 M 498 1296.941 C 498 1297.459, 498.445 1298.157, 498.989 1298.493 C 499.555 1298.843, 499.723 1298.442, 499.382 1297.552 C 498.717 1295.820, 498 1295.503, 498 1296.941 M 209.583 1305 C 210.324 1307.785, 210.797 1308.536, 211.418 1307.915 C 211.648 1307.685, 211.179 1306.373, 210.376 1304.998 L 208.917 1302.500 209.583 1305 M 499 1304.811 C 499 1305.843, 502.842 1310, 503.795 1310 C 504.189 1310, 505.100 1311.329, 505.819 1312.953 C 506.538 1314.576, 507.997 1316.182, 509.063 1316.520 C 510.128 1316.858, 511 1317.728, 511 1318.452 C 511 1319.177, 512.237 1320.574, 513.750 1321.556 C 515.263 1322.539, 518.008 1324.841, 519.850 1326.671 C 524.356 1331.148, 525.906 1330.896, 522.438 1326.250 C 519.035 1321.692, 513.951 1317.096, 512.250 1317.041 C 511.563 1317.018, 510.993 1316.662, 510.985 1316.250 C 510.966 1315.294, 500.514 1304, 499.648 1304 C 499.292 1304, 499 1304.365, 499 1304.811 M 509.710 1310 C 509.998 1311.100, 510.647 1312, 511.152 1312 C 511.659 1312, 511.591 1311.105, 511 1310 C 510.411 1308.900, 509.763 1308, 509.558 1308 C 509.354 1308, 509.423 1308.900, 509.710 1310 M 487.500 1315.500 C 487.500 1316.770, 487.837 1317.600, 488.250 1317.345 C 488.663 1317.091, 489 1316.260, 489 1315.500 C 489 1314.740, 488.663 1313.909, 488.250 1313.655 C 487.837 1313.400, 487.500 1314.230, 487.500 1315.500 M 513.500 1314 C 513.840 1314.550, 514.568 1315, 515.118 1315 C 515.668 1315, 515.840 1314.550, 515.500 1314 C 515.160 1313.450, 514.432 1313, 513.882 1313 C 513.332 1313, 513.160 1313.450, 513.500 1314 M 246.546 1320 C 247.523 1321.925, 248.507 1322.953, 248.733 1322.285 C 248.959 1321.617, 248.159 1320.042, 246.956 1318.785 L 244.769 1316.500 246.546 1320 M 477.457 1319.750 C 478.391 1323.557, 480.647 1325.753, 482.116 1324.284 C 482.956 1323.444, 482.684 1322.365, 481.055 1320.077 C 478.303 1316.212, 476.551 1316.053, 477.457 1319.750 M 496 1317.882 C 496 1318.432, 496.450 1319.160, 497 1319.500 C 497.550 1319.840, 498 1319.668, 498 1319.118 C 498 1318.568, 497.550 1317.840, 497 1317.500 C 496.450 1317.160, 496 1317.332, 496 1317.882 M 488.500 1320 C 488.840 1320.550, 489.316 1321, 489.559 1321 C 489.802 1321, 490 1320.550, 490 1320 C 490 1319.450, 489.523 1319, 488.941 1319 C 488.359 1319, 488.160 1319.450, 488.500 1320 M 490.590 1323.627 C 489.965 1325.254, 490.879 1326.932, 494.220 1330.289 C 496.595 1332.676, 496.479 1331.481, 493.997 1327.995 C 492.895 1326.448, 492.268 1324.466, 492.604 1323.591 C 492.939 1322.716, 492.764 1322, 492.214 1322 C 491.664 1322, 490.933 1322.732, 490.590 1323.627 M 250 1324.441 C 250 1325.298, 250.450 1326, 251 1326 C 251.550 1326, 252 1325.577, 252 1325.059 C 252 1324.541, 251.550 1323.840, 251 1323.500 C 250.450 1323.160, 250 1323.584, 250 1324.441 M 515.575 1327.250 C 521.862 1334.754, 539.294 1350.437, 543.641 1352.500 C 545.426 1353.347, 547.716 1355.095, 548.730 1356.384 C 549.744 1357.674, 552.020 1359.476, 553.787 1360.390 C 555.554 1361.304, 557 1362.490, 557 1363.026 C 557 1363.562, 557.610 1364, 558.356 1364 C 559.102 1364, 561.745 1365.552, 564.230 1367.449 C 566.714 1369.346, 570.941 1372.118, 573.623 1373.609 C 576.306 1375.100, 579.267 1376.794, 580.205 1377.372 C 582.374 1378.711, 583.075 1378.002, 582.344 1375.206 C 582.006 1373.916, 580.984 1373, 579.883 1373 C 578.848 1373, 578 1372.550, 578 1372 C 578 1371.450, 577.438 1371.112, 576.750 1371.250 C 576.063 1371.387, 575.631 1370.882, 575.791 1370.127 C 575.979 1369.242, 575.522 1368.970, 574.503 1369.360 C 573.569 1369.719, 572.683 1369.337, 572.333 1368.426 C 572.008 1367.578, 571.197 1367.094, 570.530 1367.350 C 568.960 1367.953, 567.852 1367.126, 565.704 1363.750 C 564.741 1362.237, 563.289 1361, 562.477 1361 C 561.665 1361, 561 1360.599, 561 1360.108 C 561 1359.618, 559.834 1358.924, 558.409 1358.567 C 556.762 1358.153, 556.010 1357.415, 556.346 1356.541 C 556.849 1355.229, 554.430 1353.474, 552.664 1353.870 C 552.204 1353.973, 551.589 1353.144, 551.297 1352.029 C 550.689 1349.703, 550.523 1349.650, 548.039 1350.979 C 546.680 1351.707, 545.862 1351.530, 544.855 1350.292 C 543.675 1348.840, 543.725 1348.710, 545.250 1349.281 C 547.906 1350.277, 547.375 1349.219, 543.276 1345.354 C 541.228 1343.422, 539.391 1342.328, 539.193 1342.921 C 538.995 1343.514, 538.398 1344, 537.867 1344 C 537.259 1344, 537.246 1343.383, 537.834 1342.333 C 539.337 1339.646, 535.893 1336.645, 532.230 1337.449 C 529.586 1338.030, 528.659 1337.439, 522.970 1331.547 C 519.493 1327.946, 515.983 1325, 515.169 1325 C 513.984 1325, 514.065 1325.447, 515.575 1327.250 M 509.797 1333.039 C 513.077 1337.499, 512.817 1338.949, 508.731 1338.985 C 505.150 1339.016, 509.713 1347.883, 513.358 1347.978 C 513.831 1347.990, 513.917 1346.763, 513.551 1345.250 C 512.915 1342.623, 513.025 1342.667, 516.016 1346.250 C 519.383 1350.285, 521 1350.971, 521 1348.365 C 521 1347.162, 521.535 1347.410, 523.026 1349.306 C 525.666 1352.662, 528.587 1353.556, 530.538 1351.605 C 531.913 1350.230, 531.657 1349.802, 528.034 1347.404 C 525.816 1345.936, 524 1344.296, 524 1343.760 C 524 1343.224, 523.300 1343.055, 522.444 1343.383 C 521.352 1343.802, 520.579 1343.090, 519.847 1340.990 C 519.273 1339.345, 518.241 1338, 517.552 1338 C 516.863 1338, 515.276 1336.665, 514.026 1335.034 C 512.776 1333.403, 510.594 1331.309, 509.177 1330.380 C 506.712 1328.765, 506.739 1328.881, 509.797 1333.039 M 233 1348.500 C 233 1349.325, 233.730 1350, 234.622 1350 C 235.951 1350, 236.020 1349.729, 235 1348.500 C 234.315 1347.675, 233.585 1347, 233.378 1347 C 233.170 1347, 233 1347.675, 233 1348.500 M 556.369 1350.607 C 555.997 1351.648, 555.509 1352.838, 555.287 1353.250 C 555.064 1353.662, 555.306 1354, 555.824 1354 C 556.822 1354, 558.227 1349.894, 557.484 1349.151 C 557.244 1348.910, 556.742 1349.566, 556.369 1350.607 M 560 1354 C 560 1354.550, 560.702 1355, 561.559 1355 C 562.416 1355, 562.840 1354.550, 562.500 1354 C 562.160 1353.450, 561.459 1353, 560.941 1353 C 560.423 1353, 560 1353.450, 560 1354 M 237 1354.392 C 237 1354.800, 238.125 1356.608, 239.500 1358.411 C 240.875 1360.214, 242 1361.961, 242 1362.293 C 242 1363.259, 246.975 1368.358, 247.453 1367.880 C 248.089 1367.244, 243.959 1361, 242.902 1361 C 242.406 1361, 242 1360.403, 242 1359.674 C 242 1358.945, 240.875 1357.292, 239.500 1356 C 238.125 1354.708, 237 1353.985, 237 1354.392 M 566 1358.500 C 566.685 1359.325, 567.695 1360, 568.245 1360 C 568.803 1360, 568.694 1359.337, 568 1358.500 C 567.315 1357.675, 566.305 1357, 565.755 1357 C 565.197 1357, 565.306 1357.663, 566 1358.500 M 572.985 1361.954 C 574.352 1363.004, 575.669 1363.664, 575.912 1363.421 C 576.478 1362.856, 572.823 1360.067, 571.500 1360.054 C 570.950 1360.049, 571.618 1360.904, 572.985 1361.954 M 549.123 1363.352 C 547.652 1365.124, 551.220 1370.558, 555.944 1373.741 C 557.812 1375, 560.188 1377.424, 561.224 1379.128 C 562.260 1380.831, 563.339 1381.994, 563.623 1381.711 C 563.906 1381.428, 566.798 1382.277, 570.049 1383.598 C 573.300 1384.919, 576.191 1386, 576.473 1386 C 577.679 1386, 562.830 1372.081, 561.008 1371.503 C 559.904 1371.152, 559 1370.446, 559 1369.933 C 559 1369.420, 558.347 1369, 557.550 1369 C 556.752 1369, 555.740 1368.438, 555.300 1367.750 C 554.860 1367.063, 553.600 1365.979, 552.500 1365.343 C 551.400 1364.707, 550.612 1363.694, 550.750 1363.093 C 551.087 1361.620, 550.480 1361.717, 549.123 1363.352 M 365.044 1364.500 C 365.044 1365.050, 365.924 1366.625, 367 1368 C 368.076 1369.375, 368.956 1370.050, 368.956 1369.500 C 368.956 1368.950, 368.076 1367.375, 367 1366 C 365.924 1364.625, 365.044 1363.950, 365.044 1364.500 M 627.020 1366.524 C 627.716 1367.362, 628.491 1367.842, 628.743 1367.591 C 629.436 1366.897, 628.027 1365, 626.819 1365 C 626.155 1365, 626.231 1365.574, 627.020 1366.524 M 249 1370.778 C 249 1372, 249.465 1373, 250.032 1373 C 250.600 1373, 251.426 1373.977, 251.868 1375.171 C 252.309 1376.365, 252.921 1376.928, 253.227 1376.421 C 253.534 1375.914, 252.708 1373.938, 251.392 1372.028 C 249.295 1368.985, 249 1368.831, 249 1370.778 M 282 1369.881 C 282 1370.366, 283.276 1372.054, 284.835 1373.631 C 286.394 1375.209, 288.979 1378.300, 290.579 1380.500 C 292.179 1382.700, 293.716 1384.725, 293.994 1385 C 294.272 1385.275, 296.238 1387.662, 298.362 1390.305 C 300.486 1392.947, 302.416 1394.918, 302.650 1394.683 C 303.268 1394.065, 296.862 1384, 295.851 1384 C 295.383 1384, 295 1383.498, 295 1382.885 C 295 1382.272, 293.505 1380.359, 291.677 1378.635 C 289.850 1376.911, 287.344 1374.037, 286.109 1372.250 C 283.961 1369.141, 282 1368.010, 282 1369.881 M 329 1370 C 329 1370.550, 329.477 1371, 330.059 1371 C 330.641 1371, 330.840 1370.550, 330.500 1370 C 330.160 1369.450, 329.684 1369, 329.441 1369 C 329.198 1369, 329 1369.450, 329 1370 M 596 1370.538 C 596 1371.432, 596.601 1371.707, 597.664 1371.299 C 598.783 1370.869, 599.091 1371.043, 598.605 1371.830 C 597.728 1373.249, 599.900 1373.357, 602 1372 C 602.825 1371.467, 603.272 1371.024, 602.993 1371.015 C 602.715 1371.007, 601.027 1370.581, 599.243 1370.070 C 596.688 1369.337, 596 1369.436, 596 1370.538 M 603.670 1374.416 C 603.381 1375.171, 607.512 1377.819, 614.443 1381.321 C 620.626 1384.444, 626.093 1387.010, 626.593 1387.022 C 627.092 1387.034, 628.625 1387.924, 630 1389 C 631.375 1390.076, 633.265 1390.966, 634.200 1390.978 C 635.135 1390.990, 636.260 1391.606, 636.700 1392.346 C 637.140 1393.086, 638.998 1393.982, 640.830 1394.337 C 642.661 1394.692, 645.811 1395.699, 647.830 1396.575 C 649.848 1397.452, 653.975 1399.250, 657 1400.571 C 660.025 1401.892, 665.547 1404.088, 669.271 1405.450 C 672.996 1406.812, 677.496 1408.569, 679.271 1409.354 C 688.173 1413.289, 703.676 1417.657, 704.789 1416.544 C 706.002 1415.331, 702.273 1412.853, 697.119 1411.446 C 694.029 1410.603, 690.825 1409.563, 690 1409.136 C 689.175 1408.709, 685.125 1407.336, 681 1406.084 C 671.267 1403.131, 657.990 1397.604, 646.864 1391.873 C 644.864 1390.843, 642.501 1390, 641.614 1390 C 640.726 1390, 640 1389.634, 640 1389.187 C 640 1388.410, 630.820 1384, 629.202 1384 C 628.773 1384, 626.658 1383.100, 624.500 1382 C 622.342 1380.900, 619.827 1380, 618.911 1380 C 617.995 1380, 616.692 1379.334, 616.017 1378.521 C 613.069 1374.968, 604.546 1372.135, 603.670 1374.416 M 283.638 1378.500 C 283.955 1379.325, 284.671 1380, 285.229 1380 C 285.815 1380, 285.718 1379.365, 285 1378.500 C 284.315 1377.675, 283.599 1377, 283.409 1377 C 283.219 1377, 283.322 1377.675, 283.638 1378.500 M 256 1380.345 C 256 1381.255, 256.637 1382, 257.417 1382 C 258.196 1382, 259.060 1382.563, 259.338 1383.250 C 259.629 1383.972, 259.875 1384.037, 259.921 1383.405 C 259.964 1382.803, 259.100 1381.495, 258 1380.500 C 256.201 1378.872, 256 1378.857, 256 1380.345 M 594.320 1381.709 C 595.175 1383.092, 599 1384.070, 599 1382.906 C 599 1382.408, 598.587 1382, 598.082 1382 C 597.577 1382, 596.378 1381.699, 595.418 1381.330 C 594.320 1380.909, 593.913 1381.050, 594.320 1381.709 M 288 1383.606 C 288 1384.243, 293.241 1391.132, 296.241 1394.439 C 297.653 1395.994, 298 1396.073, 298 1394.837 C 298 1393.990, 296.650 1391.884, 295 1390.157 C 293.350 1388.431, 292 1386.757, 292 1386.438 C 292 1385.689, 289.319 1383, 288.571 1383 C 288.257 1383, 288 1383.273, 288 1383.606 M 611 1384.801 C 611 1385.498, 619.250 1390, 620.527 1390 C 620.787 1390, 621 1389.590, 621 1389.089 C 621 1388.588, 619.058 1387.238, 616.684 1386.089 C 611.972 1383.808, 611 1383.588, 611 1384.801 M 262.015 1388.028 C 262.612 1389.143, 263.550 1389.778, 264.099 1389.439 C 264.743 1389.041, 264.681 1388.321, 263.926 1387.411 C 262.155 1385.277, 260.780 1385.721, 262.015 1388.028 M 382.005 1389.007 C 383.177 1390.653, 384.556 1392, 385.068 1392 C 385.581 1392, 385.898 1392.338, 385.773 1392.750 C 385.567 1393.433, 394.913 1406, 395.628 1406 C 397.445 1406, 383.844 1387.703, 381.187 1386.573 C 380.465 1386.266, 380.833 1387.361, 382.005 1389.007 M 265.690 1390.692 C 265.104 1391.640, 268.597 1396.769, 269.295 1395.985 C 269.533 1395.718, 268.939 1394.224, 267.975 1392.664 C 267.012 1391.105, 265.984 1390.217, 265.690 1390.692 M 629 1392.500 C 629 1393.325, 629.675 1394, 630.500 1394 C 631.325 1394, 632 1393.325, 632 1392.500 C 632 1391.675, 631.325 1391, 630.500 1391 C 629.675 1391, 629 1391.675, 629 1392.500 M 633.500 1395 C 633.840 1395.550, 634.766 1396, 635.559 1396 C 636.352 1396, 637 1395.550, 637 1395 C 637 1394.450, 636.073 1394, 634.941 1394 C 633.809 1394, 633.160 1394.450, 633.500 1395 M 629 1396.910 C 629 1398.133, 632.563 1400.183, 639.500 1402.952 C 642.800 1404.270, 645.730 1405.684, 646.010 1406.095 C 646.989 1407.529, 652 1408.287, 652 1407.001 C 652 1406.332, 651.326 1406.045, 650.500 1406.362 C 649.675 1406.678, 649 1406.490, 649 1405.944 C 649 1405.398, 647.763 1404.500, 646.250 1403.949 C 644.737 1403.398, 641.466 1401.862, 638.980 1400.536 C 632.866 1397.275, 629 1395.871, 629 1396.910 M 638 1396.816 C 638 1397.339, 638.788 1397.993, 639.750 1398.270 C 640.712 1398.547, 642.400 1399.136, 643.500 1399.581 C 645.308 1400.310, 645.351 1400.238, 643.953 1398.826 C 642.037 1396.890, 638 1395.527, 638 1396.816 M 271.232 1399 C 272.494 1401.020, 274 1401.673, 274 1400.200 C 274 1399.161, 271.833 1397, 270.792 1397 C 270.347 1397, 270.545 1397.900, 271.232 1399 M 749.279 1398.262 C 749.837 1399.734, 749.539 1399.922, 747.473 1399.404 C 746.113 1399.063, 745 1399.196, 745 1399.702 C 745 1401.448, 770.907 1409.133, 776.022 1408.904 C 777.385 1408.844, 779.971 1409.261, 781.769 1409.833 C 783.567 1410.404, 784.809 1410.500, 784.529 1410.047 C 784.248 1409.593, 782.852 1408.929, 781.426 1408.571 C 780 1408.213, 777.080 1406.813, 774.937 1405.460 C 772.793 1404.107, 770.365 1403, 769.540 1403 C 768.715 1403, 766.344 1402.394, 764.270 1401.654 C 755.692 1398.591, 754.153 1398.247, 753.218 1399.182 C 752.623 1399.777, 751.592 1399.455, 750.442 1398.314 C 748.738 1396.625, 748.658 1396.621, 749.279 1398.262 M 275.020 1403.524 C 275.716 1404.362, 276.491 1404.842, 276.743 1404.591 C 277.436 1403.897, 276.027 1402, 274.819 1402 C 274.155 1402, 274.231 1402.574, 275.020 1403.524 M 635.499 1404.001 C 634.822 1405.097, 652.833 1413.857, 657.334 1414.620 C 660.079 1415.086, 659.781 1414.748, 655.090 1412.079 C 652.115 1410.385, 649.190 1408.995, 648.590 1408.988 C 647.991 1408.981, 645.700 1407.947, 643.500 1406.690 C 638.012 1403.553, 636.161 1402.931, 635.499 1404.001 M 406 1418.754 C 406 1420.001, 409.920 1424.847, 409.967 1423.658 C 409.985 1423.194, 409.100 1421.671, 408 1420.273 C 406.900 1418.874, 406 1418.191, 406 1418.754 M 411.079 1425.583 C 411.127 1426.748, 411.364 1426.985, 411.683 1426.188 C 411.972 1425.466, 411.936 1424.603, 411.604 1424.271 C 411.272 1423.939, 411.036 1424.529, 411.079 1425.583 M 413 1428 C 413 1428.550, 413.477 1429, 414.059 1429 C 414.641 1429, 414.840 1428.550, 414.500 1428 C 414.160 1427.450, 413.684 1427, 413.441 1427 C 413.198 1427, 413 1427.450, 413 1428 M 530.500 1431 C 530.840 1431.550, 531.568 1432, 532.118 1432 C 532.668 1432, 532.840 1431.550, 532.500 1431 C 532.160 1430.450, 531.432 1430, 530.882 1430 C 530.332 1430, 530.160 1430.450, 530.500 1431 M 335 1440 C 335.589 1441.100, 336.574 1442, 337.190 1442 C 337.806 1442, 337.495 1441.100, 336.500 1440 C 335.505 1438.900, 334.519 1438, 334.310 1438 C 334.101 1438, 334.411 1438.900, 335 1440 M 436 1449.378 C 436 1449.585, 436.788 1450.373, 437.750 1451.128 C 439.336 1452.371, 439.371 1452.336, 438.128 1450.750 C 436.821 1449.084, 436 1448.555, 436 1449.378 M 510.500 1456 C 510.840 1456.550, 511.316 1457, 511.559 1457 C 511.802 1457, 512 1456.550, 512 1456 C 512 1455.450, 511.523 1455, 510.941 1455 C 510.359 1455, 510.160 1455.450, 510.500 1456 M 368 1469 C 368 1469.550, 368.477 1470, 369.059 1470 C 369.641 1470, 369.840 1469.550, 369.500 1469 C 369.160 1468.450, 368.684 1468, 368.441 1468 C 368.198 1468, 368 1468.450, 368 1469 M 521.500 1471 C 521.840 1471.550, 522.316 1472, 522.559 1472 C 522.802 1472, 523 1471.550, 523 1471 C 523 1470.450, 522.523 1470, 521.941 1470 C 521.359 1470, 521.160 1470.450, 521.500 1471 M 550.492 1488.987 C 551.399 1490.455, 555 1492.219, 555 1491.196 C 555 1490.715, 553.846 1489.795, 552.436 1489.153 C 550.972 1488.486, 550.138 1488.415, 550.492 1488.987 M 724 1597.383 C 724 1597.594, 724.901 1598.002, 726.001 1598.290 C 727.102 1598.578, 727.751 1598.405, 727.442 1597.907 C 726.904 1597.036, 724 1596.594, 724 1597.383 M 737.500 1601 C 737.840 1601.550, 739.329 1601.968, 740.809 1601.930 C 743.212 1601.867, 743.286 1601.767, 741.500 1601 C 738.722 1599.806, 736.762 1599.806, 737.500 1601 M 724.317 1603.326 C 724.555 1603.972, 725.304 1604.372, 725.980 1604.215 C 726.657 1604.058, 727.748 1604.376, 728.405 1604.921 C 729.062 1605.466, 731.602 1606.213, 734.050 1606.580 C 736.497 1606.947, 740.975 1607.895, 744 1608.686 C 752.552 1610.922, 754.627 1611.242, 753.500 1610.153 C 752.950 1609.621, 747.550 1608.007, 741.500 1606.567 C 735.450 1605.127, 729.011 1603.545, 727.192 1603.050 C 724.769 1602.392, 724 1602.466, 724.317 1603.326 M 768 1613 C 768 1613.550, 768.450 1614, 769 1614 C 769.550 1614, 770 1613.550, 770 1613 C 770 1612.450, 769.550 1612, 769 1612 C 768.450 1612, 768 1612.450, 768 1613 M 753.813 1653.683 C 754.534 1653.972, 755.397 1653.936, 755.729 1653.604 C 756.061 1653.272, 755.471 1653.036, 754.417 1653.079 C 753.252 1653.127, 753.015 1653.364, 753.813 1653.683" stroke="none" fill="black" fill-rule="evenodd"/>
</svg>