<svg xmlns="http://www.w3.org/2000/svg" width="1240" height="1753" viewBox="0 0 1240 1753" version="1.1">
	<path d="M 418.250 41.697 C 414.915 42.352, 415.505 43.585, 420.020 45.391 C 424.776 47.294, 425.340 47.359, 424.438 45.900 C 424.039 45.253, 424.735 45.344, 426.129 46.121 C 428.917 47.673, 435.306 50.027, 435.690 49.644 C 435.836 49.497, 433.828 47.769, 431.228 45.803 C 426.444 42.186, 422.351 40.891, 418.250 41.697 M 409.738 47.716 C 408.707 47.971, 408.268 48.639, 408.680 49.326 C 409.067 49.972, 408.536 49.825, 407.500 49 C 406.464 48.175, 405.917 48.002, 406.284 48.616 C 407.150 50.061, 404.674 52.138, 398.747 54.937 C 396.133 56.171, 394.204 57.521, 394.460 57.935 C 394.716 58.350, 392.805 60.751, 390.213 63.271 C 387.621 65.791, 383.932 69.700, 382.017 71.958 C 380.101 74.216, 377.270 76.391, 375.727 76.791 C 373.355 77.405, 372.416 78.769, 369.672 85.575 C 367.885 90.006, 365.159 94.951, 363.614 96.565 C 360.615 99.698, 357.882 104.999, 358.636 106.220 C 358.887 106.627, 358.407 108.982, 357.568 111.453 C 356.729 113.924, 356.306 116.633, 356.628 117.473 C 356.950 118.313, 356.716 119, 356.107 119 C 355.498 119, 355 118.550, 355 118 C 355 115.959, 353.494 117.082, 353.323 119.250 C 352.867 125.044, 352.389 127.617, 351.511 129 C 350.987 129.825, 350.419 131.400, 350.250 132.500 C 350.081 133.600, 349.505 134.650, 348.971 134.833 C 347.331 135.396, 347.892 136.831, 350.015 137.505 C 351.123 137.856, 351.741 138.610, 351.390 139.179 C 350.979 139.843, 350.443 139.728, 349.890 138.857 C 349.188 137.749, 349.028 137.744, 349.015 138.829 C 349.004 139.772, 348.164 139.975, 346.128 139.528 C 343.784 139.013, 342.682 139.472, 340.128 142.026 C 338.408 143.746, 337 146.035, 337 147.112 C 337 148.189, 336.286 150.160, 335.414 151.491 C 334.541 152.823, 334.096 154.346, 334.423 154.875 C 334.750 155.405, 334.433 156.438, 333.717 157.169 C 333.001 157.901, 331.793 160.075, 331.033 162 C 330.273 163.925, 328.828 166.697, 327.822 168.159 C 326.816 169.622, 326.236 171.450, 326.532 172.222 C 326.828 172.994, 326.155 174.455, 325.035 175.468 C 323.916 176.481, 323 178.114, 323 179.096 C 323 180.078, 322.548 181.161, 321.996 181.502 C 321.444 181.843, 321.250 183.148, 321.565 184.402 C 321.994 186.112, 321.496 187.100, 319.568 188.363 C 318.156 189.289, 317 190.977, 317 192.115 C 317 193.253, 316.100 195.329, 315 196.727 C 313.900 198.126, 313 200.404, 313 201.790 C 313 203.177, 311.766 205.929, 310.257 207.906 C 308.749 209.883, 307.644 212.063, 307.801 212.750 C 307.959 213.438, 307.726 214, 307.284 214 C 306.843 214, 305.890 214.947, 305.167 216.105 C 304.444 217.262, 304.336 217.911, 304.926 217.546 C 306.562 216.534, 306.206 218.584, 304.500 220 C 302.838 221.380, 302.418 223.478, 304 222.500 C 304.550 222.160, 305 222.407, 305 223.048 C 305 223.689, 304.338 223.960, 303.529 223.649 C 301.648 222.928, 299 225.548, 299 228.130 C 299 229.224, 298.573 229.854, 298.051 229.531 C 297.528 229.208, 296.818 230.644, 296.473 232.722 C 296.127 234.800, 295.587 237.175, 295.272 238 C 294.958 238.825, 294.638 240.709, 294.562 242.188 C 294.485 243.666, 293.725 245.691, 292.872 246.688 C 290.591 249.354, 290.602 256.312, 292.895 261.496 C 293.983 263.955, 298.164 269.847, 302.187 274.588 C 306.209 279.329, 310.625 284.885, 312 286.933 C 313.375 288.982, 315.512 291.720, 316.750 293.017 C 317.987 294.315, 319 295.767, 319 296.244 C 319 297.505, 329.624 302.169, 333.770 302.728 C 335.719 302.991, 339.380 304.102, 341.907 305.198 C 344.433 306.294, 347.400 307.334, 348.500 307.510 C 349.600 307.685, 353.621 308.759, 357.434 309.897 C 361.248 311.034, 364.568 311.765, 364.811 311.522 C 365.055 311.279, 366.434 311.684, 367.877 312.422 C 369.320 313.160, 372.466 314.090, 374.868 314.490 C 377.271 314.889, 382.221 316.618, 385.868 318.331 C 389.516 320.045, 393.213 321.330, 394.085 321.188 C 396.282 320.831, 405 324.685, 405 326.014 C 405 326.611, 404.369 328.320, 403.597 329.812 L 402.194 332.525 414.347 335.812 C 431.955 340.573, 445.103 344.985, 448.216 347.176 C 449.709 348.227, 453.309 349.794, 456.216 350.657 C 459.122 351.520, 466.225 354.471, 472 357.215 C 477.775 359.959, 487.675 364.435, 494 367.161 C 510.019 374.065, 511.483 374.876, 517.742 380.323 C 520.790 382.976, 525.663 386.904, 528.569 389.051 C 531.476 391.199, 534.141 393.420, 534.492 393.987 C 534.842 394.554, 538.362 397.581, 542.314 400.715 C 549.449 406.372, 570.349 425.621, 584.968 440 C 591.329 446.255, 597.506 453.274, 604.332 462 C 606.956 465.354, 614.538 474.534, 615.070 475 C 618.369 477.892, 639.037 505.215, 645.705 515.500 C 647.132 517.700, 648.619 519.725, 649.010 520 C 649.401 520.275, 650.477 521.976, 651.402 523.780 C 653.561 527.993, 659.549 537.256, 664.289 543.713 C 666.330 546.493, 668 549.031, 668 549.353 C 668 549.674, 670.132 553.214, 672.737 557.219 C 675.343 561.223, 678.483 566.373, 679.715 568.662 C 680.947 570.952, 684.635 577.077, 687.909 582.275 C 691.184 587.473, 695.906 595.664, 698.403 600.476 C 700.900 605.289, 703.318 609.738, 703.776 610.364 C 706.701 614.354, 721.121 655.566, 725.518 672.500 C 726.804 677.450, 729.190 686, 730.821 691.500 C 732.453 697, 734.994 706, 736.468 711.500 C 737.942 717, 739.784 723.525, 740.561 726 C 746.475 744.841, 756.361 785.743, 759.535 804.500 C 760.838 812.200, 762.405 820.975, 763.018 824 C 763.632 827.025, 764.349 830.625, 764.614 832 C 764.878 833.375, 765.536 836.173, 766.077 838.217 C 766.617 840.262, 767.457 845.887, 767.943 850.717 C 768.429 855.548, 769.505 865.575, 770.334 873 C 772.401 891.511, 773.896 916.958, 773.448 926 C 772.755 939.998, 772.719 974.471, 773.391 980.500 C 774.370 989.266, 779.435 1016.588, 780.715 1020 C 781.024 1020.825, 781.362 1022.175, 781.466 1023 C 782.241 1029.183, 784.420 1039.040, 785.589 1041.651 C 786.365 1043.384, 787 1045.522, 787 1046.401 C 787 1047.281, 787.420 1048, 787.933 1048 C 789.397 1048, 790.308 1052.024, 790.123 1057.675 C 790.029 1060.543, 790.444 1063.156, 791.053 1063.533 C 791.811 1064.001, 792.024 1062.784, 791.740 1059.606 C 791.513 1057.073, 791.690 1055, 792.132 1055 C 792.575 1055, 792.696 1054.371, 792.400 1053.601 C 792.105 1052.832, 792.348 1051.903, 792.939 1051.538 C 793.530 1051.172, 794.283 1051.574, 794.612 1052.431 C 795.387 1054.451, 797 1053.445, 797 1050.941 C 797 1049.873, 797.450 1049, 798 1049 C 798.550 1049, 799 1049.675, 799 1050.500 C 799 1051.325, 799.402 1052, 799.893 1052 C 800.384 1052, 801.063 1052.721, 801.401 1053.603 C 802.253 1055.824, 800.127 1072.451, 798.490 1076.370 C 797.751 1078.139, 796.830 1082.379, 796.444 1085.793 C 795.742 1091.999, 794.299 1093.860, 793.263 1089.897 C 792.800 1088.127, 792.501 1088.403, 791.372 1091.647 C 790.634 1093.766, 790.023 1096.261, 790.015 1097.191 C 790.007 1098.121, 789.495 1099.194, 788.878 1099.576 C 788.058 1100.082, 787.950 1097.337, 788.476 1089.385 C 788.873 1083.398, 788.859 1078.831, 788.446 1079.236 C 788.033 1079.641, 787.734 1081.336, 787.781 1083.004 C 787.828 1084.672, 787.502 1085.810, 787.055 1085.534 C 786.609 1085.258, 785.969 1086.405, 785.633 1088.083 C 785.298 1089.760, 784.581 1090.859, 784.041 1090.525 C 783.501 1090.191, 782.848 1090.949, 782.590 1092.209 C 780.129 1104.239, 779.952 1105.853, 781.025 1106.515 C 781.561 1106.847, 782 1107.991, 782 1109.059 C 782 1110.127, 782.519 1111, 783.153 1111 C 783.787 1111, 783.276 1111.893, 782.018 1112.985 C 780.038 1114.702, 779.914 1115.191, 781.097 1116.617 C 782.343 1118.118, 782.533 1118.052, 783.219 1115.883 C 783.977 1113.486, 783.664 1115.680, 781.919 1125 C 780.103 1134.691, 779.743 1136, 778.887 1136 C 778.399 1136, 778 1136.774, 778 1137.721 C 778 1140.685, 775.581 1150, 774.811 1150 C 774.408 1150, 773.410 1152.247, 772.595 1154.994 C 771.779 1157.740, 770.035 1161.452, 768.718 1163.244 C 765.625 1167.452, 763 1173.247, 763 1175.867 C 763 1178.024, 759.972 1185.282, 758.856 1185.798 C 758.502 1185.962, 758.460 1187.045, 758.764 1188.204 C 759.127 1189.594, 758.937 1190.079, 758.208 1189.628 C 757.599 1189.252, 756.593 1189.892, 755.973 1191.051 C 754.382 1194.023, 752.129 1196.748, 747.386 1201.435 C 743.172 1205.599, 743 1205.877, 743 1208.559 C 743 1209.444, 742.522 1209.822, 741.893 1209.434 C 741.155 1208.978, 741.002 1209.430, 741.434 1210.791 C 741.790 1211.913, 741.618 1213.118, 741.052 1213.468 C 740.419 1213.859, 740.276 1213.444, 740.681 1212.388 C 741.128 1211.224, 740.964 1210.904, 740.170 1211.395 C 739.407 1211.867, 738.995 1211.315, 738.985 1209.809 C 738.974 1208.124, 738.736 1207.869, 738.106 1208.863 C 737.377 1210.014, 737.158 1210.014, 736.700 1208.863 C 736.347 1207.977, 736.130 1208.170, 736.079 1209.417 C 736.036 1210.471, 735.715 1211.049, 735.367 1210.701 C 734.597 1209.930, 731 1214.329, 731 1216.040 C 731 1216.714, 730.059 1218.082, 728.908 1219.080 C 727.639 1220.181, 727.112 1221.406, 727.569 1222.197 C 727.982 1222.914, 727.963 1223.177, 727.526 1222.782 C 725.847 1221.266, 710.701 1247.481, 711.606 1250.335 C 711.941 1251.388, 711.812 1252.002, 711.319 1251.697 C 710.827 1251.393, 709.841 1252.574, 709.128 1254.322 C 708.416 1256.070, 707.446 1258.400, 706.974 1259.500 C 706.503 1260.600, 705.778 1263.075, 705.365 1265 C 704.430 1269.353, 704.317 1269.819, 703.973 1270.750 C 703.820 1271.162, 703.615 1271.950, 703.516 1272.500 C 703.417 1273.050, 702.857 1274.625, 702.272 1276 C 701.687 1277.375, 700.670 1280.525, 700.013 1283 C 696.949 1294.538, 691.177 1302.738, 671.155 1324 C 647.238 1349.397, 628.968 1367, 626.525 1367 C 625.816 1367, 623.421 1368.688, 621.204 1370.750 C 616.395 1375.223, 610.442 1380, 609.677 1380 C 609.375 1380, 605.430 1382.475, 600.911 1385.500 C 596.392 1388.525, 592.336 1391, 591.898 1391 C 591.461 1391, 589.842 1392.174, 588.302 1393.610 C 584.042 1397.578, 563.780 1406.783, 565.526 1403.957 C 565.852 1403.431, 566.766 1403, 567.559 1403 C 568.352 1403, 569 1402.550, 569 1402 C 569 1401.450, 569.675 1401, 570.500 1401 C 571.325 1401, 572 1400.550, 572 1400 C 572 1399.450, 572.569 1399, 573.265 1399 C 573.960 1399, 576.209 1398.100, 578.261 1397 C 580.314 1395.900, 582.669 1395, 583.496 1395 C 584.323 1395, 585 1394.435, 585 1393.744 C 585 1393.053, 586.340 1391.895, 587.978 1391.170 C 590.941 1389.858, 604.046 1381.365, 605 1380.138 C 605.275 1379.784, 607.338 1378.249, 609.584 1376.726 C 611.830 1375.204, 614.550 1373.136, 615.629 1372.131 C 616.708 1371.125, 618.021 1370.115, 618.546 1369.886 C 622.732 1368.055, 627.034 1364.532, 626.568 1363.316 C 626.268 1362.535, 626.394 1362.126, 626.848 1362.406 C 628.133 1363.200, 632.116 1359.997, 631.362 1358.777 C 630.976 1358.152, 631.153 1357.977, 631.780 1358.364 C 632.965 1359.096, 646 1346.880, 646 1345.038 C 646 1344.419, 646.607 1344.045, 647.348 1344.206 C 648.090 1344.368, 649.930 1343.037, 651.437 1341.250 C 653.625 1338.655, 653.843 1338, 652.517 1338 C 651.012 1338, 651.003 1337.855, 652.421 1336.436 C 653.281 1335.576, 654.438 1335.153, 654.992 1335.495 C 655.547 1335.838, 656 1335.191, 656 1334.059 C 656 1332.927, 656.477 1332, 657.059 1332 C 657.641 1332, 657.857 1331.578, 657.538 1331.061 C 657.219 1330.545, 657.530 1329.758, 658.229 1329.311 C 658.928 1328.865, 660.088 1327.748, 660.807 1326.829 C 661.954 1325.362, 661.853 1325.226, 659.980 1325.715 C 658.807 1326.022, 657.442 1327.337, 656.948 1328.637 C 656.144 1330.752, 654.964 1331.457, 652.780 1331.128 C 652.384 1331.069, 651.521 1332.028, 650.864 1333.260 C 650.206 1334.492, 648.408 1336.678, 646.869 1338.118 C 645.330 1339.559, 644.354 1341.021, 644.702 1341.368 C 645.049 1341.716, 644.551 1342, 643.595 1342 C 641.867 1342, 639.747 1343.590, 638.929 1345.500 C 638.693 1346.050, 638.163 1346.388, 637.750 1346.250 C 637.337 1346.113, 636.993 1347.013, 636.985 1348.250 C 636.973 1350.035, 636.776 1350.194, 636.035 1349.022 C 635.225 1347.742, 634.860 1347.778, 633.300 1349.298 C 632.310 1350.262, 628.350 1353.348, 624.500 1356.156 C 620.650 1358.964, 617.140 1361.877, 616.700 1362.631 C 616.260 1363.384, 615.221 1364, 614.391 1364 C 613.561 1364, 613.157 1364.445, 613.493 1364.989 C 613.843 1365.555, 613.442 1365.723, 612.552 1365.382 C 611.698 1365.054, 611 1365.212, 611 1365.732 C 611 1366.253, 609.910 1367.176, 608.578 1367.783 C 607.246 1368.389, 605.220 1369.699, 604.075 1370.693 C 601.731 1372.729, 589.422 1379.559, 580.750 1383.635 C 577.587 1385.121, 575 1386.760, 575 1387.276 C 575 1387.792, 574.325 1387.955, 573.500 1387.638 C 572.675 1387.322, 572 1387.499, 572 1388.031 C 572 1388.564, 571.073 1389, 569.941 1389 C 568.809 1389, 568.157 1389.445, 568.493 1389.989 C 568.837 1390.545, 568.457 1390.729, 567.622 1390.408 C 566.026 1389.796, 559.385 1392.569, 558.320 1394.292 C 557.909 1394.957, 558.331 1395.087, 559.477 1394.647 C 560.990 1394.066, 561.082 1394.196, 560.042 1395.449 C 558.950 1396.766, 558.625 1396.768, 557.329 1395.472 C 555.452 1393.595, 554.911 1393.604, 555.638 1395.500 C 555.955 1396.325, 555.716 1397, 555.107 1397 C 554.498 1397, 554 1396.550, 554 1396 C 554 1395.450, 553.325 1395, 552.500 1395 C 551.675 1395, 551 1395.477, 551 1396.059 C 551 1396.641, 550.559 1396.846, 550.021 1396.513 C 549.482 1396.180, 548.020 1396.470, 546.771 1397.158 C 545.522 1397.845, 544.050 1398.429, 543.500 1398.456 C 542.264 1398.515, 529.258 1403.491, 522.500 1406.489 C 515.052 1409.793, 508.192 1411.751, 501.691 1412.427 C 498.496 1412.759, 494.783 1413.751, 493.441 1414.631 C 491.224 1416.084, 490.550 1415.852, 490.882 1413.750 C 491.075 1412.527, 487.556 1412.890, 482.876 1414.576 C 480.469 1415.443, 472.889 1417.263, 466.030 1418.620 C 459.112 1419.989, 452.768 1421.805, 451.780 1422.699 C 450.801 1423.585, 450 1423.868, 450 1423.328 C 450 1422.788, 448.604 1422.551, 446.899 1422.802 C 444.593 1423.140, 444.144 1423.501, 445.149 1424.209 C 446.075 1424.862, 445.624 1424.970, 443.712 1424.552 C 439.970 1423.734, 433 1425.886, 433 1427.858 C 433 1428.966, 432.695 1429.095, 431.916 1428.316 C 431.319 1427.719, 429.857 1427.491, 428.666 1427.809 C 426.572 1428.368, 426.583 1428.408, 429 1429.007 C 431.462 1429.617, 431.447 1429.650, 428 1431.214 C 422.757 1433.593, 418.243 1434.910, 417.585 1434.252 C 417.263 1433.930, 417 1434.385, 417 1435.264 C 417 1436.598, 417.535 1436.701, 420.250 1435.890 C 427.096 1433.846, 431.914 1433.249, 432.383 1434.386 C 432.636 1434.999, 432.878 1434.432, 432.921 1433.128 C 432.985 1431.215, 433.270 1430.980, 434.394 1431.912 C 435.470 1432.805, 436.154 1432.703, 437.394 1431.463 C 438.277 1430.580, 439 1430.339, 439 1430.929 C 439 1431.518, 440.152 1432, 441.559 1432 C 445.160 1432, 443.871 1433.404, 438.800 1435.004 C 436.435 1435.750, 434.050 1436.675, 433.500 1437.060 C 431.750 1438.283, 413.837 1443.113, 412.644 1442.683 C 412.015 1442.456, 410.825 1442.597, 410 1442.997 C 409.175 1443.396, 407.150 1444.014, 405.500 1444.370 L 402.500 1445.016 405 1443.544 C 406.375 1442.734, 408.288 1442.055, 409.250 1442.035 C 410.212 1442.016, 411 1441.622, 411 1441.161 C 411 1440.699, 412.125 1439.808, 413.500 1439.182 C 414.875 1438.555, 416 1437.583, 416 1437.021 C 416 1435.705, 412.311 1435.687, 411.500 1437 C 411.160 1437.550, 410.114 1438, 409.176 1438 C 408.238 1438, 405.791 1438.900, 403.739 1440 C 401.686 1441.100, 398.656 1442, 397.004 1442 C 394.900 1442, 394 1442.486, 394 1443.622 C 394 1444.752, 393.620 1444.961, 392.750 1444.311 C 391.639 1443.481, 389.431 1443.312, 388.750 1444.004 C 388.613 1444.144, 386.496 1444.388, 384.046 1444.548 C 381.192 1444.733, 379.126 1445.474, 378.296 1446.610 C 377.583 1447.585, 377 1448.092, 377 1447.737 C 377 1447.381, 375.914 1448.177, 374.586 1449.505 C 373.258 1450.832, 371.008 1452.211, 369.586 1452.568 C 366.597 1453.318, 366.107 1455, 368.878 1455 C 369.910 1455, 371.336 1455.700, 372.047 1456.556 C 373.115 1457.843, 373.093 1458.060, 371.919 1457.806 C 371.004 1457.609, 370.594 1458.210, 370.765 1459.500 C 370.911 1460.600, 371.205 1462.976, 371.419 1464.781 C 371.632 1466.586, 372.353 1468.721, 373.021 1469.526 C 373.689 1470.331, 373.979 1471.974, 373.664 1473.177 C 373.006 1475.693, 376.170 1486.278, 379.671 1493.277 C 380.985 1495.904, 382.212 1499.835, 382.397 1502.013 C 382.581 1504.191, 383.307 1506.665, 384.009 1507.510 C 384.711 1508.356, 385 1509.334, 384.651 1509.682 C 384.303 1510.031, 384.519 1510.920, 385.131 1511.658 C 385.971 1512.670, 385.907 1513.004, 384.872 1513.015 C 383.980 1513.025, 383.875 1513.287, 384.573 1513.765 C 386.291 1514.942, 386.995 1517.827, 385.694 1518.359 C 384.816 1518.718, 384.865 1519.103, 385.878 1519.812 C 386.636 1520.342, 386.960 1521.256, 386.598 1521.842 C 385.514 1523.595, 387.096 1528, 388.808 1528 C 391.180 1528, 388.791 1530.065, 386.193 1530.260 C 384.547 1530.384, 384.161 1530.973, 384.424 1532.959 C 384.873 1536.361, 387.203 1540.476, 388.750 1540.600 C 393.647 1540.992, 393.631 1540.984, 391.750 1542.080 C 389.108 1543.619, 389.646 1545.826, 392.750 1546.184 C 395.390 1546.487, 395.492 1546.710, 395.308 1551.765 C 395.140 1556.351, 395.429 1557.235, 397.550 1558.625 C 398.890 1559.503, 400.510 1561.971, 401.151 1564.110 C 401.792 1566.250, 402.642 1568, 403.040 1568 C 403.837 1568, 406.424 1576.838, 406.147 1578.617 C 406.052 1579.231, 406.655 1580.298, 407.487 1580.989 C 408.319 1581.680, 409 1583.288, 409 1584.563 C 409 1585.839, 409.479 1587.178, 410.065 1587.540 C 410.651 1587.902, 411.053 1589.391, 410.959 1590.849 C 410.865 1592.307, 410.888 1593.950, 411.009 1594.500 C 411.131 1595.050, 411.335 1595.950, 411.463 1596.500 C 411.591 1597.050, 411.764 1598.089, 411.848 1598.809 C 411.931 1599.529, 412.450 1599.840, 413 1599.500 C 414.421 1598.622, 414.241 1600.359, 412.758 1601.842 C 411.770 1602.830, 411.783 1603.248, 412.824 1603.891 C 413.543 1604.336, 414.748 1605.888, 415.502 1607.342 C 416.672 1609.596, 416.663 1610.194, 415.445 1611.412 C 414.351 1612.506, 414.308 1612.957, 415.259 1613.344 C 416.229 1613.738, 416.214 1614.049, 415.192 1614.769 C 413.602 1615.889, 414.662 1621.327, 416.277 1620.329 C 416.929 1619.926, 417.108 1620.276, 416.740 1621.235 C 416.283 1622.426, 417.195 1623.064, 420.570 1623.913 C 425.687 1625.202, 426.448 1627, 421.878 1627 C 419.379 1627, 418.978 1627.268, 419.869 1628.342 C 420.481 1629.080, 420.687 1629.980, 420.325 1630.342 C 419.963 1630.704, 420.304 1631.015, 421.083 1631.033 C 422.001 1631.055, 421.667 1631.761, 420.135 1633.036 L 417.771 1635.006 421.459 1636.547 C 423.487 1637.395, 425.901 1637.850, 426.823 1637.560 C 427.746 1637.269, 429.850 1637.416, 431.500 1637.886 L 434.500 1638.741 431.734 1639.483 C 430.213 1639.891, 428.032 1639.980, 426.888 1639.681 C 423.807 1638.875, 422 1639.921, 422 1642.509 C 422 1644.173, 422.846 1645.099, 425.075 1645.876 C 426.766 1646.466, 427.897 1647.358, 427.588 1647.858 C 427.278 1648.358, 428.364 1649.322, 430 1650 C 433.434 1651.422, 432.943 1653.413, 429.329 1652.723 C 427.195 1652.315, 426.930 1652.583, 427.196 1654.878 C 427.363 1656.320, 428.063 1657.556, 428.750 1657.625 C 429.438 1657.694, 430.675 1657.806, 431.500 1657.875 C 432.325 1657.944, 433 1658.450, 433 1659 C 433 1660.275, 429.705 1660.305, 428.442 1659.042 C 427.839 1658.439, 426.930 1658.433, 425.992 1659.026 C 424.672 1659.861, 424.673 1659.971, 426 1659.985 C 427.682 1660.002, 428.193 1665.063, 426.624 1666.158 C 425.425 1666.994, 427.552 1672.284, 429.964 1674.467 C 430.944 1675.354, 434.043 1676.919, 436.851 1677.945 C 445.211 1681.001, 451.273 1687, 446 1687 C 444.900 1687, 444 1687.450, 444 1688 C 444 1688.550, 444.482 1689, 445.071 1689 C 445.661 1689, 445.355 1689.787, 444.393 1690.750 C 443.430 1691.713, 442.311 1692.500, 441.905 1692.500 C 441.499 1692.500, 440.792 1692.877, 440.333 1693.338 C 439.875 1693.799, 438.070 1694.775, 436.322 1695.507 C 433.949 1696.501, 433.271 1697.320, 433.644 1698.745 C 434.255 1701.084, 439.573 1704.382, 441.157 1703.403 C 441.867 1702.964, 442.037 1703.131, 441.600 1703.838 C 440.809 1705.118, 445.621 1704.828, 454.912 1703.035 C 457.888 1702.460, 460.500 1702.166, 460.715 1702.381 C 460.930 1702.596, 463.178 1702.149, 465.712 1701.386 C 471.849 1699.539, 472.140 1699.596, 471.411 1702.500 C 470.506 1706.104, 473.830 1705.831, 477.500 1702 C 479.081 1700.350, 481.163 1699, 482.128 1699 C 483.093 1699, 484.152 1698.564, 484.481 1698.030 C 485.181 1696.898, 496.314 1693.461, 504.098 1691.974 C 524.993 1687.982, 543.161 1686.402, 545.784 1688.349 C 546.609 1688.960, 547.861 1688.915, 549.284 1688.220 C 550.503 1687.626, 553.300 1686.599, 555.500 1685.939 C 557.700 1685.279, 560.132 1684.235, 560.904 1683.620 C 561.676 1683.004, 562.351 1682.665, 562.404 1682.867 C 562.496 1683.219, 575.908 1679.524, 579 1678.294 C 579.825 1677.966, 580.950 1677.576, 581.500 1677.427 C 594.215 1673.980, 640.733 1656.349, 656.753 1648.905 C 660.192 1647.307, 663.241 1646, 663.530 1646 C 665.354 1646, 681.833 1637.152, 681.236 1636.492 C 680.831 1636.045, 681.022 1635.978, 681.660 1636.343 C 682.297 1636.708, 685.672 1635.447, 689.160 1633.542 C 692.647 1631.636, 698.151 1628.685, 701.390 1626.983 C 704.630 1625.280, 708.722 1622.788, 710.485 1621.444 C 712.247 1620.100, 714.054 1619, 714.500 1619 C 714.946 1619, 716.704 1617.963, 718.406 1616.695 C 720.108 1615.427, 723.750 1613.120, 726.500 1611.569 C 731.538 1608.728, 754.070 1593.990, 755 1592.929 C 756.099 1591.674, 768.719 1582.279, 772 1580.273 C 773.925 1579.096, 776.400 1577.302, 777.500 1576.287 C 778.600 1575.271, 781.750 1572.893, 784.500 1571.002 C 791.253 1566.358, 795.037 1562.868, 794.413 1561.858 C 794.128 1561.399, 794.549 1561.273, 795.346 1561.579 C 796.143 1561.885, 797.767 1561.093, 798.955 1559.818 C 800.143 1558.543, 801.426 1557.497, 801.807 1557.493 C 803.386 1557.476, 806.866 1554.273, 808.860 1551 C 810.033 1549.075, 810.994 1547.922, 810.996 1548.437 C 810.998 1548.953, 814.034 1546.478, 817.743 1542.937 C 829.447 1531.763, 848 1512.687, 848 1511.827 C 848 1511.372, 848.450 1511, 849.001 1511 C 850.688 1511, 858.023 1502.847, 857.336 1501.735 C 856.968 1501.139, 857.172 1500.988, 857.811 1501.383 C 858.463 1501.786, 859.887 1500.601, 861.216 1498.550 C 862.472 1496.611, 864.014 1495.019, 864.643 1495.012 C 865.819 1495, 867.460 1492.142, 867.134 1490.676 C 867.033 1490.222, 867.382 1490.118, 867.910 1490.444 C 869.017 1491.128, 876.638 1482.325, 876.225 1480.840 C 876.074 1480.296, 876.389 1480.122, 876.925 1480.454 C 877.461 1480.785, 878.440 1480.031, 879.100 1478.778 C 879.759 1477.525, 880.595 1476.275, 880.956 1476 C 882.911 1474.510, 895.254 1458.425, 896.889 1455.237 C 898.578 1451.943, 899.701 1450.368, 903.981 1445.292 C 904.542 1444.628, 905 1443.615, 905 1443.042 C 905 1442.469, 905.525 1442, 906.167 1442 C 906.808 1442, 907.086 1441.752, 906.783 1441.450 C 906.481 1441.147, 908.093 1438.913, 910.366 1436.486 C 917.081 1429.315, 923.137 1422.159, 923.029 1421.522 C 922.974 1421.196, 923.507 1420.285, 924.214 1419.499 C 927.160 1416.223, 928.045 1415, 927.468 1415 C 927.132 1415, 927.452 1414.341, 928.179 1413.535 C 930.856 1410.566, 932 1409.071, 932 1408.542 C 932 1408.244, 932.787 1407.146, 933.750 1406.101 C 939.010 1400.394, 940.349 1398.712, 939 1399.504 C 937.667 1400.286, 937.667 1400.169, 939 1398.446 C 939.825 1397.380, 941.063 1395.911, 941.750 1395.182 C 942.437 1394.454, 943 1393.439, 943 1392.929 C 943 1392.418, 943 1391.775, 943 1391.500 C 943 1391.225, 943.788 1390.170, 944.750 1389.157 C 945.712 1388.143, 947.400 1385.802, 948.500 1383.955 C 949.600 1382.108, 950.996 1379.779, 951.602 1378.779 C 952.208 1377.780, 953.783 1375.723, 955.102 1374.210 C 956.421 1372.696, 958.573 1369.442, 959.884 1366.979 C 961.196 1364.515, 962.928 1361.967, 963.735 1361.317 C 964.554 1360.655, 964.868 1359.595, 964.446 1358.912 C 963.971 1358.143, 964.108 1357.948, 964.815 1358.386 C 965.489 1358.802, 966.544 1357.762, 967.447 1355.790 C 968.276 1353.981, 970.752 1349.575, 972.950 1346 C 975.147 1342.425, 977.915 1337.475, 979.102 1335 C 980.288 1332.525, 981.651 1329.825, 982.132 1329 C 983.804 1326.127, 985.322 1322.495, 985.161 1321.750 C 985.073 1321.338, 985.498 1321, 986.107 1321 C 986.716 1321, 986.955 1320.325, 986.638 1319.500 C 986.322 1318.675, 986.468 1318, 986.964 1318 C 987.460 1318, 988.149 1316.987, 988.495 1315.750 C 988.842 1314.513, 989.523 1312.600, 990.009 1311.500 C 992.141 1306.674, 997.480 1292.958, 999.545 1287 C 1000.784 1283.425, 1003.453 1276, 1005.476 1270.500 C 1007.498 1265, 1010.213 1257.125, 1011.507 1253 C 1012.802 1248.875, 1015.046 1241.900, 1016.494 1237.500 C 1020.884 1224.165, 1021.811 1220.887, 1023.988 1211 C 1025.139 1205.775, 1026.528 1199.700, 1027.074 1197.500 C 1027.620 1195.300, 1028.960 1189.675, 1030.052 1185 C 1031.144 1180.325, 1032.492 1174.700, 1033.047 1172.500 C 1033.602 1170.300, 1034.294 1166.925, 1034.584 1165 C 1035.451 1159.246, 1036.227 1158.140, 1037.039 1161.500 L 1037.763 1164.500 1037.882 1161.450 C 1037.947 1159.772, 1038.429 1157.971, 1038.953 1157.447 C 1040.058 1156.342, 1042.360 1140.418, 1046.031 1108.500 C 1047.534 1095.433, 1045.600 981.738, 1043.421 955 C 1041.545 931.992, 1035.715 894.295, 1032.539 884.637 C 1031.791 882.362, 1030.880 878.475, 1030.515 876 C 1030.151 873.525, 1029.232 868.800, 1028.475 865.500 C 1027.717 862.200, 1026.883 857.925, 1026.621 856 C 1026.360 854.075, 1025.416 849.350, 1024.525 845.500 C 1022.920 838.562, 1021.096 827.173, 1021.033 823.691 C 1021.015 822.696, 1020.662 822.091, 1020.250 822.346 C 1019.837 822.601, 1019.555 821.390, 1019.622 819.655 C 1019.689 817.920, 1019.435 816.050, 1019.058 815.500 C 1018.681 814.950, 1018.252 812.700, 1018.104 810.500 C 1017.957 808.300, 1017.423 806.073, 1016.918 805.550 C 1016.413 805.028, 1016 802.890, 1016 800.800 C 1016 798.710, 1015.663 796.999, 1015.250 796.998 C 1014.837 796.997, 1014.404 793.065, 1014.288 788.260 C 1014.171 783.456, 1013.656 779.385, 1013.144 779.215 C 1012.631 779.044, 1012.442 778.026, 1012.723 776.952 C 1013.008 775.862, 1012.732 775, 1012.098 775 C 1011.386 775, 1011.196 774.067, 1011.589 772.500 C 1011.983 770.933, 1011.793 770, 1011.081 770 C 1010.323 770, 1009.981 767.428, 1010.051 762.250 C 1010.244 747.910, 1009.156 728.524, 1007.988 725.500 C 1007.350 723.850, 1006.680 716.875, 1006.498 710 C 1006.316 703.125, 1005.927 696.150, 1005.634 694.500 C 1005.341 692.850, 1004.842 687.225, 1004.525 682 C 1004.208 676.775, 1003.547 670.250, 1003.057 667.500 C 1001.064 656.310, 999.581 646.456, 999.784 645.750 C 999.903 645.337, 999.663 644.999, 999.250 644.998 C 998.838 644.997, 998.382 643.349, 998.238 641.336 C 998.094 639.323, 997.535 637.145, 996.997 636.496 C 996.458 635.847, 996.313 635.020, 996.675 634.658 C 997.037 634.296, 996.921 633.999, 996.417 633.997 C 995.913 633.996, 995.418 631.193, 995.317 627.770 C 995.216 624.346, 994.654 621.385, 994.067 621.189 C 993.480 620.993, 993 619.266, 993 617.351 C 993 615.436, 992.595 613.111, 992.100 612.184 C 991.605 611.258, 990.918 608.719, 990.573 606.542 C 990.227 604.365, 989.492 602.304, 988.939 601.962 C 988.385 601.620, 988.249 600.515, 988.636 599.506 C 989.160 598.140, 989.002 597.881, 988.015 598.490 C 987.134 599.035, 986.930 598.923, 987.405 598.155 C 987.797 597.520, 987.758 596.438, 987.317 595.750 C 985.930 593.585, 984.080 587.662, 983.416 583.260 C 983.064 580.928, 982.489 579.196, 982.138 579.411 C 981.787 579.626, 981.466 578.384, 981.424 576.651 C 981.331 572.830, 977.606 560.043, 974.939 554.390 C 973.873 552.130, 973 549.125, 973 547.712 C 973 546.299, 972.424 544.548, 971.720 543.821 C 971.016 543.095, 969.810 540.475, 969.040 538 C 968.270 535.525, 967.165 532.877, 966.585 532.114 C 966.005 531.352, 965.499 530.227, 965.462 529.614 C 965.342 527.670, 963.773 522.590, 962.491 520 C 961.811 518.625, 960.518 515.789, 959.618 513.697 C 958.718 511.605, 957.578 510.143, 957.084 510.448 C 956.590 510.753, 956.408 510.157, 956.678 509.123 C 957.091 507.544, 953.259 498.411, 949.913 493 C 949.403 492.175, 948.488 490.375, 947.879 489 C 942.169 476.099, 931.439 456.263, 930.722 457.284 C 930.182 458.055, 930.072 457.766, 930.424 456.497 C 930.791 455.170, 929.322 451.793, 926.076 446.497 C 923.380 442.099, 919.945 436.376, 918.444 433.779 C 916.942 431.183, 915.379 429.266, 914.970 429.519 C 914.561 429.772, 914.288 429.421, 914.363 428.739 C 914.474 427.732, 904.851 411.009, 896.795 398.209 C 895.857 396.719, 894.343 394.038, 893.431 392.250 C 892.518 390.462, 891.373 389, 890.886 389 C 890.399 389, 890 388.504, 890 387.898 C 890 386.403, 878.397 367.353, 874.849 363.022 C 873.282 361.109, 872 359.149, 872 358.667 C 872 357.348, 866.799 351.464, 865.875 351.738 C 865.433 351.869, 865.301 351.379, 865.581 350.648 C 865.862 349.918, 865.396 348.743, 864.546 348.038 C 863.695 347.332, 863 346.115, 863 345.332 C 863 344.549, 861.933 342.842, 860.630 341.539 C 859.326 340.235, 857.978 338.118, 857.635 336.834 C 857.291 335.550, 853.611 330, 849.457 324.500 C 845.303 319, 839.906 311.800, 837.463 308.500 C 835.021 305.200, 831.860 301.150, 830.438 299.500 C 829.017 297.850, 825.331 293.166, 822.246 289.092 C 819.162 285.017, 814.865 280.067, 812.698 278.092 C 810.531 276.116, 808.025 273.627, 807.129 272.559 C 806.233 271.492, 804.227 269.467, 802.671 268.059 C 801.115 266.652, 797.652 262.767, 794.975 259.426 C 792.298 256.086, 787.114 250.911, 783.455 247.926 C 779.796 244.942, 775.425 241.037, 773.741 239.250 C 772.056 237.463, 770.323 236, 769.887 236 C 769.452 236, 767.567 234.425, 765.697 232.500 C 763.828 230.575, 761.754 229, 761.090 229 C 760.422 229, 760.205 228.477, 760.605 227.830 C 761.087 227.051, 760.789 226.867, 759.715 227.279 C 758.525 227.736, 758.265 227.473, 758.725 226.275 C 759.196 225.047, 758.928 224.814, 757.622 225.315 C 756.595 225.709, 756.144 225.577, 756.507 224.989 C 756.843 224.445, 756.416 224, 755.559 224 C 754.702 224, 754 223.655, 754 223.233 C 754 221.671, 744.438 212.496, 742.694 212.384 C 741.700 212.320, 740.125 211.242, 739.194 209.989 C 736.391 206.218, 731.797 202.100, 726.299 198.430 C 723.439 196.520, 719.446 193.400, 717.427 191.496 C 715.407 189.591, 713.291 188.320, 712.723 188.671 C 712.155 189.022, 711.981 188.840, 712.334 188.268 C 713.208 186.855, 710.386 184.644, 708.889 185.568 C 708.131 186.037, 707.953 185.885, 708.405 185.155 C 708.827 184.470, 708.483 184, 707.559 184 C 706.702 184, 705.995 183.438, 705.988 182.750 C 705.982 182.063, 703.320 180.041, 700.073 178.258 C 696.826 176.474, 692.894 173.758, 691.335 172.222 C 686.779 167.733, 682.117 164.814, 680.757 165.597 C 680.066 165.995, 679.816 165.970, 680.202 165.541 C 681.010 164.645, 678.671 162, 677.071 162 C 676.482 162, 676 161.550, 676 161 C 676 160.450, 675.490 160, 674.867 160 C 674.244 160, 672.918 159.059, 671.920 157.908 C 670.863 156.689, 669.603 156.128, 668.899 156.563 C 668.172 157.012, 667.951 156.889, 668.344 156.253 C 668.720 155.644, 667.127 154.424, 664.580 153.370 C 662.151 152.365, 660.346 151.248, 660.569 150.888 C 661.033 150.137, 654.924 147.389, 653.676 147.787 C 653.222 147.931, 653.184 147.512, 653.590 146.855 C 654.092 146.042, 653.800 145.863, 652.676 146.294 C 651.767 146.643, 651.131 146.607, 651.262 146.214 C 651.393 145.821, 651.275 145.456, 651 145.402 C 650.725 145.348, 647.379 143.210, 643.564 140.652 C 639.749 138.093, 636.243 136, 635.772 136 C 635.302 136, 632.029 134.650, 628.500 133 C 624.971 131.350, 621.860 130, 621.586 130 C 621.313 130, 619.472 128.903, 617.495 127.561 C 615.519 126.220, 612.236 124.600, 610.201 123.960 C 608.165 123.321, 603.350 121.198, 599.500 119.243 C 595.650 117.288, 592.392 115.749, 592.260 115.823 C 592.127 115.897, 588.557 114.380, 584.325 112.452 C 580.093 110.523, 575.592 108.685, 574.322 108.366 C 573.053 108.047, 572.242 107.417, 572.521 106.965 C 572.801 106.514, 572.125 105.857, 571.020 105.506 C 569.916 105.156, 568.447 104.336, 567.756 103.684 C 566.595 102.589, 561.850 99.858, 554.501 96.053 C 552.851 95.199, 551.276 94.253, 551.001 93.950 C 549.899 92.740, 538.826 88, 537.101 88 C 534.553 88, 517.079 83.531, 508 80.558 C 503.875 79.207, 498.475 77.542, 496 76.858 C 491.861 75.714, 478.083 69.119, 475.573 67.079 C 473.814 65.651, 467.056 64.100, 466.502 64.997 C 466.219 65.455, 466.553 66.098, 467.244 66.426 C 468.535 67.039, 465.790 66.482, 460.500 65.057 C 458.850 64.613, 454.125 62.694, 450 60.793 C 445.875 58.892, 440.025 56.396, 437 55.246 C 433.975 54.095, 428.575 52.033, 425 50.663 C 418.168 48.044, 412.689 46.987, 409.738 47.716 M 557 100 C 557 100.550, 557.450 101, 558 101 C 558.550 101, 559 100.550, 559 100 C 559 99.450, 558.550 99, 558 99 C 557.450 99, 557 99.450, 557 100 M 431.500 233 C 431.160 233.550, 431.359 234, 431.941 234 C 432.523 234, 433 233.550, 433 233 C 433 232.450, 432.802 232, 432.559 232 C 432.316 232, 431.840 232.450, 431.500 233 M 523.813 252.683 C 524.534 252.972, 525.397 252.936, 525.729 252.604 C 526.061 252.272, 525.471 252.036, 524.417 252.079 C 523.252 252.127, 523.015 252.364, 523.813 252.683 M 524.813 291.683 C 525.534 291.972, 526.397 291.936, 526.729 291.604 C 527.061 291.272, 526.471 291.036, 525.417 291.079 C 524.252 291.127, 524.015 291.364, 524.813 291.683 M 800 328.882 C 800 329.432, 800.450 330.160, 801 330.500 C 801.550 330.840, 802 330.668, 802 330.118 C 802 329.568, 801.550 328.840, 801 328.500 C 800.450 328.160, 800 328.332, 800 328.882 M 784.031 403.500 C 784.031 404.050, 784.467 405.175, 785 406 C 785.533 406.825, 785.969 407.050, 785.969 406.500 C 785.969 405.950, 785.533 404.825, 785 404 C 784.467 403.175, 784.031 402.950, 784.031 403.500 M 678 405.409 C 678 405.599, 678.675 406.315, 679.500 407 C 680.365 407.718, 681 407.815, 681 407.229 C 681 406.671, 680.325 405.955, 679.500 405.638 C 678.675 405.322, 678 405.219, 678 405.409 M 797 425.229 C 797 426.077, 801.078 433, 801.577 433 C 802.236 433, 799.691 427.567, 798.315 426.036 C 797.592 425.230, 797 424.867, 797 425.229 M 808.592 444.500 C 809.493 445.875, 810.394 447, 810.594 447 C 810.794 447, 810.445 445.875, 809.818 444.500 C 809.192 443.125, 808.291 442, 807.816 442 C 807.342 442, 807.691 443.125, 808.592 444.500 M 893 449 C 893 449.550, 893.477 450, 894.059 450 C 894.641 450, 894.840 449.550, 894.500 449 C 894.160 448.450, 893.684 448, 893.441 448 C 893.198 448, 893 448.450, 893 449 M 815 455 C 815.589 456.100, 816.295 457, 816.570 457 C 816.845 457, 816.589 456.100, 816 455 C 815.411 453.900, 814.705 453, 814.430 453 C 814.155 453, 814.411 453.900, 815 455 M 820.892 464.750 C 821.421 465.712, 822.571 467.400, 823.448 468.500 C 824.803 470.199, 824.786 469.937, 823.336 466.750 C 822.398 464.688, 821.247 463, 820.780 463 C 820.312 463, 820.362 463.788, 820.892 464.750 M 914.145 475.184 C 916.487 479.961, 918.749 483.655, 919.172 483.394 C 920.035 482.861, 913.688 470.330, 911.375 468 C 910.556 467.175, 911.803 470.408, 914.145 475.184 M 827.071 473.500 C 827.071 474.050, 827.714 475.625, 828.500 477 C 829.286 478.375, 829.929 479.050, 829.929 478.500 C 829.929 477.950, 829.286 476.375, 828.500 475 C 827.714 473.625, 827.071 472.950, 827.071 473.500 M 907 476.794 C 907 477.323, 907.727 478.358, 908.615 479.096 C 910.013 480.256, 910.181 480.182, 909.865 478.551 C 909.489 476.607, 907 475.082, 907 476.794 M 732 485.378 C 732 485.585, 732.685 486.324, 733.523 487.019 C 734.796 488.076, 734.943 488.014, 734.416 486.641 C 733.878 485.240, 732 484.257, 732 485.378 M 835.097 488.440 C 836.252 490.398, 837.390 492, 837.624 492 C 838.335 492, 835.089 486.173, 834.005 485.503 C 833.451 485.160, 833.942 486.482, 835.097 488.440 M 735.064 489.500 C 735.064 490.050, 735.724 491.374, 736.532 492.441 C 737.339 493.509, 738 493.932, 738 493.382 C 738 492.832, 737.339 491.509, 736.532 490.441 C 735.724 489.374, 735.064 488.950, 735.064 489.500 M 850.080 517 C 851.538 520.061, 852 520.628, 852 519.358 C 852 518.821, 851.300 517.509, 850.445 516.441 C 848.978 514.611, 848.958 514.643, 850.080 517 M 928.564 521.250 C 928.948 522.487, 929.878 523.860, 930.631 524.300 C 931.384 524.740, 932.014 525.865, 932.032 526.800 C 932.049 527.735, 932.724 529.374, 933.532 530.441 C 934.981 532.357, 935 532.356, 935 530.385 C 935 529.287, 933.875 526.864, 932.500 525 C 931.125 523.136, 930 521.024, 930 520.306 C 930 519.588, 929.520 519, 928.933 519 C 928.285 519, 928.140 519.886, 928.564 521.250 M 853.079 523.583 C 853.127 524.748, 853.364 524.985, 853.683 524.188 C 853.972 523.466, 853.936 522.603, 853.604 522.271 C 853.272 521.939, 853.036 522.529, 853.079 523.583 M 935.786 533.115 C 935.476 533.923, 935.847 535.438, 936.611 536.483 C 938.151 538.589, 938.428 536.952, 937.105 533.573 C 936.505 532.044, 936.233 531.949, 935.786 533.115 M 938 541 C 938 541.550, 938.450 542, 939 542 C 939.550 542, 940 541.550, 940 541 C 940 540.450, 939.550 540, 939 540 C 938.450 540, 938 540.450, 938 541 M 939.710 545 C 939.998 546.100, 940.406 547, 940.617 547 C 940.827 547, 941 546.100, 941 545 C 941 543.900, 940.592 543, 940.094 543 C 939.595 543, 939.423 543.900, 939.710 545 M 846 547.941 C 846 548.459, 846.450 549.160, 847 549.500 C 847.550 549.840, 848 549.416, 848 548.559 C 848 547.702, 847.550 547, 847 547 C 846.450 547, 846 547.423, 846 547.941 M 864.084 548.500 C 864.084 549.050, 864.946 551.075, 866 553 C 867.054 554.925, 867.916 556.050, 867.916 555.500 C 867.916 554.950, 867.054 552.925, 866 551 C 864.946 549.075, 864.084 547.950, 864.084 548.500 M 944.071 555.429 C 943.993 556.452, 943.810 555.872, 951.356 578.500 C 957.671 597.437, 958.180 598.705, 957.434 593.634 C 956.454 586.970, 944.312 552.256, 944.071 555.429 M 873.086 570 C 873.055 570.825, 873.467 572.175, 874 573 C 875.181 574.828, 875.181 573.249, 874 570.500 C 873.433 569.181, 873.122 569.011, 873.086 570 M 946.031 570 C 946.031 570.825, 946.467 572.175, 947 573 C 947.862 574.333, 947.969 574.333, 947.969 573 C 947.969 572.175, 947.533 570.825, 947 570 C 946.138 568.667, 946.031 568.667, 946.031 570 M 792.079 599.583 C 792.127 600.748, 792.364 600.985, 792.683 600.188 C 792.972 599.466, 792.936 598.603, 792.604 598.271 C 792.272 597.939, 792.036 598.529, 792.079 599.583 M 793.079 603.583 C 793.127 604.748, 793.364 604.985, 793.683 604.188 C 793.972 603.466, 793.936 602.603, 793.604 602.271 C 793.272 601.939, 793.036 602.529, 793.079 603.583 M 723 608.941 C 723 609.459, 723.445 610.157, 723.989 610.493 C 724.555 610.843, 724.723 610.442, 724.382 609.552 C 723.717 607.820, 723 607.503, 723 608.941 M 824.079 609.583 C 824.127 610.748, 824.364 610.985, 824.683 610.188 C 824.972 609.466, 824.936 608.603, 824.604 608.271 C 824.272 607.939, 824.036 608.529, 824.079 609.583 M 796.086 610.500 C 796.190 612.394, 797.856 615.584, 797.914 614 C 797.945 613.175, 797.533 611.825, 797 611 C 796.467 610.175, 796.055 609.950, 796.086 610.500 M 798.031 616.500 C 798.031 617.050, 798.467 618.175, 799 619 C 799.533 619.825, 799.969 620.050, 799.969 619.500 C 799.969 618.950, 799.533 617.825, 799 617 C 798.467 616.175, 798.031 615.950, 798.031 616.500 M 965.079 625.507 C 964.985 627.892, 969.934 650.279, 970.715 651 C 971.636 651.851, 970.014 642.599, 967.529 632.824 C 966.225 627.696, 965.122 624.403, 965.079 625.507 M 802.015 627.191 C 802.007 628.121, 802.450 629.160, 803 629.500 C 804.266 630.282, 804.266 628.958, 803 627 C 802.165 625.707, 802.029 625.734, 802.015 627.191 M 886 638.382 C 886 639.207, 886.450 640.160, 887 640.500 C 887.550 640.840, 888 640.443, 888 639.618 C 888 638.793, 887.550 637.840, 887 637.500 C 886.450 637.160, 886 637.557, 886 638.382 M 807.052 639.698 C 806.970 641.592, 813.170 658.164, 813.744 657.589 C 814.029 657.305, 813.346 654.693, 812.227 651.786 C 811.108 648.879, 809.497 644.700, 808.648 642.500 C 807.798 640.300, 807.080 639.039, 807.052 639.698 M 897.170 646 C 897.186 646.825, 897.560 648.625, 898 650 C 898.644 652.010, 898.806 652.108, 898.830 650.500 C 898.846 649.400, 898.473 647.600, 898 646.500 C 897.473 645.275, 897.152 645.081, 897.170 646 M 899.079 654.583 C 899.127 655.748, 899.364 655.985, 899.683 655.188 C 899.972 654.466, 899.936 653.603, 899.604 653.271 C 899.272 652.939, 899.036 653.529, 899.079 654.583 M 892.848 665.048 C 893.668 668.869, 894.552 671.782, 894.811 671.522 C 895.436 670.897, 892.909 659.062, 892.035 658.522 C 891.662 658.291, 892.028 661.228, 892.848 665.048 M 900.141 659 C 900.141 659.825, 900.527 661.400, 901 662.500 C 901.542 663.761, 901.859 663.945, 901.859 663 C 901.859 662.175, 901.473 660.600, 901 659.500 C 900.458 658.239, 900.141 658.055, 900.141 659 M 857.079 664.583 C 857.127 665.748, 857.364 665.985, 857.683 665.188 C 857.972 664.466, 857.936 663.603, 857.604 663.271 C 857.272 662.939, 857.036 663.529, 857.079 664.583 M 902.158 667 C 902.158 668.375, 902.385 668.938, 902.662 668.250 C 902.940 667.563, 902.940 666.438, 902.662 665.750 C 902.385 665.063, 902.158 665.625, 902.158 667 M 974.015 669.750 C 974.024 670.163, 974.467 671.175, 975 672 C 975.784 673.213, 975.972 673.069, 975.985 671.250 C 975.993 670.013, 975.550 669, 975 669 C 974.450 669, 974.007 669.337, 974.015 669.750 M 903.079 671.583 C 903.127 672.748, 903.364 672.985, 903.683 672.188 C 903.972 671.466, 903.936 670.603, 903.604 670.271 C 903.272 669.939, 903.036 670.529, 903.079 671.583 M 818.079 672.583 C 818.127 673.748, 818.364 673.985, 818.683 673.188 C 818.972 672.466, 818.936 671.603, 818.604 671.271 C 818.272 670.939, 818.036 671.529, 818.079 672.583 M 976.437 682 C 976.537 686.695, 977.195 691.560, 977.907 692.868 C 978.616 694.170, 979.265 698.106, 979.348 701.614 C 979.432 705.123, 979.786 707.995, 980.135 707.997 C 980.484 707.999, 981.073 710.362, 981.444 713.250 C 981.815 716.138, 982.980 722.550, 984.031 727.500 L 985.944 736.500 985.440 729 C 984.954 721.751, 983.984 714.520, 981.952 703 C 981.419 699.975, 980.801 696.375, 980.580 695 C 980.359 693.625, 979.891 691.780, 979.540 690.899 C 979.188 690.019, 978.306 685.744, 977.578 681.399 L 976.256 673.500 976.437 682 M 904 676.441 C 904 677.234, 904.408 678.134, 904.907 678.442 C 905.405 678.751, 905.578 678.102, 905.290 677.001 C 904.679 674.666, 904 674.371, 904 676.441 M 895.031 676.500 C 895.031 677.050, 895.467 678.175, 896 679 C 896.533 679.825, 896.969 680.050, 896.969 679.500 C 896.969 678.950, 896.533 677.825, 896 677 C 895.467 676.175, 895.031 675.950, 895.031 676.500 M 861.031 680.500 C 861.031 681.050, 861.467 682.175, 862 683 C 862.533 683.825, 862.969 684.050, 862.969 683.500 C 862.969 682.950, 862.533 681.825, 862 681 C 861.467 680.175, 861.031 679.950, 861.031 680.500 M 905.141 681 C 905.141 681.825, 905.527 683.400, 906 684.500 C 906.542 685.761, 906.859 685.945, 906.859 685 C 906.859 684.175, 906.473 682.600, 906 681.500 C 905.458 680.239, 905.141 680.055, 905.141 681 M 821.079 684.583 C 821.127 685.748, 821.364 685.985, 821.683 685.188 C 821.972 684.466, 821.936 683.603, 821.604 683.271 C 821.272 682.939, 821.036 683.529, 821.079 684.583 M 982.543 686.931 C 981.860 688.036, 983.437 689.230, 984.361 688.306 C 985.311 687.355, 985.134 686, 984.059 686 C 983.541 686, 982.859 686.419, 982.543 686.931 M 977.079 689.583 C 977.127 690.748, 977.364 690.985, 977.683 690.188 C 977.972 689.466, 977.936 688.603, 977.604 688.271 C 977.272 687.939, 977.036 688.529, 977.079 689.583 M 865.158 697 C 865.158 698.375, 865.385 698.938, 865.662 698.250 C 865.940 697.563, 865.940 696.438, 865.662 695.750 C 865.385 695.063, 865.158 695.625, 865.158 697 M 825.079 698.583 C 825.127 699.748, 825.364 699.985, 825.683 699.188 C 825.972 698.466, 825.936 697.603, 825.604 697.271 C 825.272 696.939, 825.036 697.529, 825.079 698.583 M 909.079 698.583 C 909.127 699.748, 909.364 699.985, 909.683 699.188 C 909.972 698.466, 909.936 697.603, 909.604 697.271 C 909.272 696.939, 909.036 697.529, 909.079 698.583 M 866.158 702 C 866.158 703.375, 866.385 703.938, 866.662 703.250 C 866.940 702.563, 866.940 701.438, 866.662 700.750 C 866.385 700.063, 866.158 700.625, 866.158 702 M 889.115 705 C 889.069 706.375, 889.467 708.175, 890 709 C 890.862 710.333, 890.960 710.333, 890.885 709 C 890.839 708.175, 890.440 706.375, 890 705 L 889.199 702.500 889.115 705 M 827.079 708.583 C 827.127 709.748, 827.364 709.985, 827.683 709.188 C 827.972 708.466, 827.936 707.603, 827.604 707.271 C 827.272 706.939, 827.036 707.529, 827.079 708.583 M 911.232 710 C 911.232 711.925, 911.438 712.712, 911.689 711.750 C 911.941 710.788, 911.941 709.212, 911.689 708.250 C 911.438 707.288, 911.232 708.075, 911.232 710 M 869.158 716 C 869.158 717.375, 869.385 717.938, 869.662 717.250 C 869.940 716.563, 869.940 715.438, 869.662 714.750 C 869.385 714.063, 869.158 714.625, 869.158 716 M 912.079 716.583 C 912.127 717.748, 912.364 717.985, 912.683 717.188 C 912.972 716.466, 912.936 715.603, 912.604 715.271 C 912.272 714.939, 912.036 715.529, 912.079 716.583 M 1003 719.059 C 1003 719.641, 1003.450 719.840, 1004 719.500 C 1004.550 719.160, 1005 718.684, 1005 718.441 C 1005 718.198, 1004.550 718, 1004 718 C 1003.450 718, 1003 718.477, 1003 719.059 M 913.079 722.583 C 913.127 723.748, 913.364 723.985, 913.683 723.188 C 913.972 722.466, 913.936 721.603, 913.604 721.271 C 913.272 720.939, 913.036 721.529, 913.079 722.583 M 893.079 724.583 C 893.127 725.748, 893.364 725.985, 893.683 725.188 C 893.972 724.466, 893.936 723.603, 893.604 723.271 C 893.272 722.939, 893.036 723.529, 893.079 724.583 M 871.189 727.500 C 871.215 728.600, 871.580 730.850, 872 732.500 L 872.763 735.500 872.811 732.500 C 872.838 730.850, 872.473 728.600, 872 727.500 L 871.141 725.500 871.189 727.500 M 914.079 727.583 C 914.127 728.748, 914.364 728.985, 914.683 728.188 C 914.972 727.466, 914.936 726.603, 914.604 726.271 C 914.272 725.939, 914.036 726.529, 914.079 727.583 M 893.916 731.750 C 894.343 733.263, 894.525 734.984, 894.321 735.575 C 894.117 736.167, 894.660 738.192, 895.528 740.075 L 897.106 743.500 896.526 740 C 896.208 738.075, 895.676 734.813, 895.346 732.750 C 895.015 730.688, 894.383 729, 893.942 729 C 893.501 729, 893.489 730.237, 893.916 731.750 M 915.079 732.583 C 915.127 733.748, 915.364 733.985, 915.683 733.188 C 915.972 732.466, 915.936 731.603, 915.604 731.271 C 915.272 730.939, 915.036 731.529, 915.079 732.583 M 833.079 736.583 C 833.127 737.748, 833.364 737.985, 833.683 737.188 C 833.972 736.466, 833.936 735.603, 833.604 735.271 C 833.272 734.939, 833.036 735.529, 833.079 736.583 M 873.158 738 C 873.158 739.375, 873.385 739.938, 873.662 739.250 C 873.940 738.563, 873.940 737.438, 873.662 736.750 C 873.385 736.063, 873.158 736.625, 873.158 738 M 874.158 744 C 874.158 745.375, 874.385 745.938, 874.662 745.250 C 874.940 744.563, 874.940 743.438, 874.662 742.750 C 874.385 742.063, 874.158 742.625, 874.158 744 M 835.199 747.500 C 835.199 748.600, 835.560 750.625, 836 752 C 836.634 753.980, 836.801 754.084, 836.801 752.500 C 836.801 751.400, 836.440 749.375, 836 748 C 835.366 746.020, 835.199 745.916, 835.199 747.500 M 875.195 749.500 C 875.215 751.150, 875.439 751.704, 875.693 750.731 C 875.947 749.758, 875.930 748.408, 875.656 747.731 C 875.382 747.054, 875.175 747.850, 875.195 749.500 M 987 750.559 C 987 751.416, 987.457 751.835, 988.016 751.490 C 988.575 751.144, 988.774 750.443, 988.457 749.931 C 987.600 748.544, 987 748.802, 987 750.559 M 837.195 758.500 C 837.215 760.150, 837.439 760.704, 837.693 759.731 C 837.947 758.758, 837.930 757.408, 837.656 756.731 C 837.382 756.054, 837.175 756.850, 837.195 758.500 M 988.864 756.469 C 988.606 756.728, 988.608 758.640, 988.868 760.719 C 989.301 764.172, 989.405 764.283, 990.071 762 C 991.446 757.287, 990.837 754.496, 988.864 756.469 M 838.656 766.500 C 838.991 768.700, 839.431 770.688, 839.633 770.917 C 840.390 771.776, 839.823 766.420, 838.953 764.500 C 838.322 763.106, 838.232 763.712, 838.656 766.500 M 899.500 764 C 899.840 764.550, 900.316 765, 900.559 765 C 900.802 765, 901 764.550, 901 764 C 901 763.450, 900.523 763, 899.941 763 C 899.359 763, 899.160 763.450, 899.500 764 M 913.079 767.583 C 913.127 768.748, 913.364 768.985, 913.683 768.188 C 913.972 767.466, 913.936 766.603, 913.604 766.271 C 913.272 765.939, 913.036 766.529, 913.079 767.583 M 924.079 777.583 C 924.127 778.748, 924.364 778.985, 924.683 778.188 C 924.972 777.466, 924.936 776.603, 924.604 776.271 C 924.272 775.939, 924.036 776.529, 924.079 777.583 M 992.195 778.500 C 992.215 780.150, 992.439 780.704, 992.693 779.731 C 992.947 778.758, 992.930 777.408, 992.656 776.731 C 992.382 776.054, 992.175 776.850, 992.195 778.500 M 841.079 779.583 C 841.127 780.748, 841.364 780.985, 841.683 780.188 C 841.972 779.466, 841.936 778.603, 841.604 778.271 C 841.272 777.939, 841.036 778.529, 841.079 779.583 M 1001.079 783.583 C 1001.127 784.748, 1001.364 784.985, 1001.683 784.188 C 1001.972 783.466, 1001.936 782.603, 1001.604 782.271 C 1001.272 781.939, 1001.036 782.529, 1001.079 783.583 M 1012.232 787 C 1012.232 788.925, 1012.438 789.712, 1012.689 788.750 C 1012.941 787.788, 1012.941 786.212, 1012.689 785.250 C 1012.438 784.288, 1012.232 785.075, 1012.232 787 M 919.158 792 C 919.158 793.375, 919.385 793.938, 919.662 793.250 C 919.940 792.563, 919.940 791.438, 919.662 790.750 C 919.385 790.063, 919.158 790.625, 919.158 792 M 997.367 793 C 997.667 794.925, 998.199 798.732, 998.549 801.460 C 998.981 804.830, 999.451 805.946, 1000.013 804.942 C 1000.487 804.094, 1000.202 800.703, 999.344 796.989 C 997.702 789.882, 996.505 787.467, 997.367 793 M 1013.500 804 C 1013.840 804.550, 1014.316 805, 1014.559 805 C 1014.802 805, 1015 804.550, 1015 804 C 1015 803.450, 1014.523 803, 1013.941 803 C 1013.359 803, 1013.160 803.450, 1013.500 804 M 922.158 808 C 922.158 809.375, 922.385 809.938, 922.662 809.250 C 922.940 808.563, 922.940 807.438, 922.662 806.750 C 922.385 806.063, 922.158 806.625, 922.158 808 M 949.079 826.583 C 949.127 827.748, 949.364 827.985, 949.683 827.188 C 949.972 826.466, 949.936 825.603, 949.604 825.271 C 949.272 824.939, 949.036 825.529, 949.079 826.583 M 929.636 847.579 C 930.695 855.672, 932.807 865.684, 932.888 863 C 932.977 860.047, 930.206 843.872, 929.487 843.154 C 929.215 842.881, 929.281 844.872, 929.636 847.579 M 872.079 847.583 C 872.127 848.748, 872.364 848.985, 872.683 848.188 C 872.972 847.466, 872.936 846.603, 872.604 846.271 C 872.272 845.939, 872.036 846.529, 872.079 847.583 M 873.710 855 C 873.998 856.100, 874.406 857, 874.617 857 C 874.827 857, 875 856.100, 875 855 C 875 853.900, 874.592 853, 874.094 853 C 873.595 853, 873.423 853.900, 873.710 855 M 875.158 860 C 875.158 861.375, 875.385 861.938, 875.662 861.250 C 875.940 860.563, 875.940 859.438, 875.662 858.750 C 875.385 858.063, 875.158 858.625, 875.158 860 M 898.079 863.583 C 898.127 864.748, 898.364 864.985, 898.683 864.188 C 898.972 863.466, 898.936 862.603, 898.604 862.271 C 898.272 861.939, 898.036 862.529, 898.079 863.583 M 876.158 866 C 876.158 867.375, 876.385 867.938, 876.662 867.250 C 876.940 866.563, 876.940 865.438, 876.662 864.750 C 876.385 864.063, 876.158 864.625, 876.158 866 M 933.192 870 C 933.168 871.375, 933.509 874.525, 933.949 877 L 934.750 881.500 934.757 877.500 C 934.760 875.300, 934.420 872.150, 934 870.500 C 933.308 867.781, 933.232 867.734, 933.192 870 M 901.158 882 C 901.158 883.375, 901.385 883.938, 901.662 883.250 C 901.940 882.563, 901.940 881.438, 901.662 880.750 C 901.385 880.063, 901.158 880.625, 901.158 882 M 934.500 883 C 934.840 883.550, 935.316 884, 935.559 884 C 935.802 884, 936 883.550, 936 883 C 936 882.450, 935.523 882, 934.941 882 C 934.359 882, 934.160 882.450, 934.500 883 M 902.079 887.583 C 902.127 888.748, 902.364 888.985, 902.683 888.188 C 902.972 887.466, 902.936 886.603, 902.604 886.271 C 902.272 885.939, 902.036 886.529, 902.079 887.583 M 883.006 904.929 C 883.003 906.265, 883.508 908.965, 884.130 910.929 C 886.356 917.965, 886.941 918.538, 886.316 913.070 C 885.974 910.083, 885.091 906.483, 884.353 905.070 L 883.012 902.500 883.006 904.929 M 937.189 906 C 937.154 907.925, 937.716 912.875, 938.437 917 C 939.257 921.693, 939.772 923.190, 939.811 921 C 939.846 919.075, 939.284 914.125, 938.563 910 C 937.743 905.307, 937.228 903.810, 937.189 906 M 888 907.441 C 888 908.234, 888.408 909.134, 888.907 909.442 C 889.405 909.751, 889.578 909.102, 889.290 908.001 C 888.679 905.666, 888 905.371, 888 907.441 M 898.736 908.598 C 897.934 909.399, 898.983 912, 900.107 912 C 900.598 912, 901 911.100, 901 910 C 901 908.051, 899.939 907.394, 898.736 908.598 M 908.441 909.744 C 908.987 911.519, 908.804 911.862, 907.565 911.387 C 906.469 910.966, 906 911.381, 906 912.771 C 906 914.908, 908.521 917.614, 909.286 916.299 C 909.989 915.091, 909.430 909.091, 908.536 908.244 C 908.105 907.835, 908.062 908.510, 908.441 909.744 M 940.871 909 C 940.296 910.554, 941.789 917.544, 942.537 916.797 C 942.769 916.564, 942.615 914.377, 942.193 911.937 C 941.771 909.497, 941.176 908.175, 940.871 909 M 926.293 912.969 C 926.179 914.600, 926.516 916.201, 927.043 916.526 C 927.584 916.861, 928 915.571, 928 913.559 C 928 909.267, 926.586 908.779, 926.293 912.969 M 868.079 914.583 C 868.127 915.748, 868.364 915.985, 868.683 915.188 C 868.972 914.466, 868.936 913.603, 868.604 913.271 C 868.272 912.939, 868.036 913.529, 868.079 914.583 M 920.031 913.500 C 920.031 914.050, 920.467 915.175, 921 916 C 921.533 916.825, 921.969 917.050, 921.969 916.500 C 921.969 915.950, 921.533 914.825, 921 914 C 920.467 913.175, 920.031 912.950, 920.031 913.500 M 963.079 914.583 C 963.127 915.748, 963.364 915.985, 963.683 915.188 C 963.972 914.466, 963.936 913.603, 963.604 913.271 C 963.272 912.939, 963.036 913.529, 963.079 914.583 M 968.446 915.500 C 968.660 917.150, 968.873 919.962, 968.918 921.750 C 968.963 923.538, 969.407 925, 969.905 925 C 970.902 925, 970.188 917.662, 968.882 914.500 C 968.247 912.961, 968.146 913.192, 968.446 915.500 M 907.195 934.500 C 907.215 936.150, 907.439 936.704, 907.693 935.731 C 907.947 934.758, 907.930 933.408, 907.656 932.731 C 907.382 932.054, 907.175 932.850, 907.195 934.500 M 911.500 934 C 911.125 935.183, 911.042 936.376, 911.317 936.651 C 911.592 936.926, 912.125 936.183, 912.500 935 C 912.875 933.817, 912.958 932.624, 912.683 932.349 C 912.408 932.074, 911.875 932.817, 911.500 934 M 912 944 C 912 944.550, 912.477 945, 913.059 945 C 913.641 945, 913.840 944.550, 913.500 944 C 913.160 943.450, 912.684 943, 912.441 943 C 912.198 943, 912 943.450, 912 944 M 873.731 946.080 C 874.085 947.432, 874.538 947.886, 874.788 947.137 C 875.028 946.415, 874.750 945.350, 874.168 944.768 C 873.426 944.026, 873.296 944.417, 873.731 946.080 M 942.265 950.500 C 942.256 953.800, 942.572 959.650, 942.967 963.500 L 943.685 970.500 943.744 963 C 943.776 958.875, 943.460 953.025, 943.042 950 L 942.282 944.500 942.265 950.500 M 914.070 947.691 C 914.109 948.686, 914.513 950.400, 914.968 951.500 C 915.637 953.116, 915.786 952.869, 915.745 950.214 C 915.717 948.407, 915.313 946.693, 914.847 946.405 C 914.381 946.117, 914.032 946.696, 914.070 947.691 M 955.272 950 C 955.272 952.475, 955.467 953.487, 955.706 952.250 C 955.944 951.013, 955.944 948.987, 955.706 947.750 C 955.467 946.513, 955.272 947.525, 955.272 950 M 896.195 955.500 C 896.215 957.150, 896.439 957.704, 896.693 956.731 C 896.947 955.758, 896.930 954.408, 896.656 953.731 C 896.382 953.054, 896.175 953.850, 896.195 955.500 M 916.252 958.500 C 916.263 960.700, 916.468 961.482, 916.707 960.238 C 916.946 958.994, 916.937 957.194, 916.687 956.238 C 916.437 955.282, 916.241 956.300, 916.252 958.500 M 956.079 956.583 C 956.127 957.748, 956.364 957.985, 956.683 957.188 C 956.972 956.466, 956.936 955.603, 956.604 955.271 C 956.272 954.939, 956.036 955.529, 956.079 956.583 M 875.422 957.646 C 875.778 958.826, 876.492 961.751, 877.009 964.146 L 877.949 968.500 877.501 963.077 C 877.255 960.094, 876.541 957.169, 875.914 956.577 C 875.074 955.782, 874.945 956.063, 875.422 957.646 M 893.232 966 C 893.232 967.925, 893.438 968.712, 893.689 967.750 C 893.941 966.788, 893.941 965.212, 893.689 964.250 C 893.438 963.288, 893.232 964.075, 893.232 966 M 902.710 965 C 902.423 966.100, 902.595 967, 903.094 967 C 903.592 967, 904 966.812, 904 966.582 C 904 966.352, 904.273 965.452, 904.607 964.582 C 904.941 963.712, 904.768 963, 904.224 963 C 903.679 963, 902.998 963.900, 902.710 965 M 878.079 970.583 C 878.127 971.748, 878.364 971.985, 878.683 971.188 C 878.972 970.466, 878.936 969.603, 878.604 969.271 C 878.272 968.939, 878.036 969.529, 878.079 970.583 M 912.079 971.583 C 912.127 972.748, 912.364 972.985, 912.683 972.188 C 912.972 971.466, 912.936 970.603, 912.604 970.271 C 912.272 969.939, 912.036 970.529, 912.079 971.583 M 930.079 971.583 C 930.127 972.748, 930.364 972.985, 930.683 972.188 C 930.972 971.466, 930.936 970.603, 930.604 970.271 C 930.272 969.939, 930.036 970.529, 930.079 971.583 M 944.286 975.500 C 944.294 978.250, 944.488 979.256, 944.718 977.736 C 944.947 976.216, 944.941 973.966, 944.704 972.736 C 944.467 971.506, 944.279 972.750, 944.286 975.500 M 892.158 978 C 892.158 979.375, 892.385 979.938, 892.662 979.250 C 892.940 978.563, 892.940 977.438, 892.662 976.750 C 892.385 976.063, 892.158 976.625, 892.158 978 M 905.232 981 C 905.232 982.925, 905.438 983.712, 905.689 982.750 C 905.941 981.788, 905.941 980.212, 905.689 979.250 C 905.438 978.288, 905.232 979.075, 905.232 981 M 913.195 981.500 C 913.215 983.150, 913.439 983.704, 913.693 982.731 C 913.947 981.758, 913.930 980.408, 913.656 979.731 C 913.382 979.054, 913.175 979.850, 913.195 981.500 M 915.252 985.500 C 915.263 987.700, 915.468 988.482, 915.707 987.238 C 915.946 985.994, 915.937 984.194, 915.687 983.238 C 915.437 982.282, 915.241 983.300, 915.252 985.500 M 905.115 987 C 905.161 988.375, 905.560 990.625, 906 992 C 906.734 994.291, 906.808 994.207, 906.885 991 C 906.931 989.075, 906.533 986.825, 906 986 C 905.238 984.821, 905.049 985.034, 905.115 987 M 907.158 1004 C 907.158 1005.375, 907.385 1005.938, 907.662 1005.250 C 907.940 1004.563, 907.940 1003.438, 907.662 1002.750 C 907.385 1002.063, 907.158 1002.625, 907.158 1004 M 922.195 1004.500 C 922.215 1006.150, 922.439 1006.704, 922.693 1005.731 C 922.947 1004.758, 922.930 1003.408, 922.656 1002.731 C 922.382 1002.054, 922.175 1002.850, 922.195 1004.500 M 1027.500 1005 C 1027.160 1005.550, 1027.359 1006, 1027.941 1006 C 1028.523 1006, 1029 1005.550, 1029 1005 C 1029 1004.450, 1028.802 1004, 1028.559 1004 C 1028.316 1004, 1027.840 1004.450, 1027.500 1005 M 907.079 1008.583 C 907.127 1009.748, 907.364 1009.985, 907.683 1009.188 C 907.972 1008.466, 907.936 1007.603, 907.604 1007.271 C 907.272 1006.939, 907.036 1007.529, 907.079 1008.583 M 796.079 1033.583 C 796.127 1034.748, 796.364 1034.985, 796.683 1034.188 C 796.972 1033.466, 796.936 1032.603, 796.604 1032.271 C 796.272 1031.939, 796.036 1032.529, 796.079 1033.583 M 1006.720 1050.250 C 1006.447 1051.487, 1006.563 1054.750, 1006.978 1057.500 C 1007.727 1062.463, 1007.734 1062.446, 1007.866 1055.250 C 1008.002 1047.880, 1007.616 1046.194, 1006.720 1050.250 M 789.710 1067 C 789.423 1068.100, 789.595 1069, 790.094 1069 C 790.592 1069, 791 1068.100, 791 1067 C 791 1065.900, 790.827 1065, 790.617 1065 C 790.406 1065, 789.998 1065.900, 789.710 1067 M 789.600 1071.600 C 789.244 1072.527, 789.178 1073.511, 789.453 1073.786 C 789.728 1074.061, 790.244 1073.527, 790.600 1072.600 C 790.956 1071.673, 791.022 1070.689, 790.747 1070.414 C 790.472 1070.139, 789.956 1070.673, 789.600 1071.600 M 1007.712 1080.500 C 1008.021 1086.550, 1008.437 1091.688, 1008.637 1091.917 C 1009.379 1092.768, 1008.770 1074.406, 1007.976 1072 C 1007.504 1070.571, 1007.391 1074.212, 1007.712 1080.500 M 787.418 1103.332 C 787.738 1104.339, 788 1105.828, 788 1106.641 C 788 1107.453, 788.450 1107.840, 789 1107.500 C 790.390 1106.641, 790.254 1105.694, 788.418 1103.441 C 786.971 1101.665, 786.886 1101.656, 787.418 1103.332 M 784.158 1122 C 784.158 1123.375, 784.385 1123.938, 784.662 1123.250 C 784.940 1122.563, 784.940 1121.438, 784.662 1120.750 C 784.385 1120.063, 784.158 1120.625, 784.158 1122 M 1037.079 1154.583 C 1037.127 1155.748, 1037.364 1155.985, 1037.683 1155.188 C 1037.972 1154.466, 1037.936 1153.603, 1037.604 1153.271 C 1037.272 1152.939, 1037.036 1153.529, 1037.079 1154.583 M 1016.136 1163.168 C 1016.061 1164.086, 1015.709 1165.661, 1015.353 1166.668 C 1014.853 1168.082, 1014.987 1168.241, 1015.937 1167.365 C 1016.615 1166.741, 1016.968 1165.166, 1016.721 1163.865 C 1016.474 1162.564, 1016.211 1162.251, 1016.136 1163.168 M 760 1169 C 760 1169.550, 760.450 1170, 761 1170 C 761.550 1170, 762 1169.550, 762 1169 C 762 1168.450, 761.550 1168, 761 1168 C 760.450 1168, 760 1168.450, 760 1169 M 1012.871 1177.086 C 1012.013 1180.380, 1011.634 1183.274, 1012.029 1183.518 C 1012.748 1183.962, 1015.453 1172.119, 1014.785 1171.452 C 1014.591 1171.257, 1013.729 1173.793, 1012.871 1177.086 M 767.079 1177.583 C 767.127 1178.748, 767.364 1178.985, 767.683 1178.188 C 767.972 1177.466, 767.936 1176.603, 767.604 1176.271 C 767.272 1175.939, 767.036 1176.529, 767.079 1177.583 M 1009.696 1190.231 C 1009.172 1194.134, 1009.438 1195.940, 1010.386 1194.917 C 1011.354 1193.870, 1012.090 1186, 1011.220 1186 C 1010.694 1186, 1010.008 1187.904, 1009.696 1190.231 M 691 1304 C 691 1304.550, 691.450 1305, 692 1305 C 692.550 1305, 693 1304.550, 693 1304 C 693 1303.450, 692.550 1303, 692 1303 C 691.450 1303, 691 1303.450, 691 1304 M 688.747 1309.910 C 687.236 1311.511, 686 1313.280, 686 1313.843 C 686 1314.405, 685.141 1315.138, 684.090 1315.471 C 683.040 1315.805, 681.577 1316.821, 680.840 1317.731 C 679.694 1319.145, 679.717 1319.255, 681 1318.493 C 681.825 1318.004, 681.150 1319.235, 679.500 1321.229 C 677.850 1323.224, 675.938 1324.888, 675.250 1324.928 C 674.563 1324.968, 674 1325.675, 674 1326.500 C 674 1327.325, 673.325 1328, 672.500 1328 C 671.675 1328, 671 1328.450, 671 1329 C 671 1329.550, 669.297 1331.703, 667.214 1333.786 C 665.132 1335.868, 662.095 1339.344, 660.464 1341.510 C 658.834 1343.677, 656.002 1346.811, 654.172 1348.475 C 652.341 1350.139, 648.384 1353.892, 645.377 1356.815 C 642.138 1359.964, 639.216 1361.991, 638.206 1361.788 C 637.110 1361.569, 636.068 1362.446, 635.292 1364.239 C 634.627 1365.774, 633.277 1367.332, 632.292 1367.699 C 631.306 1368.067, 629.912 1369.185, 629.193 1370.184 C 628.475 1371.183, 627.446 1372, 626.908 1372 C 626.369 1372, 624.932 1372.907, 623.714 1374.014 C 620.026 1377.370, 611.110 1384, 610.279 1384.005 C 609.851 1384.007, 607.761 1385.606, 605.636 1387.558 C 603.511 1389.509, 601.543 1390.876, 601.262 1390.596 C 600.981 1390.315, 599.923 1391.078, 598.909 1392.293 C 597.896 1393.507, 597.052 1394.094, 597.033 1393.597 C 597.002 1392.745, 593 1396.837, 593 1397.720 C 593 1398.806, 598.002 1396.381, 602.455 1393.138 C 605.180 1391.153, 608.646 1388.847, 610.156 1388.014 C 611.666 1387.181, 614.387 1385.274, 616.201 1383.775 C 624.874 1376.609, 628.938 1374.035, 630.683 1374.600 C 631.775 1374.954, 632.062 1374.852, 631.403 1374.344 C 630.666 1373.777, 631.240 1372.736, 633.153 1371.174 L 636 1368.848 636 1374.180 C 636 1379.121, 635.784 1379.607, 633.054 1380.816 C 631.210 1381.632, 630.309 1382.642, 630.645 1383.518 C 630.991 1384.419, 630.261 1385.147, 628.591 1385.567 C 627.166 1385.924, 626 1386.546, 626 1386.948 C 626 1387.350, 624.817 1388.218, 623.371 1388.877 C 621.925 1389.536, 621.017 1390.350, 621.353 1390.686 C 622.150 1391.483, 617.978 1395.104, 616.976 1394.485 C 616.554 1394.225, 615.952 1394.684, 615.636 1395.506 C 615.321 1396.328, 614.347 1397, 613.472 1397 C 612.522 1397, 612.170 1397.466, 612.597 1398.158 C 613.091 1398.956, 612.620 1399.134, 611.077 1398.730 C 609.349 1398.278, 608.976 1398.495, 609.432 1399.684 C 609.850 1400.773, 609.572 1401.050, 608.481 1400.631 C 607.468 1400.242, 606.551 1400.892, 605.807 1402.524 C 605.185 1403.890, 604.921 1405.254, 605.220 1405.554 C 605.890 1406.224, 619.410 1398.036, 623.406 1394.542 C 625.004 1393.144, 626.659 1392, 627.084 1392 C 627.509 1392, 628.624 1391.233, 629.561 1390.296 C 631.246 1388.611, 632.644 1387.493, 643.306 1379.303 C 650.060 1374.116, 666.871 1357.645, 669.898 1353.250 C 671.682 1350.660, 671.828 1350, 670.618 1350 C 669.783 1350, 668.740 1350.631, 668.300 1351.403 C 667.860 1352.175, 665.111 1355.367, 662.191 1358.497 C 657.656 1363.357, 656.509 1364.094, 654.324 1363.545 C 651.044 1362.722, 647.759 1365.459, 648.477 1368.418 C 648.754 1369.563, 648.723 1369.938, 648.407 1369.250 C 647.531 1367.341, 646.400 1367.740, 644.510 1370.626 C 643.087 1372.798, 643.023 1373.414, 644.145 1374.191 C 645.100 1374.854, 644.861 1374.952, 643.334 1374.525 C 642.108 1374.182, 640.848 1374.437, 640.430 1375.114 C 639.963 1375.869, 640.116 1376.046, 640.845 1375.595 C 641.480 1375.203, 642 1375.373, 642 1375.972 C 642 1376.572, 641.212 1377.353, 640.250 1377.708 C 639.288 1378.064, 638.236 1378.744, 637.914 1379.221 C 637.591 1379.698, 637.267 1378.493, 637.194 1376.544 C 637.121 1374.595, 637.497 1373, 638.030 1373 C 638.564 1373, 639 1372.523, 639 1371.941 C 639 1371.359, 638.512 1371.183, 637.916 1371.552 C 637.229 1371.976, 636.954 1371.385, 637.166 1369.939 C 637.605 1366.936, 640 1366.144, 640 1369.003 C 640 1370.955, 640.350 1370.811, 643.500 1367.568 C 647.197 1363.761, 648.347 1361.471, 645.074 1364.433 C 644.015 1365.391, 642.427 1366.023, 641.545 1365.838 C 640.202 1365.555, 640.313 1365.132, 642.220 1363.243 C 643.474 1362.002, 648.775 1356.771, 654 1351.620 C 659.225 1346.468, 667.100 1338.345, 671.500 1333.567 C 675.900 1328.790, 681.396 1322.869, 683.713 1320.408 C 686.029 1317.948, 688.714 1314.600, 689.678 1312.968 C 690.642 1311.335, 691.784 1310, 692.216 1310 C 692.647 1310, 693 1309.325, 693 1308.500 C 693 1306.270, 691.811 1306.664, 688.747 1309.910 M 702.568 1314.500 C 701.100 1316.425, 699.356 1318, 698.693 1318 C 698.030 1318, 696.855 1319.431, 696.080 1321.180 C 695.306 1322.930, 693.396 1325.696, 691.836 1327.329 C 690.276 1328.961, 689.014 1331.017, 689.032 1331.898 C 689.054 1333.021, 689.835 1332.602, 691.642 1330.500 C 693.060 1328.850, 696.323 1325.250, 698.892 1322.500 C 703.256 1317.829, 707 1312.766, 707 1311.535 C 707 1310.014, 704.937 1311.394, 702.568 1314.500 M 715.241 1317.986 C 714.558 1319.079, 714 1320.449, 714 1321.030 C 714 1321.612, 712.875 1323.301, 711.500 1324.783 C 710.125 1326.266, 709 1328.245, 709 1329.181 C 709 1330.116, 708.550 1331.160, 708 1331.500 C 707.450 1331.840, 707 1333.519, 707 1335.230 L 707 1338.343 710.094 1333.671 C 711.974 1330.834, 713.934 1329, 715.089 1329 C 716.700 1329, 716.904 1328.467, 716.433 1325.503 C 716.128 1323.580, 716.230 1321.443, 716.660 1320.753 C 717.769 1318.976, 718.129 1316, 717.234 1316 C 716.820 1316, 715.923 1316.894, 715.241 1317.986 M 665.114 1321.016 C 663.252 1322.657, 662.156 1324, 662.677 1324 C 663.199 1324, 664.919 1322.650, 666.500 1321 C 670.176 1317.163, 669.476 1317.171, 665.114 1321.016 M 704.960 1323.163 C 702.782 1325.452, 701 1327.927, 701 1328.663 C 701 1329.398, 700.626 1330, 700.168 1330 C 699.242 1330, 693.873 1337.985, 691.929 1342.254 C 691.239 1343.769, 691.035 1345.344, 691.474 1345.754 C 691.914 1346.164, 692.481 1345.919, 692.734 1345.208 C 693.088 1344.216, 693.520 1344.186, 694.597 1345.081 C 695.703 1345.998, 696 1345.901, 696 1344.622 C 696 1343.730, 696.563 1342.993, 697.250 1342.985 C 698.136 1342.974, 698.173 1342.756, 697.376 1342.235 C 695.948 1341.302, 697.550 1336.604, 698.992 1337.495 C 699.546 1337.838, 700 1337.641, 700 1337.059 C 700 1336.477, 700.480 1336, 701.067 1336 C 701.691 1336, 701.877 1336.935, 701.516 1338.250 C 700.908 1340.458, 700.924 1340.463, 702.414 1338.500 C 703.249 1337.400, 704.463 1335.886, 705.111 1335.136 C 706.080 1334.016, 705.864 1333.908, 703.903 1334.531 C 701.676 1335.238, 701.616 1335.162, 703.008 1333.406 C 703.829 1332.370, 705.539 1330.393, 706.809 1329.012 C 708.711 1326.943, 712 1320.840, 712 1319.378 C 712 1319.170, 711.307 1319, 710.460 1319 C 709.613 1319, 707.138 1320.873, 704.960 1323.163 M 974.500 1322 C 974.125 1323.183, 974.042 1324.376, 974.317 1324.651 C 974.592 1324.926, 975.125 1324.183, 975.500 1323 C 975.875 1321.817, 975.958 1320.624, 975.683 1320.349 C 975.408 1320.074, 974.875 1320.817, 974.500 1322 M 675.978 1338.886 C 664.993 1349.977, 659.472 1356.777, 662.332 1355.694 C 663.339 1355.312, 664.352 1355, 664.582 1355 C 664.812 1355, 665.022 1354.438, 665.050 1353.750 C 665.077 1353.063, 667.323 1350.700, 670.042 1348.500 C 672.760 1346.300, 674.792 1343.979, 674.558 1343.342 C 674.325 1342.705, 675.228 1341.909, 676.567 1341.573 C 677.905 1341.237, 679 1340.295, 679 1339.481 C 679 1338.666, 679.450 1338, 680 1338 C 680.550 1338, 681 1337.325, 681 1336.500 C 681 1335.675, 681.440 1335, 681.977 1335 C 683.024 1335, 686.530 1330.161, 685.885 1329.605 C 685.673 1329.422, 681.215 1333.598, 675.978 1338.886 M 674.980 1334.524 C 674.284 1335.362, 673.909 1336.242, 674.145 1336.479 C 674.382 1336.715, 675.125 1336.030, 675.796 1334.955 C 677.248 1332.630, 676.764 1332.375, 674.980 1334.524 M 938.028 1337.466 C 937.359 1338.273, 936.983 1339.449, 937.193 1340.080 C 937.404 1340.711, 938.111 1340.051, 938.766 1338.613 C 940.101 1335.684, 939.842 1335.281, 938.028 1337.466 M 703.239 1340.320 C 702.007 1342.407, 701 1344.357, 701 1344.653 C 701 1344.949, 700.069 1346.498, 698.932 1348.096 C 695.261 1353.252, 697.802 1351.177, 702.050 1345.549 C 704.314 1342.552, 706.011 1339.295, 705.822 1338.312 C 705.561 1336.961, 704.932 1337.449, 703.239 1340.320 M 670 1339.500 C 669.306 1340.337, 669.197 1341, 669.755 1341 C 670.305 1341, 671.315 1340.325, 672 1339.500 C 672.694 1338.663, 672.803 1338, 672.245 1338 C 671.695 1338, 670.685 1338.675, 670 1339.500 M 698 1339.878 C 698 1341.098, 698.638 1342, 699.500 1342 C 700.325 1342, 701 1341.605, 701 1341.122 C 701 1340.640, 700.325 1339.685, 699.500 1339 C 698.247 1337.960, 698 1338.104, 698 1339.878 M 705.248 1343.836 C 702.776 1346.801, 702.348 1349.008, 704.250 1348.985 C 706.352 1348.959, 707.661 1347.627, 708.350 1344.811 C 709.260 1341.090, 707.895 1340.661, 705.248 1343.836 M 934.500 1342 C 934.160 1342.550, 934.359 1343, 934.941 1343 C 935.523 1343, 936 1342.550, 936 1342 C 936 1341.450, 935.802 1341, 935.559 1341 C 935.316 1341, 934.840 1341.450, 934.500 1342 M 667 1343.059 C 667 1343.641, 667.450 1343.840, 668 1343.500 C 668.550 1343.160, 669 1342.684, 669 1342.441 C 669 1342.198, 668.550 1342, 668 1342 C 667.450 1342, 667 1342.477, 667 1343.059 M 688.459 1343.067 C 688.096 1343.653, 688.014 1344.348, 688.276 1344.610 C 688.538 1344.872, 689.019 1344.392, 689.345 1343.543 C 690.021 1341.781, 689.445 1341.471, 688.459 1343.067 M 971.954 1344.086 C 971.340 1345.233, 971.026 1346.360, 971.257 1346.590 C 971.487 1346.820, 972.189 1345.882, 972.816 1344.504 C 974.194 1341.480, 973.523 1341.154, 971.954 1344.086 M 697.043 1345.420 C 696.237 1346.926, 695.185 1347.625, 694.258 1347.269 C 693.128 1346.835, 692.927 1347.196, 693.425 1348.765 C 693.786 1349.901, 693.613 1351.121, 693.041 1351.475 C 691.838 1352.218, 691.638 1354, 692.757 1354 C 693.381 1354, 698.596 1346.435, 699.824 1343.750 C 700.728 1341.772, 698.174 1343.306, 697.043 1345.420 M 661.500 1348 C 661.160 1348.550, 661.359 1349, 661.941 1349 C 662.523 1349, 663 1348.550, 663 1348 C 663 1347.450, 662.802 1347, 662.559 1347 C 662.316 1347, 661.840 1347.450, 661.500 1348 M 673.209 1359.500 C 671.030 1361.975, 668.751 1364, 668.143 1364 C 667.535 1364, 666.756 1365.125, 666.411 1366.500 C 666.066 1367.875, 665.179 1369, 664.441 1369 C 663.703 1369, 662.641 1369.787, 662.080 1370.750 C 661.519 1371.713, 661.047 1372.162, 661.030 1371.750 C 661.014 1371.338, 660.156 1371.844, 659.125 1372.875 C 658.094 1373.906, 656.631 1375.031, 655.875 1375.375 C 654.814 1375.857, 654.785 1376.133, 655.750 1376.583 C 656.438 1376.904, 657 1377.815, 657 1378.606 C 657 1379.785, 657.499 1379.729, 659.750 1378.299 C 661.263 1377.338, 663.288 1375.684, 664.250 1374.623 C 665.212 1373.562, 666 1373.213, 666 1373.847 C 666 1376.200, 668.766 1374.885, 671.459 1371.250 C 674.009 1367.809, 674.176 1368.079, 672.334 1372.655 C 671.745 1374.117, 672.033 1374.094, 674.805 1372.456 C 677.206 1371.038, 680 1366.769, 680 1364.517 C 680 1364.416, 678.650 1364.333, 677 1364.333 C 675.350 1364.333, 673.735 1364.069, 673.412 1363.745 C 672.816 1363.149, 676.664 1357.114, 678.500 1355.765 C 679.133 1355.300, 679.073 1355.025, 678.335 1355.015 C 677.694 1355.007, 675.387 1357.025, 673.209 1359.500 M 690.500 1356 C 690.160 1356.550, 690.359 1357, 690.941 1357 C 691.523 1357, 692 1356.550, 692 1356 C 692 1355.450, 691.802 1355, 691.559 1355 C 691.316 1355, 690.840 1355.450, 690.500 1356 M 657.500 1358 C 657.840 1358.550, 658.568 1359, 659.118 1359 C 659.668 1359, 659.840 1358.550, 659.500 1358 C 659.160 1357.450, 658.432 1357, 657.882 1357 C 657.332 1357, 657.160 1357.450, 657.500 1358 M 952.211 1365.538 C 951.145 1366.746, 951.189 1367, 952.461 1367 C 953.307 1367, 954 1366.325, 954 1365.500 C 954 1363.676, 953.850 1363.680, 952.211 1365.538 M 652.500 1366 C 652.160 1366.550, 652.332 1367, 652.882 1367 C 653.432 1367, 654.160 1366.550, 654.500 1366 C 654.840 1365.450, 654.668 1365, 654.118 1365 C 653.568 1365, 652.840 1365.450, 652.500 1366 M 946.750 1374.217 C 945.788 1375.421, 945 1376.942, 945 1377.596 C 945 1378.251, 944.261 1379.070, 943.357 1379.417 C 942.453 1379.763, 941.996 1380.329, 942.341 1380.675 C 942.686 1381.020, 942.239 1381.836, 941.347 1382.488 C 940.455 1383.141, 939.922 1384.267, 940.163 1384.990 C 940.412 1385.737, 942.212 1383.881, 944.325 1380.697 C 946.373 1377.612, 948.488 1374.817, 949.024 1374.485 C 950.172 1373.776, 950.335 1371.994, 949.250 1372.013 C 948.837 1372.021, 947.712 1373.012, 946.750 1374.217 M 629.330 1377.418 C 629.699 1378.378, 630 1379.577, 630 1380.082 C 630 1380.587, 630.408 1381, 630.906 1381 C 632.070 1381, 631.092 1377.175, 629.709 1376.320 C 629.050 1375.913, 628.909 1376.320, 629.330 1377.418 M 624.500 1381 C 624.160 1381.550, 624.332 1382, 624.882 1382 C 625.432 1382, 626.160 1381.550, 626.500 1381 C 626.840 1380.450, 626.668 1380, 626.118 1380 C 625.568 1380, 624.840 1380.450, 624.500 1381 M 619.441 1385.468 C 618.374 1386.276, 618.007 1386.951, 618.628 1386.968 C 619.248 1386.986, 620.315 1386.325, 621 1385.500 C 622.581 1383.595, 621.935 1383.582, 619.441 1385.468 M 819.700 1388.200 C 818.731 1389.889, 818.143 1391.477, 818.395 1391.728 C 818.647 1391.980, 819.594 1390.752, 820.500 1389 C 822.642 1384.857, 821.992 1384.207, 819.700 1388.200 M 613.658 1388.449 C 613.286 1389.418, 613.582 1389.714, 614.551 1389.342 C 615.348 1389.036, 616 1388.384, 616 1387.893 C 616 1386.455, 614.265 1386.867, 613.658 1388.449 M 901.535 1390.587 C 900.603 1392.009, 900.132 1393.465, 900.488 1393.822 C 901.135 1394.468, 904.936 1390.174, 904.978 1388.750 C 905.026 1387.128, 903.143 1388.132, 901.535 1390.587 M 935.750 1390.531 C 933.262 1393.865, 933.570 1395.816, 936.080 1392.625 C 937.224 1391.171, 938.012 1389.577, 937.830 1389.083 C 937.649 1388.589, 936.712 1389.241, 935.750 1390.531 M 636.250 1390.093 C 636.388 1390.694, 635.600 1391.707, 634.500 1392.343 C 633.400 1392.979, 632.140 1394.063, 631.700 1394.750 C 631.260 1395.438, 630.347 1396, 629.671 1396 C 628.995 1396, 627.810 1396.876, 627.039 1397.946 C 626.267 1399.017, 625.302 1399.687, 624.894 1399.434 C 624.486 1399.182, 622.026 1401.681, 619.428 1404.988 C 616.830 1408.295, 614.144 1411, 613.459 1411 C 612.774 1411, 611.959 1411.664, 611.648 1412.476 C 611.164 1413.736, 611.696 1413.713, 615.291 1412.317 C 617.606 1411.419, 620.057 1410.254, 620.737 1409.730 C 621.418 1409.205, 622.591 1409.013, 623.343 1409.302 C 624.198 1409.629, 625.327 1408.537, 626.348 1406.395 C 627.248 1404.508, 629.001 1402.492, 630.242 1401.914 C 633.389 1400.452, 639.351 1392.356, 638.642 1390.509 C 637.983 1388.791, 635.868 1388.424, 636.250 1390.093 M 815.204 1396.045 C 814.532 1397.120, 814.389 1398, 814.885 1398 C 815.782 1398, 817.328 1394.995, 816.736 1394.402 C 816.564 1394.231, 815.875 1394.970, 815.204 1396.045 M 897 1396.465 C 897 1397.270, 896.100 1398.411, 895 1399 C 893.900 1399.589, 893 1400.714, 893 1401.500 C 893 1402.286, 892.100 1403.411, 891 1404 C 889.900 1404.589, 888.990 1405.842, 888.978 1406.785 C 888.966 1407.728, 888.076 1409.625, 887 1411 C 884.549 1414.133, 884.378 1416.053, 886.783 1413.439 C 890.342 1409.569, 896 1401.686, 896 1400.597 C 896 1399.983, 896.900 1398.919, 898 1398.232 C 900.357 1396.760, 900.630 1395, 898.500 1395 C 897.675 1395, 897 1395.659, 897 1396.465 M 902.667 1396.667 C 902.300 1397.033, 902 1397.798, 902 1398.367 C 902 1398.993, 902.466 1398.934, 903.183 1398.217 C 903.834 1397.566, 904.134 1396.801, 903.850 1396.517 C 903.566 1396.233, 903.033 1396.300, 902.667 1396.667 M 586.250 1398.662 C 584.324 1399.439, 584.770 1401, 586.918 1401 C 589.747 1401, 592.068 1399.919, 591.435 1398.895 C 590.846 1397.943, 588.315 1397.829, 586.250 1398.662 M 929.012 1399.977 C 928.149 1401.591, 928.234 1401.847, 929.477 1401.371 C 930.315 1401.049, 931 1400.159, 931 1399.393 C 931 1397.440, 930.253 1397.659, 929.012 1399.977 M 582 1401.714 C 578.825 1402.589, 572.163 1406.098, 570.987 1407.515 C 570.310 1408.332, 569.218 1409, 568.561 1409 C 567.904 1409, 564.830 1410.297, 561.731 1411.882 C 558.632 1413.467, 555.861 1414.527, 555.573 1414.239 C 555.284 1413.951, 554.314 1414.324, 553.418 1415.068 C 551.362 1416.774, 549.124 1418.012, 541 1421.938 C 537.425 1423.665, 533.825 1425.507, 533 1426.031 C 530.402 1427.679, 514.842 1435, 513.936 1435 C 511.994 1435, 499.305 1439.689, 494.764 1442.084 C 493.809 1442.588, 492.324 1443, 491.464 1443 C 488.868 1443, 484 1445.952, 484 1447.526 C 484 1449.219, 484.965 1449.357, 488.203 1448.128 C 489.466 1447.648, 492.300 1446.721, 494.500 1446.067 C 499.666 1444.531, 504.957 1442.430, 512.858 1438.776 C 516.355 1437.158, 520.855 1435.244, 522.858 1434.521 C 524.861 1433.798, 530.432 1431.333, 535.237 1429.043 C 544.612 1424.575, 550.767 1423.005, 551.876 1424.800 C 552.319 1425.515, 553.063 1425.566, 554.026 1424.947 C 555.236 1424.170, 555.099 1423.890, 553.261 1423.386 C 552.030 1423.049, 551.269 1422.374, 551.570 1421.886 C 552.457 1420.452, 555.737 1420.872, 556.362 1422.500 C 557.198 1424.680, 559 1424.338, 559 1422 C 559 1420.792, 558.307 1419.969, 557.250 1419.921 C 555.872 1419.859, 555.819 1419.728, 557 1419.306 C 557.825 1419.011, 558.950 1418.259, 559.500 1417.635 C 560.386 1416.630, 564.164 1414.590, 580.489 1406.303 C 582.869 1405.095, 585.152 1403.563, 585.562 1402.899 C 586.016 1402.166, 585.889 1401.951, 585.240 1402.352 C 584.652 1402.715, 584.020 1402.627, 583.835 1402.156 C 583.651 1401.685, 582.825 1401.486, 582 1401.714 M 898 1402.768 C 898 1403.191, 896.200 1405.715, 894 1408.377 C 890.140 1413.049, 889.174 1415.013, 890.750 1414.988 C 891.414 1414.978, 898.979 1404.820, 899.833 1402.792 C 900.017 1402.356, 899.679 1402, 899.083 1402 C 898.487 1402, 898 1402.346, 898 1402.768 M 923.956 1405.553 C 923.057 1406.637, 922.996 1407.396, 923.750 1408.150 C 924.503 1408.903, 925.135 1408.616, 925.910 1407.168 C 927.248 1404.668, 925.731 1403.414, 923.956 1405.553 M 805.520 1409.623 C 801.115 1414.028, 791.011 1429, 792.444 1429 C 793.188 1429, 802.478 1415.487, 802.241 1414.750 C 802.108 1414.338, 802.419 1414, 802.932 1414 C 803.444 1414, 804.825 1412.650, 806 1411 C 808.328 1407.730, 808.092 1407.051, 805.520 1409.623 M 590.105 1410.085 C 588.787 1410.612, 587.938 1411.271, 588.216 1411.549 C 588.800 1412.133, 594 1410.313, 594 1409.525 C 594 1408.803, 592.922 1408.958, 590.105 1410.085 M 920.324 1410.750 C 919.987 1411.713, 918.344 1413.956, 916.674 1415.735 C 915.003 1417.514, 913.980 1419.314, 914.400 1419.733 C 914.820 1420.153, 915.796 1419.598, 916.568 1418.498 C 917.341 1417.399, 918.879 1415.449, 919.986 1414.165 C 921.094 1412.881, 922 1411.193, 922 1410.415 C 922 1408.455, 921.062 1408.643, 920.324 1410.750 M 571.250 1415.105 C 567.654 1416.885, 565.640 1419, 567.540 1419 C 568.677 1419, 575.894 1414.980, 576.491 1414.014 C 577.444 1412.473, 575.933 1412.787, 571.250 1415.105 M 484.500 1415.715 C 483.400 1415.980, 481.150 1416.785, 479.500 1417.504 C 474.790 1419.556, 467.739 1421.930, 465 1422.386 C 463.625 1422.615, 460.700 1423.702, 458.500 1424.801 C 456.300 1425.901, 452.925 1427.542, 451 1428.449 L 447.500 1430.099 451 1429.488 C 457.304 1428.387, 465.328 1425.750, 475.795 1421.339 C 481.457 1418.952, 486.969 1417, 488.045 1417 C 489.120 1417, 490 1416.550, 490 1416 C 490 1414.971, 488.009 1414.868, 484.500 1415.715 M 911.543 1421.931 C 911.226 1422.443, 911.378 1423.115, 911.879 1423.425 C 912.380 1423.735, 913.048 1423.316, 913.364 1422.494 C 913.986 1420.874, 912.483 1420.409, 911.543 1421.931 M 547.018 1426.740 C 545.349 1427.395, 542.520 1430, 543.478 1430 C 544.455 1430, 550 1427.002, 550 1426.474 C 550 1425.886, 548.955 1425.979, 547.018 1426.740 M 552 1429.038 C 548.975 1430.709, 545.038 1432.740, 543.250 1433.551 C 540.173 1434.948, 538.834 1437, 541 1437 C 541.550 1437, 542 1436.550, 542 1436 C 542 1435.450, 542.519 1435, 543.153 1435 C 544.698 1435, 555.987 1429.569, 558.500 1427.617 C 562.051 1424.859, 557.940 1425.757, 552 1429.038 M 548 1434.951 C 546.075 1435.999, 541.590 1438.281, 538.034 1440.022 C 534.478 1441.764, 530.653 1443.863, 529.534 1444.687 C 527.558 1446.143, 527.571 1446.166, 530 1445.526 C 534.513 1444.336, 553 1435.105, 553 1434.040 C 553 1432.584, 552.021 1432.762, 548 1434.951 M 536.658 1437.449 C 536.286 1438.418, 536.582 1438.714, 537.551 1438.342 C 538.348 1438.036, 539 1437.384, 539 1436.893 C 539 1435.455, 537.265 1435.867, 536.658 1437.449 M 780.652 1443.666 C 779.635 1445.025, 779.037 1446.370, 779.322 1446.655 C 779.607 1446.940, 780.612 1445.995, 781.556 1444.556 C 783.781 1441.160, 783.059 1440.449, 780.652 1443.666 M 774 1452.059 C 774 1452.641, 774.450 1452.840, 775 1452.500 C 775.550 1452.160, 776 1451.684, 776 1451.441 C 776 1451.198, 775.550 1451, 775 1451 C 774.450 1451, 774 1451.477, 774 1452.059 M 657.441 1457.468 C 656.374 1458.276, 656.007 1458.951, 656.628 1458.968 C 657.248 1458.986, 658.315 1458.325, 659 1457.500 C 660.581 1455.595, 659.935 1455.582, 657.441 1457.468 M 853.183 1460.217 C 851.783 1461.617, 851.638 1463, 852.893 1463 C 853.809 1463, 855.318 1459.984, 854.707 1459.374 C 854.520 1459.186, 853.834 1459.566, 853.183 1460.217 M 677.981 1482.523 C 676.924 1483.796, 676.986 1483.943, 678.359 1483.416 C 679.261 1483.069, 680 1482.384, 680 1481.893 C 680 1480.607, 679.421 1480.788, 677.981 1482.523 M 819.658 1492.449 C 819.286 1493.418, 819.582 1493.714, 820.551 1493.342 C 821.348 1493.036, 822 1492.384, 822 1491.893 C 822 1490.455, 820.265 1490.867, 819.658 1492.449 M 634.510 1514.016 C 634.856 1514.575, 635.557 1514.774, 636.069 1514.457 C 637.456 1513.600, 637.198 1513, 635.441 1513 C 634.584 1513, 634.165 1513.457, 634.510 1514.016 M 638.250 1517.220 C 637.013 1517.817, 636 1518.703, 636 1519.188 C 636 1520.214, 639.596 1518.463, 640.503 1516.995 C 641.234 1515.813, 641.151 1515.821, 638.250 1517.220 M 383.015 1525.750 C 383.027 1527.893, 383.245 1528.169, 384 1527 C 385.264 1525.043, 385.264 1523, 384 1523 C 383.450 1523, 383.007 1524.237, 383.015 1525.750 M 467 1632 C 466.175 1632.533, 465.950 1632.969, 466.500 1632.969 C 467.050 1632.969, 468.175 1632.533, 469 1632 C 469.825 1631.467, 470.050 1631.031, 469.500 1631.031 C 468.950 1631.031, 467.825 1631.467, 467 1632 M 452 1636 C 450.667 1636.862, 450.667 1636.963, 452 1636.914 C 452.825 1636.884, 454.400 1636.473, 455.500 1636 L 457.500 1635.141 455.500 1635.086 C 454.400 1635.055, 452.825 1635.467, 452 1636 M 455.016 1640.592 C 448.151 1642.503, 442.158 1644.442, 441.700 1644.900 C 440.807 1645.793, 443.526 1645.725, 446 1644.794 C 446.825 1644.483, 450.425 1643.448, 454 1642.494 C 457.575 1641.540, 462.075 1640.270, 464 1639.672 C 465.925 1639.074, 467.800 1638.566, 468.167 1638.543 C 468.533 1638.519, 469.171 1638.162, 469.583 1637.750 C 470.904 1636.429, 467.785 1637.037, 455.016 1640.592 M 440 1689 C 438.707 1689.835, 438.734 1689.971, 440.191 1689.985 C 441.121 1689.993, 442.160 1689.550, 442.500 1689 C 443.282 1687.734, 441.958 1687.734, 440 1689" stroke="none" fill="black" fill-rule="evenodd"/>
</svg>