<svg xmlns="http://www.w3.org/2000/svg" width="595" height="842" viewBox="0 0 595 842" version="1.1">
	<path d="M 347.852 374.481 C 347.597 374.737, 309.838 375.003, 263.944 375.074 C 218.050 375.144, 178.025 375.569, 175 376.019 C 171.975 376.468, 163.606 377.035, 156.402 377.277 C 142.028 377.761, 134.548 379.698, 133.428 383.226 C 132.301 386.777, 134.213 387.311, 143.665 386.084 C 148.524 385.453, 154.373 384.705, 156.661 384.421 C 159.254 384.099, 161.092 384.339, 161.536 385.059 C 162.072 385.926, 162.433 385.917, 162.986 385.023 C 163.516 384.165, 163.892 384.275, 164.329 385.416 C 164.714 386.418, 164.398 387, 163.469 387 C 161.481 387, 161.602 388.910, 163.640 389.692 C 165.122 390.261, 165.104 390.451, 163.449 391.661 C 162.173 392.594, 162.040 393, 163.009 393 C 163.860 393, 164.031 393.339, 163.450 393.873 C 162.156 395.063, 151 396.070, 151 394.997 C 151 394.525, 152.012 393.944, 153.250 393.706 C 154.487 393.467, 152.800 393.218, 149.500 393.151 C 146.200 393.085, 142.825 393.516, 142 394.110 C 140.726 395.026, 140.759 395.106, 142.218 394.638 C 143.163 394.335, 144.149 394.432, 144.409 394.852 C 144.669 395.273, 142.822 396.168, 140.306 396.841 C 137.790 397.514, 135.988 398.321, 136.302 398.635 C 136.616 398.949, 136.485 400.224, 136.012 401.468 C 135.508 402.793, 135.572 405.547, 136.165 408.115 C 137.707 414.792, 137.881 417.441, 136.821 418.104 C 135.263 419.078, 134.096 425.873, 133.917 435 C 133.825 439.675, 133.371 443.743, 132.908 444.039 C 131.368 445.024, 130.776 458.904, 132.206 460.493 C 136.227 464.961, 136.333 465.176, 134.922 466.048 C 133.376 467.004, 136.069 468.283, 142 469.410 C 145.474 470.070, 145.482 470.064, 143 468.573 C 140.022 466.784, 140.178 466.744, 150.823 466.607 L 159.145 466.500 158.562 469.427 C 158.242 471.037, 157.859 472.475, 157.712 472.622 C 157.564 472.769, 155.656 472.475, 153.472 471.969 C 148.304 470.770, 145 470.762, 145 471.948 C 145 472.469, 147.363 473.031, 150.250 473.198 C 154.704 473.454, 155.545 473.818, 155.800 475.599 C 156.015 477.104, 156.864 477.730, 158.800 477.811 C 162.919 477.982, 171.893 481.671, 169.463 482.194 C 167.466 482.624, 189.424 483.330, 257.500 485.027 C 315.071 486.461, 429.080 487.218, 450.419 486.307 C 465.190 485.677, 469.439 485.194, 469.801 484.104 C 470.176 482.973, 469.283 482.838, 465.099 483.392 C 459.575 484.125, 456.204 483.215, 459.566 481.898 C 460.630 481.481, 454.664 481.109, 446.309 481.070 C 437.663 481.030, 430.860 480.582, 430.519 480.031 C 430.144 479.424, 434.890 479.055, 443.210 479.043 C 458.640 479.023, 461.121 478.821, 460.763 477.618 C 460.618 477.133, 456.450 476.797, 451.500 476.873 L 442.500 477.010 445.500 474.510 C 448.018 472.412, 451.929 471.357, 455.250 471.882 C 455.663 471.947, 456 471.460, 456 470.800 C 456 469.867, 456.267 469.867, 457.200 470.800 C 458.656 472.256, 462.646 472.382, 463.500 471 C 463.840 470.450, 465.066 470, 466.226 470 C 467.385 470, 468.064 469.730, 467.734 469.400 C 466.969 468.636, 460 468.283, 460 469.009 C 460 469.308, 458.203 469.381, 456.006 469.172 C 451.516 468.744, 451.530 467, 456.024 467 C 457.950 467, 459.308 466.294, 460.050 464.906 C 460.801 463.503, 461.819 462.981, 463.135 463.325 C 464.685 463.730, 465.035 463.392, 464.799 461.717 C 464.570 460.089, 465.226 459.386, 467.624 458.690 C 470.058 457.983, 470.997 456.952, 471.874 454.025 C 473.288 449.307, 473.324 445, 471.950 445 C 471.250 445, 471.222 444.426, 471.866 443.276 C 472.488 442.163, 472.481 440.899, 471.846 439.712 C 471.176 438.460, 471.221 437.438, 471.989 436.514 C 473.487 434.708, 472.716 427.066, 470.920 425.929 C 469.714 425.166, 469.726 425.028, 471 425.015 C 471.937 425.006, 472.545 423.967, 472.620 422.250 C 472.685 420.738, 473.268 417.025, 473.914 414 C 475.902 404.697, 475.904 404.704, 471.204 402.332 C 468.842 401.139, 465.467 399.602, 463.704 398.915 L 460.500 397.667 464.500 397.083 C 469.254 396.390, 468.284 395.514, 461.704 394.559 C 457.557 393.958, 456.991 393.603, 457.522 391.932 C 458.271 389.572, 455.847 389.275, 454 391.500 C 453.080 392.608, 450.762 392.979, 445.128 392.921 C 440.932 392.878, 438.063 392.615, 438.750 392.338 C 440.433 391.659, 440.342 390, 438.622 390 C 437.865 390, 436.716 389.363, 436.069 388.584 C 435.136 387.459, 435.266 387.071, 436.697 386.700 C 438.085 386.340, 437.968 386.205, 436.191 386.116 C 434.921 386.052, 434.160 385.550, 434.500 385 C 434.840 384.450, 434.218 384, 433.118 384 C 432.018 384, 430.840 384.450, 430.500 385 C 430.160 385.550, 428.757 386, 427.382 386 C 425.970 386, 425.151 385.565, 425.500 385 C 425.873 384.396, 424.510 384, 422.059 384 C 419.827 384, 418 383.550, 418 383 C 418 382.389, 413.036 381.973, 405.250 381.930 C 398.238 381.891, 391.600 381.473, 390.500 381 C 388.652 380.206, 388.690 380.127, 391 379.965 C 393.085 379.819, 392.836 379.571, 389.500 378.472 L 385.500 377.154 393 377.062 C 404.235 376.923, 404.762 375.394, 393.828 374.656 C 383.013 373.927, 348.538 373.796, 347.852 374.481 M 140.500 476.474 C 147.581 478.172, 153 478.400, 153 477 C 153 476.450, 151.716 476, 150.147 476 C 148.577 476, 144.415 475.783, 140.897 475.518 L 134.500 475.035 140.500 476.474" stroke="none" fill="black" fill-rule="evenodd"/>
</svg>