<svg xmlns="http://www.w3.org/2000/svg" width="1240" height="1753" viewBox="0 0 1240 1753" version="1.1">
	<path d="M 384.524 53.809 C 384.241 54.092, 381.645 54.399, 378.755 54.491 C 369.784 54.777, 360.568 56.209, 359 57.560 C 358.175 58.271, 355.700 59.035, 353.500 59.258 C 350.534 59.559, 351.310 59.753, 356.500 60.010 C 360.350 60.201, 364.288 60.353, 365.250 60.349 C 366.212 60.345, 367 60.714, 367 61.171 C 367 61.627, 363.738 62.020, 359.750 62.044 C 355.762 62.068, 336.075 62.281, 316 62.517 C 292.519 62.794, 280.035 62.605, 281 61.989 C 282.065 61.308, 280.761 60.970, 276.500 60.821 C 273.200 60.705, 269.375 60.544, 268 60.463 C 266.625 60.382, 258.075 59.974, 249 59.555 C 239.925 59.137, 231.150 58.622, 229.500 58.411 C 215.133 56.571, 208.174 56.193, 204.092 57.031 C 201.554 57.551, 189.211 57.750, 176.500 57.475 C 163.850 57.202, 145.065 56.798, 134.755 56.577 C 124.445 56.356, 115.796 56.521, 115.535 56.944 C 115.274 57.366, 112.731 57.488, 109.884 57.215 C 106.106 56.852, 104.901 57.031, 105.426 57.880 C 105.878 58.612, 104.823 59.594, 102.572 60.534 C 98.661 62.169, 98.224 63.111, 100.500 65 C 101.536 65.860, 102 65.898, 102 65.122 C 102 64.505, 102.787 64.007, 103.750 64.015 C 105.246 64.028, 105.282 64.172, 104 65 C 102.734 65.818, 102.787 65.972, 104.342 65.985 C 105.356 65.993, 107.329 66.900, 108.727 68 C 110.126 69.100, 111.884 70, 112.635 70 C 113.922 70, 114.423 71.569, 114.231 75 C 114.170 76.098, 114.530 75.979, 115.574 74.559 C 116.358 73.491, 117 72.029, 117 71.309 C 117 70.589, 117.464 70, 118.031 70 C 119.687 70, 120.331 72.896, 119.026 74.469 C 118.367 75.263, 118.099 76.351, 118.430 76.887 C 118.762 77.423, 118.568 78.149, 118 78.500 C 117.432 78.851, 117.312 79.670, 117.734 80.319 C 118.155 80.969, 118.545 82.625, 118.601 84 C 118.656 85.375, 119.075 87.373, 119.531 88.440 C 120.057 89.672, 119.950 90.517, 119.236 90.755 C 118.618 90.961, 118.339 91.720, 118.616 92.442 C 118.969 93.362, 117.679 93.971, 114.310 94.476 C 111.664 94.873, 109.396 95.041, 109.269 94.849 C 109.142 94.657, 108.324 95.520, 107.451 96.767 C 105.465 99.602, 104 98.802, 104 94.882 C 104 92.846, 103.624 92.114, 102.830 92.605 C 102.061 93.081, 101.864 92.797, 102.255 91.777 C 102.700 90.619, 102.356 90.356, 100.897 90.737 C 99.471 91.110, 99.115 91.788, 99.579 93.249 C 100.001 94.577, 99.842 95.020, 99.107 94.566 C 97.707 93.701, 97.707 94.861, 99.107 98.876 C 100.293 102.281, 99.529 109, 97.955 109 C 97.430 109, 97 107.350, 97 105.333 C 97 103.317, 96.662 102.004, 96.250 102.417 C 95.351 103.316, 95.285 103.727, 95.125 109.500 C 95.056 111.975, 94.550 114, 94 114 C 93.450 114, 93 113.325, 93 112.500 C 93 111.675, 92.550 111, 92 111 C 91.450 111, 90.968 113.588, 90.930 116.750 C 90.833 124.632, 89.204 120.714, 88.954 112 C 88.852 108.425, 88.550 106.353, 88.283 107.395 C 87.917 108.822, 87.598 108.968, 86.991 107.985 C 86.077 106.506, 85.302 112.603, 84.614 126.691 C 84.367 131.746, 83.692 136.696, 83.113 137.691 C 81.852 139.860, 81.971 140.979, 81.492 122.500 C 81.307 115.350, 80.709 108.150, 80.163 106.500 L 79.172 103.500 78.908 106.500 C 78.762 108.150, 78.645 110.270, 78.647 111.210 C 78.649 112.151, 78.054 113.149, 77.325 113.429 C 76.445 113.766, 76 113.107, 76 111.469 C 76 110.111, 75.559 109, 75.019 109 C 74.432 109, 74.285 110.802, 74.653 113.486 C 75.050 116.379, 74.837 118.491, 74.055 119.433 C 72.810 120.934, 73.281 129.025, 75.005 135.750 C 75.464 137.539, 75.453 139, 74.981 139 C 74.136 139, 74.709 152.279, 75.861 159.357 C 75.937 159.828, 76.661 159.960, 77.468 159.651 C 79.792 158.759, 80.277 160.781, 78.028 161.985 C 76.662 162.716, 76 162.732, 76 162.035 C 76 161.466, 75.534 161, 74.965 161 C 74.301 161, 74.361 161.806, 75.132 163.247 C 75.874 164.632, 76.495 165.016, 76.751 164.247 C 77.305 162.585, 78.531 162.674, 80.365 164.508 C 81.299 165.442, 82.109 165.632, 82.495 165.008 C 82.838 164.453, 82.615 164, 82 164 C 81.385 164, 81.157 163.555, 81.493 163.011 C 81.829 162.467, 82.161 159.205, 82.230 155.761 C 82.299 152.318, 82.541 150.586, 82.768 151.912 C 82.996 153.239, 83.708 154.851, 84.352 155.495 C 85.110 156.253, 85.469 160.156, 85.373 166.582 C 85.170 180.132, 85.244 179.703, 83.005 180.289 C 81.316 180.730, 81.102 180.441, 81.613 178.405 C 81.979 176.948, 81.780 176, 81.108 176 C 80.499 176, 79.986 176.787, 79.968 177.750 C 79.939 179.333, 79.797 179.315, 78.468 177.559 C 77.131 175.791, 77 176.226, 77 182.431 C 77 188.374, 76.808 189.086, 75.500 188 C 73.255 186.137, 73.692 187.692, 76.087 190.087 C 77.604 191.604, 77.997 192.874, 77.529 194.742 C 77.118 196.378, 77.359 197.617, 78.192 198.155 C 79.262 198.846, 79.253 199.159, 78.139 199.877 C 77.135 200.525, 76.938 202.162, 77.386 206.127 C 77.719 209.082, 77.635 210.669, 77.199 209.653 C 76.491 208.005, 76.268 207.973, 75.124 209.351 C 74.193 210.472, 74.129 211.389, 74.891 212.698 C 75.467 213.689, 75.953 214.012, 75.970 213.417 C 75.986 212.821, 76.665 212.333, 77.477 212.333 C 78.497 212.333, 78.785 213.010, 78.406 214.518 C 78.105 215.720, 78.613 219.301, 79.536 222.476 C 80.935 227.289, 80.989 228.392, 79.857 229.103 C 78.872 229.723, 78.255 229.141, 77.605 226.978 C 76.580 223.564, 75 223.007, 75 226.059 C 75 227.191, 75.439 227.847, 75.975 227.515 C 76.573 227.146, 76.942 229.542, 76.928 233.706 C 76.894 243.697, 77.887 252.935, 79.254 255.365 C 79.915 256.539, 80.516 258.625, 80.589 260 C 80.881 265.474, 81.058 266, 82.607 266 C 83.491 266, 84.003 265.438, 83.745 264.750 C 83.488 264.063, 83.633 262.600, 84.068 261.500 C 84.713 259.871, 84.872 260.103, 84.930 262.750 C 84.968 264.538, 85.450 266, 86 266 C 86.550 266, 86.993 266.788, 86.985 267.750 C 86.972 269.246, 86.828 269.282, 86 268 C 85.172 266.718, 85.028 266.754, 85.015 268.250 C 85.007 269.212, 85.420 270, 85.933 270 C 86.446 270, 86.758 272.898, 86.627 276.439 C 86.492 280.092, 86.780 282.636, 87.294 282.318 C 87.792 282.011, 87.681 282.728, 87.047 283.912 C 86.362 285.192, 86.101 288.385, 86.402 291.783 C 86.682 294.927, 86.992 301.660, 87.093 306.745 C 87.335 319.017, 88.756 325.297, 91.149 324.671 C 93.349 324.096, 94.100 326.188, 94.154 333.033 C 94.189 337.573, 94.484 338.258, 96.846 339.295 C 98.306 339.935, 99.725 340.714, 100 341.024 C 101.087 342.253, 108.192 346, 109.435 346 C 110.161 346, 111.311 346.670, 111.991 347.489 C 112.671 348.308, 113.626 348.731, 114.113 348.430 C 114.601 348.129, 115 348.610, 115 349.500 C 115 350.390, 115.450 350.840, 116 350.500 C 116.550 350.160, 117 350.359, 117 350.941 C 117 351.523, 117.675 352, 118.500 352 C 119.325 352, 120 351.498, 120 350.883 C 120 350.237, 121.034 349.964, 122.455 350.236 C 124.114 350.553, 125.006 350.216, 125.205 349.197 C 125.400 348.199, 127.022 347.550, 130 347.277 C 132.475 347.051, 134.650 346.446, 134.833 345.933 C 135.272 344.705, 137.741 344.731, 138.167 345.967 C 138.350 346.499, 141.313 347.044, 144.750 347.178 C 148.187 347.312, 151 347.831, 151 348.333 C 151 348.835, 151.684 348.677, 152.520 347.983 C 154.631 346.231, 174.434 346.036, 176.149 347.750 C 177.705 349.305, 181 349.391, 181 347.878 C 181 347.103, 181.465 347.141, 182.502 348.001 C 183.450 348.788, 188.150 349.357, 195.252 349.544 C 206.250 349.833, 218.379 350.538, 230.583 351.596 C 234.869 351.968, 236.667 352.536, 236.667 353.519 C 236.667 354.286, 236.090 355.135, 235.384 355.406 C 234.583 355.714, 234.310 355.355, 234.658 354.449 C 235.385 352.554, 234.256 352.602, 232.310 354.548 C 230.285 356.572, 231.021 357.163, 236.210 357.682 C 238.656 357.926, 239.985 357.753, 239.303 357.279 C 238.642 356.820, 238.452 355.887, 238.878 355.198 C 239.446 354.279, 242.225 354.081, 249.378 354.448 C 254.729 354.723, 259.597 355.251, 260.197 355.622 C 260.796 355.992, 273.260 356.451, 287.893 356.642 C 302.527 356.833, 321.025 357.078, 329 357.187 C 336.975 357.297, 352.725 357.282, 364 357.155 C 390.868 356.853, 388.925 356.742, 386.664 358.455 C 385.478 359.354, 383.564 359.641, 381.258 359.267 C 379.022 358.904, 377.917 359.057, 378.300 359.677 C 378.972 360.764, 412.069 360.502, 418 359.363 C 419.925 358.993, 424.200 358.579, 427.500 358.442 C 438.277 357.996, 445.396 357.105, 451.500 355.439 C 455.712 354.290, 462.864 353.700, 475.500 353.461 C 485.400 353.273, 500.992 352.981, 510.149 352.810 C 519.306 352.640, 526.626 352.218, 526.416 351.874 C 526.207 351.529, 527.715 351.847, 529.768 352.580 C 534.091 354.123, 558.169 354.515, 560.840 353.086 C 561.780 352.583, 574.010 351.872, 588.019 351.507 C 602.028 351.142, 613.639 350.695, 613.820 350.513 C 614.002 350.331, 615.381 350.536, 616.885 350.967 C 618.719 351.493, 620.240 351.298, 621.501 350.376 C 623.672 348.788, 631.450 348.463, 630.500 350 C 630.160 350.550, 630.373 351, 630.972 351 C 631.572 351, 632.322 350.325, 632.638 349.500 C 633.291 347.800, 638 347.425, 638 349.073 C 638 350.290, 645.503 349.982, 670.477 347.740 C 679.264 346.951, 687.196 346.500, 688.103 346.737 C 689.010 346.974, 694.870 346.599, 701.126 345.902 C 718.092 344.014, 721.984 344.016, 722.079 345.916 C 722.146 347.271, 722.241 347.283, 722.729 346 C 723.043 345.175, 723.732 344.218, 724.261 343.873 C 725.509 343.057, 729 343.974, 729 345.117 C 729 346.759, 731.850 346.013, 732.311 344.250 C 732.736 342.623, 732.776 342.627, 732.884 344.298 C 732.988 345.908, 733.869 346.055, 741.332 345.711 C 745.914 345.499, 750.209 344.989, 750.875 344.577 C 751.542 344.165, 752.630 344.270, 753.294 344.811 C 755.161 346.334, 768.256 346.269, 767.747 344.739 C 767.521 344.058, 766.022 343.250, 764.418 342.945 C 761.889 342.464, 761.767 342.301, 763.500 341.723 C 764.600 341.356, 767.300 341.078, 769.500 341.105 C 771.700 341.131, 774.400 340.952, 775.500 340.706 C 776.600 340.460, 777.925 340.506, 778.444 340.808 C 778.963 341.110, 777.388 341.840, 774.944 342.429 C 772.500 343.018, 770.612 343.950, 770.750 344.500 C 770.888 345.050, 771.412 345.500, 771.917 345.500 C 772.421 345.500, 773.155 345.822, 773.548 346.215 C 773.941 346.608, 775.113 346.475, 776.152 345.919 C 777.191 345.362, 778.473 345.174, 779 345.500 C 779.527 345.826, 780.841 345.620, 781.919 345.044 C 783.294 344.307, 784.075 344.313, 784.539 345.062 C 784.981 345.778, 785.743 345.639, 786.849 344.641 C 788.282 343.349, 788.756 343.340, 790.441 344.576 C 793.012 346.462, 793.997 346.372, 794.015 344.250 C 794.028 342.791, 794.184 342.743, 794.954 343.960 C 795.745 345.210, 796.175 345.152, 797.939 343.555 C 799.595 342.057, 800 341.982, 800 343.178 C 800 345.153, 803.180 345.091, 804.718 343.087 C 805.815 341.658, 805.940 341.676, 805.968 343.269 C 805.993 344.672, 806.539 344.903, 808.607 344.384 C 810.333 343.951, 811.511 344.198, 812.092 345.115 C 812.737 346.133, 812.994 345.837, 813.064 344 C 813.121 342.467, 813.381 342.067, 813.734 342.965 C 814.051 343.771, 815.253 345.268, 816.405 346.291 C 817.557 347.315, 818.012 347.913, 817.416 347.620 C 816.807 347.321, 815.298 349.589, 813.974 352.794 C 812.678 355.932, 811.028 359.095, 810.308 359.821 C 809.589 360.548, 809 361.476, 809 361.883 C 809 362.290, 808.080 363.610, 806.956 364.817 C 805.832 366.024, 802.682 370.721, 799.957 375.256 C 797.232 379.790, 793.888 384.733, 792.527 386.240 C 791.165 387.747, 789.074 390.897, 787.880 393.240 C 784.660 399.560, 777.828 410.161, 777.310 409.643 C 776.467 408.801, 772.210 411.597, 769.832 414.554 C 768.530 416.174, 764.629 423.125, 761.163 430 C 754.495 443.230, 752.366 446.699, 751.468 445.801 C 750.993 445.326, 761.888 423.314, 763.992 420.500 C 764.403 419.950, 765.025 417.925, 765.375 416 C 765.725 414.075, 766.681 411.216, 767.500 409.646 C 768.319 408.076, 768.740 406.389, 768.436 405.896 C 767.034 403.628, 765.139 405.601, 761.749 412.859 C 759.449 417.783, 757.037 421.400, 755.289 422.543 C 753.755 423.546, 752.050 424.847, 751.500 425.433 C 749.621 427.438, 745 433.865, 745 434.475 C 745 434.810, 744.102 436.047, 743.005 437.225 C 741.908 438.402, 739.183 442.546, 736.950 446.433 C 734.717 450.320, 732.473 454.175, 731.963 455 C 731.454 455.825, 729.865 458.750, 728.432 461.500 C 724.249 469.532, 723.390 470.950, 721.297 473.287 C 720.207 474.504, 715.392 483.542, 710.598 493.371 C 705.804 503.200, 701.061 512.425, 700.058 513.871 C 696.040 519.665, 687.034 533.836, 683.864 539.354 C 679.889 546.271, 678.455 548.874, 665.604 572.500 C 660.219 582.400, 654.147 593.425, 652.111 597 C 650.075 600.575, 646.955 606.137, 645.178 609.361 C 641.197 616.581, 626.846 640.712, 622.497 647.500 C 620.735 650.250, 617.136 656.550, 614.499 661.500 C 605.826 677.780, 603.796 681.488, 603.006 682.500 C 601.750 684.108, 581.549 722.142, 578.519 728.603 C 575.173 735.738, 575.347 735.532, 573.774 734.231 C 573.073 733.651, 571.375 733.183, 570 733.190 C 568.625 733.198, 565.700 732.678, 563.500 732.035 C 561.300 731.393, 557.925 730.526, 556 730.109 C 554.075 729.691, 551.600 728.866, 550.500 728.274 C 549.400 727.682, 546.250 726.876, 543.500 726.484 C 540.750 726.091, 537.150 725.189, 535.500 724.478 C 533.850 723.767, 529.125 722.443, 525 721.536 C 520.875 720.629, 515.475 719.426, 513 718.863 C 510.525 718.301, 505.125 717.645, 501 717.406 C 496.875 717.167, 492.375 716.531, 491 715.992 C 487.315 714.550, 469.556 710.936, 461.500 709.989 C 452.952 708.985, 420.432 702.339, 417.066 700.909 C 413.702 699.480, 396.712 696.060, 395.794 696.627 C 395.383 696.881, 393.123 696.544, 390.773 695.878 C 388.423 695.212, 379.903 694.547, 371.840 694.400 C 357.767 694.145, 356.706 693.975, 345.340 690.177 C 322.829 682.653, 314.163 680.593, 304.377 680.438 C 292.776 680.255, 291.242 681.061, 288.806 688.614 C 286.066 697.115, 284.344 703.795, 283.423 709.500 C 282.584 714.697, 282.456 716, 282.171 722.250 C 282.057 724.759, 281.526 726, 280.567 726 C 278.686 726, 277.783 729.058, 277.322 737 C 276.443 752.111, 273.613 766.265, 270.774 769.750 C 270.074 770.608, 270.122 771.442, 270.926 772.411 C 271.791 773.453, 271.802 774.004, 270.968 774.520 C 270.346 774.904, 270.099 776.257, 270.417 777.526 C 270.766 778.914, 270.499 780.040, 269.748 780.349 C 268.198 780.989, 273.401 786, 275.615 786 C 276.453 786, 276.817 786.486, 276.438 787.100 C 275.981 787.840, 276.479 787.814, 277.965 787.019 C 280.465 785.681, 280.506 785.701, 281.423 788.687 C 281.991 790.535, 281.739 790.833, 279.797 790.612 C 278.534 790.469, 275.989 789.560, 274.142 788.594 C 269.574 786.204, 265.572 787.157, 266.395 790.439 C 266.803 792.064, 266.491 792.981, 265.387 793.405 C 264.251 793.841, 263.969 794.739, 264.413 796.509 C 264.964 798.705, 264.717 799, 262.328 799 C 259.780 799, 259.731 799.083, 261.502 800.378 C 263.273 801.673, 263.285 801.858, 261.693 803.449 C 260.762 804.381, 260 805.587, 260 806.130 C 260 806.674, 259.590 806.865, 259.089 806.555 C 258.587 806.245, 257.887 807.906, 257.532 810.246 C 256.903 814.392, 256.052 816.884, 253.518 822 C 252.837 823.375, 252.243 826.834, 252.198 829.687 C 252.153 832.540, 251.433 836.196, 250.598 837.810 C 249.763 839.425, 249.302 840.969, 249.574 841.241 C 249.846 841.512, 249.584 843.894, 248.993 846.533 C 248.150 850.292, 248.197 851.516, 249.209 852.184 C 250.222 852.854, 250.124 853.326, 248.750 854.379 C 247.788 855.117, 247 856.477, 247 857.401 C 247 859.848, 243.003 871.925, 240.849 875.985 C 239.832 877.902, 239 880.190, 239 881.069 C 239 881.948, 238.663 883.003, 238.252 883.414 C 236.937 884.729, 237.333 890.914, 238.767 891.464 C 239.515 891.751, 239.820 892.482, 239.445 893.088 C 238.724 894.256, 240.587 898.539, 242.855 900.927 C 244.601 902.764, 243.990 914.770, 242.091 915.944 C 240.260 917.076, 241.507 921.995, 244.817 926.692 C 246.432 928.985, 247.487 931.793, 247.466 933.750 C 247.447 935.538, 247.815 937, 248.283 937 C 248.752 937, 248.828 937.968, 248.452 939.151 C 247.909 940.862, 248.100 941.176, 249.385 940.683 C 250.497 940.256, 251 940.614, 251 941.831 C 251 942.804, 251.372 944.028, 251.826 944.550 C 252.280 945.073, 253.234 947.357, 253.946 949.628 C 255.526 954.669, 252.100 953.571, 298.500 963.903 C 347.668 974.850, 402.073 986.866, 404.500 987.313 C 411.754 988.649, 419 990.492, 419 991.001 C 419 991.688, 409.048 1008.726, 405.567 1014 C 400.958 1020.982, 383.218 1049.682, 378.987 1057 C 376.603 1061.125, 372.318 1068.100, 369.465 1072.500 C 360.623 1086.138, 350.763 1103.800, 344.900 1116.500 C 343.631 1119.250, 339.534 1126.829, 335.796 1133.343 C 332.058 1139.856, 329 1145.764, 329 1146.470 C 329 1147.177, 328.324 1148.316, 327.499 1149.001 C 326.673 1149.686, 322.296 1157.659, 317.772 1166.717 C 312.531 1177.211, 308.590 1183.868, 306.910 1185.064 C 304.771 1186.587, 292.607 1203.845, 283.706 1217.986 C 281.917 1220.828, 281.918 1220.834, 284.206 1220.270 L 286.500 1219.704 284.363 1222.102 C 283.187 1223.421, 281.216 1226.525, 279.982 1229 C 278.748 1231.475, 276.834 1234.784, 275.728 1236.354 C 274.621 1237.923, 270.694 1244.673, 267 1251.354 C 254.866 1273.297, 251.925 1278.425, 250.585 1279.972 C 249.857 1280.812, 249.011 1282.625, 248.706 1284 C 248.401 1285.375, 246.962 1289.650, 245.508 1293.500 C 244.054 1297.350, 242.493 1301.683, 242.037 1303.128 C 240.739 1307.250, 237.806 1313.333, 236.211 1315.213 C 235.412 1316.155, 235.034 1317.646, 235.372 1318.527 C 236.177 1320.625, 232.041 1327.756, 229.658 1328.379 C 228.635 1328.647, 228.055 1329.280, 228.368 1329.786 C 228.681 1330.293, 227.559 1332.881, 225.874 1335.538 C 224.189 1338.195, 222.427 1341.378, 221.958 1342.612 C 221.489 1343.845, 218.910 1348.375, 216.227 1352.677 C 213.544 1356.980, 209.086 1365.259, 206.319 1371.076 C 203.553 1376.892, 198.821 1385.217, 195.804 1389.576 C 192.786 1393.934, 188.144 1401.550, 185.488 1406.500 C 180.052 1416.629, 170.897 1431.293, 158.019 1450.500 C 153.224 1457.650, 148.491 1465.075, 147.500 1467 C 146.509 1468.925, 143.179 1473.836, 140.099 1477.914 C 137.020 1481.991, 132.533 1488.066, 130.128 1491.414 C 127.724 1494.761, 123.376 1500.426, 120.468 1504.002 C 116.765 1508.554, 113.821 1513.804, 110.655 1521.502 C 108.166 1527.551, 104.299 1536.930, 102.061 1542.344 C 99.824 1547.759, 96.448 1554.959, 94.560 1558.344 C 92.673 1561.730, 90.371 1566.743, 89.445 1569.485 C 88.519 1572.226, 85.770 1579.131, 83.336 1584.829 C 80.373 1591.767, 79.228 1595.570, 79.871 1596.344 C 80.398 1596.980, 80.773 1597.725, 80.704 1598 C 80.284 1599.672, 89.739 1608.941, 93.500 1610.544 C 95.150 1611.247, 101.200 1615.013, 106.945 1618.911 C 112.689 1622.810, 117.756 1626, 118.203 1626 C 119.735 1626, 126.936 1631.735, 130.220 1635.569 C 132.024 1637.676, 134.545 1640.322, 135.821 1641.450 C 137.098 1642.577, 139.749 1644.962, 141.711 1646.750 C 143.674 1648.537, 145.672 1650, 146.151 1650 C 146.962 1650, 150.592 1651.543, 160.566 1656.130 C 162.802 1657.159, 165.108 1658, 165.691 1658 C 166.274 1658, 169.170 1659.070, 172.126 1660.377 C 175.082 1661.684, 177.725 1662.777, 178 1662.807 C 179.861 1663.003, 183.804 1665.059, 184.936 1666.423 C 186.662 1668.503, 194.776 1674, 196.120 1674 C 197.679 1674, 206.066 1680.009, 206.657 1681.549 C 207.116 1682.745, 209.979 1684.858, 216.226 1688.611 C 217.243 1689.222, 219.166 1690.747, 220.500 1692 C 223.338 1694.667, 225.602 1696.046, 232.750 1699.464 C 235.637 1700.845, 238 1702.453, 238 1703.038 C 238 1704.410, 244.189 1707, 247.468 1707 C 248.900 1707, 250 1707.574, 250 1708.321 C 250 1709.048, 252.025 1711.403, 254.500 1713.555 C 256.975 1715.707, 259 1718.262, 259 1719.234 C 259 1721.796, 262.767 1725.209, 264.862 1724.544 C 266.179 1724.126, 266.967 1724.867, 267.997 1727.493 C 268.754 1729.422, 269.863 1731, 270.460 1731 C 271.058 1731, 274.237 1733.597, 277.524 1736.771 C 284.367 1743.379, 289.975 1746.457, 293.276 1745.419 C 299.387 1743.496, 313.931 1728.990, 319.404 1719.361 C 325.278 1709.023, 332.018 1696, 331.494 1696 C 331.238 1696, 331.921 1694.538, 333.011 1692.750 C 334.101 1690.963, 334.994 1688.989, 334.996 1688.365 C 334.998 1687.740, 337.980 1682.362, 341.622 1676.413 C 345.265 1670.464, 348.707 1664.271, 349.272 1662.651 C 350.417 1659.366, 367.211 1631.630, 369.950 1628.500 C 372.336 1625.773, 385 1604.466, 385 1603.177 C 385 1602.608, 385.601 1601.542, 386.336 1600.807 C 387.070 1600.073, 389.621 1596.328, 392.003 1592.486 C 394.386 1588.644, 397.111 1584.600, 398.059 1583.500 C 399.006 1582.400, 403.724 1574.975, 408.543 1567 C 413.361 1559.025, 418.473 1551.054, 419.902 1549.287 C 421.331 1547.519, 423.433 1544.819, 424.574 1543.287 C 426.863 1540.212, 441.200 1516.108, 444.968 1509 C 447.480 1504.262, 447.797 1503.598, 450.222 1498 C 452.028 1493.829, 461.640 1473.621, 463.613 1469.846 C 464.376 1468.386, 465 1466.562, 465 1465.792 C 465 1465.022, 466.166 1461.942, 467.591 1458.946 C 469.017 1455.951, 470.547 1452.600, 470.993 1451.500 C 472.189 1448.547, 479.681 1433.044, 481.866 1429 C 483.941 1425.159, 492.707 1406.690, 493.969 1403.500 C 497.371 1394.903, 499.028 1391.632, 503.090 1385.500 C 505.640 1381.650, 509.320 1375.575, 511.268 1372 C 521.522 1353.179, 524.909 1346.814, 527.027 1342.379 C 528.310 1339.696, 530.403 1336.108, 531.679 1334.406 C 532.956 1332.704, 534 1330.979, 534 1330.574 C 534 1330.168, 535.630 1327.061, 537.621 1323.668 C 539.613 1320.276, 545.641 1309.400, 551.017 1299.500 C 556.393 1289.600, 563.426 1276.903, 566.646 1271.285 C 569.866 1265.667, 575.594 1255.646, 579.375 1249.017 C 583.156 1242.388, 586.644 1236.720, 587.125 1236.423 C 587.606 1236.125, 588 1235.273, 588 1234.528 C 588 1232.521, 606.565 1202.884, 611.241 1197.426 C 612.219 1196.285, 615.602 1191.106, 618.759 1185.917 C 625.984 1174.043, 637.630 1157.204, 645.750 1146.888 C 649.188 1142.522, 652 1138.285, 652 1137.474 C 652 1136.664, 652.394 1136, 652.875 1136 C 653.356 1136, 656.030 1132.702, 658.817 1128.671 C 661.604 1124.640, 664.585 1120.760, 665.442 1120.048 C 666.299 1119.337, 667 1118.317, 667 1117.781 C 667 1117.245, 669.388 1113.138, 672.308 1108.653 C 675.227 1104.169, 678.936 1098.025, 680.550 1095 C 682.164 1091.975, 683.759 1089.275, 684.095 1089 C 684.431 1088.725, 687.164 1084.450, 690.169 1079.500 C 701.591 1060.685, 701.352 1061.006, 703.993 1060.882 C 708.410 1060.673, 716.156 1061.887, 717.500 1062.998 C 718.050 1063.452, 721.220 1064.317, 724.544 1064.919 C 727.869 1065.521, 733.825 1066.910, 737.782 1068.007 C 741.738 1069.103, 746.408 1070, 748.161 1070 C 749.913 1070, 755.537 1072.025, 760.659 1074.500 C 765.781 1076.975, 770.450 1079, 771.035 1079 C 771.620 1079, 773.412 1079.679, 775.016 1080.508 C 776.621 1081.338, 779.186 1082.102, 780.717 1082.207 C 782.247 1082.311, 784.431 1082.981, 785.569 1083.695 C 786.707 1084.409, 789.632 1085.390, 792.069 1085.876 C 797.917 1087.042, 806.004 1089.081, 808.500 1090.019 C 811.456 1091.130, 815.142 1091.038, 814.420 1089.871 C 814.078 1089.317, 813.240 1089.078, 812.558 1089.339 C 810.673 1090.063, 808.307 1088.293, 809.527 1087.073 C 810.441 1086.159, 829.902 1089.950, 839.500 1092.911 C 841.150 1093.420, 845.875 1094.377, 850 1095.037 C 858.761 1096.440, 857.593 1096.219, 871 1099.011 C 876.775 1100.214, 883.975 1101.426, 887 1101.704 C 890.025 1101.982, 892.950 1102.573, 893.500 1103.016 C 894.050 1103.460, 897.200 1103.866, 900.500 1103.918 C 903.800 1103.970, 908.300 1104.188, 910.500 1104.402 C 912.700 1104.616, 915.031 1104.838, 915.680 1104.896 C 916.330 1104.953, 917.005 1106.013, 917.180 1107.250 C 917.410 1108.870, 918.281 1109.590, 920.287 1109.820 C 922.804 1110.109, 923.013 1109.901, 922.452 1107.664 C 921.666 1104.532, 923.910 1103.686, 929.500 1105.007 C 931.700 1105.527, 936.050 1105.963, 939.167 1105.976 C 942.283 1105.989, 944.994 1106.481, 945.190 1107.069 C 945.390 1107.671, 948.843 1108.249, 953.080 1108.391 C 957.224 1108.530, 961.151 1108.975, 961.807 1109.381 C 962.463 1109.786, 963.477 1109.823, 964.059 1109.463 C 965.779 1108.401, 975.432 1108.796, 975.815 1109.945 C 976.008 1110.525, 977.179 1111, 978.417 1111 C 979.654 1111, 980.980 1111.313, 981.362 1111.696 C 981.745 1112.078, 982.708 1112.487, 983.503 1112.603 C 984.297 1112.720, 986.759 1113.121, 988.974 1113.496 C 991.303 1113.889, 993 1113.779, 993 1113.236 C 993 1112.718, 995.006 1113.241, 997.458 1114.398 C 1000.009 1115.601, 1001.733 1117.035, 1001.489 1117.750 C 1001.255 1118.438, 1001.701 1119, 1002.482 1119 C 1003.262 1119, 1004.287 1119.691, 1004.760 1120.535 C 1005.500 1121.858, 1006.134 1121.719, 1009.354 1119.535 C 1011.408 1118.141, 1013.631 1116.983, 1014.294 1116.962 C 1014.957 1116.942, 1017.948 1115.704, 1020.940 1114.212 C 1026.063 1111.658, 1026.445 1111.207, 1027.498 1106.464 C 1028.848 1100.390, 1029.660 1098.932, 1031.336 1099.575 C 1032.914 1100.181, 1036.196 1091.026, 1038.892 1078.500 C 1039.958 1073.550, 1041.391 1068.150, 1042.077 1066.500 C 1042.762 1064.850, 1043.312 1062.487, 1043.299 1061.250 C 1043.285 1060.013, 1043.775 1058.993, 1044.387 1058.985 C 1045.037 1058.976, 1044.946 1058.618, 1044.168 1058.125 C 1043.087 1057.440, 1043.061 1056.452, 1044.032 1052.890 C 1044.690 1050.476, 1045.489 1047.825, 1045.807 1047 C 1046.125 1046.175, 1046.476 1045.050, 1046.587 1044.500 C 1047.246 1041.236, 1048.344 1039.095, 1049.116 1039.572 C 1049.623 1039.885, 1049.575 1040.926, 1049.003 1041.995 C 1048.451 1043.025, 1048.007 1044.686, 1048.015 1045.684 C 1048.028 1047.176, 1048.195 1047.241, 1048.949 1046.048 C 1049.455 1045.249, 1049.646 1044.237, 1049.375 1043.798 C 1049.104 1043.359, 1049.323 1043, 1049.862 1043 C 1050.400 1043, 1051.144 1041.537, 1051.514 1039.750 C 1051.884 1037.963, 1053.264 1034.178, 1054.580 1031.341 C 1055.896 1028.504, 1057.736 1022.654, 1058.670 1018.341 C 1059.603 1014.028, 1060.792 1010.213, 1061.312 1009.862 C 1061.831 1009.511, 1061.966 1008.754, 1061.612 1008.181 C 1061.257 1007.607, 1061.425 1006.856, 1061.984 1006.510 C 1063.548 1005.543, 1063.189 1003.286, 1061.359 1002.584 C 1060.067 1002.088, 1059.957 1002.243, 1060.842 1003.309 C 1061.682 1004.322, 1061.631 1005.123, 1060.636 1006.484 C 1058.027 1010.052, 1057.924 1006.120, 1060.469 1000.075 C 1061.861 996.767, 1063 993.324, 1063 992.423 C 1063 991.421, 1063.550 990.997, 1064.417 991.330 C 1066.168 992.002, 1067.130 989.818, 1065.924 987.909 C 1064.323 985.377, 1067.430 970.437, 1069.851 969.023 C 1070.946 968.385, 1071.057 968.051, 1070.183 968.030 C 1069.417 968.013, 1069.066 967.267, 1069.345 966.250 C 1070.700 961.311, 1071.066 956.841, 1070.064 957.461 C 1069.479 957.822, 1069 957.390, 1069 956.500 C 1069 955.610, 1068.592 955.134, 1068.094 955.442 C 1067.596 955.750, 1067.429 957.014, 1067.725 958.251 C 1068.222 960.333, 1068.136 960.381, 1066.565 958.898 C 1064.969 957.392, 1064.969 956.789, 1066.552 948.898 C 1067.479 944.279, 1068.458 939.277, 1068.728 937.782 C 1068.997 936.287, 1069.900 934.498, 1070.735 933.805 C 1072.068 932.699, 1072.167 933.090, 1071.553 937.023 C 1071.169 939.485, 1070.597 942.396, 1070.283 943.492 C 1069.771 945.277, 1069.891 945.336, 1071.432 944.056 C 1072.923 942.819, 1073.274 942.820, 1074.061 944.064 C 1074.631 944.965, 1074.975 945.057, 1074.985 944.309 C 1074.993 943.654, 1074.550 942.840, 1074 942.500 C 1072.447 941.540, 1072.808 938.989, 1074.410 939.604 C 1075.816 940.143, 1076.888 938.073, 1077.491 933.650 C 1077.653 932.468, 1078.466 929.652, 1079.297 927.393 C 1080.129 925.135, 1080.761 921.565, 1080.702 919.461 C 1080.640 917.281, 1081.111 915.463, 1081.797 915.234 C 1082.458 915.014, 1083 913.716, 1083 912.351 C 1083 910.986, 1083.456 909.016, 1084.014 907.974 C 1084.571 906.933, 1085.166 903.475, 1085.335 900.290 C 1085.504 897.106, 1085.996 893.712, 1086.428 892.750 C 1086.916 891.664, 1086.794 891, 1086.107 891 C 1085.498 891, 1085 891.927, 1085 893.059 C 1085 894.191, 1084.593 894.866, 1084.095 894.559 C 1083.598 894.251, 1083.381 892.087, 1083.614 889.750 C 1083.961 886.265, 1083.595 886.893, 1081.581 893.233 C 1080.231 897.486, 1078.906 902.211, 1078.637 903.733 C 1077.217 911.776, 1075.917 917.411, 1075.362 917.924 C 1074.638 918.592, 1075.638 904.108, 1076.465 901.949 C 1077.712 898.692, 1078.623 886.885, 1077.672 886.298 C 1077.126 885.960, 1077.007 886.203, 1077.405 886.845 C 1077.797 887.480, 1077.693 888, 1077.173 888 C 1076.653 888, 1075.925 890.015, 1075.556 892.477 C 1075.187 894.939, 1074.411 897.246, 1073.833 897.603 C 1073.122 898.042, 1072.998 896.835, 1073.450 893.877 C 1073.918 890.812, 1073.817 889.941, 1073.113 890.971 C 1071.442 893.419, 1070.787 891.428, 1071.922 887.344 C 1073.255 882.540, 1073.274 881, 1072 881 C 1071.450 881, 1071 882.098, 1071 883.441 C 1071 884.784, 1070.550 886.160, 1070 886.500 C 1068.448 887.459, 1068.810 882.303, 1070.661 877.093 C 1071.803 873.877, 1072.065 871.493, 1071.501 869.458 C 1070.909 867.325, 1070.565 866.988, 1070.267 868.250 C 1070.039 869.212, 1069.450 870, 1068.958 870 C 1068.466 870, 1068.284 870.575, 1068.553 871.279 C 1068.823 871.982, 1068.374 873.444, 1067.554 874.529 C 1066.264 876.235, 1066.059 876.273, 1066.032 874.814 C 1066.014 873.887, 1064.200 872.116, 1062 870.880 C 1057.477 868.338, 1057.120 866.732, 1059.552 859.876 C 1060.405 857.469, 1061.193 853.512, 1061.302 851.083 C 1061.434 848.130, 1061.997 846.531, 1063 846.257 C 1064.158 845.941, 1064.204 846.056, 1063.203 846.762 C 1062.164 847.494, 1062.224 847.941, 1063.503 849.003 C 1064.871 850.138, 1065.180 850.029, 1065.646 848.247 C 1066.013 846.843, 1067.605 845.747, 1070.531 844.883 C 1072.918 844.178, 1074.649 843.241, 1074.377 842.801 C 1074.105 842.360, 1074.359 842, 1074.941 842 C 1075.523 842, 1076 842.505, 1076 843.122 C 1076 843.885, 1076.493 843.836, 1077.539 842.968 C 1078.900 841.838, 1078.783 841.383, 1076.525 839.026 C 1075.121 837.560, 1074.316 835.989, 1074.736 835.533 C 1075.156 835.077, 1074.443 834.966, 1073.151 835.285 C 1071.859 835.604, 1071.071 835.596, 1071.400 835.267 C 1072.259 834.408, 1062.243 831.047, 1057.508 830.605 C 1055.304 830.399, 1052.150 829.689, 1050.500 829.026 C 1048.850 828.363, 1043.900 827.618, 1039.500 827.371 C 1035.100 827.124, 1027.225 825.974, 1022 824.815 C 1016.775 823.657, 1010.925 822.493, 1009 822.228 C 1007.075 821.963, 1004.375 820.973, 1003 820.028 C 1001.236 818.815, 998.292 818.272, 993 818.185 C 985.487 818.060, 976.896 817.061, 961 814.465 C 948.866 812.483, 946 812.236, 946 813.173 C 946 814.562, 941.923 814.047, 932.500 811.467 C 927.550 810.112, 919 808.102, 913.500 807.001 C 903.455 804.990, 891.012 802.261, 887.750 801.352 C 885.018 800.592, 885.697 798.899, 888.500 799.481 C 889.875 799.766, 892.237 800.207, 893.750 800.459 L 896.500 800.918 893.660 799.622 C 892.098 798.909, 890.523 797.851, 890.160 797.269 C 889.386 796.030, 877.381 791.015, 875.078 790.968 C 874.210 790.951, 872.683 790.317, 871.684 789.560 C 870.107 788.364, 870.042 787.880, 871.184 785.878 C 871.908 784.610, 873.959 781.982, 875.741 780.036 C 877.524 778.091, 878.987 776.131, 878.991 775.680 C 878.996 775.229, 880.449 772.754, 882.220 770.180 C 883.991 767.606, 885.395 765.275, 885.340 765 C 885.285 764.725, 885.636 763.458, 886.120 762.185 C 886.604 760.912, 887 759.477, 887 758.997 C 887 758.516, 888.363 756.633, 890.029 754.812 C 891.695 752.990, 893.984 749.590, 895.116 747.256 C 896.247 744.921, 897.615 742.738, 898.155 742.404 C 898.695 742.071, 898.886 741.145, 898.580 740.347 C 898.273 739.549, 898.359 739.104, 898.770 739.358 C 899.182 739.612, 900.374 738.061, 901.420 735.910 C 902.466 733.760, 903.699 732, 904.161 732 C 904.622 732, 905 731.542, 905 730.983 C 905 730.424, 907.025 726.630, 909.500 722.553 C 911.975 718.476, 914 714.897, 914 714.599 C 914 714.302, 915.308 712.133, 916.907 709.779 C 921.274 703.353, 928.476 690.603, 928.223 689.750 C 928.100 689.337, 928.450 689, 929 689 C 929.550 689, 930 688.325, 930 687.500 C 930 686.675, 930.420 686, 930.933 686 C 931.446 686, 932.172 684.987, 932.548 683.750 C 932.923 682.513, 934.022 680.600, 934.991 679.500 C 935.959 678.400, 937.558 675.700, 938.543 673.500 C 939.529 671.300, 940.878 668.825, 941.541 668 C 942.204 667.175, 943.311 664.700, 944 662.500 C 944.689 660.300, 945.803 657.825, 946.474 657 C 947.146 656.175, 947.991 654.600, 948.350 653.500 L 949.005 651.500 947.446 653.500 C 945.955 655.414, 945.915 655.371, 946.518 652.500 C 946.865 650.850, 947.190 648.957, 947.241 648.294 C 947.292 647.631, 947.720 647.327, 948.193 647.619 C 949.063 648.157, 951.639 642.194, 951.193 640.676 C 951.060 640.222, 951.361 640.105, 951.862 640.415 C 952.973 641.102, 955.244 638.577, 954.334 637.667 C 953.977 637.310, 954.993 635.693, 956.592 634.074 C 960.175 630.448, 962 628.249, 962 627.560 C 962 627.271, 963.800 624.094, 966 620.500 C 968.200 616.906, 970 613.714, 970 613.407 C 970 613.101, 972.025 609.720, 974.500 605.894 C 976.975 602.068, 979 598.365, 979 597.665 C 979 596.964, 980.299 594.343, 981.887 591.839 C 983.475 589.335, 985.080 586.322, 985.455 585.143 C 985.829 583.964, 986.524 583, 987 583 C 987.476 583, 988.171 582.036, 988.545 580.857 C 989.389 578.199, 997.507 565.384, 1000.490 562 C 1001.703 560.625, 1004.319 556.800, 1006.304 553.500 C 1008.290 550.200, 1010.946 546.310, 1012.207 544.855 C 1015.962 540.525, 1022.807 531.031, 1028.325 522.500 C 1031.171 518.100, 1036.016 511.125, 1039.091 507 C 1047.069 496.298, 1064.928 469.508, 1070.452 459.958 C 1073.904 453.988, 1082.295 441.128, 1086.250 435.744 C 1088.313 432.936, 1090 430.045, 1090 429.319 C 1090 428.594, 1090.450 428, 1091 428 C 1091.550 428, 1092 427.511, 1092 426.913 C 1092 426.316, 1093.400 423.878, 1095.110 421.496 C 1096.965 418.913, 1097.912 416.666, 1097.456 415.928 C 1096.929 415.075, 1097.103 414.945, 1098.015 415.510 C 1098.985 416.109, 1099.164 415.868, 1098.681 414.612 C 1098.309 413.643, 1098.431 413.148, 1098.961 413.476 C 1099.477 413.795, 1100.440 413.031, 1101.100 411.778 C 1101.759 410.525, 1102.574 409.275, 1102.909 409 C 1104.003 408.103, 1108.569 400.588, 1110.352 396.750 C 1111.310 394.687, 1112.732 393, 1113.512 393 C 1115.291 393, 1117.336 389.317, 1116.608 387.422 C 1116.292 386.597, 1116.670 386, 1117.508 386 C 1119.002 386, 1121.623 382.635, 1122.182 380 C 1122.357 379.175, 1123.318 377.891, 1124.317 377.146 C 1125.317 376.402, 1125.893 375.164, 1125.599 374.396 C 1125.304 373.628, 1125.499 373, 1126.031 373 C 1126.564 373, 1127 372.347, 1127 371.550 C 1127 370.752, 1127.596 369.740, 1128.325 369.300 C 1129.446 368.624, 1131.102 365.783, 1131.415 364 C 1131.464 363.725, 1132.454 362.150, 1133.617 360.500 C 1134.780 358.850, 1136.524 355.925, 1137.493 354 C 1138.462 352.075, 1141.447 348.310, 1144.127 345.634 C 1146.807 342.958, 1149 340.370, 1149 339.884 C 1149 339.398, 1149.567 339, 1150.261 339 C 1150.955 339, 1152.642 337.597, 1154.011 335.881 C 1155.380 334.166, 1157.513 331.711, 1158.750 330.427 C 1159.988 329.142, 1161 327.620, 1161 327.045 C 1161 326.470, 1161.450 326, 1162 326 C 1162.550 326, 1163 326.450, 1163 327 C 1163 327.550, 1163.480 328, 1164.067 328 C 1164.680 328, 1164.864 327.147, 1164.500 326 C 1164.064 324.627, 1164.320 324, 1165.316 324 C 1166.114 324, 1167.055 323.212, 1167.408 322.250 C 1168.931 318.097, 1171.298 314.897, 1173.809 313.599 C 1178.784 311.026, 1182.750 305, 1179.467 305 C 1178.481 305, 1178.243 303.978, 1178.597 301.250 C 1179.700 292.723, 1180.531 290.645, 1183.498 289.001 C 1185.116 288.104, 1186.746 286.274, 1187.121 284.935 C 1187.595 283.238, 1187.831 283.048, 1187.900 284.309 C 1187.955 285.304, 1188.468 285.829, 1189.041 285.475 C 1189.613 285.121, 1189.808 283.970, 1189.473 282.916 C 1189.010 281.456, 1189.350 281, 1190.901 281 C 1192.300 281, 1192.757 280.531, 1192.362 279.500 C 1192.041 278.666, 1192.334 278, 1193.021 278 C 1193.924 278, 1194.055 276.859, 1193.508 273.750 C 1193.098 271.413, 1192.654 268.825, 1192.522 268 C 1192.391 267.175, 1191.828 265.375, 1191.272 264 C 1190.069 261.024, 1188.798 252.167, 1188.731 246.289 C 1188.704 243.973, 1188.335 242.293, 1187.910 242.555 C 1187.486 242.818, 1186.856 242.575, 1186.510 242.016 C 1186.165 241.457, 1186.636 241, 1187.558 241 C 1188.810 241, 1189.111 240.362, 1188.751 238.476 C 1188.485 237.088, 1188.600 235.747, 1189.005 235.497 C 1189.411 235.246, 1189.549 231.232, 1189.312 226.576 C 1188.968 219.821, 1189.219 217.595, 1190.556 215.556 C 1191.568 214.011, 1191.789 213, 1191.115 213 C 1190.502 213, 1190 212.127, 1190 211.059 C 1190 209.991, 1189.579 208.858, 1189.064 208.539 C 1188.084 207.934, 1188.057 207.724, 1187.863 199.250 C 1187.797 196.362, 1187.350 194, 1186.871 194 C 1186.392 194, 1185.964 193.213, 1185.921 192.250 C 1185.868 191.064, 1185.670 190.932, 1185.308 191.839 C 1184.937 192.770, 1184.410 192.465, 1183.584 190.839 C 1182.497 188.702, 1182.659 188.398, 1185.447 187.326 L 1188.500 186.152 1184.750 186.076 C 1180.966 185.999, 1179.698 184.437, 1182.536 183.348 C 1183.908 182.821, 1183.901 182.498, 1182.469 180.312 C 1181.298 178.525, 1181.157 177.516, 1181.945 176.566 C 1184.451 173.546, 1176.691 172.188, 1167.494 174.037 C 1166.947 174.147, 1165.252 174.184, 1163.727 174.118 C 1160.998 174.002, 1160.980 173.960, 1162.603 171.483 C 1163.599 169.963, 1164.698 169.275, 1165.376 169.747 C 1168.077 171.628, 1181 169.311, 1181 166.946 C 1181 166.500, 1180.027 165.826, 1178.837 165.448 C 1176.921 164.840, 1176.864 164.656, 1178.337 163.831 C 1180.281 162.743, 1180.568 160.031, 1178.750 159.932 C 1178.063 159.895, 1178.520 159.373, 1179.767 158.772 C 1181.127 158.117, 1181.854 157.044, 1181.585 156.090 C 1180.064 150.685, 1178.940 142.622, 1179.347 140.034 C 1179.610 138.371, 1179.392 136.742, 1178.863 136.416 C 1178.279 136.055, 1178.381 135.245, 1179.124 134.350 C 1179.796 133.541, 1180.468 131.218, 1180.618 129.189 C 1180.886 125.539, 1181.684 120.500, 1181.993 120.500 C 1182.627 120.500, 1182.910 115.904, 1182.445 113.166 C 1182.053 110.865, 1181.448 109.998, 1180.489 110.366 C 1179.409 110.780, 1179.145 109.852, 1179.300 106.199 C 1179.410 103.615, 1179.839 101.247, 1180.254 100.938 C 1181.518 99.998, 1181.332 82.885, 1179.990 76.500 C 1179.296 73.200, 1178.622 69.600, 1178.492 68.500 C 1178.362 67.400, 1178.198 66.217, 1178.128 65.871 C 1177.942 64.959, 1172.986 63.062, 1169.500 62.570 C 1167.850 62.337, 1163.575 61.620, 1160 60.976 C 1152.381 59.605, 1129.200 60.265, 1103.500 62.586 C 1090.700 63.741, 1085.018 63.862, 1080.500 63.075 C 1057.047 58.989, 1054.288 58.867, 976 58.462 C 933.925 58.244, 890.725 57.771, 880 57.409 C 868.794 57.032, 850.929 57.245, 838 57.910 C 825.625 58.547, 804.700 59.266, 791.500 59.508 C 778.300 59.751, 752.425 60.253, 734 60.623 C 715.575 60.994, 694.650 61.404, 687.500 61.533 C 680.350 61.663, 661.450 62.080, 645.500 62.461 C 628.502 62.866, 603.671 62.689, 585.500 62.033 C 568.450 61.418, 544.825 60.756, 533 60.563 C 521.175 60.370, 509.925 59.747, 508 59.178 C 503.326 57.798, 494.533 57.178, 470 56.501 C 458.725 56.190, 443.650 55.497, 436.500 54.962 C 421.595 53.845, 385.293 53.040, 384.524 53.809 M 360.813 58.683 C 361.534 58.972, 362.397 58.936, 362.729 58.604 C 363.061 58.272, 362.471 58.036, 361.417 58.079 C 360.252 58.127, 360.015 58.364, 360.813 58.683 M 404.229 62.529 C 404.630 62.948, 410.030 63.502, 416.229 63.761 C 422.428 64.020, 427.256 63.972, 426.957 63.656 C 426.659 63.340, 421.259 62.785, 414.957 62.424 C 408.656 62.062, 403.828 62.109, 404.229 62.529 M 647 70 C 647 70.583, 650.333 71, 655 71 C 659.667 71, 663 70.583, 663 70 C 663 69.417, 659.667 69, 655 69 C 650.333 69, 647 69.417, 647 70 M 99 74.441 C 99 75.298, 99.450 76, 100 76 C 100.550 76, 101 75.577, 101 75.059 C 101 74.541, 100.550 73.840, 100 73.500 C 99.450 73.160, 99 73.584, 99 74.441 M 122 78 C 122 78.550, 122.450 79, 123 79 C 123.550 79, 124 78.550, 124 78 C 124 77.450, 123.550 77, 123 77 C 122.450 77, 122 77.450, 122 78 M 95.079 81.583 C 95.127 82.748, 95.364 82.985, 95.683 82.188 C 95.972 81.466, 95.936 80.603, 95.604 80.271 C 95.272 79.939, 95.036 80.529, 95.079 81.583 M 95.510 85.016 C 95.856 85.575, 96.557 85.774, 97.069 85.457 C 98.456 84.600, 98.198 84, 96.441 84 C 95.584 84, 95.165 84.457, 95.510 85.016 M 124.500 87 C 124.160 87.550, 124.359 88, 124.941 88 C 125.523 88, 126 87.550, 126 87 C 126 86.450, 125.802 86, 125.559 86 C 125.316 86, 124.840 86.450, 124.500 87 M 84.100 90.250 C 84.045 92.313, 84.450 94, 85 94 C 86.145 94, 86.145 92.575, 85 89 C 84.285 86.769, 84.189 86.903, 84.100 90.250 M 88 88.559 C 88 89.416, 88.450 89.840, 89 89.500 C 89.550 89.160, 90 88.459, 90 87.941 C 90 87.423, 89.550 87, 89 87 C 88.450 87, 88 87.702, 88 88.559 M 95 90 C 95 91.650, 95.174 93, 95.387 93 C 95.599 93, 95.971 91.650, 96.213 90 C 96.455 88.350, 96.282 87, 95.827 87 C 95.372 87, 95 88.350, 95 90 M 123.269 89.693 C 124.242 89.947, 125.592 89.930, 126.269 89.656 C 126.946 89.382, 126.150 89.175, 124.500 89.195 C 122.850 89.215, 122.296 89.439, 123.269 89.693 M 79 91 C 79 91.550, 79.477 92, 80.059 92 C 80.641 92, 80.840 91.550, 80.500 91 C 80.160 90.450, 79.684 90, 79.441 90 C 79.198 90, 79 90.450, 79 91 M 391.750 92.662 C 392.438 92.940, 393.563 92.940, 394.250 92.662 C 394.938 92.385, 394.375 92.158, 393 92.158 C 391.625 92.158, 391.063 92.385, 391.750 92.662 M 406.813 92.683 C 407.534 92.972, 408.397 92.936, 408.729 92.604 C 409.061 92.272, 408.471 92.036, 407.417 92.079 C 406.252 92.127, 406.015 92.364, 406.813 92.683 M 358.589 93.856 C 358.298 94.326, 359.172 94.499, 360.530 94.239 C 361.889 93.979, 363 93.594, 363 93.383 C 363 92.610, 359.101 93.027, 358.589 93.856 M 376.813 93.683 C 377.534 93.972, 378.397 93.936, 378.729 93.604 C 379.061 93.272, 378.471 93.036, 377.417 93.079 C 376.252 93.127, 376.015 93.364, 376.813 93.683 M 351.750 94.662 C 352.438 94.940, 353.563 94.940, 354.250 94.662 C 354.938 94.385, 354.375 94.158, 353 94.158 C 351.625 94.158, 351.063 94.385, 351.750 94.662 M 85 96 C 85 96.550, 85.450 97, 86 97 C 86.550 97, 87 96.550, 87 96 C 87 95.450, 86.550 95, 86 95 C 85.450 95, 85 95.450, 85 96 M 1084.813 96.683 C 1085.534 96.972, 1086.397 96.936, 1086.729 96.604 C 1087.061 96.272, 1086.471 96.036, 1085.417 96.079 C 1084.252 96.127, 1084.015 96.364, 1084.813 96.683 M 1168.665 96.660 C 1168.206 97.122, 1166.181 97.548, 1164.165 97.607 C 1155.689 97.854, 1154.427 98.284, 1160 99.028 C 1163.025 99.431, 1167.188 100.099, 1169.250 100.511 C 1171.815 101.025, 1173 100.904, 1173 100.131 C 1173 99.509, 1172.358 99, 1171.573 99 C 1170.789 99, 1170.001 98.285, 1169.823 97.410 C 1169.645 96.536, 1169.124 96.198, 1168.665 96.660 M 96 98.500 C 96 99.325, 96.450 100, 97 100 C 97.550 100, 98 99.325, 98 98.500 C 98 97.675, 97.550 97, 97 97 C 96.450 97, 96 97.675, 96 98.500 M 84.500 99 C 84.840 99.550, 85.316 100, 85.559 100 C 85.802 100, 86 99.550, 86 99 C 86 98.450, 85.523 98, 84.941 98 C 84.359 98, 84.160 98.450, 84.500 99 M 1148.750 98.662 C 1149.438 98.940, 1150.563 98.940, 1151.250 98.662 C 1151.938 98.385, 1151.375 98.158, 1150 98.158 C 1148.625 98.158, 1148.063 98.385, 1148.750 98.662 M 455.750 104.662 C 456.438 104.940, 457.563 104.940, 458.250 104.662 C 458.938 104.385, 458.375 104.158, 457 104.158 C 455.625 104.158, 455.063 104.385, 455.750 104.662 M 409.750 121.662 C 410.438 121.940, 411.563 121.940, 412.250 121.662 C 412.938 121.385, 412.375 121.158, 411 121.158 C 409.625 121.158, 409.063 121.385, 409.750 121.662 M 124.079 125.583 C 124.127 126.748, 124.364 126.985, 124.683 126.188 C 124.972 125.466, 124.936 124.603, 124.604 124.271 C 124.272 123.939, 124.036 124.529, 124.079 125.583 M 836.813 125.683 C 837.534 125.972, 838.397 125.936, 838.729 125.604 C 839.061 125.272, 838.471 125.036, 837.417 125.079 C 836.252 125.127, 836.015 125.364, 836.813 125.683 M 1155.020 127.476 C 1154.231 128.426, 1154.155 129, 1154.819 129 C 1156.027 129, 1157.436 127.103, 1156.743 126.409 C 1156.491 126.158, 1155.716 126.638, 1155.020 127.476 M 1165 129 C 1165 129.550, 1165.423 130, 1165.941 130 C 1166.459 130, 1167.160 129.550, 1167.500 129 C 1167.840 128.450, 1167.416 128, 1166.559 128 C 1165.702 128, 1165 128.450, 1165 129 M 416.500 131 C 416.840 131.550, 417.568 132, 418.118 132 C 418.668 132, 418.840 131.550, 418.500 131 C 418.160 130.450, 417.432 130, 416.882 130 C 416.332 130, 416.160 130.450, 416.500 131 M 392.813 131.683 C 393.534 131.972, 394.397 131.936, 394.729 131.604 C 395.061 131.272, 394.471 131.036, 393.417 131.079 C 392.252 131.127, 392.015 131.364, 392.813 131.683 M 1159.167 134.105 C 1158.444 135.262, 1158.336 135.911, 1158.926 135.546 C 1160.384 134.645, 1160.290 136.310, 1158.800 137.800 C 1158.113 138.487, 1158.033 139, 1158.613 139 C 1159.954 139, 1165.506 133.173, 1164.820 132.486 C 1164.526 132.192, 1163.716 132.638, 1163.020 133.476 C 1162.324 134.314, 1161.305 135, 1160.755 135 C 1160.197 135, 1160.306 134.337, 1161 133.500 C 1161.685 132.675, 1161.848 132, 1161.363 132 C 1160.878 132, 1159.890 132.947, 1159.167 134.105 M 126 135.059 C 126 135.641, 126.450 135.840, 127 135.500 C 127.550 135.160, 128 134.684, 128 134.441 C 128 134.198, 127.550 134, 127 134 C 126.450 134, 126 134.477, 126 135.059 M 504.500 135 C 504.840 135.550, 505.541 136, 506.059 136 C 506.577 136, 507 135.550, 507 135 C 507 134.450, 506.298 134, 505.441 134 C 504.584 134, 504.160 134.450, 504.500 135 M 1167.750 135.662 C 1168.438 135.940, 1169.563 135.940, 1170.250 135.662 C 1170.938 135.385, 1170.375 135.158, 1169 135.158 C 1167.625 135.158, 1167.063 135.385, 1167.750 135.662 M 123.500 137 C 123.840 137.550, 124.316 138, 124.559 138 C 124.802 138, 125 137.550, 125 137 C 125 136.450, 124.523 136, 123.941 136 C 123.359 136, 123.160 136.450, 123.500 137 M 1166.612 141.819 C 1166.333 142.270, 1167.432 142.443, 1169.053 142.206 C 1170.674 141.968, 1172 141.599, 1172 141.387 C 1172 140.625, 1167.107 141.017, 1166.612 141.819 M 110.079 143.583 C 110.127 144.748, 110.364 144.985, 110.683 144.188 C 110.972 143.466, 110.936 142.603, 110.604 142.271 C 110.272 141.939, 110.036 142.529, 110.079 143.583 M 1151.494 146.006 C 1150.496 147.110, 1149.915 148.249, 1150.204 148.537 C 1150.493 148.826, 1151.475 147.923, 1152.388 146.531 C 1154.381 143.490, 1153.983 143.256, 1151.494 146.006 M 110.195 149.500 C 110.215 151.150, 110.439 151.704, 110.693 150.731 C 110.947 149.758, 110.930 148.408, 110.656 147.731 C 110.382 147.054, 110.175 147.850, 110.195 149.500 M 712.750 147.662 C 713.438 147.940, 714.563 147.940, 715.250 147.662 C 715.938 147.385, 715.375 147.158, 714 147.158 C 712.625 147.158, 712.063 147.385, 712.750 147.662 M 1166 148.059 C 1166 148.641, 1166.450 148.840, 1167 148.500 C 1167.550 148.160, 1168 147.684, 1168 147.441 C 1168 147.198, 1167.550 147, 1167 147 C 1166.450 147, 1166 147.477, 1166 148.059 M 78.250 152.496 C 77.563 153.277, 77 154.627, 77 155.497 C 77 157.758, 79.554 155.265, 79.738 152.825 C 79.901 150.668, 79.866 150.661, 78.250 152.496 M 110.252 157.500 C 110.263 159.700, 110.468 160.482, 110.707 159.238 C 110.946 157.994, 110.937 156.194, 110.687 155.238 C 110.437 154.282, 110.241 155.300, 110.252 157.500 M 386.750 154.662 C 387.438 154.940, 388.563 154.940, 389.250 154.662 C 389.938 154.385, 389.375 154.158, 388 154.158 C 386.625 154.158, 386.063 154.385, 386.750 154.662 M 766.269 156.693 C 767.242 156.947, 768.592 156.930, 769.269 156.656 C 769.946 156.382, 769.150 156.175, 767.500 156.195 C 765.850 156.215, 765.296 156.439, 766.269 156.693 M 136.158 159 C 136.158 160.375, 136.385 160.938, 136.662 160.250 C 136.940 159.563, 136.940 158.438, 136.662 157.750 C 136.385 157.063, 136.158 157.625, 136.158 159 M 527.813 157.683 C 528.534 157.972, 529.397 157.936, 529.729 157.604 C 530.061 157.272, 529.471 157.036, 528.417 157.079 C 527.252 157.127, 527.015 157.364, 527.813 157.683 M 736.813 157.683 C 737.534 157.972, 738.397 157.936, 738.729 157.604 C 739.061 157.272, 738.471 157.036, 737.417 157.079 C 736.252 157.127, 736.015 157.364, 736.813 157.683 M 570.750 158.662 C 571.438 158.940, 572.563 158.940, 573.250 158.662 C 573.938 158.385, 573.375 158.158, 572 158.158 C 570.625 158.158, 570.063 158.385, 570.750 158.662 M 577.813 158.683 C 578.534 158.972, 579.397 158.936, 579.729 158.604 C 580.061 158.272, 579.471 158.036, 578.417 158.079 C 577.252 158.127, 577.015 158.364, 577.813 158.683 M 598.813 159.683 C 599.534 159.972, 600.397 159.936, 600.729 159.604 C 601.061 159.272, 600.471 159.036, 599.417 159.079 C 598.252 159.127, 598.015 159.364, 598.813 159.683 M 625.813 159.683 C 626.534 159.972, 627.397 159.936, 627.729 159.604 C 628.061 159.272, 627.471 159.036, 626.417 159.079 C 625.252 159.127, 625.015 159.364, 625.813 159.683 M 634.813 159.683 C 635.534 159.972, 636.397 159.936, 636.729 159.604 C 637.061 159.272, 636.471 159.036, 635.417 159.079 C 634.252 159.127, 634.015 159.364, 634.813 159.683 M 93.609 163.824 C 93.256 164.395, 93.455 165.163, 94.050 165.531 C 95.536 166.449, 96.062 165.719, 95.071 164.114 C 94.539 163.255, 94.024 163.152, 93.609 163.824 M 136.079 165.583 C 136.127 166.748, 136.364 166.985, 136.683 166.188 C 136.972 165.466, 136.936 164.603, 136.604 164.271 C 136.272 163.939, 136.036 164.529, 136.079 165.583 M 1159.710 166 C 1159.423 167.100, 1159.595 168, 1160.094 168 C 1160.592 168, 1161 167.812, 1161 167.582 C 1161 167.352, 1161.273 166.452, 1161.607 165.582 C 1161.941 164.712, 1161.768 164, 1161.224 164 C 1160.679 164, 1159.998 164.900, 1159.710 166 M 92.694 167.639 C 92.342 167.991, 92.299 168.674, 92.597 169.157 C 92.895 169.640, 93.313 173.514, 93.524 177.767 C 94.063 188.600, 94.919 198.500, 96.566 212.925 C 97.346 219.758, 97.814 225.520, 97.606 225.728 C 97.398 225.936, 97.851 228.178, 98.614 230.712 C 99.376 233.245, 100 237.925, 100 241.112 C 100 247.470, 101.566 252.104, 103.468 251.374 C 104.368 251.028, 104.459 249.549, 103.814 245.703 C 103.334 242.841, 102.732 238.280, 102.477 235.568 C 102.060 231.132, 102.155 230.830, 103.425 232.566 C 104.201 233.628, 105.125 234.208, 105.479 233.855 C 106.680 232.653, 106.130 215.522, 104.707 209.806 C 103.711 205.809, 103.603 203.797, 104.344 203.056 C 105.085 202.315, 105.081 202, 104.329 202 C 103.740 202, 102.941 199.188, 102.553 195.750 C 101.494 186.376, 100.877 184, 99.499 184 C 98.702 184, 98.079 181.971, 97.784 178.408 C 97.529 175.332, 96.760 172.470, 96.075 172.046 C 95.390 171.623, 94.868 170.989, 94.915 170.638 C 95.349 167.394, 94.324 166.010, 92.694 167.639 M 79.653 171.218 C 79.338 172.425, 79.286 173.620, 79.540 173.873 C 79.793 174.126, 80 173.782, 80 173.108 C 80 172.434, 80.450 172.160, 81 172.500 C 81.550 172.840, 82 172.443, 82 171.618 C 82 169.149, 80.271 168.854, 79.653 171.218 M 1151.564 170.707 C 1151.022 172.132, 1151.136 172.247, 1152.124 171.267 C 1152.808 170.588, 1153.115 169.781, 1152.807 169.474 C 1152.499 169.166, 1151.940 169.721, 1151.564 170.707 M 136.079 171.583 C 136.127 172.748, 136.364 172.985, 136.683 172.188 C 136.972 171.466, 136.936 170.603, 136.604 170.271 C 136.272 169.939, 136.036 170.529, 136.079 171.583 M 1159.507 170.989 C 1159.157 171.555, 1159.558 171.723, 1160.448 171.382 C 1162.180 170.717, 1162.497 170, 1161.059 170 C 1160.541 170, 1159.843 170.445, 1159.507 170.989 M 1168.813 171.683 C 1169.534 171.972, 1170.397 171.936, 1170.729 171.604 C 1171.061 171.272, 1170.471 171.036, 1169.417 171.079 C 1168.252 171.127, 1168.015 171.364, 1168.813 171.683 M 1175 178.906 C 1175 179.405, 1175.900 179.577, 1177 179.290 C 1178.100 179.002, 1179 178.594, 1179 178.383 C 1179 178.173, 1178.100 178, 1177 178 C 1175.900 178, 1175 178.408, 1175 178.906 M 1161 184.059 C 1161 184.641, 1161.450 184.840, 1162 184.500 C 1162.550 184.160, 1163 183.684, 1163 183.441 C 1163 183.198, 1162.550 183, 1162 183 C 1161.450 183, 1161 183.477, 1161 184.059 M 1167.655 184.829 C 1165.533 187.173, 1165.573 187.571, 1167.927 187.571 C 1168.986 187.571, 1169.664 187.265, 1169.432 186.890 C 1169.201 186.516, 1169.684 185.952, 1170.506 185.636 C 1171.328 185.321, 1172 184.599, 1172 184.031 C 1172 182.375, 1169.453 182.842, 1167.655 184.829 M 1156 185 C 1156 185.550, 1156.477 186, 1157.059 186 C 1157.641 186, 1157.840 185.550, 1157.500 185 C 1157.160 184.450, 1156.684 184, 1156.441 184 C 1156.198 184, 1156 184.450, 1156 185 M 1176.500 185 C 1176.160 185.550, 1176.610 186, 1177.500 186 C 1178.390 186, 1178.840 185.550, 1178.500 185 C 1178.160 184.450, 1177.710 184, 1177.500 184 C 1177.290 184, 1176.840 184.450, 1176.500 185 M 1060.500 187 C 1060.840 187.550, 1061.541 188, 1062.059 188 C 1062.577 188, 1063 187.550, 1063 187 C 1063 186.450, 1062.298 186, 1061.441 186 C 1060.584 186, 1060.160 186.450, 1060.500 187 M 1066.813 186.683 C 1067.534 186.972, 1068.397 186.936, 1068.729 186.604 C 1069.061 186.272, 1068.471 186.036, 1067.417 186.079 C 1066.252 186.127, 1066.015 186.364, 1066.813 186.683 M 84.649 189.233 C 84.328 190.461, 84.501 191.901, 85.033 192.433 C 85.656 193.056, 86 192.261, 86 190.200 C 86 186.460, 85.473 186.083, 84.649 189.233 M 1039.750 187.662 C 1040.438 187.940, 1041.563 187.940, 1042.250 187.662 C 1042.938 187.385, 1042.375 187.158, 1041 187.158 C 1039.625 187.158, 1039.063 187.385, 1039.750 187.662 M 1171.861 188.967 C 1168.789 191.526, 1170.732 191.556, 1174 189 C 1175.375 187.924, 1175.987 187.034, 1175.361 187.022 C 1174.734 187.010, 1173.159 187.885, 1171.861 188.967 M 1177 189.559 C 1177 190.416, 1176.615 190.880, 1176.145 190.590 C 1175.676 190.299, 1173.794 191.398, 1171.965 193.031 C 1170.136 194.664, 1168.972 196, 1169.378 196 C 1170.531 196, 1164.735 206.214, 1162.500 208.121 C 1161.400 209.060, 1160.816 210.145, 1161.202 210.533 C 1161.589 210.921, 1162.637 210.505, 1163.533 209.610 C 1164.429 208.714, 1165.623 208.267, 1166.188 208.616 C 1166.815 209.004, 1166.987 208.522, 1166.630 207.375 C 1166.309 206.344, 1166.478 204.825, 1167.008 204 C 1167.537 203.175, 1167.976 202.855, 1167.985 203.289 C 1168.007 204.413, 1171.284 201.005, 1173.346 197.716 C 1174.312 196.175, 1176.317 194.687, 1177.839 194.382 C 1180.788 193.792, 1182.121 190, 1179.379 190 C 1178.556 190, 1178.160 189.550, 1178.500 189 C 1178.840 188.450, 1178.641 188, 1178.059 188 C 1177.477 188, 1177 188.702, 1177 189.559 M 1172.667 193.667 C 1172.300 194.033, 1172 194.798, 1172 195.367 C 1172 195.993, 1172.466 195.934, 1173.183 195.217 C 1173.834 194.566, 1174.134 193.801, 1173.850 193.517 C 1173.566 193.232, 1173.033 193.300, 1172.667 193.667 M 1149.813 194.683 C 1150.534 194.972, 1151.397 194.936, 1151.729 194.604 C 1152.061 194.272, 1151.471 194.036, 1150.417 194.079 C 1149.252 194.127, 1149.015 194.364, 1149.813 194.683 M 106.786 197.341 C 106.540 198.628, 106.692 200.639, 107.125 201.809 C 107.558 202.979, 107.524 204.176, 107.050 204.469 C 106.097 205.058, 108.057 209.980, 109.250 209.992 C 110.315 210.003, 110.153 203.790, 109.042 202.034 C 108.467 201.125, 108.480 200.127, 109.074 199.410 C 110.091 198.185, 109.322 195, 108.010 195 C 107.583 195, 107.032 196.053, 106.786 197.341 M 1159.624 197.539 C 1158.659 200.053, 1158.943 200.702, 1160.122 198.675 C 1160.706 197.671, 1160.973 196.639, 1160.715 196.382 C 1160.458 196.124, 1159.966 196.645, 1159.624 197.539 M 1162.158 199 C 1160.938 200.650, 1160.373 202, 1160.902 202 C 1161.431 202, 1162.825 200.650, 1164 199 C 1165.175 197.350, 1165.740 196, 1165.256 196 C 1164.772 196, 1163.378 197.350, 1162.158 199 M 74.638 202.500 C 74.322 203.325, 74.499 204, 75.031 204 C 75.564 204, 76 203.325, 76 202.500 C 76 201.675, 75.823 201, 75.607 201 C 75.391 201, 74.955 201.675, 74.638 202.500 M 495.813 201.683 C 496.534 201.972, 497.397 201.936, 497.729 201.604 C 498.061 201.272, 497.471 201.036, 496.417 201.079 C 495.252 201.127, 495.015 201.364, 495.813 201.683 M 1157.575 207.129 C 1155.983 208.676, 1155.921 209, 1157.218 209 C 1158.080 209, 1159.070 208.261, 1159.417 207.357 C 1160.308 205.035, 1159.795 204.971, 1157.575 207.129 M 1164.100 213.600 C 1162.864 215.022, 1162.172 216.481, 1162.563 216.843 C 1162.954 217.204, 1163.477 216.929, 1163.726 216.232 C 1163.975 215.535, 1164.867 214.276, 1165.708 213.435 C 1166.550 212.593, 1167.038 211.704, 1166.793 211.460 C 1166.548 211.215, 1165.336 212.178, 1164.100 213.600 M 1150.930 214.250 C 1150.863 216.397, 1150.820 216.408, 1150 214.500 C 1149.311 212.896, 1149.127 213.242, 1149.070 216.250 C 1149.020 218.948, 1149.421 220, 1150.500 220 C 1151.583 220, 1152 218.889, 1152 216 C 1152 211.843, 1151.053 210.295, 1150.930 214.250 M 1159 213.500 C 1158.315 214.325, 1158.067 215, 1158.449 215 C 1158.831 215, 1159.818 214.325, 1160.643 213.500 C 1161.468 212.675, 1161.716 212, 1161.194 212 C 1160.672 212, 1159.685 212.675, 1159 213.500 M 87.195 216.500 C 87.215 218.150, 87.439 218.704, 87.693 217.731 C 87.947 216.758, 87.930 215.408, 87.656 214.731 C 87.382 214.054, 87.175 214.850, 87.195 216.500 M 75.015 216.750 C 75.007 217.988, 75.450 219, 76 219 C 77.253 219, 77.253 217.939, 76 216 C 75.216 214.787, 75.028 214.931, 75.015 216.750 M 1154.597 222 C 1153.608 224.750, 1152.408 227, 1151.931 227 C 1151.453 227, 1151.346 227.738, 1151.692 228.640 C 1152.164 229.871, 1152.874 229.184, 1154.532 225.890 C 1157.362 220.271, 1158.367 217, 1157.265 217 C 1156.787 217, 1155.586 219.250, 1154.597 222 M 1158.683 221.531 C 1157.133 223.473, 1156.024 225.836, 1156.217 226.781 C 1156.462 227.978, 1157.434 227.038, 1159.418 223.684 C 1161.236 220.611, 1162.615 219.215, 1163.226 219.826 C 1163.838 220.438, 1163.777 221.548, 1163.057 222.893 C 1162.437 224.052, 1162.155 225, 1162.430 225 C 1162.705 225, 1163.427 224.071, 1164.034 222.936 C 1164.854 221.404, 1164.832 220.502, 1163.947 219.436 C 1162.261 217.404, 1161.843 217.570, 1158.683 221.531 M 76.079 221.583 C 76.127 222.748, 76.364 222.985, 76.683 222.188 C 76.972 221.466, 76.936 220.603, 76.604 220.271 C 76.272 219.939, 76.036 220.529, 76.079 221.583 M 379.813 220.683 C 380.534 220.972, 381.397 220.936, 381.729 220.604 C 382.061 220.272, 381.471 220.036, 380.417 220.079 C 379.252 220.127, 379.015 220.364, 379.813 220.683 M 400.813 221.683 C 401.534 221.972, 402.397 221.936, 402.729 221.604 C 403.061 221.272, 402.471 221.036, 401.417 221.079 C 400.252 221.127, 400.015 221.364, 400.813 221.683 M 421.269 222.693 C 422.242 222.947, 423.592 222.930, 424.269 222.656 C 424.946 222.382, 424.150 222.175, 422.500 222.195 C 420.850 222.215, 420.296 222.439, 421.269 222.693 M 428.750 223.662 C 429.438 223.940, 430.563 223.940, 431.250 223.662 C 431.938 223.385, 431.375 223.158, 430 223.158 C 428.625 223.158, 428.063 223.385, 428.750 223.662 M 445.750 224.662 C 446.438 224.940, 447.563 224.940, 448.250 224.662 C 448.938 224.385, 448.375 224.158, 447 224.158 C 445.625 224.158, 445.063 224.385, 445.750 224.662 M 456.750 225.662 C 457.438 225.940, 458.563 225.940, 459.250 225.662 C 459.938 225.385, 459.375 225.158, 458 225.158 C 456.625 225.158, 456.063 225.385, 456.750 225.662 M 855.813 225.683 C 856.534 225.972, 857.397 225.936, 857.729 225.604 C 858.061 225.272, 857.471 225.036, 856.417 225.079 C 855.252 225.127, 855.015 225.364, 855.813 225.683 M 102.204 227.955 C 102.875 229.030, 103.564 229.769, 103.736 229.598 C 104.328 229.005, 102.782 226, 101.885 226 C 101.389 226, 101.532 226.880, 102.204 227.955 M 839.750 226.662 C 840.438 226.940, 841.563 226.940, 842.250 226.662 C 842.938 226.385, 842.375 226.158, 841 226.158 C 839.625 226.158, 839.063 226.385, 839.750 226.662 M 486.269 228.693 C 487.242 228.947, 488.592 228.930, 489.269 228.656 C 489.946 228.382, 489.150 228.175, 487.500 228.195 C 485.850 228.215, 485.296 228.439, 486.269 228.693 M 500.750 229.723 C 502.538 229.945, 505.462 229.945, 507.250 229.723 C 509.038 229.502, 507.575 229.320, 504 229.320 C 500.425 229.320, 498.962 229.502, 500.750 229.723 M 657.813 231.683 C 658.534 231.972, 659.397 231.936, 659.729 231.604 C 660.061 231.272, 659.471 231.036, 658.417 231.079 C 657.252 231.127, 657.015 231.364, 657.813 231.683 M 617.813 232.683 C 618.534 232.972, 619.397 232.936, 619.729 232.604 C 620.061 232.272, 619.471 232.036, 618.417 232.079 C 617.252 232.127, 617.015 232.364, 617.813 232.683 M 104.446 236.087 C 104.077 236.685, 104.275 237.675, 104.887 238.287 C 105.704 239.104, 106 238.815, 106 237.200 C 106 234.785, 105.481 234.413, 104.446 236.087 M 1185 237 C 1185 237.550, 1185.450 238, 1186 238 C 1186.550 238, 1187 237.550, 1187 237 C 1187 236.450, 1186.550 236, 1186 236 C 1185.450 236, 1185 236.450, 1185 237 M 81.732 269.085 C 82.147 270.669, 82.480 270.849, 83.123 269.835 C 84.355 267.891, 84.189 267, 82.594 267 C 81.661 267, 81.371 267.702, 81.732 269.085 M 84.079 274.583 C 84.127 275.748, 84.364 275.985, 84.683 275.188 C 84.972 274.466, 84.936 273.603, 84.604 273.271 C 84.272 272.939, 84.036 273.529, 84.079 274.583 M 84.031 281.500 C 84.031 282.050, 84.467 283.175, 85 284 C 85.533 284.825, 85.969 285.050, 85.969 284.500 C 85.969 283.950, 85.533 282.825, 85 282 C 84.467 281.175, 84.031 280.950, 84.031 281.500 M 252.331 286.664 C 253.079 287.412, 261.059 287.275, 261.833 286.501 C 262.108 286.225, 259.933 286, 257 286 C 254.067 286, 251.965 286.299, 252.331 286.664 M 266 287 C 266 287.550, 266.450 288, 267 288 C 267.550 288, 268 287.550, 268 287 C 268 286.450, 267.550 286, 267 286 C 266.450 286, 266 286.450, 266 287 M 270.802 287.144 C 271.843 288.495, 271.783 289.075, 270.463 290.394 C 268.988 291.869, 269.190 292, 272.929 292 C 275.842 292, 277 292.418, 277 293.469 C 277 294.363, 277.586 294.712, 278.500 294.362 C 279.325 294.045, 280 292.986, 280 292.009 C 280 290.636, 280.705 290.288, 283.105 290.477 C 284.812 290.611, 286.606 291.346, 287.089 292.111 C 287.791 293.218, 287.972 293.145, 287.985 291.750 C 288.003 289.710, 290.014 289.456, 291.947 291.250 C 292.920 292.153, 293.105 292.165, 292.614 291.293 C 292.107 290.391, 293.171 290.233, 296.833 290.667 C 299.969 291.038, 301.979 290.843, 302.424 290.123 C 302.923 289.316, 299.748 289, 291.142 289 C 282.497 289, 279.026 288.652, 278.662 287.750 C 278.259 286.750, 278.142 286.750, 278.079 287.750 C 277.963 289.581, 273.981 289.274, 271.596 287.250 C 269.903 285.813, 269.761 285.794, 270.802 287.144 M 281.813 287.683 C 282.534 287.972, 283.397 287.936, 283.729 287.604 C 284.061 287.272, 283.471 287.036, 282.417 287.079 C 281.252 287.127, 281.015 287.364, 281.813 287.683 M 289.813 287.683 C 290.534 287.972, 291.397 287.936, 291.729 287.604 C 292.061 287.272, 291.471 287.036, 290.417 287.079 C 289.252 287.127, 289.015 287.364, 289.813 287.683 M 831.162 290.543 C 829.487 294.220, 829.807 295.005, 831.618 291.662 C 832.464 290.100, 832.969 288.636, 832.741 288.407 C 832.512 288.179, 831.802 289.140, 831.162 290.543 M 945.079 289.583 C 945.127 290.748, 945.364 290.985, 945.683 290.188 C 945.972 289.466, 945.936 288.603, 945.604 288.271 C 945.272 287.939, 945.036 288.529, 945.079 289.583 M 217 290.346 C 217 291.286, 218.132 291.605, 220.750 291.405 C 222.813 291.247, 225.089 291.091, 225.809 291.059 C 226.529 291.027, 226.840 290.550, 226.500 290 C 225.528 288.427, 217 288.738, 217 290.346 M 230.500 290 C 230.160 290.550, 230.584 291, 231.441 291 C 232.298 291, 233 290.550, 233 290 C 233 289.450, 232.577 289, 232.059 289 C 231.541 289, 230.840 289.450, 230.500 290 M 240.500 290 C 240.160 290.550, 240.835 291, 242 291 C 243.165 291, 243.840 290.550, 243.500 290 C 243.160 289.450, 242.485 289, 242 289 C 241.515 289, 240.840 289.450, 240.500 290 M 252 290.509 C 249.548 291.960, 249.584 291.984, 253.828 291.744 C 256.209 291.610, 258.234 291.050, 258.328 290.500 C 258.604 288.895, 254.720 288.900, 252 290.509 M 260.638 290.500 C 259.996 292.173, 261.089 292.500, 262.550 291.071 C 263.072 290.561, 265.075 289.958, 267 289.731 C 270.047 289.373, 269.899 289.299, 265.857 289.160 C 262.543 289.046, 261.049 289.429, 260.638 290.500 M 306.750 289.706 C 307.988 289.944, 310.012 289.944, 311.250 289.706 C 312.488 289.467, 311.475 289.272, 309 289.272 C 306.525 289.272, 305.512 289.467, 306.750 289.706 M 918.035 291.934 C 916.768 294.301, 916.709 295.298, 917.879 294.575 C 918.762 294.029, 920.138 290, 919.442 290 C 919.237 290, 918.605 290.870, 918.035 291.934 M 283.500 294 C 283.160 294.550, 283.610 295, 284.500 295 C 285.390 295, 285.840 294.550, 285.500 294 C 285.160 293.450, 284.710 293, 284.500 293 C 284.290 293, 283.840 293.450, 283.500 294 M 263.078 296.984 C 260.032 297.274, 257.475 298.048, 257.244 298.750 C 256.769 300.197, 258.600 300.456, 259.461 299.064 C 260.476 297.421, 264 298.313, 264 300.213 C 264 302.099, 265.492 302.631, 266.447 301.085 C 266.758 300.582, 266.447 299.943, 265.756 299.664 C 265.065 299.386, 265.711 299.122, 267.191 299.079 C 270.063 298.995, 271.816 297.456, 269.744 296.838 C 269.060 296.634, 266.060 296.700, 263.078 296.984 M 479.750 296.662 C 480.438 296.940, 481.563 296.940, 482.250 296.662 C 482.938 296.385, 482.375 296.158, 481 296.158 C 479.625 296.158, 479.063 296.385, 479.750 296.662 M 216 298 C 216 298.550, 216.450 299, 217 299 C 217.550 299, 218 298.550, 218 298 C 218 297.450, 217.550 297, 217 297 C 216.450 297, 216 297.450, 216 298 M 220.813 297.683 C 221.534 297.972, 222.397 297.936, 222.729 297.604 C 223.061 297.272, 222.471 297.036, 221.417 297.079 C 220.252 297.127, 220.015 297.364, 220.813 297.683 M 230 298 C 230 298.550, 231.125 299, 232.500 299 C 233.875 299, 235 298.550, 235 298 C 235 297.450, 233.875 297, 232.500 297 C 231.125 297, 230 297.450, 230 298 M 326.813 297.683 C 327.534 297.972, 328.397 297.936, 328.729 297.604 C 329.061 297.272, 328.471 297.036, 327.417 297.079 C 326.252 297.127, 326.015 297.364, 326.813 297.683 M 335.813 297.683 C 336.534 297.972, 337.397 297.936, 337.729 297.604 C 338.061 297.272, 337.471 297.036, 336.417 297.079 C 335.252 297.127, 335.015 297.364, 335.813 297.683 M 298.269 298.693 C 299.242 298.947, 300.592 298.930, 301.269 298.656 C 301.946 298.382, 301.150 298.175, 299.500 298.195 C 297.850 298.215, 297.296 298.439, 298.269 298.693 M 236 300.059 C 236 300.641, 236.450 300.840, 237 300.500 C 237.550 300.160, 238 299.684, 238 299.441 C 238 299.198, 237.550 299, 237 299 C 236.450 299, 236 299.477, 236 300.059 M 254.015 299.691 C 254.024 300.136, 254.467 301.175, 255 302 C 255.835 303.293, 255.971 303.266, 255.985 301.809 C 255.993 300.879, 255.550 299.840, 255 299.500 C 254.450 299.160, 254.007 299.246, 254.015 299.691 M 260.150 299.950 C 260.370 300.610, 260.876 301.116, 261.275 301.075 C 262.471 300.951, 262.239 299.580, 260.950 299.150 C 260.290 298.930, 259.930 299.290, 260.150 299.950 M 270 300.927 C 270 301.436, 269.212 302.059, 268.250 302.311 C 266.870 302.671, 266.953 302.792, 268.643 302.884 C 269.822 302.948, 271.045 302.325, 271.362 301.500 C 271.678 300.675, 271.501 300, 270.969 300 C 270.436 300, 270 300.417, 270 300.927 M 1050.464 307.059 C 1048.440 310.391, 1046.982 313.315, 1047.224 313.558 C 1047.698 314.031, 1053.533 305.380, 1054.580 302.652 C 1055.907 299.195, 1054.004 301.232, 1050.464 307.059 M 285.813 302.683 C 286.534 302.972, 287.397 302.936, 287.729 302.604 C 288.061 302.272, 287.471 302.036, 286.417 302.079 C 285.252 302.127, 285.015 302.364, 285.813 302.683 M 884.624 305.539 C 883.659 308.053, 883.943 308.702, 885.122 306.675 C 885.706 305.671, 885.973 304.639, 885.715 304.382 C 885.458 304.124, 884.966 304.645, 884.624 305.539 M 1041 307.059 C 1041 307.641, 1041.450 307.840, 1042 307.500 C 1042.550 307.160, 1043 306.684, 1043 306.441 C 1043 306.198, 1042.550 306, 1042 306 C 1041.450 306, 1041 306.477, 1041 307.059 M 570.269 307.693 C 571.242 307.947, 572.592 307.930, 573.269 307.656 C 573.946 307.382, 573.150 307.175, 571.500 307.195 C 569.850 307.215, 569.296 307.439, 570.269 307.693 M 593.762 308.707 C 595.006 308.946, 596.806 308.937, 597.762 308.687 C 598.718 308.437, 597.700 308.241, 595.500 308.252 C 593.300 308.263, 592.518 308.468, 593.762 308.707 M 226.813 309.683 C 227.534 309.972, 228.397 309.936, 228.729 309.604 C 229.061 309.272, 228.471 309.036, 227.417 309.079 C 226.252 309.127, 226.015 309.364, 226.813 309.683 M 236 310 C 236 310.550, 236.900 311, 238 311 C 239.100 311, 240 310.550, 240 310 C 240 309.450, 239.100 309, 238 309 C 236.900 309, 236 309.450, 236 310 M 254.439 310.099 C 254.132 310.595, 256.009 311, 258.608 311 C 261.207 311, 263.079 310.745, 262.768 310.434 C 261.771 309.437, 255.016 309.166, 254.439 310.099 M 278 310 C 276.831 310.755, 277.107 310.973, 279.250 310.985 C 280.762 310.993, 282 310.550, 282 310 C 282 308.736, 279.957 308.736, 278 310 M 285 310.006 C 285 310.553, 286.200 311, 287.667 311 C 290.602 311, 290.106 309.792, 286.974 309.314 C 285.888 309.148, 285 309.460, 285 310.006 M 296.762 309.707 C 298.006 309.946, 299.806 309.937, 300.762 309.687 C 301.718 309.437, 300.700 309.241, 298.500 309.252 C 296.300 309.263, 295.518 309.468, 296.762 309.707 M 308.537 310.061 C 309.240 311.197, 312 311.319, 312 310.213 C 312 309.780, 311.090 309.357, 309.978 309.273 C 308.866 309.190, 308.218 309.544, 308.537 310.061 M 247.813 310.683 C 248.534 310.972, 249.397 310.936, 249.729 310.604 C 250.061 310.272, 249.471 310.036, 248.417 310.079 C 247.252 310.127, 247.015 310.364, 247.813 310.683 M 820.667 310.667 C 820.300 311.033, 820 311.798, 820 312.367 C 820 312.993, 820.466 312.934, 821.183 312.217 C 821.834 311.566, 822.134 310.801, 821.850 310.517 C 821.566 310.233, 821.033 310.300, 820.667 310.667 M 959.500 311 C 959.160 311.550, 959.359 312, 959.941 312 C 960.523 312, 961 311.550, 961 311 C 961 310.450, 960.802 310, 960.559 310 C 960.316 310, 959.840 310.450, 959.500 311 M 224.118 312.927 C 223.179 313.507, 223.396 313.870, 224.915 314.268 C 226.062 314.567, 227 314.431, 227 313.965 C 227 312.603, 225.510 312.067, 224.118 312.927 M 231.500 313 C 229.227 313.407, 228.497 313.777, 229.809 313.858 C 231.344 313.952, 231.881 314.419, 231.412 315.250 C 230.848 316.250, 230.976 316.250, 232.053 315.250 C 232.794 314.563, 234.210 314, 235.200 314 C 236.190 314, 237 313.550, 237 313 C 237 312.450, 236.662 312.064, 236.250 312.142 C 235.838 312.220, 233.700 312.606, 231.500 313 M 260 313 C 260 313.550, 260.702 314, 261.559 314 C 262.416 314, 262.840 313.550, 262.500 313 C 262.160 312.450, 261.459 312, 260.941 312 C 260.423 312, 260 312.450, 260 313 M 216.269 313.693 C 217.242 313.947, 218.592 313.930, 219.269 313.656 C 219.946 313.382, 219.150 313.175, 217.500 313.195 C 215.850 313.215, 215.296 313.439, 216.269 313.693 M 818.564 315.707 C 818.022 317.132, 818.136 317.247, 819.124 316.267 C 819.808 315.588, 820.115 314.781, 819.807 314.474 C 819.499 314.166, 818.940 314.721, 818.564 315.707 M 1128.500 320 C 1126.962 322.220, 1125.928 324.261, 1126.203 324.536 C 1126.478 324.811, 1127.962 323.220, 1129.500 321 C 1131.038 318.780, 1132.072 316.739, 1131.797 316.464 C 1131.522 316.189, 1130.038 317.780, 1128.500 320 M 955.459 318.067 C 955.096 318.653, 955.014 319.348, 955.276 319.610 C 955.538 319.872, 956.019 319.392, 956.345 318.543 C 957.021 316.781, 956.445 316.471, 955.459 318.067 M 814.719 322.158 C 813.739 323.870, 813.116 325.449, 813.333 325.667 C 813.945 326.279, 817.167 320.997, 816.813 319.962 C 816.641 319.458, 815.698 320.446, 814.719 322.158 M 871.564 324.293 C 871.940 325.279, 872.499 325.834, 872.807 325.526 C 873.115 325.219, 872.808 324.412, 872.124 323.733 C 871.136 322.753, 871.022 322.868, 871.564 324.293 M 863.980 326.524 C 863.284 327.362, 862.968 328.301, 863.276 328.610 C 863.585 328.919, 864.340 328.233, 864.954 327.086 C 866.264 324.638, 865.778 324.358, 863.980 326.524 M 811.731 328.920 C 811.296 330.583, 811.426 330.974, 812.168 330.232 C 812.750 329.650, 813.028 328.585, 812.788 327.863 C 812.538 327.114, 812.085 327.568, 811.731 328.920 M 1122.314 328.750 C 1121.972 329.712, 1121.466 330.907, 1121.191 331.405 C 1120.916 331.902, 1121.208 331.989, 1121.840 331.599 C 1123.639 330.487, 1125.279 327, 1124.004 327 C 1123.417 327, 1122.657 327.788, 1122.314 328.750 M 780 341 C 780 341.550, 780.423 342, 780.941 342 C 781.459 342, 782.160 341.550, 782.500 341 C 782.840 340.450, 782.416 340, 781.559 340 C 780.702 340, 780 340.450, 780 341 M 1094.079 341.583 C 1094.127 342.748, 1094.364 342.985, 1094.683 342.188 C 1094.972 341.466, 1094.936 340.603, 1094.604 340.271 C 1094.272 339.939, 1094.036 340.529, 1094.079 341.583 M 745.813 342.683 C 746.534 342.972, 747.397 342.936, 747.729 342.604 C 748.061 342.272, 747.471 342.036, 746.417 342.079 C 745.252 342.127, 745.015 342.364, 745.813 342.683 M 751.250 342.716 C 752.763 342.945, 755.237 342.945, 756.750 342.716 C 758.263 342.487, 757.025 342.300, 754 342.300 C 750.975 342.300, 749.737 342.487, 751.250 342.716 M 570.500 348.068 C 568.871 348.713, 569.103 348.872, 571.750 348.930 C 575.130 349.003, 575.895 348.550, 573.750 347.745 C 573.063 347.488, 571.600 347.633, 570.500 348.068 M 582.264 347.718 C 583.784 347.947, 586.034 347.941, 587.264 347.704 C 588.494 347.467, 587.250 347.279, 584.500 347.286 C 581.750 347.294, 580.744 347.488, 582.264 347.718 M 536.269 348.693 C 537.242 348.947, 538.592 348.930, 539.269 348.656 C 539.946 348.382, 539.150 348.175, 537.500 348.195 C 535.850 348.215, 535.296 348.439, 536.269 348.693 M 623.813 350.683 C 624.534 350.972, 625.397 350.936, 625.729 350.604 C 626.061 350.272, 625.471 350.036, 624.417 350.079 C 623.252 350.127, 623.015 350.364, 623.813 350.683 M 226.500 355 C 229.231 356.174, 230 356.174, 230 355 C 230 354.450, 228.762 354.032, 227.250 354.070 C 224.813 354.133, 224.728 354.238, 226.500 355 M 372.813 360.683 C 373.534 360.972, 374.397 360.936, 374.729 360.604 C 375.061 360.272, 374.471 360.036, 373.417 360.079 C 372.252 360.127, 372.015 360.364, 372.813 360.683 M 810.459 367.067 C 810.096 367.653, 810.014 368.348, 810.276 368.610 C 810.538 368.872, 811.019 368.392, 811.345 367.543 C 812.021 365.781, 811.445 365.471, 810.459 367.067 M 1069.564 406.707 C 1069.022 408.132, 1069.136 408.247, 1070.124 407.267 C 1070.808 406.588, 1071.115 405.781, 1070.807 405.474 C 1070.499 405.166, 1069.940 405.721, 1069.564 406.707 M 758.459 444.067 C 758.096 444.653, 758.014 445.348, 758.276 445.610 C 758.538 445.872, 759.019 445.392, 759.345 444.543 C 760.021 442.781, 759.445 442.471, 758.459 444.067 M 811.564 454.707 C 811.022 456.132, 811.136 456.247, 812.124 455.267 C 812.808 454.588, 813.115 453.781, 812.807 453.474 C 812.499 453.166, 811.940 453.721, 811.564 454.707 M 746.144 457.750 C 745.053 460.300, 745.078 460.359, 746.484 458.559 C 747.318 457.491, 748 456.254, 748 455.809 C 748 454.289, 747.322 454.999, 746.144 457.750 M 743.624 462.539 C 742.659 465.053, 742.943 465.702, 744.122 463.675 C 744.706 462.671, 744.973 461.639, 744.715 461.382 C 744.458 461.124, 743.966 461.645, 743.624 462.539 M 806.624 464.539 C 805.659 467.053, 805.943 467.702, 807.122 465.675 C 807.706 464.671, 807.973 463.639, 807.715 463.382 C 807.458 463.124, 806.966 463.645, 806.624 464.539 M 734.144 483.750 C 733.053 486.300, 733.078 486.359, 734.484 484.559 C 735.318 483.491, 736 482.254, 736 481.809 C 736 480.289, 735.322 480.999, 734.144 483.750 M 729.564 493.707 C 729.022 495.132, 729.136 495.247, 730.124 494.267 C 730.808 493.588, 731.115 492.781, 730.807 492.474 C 730.499 492.166, 729.940 492.721, 729.564 493.707 M 787.459 507.067 C 787.096 507.653, 787.014 508.348, 787.276 508.610 C 787.538 508.872, 788.019 508.392, 788.345 507.543 C 789.021 505.781, 788.445 505.471, 787.459 507.067 M 783.459 515.067 C 783.096 515.653, 783.014 516.348, 783.276 516.610 C 783.538 516.872, 784.019 516.392, 784.345 515.543 C 785.021 513.781, 784.445 513.471, 783.459 515.067 M 731.500 617 C 730.647 618.650, 730.174 620, 730.449 620 C 730.724 620, 731.647 618.650, 732.500 617 C 733.353 615.350, 733.826 614, 733.551 614 C 733.276 614, 732.353 615.350, 731.500 617 M 955.564 642.707 C 955.022 644.132, 955.136 644.247, 956.124 643.267 C 956.808 642.588, 957.115 641.781, 956.807 641.474 C 956.499 641.166, 955.940 641.721, 955.564 642.707 M 951.459 648.067 C 951.096 648.653, 951.014 649.348, 951.276 649.610 C 951.538 649.872, 952.019 649.392, 952.345 648.543 C 953.021 646.781, 952.445 646.471, 951.459 648.067 M 766 660.059 C 766 660.641, 766.450 660.840, 767 660.500 C 767.550 660.160, 768 659.684, 768 659.441 C 768 659.198, 767.550 659, 767 659 C 766.450 659, 766 659.477, 766 660.059 M 690.168 687.949 C 689.583 689.627, 689.317 691, 689.577 691 C 690.252 691, 692.139 685.805, 691.644 685.310 C 691.417 685.083, 690.753 686.271, 690.168 687.949 M 683.459 700.067 C 683.096 700.653, 683.014 701.348, 683.276 701.610 C 683.538 701.872, 684.019 701.392, 684.345 700.543 C 685.021 698.781, 684.445 698.471, 683.459 700.067 M 703.459 700.067 C 703.096 700.653, 703.014 701.348, 703.276 701.610 C 703.538 701.872, 704.019 701.392, 704.345 700.543 C 705.021 698.781, 704.445 698.471, 703.459 700.067 M 904 707 C 904 707.550, 904.450 708, 905 708 C 905.550 708, 906 707.550, 906 707 C 906 706.450, 905.550 706, 905 706 C 904.450 706, 904 706.450, 904 707 M 289.139 715.593 C 287.005 716.680, 286.957 716.843, 288.639 717.299 C 290.951 717.926, 301.388 718.055, 300.783 717.449 C 300.539 717.206, 298.351 716.418, 295.920 715.699 C 292.442 714.669, 290.997 714.647, 289.139 715.593 M 672.613 718.183 C 672.902 718.650, 673.557 718.774, 674.069 718.457 C 675.377 717.649, 675.230 717.333, 673.544 717.333 C 672.743 717.333, 672.324 717.716, 672.613 718.183 M 897.564 718.707 C 897.022 720.132, 897.136 720.247, 898.124 719.267 C 898.808 718.588, 899.115 717.781, 898.807 717.474 C 898.499 717.166, 897.940 717.721, 897.564 718.707 M 715.667 718.667 C 715.300 719.033, 715 719.798, 715 720.367 C 715 720.993, 715.466 720.934, 716.183 720.217 C 716.834 719.566, 717.134 718.801, 716.850 718.517 C 716.566 718.232, 716.033 718.300, 715.667 718.667 M 688.500 726 C 688.160 726.550, 688.359 727, 688.941 727 C 689.523 727, 690 726.550, 690 726 C 690 725.450, 689.802 725, 689.559 725 C 689.316 725, 688.840 725.450, 688.500 726 M 889.414 731.765 C 888.258 732.547, 881 745.191, 881 746.423 C 881 747.518, 885.401 741.868, 886.782 739 C 888.491 735.450, 890.337 732.620, 891.500 731.765 C 892.167 731.276, 892.167 731.031, 891.500 731.031 C 890.950 731.031, 890.011 731.361, 889.414 731.765 M 882 737.059 C 882 737.641, 882.450 737.840, 883 737.500 C 883.550 737.160, 884 736.684, 884 736.441 C 884 736.198, 883.550 736, 883 736 C 882.450 736, 882 736.477, 882 737.059 M 679.564 740.707 C 679.022 742.132, 679.136 742.247, 680.124 741.267 C 680.808 740.588, 681.115 739.781, 680.807 739.474 C 680.499 739.166, 679.940 739.721, 679.564 740.707 M 294.031 744.500 C 294.031 745.050, 294.467 746.175, 295 747 C 295.533 747.825, 295.969 748.050, 295.969 747.500 C 295.969 746.950, 295.533 745.825, 295 745 C 294.467 744.175, 294.031 743.950, 294.031 744.500 M 874.250 749.221 C 872.462 752.178, 871 754.984, 871 755.458 C 871 755.931, 869.200 758.702, 867 761.616 C 864.800 764.530, 863 767.338, 863 767.857 C 863 768.375, 861.425 771.139, 859.500 774 C 857.575 776.861, 856 779.424, 856 779.696 C 856 779.968, 855.069 781.498, 853.932 783.096 C 852.315 785.366, 852.183 786, 853.325 786 C 854.129 786, 855.064 785.438, 855.404 784.750 C 855.744 784.063, 856.905 782.150, 857.984 780.500 C 859.064 778.850, 861.066 775.412, 862.434 772.861 C 863.802 770.309, 865.502 767.601, 866.211 766.843 C 866.920 766.085, 868.625 763.222, 870 760.482 C 871.375 757.742, 872.749 755.275, 873.053 755 C 874.783 753.435, 878.102 746.782, 877.825 745.433 C 877.623 744.444, 876.274 745.874, 874.250 749.221 M 286 746 C 286 746.550, 286.450 747, 287 747 C 287.550 747, 288 746.550, 288 746 C 288 745.450, 287.550 745, 287 745 C 286.450 745, 286 745.450, 286 746 M 287 751.329 C 287 751.827, 286.100 751.998, 285 751.710 C 283.900 751.423, 283 751.648, 283 752.210 C 283 752.773, 284.158 753.012, 285.572 752.741 C 287.600 752.354, 288.336 752.753, 289.047 754.625 C 290.281 757.870, 290.663 757.609, 290.575 753.584 C 290.518 750.973, 290.087 750.198, 288.750 750.297 C 287.788 750.368, 287 750.832, 287 751.329 M 281.500 758 C 281.840 758.550, 282.568 759, 283.118 759 C 283.668 759, 283.840 758.550, 283.500 758 C 283.160 757.450, 282.432 757, 281.882 757 C 281.332 757, 281.160 757.450, 281.500 758 M 876.204 765.045 C 875.532 766.120, 875.389 767, 875.885 767 C 876.782 767, 878.328 763.995, 877.736 763.402 C 877.564 763.231, 876.875 763.970, 876.204 765.045 M 872.083 771.583 C 869.260 776.368, 870.094 777.202, 873 772.500 C 874.225 770.517, 875.008 768.674, 874.738 768.405 C 874.468 768.135, 873.274 769.566, 872.083 771.583 M 295 772 C 295 772.550, 295.477 773, 296.059 773 C 296.641 773, 296.840 772.550, 296.500 772 C 296.160 771.450, 295.684 771, 295.441 771 C 295.198 771, 295 771.450, 295 772 M 847 778 C 847 778.550, 847.477 779, 848.059 779 C 848.641 779, 848.840 778.550, 848.500 778 C 848.160 777.450, 847.684 777, 847.441 777 C 847.198 777, 847 777.450, 847 778 M 867 779.500 C 866.282 780.365, 866.185 781, 866.771 781 C 867.329 781, 868.045 780.325, 868.362 779.500 C 868.678 778.675, 868.781 778, 868.591 778 C 868.401 778, 867.685 778.675, 867 779.500 M 283.158 783 C 283.158 784.375, 283.385 784.938, 283.662 784.250 C 283.940 783.563, 283.940 782.438, 283.662 781.750 C 283.385 781.063, 283.158 781.625, 283.158 783 M 282.500 788 C 282.840 788.550, 283.316 789, 283.559 789 C 283.802 789, 284 788.550, 284 788 C 284 787.450, 283.523 787, 282.941 787 C 282.359 787, 282.160 787.450, 282.500 788 M 268.500 793 C 268.840 793.550, 269.568 794, 270.118 794 C 270.668 794, 270.840 793.550, 270.500 793 C 270.160 792.450, 269.432 792, 268.882 792 C 268.332 792, 268.160 792.450, 268.500 793 M 847.500 794 C 847.160 794.550, 847.610 795, 848.500 795 C 849.390 795, 849.840 794.550, 849.500 794 C 849.160 793.450, 848.710 793, 848.500 793 C 848.290 793, 847.840 793.450, 847.500 794 M 282 795 C 282 795.550, 282.450 796, 283 796 C 283.550 796, 284 795.550, 284 795 C 284 794.450, 283.550 794, 283 794 C 282.450 794, 282 794.450, 282 795 M 272 799.378 C 272 800.135, 272.675 801.315, 273.500 802 C 275.090 803.320, 275.452 802.341, 274.393 799.582 C 273.646 797.636, 272 797.495, 272 799.378 M 269.706 803.970 C 270.634 805.054, 271.594 805.739, 271.839 805.494 C 272.435 804.898, 269.987 802, 268.887 802 C 268.410 802, 268.779 802.887, 269.706 803.970 M 264 805.047 C 264 805.616, 264.851 807.300, 265.891 808.790 C 266.932 810.281, 268.568 813.975, 269.528 817 C 271.910 824.506, 273.147 827.027, 274.147 826.409 C 274.612 826.122, 274.383 824.675, 273.637 823.193 C 272.891 821.712, 271.993 818.300, 271.640 815.610 C 271.267 812.757, 270.271 810.153, 269.250 809.358 C 267.616 808.085, 267.627 808.040, 269.430 808.674 C 271.270 809.320, 271.282 809.241, 269.707 806.992 C 268.008 804.566, 264 803.200, 264 805.047 M 274.500 814 C 274.899 815.375, 275.675 816.950, 276.225 817.500 C 276.891 818.167, 276.983 817.667, 276.500 816 C 276.101 814.625, 275.325 813.050, 274.775 812.500 C 274.109 811.833, 274.017 812.333, 274.500 814 M 346.813 817.683 C 347.534 817.972, 348.397 817.936, 348.729 817.604 C 349.061 817.272, 348.471 817.036, 347.417 817.079 C 346.252 817.127, 346.015 817.364, 346.813 817.683 M 365.813 822.683 C 366.534 822.972, 367.397 822.936, 367.729 822.604 C 368.061 822.272, 367.471 822.036, 366.417 822.079 C 365.252 822.127, 365.015 822.364, 365.813 822.683 M 277 824.500 C 277 825.325, 277.436 826, 277.969 826 C 278.501 826, 278.678 825.325, 278.362 824.500 C 278.045 823.675, 277.609 823, 277.393 823 C 277.177 823, 277 823.675, 277 824.500 M 274 829.500 C 274 830.325, 274.436 831, 274.969 831 C 275.501 831, 275.678 830.325, 275.362 829.500 C 275.045 828.675, 274.609 828, 274.393 828 C 274.177 828, 274 828.675, 274 829.500 M 271 830.500 C 271 831.325, 271.436 832, 271.969 832 C 272.501 832, 272.678 831.325, 272.362 830.500 C 272.045 829.675, 271.609 829, 271.393 829 C 271.177 829, 271 829.675, 271 830.500 M 280.232 833.836 C 280.039 837.200, 280.242 838.082, 280.960 837 C 281.507 836.175, 281.691 834.656, 281.370 833.625 C 280.989 832.403, 281.171 831.988, 281.893 832.434 C 283.416 833.375, 283.295 831.489, 281.750 830.208 C 280.785 829.408, 280.439 830.236, 280.232 833.836 M 880 832.393 C 880 832.609, 880.675 833.045, 881.500 833.362 C 882.325 833.678, 883 833.501, 883 832.969 C 883 832.436, 882.325 832, 881.500 832 C 880.675 832, 880 832.177, 880 832.393 M 275 834.301 C 275 837.766, 276.337 845, 276.977 845 C 277.365 845, 277.354 842.862, 276.951 840.250 C 276.549 837.638, 276.403 835.194, 276.626 834.819 C 276.850 834.445, 276.575 833.856, 276.016 833.510 C 275.457 833.165, 275 833.521, 275 834.301 M 272.039 835.635 C 272.018 836.810, 272.657 839.285, 273.461 841.135 C 274.591 843.738, 274.931 844.017, 274.961 842.365 C 274.982 841.190, 274.343 838.715, 273.539 836.865 C 272.409 834.262, 272.069 833.983, 272.039 835.635 M 250.500 849 C 250.840 849.550, 251.316 850, 251.559 850 C 251.802 850, 252 849.550, 252 849 C 252 848.450, 251.523 848, 250.941 848 C 250.359 848, 250.160 848.450, 250.500 849 M 838 852.031 C 838 852.564, 838.675 853, 839.500 853 C 840.325 853, 841 852.823, 841 852.607 C 841 852.391, 840.325 851.955, 839.500 851.638 C 838.675 851.322, 838 851.499, 838 852.031 M 1075.079 852.583 C 1075.127 853.748, 1075.364 853.985, 1075.683 853.188 C 1075.972 852.466, 1075.936 851.603, 1075.604 851.271 C 1075.272 850.939, 1075.036 851.529, 1075.079 852.583 M 1076.162 860.543 C 1074.767 863.605, 1074.735 864, 1075.883 864 C 1076.676 864, 1078.184 858.868, 1077.574 858.246 C 1077.437 858.106, 1076.802 859.140, 1076.162 860.543 M 1053 863.393 C 1053 863.609, 1053.675 864.045, 1054.500 864.362 C 1055.325 864.678, 1056 864.501, 1056 863.969 C 1056 863.436, 1055.325 863, 1054.500 863 C 1053.675 863, 1053 863.177, 1053 863.393 M 1075.158 868 C 1075.158 869.375, 1075.385 869.938, 1075.662 869.250 C 1075.940 868.563, 1075.940 867.438, 1075.662 866.750 C 1075.385 866.063, 1075.158 866.625, 1075.158 868 M 1080 868.500 C 1080 869.325, 1080.177 870, 1080.393 870 C 1080.609 870, 1081.045 869.325, 1081.362 868.500 C 1081.678 867.675, 1081.501 867, 1080.969 867 C 1080.436 867, 1080 867.675, 1080 868.500 M 1082.655 870.368 C 1082.241 871.945, 1082.139 873.472, 1082.428 873.761 C 1083.233 874.566, 1084.217 871.346, 1083.789 869.308 C 1083.508 867.975, 1083.210 868.254, 1082.655 870.368 M 1072 876.500 C 1072 877.325, 1072.436 878, 1072.969 878 C 1073.501 878, 1073.678 877.325, 1073.362 876.500 C 1073.045 875.675, 1072.609 875, 1072.393 875 C 1072.177 875, 1072 875.675, 1072 876.500 M 1052.079 923.583 C 1052.127 924.748, 1052.364 924.985, 1052.683 924.188 C 1052.972 923.466, 1052.936 922.603, 1052.604 922.271 C 1052.272 921.939, 1052.036 922.529, 1052.079 923.583 M 333.788 935.012 C 334.408 939.235, 335.670 939.613, 335.182 935.430 C 334.961 933.543, 334.458 932, 334.064 932 C 333.669 932, 333.545 933.356, 333.788 935.012 M 1074.505 932.992 C 1074.168 933.538, 1074.352 934.775, 1074.915 935.742 C 1075.794 937.250, 1075.944 937.109, 1075.970 934.750 C 1076.001 931.874, 1075.539 931.319, 1074.505 932.992 M 274.578 937.500 C 275.868 942.879, 277.088 944.844, 276.440 940.500 C 276.113 938.300, 275.398 936.050, 274.851 935.500 C 274.194 934.837, 274.101 935.512, 274.578 937.500 M 335.070 940.750 C 335.109 941.163, 335.527 942.400, 336 943.500 C 336.762 945.272, 336.867 945.187, 336.930 942.750 C 336.968 941.237, 336.550 940, 336 940 C 335.450 940, 335.032 940.337, 335.070 940.750 M 1060.667 941.667 C 1060.300 942.033, 1060 942.798, 1060 943.367 C 1060 943.993, 1060.466 943.934, 1061.183 943.217 C 1061.834 942.566, 1062.134 941.801, 1061.850 941.517 C 1061.566 941.232, 1061.033 941.300, 1060.667 941.667 M 434 944 C 434 944.550, 434.477 945, 435.059 945 C 435.641 945, 435.840 944.550, 435.500 944 C 435.160 943.450, 434.684 943, 434.441 943 C 434.198 943, 434 943.450, 434 944 M 1058.250 948.956 C 1057.013 951.123, 1056 953.683, 1056 954.644 C 1056 955.606, 1054.912 957.992, 1053.583 959.946 C 1052.254 961.901, 1050.200 966.875, 1049.019 971 C 1047.838 975.125, 1045.785 981.425, 1044.455 985 C 1041.874 991.941, 1037.641 1010.975, 1038.490 1011.824 C 1038.771 1012.104, 1039 1011.638, 1039 1010.789 C 1039 1009.940, 1039.759 1008.627, 1040.687 1007.872 C 1042.189 1006.651, 1042.285 1006.720, 1041.561 1008.500 C 1041.113 1009.600, 1040.010 1013.200, 1039.110 1016.500 C 1038.210 1019.800, 1037.134 1023.031, 1036.720 1023.681 C 1036.051 1024.731, 1037.648 1026.725, 1038.457 1025.850 C 1039.114 1025.139, 1042 1015.882, 1042 1014.485 C 1042 1013.690, 1043.082 1010.218, 1044.404 1006.770 C 1048.665 995.660, 1061.236 949.190, 1060.362 947.777 C 1060.098 947.350, 1060.359 947, 1060.941 947 C 1061.523 947, 1062 946.550, 1062 946 C 1062 943.912, 1060.418 945.159, 1058.250 948.956 M 278.158 949 C 278.158 950.375, 278.385 950.938, 278.662 950.250 C 278.940 949.563, 278.940 948.438, 278.662 947.750 C 278.385 947.063, 278.158 947.625, 278.158 949 M 326 950 C 326 950.550, 326.477 951, 327.059 951 C 327.641 951, 327.840 950.550, 327.500 950 C 327.160 949.450, 326.684 949, 326.441 949 C 326.198 949, 326 949.450, 326 950 M 809.813 949.683 C 810.534 949.972, 811.397 949.936, 811.729 949.604 C 812.061 949.272, 811.471 949.036, 810.417 949.079 C 809.252 949.127, 809.015 949.364, 809.813 949.683 M 1069 950.441 C 1069 952.668, 1070.566 953.111, 1070.730 950.931 C 1070.810 949.869, 1070.454 949, 1069.938 949 C 1069.422 949, 1069 949.648, 1069 950.441 M 1062.079 969.583 C 1062.127 970.748, 1062.364 970.985, 1062.683 970.188 C 1062.972 969.466, 1062.936 968.603, 1062.604 968.271 C 1062.272 967.939, 1062.036 968.529, 1062.079 969.583 M 1043.604 971.590 C 1043.268 972.465, 1043.218 973.543, 1043.491 973.986 C 1043.765 974.429, 1043.320 976.076, 1042.501 977.646 C 1041.682 979.216, 1041.010 981.388, 1041.006 982.473 C 1041 984.436, 1041.006 984.436, 1042.345 982.473 C 1043.458 980.840, 1046 972.552, 1046 970.557 C 1046 969.319, 1044.173 970.106, 1043.604 971.590 M 1063.731 995.920 C 1063.296 997.583, 1063.426 997.974, 1064.168 997.232 C 1064.750 996.650, 1065.028 995.585, 1064.788 994.863 C 1064.538 994.114, 1064.085 994.568, 1063.731 995.920 M 539 1024.059 C 539 1024.641, 539.450 1024.840, 540 1024.500 C 540.550 1024.160, 541 1023.684, 541 1023.441 C 541 1023.198, 540.550 1023, 540 1023 C 539.450 1023, 539 1023.477, 539 1024.059 M 878.500 1032 C 881.252 1033.183, 882.231 1033.183, 881.500 1032 C 881.160 1031.450, 879.896 1031.032, 878.691 1031.070 C 876.579 1031.138, 876.572 1031.171, 878.500 1032 M 884 1033.868 C 884 1034.525, 885.705 1035, 888.059 1035 C 890.291 1035, 891.866 1035.408, 891.558 1035.907 C 891.249 1036.405, 891.968 1036.560, 893.155 1036.249 C 894.490 1035.900, 895.072 1036.075, 894.680 1036.709 C 894.287 1037.344, 895.175 1037.601, 897.024 1037.386 C 899.619 1037.083, 900 1037.357, 900 1039.520 C 900 1040.884, 900.450 1042, 901 1042 C 901.550 1042, 902 1041.425, 902 1040.723 C 902 1039.316, 911.599 1039.016, 913.767 1040.356 C 914.582 1040.859, 914.782 1040.597, 914.382 1039.552 C 914.054 1038.698, 913.111 1038, 912.286 1038 C 911.364 1038, 911.008 1037.422, 911.362 1036.500 C 911.678 1035.675, 911.532 1035, 911.036 1035 C 910.540 1035, 909.849 1035.900, 909.500 1037 C 908.658 1039.653, 907.003 1039.579, 907.517 1036.911 C 907.851 1035.177, 907.671 1035.028, 906.460 1036.033 C 905.318 1036.981, 904.682 1036.981, 903.544 1036.036 C 902.743 1035.372, 901.618 1035.118, 901.044 1035.473 C 900.470 1035.828, 900 1035.416, 900 1034.559 C 900 1033.702, 899.523 1033, 898.941 1033 C 898.359 1033, 898.149 1033.432, 898.476 1033.961 C 899.075 1034.930, 896.461 1034.796, 888.250 1033.439 C 885.340 1032.958, 884 1033.093, 884 1033.868 M 916.500 1037 C 917.600 1037.473, 919.175 1037.884, 920 1037.914 C 921.333 1037.963, 921.333 1037.862, 920 1037 C 919.175 1036.467, 917.600 1036.055, 916.500 1036.086 L 914.500 1036.141 916.500 1037 M 530 1039 C 530 1039.550, 530.450 1040, 531 1040 C 531.550 1040, 532 1039.550, 532 1039 C 532 1038.450, 531.550 1038, 531 1038 C 530.450 1038, 530 1038.450, 530 1039 M 896 1040 C 896 1040.550, 896.477 1041, 897.059 1041 C 897.641 1041, 897.840 1040.550, 897.500 1040 C 897.160 1039.450, 896.684 1039, 896.441 1039 C 896.198 1039, 896 1039.450, 896 1040 M 916.531 1039.950 C 915.916 1040.944, 918.988 1043, 921.089 1043 C 921.854 1043, 921.634 1042.253, 920.500 1041 C 918.506 1038.797, 917.421 1038.510, 916.531 1039.950 M 888.500 1043 C 888.840 1043.550, 889.316 1044, 889.559 1044 C 889.802 1044, 890 1043.550, 890 1043 C 890 1042.450, 889.523 1042, 888.941 1042 C 888.359 1042, 888.160 1042.450, 888.500 1043 M 927.500 1043 C 927.840 1043.550, 928.316 1044, 928.559 1044 C 928.802 1044, 929 1043.550, 929 1043 C 929 1042.450, 928.523 1042, 927.941 1042 C 927.359 1042, 927.160 1042.450, 927.500 1043 M 935 1044 C 935 1044.550, 935.477 1045, 936.059 1045 C 936.641 1045, 936.840 1044.550, 936.500 1044 C 936.160 1043.450, 935.684 1043, 935.441 1043 C 935.198 1043, 935 1043.450, 935 1044 M 940.232 1045.195 C 940.745 1046.735, 945.814 1048.110, 946.555 1046.910 C 946.866 1046.408, 945.939 1045.547, 944.495 1044.998 C 941.025 1043.679, 939.746 1043.738, 940.232 1045.195 M 906 1046.025 C 906 1046.561, 906.723 1047, 907.607 1047 C 908.609 1047, 909.002 1047.553, 908.651 1048.468 C 908.341 1049.275, 908.518 1050.202, 909.044 1050.527 C 909.570 1050.852, 910 1050.191, 910 1049.059 C 910 1047.927, 910.480 1047, 911.067 1047 C 911.680 1047, 911.864 1047.853, 911.500 1049 C 911.136 1050.147, 911.320 1051, 911.933 1051 C 912.520 1051, 913 1050.523, 913 1049.941 C 913 1049.359, 913.419 1049.141, 913.931 1049.457 C 914.443 1049.774, 915.131 1049.598, 915.459 1049.066 C 915.787 1048.535, 915.256 1047.691, 914.278 1047.191 C 911.394 1045.716, 906 1044.956, 906 1046.025 M 905 1050 C 905.589 1051.100, 906.237 1052, 906.442 1052 C 906.646 1052, 906.577 1051.100, 906.290 1050 C 906.002 1048.900, 905.353 1048, 904.848 1048 C 904.341 1048, 904.409 1048.895, 905 1050 M 916.667 1049.667 C 916.300 1050.033, 916 1050.798, 916 1051.367 C 916 1051.993, 916.466 1051.934, 917.183 1051.217 C 917.834 1050.566, 918.134 1049.801, 917.850 1049.517 C 917.566 1049.233, 917.033 1049.300, 916.667 1049.667 M 932 1051.035 C 932 1052.468, 934.118 1053.282, 935.153 1052.247 C 935.792 1051.608, 935.414 1051.080, 934.066 1050.728 C 932.930 1050.430, 932 1050.569, 932 1051.035 M 872 1051.393 C 872 1052.342, 874.993 1052.820, 875.527 1051.956 C 875.852 1051.430, 875.191 1051, 874.059 1051 C 872.927 1051, 872 1051.177, 872 1051.393 M 881.500 1053 C 881.840 1053.550, 882.879 1053.993, 883.809 1053.985 C 885.266 1053.971, 885.293 1053.835, 884 1053 C 882.042 1051.734, 880.718 1051.734, 881.500 1053 M 929.500 1053 C 929.840 1053.550, 930.316 1054, 930.559 1054 C 930.802 1054, 931 1053.550, 931 1053 C 931 1052.450, 930.523 1052, 929.941 1052 C 929.359 1052, 929.160 1052.450, 929.500 1053 M 944 1054 C 944 1054.550, 944.450 1055, 945 1055 C 945.550 1055, 946 1054.550, 946 1054 C 946 1053.450, 945.550 1053, 945 1053 C 944.450 1053, 944 1053.450, 944 1054 M 889.750 1055.662 C 890.438 1055.940, 891.563 1055.940, 892.250 1055.662 C 892.938 1055.385, 892.375 1055.158, 891 1055.158 C 889.625 1055.158, 889.063 1055.385, 889.750 1055.662 M 895.150 1055.950 C 895.370 1056.610, 895.876 1057.116, 896.275 1057.075 C 897.471 1056.951, 897.239 1055.580, 895.950 1055.150 C 895.290 1054.930, 894.930 1055.290, 895.150 1055.950 M 910.500 1060.011 C 913.070 1061.101, 915.001 1061.204, 914.998 1060.250 C 914.997 1059.838, 913.534 1059.424, 911.748 1059.331 C 909.144 1059.196, 908.896 1059.331, 910.500 1060.011 M 909 1062 C 909 1062.550, 909.477 1063, 910.059 1063 C 910.641 1063, 910.840 1062.550, 910.500 1062 C 910.160 1061.450, 909.684 1061, 909.441 1061 C 909.198 1061, 909 1061.450, 909 1062 M 926 1061.972 C 926 1063.328, 927.777 1064.170, 928.425 1063.121 C 928.735 1062.620, 928.316 1061.952, 927.494 1061.636 C 926.672 1061.321, 926 1061.472, 926 1061.972 M 926.500 1066 C 926.160 1066.550, 926.809 1067, 927.941 1067 C 929.073 1067, 930 1067.436, 930 1067.969 C 930 1068.501, 930.728 1068.658, 931.617 1068.317 C 932.968 1067.798, 932.845 1067.480, 930.867 1066.383 C 927.970 1064.777, 927.293 1064.718, 926.500 1066 M 675.872 1068.750 C 674.629 1070.336, 674.664 1070.371, 676.250 1069.128 C 677.916 1067.821, 678.445 1067, 677.622 1067 C 677.415 1067, 676.627 1067.787, 675.872 1068.750 M 934.500 1068 C 934.160 1068.550, 934.835 1069, 936 1069 C 937.165 1069, 937.840 1068.550, 937.500 1068 C 937.160 1067.450, 936.485 1067, 936 1067 C 935.515 1067, 934.840 1067.450, 934.500 1068 M 940.500 1069 C 940.160 1069.550, 940.610 1070, 941.500 1070 C 942.390 1070, 942.840 1069.550, 942.500 1069 C 942.160 1068.450, 941.710 1068, 941.500 1068 C 941.290 1068, 940.840 1068.450, 940.500 1069 M 488 1092.059 C 488 1092.641, 488.450 1092.840, 489 1092.500 C 489.550 1092.160, 490 1091.684, 490 1091.441 C 490 1091.198, 489.550 1091, 489 1091 C 488.450 1091, 488 1091.477, 488 1092.059 M 481.624 1101.539 C 480.659 1104.053, 480.943 1104.702, 482.122 1102.675 C 482.706 1101.671, 482.973 1100.639, 482.715 1100.382 C 482.458 1100.124, 481.966 1100.645, 481.624 1101.539 M 919 1105.441 C 919 1107.668, 920.566 1108.111, 920.730 1105.931 C 920.810 1104.869, 920.454 1104, 919.938 1104 C 919.422 1104, 919 1104.648, 919 1105.441 M 924 1108 C 924 1108.550, 924.450 1109, 925 1109 C 925.550 1109, 926 1108.550, 926 1108 C 926 1107.450, 925.550 1107, 925 1107 C 924.450 1107, 924 1107.450, 924 1108 M 462.564 1132.293 C 462.940 1133.279, 463.499 1133.834, 463.807 1133.526 C 464.115 1133.219, 463.808 1132.412, 463.124 1131.733 C 462.136 1130.753, 462.022 1130.868, 462.564 1132.293 M 457.584 1137.641 C 457.113 1138.869, 457.275 1139.029, 458.227 1138.276 C 458.927 1137.722, 460.175 1137.019, 461 1136.713 C 462.024 1136.334, 461.820 1136.133, 460.357 1136.079 C 459.178 1136.036, 457.931 1136.739, 457.584 1137.641 M 395 1197.059 C 395 1197.641, 395.450 1197.840, 396 1197.500 C 396.550 1197.160, 397 1196.684, 397 1196.441 C 397 1196.198, 396.550 1196, 396 1196 C 395.450 1196, 395 1196.477, 395 1197.059" stroke="none" fill="black" fill-rule="evenodd"/>
</svg>