<svg xmlns="http://www.w3.org/2000/svg" width="1240" height="1753" viewBox="0 0 1240 1753" version="1.1">
	<path d="M 523 52.174 C 523 52.702, 522.090 52.846, 520.978 52.493 C 519.866 52.140, 516.894 52.639, 514.374 53.601 C 510.886 54.933, 509.370 55.088, 508.024 54.247 C 506.828 53.500, 505.928 53.472, 505.241 54.159 C 504.554 54.846, 504.008 54.822, 503.552 54.084 C 503.097 53.347, 502.287 53.311, 501.051 53.973 C 498.968 55.087, 496.964 55.162, 484.750 54.578 C 479.106 54.308, 476 54.527, 476 55.196 C 476 55.803, 475.066 55.956, 473.750 55.566 C 470.224 54.520, 463.259 54.222, 461.906 55.058 C 461.231 55.475, 459.851 55.300, 458.839 54.668 C 457.438 53.793, 456.523 53.816, 455 54.768 C 453.900 55.455, 453 55.638, 453 55.176 C 453 54.713, 450.438 54.682, 447.307 55.107 C 444.176 55.532, 441.166 55.602, 440.617 55.263 C 438.987 54.256, 426.822 53.903, 427.426 54.881 C 427.730 55.372, 427.421 55.754, 426.739 55.730 C 422.721 55.585, 422 56.082, 422 59 C 422 61.362, 421.562 62, 419.941 62 C 418.798 62, 418.162 61.547, 418.511 60.982 C 418.911 60.335, 417.837 60.125, 415.570 60.406 C 413.607 60.650, 412 60.444, 412 59.949 C 412 59.430, 410.944 59.451, 409.500 60 C 407.788 60.651, 407 60.609, 407 59.868 C 407 59.273, 406.325 59.045, 405.500 59.362 C 404.675 59.678, 404 59.453, 404 58.862 C 404 58.270, 403.268 58.067, 402.373 58.410 C 401.479 58.754, 400.064 58.468, 399.229 57.775 C 397.928 56.695, 397.813 56.835, 398.423 58.758 C 398.857 60.125, 398.718 61, 398.067 61 C 397.480 61, 397 60.362, 397 59.582 C 397 58.543, 395.865 58.228, 392.750 58.404 C 390.413 58.537, 387.971 58.248, 387.325 57.762 C 385.307 56.246, 380.664 56.213, 376.500 57.685 C 374.001 58.569, 369.197 59.028, 363.700 58.911 C 355.427 58.734, 354.734 58.881, 352.145 61.361 C 350.630 62.813, 348.654 64, 347.754 64 C 346.854 64, 345.840 64.450, 345.500 65 C 345.160 65.550, 343.821 66, 342.524 66 C 341.228 66, 339.940 66.563, 339.662 67.250 C 339.290 68.173, 339.137 68.141, 339.079 67.128 C 339.015 66.012, 338.715 65.992, 337.476 67.020 C 336.638 67.716, 335.670 68.003, 335.325 67.658 C 334.980 67.313, 334.203 67.679, 333.599 68.470 C 332.994 69.262, 331.150 70.118, 329.500 70.373 C 327.850 70.627, 326.387 70.929, 326.250 71.043 C 326.113 71.157, 325.548 71.306, 324.997 71.375 C 324.445 71.444, 322.930 72.737, 321.630 74.250 C 320.331 75.762, 318.812 77, 318.256 77 C 317.700 77, 316.676 77.686, 315.980 78.524 C 315.284 79.362, 314.501 79.834, 314.238 79.572 C 313.421 78.754, 311.416 81.356, 310.225 84.779 C 309.597 86.583, 308.825 96.258, 308.509 106.279 C 307.740 130.693, 306.906 141.952, 306.044 139.566 C 305.223 137.294, 304.538 138.191, 303.424 143 C 302.270 147.981, 302.271 147.974, 302.042 148.250 C 301.927 148.387, 301.715 149.400, 301.571 150.500 C 301.427 151.600, 300.806 154.975, 300.191 158 C 299.121 163.265, 298.873 168.524, 297.501 215 C 297.168 226.275, 296.713 238.650, 296.491 242.500 C 294.923 269.570, 294.890 301.804, 296.410 321.424 C 298.522 348.697, 300.299 426.416, 299.013 435.298 C 298.679 437.609, 298.800 441.016, 299.283 442.870 C 299.833 444.984, 299.788 446.612, 299.162 447.238 C 297.950 448.450, 298.878 455.197, 300.405 456.269 C 301.152 456.794, 300.968 457.446, 299.827 458.323 C 298.325 459.476, 298.313 459.708, 299.713 460.591 C 301.120 461.478, 301.113 461.882, 299.636 464.737 C 297.785 468.316, 297.518 471.584, 299 472.500 C 299.550 472.840, 299.993 473.879, 299.985 474.809 C 299.971 476.279, 299.829 476.304, 298.898 475 C 298.063 473.831, 297.965 474.052, 298.453 476 C 299.805 481.396, 299.863 482.033, 298.948 481.468 C 297.784 480.748, 297.784 480.759, 298.936 484.776 C 299.452 486.577, 299.477 487.795, 298.990 487.494 C 298.505 487.194, 298.228 489.667, 298.374 492.988 C 298.521 496.309, 298.391 499.276, 298.087 499.580 C 297.782 499.884, 297.476 509.565, 297.407 521.093 C 297.337 532.621, 297.021 542.313, 296.704 542.629 C 296.387 542.946, 296.548 544.310, 297.061 545.660 C 297.673 547.270, 297.651 547.902, 296.997 547.498 C 295.722 546.710, 295.682 553.406, 296.936 557.776 C 297.517 559.802, 297.517 560.819, 296.936 560.460 C 296.421 560.142, 296 560.835, 296 562 C 296 563.165, 296.368 563.890, 296.818 563.612 C 297.268 563.334, 297.606 565.107, 297.568 567.551 C 297.531 569.996, 297.114 571.997, 296.643 571.998 C 296.172 571.999, 296.059 572.675, 296.393 573.500 C 296.727 574.325, 297.273 575.675, 297.607 576.500 C 298.003 577.478, 297.631 578, 296.540 578 C 295.267 578, 295.034 578.531, 295.567 580.212 C 295.953 581.428, 296.321 584.466, 296.385 586.962 C 296.466 590.157, 296.892 591.419, 297.824 591.225 C 298.564 591.072, 298.850 591.433, 298.473 592.043 C 298.102 592.645, 297.158 592.891, 296.376 592.591 C 295.241 592.155, 295.168 592.445, 296.012 594.023 C 296.594 595.110, 297.505 596, 298.035 596 C 298.566 596, 299 596.505, 299 597.122 C 299 597.853, 298.415 597.765, 297.327 596.872 C 295.836 595.650, 295.716 595.746, 296.233 597.750 C 296.564 599.034, 296.357 600, 295.751 600 C 295.168 600, 295.435 600.823, 296.345 601.829 C 298.171 603.846, 298.569 605.470, 297 604.500 C 296.420 604.141, 295.935 605.271, 295.845 607.191 C 295.282 619.256, 295.346 623.096, 296.121 623.575 C 296.604 623.874, 296.993 625.104, 296.985 626.309 C 296.975 627.694, 296.690 628.060, 296.209 627.305 C 295.792 626.647, 295.411 637.502, 295.364 651.426 C 295.316 665.350, 295.014 677.169, 294.691 677.691 C 293.845 679.060, 294.891 688.291, 296.019 689.419 C 296.624 690.024, 296.455 690.945, 295.559 691.936 C 294.245 693.390, 293.624 717.612, 293.800 760.500 C 293.816 764.350, 293.725 770.650, 293.597 774.500 C 293.470 778.350, 293.749 782.288, 294.218 783.250 C 294.687 784.212, 294.694 785, 294.234 785 C 293.774 785, 293.369 790.063, 293.333 796.250 C 293.076 840.457, 293.116 859.187, 293.509 878 C 293.932 898.291, 294.006 960.200, 293.658 1002.750 C 293.571 1013.337, 293.886 1022, 294.357 1022 C 294.828 1022, 294.873 1022.788, 294.457 1023.750 C 293.472 1026.027, 293.083 1032.050, 293.085 1045 C 293.086 1050.775, 293.012 1059.325, 292.919 1064 C 292.442 1088.159, 294.436 1273.211, 295.511 1304.500 C 295.643 1308.350, 295.835 1320.950, 295.936 1332.500 C 296.037 1344.050, 296.461 1356.319, 296.878 1359.765 C 297.295 1363.211, 297.478 1366.189, 297.284 1366.383 C 297.089 1366.577, 296.897 1383.558, 296.856 1404.118 C 296.778 1442.814, 297.483 1465.939, 298.982 1473.894 C 299.460 1476.427, 299.535 1478.616, 299.149 1478.759 C 298.764 1478.901, 298.749 1482.501, 299.117 1486.759 C 299.485 1491.016, 299.631 1508.675, 299.442 1526 C 299.251 1543.365, 299.537 1560.637, 300.079 1564.492 C 300.619 1568.337, 301.256 1573.962, 301.493 1576.992 C 301.730 1580.021, 302.171 1585.650, 302.472 1589.500 C 302.774 1593.350, 303.720 1601.058, 304.576 1606.629 C 305.818 1614.717, 305.907 1617.996, 305.018 1622.898 C 304.406 1626.275, 304.159 1629.448, 304.469 1629.950 C 304.779 1630.451, 304.575 1631.144, 304.016 1631.490 C 303.457 1631.835, 303 1634.026, 303 1636.359 C 303 1638.692, 302.499 1641.101, 301.887 1641.713 C 300.821 1642.779, 301.177 1666.861, 302.372 1674.500 C 302.630 1676.150, 303.163 1679.851, 303.557 1682.725 C 303.988 1685.870, 304.678 1687.699, 305.291 1687.320 C 305.880 1686.956, 306.002 1687.187, 305.581 1687.869 C 304.498 1689.622, 308.731 1701.406, 311.284 1703.747 C 312.503 1704.864, 315.975 1706.976, 319 1708.442 C 322.025 1709.907, 325.625 1711.711, 327 1712.451 C 328.470 1713.242, 336.297 1714.282, 346 1714.976 C 355.075 1715.624, 367.225 1716.489, 373 1716.897 C 378.775 1717.305, 384.625 1718.123, 386 1718.715 C 392.086 1721.336, 397.331 1722.147, 409.336 1722.324 C 419.946 1722.481, 422.380 1722.799, 423.374 1724.158 C 425.086 1726.500, 433.058 1727.132, 449.797 1726.252 C 457.660 1725.838, 470.035 1725.815, 477.297 1726.199 C 484.558 1726.584, 491.625 1726.886, 493 1726.870 C 494.375 1726.855, 513.837 1726.766, 536.249 1726.671 C 571.878 1726.522, 576.997 1726.688, 576.999 1728 C 577 1729.710, 578.634 1729.728, 623.500 1728.513 C 638.350 1728.111, 656.125 1727.637, 663 1727.461 C 669.875 1727.284, 680.675 1726.889, 687 1726.582 C 697.240 1726.087, 710.308 1725.924, 734 1725.999 C 750.378 1726.050, 767.643 1725.163, 770.247 1724.135 C 775.884 1721.912, 799.631 1719.642, 818 1719.571 C 834.755 1719.507, 836.926 1719.697, 841.022 1721.593 C 845.990 1723.892, 850.556 1723.536, 847.597 1721.080 C 844.915 1718.855, 845.783 1718.001, 850.750 1717.979 C 853.362 1717.968, 860.900 1717.307, 867.500 1716.510 C 874.100 1715.714, 879.864 1715.048, 880.309 1715.031 C 880.754 1715.014, 880.797 1714.480, 880.405 1713.845 C 879.951 1713.112, 880.131 1712.963, 880.899 1713.437 C 881.612 1713.878, 882.947 1713.225, 884.162 1711.842 C 885.293 1710.554, 886.542 1709.587, 886.938 1709.693 C 887.333 1709.799, 887.585 1708.899, 887.497 1707.693 C 887.357 1705.775, 886.571 1705.414, 881.228 1704.817 C 877.868 1704.442, 874.080 1703.549, 872.810 1702.833 C 870.568 1701.570, 870.617 1701.513, 874.500 1700.908 C 878.462 1700.290, 878.451 1700.282, 873.309 1700.142 C 870.454 1700.064, 867.880 1699.615, 867.590 1699.145 C 867.299 1698.675, 868.159 1697.260, 869.500 1696 C 870.841 1694.740, 871.694 1693.314, 871.395 1692.830 C 871.096 1692.346, 871.222 1692.053, 871.676 1692.177 C 873.059 1692.558, 880.368 1688.340, 882.642 1685.847 C 885.439 1682.783, 886.629 1677.455, 884.684 1676.709 C 882.903 1676.025, 881.909 1671.258, 883.395 1670.524 C 884.003 1670.224, 883.375 1670.244, 882 1670.570 C 874.997 1672.227, 874.484 1672.268, 875.601 1671.074 C 876.206 1670.427, 877.669 1669.825, 878.851 1669.736 C 880.510 1669.611, 881 1668.924, 881 1666.720 C 881 1663.787, 880.639 1663.722, 875.351 1665.705 C 874.719 1665.942, 873.905 1665.656, 873.542 1665.068 C 873.179 1664.481, 873.584 1664, 874.441 1664 C 875.298 1664, 876 1663.599, 876 1663.108 C 876 1662.618, 877.125 1661.934, 878.500 1661.589 C 879.875 1661.244, 881 1660.465, 881 1659.859 C 881 1659.117, 880.508 1659.163, 879.500 1660 C 876.789 1662.250, 877.935 1659.960, 880.718 1657.567 C 883.057 1655.554, 883.249 1655.004, 882.095 1653.615 C 880.599 1651.812, 877.448 1651.466, 876.500 1653 C 876.160 1653.550, 873.996 1653.997, 871.691 1653.994 L 867.500 1653.988 870.364 1652.494 C 871.940 1651.672, 874.266 1651, 875.533 1651 C 878.506 1651, 883.985 1647.885, 883.994 1646.191 C 883.997 1645.471, 883.550 1645.160, 883 1645.500 C 882.450 1645.840, 882 1645.416, 882 1644.559 C 882 1643.702, 881.502 1643, 880.893 1643 C 880.279 1643, 880.066 1642.272, 880.413 1641.366 C 880.944 1639.982, 880.490 1639.821, 877.454 1640.314 C 872.690 1641.087, 873.343 1639.225, 878.543 1637.210 C 883.562 1635.266, 883.751 1635.087, 881.971 1633.961 C 881.162 1633.449, 880.964 1633.024, 881.532 1633.015 C 882.099 1633.007, 882.657 1631.875, 882.771 1630.500 C 882.912 1628.791, 882.472 1628, 881.382 1628 C 880.399 1628, 880 1627.443, 880.342 1626.551 C 880.677 1625.679, 880.134 1624.860, 878.977 1624.493 C 877.453 1624.009, 877.257 1623.482, 878.028 1621.942 C 878.563 1620.874, 879.442 1619.118, 879.983 1618.040 C 880.738 1616.536, 880.564 1615.839, 879.233 1615.041 C 877.589 1614.055, 877.589 1613.932, 879.234 1612.652 C 880.188 1611.910, 880.667 1611, 880.297 1610.631 C 879.562 1609.895, 879.179 1607.827, 878.517 1601.013 C 878.224 1598.001, 878.594 1595.742, 879.644 1594.140 C 880.504 1592.828, 880.686 1592.076, 880.048 1592.471 C 879.212 1592.987, 878.973 1591.763, 879.194 1588.094 C 879.362 1585.292, 879.764 1583, 880.086 1583 C 880.408 1583, 880.740 1581.087, 880.824 1578.750 C 880.924 1575.923, 881.614 1573.973, 882.882 1572.925 C 885.019 1571.161, 884.755 1566.871, 882.389 1564.908 C 880.252 1563.135, 880.716 1561.995, 884.045 1560.834 C 887.533 1559.619, 887.477 1557.826, 883.926 1556.971 L 881.500 1556.387 884 1555.578 C 885.375 1555.133, 886.837 1554.709, 887.250 1554.635 C 887.663 1554.561, 887.888 1554.232, 887.750 1553.904 C 887.612 1553.576, 888.102 1552.582, 888.838 1551.695 C 889.722 1550.631, 889.940 1549.002, 889.480 1546.908 C 889.096 1545.162, 888.494 1544.150, 888.141 1544.659 C 887.789 1545.168, 886.192 1545.340, 884.594 1545.042 C 881.973 1544.553, 881.850 1544.365, 883.344 1543.128 C 885.455 1541.378, 885.479 1538.398, 883.387 1537.595 C 882.081 1537.094, 882.010 1536.693, 883.010 1535.488 C 884.011 1534.282, 883.958 1534, 882.734 1534 C 881.075 1534, 880.906 1530.937, 882.500 1529.765 C 883.102 1529.323, 882.954 1529.025, 882.128 1529.015 C 881.063 1529.003, 881.017 1528.685, 881.919 1527.597 C 882.806 1526.528, 882.801 1526.100, 881.898 1525.799 C 880.989 1525.496, 880.996 1524.876, 881.926 1523.138 C 882.861 1521.391, 882.868 1520.546, 881.955 1519.446 C 880.840 1518.102, 881.122 1509.229, 882.343 1507.254 C 883.582 1505.250, 883.403 1492.191, 882.116 1490.640 C 881.311 1489.670, 881.082 1488.322, 881.541 1487.263 C 882.614 1484.792, 882.672 1482.699, 881.705 1481.324 C 881.250 1480.677, 881.018 1479.327, 881.189 1478.324 C 881.393 1477.128, 880.925 1476.543, 879.829 1476.626 C 877.305 1476.816, 878.798 1474.089, 881.603 1473.385 C 884.923 1472.552, 883.601 1471.038, 879.682 1471.186 C 877.901 1471.253, 875.331 1470.697, 873.971 1469.952 C 869.797 1467.662, 860.481 1466.352, 861.634 1468.217 C 862.033 1468.863, 860.565 1469.056, 857.543 1468.754 C 854.035 1468.404, 852.687 1468.653, 852.275 1469.726 C 851.868 1470.786, 851.527 1470.853, 850.987 1469.978 C 850.158 1468.637, 824 1467.509, 824 1468.814 C 824 1469.907, 832.237 1471.973, 837.264 1472.142 C 846.117 1472.439, 827.502 1473.893, 815 1473.881 C 800.030 1473.867, 791.297 1473.062, 793.178 1471.869 C 793.905 1471.408, 795.625 1471.017, 797 1471 C 798.983 1470.976, 799.190 1470.769, 798 1470 C 796.014 1468.717, 797.612 1468.722, 800.012 1470.007 C 801.464 1470.784, 802.119 1470.613, 802.882 1469.257 C 803.774 1467.671, 803.968 1467.744, 804.872 1470 C 805.467 1471.486, 805.899 1471.848, 805.937 1470.894 C 805.990 1469.541, 807.340 1469.305, 814.500 1469.398 C 819.597 1469.464, 823 1469.106, 823 1468.504 C 823 1467.952, 820.412 1467.455, 817.250 1467.401 C 807.668 1467.236, 806 1467.039, 806 1466.073 C 806 1465.564, 806.788 1464.941, 807.750 1464.689 C 809.116 1464.332, 809.024 1464.207, 807.333 1464.116 C 806.142 1464.052, 804.966 1464.562, 804.720 1465.250 C 804.475 1465.938, 803.905 1466.155, 803.454 1465.733 C 803.002 1465.312, 803.166 1464.434, 803.817 1463.783 C 805.452 1462.148, 805.297 1461, 803.441 1461 C 802.584 1461, 802.131 1461.403, 802.435 1461.895 C 802.740 1462.388, 802.429 1462.995, 801.744 1463.244 C 799.820 1463.946, 793 1462.891, 793 1461.891 C 793 1460.540, 791.319 1460.824, 789.692 1462.451 C 788.894 1463.248, 787.062 1464.197, 785.621 1464.559 C 784.179 1464.921, 783 1465.708, 783 1466.308 C 783 1467.037, 782.601 1467.001, 781.800 1466.200 C 781.140 1465.540, 779.678 1464.941, 778.550 1464.868 C 777.423 1464.796, 778.075 1464.405, 780 1464 L 783.500 1463.263 780.450 1463.132 C 778.772 1463.059, 776.891 1462.491, 776.268 1461.868 C 775.646 1461.246, 773.193 1460.598, 770.818 1460.428 C 768.046 1460.230, 767.197 1460.396, 768.446 1460.892 C 770.370 1461.655, 770.370 1461.670, 768.430 1462.177 C 767.351 1462.459, 765.575 1462.342, 764.484 1461.915 C 762.793 1461.255, 762.759 1461.130, 764.250 1461.070 C 765.212 1461.032, 766 1460.658, 766 1460.240 C 766 1459.822, 762.737 1459.734, 758.750 1460.044 C 754.763 1460.355, 745.987 1460.584, 739.250 1460.554 C 732.141 1460.523, 727 1460.899, 727 1461.450 C 727 1461.973, 726.460 1461.860, 725.800 1461.200 C 725.140 1460.540, 723.735 1460, 722.678 1460 C 721.082 1460, 720.967 1459.745, 722 1458.500 C 723.053 1457.232, 722.840 1457, 720.622 1457 C 719.180 1457, 718 1457.439, 718 1457.975 C 718 1459.379, 713.703 1457.580, 708.491 1453.994 C 701.376 1449.099, 696.810 1448.542, 674.330 1449.826 C 652.263 1451.088, 645.225 1451.743, 643.711 1452.678 C 643.149 1453.026, 631.059 1453.506, 616.845 1453.745 L 591 1454.181 590.931 1451.840 C 590.656 1442.506, 590.930 1403.268, 591.412 1383 C 592.568 1334.434, 592.660 1264.049, 591.604 1236.500 C 591.330 1229.350, 590.659 1221.725, 590.114 1219.555 C 589.569 1217.386, 589.380 1215.195, 589.694 1214.686 C 590.296 1213.712, 590.165 1181.982, 589.534 1176 C 589.331 1174.075, 589.065 1167.775, 588.944 1162 C 588.819 1156.032, 588.428 1152.579, 588.037 1154 C 586.685 1158.920, 585.176 1143.943, 585.019 1124.045 C 584.934 1113.345, 584.662 1104.261, 584.413 1103.859 C 583.221 1101.931, 582.911 1042.740, 583.785 984 C 583.822 981.525, 583.662 978.150, 583.429 976.500 C 583.197 974.850, 582.993 963.263, 582.975 950.750 C 582.958 938.238, 582.582 928, 582.139 928 C 581.697 928, 581.666 925.561, 582.070 922.579 C 584.784 902.581, 584.692 815.661, 581.932 791 C 578.486 760.221, 576.802 739.987, 576.635 727.334 C 576.561 721.743, 576.163 716.830, 575.750 716.417 C 575.005 715.671, 574.623 719.992, 574.969 725.250 C 575.219 729.032, 573.390 728.711, 572.080 724.742 C 569.743 717.662, 571.034 709, 574.425 709 C 576.144 709, 576.305 704.639, 576.244 659.750 C 576.218 640.638, 576.490 624.999, 576.849 624.999 C 577.618 624.997, 577.577 609.190, 576.632 540.500 C 576.246 512.450, 575.973 483.875, 576.026 477 C 576.078 470.125, 576.213 449.875, 576.326 432 C 576.439 414.125, 576.917 398.891, 577.388 398.147 C 577.859 397.403, 578.410 389.514, 578.612 380.616 C 578.814 371.718, 579.404 362.202, 579.923 359.469 C 580.442 356.736, 580.666 348.322, 580.419 340.770 L 579.971 327.040 595.902 327.409 C 604.664 327.612, 612.260 328.043, 612.783 328.366 C 614.223 329.256, 621.536 329.928, 643.330 331.174 C 665.810 332.458, 670.376 331.901, 677.491 327.006 C 682.703 323.420, 687 321.621, 687 323.025 C 687 323.561, 688.180 324, 689.622 324 C 691.840 324, 692.053 323.768, 691 322.500 C 689.967 321.255, 690.082 321, 691.678 321 C 692.735 321, 694.140 320.460, 694.800 319.800 C 695.460 319.140, 696 319.028, 696 319.550 C 696 320.101, 701.141 320.477, 708.250 320.446 C 714.987 320.416, 723.763 320.645, 727.750 320.956 C 731.737 321.266, 735 321.178, 735 320.760 C 735 320.342, 734.212 319.968, 733.250 319.930 C 731.759 319.870, 731.793 319.745, 733.484 319.085 C 734.575 318.658, 736.351 318.541, 737.430 318.823 C 739.370 319.330, 739.370 319.345, 737.446 320.108 C 736.197 320.604, 737.046 320.770, 739.818 320.572 C 742.193 320.402, 744.646 319.754, 745.268 319.132 C 745.891 318.509, 747.772 317.941, 749.450 317.868 L 752.500 317.737 749 317 C 747.075 316.595, 746.423 316.204, 747.550 316.132 C 748.677 316.059, 750.140 315.460, 750.800 314.800 C 751.601 313.999, 752 313.963, 752 314.692 C 752 315.292, 753.179 316.079, 754.621 316.441 C 756.062 316.803, 757.894 317.752, 758.692 318.549 C 760.319 320.176, 762 320.460, 762 319.109 C 762 318.109, 768.820 317.054, 770.744 317.756 C 771.429 318.005, 771.740 318.612, 771.435 319.105 C 771.131 319.597, 771.584 320, 772.441 320 C 774.297 320, 774.452 318.852, 772.817 317.217 C 772.166 316.566, 772.002 315.688, 772.454 315.267 C 772.905 314.845, 773.475 315.063, 773.720 315.750 C 773.966 316.438, 775.142 316.948, 776.333 316.884 C 778.024 316.793, 778.116 316.668, 776.750 316.311 C 775.788 316.059, 775 315.436, 775 314.927 C 775 313.961, 776.668 313.764, 786.250 313.599 C 789.412 313.545, 792 313.048, 792 312.496 C 792 311.894, 788.597 311.536, 783.500 311.602 C 776.340 311.695, 774.990 311.459, 774.937 310.106 C 774.899 309.152, 774.467 309.514, 773.872 311 C 772.968 313.256, 772.774 313.329, 771.882 311.743 C 771.119 310.387, 770.464 310.216, 769.012 310.993 C 766.612 312.278, 765.014 312.283, 767 311 C 768.190 310.231, 767.983 310.024, 766 310 C 764.625 309.983, 762.905 309.592, 762.178 309.131 C 760.297 307.938, 769.030 307.133, 784 307.119 C 796.502 307.107, 815.117 308.561, 806.264 308.858 C 801.237 309.027, 793 311.093, 793 312.186 C 793 313.491, 819.158 312.363, 819.987 311.022 C 820.527 310.147, 820.868 310.214, 821.275 311.274 C 821.687 312.347, 823.035 312.596, 826.543 312.246 C 829.565 311.944, 831.033 312.137, 830.634 312.783 C 829.481 314.648, 838.797 313.338, 842.971 311.048 C 844.331 310.303, 846.901 309.747, 848.682 309.814 C 852.601 309.962, 853.923 308.448, 850.603 307.615 C 847.798 306.911, 846.305 304.184, 848.829 304.374 C 849.925 304.457, 850.393 303.872, 850.189 302.676 C 850.018 301.673, 850.250 300.323, 850.705 299.676 C 851.672 298.301, 851.614 296.208, 850.541 293.737 C 850.082 292.678, 850.311 291.330, 851.116 290.360 C 852.403 288.809, 852.582 275.750, 851.343 273.746 C 850.122 271.771, 849.840 262.898, 850.955 261.554 C 851.868 260.454, 851.861 259.609, 850.926 257.862 C 849.996 256.124, 849.989 255.504, 850.898 255.201 C 851.801 254.900, 851.806 254.472, 850.919 253.403 C 850.017 252.315, 850.063 251.997, 851.128 251.985 C 851.954 251.975, 852.102 251.677, 851.500 251.235 C 849.906 250.063, 850.075 247, 851.734 247 C 852.958 247, 853.011 246.718, 852.010 245.512 C 851.010 244.307, 851.081 243.906, 852.387 243.405 C 854.479 242.602, 854.455 239.622, 852.344 237.872 C 850.850 236.635, 850.973 236.447, 853.594 235.958 C 855.192 235.660, 856.789 235.832, 857.141 236.341 C 858.099 237.723, 859.279 231.255, 858.339 229.774 C 857.895 229.073, 857.524 228.050, 857.515 227.500 C 857.507 226.950, 857.050 226.439, 856.500 226.365 C 855.950 226.291, 854.375 225.867, 853 225.422 L 850.500 224.613 852.926 224.029 C 856.477 223.174, 856.533 221.381, 853.045 220.166 C 849.716 219.005, 849.252 217.865, 851.389 216.092 C 853.755 214.129, 854.019 209.839, 851.882 208.075 C 850.614 207.027, 849.924 205.077, 849.824 202.250 C 849.740 199.912, 849.408 198, 849.086 198 C 848.764 198, 848.362 195.708, 848.194 192.906 C 847.973 189.237, 848.212 188.013, 849.048 188.529 C 849.686 188.924, 849.504 188.172, 848.644 186.860 C 847.594 185.258, 847.224 182.999, 847.517 179.987 C 848.179 173.173, 848.562 171.105, 849.297 170.369 C 849.667 170, 849.188 169.090, 848.234 168.348 C 846.589 167.068, 846.589 166.945, 848.233 165.959 C 849.659 165.104, 849.764 164.527, 848.827 162.710 C 846.030 157.286, 846.009 157.132, 847.977 156.507 C 849.134 156.140, 849.677 155.321, 849.342 154.449 C 849 153.557, 849.399 153, 850.382 153 C 851.472 153, 851.912 152.209, 851.771 150.500 C 851.657 149.125, 851.099 147.993, 850.532 147.985 C 849.964 147.976, 850.162 147.551, 850.971 147.039 C 852.751 145.913, 852.562 145.734, 847.543 143.790 C 842.343 141.775, 841.690 139.913, 846.454 140.686 C 849.490 141.179, 849.944 141.018, 849.413 139.634 C 849.066 138.728, 849.279 138, 849.893 138 C 850.502 138, 851 137.298, 851 136.441 C 851 135.584, 851.450 135.160, 852 135.500 C 852.550 135.840, 852.997 135.529, 852.994 134.809 C 852.985 133.115, 847.506 130, 844.533 130 C 843.266 130, 840.940 129.328, 839.364 128.506 L 836.500 127.012 840.691 127.006 C 842.996 127.003, 845.160 127.450, 845.500 128 C 846.448 129.534, 849.599 129.188, 851.095 127.385 C 852.249 125.996, 852.057 125.446, 849.718 123.433 C 846.935 121.040, 845.789 118.750, 848.500 121 C 849.508 121.837, 850 121.883, 850 121.141 C 850 120.535, 848.875 119.756, 847.500 119.411 C 846.125 119.066, 845 118.382, 845 117.892 C 845 117.401, 844.298 117, 843.441 117 C 842.584 117, 842.171 116.532, 842.525 115.959 C 843.098 115.033, 844.750 115.241, 848.750 116.744 C 849.570 117.052, 850 116.219, 850 114.320 C 850 112.076, 849.517 111.389, 847.851 111.264 C 846.669 111.175, 845.206 110.573, 844.601 109.926 C 843.484 108.732, 843.997 108.773, 851 110.430 C 852.375 110.756, 853.003 110.776, 852.395 110.476 C 850.909 109.742, 851.903 104.975, 853.684 104.291 C 855.629 103.545, 854.439 98.217, 851.642 95.153 C 849.368 92.660, 842.059 88.442, 840.676 88.823 C 840.222 88.947, 840.096 88.654, 840.395 88.170 C 840.694 87.686, 839.841 86.260, 838.500 85 C 837.159 83.740, 836.299 82.325, 836.590 81.855 C 836.880 81.385, 839.454 80.936, 842.309 80.858 C 847.451 80.718, 847.462 80.710, 843.500 80.092 C 839.617 79.487, 839.568 79.430, 841.810 78.167 C 843.080 77.451, 846.868 76.558, 850.228 76.183 C 855.571 75.586, 856.357 75.225, 856.497 73.307 C 856.585 72.101, 856.333 71.201, 855.938 71.307 C 855.542 71.413, 854.293 70.446, 853.162 69.158 C 851.947 67.775, 850.612 67.122, 849.899 67.563 C 849.131 68.037, 848.951 67.888, 849.405 67.155 C 849.797 66.520, 849.754 65.986, 849.309 65.969 C 848.864 65.952, 843.100 65.286, 836.500 64.490 C 829.900 63.693, 822.362 63.032, 819.750 63.021 C 814.783 62.999, 813.915 62.145, 816.597 59.920 C 819.556 57.464, 814.990 57.108, 810.022 59.407 C 805.926 61.303, 803.755 61.493, 787 61.429 C 768.631 61.358, 744.884 59.088, 739.247 56.865 C 736.643 55.837, 719.378 54.950, 703 55.001 C 679.308 55.076, 666.240 54.913, 656 54.418 C 649.675 54.111, 638.875 53.716, 632 53.539 C 625.125 53.363, 607.350 52.889, 592.500 52.487 C 546.601 51.244, 546 51.253, 546 53.191 C 546 55.304, 544.329 56.448, 543.714 54.756 C 543.368 53.806, 542.799 53.771, 541.379 54.610 C 539.377 55.793, 534 54.571, 534 52.934 C 534 52.455, 533.400 52.293, 532.668 52.574 C 531.935 52.855, 529.460 52.664, 527.168 52.149 C 524.519 51.554, 523 51.563, 523 52.174 M 514 55 C 512.718 55.828, 512.754 55.972, 514.250 55.985 C 515.212 55.993, 516 55.550, 516 55 C 516 53.780, 515.887 53.780, 514 55 M 302.750 86.470 C 300.709 89.277, 300.459 94.017, 302.250 95.947 C 302.938 96.687, 303.003 97.016, 302.396 96.678 C 301.597 96.232, 301.574 97.296, 302.314 100.530 C 302.876 102.987, 303.495 104.838, 303.689 104.644 C 303.883 104.450, 304.082 101.466, 304.130 98.014 C 304.187 94.009, 304.536 92.236, 305.094 93.118 C 305.660 94.011, 305.975 92.642, 305.985 89.250 C 306.002 83.444, 305.354 82.888, 302.750 86.470 M 696.626 116.796 C 696.353 117.238, 697.771 117.710, 699.777 117.846 C 703.855 118.120, 703.870 117.610, 699.811 116.637 C 698.332 116.283, 696.899 116.354, 696.626 116.796 M 576.264 117.718 C 577.784 117.947, 580.034 117.941, 581.264 117.704 C 582.494 117.467, 581.250 117.279, 578.500 117.286 C 575.750 117.294, 574.744 117.488, 576.264 117.718 M 584.750 117.662 C 585.438 117.940, 586.563 117.940, 587.250 117.662 C 587.938 117.385, 587.375 117.158, 586 117.158 C 584.625 117.158, 584.063 117.385, 584.750 117.662 M 589.750 117.662 C 590.438 117.940, 591.563 117.940, 592.250 117.662 C 592.938 117.385, 592.375 117.158, 591 117.158 C 589.625 117.158, 589.063 117.385, 589.750 117.662 M 608.789 117.741 C 612.248 117.937, 617.648 117.936, 620.789 117.738 C 623.930 117.540, 621.100 117.380, 614.500 117.382 C 607.900 117.384, 605.330 117.546, 608.789 117.741 M 628.250 117.689 C 629.212 117.941, 630.788 117.941, 631.750 117.689 C 632.712 117.438, 631.925 117.232, 630 117.232 C 628.075 117.232, 627.288 117.438, 628.250 117.689 M 648 118 C 648 118.550, 648.450 119, 649 119 C 649.550 119, 650 118.550, 650 118 C 650 117.450, 649.550 117, 649 117 C 648.450 117, 648 117.450, 648 118 M 674.750 117.732 C 677.087 117.943, 680.913 117.943, 683.250 117.732 C 685.587 117.522, 683.675 117.349, 679 117.349 C 674.325 117.349, 672.413 117.522, 674.750 117.732 M 690.750 117.662 C 691.438 117.940, 692.563 117.940, 693.250 117.662 C 693.938 117.385, 693.375 117.158, 692 117.158 C 690.625 117.158, 690.063 117.385, 690.750 117.662 M 724.750 117.662 C 725.438 117.940, 726.563 117.940, 727.250 117.662 C 727.938 117.385, 727.375 117.158, 726 117.158 C 724.625 117.158, 724.063 117.385, 724.750 117.662 M 747.813 118.683 C 748.534 118.972, 749.397 118.936, 749.729 118.604 C 750.061 118.272, 749.471 118.036, 748.417 118.079 C 747.252 118.127, 747.015 118.364, 747.813 118.683 M 797.379 119.195 C 797.106 119.638, 804.859 120, 814.608 120 C 824.357 120, 832.056 119.723, 831.717 119.384 C 830.784 118.451, 797.951 118.270, 797.379 119.195 M 796.750 124.662 C 797.438 124.940, 798.563 124.940, 799.250 124.662 C 799.938 124.385, 799.375 124.158, 798 124.158 C 796.625 124.158, 796.063 124.385, 796.750 124.662 M 803.813 124.683 C 804.534 124.972, 805.397 124.936, 805.729 124.604 C 806.061 124.272, 805.471 124.036, 804.417 124.079 C 803.252 124.127, 803.015 124.364, 803.813 124.683 M 812.762 124.707 C 814.006 124.946, 815.806 124.937, 816.762 124.687 C 817.718 124.437, 816.700 124.241, 814.500 124.252 C 812.300 124.263, 811.518 124.468, 812.762 124.707 M 833.813 127.683 C 834.534 127.972, 835.397 127.936, 835.729 127.604 C 836.061 127.272, 835.471 127.036, 834.417 127.079 C 833.252 127.127, 833.015 127.364, 833.813 127.683 M 471.543 175.931 C 471.226 176.443, 471.425 177.144, 471.984 177.490 C 472.543 177.835, 473 177.416, 473 176.559 C 473 174.802, 472.400 174.544, 471.543 175.931 M 855.965 240.542 C 855.088 241.598, 855.009 242.409, 855.712 243.112 C 856.416 243.816, 856.895 243.329, 857.231 241.570 C 857.804 238.573, 857.682 238.473, 855.965 240.542 M 469.695 281.943 C 469.991 283.074, 470.664 284, 471.190 284 C 472.518 284, 471.767 280.755, 470.329 280.276 C 469.584 280.028, 469.353 280.634, 469.695 281.943 M 353.232 291 C 353.232 292.925, 353.438 293.712, 353.689 292.750 C 353.941 291.788, 353.941 290.212, 353.689 289.250 C 353.438 288.288, 353.232 289.075, 353.232 291 M 306.158 303 C 306.158 304.375, 306.385 304.938, 306.662 304.250 C 306.940 303.563, 306.940 302.438, 306.662 301.750 C 306.385 301.063, 306.158 301.625, 306.158 303 M 710.269 303.693 C 711.242 303.947, 712.592 303.930, 713.269 303.656 C 713.946 303.382, 713.150 303.175, 711.500 303.195 C 709.850 303.215, 709.296 303.439, 710.269 303.693 M 743.667 308.616 C 743.575 308.680, 738.844 309.018, 733.153 309.367 C 727.462 309.716, 722.467 310.212, 722.051 310.468 C 721.636 310.725, 717.292 311.030, 712.398 311.146 C 702.830 311.372, 700 311.794, 700 312.997 C 700 313.417, 703.038 313.608, 706.750 313.423 C 710.462 313.237, 718.675 312.823, 725 312.503 C 733.687 312.063, 736.133 312.197, 735 313.054 C 733.763 313.990, 733.850 314.072, 735.500 313.522 C 737.956 312.702, 746.114 311.225, 751.500 310.624 C 753.700 310.379, 756.625 309.718, 758 309.155 C 759.954 308.356, 758.681 308.173, 752.167 308.316 C 747.584 308.417, 743.759 308.552, 743.667 308.616 M 763.813 314.683 C 764.534 314.972, 765.397 314.936, 765.729 314.604 C 766.061 314.272, 765.471 314.036, 764.417 314.079 C 763.252 314.127, 763.015 314.364, 763.813 314.683 M 757.500 316 C 757.840 316.550, 758.793 317, 759.618 317 C 760.443 317, 760.840 316.550, 760.500 316 C 760.160 315.450, 759.207 315, 758.382 315 C 757.557 315, 757.160 315.450, 757.500 316 M 352.079 317.583 C 352.127 318.748, 352.364 318.985, 352.683 318.188 C 352.972 317.466, 352.936 316.603, 352.604 316.271 C 352.272 315.939, 352.036 316.529, 352.079 317.583 M 740.783 318.247 C 742.167 318.907, 743.425 318.974, 743.979 318.417 C 744.533 317.862, 743.633 317.433, 741.697 317.329 C 738.698 317.169, 738.641 317.226, 740.783 318.247 M 766.500 319 C 765.181 319.567, 765.011 319.878, 766 319.914 C 766.825 319.945, 768.175 319.533, 769 319 C 770.828 317.819, 769.249 317.819, 766.500 319 M 747.750 319.662 C 748.438 319.940, 749.563 319.940, 750.250 319.662 C 750.938 319.385, 750.375 319.158, 749 319.158 C 747.625 319.158, 747.063 319.385, 747.750 319.662 M 353.232 343 C 353.232 344.925, 353.438 345.712, 353.689 344.750 C 353.941 343.788, 353.941 342.212, 353.689 341.250 C 353.438 340.288, 353.232 341.075, 353.232 343 M 353.252 356.500 C 353.263 358.700, 353.468 359.482, 353.707 358.238 C 353.946 356.994, 353.937 355.194, 353.687 354.238 C 353.437 353.282, 353.241 354.300, 353.252 356.500 M 306.079 374.583 C 306.127 375.748, 306.364 375.985, 306.683 375.188 C 306.972 374.466, 306.936 373.603, 306.604 373.271 C 306.272 372.939, 306.036 373.529, 306.079 374.583 M 306.079 379.583 C 306.127 380.748, 306.364 380.985, 306.683 380.188 C 306.972 379.466, 306.936 378.603, 306.604 378.271 C 306.272 377.939, 306.036 378.529, 306.079 379.583 M 306.272 389 C 306.272 391.475, 306.467 392.488, 306.706 391.250 C 306.944 390.012, 306.944 387.988, 306.706 386.750 C 306.467 385.512, 306.272 386.525, 306.272 389 M 354.286 396.500 C 354.294 399.250, 354.488 400.256, 354.718 398.736 C 354.947 397.216, 354.941 394.966, 354.704 393.736 C 354.467 392.506, 354.279 393.750, 354.286 396.500 M 306.395 409.500 C 306.396 417.200, 306.553 420.218, 306.743 416.206 C 306.934 412.195, 306.932 405.895, 306.741 402.206 C 306.549 398.518, 306.393 401.800, 306.395 409.500 M 354.195 405.500 C 354.215 407.150, 354.439 407.704, 354.693 406.731 C 354.947 405.758, 354.930 404.408, 354.656 403.731 C 354.382 403.054, 354.175 403.850, 354.195 405.500 M 566.816 422.548 C 566.139 423.584, 565.635 438.682, 565.876 450.679 C 565.949 454.294, 566.546 457.405, 567.316 458.179 C 568.168 459.034, 568.569 461.713, 568.455 465.777 C 568.358 469.229, 568.666 472.293, 569.139 472.586 C 569.613 472.879, 570.032 474.554, 570.070 476.309 C 570.109 478.064, 570.527 480.400, 571 481.500 C 571.674 483.070, 571.875 482.628, 571.930 479.450 C 571.968 477.222, 572.501 474.899, 573.113 474.287 C 573.726 473.674, 574.051 471.334, 573.837 469.087 C 573.623 466.839, 573.684 465, 573.974 465 C 574.699 465.001, 574.317 451.967, 573.519 449.500 C 573.164 448.400, 572.259 446.150, 571.510 444.500 C 569.922 441.004, 569.113 436.999, 568.176 428 C 567.804 424.425, 567.192 421.972, 566.816 422.548 M 306.158 426 C 306.158 427.375, 306.385 427.938, 306.662 427.250 C 306.940 426.563, 306.940 425.438, 306.662 424.750 C 306.385 424.063, 306.158 424.625, 306.158 426 M 306.252 432.500 C 306.263 434.700, 306.468 435.482, 306.707 434.238 C 306.946 432.994, 306.937 431.194, 306.687 430.238 C 306.437 429.282, 306.241 430.300, 306.252 432.500 M 354.252 435.500 C 354.263 437.700, 354.468 438.482, 354.707 437.238 C 354.946 435.994, 354.937 434.194, 354.687 433.238 C 354.437 432.282, 354.241 433.300, 354.252 435.500 M 306.272 441 C 306.272 443.475, 306.467 444.488, 306.706 443.250 C 306.944 442.012, 306.944 439.988, 306.706 438.750 C 306.467 437.512, 306.272 438.525, 306.272 441 M 354.272 444 C 354.272 446.475, 354.467 447.488, 354.706 446.250 C 354.944 445.012, 354.944 442.988, 354.706 441.750 C 354.467 440.512, 354.272 441.525, 354.272 444 M 306.286 451.500 C 306.294 454.250, 306.488 455.256, 306.718 453.736 C 306.947 452.216, 306.941 449.966, 306.704 448.736 C 306.467 447.506, 306.279 448.750, 306.286 451.500 M 353.158 454 C 353.158 455.375, 353.385 455.938, 353.662 455.250 C 353.940 454.563, 353.940 453.438, 353.662 452.750 C 353.385 452.063, 353.158 452.625, 353.158 454 M 306.328 463.500 C 306.333 467.350, 306.513 468.802, 306.730 466.728 C 306.946 464.653, 306.943 461.503, 306.722 459.728 C 306.501 457.952, 306.324 459.650, 306.328 463.500 M 564.336 462.567 C 564.005 463.429, 564.244 464.644, 564.867 465.267 C 565.711 466.111, 566 465.711, 566 463.700 C 566 460.691, 565.251 460.182, 564.336 462.567 M 306.480 566.500 C 306.480 618.750, 306.601 640.272, 306.750 614.326 C 306.898 588.380, 306.898 545.630, 306.750 519.326 C 306.601 493.022, 306.480 514.250, 306.480 566.500 M 352.232 478 C 352.232 479.925, 352.438 480.712, 352.689 479.750 C 352.941 478.788, 352.941 477.212, 352.689 476.250 C 352.438 475.288, 352.232 476.075, 352.232 478 M 563.750 478.577 C 563.337 478.993, 563 480.248, 563 481.367 C 563 482.838, 563.302 483.098, 564.094 482.306 C 564.695 481.705, 565.033 480.449, 564.844 479.517 C 564.655 478.584, 564.163 478.161, 563.750 478.577 M 352.232 493 C 352.232 494.925, 352.438 495.712, 352.689 494.750 C 352.941 493.788, 352.941 492.212, 352.689 491.250 C 352.438 490.288, 352.232 491.075, 352.232 493 M 352.300 507 C 352.300 510.025, 352.487 511.262, 352.716 509.750 C 352.945 508.238, 352.945 505.762, 352.716 504.250 C 352.487 502.738, 352.300 503.975, 352.300 507 M 536 678.441 C 536 784.323, 536.340 839.092, 537 839.500 C 537.665 839.911, 538 786.177, 538 679.059 C 538 572.353, 537.663 518, 537 518 C 536.337 518, 536 572.147, 536 678.441 M 351.343 527.500 C 351.346 531.900, 351.522 533.576, 351.733 531.224 C 351.945 528.872, 351.942 525.272, 351.727 523.224 C 351.512 521.176, 351.339 523.100, 351.343 527.500 M 423.079 534.583 C 423.127 535.748, 423.364 535.985, 423.683 535.188 C 423.972 534.466, 423.936 533.603, 423.604 533.271 C 423.272 532.939, 423.036 533.529, 423.079 534.583 M 297.031 550.500 C 297.031 551.050, 297.467 552.175, 298 553 C 298.533 553.825, 298.969 554.050, 298.969 553.500 C 298.969 552.950, 298.533 551.825, 298 551 C 297.467 550.175, 297.031 549.950, 297.031 550.500 M 350.286 557.500 C 350.294 560.250, 350.488 561.256, 350.718 559.736 C 350.947 558.216, 350.941 555.966, 350.704 554.736 C 350.467 553.506, 350.279 554.750, 350.286 557.500 M 350.232 569 C 350.232 570.925, 350.438 571.712, 350.689 570.750 C 350.941 569.788, 350.941 568.212, 350.689 567.250 C 350.438 566.288, 350.232 567.075, 350.232 569 M 461.079 567.583 C 461.127 568.748, 461.364 568.985, 461.683 568.188 C 461.972 567.466, 461.936 566.603, 461.604 566.271 C 461.272 565.939, 461.036 566.529, 461.079 567.583 M 350.252 580.500 C 350.263 582.700, 350.468 583.482, 350.707 582.238 C 350.946 580.994, 350.937 579.194, 350.687 578.238 C 350.437 577.282, 350.241 578.300, 350.252 580.500 M 349.195 600.500 C 349.215 602.150, 349.439 602.704, 349.693 601.731 C 349.947 600.758, 349.930 599.408, 349.656 598.731 C 349.382 598.054, 349.175 598.850, 349.195 600.500 M 349.079 613.583 C 349.127 614.748, 349.364 614.985, 349.683 614.188 C 349.972 613.466, 349.936 612.603, 349.604 612.271 C 349.272 611.939, 349.036 612.529, 349.079 613.583 M 349.349 631 C 349.349 635.675, 349.522 637.587, 349.732 635.250 C 349.943 632.913, 349.943 629.087, 349.732 626.750 C 349.522 624.413, 349.349 626.325, 349.349 631 M 349.158 654 C 349.158 655.375, 349.385 655.938, 349.662 655.250 C 349.940 654.563, 349.940 653.438, 349.662 652.750 C 349.385 652.063, 349.158 652.625, 349.158 654 M 306.445 693.500 C 306.444 710.550, 306.581 717.666, 306.748 709.312 C 306.915 700.959, 306.915 687.009, 306.748 678.312 C 306.582 669.616, 306.445 676.450, 306.445 693.500 M 562.267 694.750 C 562.674 701.116, 563.674 707.007, 564.486 707.819 C 565.613 708.946, 566.014 698.385, 565.025 693.619 C 563.389 685.738, 561.735 686.416, 562.267 694.750 M 475.079 690.583 C 475.127 691.748, 475.364 691.985, 475.683 691.188 C 475.972 690.466, 475.936 689.603, 475.604 689.271 C 475.272 688.939, 475.036 689.529, 475.079 690.583 M 551.459 692.369 C 550.577 697.070, 551.227 700.500, 553 700.500 C 553.928 700.500, 554.391 699.738, 554.215 698.500 C 554.058 697.400, 553.885 694.813, 553.829 692.750 C 553.703 688.086, 552.304 687.861, 551.459 692.369 M 348.158 698 C 348.158 699.375, 348.385 699.938, 348.662 699.250 C 348.940 698.563, 348.940 697.438, 348.662 696.750 C 348.385 696.063, 348.158 696.625, 348.158 698 M 348.158 710 C 348.158 711.375, 348.385 711.938, 348.662 711.250 C 348.940 710.563, 348.940 709.438, 348.662 708.750 C 348.385 708.063, 348.158 708.625, 348.158 710 M 574.676 712.402 C 574.111 713.874, 574.758 715, 576.167 715 C 576.625 715, 577 714.100, 577 713 C 577 710.707, 575.477 710.315, 574.676 712.402 M 347.232 725 C 347.232 726.925, 347.438 727.712, 347.689 726.750 C 347.941 725.788, 347.941 724.212, 347.689 723.250 C 347.438 722.288, 347.232 723.075, 347.232 725 M 306.455 842 L 306.476 954.500 306.988 856 C 307.270 801.825, 307.864 756.938, 308.309 756.250 C 308.771 755.536, 308.677 755, 308.089 755 C 307.454 755, 306.940 750.122, 306.747 742.250 C 306.575 735.237, 306.444 780.125, 306.455 842 M 347.195 732.500 C 347.215 734.150, 347.439 734.704, 347.693 733.731 C 347.947 732.758, 347.930 731.408, 347.656 730.731 C 347.382 730.054, 347.175 730.850, 347.195 732.500 M 318.882 748.191 C 318.816 750.011, 318.825 751.864, 318.901 752.308 C 318.977 752.752, 319.094 755.452, 319.162 758.308 C 319.341 765.872, 320.842 761.205, 320.930 752.809 C 321 746.111, 319.109 741.846, 318.882 748.191 M 298 754.975 C 298 757.197, 298.375 757.793, 299.500 757.362 C 300.325 757.045, 301 757.284, 301 757.893 C 301 758.502, 301.450 759, 302 759 C 303.841 759, 303.026 756.383, 300.500 754.187 L 298 752.013 298 754.975 M 346.195 755.500 C 346.215 757.150, 346.439 757.704, 346.693 756.731 C 346.947 755.758, 346.930 754.408, 346.656 753.731 C 346.382 753.054, 346.175 753.850, 346.195 755.500 M 346.079 762.583 C 346.127 763.748, 346.364 763.985, 346.683 763.188 C 346.972 762.466, 346.936 761.603, 346.604 761.271 C 346.272 760.939, 346.036 761.529, 346.079 762.583 M 319.667 784.667 C 319.300 785.033, 318.993 787.846, 318.985 790.917 C 318.974 794.890, 318.690 796.068, 318 795 C 317.279 793.885, 317.056 794.398, 317.131 797 C 317.188 798.961, 317.445 799.667, 317.717 798.605 C 318.099 797.116, 318.383 797.002, 319.047 798.076 C 320.359 800.199, 320.776 799.059, 321.545 791.250 C 322.206 784.536, 321.671 782.662, 319.667 784.667 M 317.079 790.583 C 317.127 791.748, 317.364 791.985, 317.683 791.188 C 317.972 790.466, 317.936 789.603, 317.604 789.271 C 317.272 788.939, 317.036 789.529, 317.079 790.583 M 319 802.500 C 319 803.875, 318.550 805, 318 805 C 317.450 805, 317 806.575, 317 808.500 C 317 810.625, 317.491 812.006, 318.250 812.015 C 319.138 812.026, 319.174 812.243, 318.374 812.765 C 317.649 813.238, 317.284 817.144, 317.348 823.726 C 317.403 829.350, 317.739 833.400, 318.095 832.726 C 318.696 831.590, 321.010 807.335, 321.003 802.250 C 321.001 801.013, 320.550 800, 320 800 C 319.450 800, 319 801.125, 319 802.500 M 346.079 810.583 C 346.127 811.748, 346.364 811.985, 346.683 811.188 C 346.972 810.466, 346.936 809.603, 346.604 809.271 C 346.272 808.939, 346.036 809.529, 346.079 810.583 M 346.320 826 C 346.320 829.575, 346.502 831.038, 346.723 829.250 C 346.945 827.462, 346.945 824.538, 346.723 822.750 C 346.502 820.962, 346.320 822.425, 346.320 826 M 555.252 840.500 C 555.263 842.700, 555.468 843.482, 555.707 842.238 C 555.946 840.994, 555.937 839.194, 555.687 838.238 C 555.437 837.282, 555.241 838.300, 555.252 840.500 M 346.158 850 C 346.158 851.375, 346.385 851.938, 346.662 851.250 C 346.940 850.563, 346.940 849.438, 346.662 848.750 C 346.385 848.063, 346.158 848.625, 346.158 850 M 346.195 858.500 C 346.215 860.150, 346.439 860.704, 346.693 859.731 C 346.947 858.758, 346.930 857.408, 346.656 856.731 C 346.382 856.054, 346.175 856.850, 346.195 858.500 M 346.310 869.500 C 346.315 872.800, 346.502 874.029, 346.725 872.232 C 346.947 870.435, 346.943 867.735, 346.715 866.232 C 346.486 864.729, 346.304 866.200, 346.310 869.500 M 346.158 878 C 346.158 879.375, 346.385 879.938, 346.662 879.250 C 346.940 878.563, 346.940 877.438, 346.662 876.750 C 346.385 876.063, 346.158 876.625, 346.158 878 M 346.079 929.583 C 346.127 930.748, 346.364 930.985, 346.683 930.188 C 346.972 929.466, 346.936 928.603, 346.604 928.271 C 346.272 927.939, 346.036 928.529, 346.079 929.583 M 346.079 934.583 C 346.127 935.748, 346.364 935.985, 346.683 935.188 C 346.972 934.466, 346.936 933.603, 346.604 933.271 C 346.272 932.939, 346.036 933.529, 346.079 934.583 M 306.478 1039.500 C 306.478 1085.700, 306.600 1104.454, 306.750 1081.175 C 306.899 1057.896, 306.899 1020.096, 306.750 997.175 C 306.600 974.254, 306.478 993.300, 306.478 1039.500 M 345.079 968.583 C 345.127 969.748, 345.364 969.985, 345.683 969.188 C 345.972 968.466, 345.936 967.603, 345.604 967.271 C 345.272 966.939, 345.036 967.529, 345.079 968.583 M 392.079 989.583 C 392.127 990.748, 392.364 990.985, 392.683 990.188 C 392.972 989.466, 392.936 988.603, 392.604 988.271 C 392.272 987.939, 392.036 988.529, 392.079 989.583 M 394 1001 C 394 1001.550, 394.477 1002, 395.059 1002 C 395.641 1002, 395.840 1001.550, 395.500 1001 C 395.160 1000.450, 394.684 1000, 394.441 1000 C 394.198 1000, 394 1000.450, 394 1001 M 394 1004 C 394 1004.550, 394.450 1005, 395 1005 C 395.550 1005, 396 1004.550, 396 1004 C 396 1003.450, 395.550 1003, 395 1003 C 394.450 1003, 394 1003.450, 394 1004 M 400.813 1010.683 C 401.534 1010.972, 402.397 1010.936, 402.729 1010.604 C 403.061 1010.272, 402.471 1010.036, 401.417 1010.079 C 400.252 1010.127, 400.015 1010.364, 400.813 1010.683 M 345.232 1025 C 345.232 1026.925, 345.438 1027.713, 345.689 1026.750 C 345.941 1025.787, 345.941 1024.213, 345.689 1023.250 C 345.438 1022.288, 345.232 1023.075, 345.232 1025 M 308.500 1053 C 308.160 1053.550, 308.584 1054, 309.441 1054 C 310.298 1054, 311 1053.550, 311 1053 C 311 1052.450, 310.577 1052, 310.059 1052 C 309.541 1052, 308.840 1052.450, 308.500 1053 M 344.079 1064.583 C 344.127 1065.748, 344.364 1065.985, 344.683 1065.188 C 344.972 1064.466, 344.936 1063.603, 344.604 1063.271 C 344.272 1062.939, 344.036 1063.529, 344.079 1064.583 M 316.630 1068.179 C 315.246 1068.959, 315.084 1069.434, 316.005 1070.003 C 316.690 1070.426, 317.247 1072.061, 317.244 1073.636 C 317.240 1075.211, 317.746 1076.838, 318.369 1077.250 C 319.208 1077.806, 319.202 1078.194, 318.349 1078.750 C 317 1079.629, 316.777 1087, 318.100 1087 C 318.595 1087, 319.069 1085.088, 319.152 1082.750 C 319.368 1076.738, 319.443 1076.224, 320.214 1075.453 C 320.958 1074.709, 320.130 1068.939, 319.118 1067.812 C 318.778 1067.434, 317.659 1067.599, 316.630 1068.179 M 344.079 1073.583 C 344.127 1074.748, 344.364 1074.985, 344.683 1074.188 C 344.972 1073.466, 344.936 1072.603, 344.604 1072.271 C 344.272 1071.939, 344.036 1072.529, 344.079 1073.583 M 359 1082 C 359 1082.550, 359.450 1083, 360 1083 C 360.550 1083, 361 1082.550, 361 1082 C 361 1081.450, 360.550 1081, 360 1081 C 359.450 1081, 359 1081.450, 359 1082 M 317.606 1101.829 C 317.208 1102.473, 317.148 1103.430, 317.473 1103.956 C 317.797 1104.481, 318.074 1109.319, 318.087 1114.706 C 318.115 1125.968, 318.885 1133.189, 319.986 1132.509 C 320.889 1131.951, 320.036 1105.365, 319.026 1102.579 C 318.554 1101.278, 318.096 1101.036, 317.606 1101.829 M 306.310 1129.500 C 306.315 1132.800, 306.502 1134.029, 306.725 1132.232 C 306.947 1130.435, 306.943 1127.735, 306.715 1126.232 C 306.486 1124.729, 306.304 1126.200, 306.310 1129.500 M 306.310 1141.500 C 306.315 1144.800, 306.502 1146.029, 306.725 1144.232 C 306.947 1142.435, 306.943 1139.735, 306.715 1138.232 C 306.486 1136.729, 306.304 1138.200, 306.310 1141.500 M 306.300 1155 C 306.300 1158.025, 306.487 1159.263, 306.716 1157.750 C 306.945 1156.237, 306.945 1153.763, 306.716 1152.250 C 306.487 1150.737, 306.300 1151.975, 306.300 1155 M 319 1170.500 C 319 1171.875, 319.450 1173, 320 1173 C 320.550 1173, 321 1171.875, 321 1170.500 C 321 1169.125, 320.550 1168, 320 1168 C 319.450 1168, 319 1169.125, 319 1170.500 M 306.252 1183.500 C 306.263 1185.700, 306.468 1186.482, 306.707 1185.238 C 306.946 1183.994, 306.937 1182.194, 306.687 1181.238 C 306.437 1180.282, 306.241 1181.300, 306.252 1183.500 M 319.900 1181.691 C 319.208 1194.169, 320.635 1224, 321.924 1224 C 322.304 1224, 322.459 1222.537, 322.269 1220.750 C 322.078 1218.963, 321.889 1209.282, 321.848 1199.239 C 321.807 1189.195, 321.374 1180.731, 320.886 1180.430 C 320.399 1180.129, 319.955 1180.696, 319.900 1181.691 M 306.405 1208.500 C 306.406 1217.300, 306.559 1220.766, 306.745 1216.203 C 306.930 1211.639, 306.929 1204.439, 306.742 1200.203 C 306.555 1195.966, 306.404 1199.700, 306.405 1208.500 M 319.779 1231.750 C 319.145 1234.196, 319.911 1236, 321.583 1236 C 323.079 1236, 323.405 1234.219, 322.393 1231.582 C 321.591 1229.491, 320.344 1229.572, 319.779 1231.750 M 319.660 1241.750 C 320.725 1253.956, 321.213 1257, 322.105 1257 C 322.689 1257, 322.865 1253.360, 322.553 1247.750 C 322.271 1242.662, 322.031 1238.162, 322.020 1237.750 C 322.009 1237.338, 321.380 1237, 320.623 1237 C 319.588 1237, 319.349 1238.182, 319.660 1241.750 M 321 1265.059 C 321 1265.641, 321.450 1265.840, 322 1265.500 C 322.550 1265.160, 323 1264.684, 323 1264.441 C 323 1264.198, 322.550 1264, 322 1264 C 321.450 1264, 321 1264.477, 321 1265.059 M 321 1269 C 321 1269.550, 321.477 1270, 322.059 1270 C 322.641 1270, 322.840 1269.550, 322.500 1269 C 322.160 1268.450, 321.684 1268, 321.441 1268 C 321.198 1268, 321 1268.450, 321 1269 M 306.158 1276 C 306.158 1277.375, 306.385 1277.938, 306.662 1277.250 C 306.940 1276.563, 306.940 1275.438, 306.662 1274.750 C 306.385 1274.063, 306.158 1274.625, 306.158 1276 M 320.609 1275.824 C 320.256 1276.395, 320.455 1277.163, 321.050 1277.531 C 322.536 1278.449, 323.062 1277.719, 322.071 1276.114 C 321.539 1275.255, 321.024 1275.152, 320.609 1275.824 M 321 1283 C 321 1284.650, 321.450 1286, 322 1286 C 322.550 1286, 323 1284.650, 323 1283 C 323 1281.350, 322.550 1280, 322 1280 C 321.450 1280, 321 1281.350, 321 1283 M 306.079 1290.583 C 306.127 1291.748, 306.364 1291.985, 306.683 1291.188 C 306.972 1290.466, 306.936 1289.603, 306.604 1289.271 C 306.272 1288.939, 306.036 1289.529, 306.079 1290.583 M 321 1290 C 321 1290.550, 321.477 1291, 322.059 1291 C 322.641 1291, 322.840 1290.550, 322.500 1290 C 322.160 1289.450, 321.684 1289, 321.441 1289 C 321.198 1289, 321 1289.450, 321 1290 M 321 1294 C 321 1294.550, 321.450 1295, 322 1295 C 322.550 1295, 323 1294.550, 323 1294 C 323 1293.450, 322.550 1293, 322 1293 C 321.450 1293, 321 1293.450, 321 1294 M 306.079 1298.583 C 306.127 1299.748, 306.364 1299.985, 306.683 1299.188 C 306.972 1298.466, 306.936 1297.603, 306.604 1297.271 C 306.272 1296.939, 306.036 1297.529, 306.079 1298.583 M 322.627 1301.605 C 322.258 1302.763, 322.347 1304.765, 322.824 1306.054 L 323.691 1308.397 324.172 1305.880 C 324.437 1304.495, 324.348 1302.493, 323.975 1301.431 C 323.323 1299.576, 323.270 1299.583, 322.627 1301.605 M 306.195 1304.500 C 306.215 1306.150, 306.439 1306.704, 306.693 1305.731 C 306.947 1304.758, 306.930 1303.408, 306.656 1302.731 C 306.382 1302.054, 306.175 1302.850, 306.195 1304.500 M 321.748 1311.662 C 322.520 1311.973, 322.765 1313.087, 322.390 1314.583 C 321.937 1316.389, 322.190 1317, 323.392 1317 C 325.280 1317, 325.297 1316.910, 324.025 1313.565 C 323.488 1312.154, 322.476 1311.036, 321.775 1311.079 C 320.774 1311.141, 320.768 1311.266, 321.748 1311.662 M 322.596 1332.250 C 321.876 1335.914, 322.316 1345, 323.214 1345 C 323.670 1345, 323.977 1341.625, 323.897 1337.500 C 323.749 1329.807, 323.373 1328.293, 322.596 1332.250 M 306.079 1376.583 C 306.127 1377.748, 306.364 1377.985, 306.683 1377.188 C 306.972 1376.466, 306.936 1375.603, 306.604 1375.271 C 306.272 1374.939, 306.036 1375.529, 306.079 1376.583 M 587.583 1378.866 C 587.152 1379.563, 587.070 1380.403, 587.400 1380.733 C 588.295 1381.628, 589.271 1380.312, 588.787 1378.862 C 588.449 1377.846, 588.213 1377.846, 587.583 1378.866 M 323.195 1409.500 C 323.215 1411.150, 323.439 1411.704, 323.693 1410.731 C 323.947 1409.758, 323.930 1408.408, 323.656 1407.731 C 323.382 1407.054, 323.175 1407.850, 323.195 1409.500 M 306.343 1417.500 C 306.346 1421.900, 306.522 1423.576, 306.733 1421.224 C 306.945 1418.872, 306.942 1415.272, 306.727 1413.224 C 306.512 1411.176, 306.339 1413.100, 306.343 1417.500 M 321.565 1426.895 C 321.260 1427.388, 321.684 1428.048, 322.506 1428.364 C 323.413 1428.712, 324 1428.361, 324 1427.469 C 324 1425.851, 322.437 1425.483, 321.565 1426.895 M 322.681 1432.159 C 321.257 1432.955, 321.031 1433.834, 321.604 1436.334 C 322.003 1438.075, 322.284 1440.279, 322.228 1441.230 C 322.173 1442.182, 322.505 1443.194, 322.966 1443.479 C 323.765 1443.973, 325.605 1432.271, 324.847 1431.514 C 324.647 1431.314, 323.672 1431.604, 322.681 1432.159 M 306.435 1463 C 306.435 1477.025, 306.575 1482.763, 306.747 1475.750 C 306.919 1468.737, 306.919 1457.263, 306.747 1450.250 C 306.575 1443.237, 306.435 1448.975, 306.435 1463 M 322.981 1445.352 C 321.872 1446.462, 322.665 1489.065, 323.817 1490.217 C 324.449 1490.849, 325.223 1491.111, 325.536 1490.798 C 326.551 1489.782, 326.882 1481.045, 325.927 1480.455 C 324.680 1479.684, 324.740 1476, 326 1476 C 326.550 1476, 327 1475.073, 327 1473.941 C 327 1472.809, 326.663 1472.090, 326.250 1472.345 C 325.837 1472.600, 325.368 1468.014, 325.207 1462.154 C 324.917 1451.598, 323.960 1444.374, 322.981 1445.352 M 778.750 1461.662 C 779.438 1461.940, 780.563 1461.940, 781.250 1461.662 C 781.938 1461.385, 781.375 1461.158, 780 1461.158 C 778.625 1461.158, 778.063 1461.385, 778.750 1461.662 M 797.500 1462 C 800.249 1463.181, 801.828 1463.181, 800 1462 C 799.175 1461.467, 797.825 1461.055, 797 1461.086 C 796.011 1461.122, 796.181 1461.433, 797.500 1462 M 771 1462.988 C 769.889 1463.697, 770.318 1463.888, 772.653 1463.723 C 774.386 1463.600, 775.597 1463.162, 775.344 1462.750 C 774.715 1461.728, 772.811 1461.832, 771 1462.988 M 788.500 1465 C 788.160 1465.550, 788.557 1466, 789.382 1466 C 790.207 1466, 791.160 1465.550, 791.500 1465 C 791.840 1464.450, 791.443 1464, 790.618 1464 C 789.793 1464, 788.840 1464.450, 788.500 1465 M 337 1467.059 C 337 1467.641, 337.450 1467.840, 338 1467.500 C 338.550 1467.160, 339 1466.684, 339 1466.441 C 339 1466.198, 338.550 1466, 338 1466 C 337.450 1466, 337 1466.477, 337 1467.059 M 794.813 1466.683 C 795.534 1466.972, 796.397 1466.936, 796.729 1466.604 C 797.061 1466.272, 796.471 1466.036, 795.417 1466.079 C 794.252 1466.127, 794.015 1466.364, 794.813 1466.683 M 731 1468.120 C 731 1469.118, 731.409 1469.190, 739 1469.540 C 745.701 1469.848, 757.593 1470.887, 761 1471.462 C 762.375 1471.694, 769.800 1472.116, 777.500 1472.399 C 787.763 1472.777, 790.833 1472.636, 789 1471.869 C 787.625 1471.293, 784.700 1470.621, 782.500 1470.376 C 777.114 1469.775, 768.956 1468.298, 766.500 1467.478 C 764.850 1466.928, 764.763 1467.010, 766 1467.946 C 767.133 1468.803, 764.687 1468.937, 756 1468.497 C 749.675 1468.177, 741.462 1467.763, 737.750 1467.577 C 734.038 1467.392, 731 1467.636, 731 1468.120 M 332.035 1470.934 C 330.498 1473.807, 330.768 1474.179, 333 1472.268 C 335.146 1470.431, 335.599 1469, 334.035 1469 C 333.505 1469, 332.605 1469.870, 332.035 1470.934 M 741.269 1477.693 C 742.242 1477.947, 743.592 1477.930, 744.269 1477.656 C 744.946 1477.382, 744.150 1477.175, 742.500 1477.195 C 740.850 1477.215, 740.296 1477.439, 741.269 1477.693 M 330 1481.941 C 330 1482.459, 330.450 1483.160, 331 1483.500 C 331.550 1483.840, 332 1483.416, 332 1482.559 C 332 1481.702, 331.550 1481, 331 1481 C 330.450 1481, 330 1481.423, 330 1481.941 M 306.415 1507 C 306.415 1517.175, 306.564 1521.338, 306.745 1516.250 C 306.927 1511.162, 306.927 1502.838, 306.745 1497.750 C 306.564 1492.662, 306.415 1496.825, 306.415 1507 M 324 1493 C 324 1493.550, 324.477 1494, 325.059 1494 C 325.641 1494, 325.840 1493.550, 325.500 1493 C 325.160 1492.450, 324.684 1492, 324.441 1492 C 324.198 1492, 324 1492.450, 324 1493 M 306.232 1533 C 306.232 1534.925, 306.438 1535.713, 306.689 1534.750 C 306.941 1533.787, 306.941 1532.213, 306.689 1531.250 C 306.438 1530.287, 306.232 1531.075, 306.232 1533 M 886.441 1538.096 C 886.068 1538.699, 886.437 1539.866, 887.261 1540.689 C 888.591 1542.019, 888.703 1541.897, 888.263 1539.593 C 887.713 1536.717, 887.434 1536.488, 886.441 1538.096 M 306.079 1540.583 C 306.127 1541.748, 306.364 1541.985, 306.683 1541.188 C 306.972 1540.466, 306.936 1539.603, 306.604 1539.271 C 306.272 1538.939, 306.036 1539.529, 306.079 1540.583 M 306.079 1545.583 C 306.127 1546.748, 306.364 1546.985, 306.683 1546.188 C 306.972 1545.466, 306.936 1544.603, 306.604 1544.271 C 306.272 1543.939, 306.036 1544.529, 306.079 1545.583 M 306.195 1575.500 C 306.215 1577.150, 306.439 1577.704, 306.693 1576.731 C 306.947 1575.758, 306.930 1574.408, 306.656 1573.731 C 306.382 1573.054, 306.175 1573.850, 306.195 1575.500 M 864.813 1653.683 C 865.534 1653.972, 866.397 1653.936, 866.729 1653.604 C 867.061 1653.272, 866.471 1653.036, 865.417 1653.079 C 864.252 1653.127, 864.015 1653.364, 864.813 1653.683 M 827.750 1656.662 C 828.438 1656.940, 829.563 1656.940, 830.250 1656.662 C 830.938 1656.385, 830.375 1656.158, 829 1656.158 C 827.625 1656.158, 827.063 1656.385, 827.750 1656.662 M 834.813 1656.683 C 835.534 1656.972, 836.397 1656.936, 836.729 1656.604 C 837.061 1656.272, 836.471 1656.036, 835.417 1656.079 C 834.252 1656.127, 834.015 1656.364, 834.813 1656.683 M 843.762 1656.707 C 845.006 1656.946, 846.806 1656.937, 847.762 1656.687 C 848.718 1656.437, 847.700 1656.241, 845.500 1656.252 C 843.300 1656.263, 842.518 1656.468, 843.762 1656.707 M 828.379 1661.805 C 828.951 1662.730, 861.784 1662.549, 862.717 1661.616 C 863.056 1661.277, 855.357 1661, 845.608 1661 C 835.859 1661, 828.106 1661.362, 828.379 1661.805 M 679 1663 C 679 1663.550, 679.450 1664, 680 1664 C 680.550 1664, 681 1663.550, 681 1663 C 681 1662.450, 680.550 1662, 680 1662 C 679.450 1662, 679 1662.450, 679 1663 M 778.813 1662.683 C 779.534 1662.972, 780.397 1662.936, 780.729 1662.604 C 781.061 1662.272, 780.471 1662.036, 779.417 1662.079 C 778.252 1662.127, 778.015 1662.364, 778.813 1662.683 M 604.750 1663.723 C 606.538 1663.945, 609.462 1663.945, 611.250 1663.723 C 613.038 1663.502, 611.575 1663.320, 608 1663.320 C 604.425 1663.320, 602.962 1663.502, 604.750 1663.723 M 615.750 1663.662 C 616.438 1663.940, 617.563 1663.940, 618.250 1663.662 C 618.938 1663.385, 618.375 1663.158, 617 1663.158 C 615.625 1663.158, 615.063 1663.385, 615.750 1663.662 M 620.750 1663.662 C 621.438 1663.940, 622.563 1663.940, 623.250 1663.662 C 623.938 1663.385, 623.375 1663.158, 622 1663.158 C 620.625 1663.158, 620.063 1663.385, 620.750 1663.662 M 639.789 1663.741 C 643.248 1663.937, 648.648 1663.936, 651.789 1663.738 C 654.930 1663.540, 652.100 1663.380, 645.500 1663.382 C 638.900 1663.384, 636.330 1663.546, 639.789 1663.741 M 659.250 1663.689 C 660.212 1663.941, 661.788 1663.941, 662.750 1663.689 C 663.712 1663.438, 662.925 1663.232, 661 1663.232 C 659.075 1663.232, 658.288 1663.438, 659.250 1663.689 M 705.750 1663.732 C 708.087 1663.943, 711.913 1663.943, 714.250 1663.732 C 716.587 1663.522, 714.675 1663.349, 710 1663.349 C 705.325 1663.349, 703.413 1663.522, 705.750 1663.732 M 721.750 1663.662 C 722.438 1663.940, 723.563 1663.940, 724.250 1663.662 C 724.938 1663.385, 724.375 1663.158, 723 1663.158 C 721.625 1663.158, 721.063 1663.385, 721.750 1663.662 M 727.778 1664.178 C 728.201 1664.601, 729.887 1664.537, 731.524 1664.035 C 734.472 1663.131, 734.464 1663.124, 730.754 1663.265 C 728.694 1663.344, 727.355 1663.755, 727.778 1664.178 M 755.750 1663.662 C 756.438 1663.940, 757.563 1663.940, 758.250 1663.662 C 758.938 1663.385, 758.375 1663.158, 757 1663.158 C 755.625 1663.158, 755.063 1663.385, 755.750 1663.662 M 375.430 1725.887 C 376.354 1727.382, 383.035 1728.216, 384.480 1727.016 C 385.211 1726.410, 387.089 1726.165, 388.654 1726.472 C 390.962 1726.925, 391.122 1726.852, 389.500 1726.086 C 386.948 1724.880, 374.701 1724.707, 375.430 1725.887 M 423.813 1727.683 C 424.534 1727.972, 425.397 1727.936, 425.729 1727.604 C 426.061 1727.272, 425.471 1727.036, 424.417 1727.079 C 423.252 1727.127, 423.015 1727.364, 423.813 1727.683" stroke="none" fill="black" fill-rule="evenodd"/>
</svg>