<svg xmlns="http://www.w3.org/2000/svg" width="1240" height="1753" viewBox="0 0 1240 1753" version="1.1">
	<path d="M 591.637 60.697 C 591.523 60.810, 579.296 61.199, 564.465 61.560 C 518.085 62.692, 512.805 62.846, 501 63.418 C 490.760 63.913, 477.692 64.076, 454 64.001 C 437.622 63.950, 420.357 64.837, 417.753 65.865 C 412.116 68.088, 388.369 70.358, 370 70.429 C 353.245 70.493, 351.074 70.303, 346.978 68.407 C 342.010 66.108, 337.444 66.464, 340.403 68.920 C 343.085 71.145, 342.217 71.999, 337.250 72.021 C 334.637 72.032, 327.100 72.693, 320.500 73.490 C 313.900 74.286, 308.136 74.952, 307.691 74.969 C 307.246 74.986, 307.203 75.520, 307.595 76.155 C 308.049 76.888, 307.869 77.037, 307.101 76.563 C 306.388 76.122, 305.053 76.775, 303.838 78.158 C 302.707 79.446, 301.458 80.413, 301.062 80.307 C 300.667 80.201, 300.415 81.101, 300.503 82.307 C 300.643 84.225, 301.429 84.586, 306.772 85.183 C 310.132 85.558, 313.920 86.451, 315.190 87.167 C 317.432 88.430, 317.383 88.487, 313.500 89.092 C 309.538 89.710, 309.549 89.718, 314.691 89.858 C 317.546 89.936, 320.120 90.385, 320.410 90.855 C 320.701 91.325, 319.841 92.740, 318.500 94 C 317.159 95.260, 316.306 96.686, 316.605 97.170 C 316.904 97.654, 316.778 97.947, 316.324 97.823 C 314.941 97.442, 307.632 101.660, 305.358 104.153 C 302.561 107.217, 301.371 112.545, 303.316 113.291 C 305.097 113.975, 306.091 118.742, 304.605 119.476 C 303.997 119.776, 304.625 119.756, 306 119.430 C 313.003 117.773, 313.516 117.732, 312.399 118.926 C 311.794 119.573, 310.331 120.175, 309.149 120.264 C 307.490 120.389, 307 121.076, 307 123.280 C 307 126.213, 307.361 126.278, 312.649 124.295 C 313.281 124.058, 314.095 124.344, 314.458 124.932 C 314.821 125.519, 314.416 126, 313.559 126 C 312.702 126, 312 126.401, 312 126.892 C 312 127.382, 310.875 128.066, 309.500 128.411 C 308.125 128.756, 307 129.535, 307 130.141 C 307 130.883, 307.492 130.837, 308.500 130 C 311.211 127.750, 310.065 130.040, 307.282 132.433 C 304.943 134.446, 304.751 134.996, 305.905 136.385 C 307.401 138.188, 310.552 138.534, 311.500 137 C 311.840 136.450, 314.004 136.003, 316.309 136.006 L 320.500 136.012 317.636 137.506 C 316.060 138.328, 313.734 139, 312.467 139 C 309.494 139, 304.015 142.115, 304.006 143.809 C 304.003 144.529, 304.450 144.840, 305 144.500 C 305.550 144.160, 306 144.584, 306 145.441 C 306 146.298, 306.498 147, 307.107 147 C 307.721 147, 307.934 147.728, 307.587 148.634 C 307.056 150.018, 307.510 150.179, 310.546 149.686 C 315.310 148.913, 314.657 150.775, 309.457 152.790 C 304.438 154.734, 304.249 154.913, 306.029 156.039 C 306.838 156.551, 307.036 156.976, 306.468 156.985 C 305.901 156.993, 305.343 158.125, 305.229 159.500 C 305.088 161.209, 305.528 162, 306.618 162 C 307.601 162, 308 162.557, 307.658 163.449 C 307.323 164.321, 307.866 165.140, 309.023 165.507 C 310.547 165.991, 310.743 166.518, 309.972 168.058 C 309.437 169.126, 308.558 170.882, 308.017 171.960 C 307.262 173.464, 307.436 174.161, 308.767 174.959 C 310.411 175.945, 310.411 176.068, 308.766 177.348 C 307.812 178.090, 307.333 179, 307.703 179.369 C 308.438 180.105, 308.821 182.173, 309.483 188.987 C 309.776 191.999, 309.406 194.258, 308.356 195.860 C 307.496 197.172, 307.314 197.924, 307.952 197.529 C 308.788 197.013, 309.027 198.237, 308.806 201.906 C 308.638 204.708, 308.236 207, 307.914 207 C 307.592 207, 307.260 208.913, 307.176 211.250 C 307.076 214.077, 306.386 216.027, 305.118 217.075 C 302.981 218.839, 303.245 223.129, 305.611 225.092 C 307.748 226.865, 307.284 228.005, 303.955 229.166 C 300.467 230.381, 300.523 232.174, 304.074 233.029 L 306.500 233.613 304 234.422 C 302.625 234.867, 301.050 235.291, 300.500 235.365 C 299.950 235.439, 299.493 235.950, 299.485 236.500 C 299.476 237.050, 299.105 238.073, 298.661 238.774 C 297.721 240.255, 298.901 246.723, 299.859 245.341 C 300.211 244.832, 301.808 244.660, 303.406 244.958 C 306.027 245.447, 306.150 245.635, 304.656 246.872 C 302.545 248.622, 302.521 251.602, 304.613 252.405 C 305.919 252.906, 305.990 253.307, 304.990 254.512 C 303.989 255.718, 304.042 256, 305.266 256 C 306.925 256, 307.094 259.063, 305.500 260.235 C 304.898 260.677, 305.046 260.975, 305.872 260.985 C 306.937 260.997, 306.983 261.315, 306.081 262.403 C 305.194 263.472, 305.199 263.900, 306.102 264.201 C 307.011 264.504, 307.004 265.124, 306.074 266.862 C 305.139 268.609, 305.132 269.454, 306.045 270.554 C 307.160 271.898, 306.878 280.771, 305.657 282.746 C 304.418 284.750, 304.597 297.809, 305.884 299.360 C 306.689 300.330, 306.918 301.678, 306.459 302.737 C 305.386 305.208, 305.328 307.301, 306.295 308.676 C 306.750 309.323, 306.982 310.673, 306.811 311.676 C 306.607 312.872, 307.075 313.457, 308.171 313.374 C 310.695 313.184, 309.202 315.911, 306.397 316.615 C 303.077 317.448, 304.399 318.962, 308.318 318.814 C 310.099 318.747, 312.669 319.303, 314.029 320.048 C 318.203 322.338, 327.519 323.648, 326.366 321.783 C 325.967 321.137, 327.435 320.944, 330.457 321.246 C 333.965 321.596, 335.313 321.347, 335.725 320.274 C 336.132 319.214, 336.473 319.147, 337.013 320.022 C 337.842 321.363, 364 322.491, 364 321.186 C 364 320.093, 355.763 318.027, 350.736 317.858 C 341.883 317.561, 360.498 316.107, 373 316.119 C 387.970 316.133, 396.703 316.938, 394.822 318.131 C 394.095 318.592, 392.375 318.983, 391 319 C 389.017 319.024, 388.810 319.231, 390 320 C 391.986 321.283, 390.388 321.278, 387.988 319.993 C 386.536 319.216, 385.881 319.387, 385.118 320.743 C 384.226 322.329, 384.032 322.256, 383.128 320 C 382.533 318.514, 382.101 318.152, 382.063 319.106 C 382.010 320.459, 380.660 320.695, 373.500 320.602 C 368.403 320.536, 365 320.894, 365 321.496 C 365 322.048, 367.588 322.545, 370.750 322.599 C 380.332 322.764, 382 322.961, 382 323.927 C 382 324.436, 381.212 325.059, 380.250 325.311 C 378.884 325.668, 378.976 325.793, 380.667 325.884 C 381.858 325.948, 383.034 325.437, 383.280 324.750 C 383.525 324.063, 384.095 323.845, 384.546 324.267 C 384.998 324.688, 384.834 325.566, 384.183 326.217 C 382.548 327.852, 382.703 329, 384.559 329 C 385.416 329, 385.869 328.597, 385.565 328.105 C 385.260 327.612, 385.571 327.005, 386.256 326.756 C 388.180 326.054, 395 327.109, 395 328.109 C 395 329.460, 396.681 329.176, 398.308 327.549 C 399.106 326.752, 400.938 325.803, 402.379 325.441 C 403.821 325.079, 405 324.292, 405 323.692 C 405 322.963, 405.399 322.999, 406.200 323.800 C 406.860 324.460, 408.323 325.059, 409.450 325.132 C 410.578 325.204, 409.925 325.595, 408 326 L 404.500 326.737 407.550 326.868 C 409.228 326.941, 411.109 327.509, 411.732 328.132 C 412.354 328.754, 414.807 329.402, 417.182 329.572 C 419.954 329.770, 420.803 329.604, 419.554 329.108 C 417.630 328.345, 417.630 328.330, 419.570 327.823 C 420.649 327.541, 422.425 327.658, 423.516 328.085 C 425.207 328.745, 425.241 328.870, 423.750 328.930 C 422.788 328.968, 422 329.342, 422 329.760 C 422 330.178, 425.262 330.266, 429.250 329.956 C 433.238 329.645, 442.013 329.416, 448.750 329.446 C 455.859 329.477, 461 329.101, 461 328.550 C 461 328.028, 461.540 328.140, 462.200 328.800 C 462.860 329.460, 464.265 330, 465.322 330 C 466.918 330, 467.033 330.255, 466 331.500 C 464.947 332.768, 465.160 333, 467.378 333 C 468.820 333, 470 332.561, 470 332.025 C 470 330.621, 474.297 332.420, 479.509 336.006 C 486.624 340.901, 491.190 341.458, 513.670 340.174 C 535.737 338.912, 542.775 338.257, 544.289 337.322 C 544.851 336.974, 556.941 336.494, 571.155 336.255 L 597 335.819 597.069 338.160 C 597.344 347.494, 597.070 386.732, 596.588 407 C 595.432 455.566, 595.340 525.951, 596.396 553.500 C 596.670 560.650, 597.341 568.275, 597.886 570.445 C 598.431 572.614, 598.620 574.805, 598.306 575.314 C 597.704 576.288, 597.835 608.018, 598.466 614 C 598.669 615.925, 598.935 622.225, 599.056 628 C 599.181 633.968, 599.572 637.421, 599.963 636 C 601.315 631.080, 602.824 646.057, 602.981 665.955 C 603.066 676.655, 603.338 685.739, 603.587 686.141 C 604.779 688.069, 605.089 747.260, 604.215 806 C 604.178 808.475, 604.338 811.850, 604.571 813.500 C 604.803 815.150, 605.007 826.738, 605.025 839.250 C 605.042 851.763, 605.418 862, 605.861 862 C 606.303 862, 606.334 864.439, 605.930 867.421 C 603.216 887.419, 603.308 974.339, 606.068 999 C 609.514 1029.779, 611.198 1050.013, 611.365 1062.666 C 611.439 1068.257, 611.837 1073.170, 612.250 1073.583 C 612.995 1074.329, 613.377 1070.008, 613.031 1064.750 C 612.781 1060.968, 614.610 1061.289, 615.920 1065.258 C 618.257 1072.338, 616.966 1081, 613.575 1081 C 611.856 1081, 611.695 1085.361, 611.756 1130.250 C 611.782 1149.363, 611.510 1165.001, 611.151 1165.001 C 610.382 1165.003, 610.423 1180.810, 611.368 1249.500 C 611.754 1277.550, 612.027 1306.125, 611.974 1313 C 611.922 1319.875, 611.787 1340.125, 611.674 1358 C 611.561 1375.875, 611.083 1391.109, 610.612 1391.853 C 610.141 1392.597, 609.590 1400.486, 609.388 1409.384 C 609.186 1418.282, 608.596 1427.798, 608.077 1430.531 C 607.558 1433.264, 607.334 1441.678, 607.581 1449.230 L 608.029 1462.960 592.098 1462.591 C 583.336 1462.388, 575.740 1461.957, 575.217 1461.634 C 573.777 1460.744, 566.464 1460.072, 544.670 1458.826 C 522.190 1457.542, 517.624 1458.099, 510.509 1462.994 C 505.297 1466.580, 501 1468.379, 501 1466.975 C 501 1466.439, 499.820 1466, 498.378 1466 C 496.160 1466, 495.947 1466.232, 497 1467.500 C 498.033 1468.745, 497.918 1469, 496.322 1469 C 495.265 1469, 493.860 1469.540, 493.200 1470.200 C 492.540 1470.860, 492 1470.973, 492 1470.450 C 492 1469.899, 486.859 1469.523, 479.750 1469.554 C 473.013 1469.584, 464.238 1469.355, 460.250 1469.044 C 456.262 1468.734, 453 1468.822, 453 1469.240 C 453 1469.658, 453.788 1470.032, 454.750 1470.070 C 456.241 1470.130, 456.207 1470.255, 454.516 1470.915 C 453.425 1471.342, 451.649 1471.459, 450.570 1471.177 C 448.630 1470.670, 448.630 1470.655, 450.554 1469.892 C 451.803 1469.396, 450.954 1469.230, 448.182 1469.428 C 445.807 1469.598, 443.354 1470.246, 442.732 1470.868 C 442.109 1471.491, 440.228 1472.059, 438.550 1472.132 L 435.500 1472.263 439 1473 C 440.925 1473.405, 441.577 1473.796, 440.450 1473.868 C 439.322 1473.941, 437.860 1474.540, 437.200 1475.200 C 436.399 1476.001, 436 1476.037, 436 1475.308 C 436 1474.708, 434.821 1473.921, 433.379 1473.559 C 431.938 1473.197, 430.106 1472.248, 429.308 1471.451 C 427.681 1469.824, 426 1469.540, 426 1470.891 C 426 1471.891, 419.180 1472.946, 417.256 1472.244 C 416.571 1471.995, 416.260 1471.388, 416.565 1470.895 C 416.869 1470.403, 416.416 1470, 415.559 1470 C 413.703 1470, 413.548 1471.148, 415.183 1472.783 C 415.834 1473.434, 415.998 1474.312, 415.546 1474.733 C 415.095 1475.155, 414.525 1474.938, 414.280 1474.250 C 414.034 1473.562, 412.858 1473.052, 411.667 1473.116 C 409.976 1473.207, 409.884 1473.332, 411.250 1473.689 C 412.213 1473.941, 413 1474.564, 413 1475.073 C 413 1476.039, 411.332 1476.236, 401.750 1476.401 C 398.588 1476.455, 396 1476.952, 396 1477.504 C 396 1478.106, 399.403 1478.464, 404.500 1478.398 C 411.660 1478.305, 413.010 1478.541, 413.063 1479.894 C 413.101 1480.848, 413.533 1480.486, 414.128 1479 C 415.032 1476.744, 415.226 1476.671, 416.118 1478.257 C 416.881 1479.613, 417.536 1479.784, 418.988 1479.007 C 421.388 1477.722, 422.986 1477.717, 421 1479 C 419.810 1479.769, 420.017 1479.976, 422 1480 C 423.375 1480.017, 425.095 1480.408, 425.822 1480.869 C 427.703 1482.062, 418.970 1482.867, 404 1482.881 C 391.498 1482.893, 372.883 1481.439, 381.736 1481.142 C 386.763 1480.973, 395 1478.907, 395 1477.814 C 395 1476.509, 368.842 1477.637, 368.013 1478.978 C 367.473 1479.853, 367.132 1479.786, 366.725 1478.726 C 366.313 1477.653, 364.965 1477.404, 361.457 1477.754 C 358.435 1478.056, 356.967 1477.863, 357.366 1477.217 C 358.519 1475.352, 349.203 1476.662, 345.029 1478.952 C 343.669 1479.697, 341.099 1480.253, 339.318 1480.186 C 335.399 1480.038, 334.077 1481.552, 337.397 1482.385 C 340.202 1483.089, 341.695 1485.816, 339.171 1485.626 C 338.075 1485.543, 337.607 1486.128, 337.811 1487.324 C 337.982 1488.327, 337.750 1489.677, 337.295 1490.324 C 336.328 1491.699, 336.386 1493.792, 337.459 1496.263 C 337.918 1497.322, 337.689 1498.670, 336.884 1499.640 C 335.597 1501.191, 335.418 1514.250, 336.657 1516.254 C 337.878 1518.229, 338.160 1527.102, 337.045 1528.446 C 336.132 1529.546, 336.139 1530.391, 337.074 1532.138 C 338.004 1533.876, 338.011 1534.496, 337.102 1534.799 C 336.199 1535.100, 336.194 1535.528, 337.081 1536.597 C 337.983 1537.685, 337.937 1538.003, 336.872 1538.015 C 336.046 1538.025, 335.898 1538.323, 336.500 1538.765 C 338.094 1539.937, 337.925 1543, 336.266 1543 C 335.042 1543, 334.989 1543.282, 335.990 1544.488 C 336.990 1545.693, 336.919 1546.094, 335.613 1546.595 C 333.521 1547.398, 333.545 1550.378, 335.656 1552.128 C 337.150 1553.365, 337.027 1553.553, 334.406 1554.042 C 332.808 1554.340, 331.211 1554.168, 330.859 1553.659 C 330.506 1553.150, 329.904 1554.162, 329.520 1555.908 C 329.132 1557.676, 329.267 1559.617, 329.827 1560.291 C 330.378 1560.956, 330.868 1561.950, 330.915 1562.500 C 330.962 1563.050, 331.337 1563.561, 331.750 1563.635 C 332.163 1563.709, 333.625 1564.133, 335 1564.578 L 337.500 1565.387 335.074 1565.971 C 331.523 1566.826, 331.467 1568.619, 334.955 1569.834 C 338.284 1570.995, 338.748 1572.135, 336.611 1573.908 C 334.245 1575.871, 333.981 1580.161, 336.118 1581.925 C 337.386 1582.973, 338.076 1584.923, 338.176 1587.750 C 338.260 1590.088, 338.592 1592, 338.914 1592 C 339.236 1592, 339.638 1594.292, 339.806 1597.094 C 340.027 1600.763, 339.788 1601.987, 338.952 1601.471 C 338.314 1601.076, 338.496 1601.828, 339.356 1603.140 C 340.406 1604.742, 340.776 1607.001, 340.483 1610.013 C 339.821 1616.827, 339.438 1618.895, 338.703 1619.631 C 338.333 1620, 338.812 1620.910, 339.766 1621.652 C 341.411 1622.932, 341.411 1623.055, 339.767 1624.041 C 338.436 1624.839, 338.262 1625.536, 339.017 1627.040 C 339.558 1628.118, 340.437 1629.874, 340.972 1630.942 C 341.743 1632.482, 341.547 1633.009, 340.023 1633.493 C 338.866 1633.860, 338.323 1634.679, 338.658 1635.551 C 339 1636.443, 338.601 1637, 337.618 1637 C 336.528 1637, 336.088 1637.791, 336.229 1639.500 C 336.343 1640.875, 336.901 1642.007, 337.468 1642.015 C 338.036 1642.024, 337.838 1642.449, 337.029 1642.961 C 335.249 1644.087, 335.438 1644.266, 340.457 1646.210 C 345.657 1648.225, 346.310 1650.087, 341.546 1649.314 C 338.510 1648.821, 338.056 1648.982, 338.587 1650.366 C 338.934 1651.272, 338.721 1652, 338.107 1652 C 337.498 1652, 337 1652.702, 337 1653.559 C 337 1654.416, 336.550 1654.840, 336 1654.500 C 335.450 1654.160, 335.003 1654.471, 335.006 1655.191 C 335.015 1656.885, 340.494 1660, 343.467 1660 C 344.734 1660, 347.060 1660.672, 348.636 1661.494 L 351.500 1662.988 347.309 1662.994 C 345.004 1662.997, 342.840 1662.550, 342.500 1662 C 341.552 1660.466, 338.401 1660.812, 336.905 1662.615 C 335.751 1664.004, 335.943 1664.554, 338.282 1666.567 C 341.065 1668.960, 342.211 1671.250, 339.500 1669 C 338.492 1668.163, 338 1668.117, 338 1668.859 C 338 1669.465, 339.125 1670.244, 340.500 1670.589 C 341.875 1670.934, 343 1671.618, 343 1672.108 C 343 1672.599, 343.702 1673, 344.559 1673 C 345.416 1673, 345.829 1673.468, 345.475 1674.041 C 344.902 1674.967, 343.250 1674.759, 339.250 1673.256 C 338.430 1672.948, 338 1673.781, 338 1675.680 C 338 1677.924, 338.483 1678.611, 340.149 1678.736 C 341.331 1678.825, 342.794 1679.427, 343.399 1680.074 C 344.516 1681.268, 344.003 1681.227, 337 1679.570 C 335.625 1679.244, 334.997 1679.224, 335.605 1679.524 C 337.091 1680.258, 336.097 1685.025, 334.316 1685.709 C 332.371 1686.455, 333.561 1691.783, 336.358 1694.847 C 338.632 1697.340, 345.941 1701.558, 347.324 1701.177 C 347.778 1701.053, 347.904 1701.346, 347.605 1701.830 C 347.306 1702.314, 348.159 1703.740, 349.500 1705 C 350.841 1706.260, 351.701 1707.675, 351.410 1708.145 C 351.120 1708.615, 348.546 1709.064, 345.691 1709.142 C 340.549 1709.282, 340.538 1709.290, 344.500 1709.908 C 348.383 1710.513, 348.432 1710.570, 346.190 1711.833 C 344.920 1712.549, 341.132 1713.442, 337.772 1713.817 C 332.429 1714.414, 331.643 1714.775, 331.503 1716.693 C 331.415 1717.899, 331.667 1718.799, 332.062 1718.693 C 332.458 1718.587, 333.707 1719.554, 334.838 1720.842 C 336.053 1722.225, 337.388 1722.878, 338.101 1722.437 C 338.869 1721.963, 339.049 1722.112, 338.595 1722.845 C 338.203 1723.480, 338.246 1724.014, 338.691 1724.031 C 339.136 1724.048, 344.900 1724.714, 351.500 1725.510 C 358.100 1726.307, 365.637 1726.968, 368.250 1726.979 C 373.217 1727.001, 374.085 1727.855, 371.403 1730.080 C 368.444 1732.536, 373.010 1732.892, 377.978 1730.593 C 382.074 1728.697, 384.245 1728.507, 401 1728.571 C 419.369 1728.642, 443.116 1730.912, 448.753 1733.135 C 451.357 1734.163, 468.622 1735.050, 485 1734.999 C 508.692 1734.924, 521.760 1735.087, 532 1735.582 C 538.325 1735.889, 549.125 1736.284, 556 1736.461 C 562.875 1736.637, 580.650 1737.111, 595.500 1737.513 C 641.399 1738.756, 642 1738.747, 642 1736.809 C 642 1734.696, 643.671 1733.552, 644.286 1735.244 C 644.632 1736.194, 645.201 1736.229, 646.621 1735.390 C 648.623 1734.207, 654 1735.429, 654 1737.066 C 654 1737.545, 654.600 1737.707, 655.332 1737.426 C 656.065 1737.145, 658.540 1737.336, 660.832 1737.851 C 663.481 1738.446, 665 1738.437, 665 1737.826 C 665 1737.298, 665.910 1737.154, 667.022 1737.507 C 668.134 1737.860, 671.106 1737.361, 673.626 1736.399 C 677.114 1735.067, 678.630 1734.912, 679.976 1735.753 C 681.172 1736.500, 682.072 1736.528, 682.759 1735.841 C 683.446 1735.154, 683.992 1735.178, 684.448 1735.916 C 684.903 1736.653, 685.713 1736.689, 686.949 1736.027 C 689.032 1734.913, 691.036 1734.838, 703.250 1735.422 C 708.894 1735.692, 712 1735.473, 712 1734.804 C 712 1734.197, 712.934 1734.044, 714.250 1734.434 C 717.776 1735.480, 724.741 1735.778, 726.094 1734.942 C 726.769 1734.525, 728.149 1734.700, 729.161 1735.332 C 730.562 1736.207, 731.477 1736.184, 733 1735.232 C 734.100 1734.545, 735 1734.362, 735 1734.824 C 735 1735.287, 737.562 1735.318, 740.693 1734.893 C 743.824 1734.468, 746.834 1734.398, 747.383 1734.737 C 749.013 1735.744, 761.178 1736.097, 760.574 1735.119 C 760.270 1734.628, 760.579 1734.246, 761.261 1734.270 C 765.279 1734.415, 766 1733.918, 766 1731 C 766 1728.638, 766.438 1728, 768.059 1728 C 769.202 1728, 769.838 1728.453, 769.489 1729.018 C 769.089 1729.665, 770.163 1729.875, 772.430 1729.594 C 774.393 1729.350, 776 1729.556, 776 1730.051 C 776 1730.570, 777.056 1730.549, 778.500 1730 C 780.212 1729.349, 781 1729.391, 781 1730.132 C 781 1730.727, 781.675 1730.955, 782.500 1730.638 C 783.325 1730.322, 784 1730.547, 784 1731.138 C 784 1731.730, 784.732 1731.933, 785.627 1731.590 C 786.521 1731.246, 787.936 1731.532, 788.771 1732.225 C 790.072 1733.305, 790.187 1733.165, 789.577 1731.242 C 789.143 1729.875, 789.282 1729, 789.933 1729 C 790.520 1729, 791 1729.638, 791 1730.418 C 791 1731.457, 792.135 1731.772, 795.250 1731.596 C 797.587 1731.463, 800.029 1731.752, 800.675 1732.238 C 802.693 1733.754, 807.336 1733.787, 811.500 1732.315 C 813.999 1731.431, 818.803 1730.972, 824.300 1731.089 C 832.573 1731.266, 833.266 1731.119, 835.855 1728.639 C 837.370 1727.187, 839.346 1726, 840.246 1726 C 841.146 1726, 842.160 1725.550, 842.500 1725 C 842.840 1724.450, 844.179 1724, 845.476 1724 C 846.772 1724, 848.060 1723.438, 848.338 1722.750 C 848.710 1721.827, 848.863 1721.859, 848.921 1722.872 C 848.985 1723.988, 849.285 1724.008, 850.524 1722.980 C 851.362 1722.284, 852.330 1721.997, 852.675 1722.342 C 853.020 1722.687, 853.797 1722.321, 854.401 1721.530 C 855.006 1720.738, 856.850 1719.882, 858.500 1719.627 C 860.150 1719.373, 861.612 1719.071, 861.750 1718.957 C 861.888 1718.843, 862.452 1718.694, 863.003 1718.625 C 863.555 1718.556, 865.070 1717.263, 866.370 1715.750 C 867.669 1714.237, 869.188 1713, 869.744 1713 C 870.300 1713, 871.324 1712.314, 872.020 1711.476 C 872.716 1710.638, 873.499 1710.166, 873.762 1710.428 C 874.579 1711.246, 876.584 1708.644, 877.775 1705.221 C 878.403 1703.417, 879.175 1693.742, 879.491 1683.721 C 880.260 1659.307, 881.094 1648.048, 881.956 1650.434 C 882.777 1652.706, 883.462 1651.809, 884.576 1647 C 885.730 1642.019, 885.729 1642.026, 885.958 1641.750 C 886.073 1641.612, 886.285 1640.600, 886.429 1639.500 C 886.573 1638.400, 887.194 1635.025, 887.809 1632 C 888.879 1626.735, 889.127 1621.476, 890.499 1575 C 890.832 1563.725, 891.287 1551.350, 891.509 1547.500 C 893.077 1520.430, 893.110 1488.196, 891.590 1468.576 C 889.478 1441.303, 887.701 1363.584, 888.987 1354.702 C 889.321 1352.391, 889.200 1348.984, 888.717 1347.130 C 888.167 1345.016, 888.212 1343.388, 888.838 1342.762 C 890.050 1341.550, 889.122 1334.803, 887.595 1333.731 C 886.848 1333.206, 887.032 1332.554, 888.173 1331.677 C 889.675 1330.524, 889.687 1330.292, 888.287 1329.409 C 886.880 1328.522, 886.887 1328.118, 888.364 1325.263 C 890.215 1321.684, 890.482 1318.416, 889 1317.500 C 888.450 1317.160, 888.007 1316.121, 888.015 1315.191 C 888.029 1313.721, 888.171 1313.696, 889.102 1315 C 889.937 1316.169, 890.035 1315.948, 889.547 1314 C 888.195 1308.604, 888.137 1307.967, 889.052 1308.532 C 890.216 1309.252, 890.216 1309.241, 889.064 1305.224 C 888.548 1303.423, 888.523 1302.205, 889.010 1302.506 C 889.495 1302.806, 889.772 1300.333, 889.626 1297.012 C 889.479 1293.691, 889.609 1290.724, 889.913 1290.420 C 890.218 1290.116, 890.524 1280.435, 890.593 1268.907 C 890.663 1257.379, 890.979 1247.687, 891.296 1247.371 C 891.613 1247.054, 891.452 1245.690, 890.939 1244.340 C 890.327 1242.730, 890.349 1242.098, 891.003 1242.502 C 892.278 1243.290, 892.318 1236.594, 891.064 1232.224 C 890.483 1230.198, 890.483 1229.181, 891.064 1229.540 C 891.579 1229.858, 892 1229.165, 892 1228 C 892 1226.835, 891.632 1226.110, 891.182 1226.388 C 890.732 1226.666, 890.394 1224.893, 890.432 1222.449 C 890.469 1220.004, 890.886 1218.003, 891.357 1218.002 C 891.828 1218.001, 891.984 1217.438, 891.703 1216.750 C 889.822 1212.149, 889.814 1212, 891.460 1212 C 892.733 1212, 892.966 1211.469, 892.433 1209.788 C 892.047 1208.572, 891.679 1205.534, 891.615 1203.038 C 891.534 1199.843, 891.108 1198.581, 890.176 1198.775 C 889.436 1198.928, 889.150 1198.567, 889.527 1197.957 C 889.898 1197.355, 890.842 1197.109, 891.624 1197.409 C 892.759 1197.845, 892.832 1197.555, 891.988 1195.977 C 891.406 1194.890, 890.495 1194, 889.965 1194 C 889.434 1194, 889 1193.495, 889 1192.878 C 889 1192.147, 889.585 1192.235, 890.673 1193.128 C 892.164 1194.350, 892.284 1194.254, 891.767 1192.250 C 891.436 1190.966, 891.643 1190, 892.249 1190 C 892.832 1190, 892.565 1189.177, 891.655 1188.171 C 889.829 1186.154, 889.431 1184.530, 891 1185.500 C 891.580 1185.859, 892.065 1184.729, 892.155 1182.809 C 892.718 1170.744, 892.654 1166.904, 891.879 1166.425 C 891.396 1166.126, 891.007 1164.896, 891.015 1163.691 C 891.025 1162.306, 891.310 1161.940, 891.791 1162.695 C 892.208 1163.353, 892.589 1152.498, 892.636 1138.574 C 892.684 1124.650, 892.986 1112.831, 893.309 1112.309 C 894.155 1110.940, 893.109 1101.709, 891.981 1100.581 C 891.376 1099.976, 891.545 1099.055, 892.441 1098.064 C 893.755 1096.610, 894.376 1072.388, 894.200 1029.500 C 894.184 1025.650, 894.275 1019.350, 894.403 1015.500 C 894.530 1011.650, 894.251 1007.712, 893.782 1006.750 C 893.313 1005.788, 893.306 1005, 893.766 1005 C 894.226 1005, 894.631 999.937, 894.667 993.750 C 894.924 949.543, 894.884 930.813, 894.491 912 C 894.068 891.709, 893.994 829.800, 894.342 787.250 C 894.429 776.663, 894.114 768, 893.643 768 C 893.172 768, 893.127 767.212, 893.543 766.250 C 894.528 763.973, 894.917 757.950, 894.915 745 C 894.914 739.225, 894.988 730.675, 895.081 726 C 895.558 701.841, 893.564 516.789, 892.489 485.500 C 892.357 481.650, 892.165 469.050, 892.064 457.500 C 891.963 445.950, 891.539 433.681, 891.122 430.235 C 890.705 426.789, 890.522 423.811, 890.716 423.617 C 890.911 423.423, 891.103 406.442, 891.144 385.882 C 891.222 347.186, 890.517 324.061, 889.018 316.106 C 888.540 313.573, 888.465 311.384, 888.851 311.241 C 889.236 311.099, 889.251 307.499, 888.883 303.241 C 888.515 298.984, 888.369 281.325, 888.558 264 C 888.749 246.635, 888.463 229.363, 887.921 225.508 C 887.381 221.663, 886.744 216.038, 886.507 213.008 C 886.270 209.979, 885.829 204.350, 885.528 200.500 C 885.226 196.650, 884.280 188.942, 883.424 183.371 C 882.182 175.283, 882.093 172.004, 882.982 167.102 C 883.594 163.725, 883.841 160.552, 883.531 160.050 C 883.221 159.549, 883.425 158.856, 883.984 158.510 C 884.543 158.165, 885 155.974, 885 153.641 C 885 151.308, 885.501 148.899, 886.113 148.287 C 887.179 147.221, 886.823 123.139, 885.628 115.500 C 885.370 113.850, 884.837 110.149, 884.443 107.275 C 884.012 104.130, 883.322 102.301, 882.709 102.680 C 882.120 103.044, 881.998 102.813, 882.419 102.131 C 883.502 100.378, 879.269 88.594, 876.716 86.253 C 875.497 85.136, 872.025 83.024, 869 81.558 C 865.975 80.093, 862.375 78.289, 861 77.549 C 859.530 76.758, 851.703 75.718, 842 75.024 C 832.925 74.376, 820.775 73.511, 815 73.103 C 809.225 72.695, 803.375 71.877, 802 71.285 C 795.914 68.664, 790.669 67.853, 778.664 67.676 C 768.054 67.519, 765.620 67.201, 764.626 65.842 C 762.914 63.500, 754.942 62.868, 738.203 63.748 C 730.340 64.162, 717.965 64.185, 710.703 63.801 C 703.442 63.416, 696.375 63.114, 695 63.130 C 693.625 63.145, 674.163 63.234, 651.751 63.329 C 616.122 63.478, 611.003 63.312, 611.001 62 C 610.999 60.772, 609.265 60.499, 601.421 60.495 C 596.153 60.493, 591.750 60.583, 591.637 60.697 M 762.813 62.683 C 763.534 62.972, 764.397 62.936, 764.729 62.604 C 765.061 62.272, 764.471 62.036, 763.417 62.079 C 762.252 62.127, 762.015 62.364, 762.813 62.683 M 803.519 62.969 C 803.098 63.651, 801.528 63.891, 799.655 63.561 C 797.219 63.132, 796.956 63.216, 798.500 63.932 C 801.160 65.166, 813.705 65.297, 812.450 64.078 C 810.835 62.511, 804.304 61.699, 803.519 62.969 M 456 126.024 C 453.818 126.744, 453.969 126.834, 457.185 126.725 C 459.212 126.656, 460.648 126.240, 460.376 125.800 C 459.807 124.879, 459.409 124.899, 456 126.024 M 429.750 126.662 C 430.438 126.940, 431.563 126.940, 432.250 126.662 C 432.938 126.385, 432.375 126.158, 431 126.158 C 429.625 126.158, 429.063 126.385, 429.750 126.662 M 463.750 126.662 C 464.438 126.940, 465.563 126.940, 466.250 126.662 C 466.938 126.385, 466.375 126.158, 465 126.158 C 463.625 126.158, 463.063 126.385, 463.750 126.662 M 473.750 126.732 C 476.087 126.943, 479.913 126.943, 482.250 126.732 C 484.587 126.522, 482.675 126.349, 478 126.349 C 473.325 126.349, 471.413 126.522, 473.750 126.732 M 507 127 C 507 127.550, 507.450 128, 508 128 C 508.550 128, 509 127.550, 509 127 C 509 126.450, 508.550 126, 508 126 C 507.450 126, 507 126.450, 507 127 M 525.250 126.689 C 526.212 126.941, 527.788 126.941, 528.750 126.689 C 529.712 126.438, 528.925 126.232, 527 126.232 C 525.075 126.232, 524.288 126.438, 525.250 126.689 M 536.789 126.741 C 540.248 126.937, 545.648 126.936, 548.789 126.738 C 551.930 126.540, 549.100 126.380, 542.500 126.382 C 535.900 126.384, 533.330 126.546, 536.789 126.741 M 564.750 126.662 C 565.438 126.940, 566.563 126.940, 567.250 126.662 C 567.938 126.385, 567.375 126.158, 566 126.158 C 564.625 126.158, 564.063 126.385, 564.750 126.662 M 569.750 126.662 C 570.438 126.940, 571.563 126.940, 572.250 126.662 C 572.938 126.385, 572.375 126.158, 571 126.158 C 569.625 126.158, 569.063 126.385, 569.750 126.662 M 576.750 126.723 C 578.538 126.945, 581.462 126.945, 583.250 126.723 C 585.038 126.502, 583.575 126.320, 580 126.320 C 576.425 126.320, 574.962 126.502, 576.750 126.723 M 326.216 128.180 C 325.272 128.554, 332.562 128.891, 342.417 128.930 C 352.271 128.968, 359.996 128.662, 359.583 128.250 C 358.648 127.314, 328.561 127.251, 326.216 128.180 M 407.813 127.683 C 408.534 127.972, 409.397 127.936, 409.729 127.604 C 410.061 127.272, 409.471 127.036, 408.417 127.079 C 407.252 127.127, 407.015 127.364, 407.813 127.683 M 340.762 133.707 C 342.006 133.946, 343.806 133.937, 344.762 133.687 C 345.718 133.437, 344.700 133.241, 342.500 133.252 C 340.300 133.263, 339.518 133.468, 340.762 133.707 M 351.813 133.683 C 352.534 133.972, 353.397 133.936, 353.729 133.604 C 354.061 133.272, 353.471 133.036, 352.417 133.079 C 351.252 133.127, 351.015 133.364, 351.813 133.683 M 357.750 133.662 C 358.438 133.940, 359.563 133.940, 360.250 133.662 C 360.938 133.385, 360.375 133.158, 359 133.158 C 357.625 133.158, 357.063 133.385, 357.750 133.662 M 321.813 136.683 C 322.534 136.972, 323.397 136.936, 323.729 136.604 C 324.061 136.272, 323.471 136.036, 322.417 136.079 C 321.252 136.127, 321.015 136.364, 321.813 136.683 M 881.195 214.500 C 881.215 216.150, 881.439 216.704, 881.693 215.731 C 881.947 214.758, 881.930 213.408, 881.656 212.731 C 881.382 212.054, 881.175 212.850, 881.195 214.500 M 881.079 244.583 C 881.127 245.748, 881.364 245.985, 881.683 245.188 C 881.972 244.466, 881.936 243.603, 881.604 243.271 C 881.272 242.939, 881.036 243.529, 881.079 244.583 M 299.751 250.477 C 300.115 252.379, 300.568 252.832, 301.337 252.063 C 302.107 251.293, 301.961 250.533, 300.828 249.399 C 299.379 247.951, 299.286 248.045, 299.751 250.477 M 881.079 249.583 C 881.127 250.748, 881.364 250.985, 881.683 250.188 C 881.972 249.466, 881.936 248.603, 881.604 248.271 C 881.272 247.939, 881.036 248.529, 881.079 249.583 M 881.232 257 C 881.232 258.925, 881.438 259.712, 881.689 258.750 C 881.941 257.788, 881.941 256.212, 881.689 255.250 C 881.438 254.287, 881.232 255.075, 881.232 257 M 881.415 283 C 881.415 293.175, 881.564 297.337, 881.745 292.250 C 881.927 287.162, 881.927 278.837, 881.745 273.750 C 881.564 268.662, 881.415 272.825, 881.415 283 M 862.500 297 C 862.840 297.550, 863.316 298, 863.559 298 C 863.802 298, 864 297.550, 864 297 C 864 296.450, 863.523 296, 862.941 296 C 862.359 296, 862.160 296.450, 862.500 297 M 861.950 299.667 C 861.922 300.125, 861.734 302.409, 861.532 304.742 C 861.331 307.075, 861.578 309.239, 862.083 309.551 C 863.323 310.317, 863.254 314, 862 314 C 861.450 314, 861 314.927, 861 316.059 C 861 317.191, 861.337 317.909, 861.750 317.655 C 862.163 317.400, 862.584 321.086, 862.686 325.846 C 862.905 336.069, 863.929 345.404, 864.742 344.591 C 865.524 343.810, 865.784 312.972, 865.071 305.579 C 864.743 302.175, 863.968 299.482, 863.250 299.245 C 862.563 299.019, 861.977 299.208, 861.950 299.667 M 881.435 327 C 881.435 341.025, 881.575 346.762, 881.747 339.750 C 881.919 332.738, 881.919 321.262, 881.747 314.250 C 881.575 307.238, 881.435 312.975, 881.435 327 M 856 307.441 C 856 308.298, 856.450 309, 857 309 C 857.550 309, 858 308.577, 858 308.059 C 858 307.541, 857.550 306.840, 857 306.500 C 856.450 306.160, 856 306.584, 856 307.441 M 444.269 312.693 C 445.242 312.947, 446.592 312.930, 447.269 312.656 C 447.946 312.382, 447.150 312.175, 445.500 312.195 C 443.850 312.215, 443.296 312.439, 444.269 312.693 M 854.750 317.963 C 852.801 319.861, 852.507 321, 853.965 321 C 854.932 321, 857.453 317.080, 856.831 316.543 C 856.649 316.386, 855.712 317.025, 854.750 317.963 M 399 318.131 C 400.375 318.707, 403.300 319.379, 405.500 319.624 C 410.886 320.225, 419.044 321.702, 421.500 322.522 C 423.150 323.072, 423.237 322.990, 422 322.054 C 420.867 321.197, 423.313 321.063, 432 321.503 C 438.325 321.823, 446.538 322.237, 450.250 322.423 C 453.962 322.608, 457 322.364, 457 321.880 C 457 320.882, 456.591 320.810, 449 320.460 C 442.299 320.152, 430.407 319.113, 427 318.538 C 425.625 318.306, 418.200 317.884, 410.500 317.601 C 400.237 317.223, 397.167 317.364, 399 318.131 M 849.500 323 C 849.160 323.550, 849.359 324, 849.941 324 C 850.523 324, 851 323.550, 851 323 C 851 322.450, 850.802 322, 850.559 322 C 850.316 322, 849.840 322.450, 849.500 323 M 391.813 323.683 C 392.534 323.972, 393.397 323.936, 393.729 323.604 C 394.061 323.272, 393.471 323.036, 392.417 323.079 C 391.252 323.127, 391.015 323.364, 391.813 323.683 M 396.500 325 C 396.160 325.550, 396.557 326, 397.382 326 C 398.207 326, 399.160 325.550, 399.500 325 C 399.840 324.450, 399.443 324, 398.618 324 C 397.793 324, 396.840 324.450, 396.500 325 M 413.021 327.417 C 413.575 327.974, 414.833 327.907, 416.217 327.247 C 418.359 326.226, 418.302 326.169, 415.303 326.329 C 413.367 326.433, 412.467 326.862, 413.021 327.417 M 388 328 C 388.825 328.533, 390.175 328.945, 391 328.914 C 391.989 328.878, 391.819 328.567, 390.500 328 C 387.751 326.819, 386.172 326.819, 388 328 M 406.750 328.662 C 407.438 328.940, 408.563 328.940, 409.250 328.662 C 409.938 328.385, 409.375 328.158, 408 328.158 C 406.625 328.158, 406.063 328.385, 406.750 328.662 M 863.633 350.663 C 862.556 358.519, 862.696 359.233, 865.064 357.966 C 866.767 357.054, 867.001 356.304, 866.399 353.680 C 865.998 351.931, 865.716 349.721, 865.772 348.770 C 866.002 344.825, 864.216 346.406, 863.633 350.663 M 864 362.531 C 864 364.149, 865.563 364.517, 866.435 363.105 C 866.740 362.612, 866.316 361.952, 865.494 361.636 C 864.587 361.288, 864 361.639, 864 362.531 M 881.343 372.500 C 881.346 376.900, 881.522 378.576, 881.733 376.224 C 881.945 373.872, 881.942 370.272, 881.727 368.224 C 881.512 366.176, 881.339 368.100, 881.343 372.500 M 864.195 380.500 C 864.215 382.150, 864.439 382.704, 864.693 381.731 C 864.947 380.758, 864.930 379.408, 864.656 378.731 C 864.382 378.054, 864.175 378.850, 864.195 380.500 M 599 410.559 C 599 411.416, 599.450 411.840, 600 411.500 C 600.550 411.160, 601 410.459, 601 409.941 C 601 409.423, 600.550 409, 600 409 C 599.450 409, 599 409.702, 599 410.559 M 881.079 413.583 C 881.127 414.748, 881.364 414.985, 881.683 414.188 C 881.972 413.466, 881.936 412.603, 881.604 412.271 C 881.272 411.939, 881.036 412.529, 881.079 413.583 M 864.105 452.649 C 864.188 456.938, 864.597 459.684, 865.036 458.899 C 866.041 457.104, 865.786 445, 864.745 445 C 864.312 445, 864.024 448.442, 864.105 452.649 M 863 473.435 C 863 475.252, 865.194 478.985, 866.225 478.921 C 867.226 478.859, 867.232 478.734, 866.252 478.338 C 865.480 478.027, 865.235 476.913, 865.610 475.417 C 866.063 473.611, 865.810 473, 864.608 473 C 863.724 473, 863 473.196, 863 473.435 M 863.828 484.120 C 863.563 485.505, 863.652 487.507, 864.025 488.569 C 864.677 490.424, 864.730 490.417, 865.373 488.395 C 865.742 487.237, 865.653 485.235, 865.176 483.946 L 864.309 481.603 863.828 484.120 M 881.195 485.500 C 881.215 487.150, 881.439 487.704, 881.693 486.731 C 881.947 485.758, 881.930 484.408, 881.656 483.731 C 881.382 483.054, 881.175 483.850, 881.195 485.500 M 881.079 491.583 C 881.127 492.748, 881.364 492.985, 881.683 492.188 C 881.972 491.466, 881.936 490.603, 881.604 490.271 C 881.272 489.939, 881.036 490.529, 881.079 491.583 M 865 496 C 865 496.550, 865.450 497, 866 497 C 866.550 497, 867 496.550, 867 496 C 867 495.450, 866.550 495, 866 495 C 865.450 495, 865 495.450, 865 496 M 881.079 499.583 C 881.127 500.748, 881.364 500.985, 881.683 500.188 C 881.972 499.466, 881.936 498.603, 881.604 498.271 C 881.272 497.939, 881.036 498.529, 881.079 499.583 M 865.500 500 C 865.840 500.550, 866.316 501, 866.559 501 C 866.802 501, 867 500.550, 867 500 C 867 499.450, 866.523 499, 865.941 499 C 865.359 499, 865.160 499.450, 865.500 500 M 865 507 C 865 508.650, 865.450 510, 866 510 C 866.550 510, 867 508.650, 867 507 C 867 505.350, 866.550 504, 866 504 C 865.450 504, 865 505.350, 865 507 M 865.636 513.494 C 865.952 514.316, 866.620 514.735, 867.121 514.425 C 868.170 513.777, 867.328 512, 865.972 512 C 865.472 512, 865.321 512.672, 865.636 513.494 M 881.158 514 C 881.158 515.375, 881.385 515.938, 881.662 515.250 C 881.940 514.563, 881.940 513.438, 881.662 512.750 C 881.385 512.063, 881.158 512.625, 881.158 514 M 865.500 521 C 865.840 521.550, 866.316 522, 866.559 522 C 866.802 522, 867 521.550, 867 521 C 867 520.450, 866.523 520, 865.941 520 C 865.359 520, 865.160 520.450, 865.500 521 M 865.500 525 C 865.160 525.550, 865.359 526, 865.941 526 C 866.523 526, 867 525.550, 867 525 C 867 524.450, 866.802 524, 866.559 524 C 866.316 524, 865.840 524.450, 865.500 525 M 865.447 542.250 C 865.729 547.337, 865.969 551.837, 865.980 552.250 C 865.991 552.663, 866.620 553, 867.377 553 C 868.785 553, 868.786 551.949, 867.391 538.250 C 866.459 529.100, 864.895 532.318, 865.447 542.250 M 865.015 555.750 C 865.033 557.743, 866.658 560.681, 867.351 559.971 C 867.894 559.414, 868.285 557.009, 868.118 555.250 C 867.934 553.306, 864.998 553.779, 865.015 555.750 M 865.731 569.250 C 865.922 571.038, 866.111 580.718, 866.152 590.761 C 866.193 600.805, 866.626 609.269, 867.114 609.570 C 868.204 610.244, 868.229 609.812, 868.083 592.500 C 867.951 576.914, 867.125 566, 866.076 566 C 865.696 566, 865.541 567.462, 865.731 569.250 M 881.405 581.500 C 881.406 590.300, 881.559 593.766, 881.745 589.203 C 881.930 584.639, 881.929 577.439, 881.742 573.203 C 881.555 568.966, 881.404 572.700, 881.405 581.500 M 881.252 606.500 C 881.263 608.700, 881.468 609.482, 881.707 608.238 C 881.946 606.994, 881.937 605.194, 881.687 604.238 C 881.437 603.282, 881.241 604.300, 881.252 606.500 M 867 619.500 C 867 620.875, 867.450 622, 868 622 C 868.550 622, 869 620.875, 869 619.500 C 869 618.125, 868.550 617, 868 617 C 867.450 617, 867 618.125, 867 619.500 M 881.300 635 C 881.300 638.025, 881.487 639.263, 881.716 637.750 C 881.945 636.237, 881.945 633.763, 881.716 632.250 C 881.487 630.737, 881.300 631.975, 881.300 635 M 881.310 648.500 C 881.315 651.800, 881.502 653.029, 881.725 651.232 C 881.947 649.435, 881.943 646.735, 881.715 645.232 C 881.486 643.729, 881.304 645.200, 881.310 648.500 M 881.310 660.500 C 881.315 663.800, 881.502 665.029, 881.725 663.232 C 881.947 661.435, 881.943 658.735, 881.715 657.232 C 881.486 655.729, 881.304 657.200, 881.310 660.500 M 867.842 657.492 C 867.157 658.176, 867.748 680.212, 868.599 685.778 C 868.877 687.591, 869.544 688.782, 870.091 688.444 C 870.636 688.107, 870.807 686.969, 870.473 685.914 C 870.138 684.859, 869.856 679.362, 869.847 673.698 C 869.829 663.137, 868.989 656.345, 867.842 657.492 M 881.478 750.500 C 881.478 796.700, 881.600 815.454, 881.750 792.175 C 881.899 768.896, 881.899 731.096, 881.750 708.175 C 881.600 685.254, 881.478 704.300, 881.478 750.500 M 868.848 707.250 C 868.631 713.286, 868.559 713.775, 867.755 714.578 C 867.360 714.973, 867.291 716.468, 867.602 717.898 C 868.729 723.085, 868.806 723.174, 871.120 721.936 C 872.693 721.094, 872.932 720.576, 872.010 720.006 C 871.317 719.578, 870.753 717.939, 870.756 716.364 C 870.760 714.789, 870.254 713.163, 869.631 712.750 C 868.792 712.194, 868.798 711.806, 869.651 711.250 C 871 710.371, 871.223 703, 869.900 703 C 869.405 703, 868.931 704.913, 868.848 707.250 M 827 708 C 827 708.550, 827.450 709, 828 709 C 828.550 709, 829 708.550, 829 708 C 829 707.450, 828.550 707, 828 707 C 827.450 707, 827 707.450, 827 708 M 843.079 716.583 C 843.127 717.748, 843.364 717.985, 843.683 717.188 C 843.972 716.466, 843.936 715.603, 843.604 715.271 C 843.272 714.939, 843.036 715.529, 843.079 716.583 M 843.079 725.583 C 843.127 726.748, 843.364 726.985, 843.683 726.188 C 843.972 725.466, 843.936 724.603, 843.604 724.271 C 843.272 723.939, 843.036 724.529, 843.079 725.583 M 877 737 C 877 737.550, 877.423 738, 877.941 738 C 878.459 738, 879.160 737.550, 879.500 737 C 879.840 736.450, 879.416 736, 878.559 736 C 877.702 736, 877 736.450, 877 737 M 842.232 765 C 842.232 766.925, 842.438 767.712, 842.689 766.750 C 842.941 765.788, 842.941 764.212, 842.689 763.250 C 842.438 762.288, 842.232 763.075, 842.232 765 M 785.813 779.683 C 786.534 779.972, 787.397 779.936, 787.729 779.604 C 788.061 779.272, 787.471 779.036, 786.417 779.079 C 785.252 779.127, 785.015 779.364, 785.813 779.683 M 792 786 C 792 786.550, 792.450 787, 793 787 C 793.550 787, 794 786.550, 794 786 C 794 785.450, 793.550 785, 793 785 C 792.450 785, 792 785.450, 792 786 M 792.500 789 C 792.840 789.550, 793.316 790, 793.559 790 C 793.802 790, 794 789.550, 794 789 C 794 788.450, 793.523 788, 792.941 788 C 792.359 788, 792.160 788.450, 792.500 789 M 795.079 800.583 C 795.127 801.748, 795.364 801.985, 795.683 801.188 C 795.972 800.466, 795.936 799.603, 795.604 799.271 C 795.272 798.939, 795.036 799.529, 795.079 800.583 M 842.079 821.583 C 842.127 822.748, 842.364 822.985, 842.683 822.188 C 842.972 821.466, 842.936 820.603, 842.604 820.271 C 842.272 819.939, 842.036 820.529, 842.079 821.583 M 881 932.935 C 881 993.498, 880.634 1030.832, 880.025 1032.435 C 879.420 1034.025, 879.409 1035, 879.995 1035 C 880.523 1035, 881.078 1040.628, 881.253 1047.750 C 881.425 1054.763, 881.663 1009.987, 881.783 948.250 C 881.902 886.513, 881.775 836, 881.500 836 C 881.225 836, 881 879.621, 881 932.935 M 841.079 855.583 C 841.127 856.748, 841.364 856.985, 841.683 856.188 C 841.972 855.466, 841.936 854.603, 841.604 854.271 C 841.272 853.939, 841.036 854.529, 841.079 855.583 M 841.079 860.583 C 841.127 861.748, 841.364 861.985, 841.683 861.188 C 841.972 860.466, 841.936 859.603, 841.604 859.271 C 841.272 858.939, 841.036 859.529, 841.079 860.583 M 841.158 912 C 841.158 913.375, 841.385 913.938, 841.662 913.250 C 841.940 912.563, 841.940 911.438, 841.662 910.750 C 841.385 910.063, 841.158 910.625, 841.158 912 M 841.310 920.500 C 841.315 923.800, 841.502 925.029, 841.725 923.232 C 841.947 921.435, 841.943 918.735, 841.715 917.232 C 841.486 915.729, 841.304 917.200, 841.310 920.500 M 841.195 931.500 C 841.215 933.150, 841.439 933.704, 841.693 932.731 C 841.947 931.758, 841.930 930.408, 841.656 929.731 C 841.382 929.054, 841.175 929.850, 841.195 931.500 M 841.158 940 C 841.158 941.375, 841.385 941.938, 841.662 941.250 C 841.940 940.563, 841.940 939.438, 841.662 938.750 C 841.385 938.063, 841.158 938.625, 841.158 940 M 632.252 949.500 C 632.263 951.700, 632.468 952.482, 632.707 951.238 C 632.946 949.994, 632.937 948.194, 632.687 947.238 C 632.437 946.282, 632.241 947.300, 632.252 949.500 M 650 1110.941 C 650 1217.647, 650.337 1272, 651 1272 C 651.663 1272, 652 1217.853, 652 1111.559 C 652 1005.677, 651.660 950.908, 651 950.500 C 650.335 950.089, 650 1003.823, 650 1110.941 M 869.554 958.250 C 868.992 960.861, 867 983.612, 867 987.422 C 867 988.840, 867.450 990, 868 990 C 868.550 990, 869 988.875, 869 987.500 C 869 986.125, 869.450 985, 870 985 C 870.550 985, 871 983.425, 871 981.500 C 871 979.375, 870.509 977.994, 869.750 977.985 C 868.862 977.974, 868.826 977.757, 869.626 977.235 C 870.351 976.762, 870.716 972.850, 870.652 966.250 C 870.597 960.612, 870.436 956, 870.295 956 C 870.154 956, 869.820 957.013, 869.554 958.250 M 841.320 964 C 841.320 967.575, 841.502 969.038, 841.723 967.250 C 841.945 965.462, 841.945 962.538, 841.723 960.750 C 841.502 958.962, 841.320 960.425, 841.320 964 M 841.079 979.583 C 841.127 980.748, 841.364 980.985, 841.683 980.188 C 841.972 979.466, 841.936 978.603, 841.604 978.271 C 841.272 977.939, 841.036 978.529, 841.079 979.583 M 869.985 991.750 C 869.972 993.218, 869.819 993.263, 869.039 992.029 C 867.629 989.799, 867.234 990.841, 866.442 998.881 C 865.843 1004.966, 865.960 1006.181, 867.108 1005.802 C 868.037 1005.495, 868.602 1003.384, 868.806 999.453 C 869.020 995.355, 869.395 994.011, 870.041 995.032 C 870.724 996.112, 870.973 995.640, 870.985 993.250 C 870.993 991.462, 870.775 990, 870.500 990 C 870.225 990, 869.993 990.788, 869.985 991.750 M 870.079 999.583 C 870.127 1000.748, 870.364 1000.985, 870.683 1000.188 C 870.972 999.466, 870.936 998.603, 870.604 998.271 C 870.272 997.939, 870.036 998.529, 870.079 999.583 M 841.079 1027.583 C 841.127 1028.748, 841.364 1028.985, 841.683 1028.188 C 841.972 1027.466, 841.936 1026.603, 841.604 1026.271 C 841.272 1025.939, 841.036 1026.529, 841.079 1027.583 M 867.630 1029.250 C 866.651 1032.905, 866.916 1043.830, 868 1044.500 C 868.849 1045.025, 869.579 1040.507, 869.099 1037.692 C 869.023 1037.248, 868.911 1034.660, 868.850 1031.942 C 868.726 1026.434, 868.512 1025.961, 867.630 1029.250 M 885 1032.320 C 885 1033.045, 886.125 1034.618, 887.500 1035.813 L 890 1037.987 890 1035.025 C 890 1032.803, 889.625 1032.207, 888.500 1032.638 C 887.675 1032.955, 887 1032.716, 887 1032.107 C 887 1031.498, 886.550 1031, 886 1031 C 885.450 1031, 885 1031.594, 885 1032.320 M 841.195 1034.500 C 841.215 1036.150, 841.439 1036.704, 841.693 1035.731 C 841.947 1034.758, 841.930 1033.408, 841.656 1032.731 C 841.382 1032.054, 841.175 1032.850, 841.195 1034.500 M 840.195 1057.500 C 840.215 1059.150, 840.439 1059.704, 840.693 1058.731 C 840.947 1057.758, 840.930 1056.408, 840.656 1055.731 C 840.382 1055.054, 840.175 1055.850, 840.195 1057.500 M 840.232 1065 C 840.232 1066.925, 840.438 1067.713, 840.689 1066.750 C 840.941 1065.787, 840.941 1064.213, 840.689 1063.250 C 840.438 1062.287, 840.232 1063.075, 840.232 1065 M 881.445 1096.500 C 881.444 1113.550, 881.581 1120.666, 881.748 1112.312 C 881.915 1103.959, 881.915 1090.009, 881.748 1081.312 C 881.582 1072.616, 881.445 1079.450, 881.445 1096.500 M 611 1077 C 611 1078.100, 611.402 1079, 611.893 1079 C 613.017 1079, 614.066 1076.399, 613.264 1075.598 C 612.061 1074.394, 611 1075.051, 611 1077 M 839.158 1080 C 839.158 1081.375, 839.385 1081.938, 839.662 1081.250 C 839.940 1080.563, 839.940 1079.438, 839.662 1078.750 C 839.385 1078.063, 839.158 1078.625, 839.158 1080 M 622.479 1086.289 C 621.737 1091.243, 623.567 1102, 625.153 1102 C 626.697 1102, 625.198 1083.865, 623.514 1082.181 C 623.314 1081.981, 622.848 1083.829, 622.479 1086.289 M 633.621 1089.805 C 633.311 1090.306, 633.458 1092.110, 633.947 1093.814 C 634.436 1095.519, 634.595 1097.833, 634.301 1098.957 C 634.007 1100.080, 634.249 1101, 634.838 1101 C 636.078 1101, 637.330 1095.335, 636.837 1091.959 C 636.482 1089.536, 634.576 1088.259, 633.621 1089.805 M 839.158 1092 C 839.158 1093.375, 839.385 1093.938, 839.662 1093.250 C 839.940 1092.563, 839.940 1091.438, 839.662 1090.750 C 839.385 1090.063, 839.158 1090.625, 839.158 1092 M 712.079 1099.583 C 712.127 1100.748, 712.364 1100.985, 712.683 1100.188 C 712.972 1099.466, 712.936 1098.603, 712.604 1098.271 C 712.272 1097.939, 712.036 1098.529, 712.079 1099.583 M 881.480 1223.500 C 881.480 1275.750, 881.601 1297.272, 881.750 1271.326 C 881.898 1245.380, 881.898 1202.630, 881.750 1176.326 C 881.601 1150.022, 881.480 1171.250, 881.480 1223.500 M 838.158 1136 C 838.158 1137.375, 838.385 1137.938, 838.662 1137.250 C 838.940 1136.563, 838.940 1135.438, 838.662 1134.750 C 838.385 1134.063, 838.158 1134.625, 838.158 1136 M 838.349 1159 C 838.349 1163.675, 838.522 1165.588, 838.732 1163.250 C 838.943 1160.912, 838.943 1157.088, 838.732 1154.750 C 838.522 1152.412, 838.349 1154.325, 838.349 1159 M 838.079 1176.583 C 838.127 1177.748, 838.364 1177.985, 838.683 1177.188 C 838.972 1176.466, 838.936 1175.603, 838.604 1175.271 C 838.272 1174.939, 838.036 1175.529, 838.079 1176.583 M 838.195 1189.500 C 838.215 1191.150, 838.439 1191.704, 838.693 1190.731 C 838.947 1189.758, 838.930 1188.408, 838.656 1187.731 C 838.382 1187.054, 838.175 1187.850, 838.195 1189.500 M 837.252 1209.500 C 837.263 1211.700, 837.468 1212.482, 837.707 1211.238 C 837.946 1209.994, 837.937 1208.194, 837.687 1207.238 C 837.437 1206.282, 837.241 1207.300, 837.252 1209.500 M 837.232 1221 C 837.232 1222.925, 837.438 1223.713, 837.689 1222.750 C 837.941 1221.787, 837.941 1220.213, 837.689 1219.250 C 837.438 1218.287, 837.232 1219.075, 837.232 1221 M 726.079 1222.583 C 726.127 1223.748, 726.364 1223.985, 726.683 1223.188 C 726.972 1222.466, 726.936 1221.603, 726.604 1221.271 C 726.272 1220.939, 726.036 1221.529, 726.079 1222.583 M 837.286 1232.500 C 837.294 1235.250, 837.488 1236.256, 837.718 1234.736 C 837.947 1233.216, 837.941 1230.966, 837.704 1229.736 C 837.467 1228.506, 837.279 1229.750, 837.286 1232.500 M 889.031 1236.500 C 889.031 1237.050, 889.467 1238.175, 890 1239 C 890.533 1239.825, 890.969 1240.050, 890.969 1239.500 C 890.969 1238.950, 890.533 1237.825, 890 1237 C 889.467 1236.175, 889.031 1235.950, 889.031 1236.500 M 764.079 1255.583 C 764.127 1256.748, 764.364 1256.985, 764.683 1256.188 C 764.972 1255.466, 764.936 1254.603, 764.604 1254.271 C 764.272 1253.939, 764.036 1254.529, 764.079 1255.583 M 836.343 1262.500 C 836.346 1266.900, 836.522 1268.576, 836.733 1266.224 C 836.945 1263.872, 836.942 1260.272, 836.727 1258.224 C 836.512 1256.176, 836.339 1258.100, 836.343 1262.500 M 835.300 1283 C 835.300 1286.025, 835.487 1287.263, 835.716 1285.750 C 835.945 1284.237, 835.945 1281.763, 835.716 1280.250 C 835.487 1278.737, 835.300 1279.975, 835.300 1283 M 835.232 1297 C 835.232 1298.925, 835.438 1299.713, 835.689 1298.750 C 835.941 1297.787, 835.941 1296.213, 835.689 1295.250 C 835.438 1294.287, 835.232 1295.075, 835.232 1297 M 616.070 1310.550 C 616.032 1312.777, 615.499 1315.101, 614.887 1315.713 C 614.274 1316.326, 613.949 1318.666, 614.163 1320.913 C 614.377 1323.161, 614.316 1325, 614.026 1325 C 613.301 1324.999, 613.683 1338.033, 614.481 1340.500 C 614.836 1341.600, 615.741 1343.850, 616.490 1345.500 C 618.078 1348.996, 618.887 1353.001, 619.824 1362 C 620.776 1371.149, 621.835 1368.282, 622.058 1355.952 C 622.376 1338.439, 622.079 1333.222, 620.684 1331.821 C 619.832 1330.966, 619.431 1328.287, 619.545 1324.223 C 619.642 1320.771, 619.334 1317.707, 618.861 1317.414 C 618.387 1317.121, 617.968 1315.446, 617.930 1313.691 C 617.891 1311.936, 617.473 1309.600, 617 1308.500 C 616.326 1306.930, 616.125 1307.372, 616.070 1310.550 M 623.750 1307.577 C 623.337 1307.993, 623 1309.248, 623 1310.367 C 623 1311.838, 623.302 1312.098, 624.094 1311.306 C 624.695 1310.705, 625.033 1309.449, 624.844 1308.517 C 624.655 1307.584, 624.163 1307.161, 623.750 1307.577 M 835.232 1312 C 835.232 1313.925, 835.438 1314.713, 835.689 1313.750 C 835.941 1312.787, 835.941 1311.213, 835.689 1310.250 C 835.438 1309.287, 835.232 1310.075, 835.232 1312 M 881.328 1326.500 C 881.333 1330.350, 881.513 1331.802, 881.730 1329.728 C 881.946 1327.653, 881.943 1324.503, 881.722 1322.728 C 881.501 1320.952, 881.324 1322.650, 881.328 1326.500 M 622 1326.500 C 622 1327.991, 622.431 1328.852, 623 1328.500 C 623.550 1328.160, 624 1327.260, 624 1326.500 C 624 1325.740, 623.550 1324.840, 623 1324.500 C 622.431 1324.148, 622 1325.009, 622 1326.500 M 834.158 1336 C 834.158 1337.375, 834.385 1337.938, 834.662 1337.250 C 834.940 1336.563, 834.940 1335.438, 834.662 1334.750 C 834.385 1334.063, 834.158 1334.625, 834.158 1336 M 881.286 1338.500 C 881.294 1341.250, 881.488 1342.256, 881.718 1340.736 C 881.947 1339.216, 881.941 1336.966, 881.704 1335.736 C 881.467 1334.506, 881.279 1335.750, 881.286 1338.500 M 833.272 1346 C 833.272 1348.475, 833.467 1349.487, 833.706 1348.250 C 833.944 1347.013, 833.944 1344.987, 833.706 1343.750 C 833.467 1342.513, 833.272 1343.525, 833.272 1346 M 881.272 1349 C 881.272 1351.475, 881.467 1352.487, 881.706 1351.250 C 881.944 1350.013, 881.944 1347.987, 881.706 1346.750 C 881.467 1345.513, 881.272 1346.525, 881.272 1349 M 833.252 1354.500 C 833.263 1356.700, 833.468 1357.482, 833.707 1356.238 C 833.946 1354.994, 833.937 1353.194, 833.687 1352.238 C 833.437 1351.282, 833.241 1352.300, 833.252 1354.500 M 881.252 1357.500 C 881.263 1359.700, 881.468 1360.482, 881.707 1359.238 C 881.946 1357.994, 881.937 1356.194, 881.687 1355.238 C 881.437 1354.282, 881.241 1355.300, 881.252 1357.500 M 881.158 1364 C 881.158 1365.375, 881.385 1365.938, 881.662 1365.250 C 881.940 1364.563, 881.940 1363.438, 881.662 1362.750 C 881.385 1362.063, 881.158 1362.625, 881.158 1364 M 881.395 1380.500 C 881.396 1388.200, 881.553 1391.218, 881.743 1387.206 C 881.934 1383.195, 881.932 1376.895, 881.741 1373.206 C 881.549 1369.518, 881.393 1372.800, 881.395 1380.500 M 833.195 1384.500 C 833.215 1386.150, 833.439 1386.704, 833.693 1385.731 C 833.947 1384.758, 833.930 1383.408, 833.656 1382.731 C 833.382 1382.054, 833.175 1382.850, 833.195 1384.500 M 833.286 1393.500 C 833.294 1396.250, 833.488 1397.256, 833.718 1395.736 C 833.947 1394.216, 833.941 1391.966, 833.704 1390.736 C 833.467 1389.506, 833.279 1390.750, 833.286 1393.500 M 881.272 1401 C 881.272 1403.475, 881.467 1404.487, 881.706 1403.250 C 881.944 1402.013, 881.944 1399.987, 881.706 1398.750 C 881.467 1397.513, 881.272 1398.525, 881.272 1401 M 881.079 1410.583 C 881.127 1411.748, 881.364 1411.985, 881.683 1411.188 C 881.972 1410.466, 881.936 1409.603, 881.604 1409.271 C 881.272 1408.939, 881.036 1409.529, 881.079 1410.583 M 881.079 1415.583 C 881.127 1416.748, 881.364 1416.985, 881.683 1416.188 C 881.972 1415.466, 881.936 1414.603, 881.604 1414.271 C 881.272 1413.939, 881.036 1414.529, 881.079 1415.583 M 834.252 1433.500 C 834.263 1435.700, 834.468 1436.482, 834.707 1435.238 C 834.946 1433.994, 834.937 1432.194, 834.687 1431.238 C 834.437 1430.282, 834.241 1431.300, 834.252 1433.500 M 834.232 1447 C 834.232 1448.925, 834.438 1449.713, 834.689 1448.750 C 834.941 1447.787, 834.941 1446.213, 834.689 1445.250 C 834.438 1444.287, 834.232 1445.075, 834.232 1447 M 419 1471 C 417.172 1472.181, 418.751 1472.181, 421.500 1471 C 422.819 1470.433, 422.989 1470.122, 422 1470.086 C 421.175 1470.055, 419.825 1470.467, 419 1471 M 437.750 1470.662 C 438.438 1470.940, 439.563 1470.940, 440.250 1470.662 C 440.938 1470.385, 440.375 1470.158, 439 1470.158 C 437.625 1470.158, 437.063 1470.385, 437.750 1470.662 M 443.656 1471.750 C 443.403 1472.162, 444.614 1472.600, 446.347 1472.723 C 448.682 1472.888, 449.111 1472.697, 448 1471.988 C 446.189 1470.832, 444.285 1470.728, 443.656 1471.750 M 835.079 1472.583 C 835.127 1473.748, 835.364 1473.985, 835.683 1473.188 C 835.972 1472.466, 835.936 1471.603, 835.604 1471.271 C 835.272 1470.939, 835.036 1471.529, 835.079 1472.583 M 427.500 1474 C 427.840 1474.550, 428.793 1475, 429.618 1475 C 430.443 1475, 430.840 1474.550, 430.500 1474 C 430.160 1473.450, 429.207 1473, 428.382 1473 C 427.557 1473, 427.160 1473.450, 427.500 1474 M 422.813 1475.683 C 423.534 1475.972, 424.397 1475.936, 424.729 1475.604 C 425.061 1475.272, 424.471 1475.036, 423.417 1475.079 C 422.252 1475.127, 422.015 1475.364, 422.813 1475.683 M 450.500 1476.937 C 448.716 1477.660, 445.685 1478.168, 435.500 1479.454 C 433.850 1479.662, 431.375 1480.301, 430 1480.874 C 428.175 1481.634, 431.281 1481.776, 441.500 1481.399 C 449.200 1481.116, 456.625 1480.694, 458 1480.462 C 461.407 1479.887, 473.299 1478.848, 480 1478.540 C 487.591 1478.190, 488 1478.118, 488 1477.120 C 488 1476.636, 484.962 1476.392, 481.250 1476.577 C 477.538 1476.763, 469.325 1477.177, 463 1477.497 C 455.005 1477.902, 451.957 1477.768, 453 1477.055 C 454.766 1475.849, 453.351 1475.782, 450.500 1476.937 M 881.158 1487 C 881.158 1488.375, 881.385 1488.938, 881.662 1488.250 C 881.940 1487.563, 881.940 1486.438, 881.662 1485.750 C 881.385 1485.063, 881.158 1485.625, 881.158 1487 M 475.269 1486.693 C 476.242 1486.947, 477.592 1486.930, 478.269 1486.656 C 478.946 1486.382, 478.150 1486.175, 476.500 1486.195 C 474.850 1486.215, 474.296 1486.439, 475.269 1486.693 M 834.232 1499 C 834.232 1500.925, 834.438 1501.713, 834.689 1500.750 C 834.941 1499.787, 834.941 1498.213, 834.689 1497.250 C 834.438 1496.287, 834.232 1497.075, 834.232 1499 M 716.177 1507.667 C 716.355 1508.584, 717.027 1509.510, 717.671 1509.724 C 718.416 1509.972, 718.647 1509.366, 718.305 1508.057 C 717.666 1505.613, 715.709 1505.254, 716.177 1507.667 M 330.751 1548.523 C 330.286 1550.955, 330.379 1551.049, 331.828 1549.601 C 332.961 1548.467, 333.107 1547.707, 332.337 1546.937 C 331.568 1546.168, 331.115 1546.621, 330.751 1548.523 M 715 1613.559 C 715 1614.416, 715.457 1614.835, 716.016 1614.490 C 716.575 1614.144, 716.774 1613.443, 716.457 1612.931 C 715.600 1611.544, 715 1611.802, 715 1613.559 M 352.813 1662.683 C 353.534 1662.972, 354.397 1662.936, 354.729 1662.604 C 355.061 1662.272, 354.471 1662.036, 353.417 1662.079 C 352.252 1662.127, 352.015 1662.364, 352.813 1662.683 M 371.762 1665.707 C 373.006 1665.946, 374.806 1665.937, 375.762 1665.687 C 376.718 1665.437, 375.700 1665.241, 373.500 1665.252 C 371.300 1665.263, 370.518 1665.468, 371.762 1665.707 M 382.813 1665.683 C 383.534 1665.972, 384.397 1665.936, 384.729 1665.604 C 385.061 1665.272, 384.471 1665.036, 383.417 1665.079 C 382.252 1665.127, 382.015 1665.364, 382.813 1665.683 M 388.750 1665.662 C 389.438 1665.940, 390.563 1665.940, 391.250 1665.662 C 391.938 1665.385, 391.375 1665.158, 390 1665.158 C 388.625 1665.158, 388.063 1665.385, 388.750 1665.662 M 356.283 1670.616 C 357.216 1671.549, 390.049 1671.730, 390.621 1670.805 C 390.894 1670.362, 383.141 1670, 373.392 1670 C 363.643 1670, 355.944 1670.277, 356.283 1670.616 M 438.813 1671.683 C 439.534 1671.972, 440.397 1671.936, 440.729 1671.604 C 441.061 1671.272, 440.471 1671.036, 439.417 1671.079 C 438.252 1671.127, 438.015 1671.364, 438.813 1671.683 M 538 1672 C 538 1672.550, 538.450 1673, 539 1673 C 539.550 1673, 540 1672.550, 540 1672 C 540 1671.450, 539.550 1671, 539 1671 C 538.450 1671, 538 1671.450, 538 1672 M 460.750 1672.662 C 461.438 1672.940, 462.563 1672.940, 463.250 1672.662 C 463.938 1672.385, 463.375 1672.158, 462 1672.158 C 460.625 1672.158, 460.063 1672.385, 460.750 1672.662 M 487.476 1673.035 C 489.113 1673.537, 490.799 1673.601, 491.222 1673.178 C 491.645 1672.755, 490.306 1672.344, 488.246 1672.265 C 484.536 1672.124, 484.528 1672.131, 487.476 1673.035 M 494.750 1672.662 C 495.438 1672.940, 496.563 1672.940, 497.250 1672.662 C 497.938 1672.385, 497.375 1672.158, 496 1672.158 C 494.625 1672.158, 494.063 1672.385, 494.750 1672.662 M 504.750 1672.732 C 507.087 1672.943, 510.913 1672.943, 513.250 1672.732 C 515.587 1672.522, 513.675 1672.349, 509 1672.349 C 504.325 1672.349, 502.413 1672.522, 504.750 1672.732 M 556.250 1672.689 C 557.212 1672.941, 558.788 1672.941, 559.750 1672.689 C 560.712 1672.438, 559.925 1672.232, 558 1672.232 C 556.075 1672.232, 555.288 1672.438, 556.250 1672.689 M 567.789 1672.741 C 571.248 1672.937, 576.648 1672.936, 579.789 1672.738 C 582.930 1672.540, 580.100 1672.380, 573.500 1672.382 C 566.900 1672.384, 564.330 1672.546, 567.789 1672.741 M 595.750 1672.662 C 596.438 1672.940, 597.563 1672.940, 598.250 1672.662 C 598.938 1672.385, 598.375 1672.158, 597 1672.158 C 595.625 1672.158, 595.063 1672.385, 595.750 1672.662 M 600.750 1672.662 C 601.438 1672.940, 602.563 1672.940, 603.250 1672.662 C 603.938 1672.385, 603.375 1672.158, 602 1672.158 C 600.625 1672.158, 600.063 1672.385, 600.750 1672.662 M 607.264 1672.718 C 608.784 1672.947, 611.034 1672.941, 612.264 1672.704 C 613.494 1672.467, 612.250 1672.279, 609.500 1672.286 C 606.750 1672.294, 605.744 1672.488, 607.264 1672.718 M 883.968 1689 C 883.864 1691.475, 883.849 1694.625, 883.934 1696 C 884.058 1697.999, 883.883 1698.199, 883.060 1697 C 882.294 1695.883, 882.027 1696.842, 882.015 1700.750 C 882.007 1703.638, 882.265 1706, 882.590 1706 C 882.914 1706, 884.024 1704.987, 885.056 1703.750 C 887.215 1701.163, 887.582 1696.027, 885.750 1694.053 C 884.927 1693.167, 884.901 1692.932, 885.672 1693.364 C 886.552 1693.858, 886.599 1693.081, 885.864 1690.261 C 884.315 1684.325, 884.169 1684.228, 883.968 1689 M 672 1734.969 C 672 1735.501, 672.675 1735.678, 673.500 1735.362 C 674.325 1735.045, 675 1734.609, 675 1734.393 C 675 1734.177, 674.325 1734, 673.500 1734 C 672.675 1734, 672 1734.436, 672 1734.969" stroke="none" fill="black" fill-rule="evenodd"/>
</svg>