<svg xmlns="http://www.w3.org/2000/svg" width="1240" height="1753" viewBox="0 0 1240 1753" version="1.1">
	<path d="M 658 50.078 C 647.014 51.062, 640.022 52.226, 626.500 55.322 C 610.964 58.878, 607.423 59.813, 599.500 62.450 C 595.650 63.731, 590.025 65.084, 587 65.457 C 582.278 66.039, 571.933 68.781, 567 70.758 C 565.266 71.452, 562.460 71.948, 559.250 72.125 C 558.013 72.194, 557 72.616, 557 73.063 C 557 73.510, 556.212 73.905, 555.250 73.940 C 549.966 74.136, 544.786 75.394, 544.326 76.594 C 543.925 77.637, 543.325 77.709, 541.807 76.897 C 540.711 76.310, 538.661 76.119, 537.252 76.473 C 535.797 76.838, 534.402 76.650, 534.024 76.038 C 533.618 75.382, 527.122 74.736, 517.429 74.386 C 502.116 73.834, 501.273 73.907, 495.622 76.265 C 492.389 77.614, 487.510 80.642, 484.778 82.995 C 480.574 86.616, 479.877 87.711, 480.233 90.134 C 480.623 92.794, 480.530 92.885, 478.920 91.428 C 477.364 90.019, 476.999 90.015, 475.344 91.387 C 470.924 95.050, 458.123 104.866, 454 107.754 C 444.704 114.265, 432 130.774, 432 136.342 C 432 137.189, 431.614 138.120, 431.143 138.412 C 430.671 138.703, 430.013 141.239, 429.681 144.048 C 429.348 146.856, 427.934 151.649, 426.538 154.698 C 425.142 157.747, 424 161.087, 424 162.121 C 424 163.154, 423.611 164, 423.136 164 C 422.046 164, 419 171.862, 419 174.676 C 419 177.267, 421.835 178.595, 422.677 176.399 C 423.162 175.135, 423.442 175.090, 424.124 176.166 C 424.757 177.165, 424.973 177.186, 424.985 176.250 C 424.993 175.563, 425.450 175, 426 175 C 426.550 175, 427 175.927, 427 177.059 C 427 178.310, 426.565 178.849, 425.893 178.434 C 425.160 177.981, 424.998 178.420, 425.415 179.734 C 425.800 180.944, 425.451 182.210, 424.523 182.981 C 423.685 183.676, 423 184.757, 423 185.382 C 423 187.048, 419.327 189.063, 417.540 188.377 C 415.562 187.618, 415.531 185, 417.500 185 C 418.325 185, 419 184.550, 419 184 C 419 183.450, 418.550 183, 418 183 C 417.450 183, 417 182.277, 417 181.393 C 417 180.375, 417.550 179.997, 418.500 180.362 C 420.391 181.087, 420.421 180.278, 418.571 178.429 C 416.756 176.613, 415.909 176.600, 416.599 178.398 C 416.894 179.167, 416.147 180.717, 414.939 181.842 C 413.609 183.081, 412.986 184.522, 413.360 185.496 C 413.699 186.380, 413.569 186.852, 413.070 186.543 C 412.571 186.235, 411.878 187.280, 411.529 188.866 C 411.181 190.451, 409.807 192.772, 408.475 194.024 C 407.143 195.275, 404.875 198.552, 403.434 201.308 C 401.115 205.743, 400.997 206.419, 402.408 207.208 C 403.283 207.698, 404 208.559, 404 209.121 C 404 209.683, 403.293 209.436, 402.429 208.571 C 400.168 206.311, 399.622 206.577, 398.382 210.538 C 397.651 212.874, 397.623 213.959, 398.300 213.733 C 398.864 213.545, 399.443 212.587, 399.588 211.604 C 399.988 208.877, 401 208.376, 401 210.905 C 401 213.354, 399.497 215.234, 396.689 216.298 C 394.863 216.990, 388 230.526, 388 233.434 C 388 234.296, 387.561 235, 387.025 235 C 385.834 235, 382.912 241.283, 380.049 250 C 378.874 253.575, 376.565 259.292, 374.916 262.705 C 371.622 269.526, 369.536 276.100, 368.478 283 C 368.099 285.475, 366.848 289.046, 365.699 290.935 C 364.193 293.409, 363.954 294.485, 364.846 294.782 C 365.645 295.048, 365.753 295.603, 365.149 296.347 C 364.635 296.981, 363.423 300.425, 362.455 304 C 361.487 307.575, 360.102 311.625, 359.379 313 C 357.415 316.730, 354.633 323.358, 354.542 324.520 C 354.499 325.082, 353.538 326.882, 352.406 328.520 C 351.275 330.159, 349.798 332.850, 349.124 334.500 C 348.450 336.150, 345.671 339.935, 342.949 342.912 C 340.227 345.889, 338 348.690, 338 349.138 C 338 349.585, 337.058 351.425, 335.908 353.226 C 333.863 356.425, 333.829 356.437, 334.427 353.750 C 335.226 350.154, 334.436 350.257, 332.500 354 C 331.151 356.609, 331.141 357, 332.423 357 C 333.565 357, 333.257 358.299, 331.060 362.750 C 327.263 370.444, 324.785 377.998, 325.472 379.788 C 325.811 380.671, 324.682 382.401, 322.615 384.167 C 320.692 385.809, 318.240 389.444, 317.009 392.477 C 315.349 396.568, 314.421 397.741, 313.161 397.340 C 311.773 396.898, 311.740 396.981, 312.960 397.845 C 314.227 398.741, 314.199 399.123, 312.748 400.726 C 311.723 401.859, 311.300 403.430, 311.655 404.787 C 311.997 406.095, 311.777 407, 311.117 407 C 310.502 407, 310 407.948, 310 409.107 C 310 410.519, 309.530 411.034, 308.577 410.668 C 307.629 410.304, 306.798 411.189, 306.090 413.311 C 305.116 416.235, 305.151 416.339, 306.514 414.559 C 308.670 411.742, 308.335 414.423, 305.945 419.108 C 304.197 422.533, 304.058 423.647, 305.016 426.550 C 306.033 429.629, 305.908 430.185, 303.741 432.232 C 299.952 435.810, 296.139 444.811, 294.837 453.250 C 294.179 457.512, 293.272 461, 292.821 461 C 292.369 461, 292 461.472, 292 462.048 C 292 462.625, 291.139 464.879, 290.086 467.057 C 289.034 469.236, 287.851 472.924, 287.457 475.253 C 287.064 477.582, 285.495 481.741, 283.972 484.494 C 282.448 487.247, 280.878 490.625, 280.482 492 C 280.087 493.375, 279.214 495.175, 278.542 496 C 277.871 496.825, 276.257 500.200, 274.957 503.500 C 273.656 506.800, 272.012 510.625, 271.302 512 C 270.593 513.375, 270.010 515.007, 270.006 515.628 C 270.003 516.248, 269.314 517.324, 268.476 518.020 C 267.638 518.716, 267.184 519.517, 267.467 519.800 C 267.751 520.084, 267.596 520.807, 267.124 521.408 C 265.586 523.364, 262 534.933, 262 537.939 C 262 542.130, 260.534 545.423, 257.360 548.367 C 255.840 549.776, 254.974 551.283, 255.435 551.715 C 255.896 552.147, 256.475 551.938, 256.720 551.250 C 256.966 550.563, 257.767 550, 258.500 550 C 259.233 550, 260.060 549.437, 260.338 548.750 C 260.615 548.063, 260.878 548.632, 260.921 550.016 C 261.022 553.229, 257.689 559.500, 255.881 559.500 C 255.122 559.500, 253.735 561.188, 252.799 563.250 C 251.863 565.313, 250.456 567, 249.671 567 C 247.345 567, 246.064 569.356, 245.550 574.582 C 244.945 580.727, 243.487 589.123, 242.004 595 C 241.380 597.475, 240.802 600.288, 240.720 601.250 C 240.638 602.212, 240.248 603, 239.853 603 C 239.457 603, 239.170 604.291, 239.215 605.869 C 239.260 607.447, 238.555 609.797, 237.648 611.092 C 236.742 612.386, 236 614.443, 236 615.663 C 236 616.884, 235.522 618.177, 234.938 618.538 C 234.354 618.899, 233.451 620.163, 232.930 621.347 C 231.732 624.074, 227.569 630.987, 222.780 638.204 C 220.734 641.288, 218.291 645.766, 217.351 648.156 C 216.411 650.545, 215.048 652.860, 214.321 653.300 C 213.595 653.740, 213 654.800, 213 655.655 C 213 656.511, 211.875 658.548, 210.500 660.182 C 209.125 661.816, 208 663.724, 208 664.422 C 208 665.119, 207.100 666.505, 206 667.500 C 204.900 668.495, 204 670.321, 204 671.556 C 204 673.413, 197.485 691.048, 194.047 698.500 C 193.539 699.600, 192.390 703.150, 191.493 706.390 C 190.597 709.629, 189.158 713.356, 188.296 714.671 C 187.434 715.986, 186.979 717.312, 187.284 717.617 C 187.588 717.922, 188.340 717.233, 188.954 716.086 C 189.568 714.939, 190.520 714, 191.070 714 C 191.724 714, 191.711 714.672, 191.032 715.939 C 190.399 717.123, 190.359 718.104, 190.931 718.457 C 193.227 719.877, 187.156 732.053, 181.436 737.500 C 179.585 739.263, 174.966 753.712, 173.604 762 C 172.192 770.589, 169.725 781.809, 168.856 783.586 C 168.296 784.734, 167.945 786.309, 168.076 787.086 C 168.208 787.864, 168.062 789.175, 167.752 790 C 166.130 794.322, 164.568 806.656, 164.536 815.393 C 164.500 825.209, 164.523 825.302, 167.436 827.393 C 169.051 828.552, 171.751 830.785, 173.436 832.355 C 177.128 835.796, 191.772 842.995, 195.111 843.012 C 196.425 843.018, 199.975 843.691, 203 844.507 C 206.025 845.323, 212.325 846.264, 217 846.599 C 221.675 846.934, 228.161 847.867, 231.412 848.673 C 234.664 849.479, 242.920 851.233, 249.758 852.570 C 256.597 853.907, 262.600 855.253, 263.099 855.561 C 263.597 855.869, 266.142 856.521, 268.753 857.010 C 271.364 857.499, 275.525 858.384, 278 858.978 C 280.475 859.571, 285.425 860.462, 289 860.956 C 292.575 861.450, 298.200 862.374, 301.500 863.008 C 304.800 863.642, 309.975 864.636, 313 865.215 C 316.025 865.795, 320.351 866.858, 322.614 867.577 C 324.877 868.296, 330.502 869.610, 335.114 870.497 C 339.726 871.384, 347.550 872.970, 352.500 874.022 C 391.301 882.265, 402.425 883.336, 414.500 879.988 C 418.900 878.768, 426.001 877.643, 430.280 877.490 L 438.061 877.210 443.078 872.113 C 448.213 866.897, 450.999 861.819, 451.646 856.500 C 451.847 854.850, 455.371 846.750, 459.477 838.500 C 463.583 830.250, 467.143 822.302, 467.389 820.838 C 467.635 819.373, 468.280 817.345, 468.823 816.330 C 469.367 815.315, 470.495 811.865, 471.331 808.664 C 472.808 803.008, 478.654 792, 480.180 792 C 480.596 792, 480.678 792.675, 480.362 793.500 C 480.045 794.326, 480.332 795, 481.001 795 C 481.814 795, 481.998 794.130, 481.558 792.375 C 481.084 790.487, 481.571 788.734, 483.293 786.125 C 486.423 781.386, 488.083 776.194, 488.005 771.382 C 487.781 757.396, 488.840 734.112, 489.798 732 C 491.730 727.740, 493.535 726.066, 495.611 726.609 C 497.078 726.992, 498.002 726.287, 499.280 723.811 C 500.219 721.990, 501.423 719.825, 501.956 719 C 504.430 715.167, 508.245 705.510, 508.540 702.333 C 508.924 698.204, 513.591 684.906, 516.271 680.306 C 517.294 678.550, 518.664 677.275, 519.315 677.473 C 525.369 679.313, 525.999 679.153, 526.035 675.769 C 526.055 673.971, 526.714 671.375, 527.500 670 C 528.286 668.625, 528.945 666.473, 528.965 665.218 C 528.984 663.963, 530.575 659.690, 532.500 655.722 C 536.065 648.373, 536.583 646.493, 535.250 645.747 C 534.837 645.517, 535.117 645.486, 535.871 645.679 C 536.809 645.919, 537.075 645.394, 536.714 644.013 C 536.424 642.905, 536.595 642.249, 537.093 642.558 C 537.592 642.866, 538 642.668, 538 642.118 C 538 641.568, 537.593 640.867, 537.097 640.560 C 536.600 640.253, 537.723 636.964, 539.594 633.251 C 541.464 629.538, 542.995 626.095, 542.997 625.600 C 542.999 625.104, 544.097 622.404, 545.437 619.600 C 546.777 616.795, 548.577 612.925, 549.435 611 C 550.293 609.075, 551.899 606.150, 553.004 604.500 C 554.108 602.850, 556.178 599.025, 557.604 596 C 564.138 582.133, 566 578.047, 566 577.576 C 566 577.297, 568.925 570.704, 572.500 562.924 C 576.075 555.145, 579 548.344, 579 547.812 C 579 547.279, 581.412 542.041, 584.361 536.172 C 587.309 530.302, 590.075 524.375, 590.507 523 C 590.939 521.625, 592.359 518.810, 593.662 516.744 C 594.966 514.679, 596.957 510.517, 598.087 507.497 C 599.798 502.924, 600.423 502.157, 601.821 502.910 C 604.060 504.116, 613 512.983, 613 513.998 C 613 514.438, 615.691 517.768, 618.981 521.398 C 625.367 528.444, 626.564 531.135, 625.696 536.483 C 625.221 539.414, 625.787 540.653, 630.006 545.910 C 632.678 549.239, 636.242 553.434, 637.927 555.231 C 639.612 557.029, 640.993 559.063, 640.995 559.750 C 640.998 560.438, 641.418 561, 641.929 561 C 643.688 561, 657.404 584.672, 665.107 601 C 666.793 604.575, 668.997 609.075, 670.004 611 C 675.573 621.642, 681 632.870, 681 633.749 C 681 634.302, 681.744 635.373, 682.654 636.128 C 683.564 636.882, 685.616 640.415, 687.215 643.978 C 688.813 647.542, 690.465 650.692, 690.885 650.978 C 691.305 651.265, 693 654.200, 694.652 657.500 C 696.303 660.800, 699.173 666.425, 701.029 670 C 702.885 673.575, 704.455 676.725, 704.520 677 C 704.584 677.275, 706.031 680.425, 707.735 684 C 711.292 691.463, 715.551 704.561, 716.415 710.691 C 716.739 712.997, 717.529 716.147, 718.169 717.691 C 718.809 719.236, 719.409 721.175, 719.503 722 C 719.596 722.825, 719.936 724.175, 720.258 725 C 720.580 725.825, 722.289 731.225, 724.055 737 C 725.820 742.775, 727.711 748.063, 728.255 748.750 C 728.799 749.438, 728.910 750, 728.500 750 C 728.090 750, 728.254 750.601, 728.864 751.336 C 729.474 752.071, 730.636 754.551, 731.446 756.847 C 733.338 762.208, 738.279 769.547, 742.996 774 C 747.209 777.978, 754.529 788.185, 758.273 795.303 C 759.662 797.945, 761.182 800.186, 761.650 800.282 C 762.937 800.548, 766.627 806.327, 768.088 810.366 C 771.175 818.902, 764.704 814.235, 760.992 805.248 C 759.687 802.086, 757.354 797.499, 755.809 795.054 C 754.264 792.609, 753 790.073, 753 789.419 C 753 788.765, 751.875 787.493, 750.500 786.592 C 746.846 784.198, 747.135 786.945, 751 791.347 C 752.650 793.226, 754 795.392, 754 796.160 C 754 796.927, 754.652 798.486, 755.450 799.625 C 756.247 800.763, 758.230 805.045, 759.857 809.140 C 761.484 813.235, 764.206 819.459, 765.907 822.970 C 767.608 826.481, 769 830.005, 769 830.801 C 769 832.049, 773.343 839.329, 778.493 846.711 C 780.788 850.002, 786.737 852.418, 792.971 852.591 C 796.012 852.675, 799.487 853.072, 800.693 853.474 C 802.576 854.100, 802.849 853.866, 802.630 851.809 C 802.490 850.493, 801.992 848.795, 801.523 848.038 C 800.889 847.012, 801.097 846.831, 802.336 847.330 C 803.251 847.699, 804.675 848.273, 805.500 848.607 C 806.325 848.941, 807 848.716, 807 848.107 C 807 847.431, 809.157 847, 812.543 847 C 817.675 847, 818.435 847.318, 822.793 851.293 C 825.908 854.134, 829.747 856.357, 834.146 857.866 C 841.547 860.405, 842.881 860.111, 848.259 854.750 C 849.776 853.237, 851.576 851.993, 852.259 851.985 C 853.075 851.975, 852.986 851.637, 852 851 C 851.051 850.387, 850.948 850.025, 851.719 850.015 C 852.463 850.006, 852.680 849.319, 852.275 848.250 C 851.669 846.652, 851.773 846.660, 853.464 848.336 C 854.590 849.453, 856.234 849.997, 857.658 849.725 C 859.327 849.406, 860.004 849.741, 860.015 850.889 C 860.028 852.256, 860.170 852.280, 860.949 851.048 C 861.455 850.249, 861.646 849.237, 861.375 848.798 C 860.685 847.681, 861.766 847.805, 864.234 849.125 C 866.333 850.248, 866.332 850.252, 863.918 851.590 C 862.407 852.427, 862.073 852.942, 863.027 852.965 C 863.868 852.984, 865.602 852.267, 866.881 851.371 C 868.617 850.155, 870.546 849.880, 874.488 850.287 C 879.168 850.770, 879.717 850.633, 879.311 849.083 C 878.938 847.656, 879.557 847.314, 882.677 847.223 C 894.195 846.887, 894.029 846.923, 892.982 844.966 C 891.728 842.624, 891.745 842, 893.059 842 C 893.641 842, 893.871 842.399, 893.570 842.887 C 893.269 843.374, 893.729 844.360, 894.592 845.077 C 895.842 846.113, 896.563 846.130, 898.122 845.156 C 899.200 844.483, 900.513 844.199, 901.041 844.525 C 901.568 844.851, 902 844.615, 902 844 C 902 843.385, 902.408 843.134, 902.908 843.443 C 903.407 843.751, 904.869 843.540, 906.158 842.974 C 908.453 841.964, 908.454 841.952, 906.251 842.378 C 905.014 842.617, 903.731 842.375, 903.401 841.840 C 902.417 840.247, 903.442 839.980, 906.816 840.947 C 909.336 841.670, 910 841.562, 910 840.430 C 910 839.644, 910.450 839, 911 839 C 911.550 839, 912 839.450, 912 840 C 912 840.550, 912.675 841, 913.500 841 C 914.333 841, 915 840.111, 915 839 C 915 836.693, 916.153 836.484, 919.144 838.250 C 920.567 839.090, 921.389 839.154, 921.649 838.444 C 921.863 837.863, 923.379 837.481, 925.019 837.594 C 926.658 837.708, 928 837.347, 928 836.793 C 928 836.239, 928.627 836.027, 929.394 836.321 C 931.346 837.070, 935.544 832.296, 935.239 829.674 C 935.100 828.478, 935.439 826.825, 935.993 826 C 936.853 824.719, 937.133 824.707, 937.909 825.912 C 938.678 827.107, 939.075 827.068, 940.481 825.662 C 942.281 823.862, 946.525 823.422, 947.462 824.938 C 948.173 826.088, 951.530 825.754, 955.382 824.150 C 956.967 823.489, 959.077 823.207, 960.070 823.522 C 961.805 824.073, 962.629 823.814, 967.870 821.073 C 971.082 819.393, 977.875 819.519, 981.336 821.323 C 983.912 822.666, 984.698 822.610, 989.919 820.708 C 994.958 818.873, 995.667 818.286, 995.667 815.945 C 995.667 811.366, 998.911 808.965, 1005.327 808.796 C 1009.427 808.688, 1011.475 809.120, 1012.877 810.389 C 1013.936 811.347, 1015.051 811.726, 1015.357 811.232 C 1015.662 810.738, 1017.230 810.527, 1018.841 810.763 C 1020.452 811, 1022.770 810.658, 1023.993 810.004 C 1025.600 809.144, 1026.517 809.117, 1027.307 809.907 C 1028.821 811.421, 1030 811.273, 1030 809.567 C 1030 807.801, 1032.536 806.949, 1036.500 807.384 C 1038.669 807.622, 1039.589 808.307, 1039.820 809.856 C 1040.273 812.895, 1042 812.523, 1042 809.387 C 1042 806.947, 1042.216 806.824, 1045.250 807.542 C 1056.049 810.098, 1072.801 807.098, 1071.452 802.850 C 1071.133 801.842, 1071.194 800.495, 1071.589 799.856 C 1072.553 798.296, 1072.980 781.895, 1072.041 782.475 C 1070.887 783.188, 1069.201 778.983, 1068.485 773.603 C 1068.127 770.910, 1067.477 767.985, 1067.042 767.103 C 1066.607 766.221, 1065.243 763.475, 1064.011 761 C 1062.779 758.525, 1060.455 752.675, 1058.846 748 C 1055.953 739.591, 1055.017 737.487, 1045.065 717 C 1040.335 707.264, 1040.111 706.477, 1041.982 706.180 C 1044.609 705.764, 1044.531 704.785, 1041.354 698.292 L 1038.709 692.885 1040.873 689.958 C 1042.457 687.815, 1042.786 686.559, 1042.099 685.266 C 1041.583 684.295, 1039.724 680.575, 1037.967 677 C 1033.704 668.325, 1030.893 663.774, 1030.217 664.450 C 1029.912 664.755, 1028.836 664.256, 1027.825 663.342 C 1026.815 662.427, 1025.811 661.864, 1025.595 662.089 C 1025.379 662.315, 1026.525 665.820, 1028.141 669.877 C 1029.756 673.935, 1030.904 677.429, 1030.691 677.642 C 1030.478 677.855, 1028.333 674.123, 1025.923 669.348 C 1022.859 663.275, 1021.573 659.516, 1021.643 656.834 C 1021.698 654.725, 1021.365 653, 1020.903 653 C 1020.441 653, 1020.185 653.563, 1020.334 654.250 C 1020.483 654.938, 1020.157 654.487, 1019.609 653.250 C 1019.062 652.013, 1018.287 651, 1017.886 651 C 1017.083 651, 1015.471 645.050, 1015.871 643.564 C 1016.326 641.878, 1014.985 638, 1013.946 638 C 1013.276 638, 1013.294 638.681, 1014 640 C 1014.589 641.100, 1014.861 642, 1014.605 642 C 1014.014 642, 1007.483 628.331, 1006.482 625 C 1006.069 623.625, 1005.387 622.275, 1004.968 622 C 1004.317 621.573, 1000.969 614.805, 993.590 599 C 992.692 597.075, 990.197 592.230, 988.047 588.233 C 985.897 584.237, 984.615 581.262, 985.198 581.623 C 985.812 582.002, 986.054 581.693, 985.772 580.889 C 985.504 580.125, 984.542 579.563, 983.634 579.640 C 982.614 579.727, 981.746 578.772, 981.363 577.140 C 980.348 572.821, 976.832 566.859, 971.764 560.864 C 969.144 557.765, 967 554.783, 967 554.239 C 967 551.556, 961.415 541.134, 958.419 538.224 C 956.552 536.411, 955.114 534.606, 955.223 534.214 C 955.755 532.301, 949.389 520.768, 946.623 518.636 C 944.906 517.312, 942.603 514.489, 941.507 512.364 C 940.411 510.239, 937.791 505.420, 935.686 501.655 C 933.580 497.890, 932.078 494.589, 932.348 494.319 C 932.617 494.049, 933.361 494.806, 934 496 C 934.639 497.194, 935.382 497.951, 935.651 497.683 C 936.143 497.191, 933.041 490.791, 930.958 488 C 930.071 486.812, 929.963 487.072, 930.438 489.250 C 931.339 493.381, 930.400 492.589, 927.474 486.750 C 926.026 483.863, 923.837 480.150, 922.608 478.500 C 921.379 476.850, 918.739 472.575, 916.741 469 C 914.743 465.425, 911.059 460.325, 908.554 457.666 C 906.026 454.982, 904 451.864, 904 450.656 C 904 449.460, 903.056 447.892, 901.903 447.171 C 900.749 446.451, 900.023 445.643, 900.290 445.377 C 900.557 445.110, 898.576 440.426, 895.888 434.967 C 893.199 429.509, 891 424.711, 891 424.306 C 891 423.512, 883.981 408.419, 881.324 403.500 C 880.433 401.850, 877.229 395.775, 874.204 390 C 871.180 384.225, 867.944 378.375, 867.013 377 C 866.083 375.625, 863.615 370.225, 861.530 365 C 859.444 359.775, 856.907 353.925, 855.892 352 C 852.166 344.935, 837 312.744, 837 311.900 C 837 311.422, 835.652 308.839, 834.004 306.161 C 832.357 303.484, 830.725 299.877, 830.379 298.146 C 830.033 296.416, 829.356 295, 828.875 295 C 828.394 295, 828 293.631, 828 291.958 C 828 290.285, 826.706 286.123, 825.125 282.708 C 823.543 279.294, 820.562 272.225, 818.501 267 C 816.439 261.775, 814.397 257.050, 813.964 256.500 C 813.530 255.950, 811.783 251.996, 810.083 247.712 C 808.382 243.429, 805.579 237.129, 803.853 233.712 C 799.273 224.644, 795.859 214.741, 796.940 213.660 C 797.859 212.741, 797.686 212.189, 794.643 206.346 C 793.739 204.611, 793 202.714, 793 202.131 C 793 201.548, 791.689 199.148, 790.087 196.799 C 788.485 194.449, 787.387 192.183, 787.646 191.764 C 787.906 191.344, 787.491 191, 786.726 191 C 785.855 191, 785.333 189.911, 785.333 188.095 C 785.333 186.498, 784.662 184.520, 783.842 183.699 C 783.022 182.879, 781.560 180.137, 780.593 177.604 C 779.626 175.072, 778.395 173, 777.858 173 C 777.321 173, 777.159 172.551, 777.498 172.003 C 778.180 170.900, 773.299 159.270, 771.278 157.179 C 770.113 155.974, 769.634 154.536, 769.842 152.869 C 769.885 152.522, 769.038 151.440, 767.960 150.464 C 766.882 149.488, 765.984 147.972, 765.965 147.095 C 765.919 145.046, 763.415 140.500, 762.331 140.500 C 761.874 140.500, 761.633 139.464, 761.796 138.199 C 761.969 136.852, 761.036 134.643, 759.546 132.872 C 758.146 131.208, 756.998 129.319, 756.996 128.673 C 756.990 126.726, 749.481 108.284, 747.937 106.424 C 747.147 105.472, 746.643 104.521, 746.819 104.310 C 747.312 103.718, 732.076 74.952, 729.123 70.901 C 722.297 61.537, 716.523 54.989, 714.606 54.442 C 713.448 54.112, 711.136 53.227, 709.469 52.478 C 702.165 49.192, 679.625 48.141, 658 50.078 M 556.206 75.825 C 554.452 76.074, 554.057 76.603, 554.524 78.075 C 554.949 79.416, 554.659 80, 553.567 80 C 552.705 80, 552 80.750, 552 81.667 C 552 82.583, 552.304 83.030, 552.675 82.659 C 553.046 82.288, 554.218 83.225, 555.280 84.742 C 556.342 86.259, 556.953 86.713, 556.637 85.750 C 556.303 84.733, 556.573 83.986, 557.281 83.967 C 559.133 83.916, 563.391 80.051, 562.505 79.225 C 562.077 78.826, 561.525 79.063, 561.280 79.750 C 560.501 81.930, 559.138 81.101, 558.813 78.250 C 558.560 76.023, 558.064 75.562, 556.206 75.825 M 570 76 C 570 76.550, 570.477 77, 571.059 77 C 571.641 77, 571.840 76.550, 571.500 76 C 571.160 75.450, 570.684 75, 570.441 75 C 570.198 75, 570 75.450, 570 76 M 560.500 77 C 560.840 77.550, 561.316 78, 561.559 78 C 561.802 78, 562 77.550, 562 77 C 562 76.450, 561.523 76, 560.941 76 C 560.359 76, 560.160 76.450, 560.500 77 M 544.529 78.953 C 543.956 79.880, 547.940 80.853, 549.788 80.237 C 550.454 80.015, 551 79.489, 551 79.069 C 551 78.031, 545.163 77.926, 544.529 78.953 M 567 79.032 C 567 79.565, 567.525 80, 568.167 80 C 568.808 80, 569.037 80.296, 568.675 80.658 C 567.920 81.413, 569.810 84, 571.116 84 C 572.904 84, 571.243 79.634, 569.163 78.865 C 567.884 78.392, 567 78.460, 567 79.032 M 561 84.059 C 561 84.641, 561.450 84.840, 562 84.500 C 562.550 84.160, 563 83.684, 563 83.441 C 563 83.198, 562.550 83, 562 83 C 561.450 83, 561 83.477, 561 84.059 M 541.090 85.391 C 539.456 87.361, 540.091 95.175, 541.832 94.509 C 542.564 94.229, 543.689 93.986, 544.332 93.968 C 544.974 93.951, 544.696 93.327, 543.714 92.582 C 542.415 91.596, 542.036 90.242, 542.326 87.613 C 542.773 83.556, 542.709 83.441, 541.090 85.391 M 516.268 90.406 C 514.241 92.738, 514.235 92.828, 516.088 93.313 C 517.235 93.613, 518 94.687, 518 96 C 518 97.320, 518.765 98.387, 519.931 98.692 C 520.993 98.970, 522.128 99.891, 522.454 100.740 C 522.930 101.982, 522.766 102.051, 521.612 101.093 C 520.823 100.438, 519.943 100.284, 519.655 100.749 C 518.704 102.289, 520.584 104.011, 523.062 103.869 C 524.403 103.792, 526.400 104.102, 527.500 104.558 C 529.199 105.263, 529.078 104.831, 526.690 101.682 C 523.601 97.608, 522.587 94.373, 524.105 93.435 C 524.646 93.101, 525.816 93.429, 526.706 94.164 C 527.984 95.218, 528.414 95.235, 528.748 94.244 C 528.981 93.553, 529.535 93.213, 529.981 93.488 C 530.426 93.763, 531.041 93.336, 531.347 92.538 C 531.808 91.338, 531.480 91.280, 529.456 92.202 C 527.451 93.115, 526.645 92.989, 525.004 91.504 C 523.902 90.506, 523 90.157, 523 90.728 C 523 92.117, 519.159 93.067, 518.415 91.862 C 518.092 91.340, 518.372 90.257, 519.036 89.456 C 521.106 86.962, 518.479 87.864, 516.268 90.406 M 491 91.306 C 491 92.159, 490.345 93.512, 489.544 94.313 C 488.269 95.588, 488.309 95.970, 489.864 97.377 C 491.431 98.795, 491.867 98.812, 493.570 97.524 C 494.858 96.550, 495.045 96.053, 494.133 96.032 C 493.273 96.012, 492.957 95.273, 493.280 94.037 C 493.563 92.957, 493.165 91.552, 492.397 90.914 C 491.303 90.007, 491 90.092, 491 91.306 M 533 95 C 533 95.550, 532.212 96.007, 531.250 96.015 C 529.834 96.028, 529.770 96.201, 530.912 96.925 C 531.820 97.500, 532.802 97.341, 533.662 96.481 C 535.253 94.890, 535.374 94, 534 94 C 533.450 94, 533 94.450, 533 95 M 523 106 C 523 106.550, 523.450 107, 524 107 C 524.550 107, 525 106.550, 525 106 C 525 105.450, 524.550 105, 524 105 C 523.450 105, 523 105.450, 523 106 M 467.954 110.086 C 466.472 112.855, 467.628 113.873, 469.479 111.427 C 471.190 109.165, 471.379 108, 470.035 108 C 469.505 108, 468.568 108.939, 467.954 110.086 M 534.500 109 C 534.840 109.550, 535.316 110, 535.559 110 C 535.802 110, 536 109.550, 536 109 C 536 108.450, 535.523 108, 534.941 108 C 534.359 108, 534.160 108.450, 534.500 109 M 513.505 112.985 C 513.153 114.093, 512.333 115.007, 511.683 115.015 C 510.107 115.036, 513.111 116.965, 514.750 116.985 C 516.190 117.002, 516.462 112.404, 515.072 111.544 C 514.562 111.229, 513.856 111.877, 513.505 112.985 M 519 114.059 C 519 114.641, 519.450 114.840, 520 114.500 C 520.550 114.160, 521 113.684, 521 113.441 C 521 113.198, 520.550 113, 520 113 C 519.450 113, 519 113.477, 519 114.059 M 451.029 123.961 C 450.220 124.473, 449.771 125.104, 450.031 125.364 C 450.290 125.624, 451.376 125.198, 452.443 124.418 C 454.576 122.858, 453.383 122.472, 451.029 123.961 M 423 167.351 C 423 169.565, 423.197 169.640, 426.388 168.641 C 428.487 167.984, 429.588 167.090, 429.281 166.290 C 428.649 164.642, 426.321 164.616, 425.662 166.250 C 425.259 167.250, 425.142 167.250, 425.079 166.250 C 424.933 163.946, 423 164.970, 423 167.351 M 425 171 C 425 172.174, 425.769 172.174, 428.500 171 C 430.272 170.238, 430.187 170.133, 427.750 170.070 C 426.238 170.032, 425 170.450, 425 171 M 433 172 C 433 172.550, 433.450 173, 434 173 C 434.550 173, 435 172.550, 435 172 C 435 171.450, 434.550 171, 434 171 C 433.450 171, 433 171.450, 433 172 M 431.500 177 C 431.840 177.550, 432.316 178, 432.559 178 C 432.802 178, 433 177.550, 433 177 C 433 176.450, 432.523 176, 431.941 176 C 431.359 176, 431.160 176.450, 431.500 177 M 431 181.107 C 431 181.723, 430.271 181.934, 429.359 181.584 C 428.026 181.073, 427.941 181.224, 428.907 182.388 C 429.807 183.472, 429.814 183.997, 428.937 184.539 C 428.299 184.934, 427.461 184.746, 427.076 184.123 C 426.648 183.431, 425.766 184.267, 424.810 186.273 C 423.777 188.438, 422.467 189.615, 420.962 189.728 C 419.707 189.822, 418.326 190.472, 417.894 191.171 C 416.817 192.914, 417.763 193.637, 419.217 192.183 C 421.076 190.324, 422.200 190.796, 421.460 193.125 C 421.006 194.555, 421.148 195.027, 421.893 194.566 C 422.502 194.190, 423 194.370, 423 194.966 C 423 195.562, 421.875 196.477, 420.500 197 C 419.125 197.523, 418 198.150, 418 198.393 C 418 200.382, 419.618 202, 421.607 202 C 424.136 202, 424.862 200.515, 422.750 199.662 C 421.994 199.357, 422.183 199.127, 423.227 199.079 C 425.279 198.985, 428.449 194.536, 427.527 193.044 C 427.172 192.470, 427.598 192, 428.473 192 C 430.068 192, 432.153 188.159, 431.324 186.750 C 431.081 186.338, 431.286 186, 431.780 186 C 432.551 186, 435 181.781, 435 180.453 C 435 180.204, 434.100 180, 433 180 C 431.900 180, 431 180.498, 431 181.107 M 414 193.393 C 414 193.609, 414.698 194.054, 415.552 194.382 C 416.442 194.723, 416.843 194.555, 416.493 193.989 C 415.906 193.038, 414 192.583, 414 193.393 M 411.317 196.895 C 411.014 198.053, 410.411 199, 409.977 199 C 409.543 199, 409.423 199.900, 409.710 201 C 409.998 202.100, 410.617 203, 411.085 203 C 411.554 203, 411.678 202.325, 411.362 201.500 C 411.045 200.675, 411.270 200, 411.862 200 C 412.453 200, 412.676 199.320, 412.357 198.489 C 411.929 197.372, 412.234 197.152, 413.525 197.648 C 414.735 198.112, 415.135 197.904, 414.824 196.972 C 414.070 194.711, 411.901 194.663, 411.317 196.895 M 416.079 204.583 C 416.127 205.748, 416.364 205.985, 416.683 205.188 C 416.972 204.466, 416.936 203.603, 416.604 203.271 C 416.272 202.939, 416.036 203.529, 416.079 204.583 M 407.500 209 C 407.160 209.550, 407.359 210, 407.941 210 C 408.523 210, 409 209.550, 409 209 C 409 208.450, 408.802 208, 408.559 208 C 408.316 208, 407.840 208.450, 407.500 209 M 415.500 213 C 415.840 213.550, 416.568 214, 417.118 214 C 417.668 214, 417.840 213.550, 417.500 213 C 417.160 212.450, 416.432 212, 415.882 212 C 415.332 212, 415.160 212.450, 415.500 213 M 360.987 298.032 C 359.237 302.256, 360.133 302.521, 362.229 298.399 C 363.180 296.530, 363.572 295, 363.100 295 C 362.629 295, 361.677 296.364, 360.987 298.032 M 356.247 307.250 C 353.980 310.092, 351.840 315.220, 353.096 314.801 C 353.791 314.570, 355.160 312.495, 356.138 310.190 C 357.966 305.888, 357.996 305.058, 356.247 307.250 M 350.143 318.143 C 349.438 319.271, 349.081 320.414, 349.350 320.683 C 349.618 320.952, 350.361 320.194, 351 319 C 351.639 317.806, 351.996 316.663, 351.793 316.460 C 351.590 316.257, 350.848 317.014, 350.143 318.143 M 344.183 330.217 C 342.783 331.617, 342.638 333, 343.893 333 C 344.809 333, 346.318 329.984, 345.707 329.374 C 345.520 329.186, 344.834 329.566, 344.183 330.217 M 341.584 335.641 C 341.057 337.014, 341.204 337.076, 342.477 336.019 C 344.212 334.579, 344.393 334, 343.107 334 C 342.616 334, 341.931 334.739, 341.584 335.641 M 318.638 383.500 C 318.322 384.325, 318.499 385, 319.031 385 C 319.564 385, 320 384.325, 320 383.500 C 320 382.675, 319.823 382, 319.607 382 C 319.391 382, 318.955 382.675, 318.638 383.500 M 897.046 431.500 C 896.995 432.932, 901.709 438.611, 902.390 437.937 C 902.703 437.628, 901.636 435.828, 900.020 433.937 C 898.404 432.047, 897.065 430.950, 897.046 431.500 M 296.500 435 C 296.160 435.550, 296.359 436, 296.941 436 C 297.523 436, 298 435.550, 298 435 C 298 434.450, 297.802 434, 297.559 434 C 297.316 434, 296.840 434.450, 296.500 435 M 903.975 442.433 C 905.655 446.852, 909.059 452, 910.301 452 C 910.546 452, 909.340 449.304, 907.623 446.008 C 904.517 440.050, 902.208 437.787, 903.975 442.433 M 289.500 451 C 289.160 451.550, 289.359 452, 289.941 452 C 290.523 452, 291 451.550, 291 451 C 291 450.450, 290.802 450, 290.559 450 C 290.316 450, 289.840 450.450, 289.500 451 M 913.370 470.250 C 913.701 471.488, 913.979 473.089, 913.986 473.809 C 913.994 474.542, 914.508 474.804, 915.155 474.405 C 915.835 473.984, 916.039 474.128, 915.651 474.755 C 914.650 476.375, 915.908 478.743, 918.069 479.308 C 919.301 479.630, 920 479.304, 920 478.406 C 920 477.633, 919.587 477, 919.083 477 C 918.578 477, 917.392 474.975, 916.447 472.500 C 914.698 467.922, 912.270 466.146, 913.370 470.250 M 924.606 479.017 C 928.650 486.448, 930.773 487.475, 927.117 480.231 C 925.387 476.804, 923.500 474, 922.923 474 C 922.347 474, 923.104 476.258, 924.606 479.017 M 276 479 C 276 479.550, 276.477 480, 277.059 480 C 277.641 480, 277.840 479.550, 277.500 479 C 277.160 478.450, 276.684 478, 276.441 478 C 276.198 478, 276 478.450, 276 479 M 921 483.500 C 921 484.325, 921.450 485, 922 485 C 922.550 485, 923 484.325, 923 483.500 C 923 482.675, 922.550 482, 922 482 C 921.450 482, 921 482.675, 921 483.500 M 930 500 C 930 500.550, 930.477 501, 931.059 501 C 931.641 501, 931.840 500.550, 931.500 500 C 931.160 499.450, 930.684 499, 930.441 499 C 930.198 499, 930 499.450, 930 500 M 256.020 526.476 C 255.231 527.426, 255.155 528, 255.819 528 C 257.027 528, 258.436 526.103, 257.743 525.409 C 257.491 525.158, 256.716 525.638, 256.020 526.476 M 632.564 529.293 C 632.940 530.279, 633.499 530.834, 633.807 530.526 C 634.115 530.219, 633.808 529.412, 633.124 528.733 C 632.136 527.753, 632.022 527.868, 632.564 529.293 M 966.506 537.006 C 967.504 538.110, 968.538 538.795, 968.803 538.530 C 969.475 537.858, 966.981 535, 965.723 535 C 965.155 535, 965.507 535.903, 966.506 537.006 M 266 555.500 C 266 556.325, 266.450 557, 267 557 C 267.550 557, 268 556.325, 268 555.500 C 268 554.675, 267.550 554, 267 554 C 266.450 554, 266 554.675, 266 555.500 M 655.407 574.750 C 659.632 583.101, 662.900 588.307, 662.968 586.797 C 663.024 585.563, 660.570 580.549, 659.218 579.135 C 658.500 578.384, 656.576 575.121, 654.942 571.885 C 653.308 568.648, 651.748 566, 651.476 566 C 651.203 566, 652.972 569.938, 655.407 574.750 M 233.607 599.582 C 232.668 602.028, 232.872 602.351, 234.500 601 C 236.162 599.620, 236.490 598, 235.107 598 C 234.616 598, 233.941 598.712, 233.607 599.582 M 673 608.914 C 673 610.410, 678.094 620.940, 679.126 621.578 C 679.607 621.875, 680 622.936, 680 623.937 C 680 624.937, 680.737 626.366, 681.637 627.114 C 682.537 627.861, 684.995 632.078, 687.099 636.486 C 689.203 640.894, 690.941 643.960, 690.962 643.299 C 691.012 641.724, 675.081 609.168, 673.905 608.441 C 673.407 608.134, 673 608.346, 673 608.914 M 1012.500 620 C 1012.840 620.550, 1013.316 621, 1013.559 621 C 1013.802 621, 1014 620.550, 1014 620 C 1014 619.450, 1013.523 619, 1012.941 619 C 1012.359 619, 1012.160 619.450, 1012.500 620 M 221 630 C 221 630.550, 221.477 631, 222.059 631 C 222.641 631, 222.840 630.550, 222.500 630 C 222.160 629.450, 221.684 629, 221.441 629 C 221.198 629, 221 629.450, 221 630 M 215 644.918 C 215 645.423, 214.699 646.622, 214.330 647.582 C 213.909 648.680, 214.050 649.087, 214.709 648.680 C 216.092 647.825, 217.070 644, 215.906 644 C 215.408 644, 215 644.413, 215 644.918 M 1027.475 649 C 1027.854 650.375, 1029.018 652.625, 1030.060 654 C 1031.102 655.375, 1032.692 657.962, 1033.592 659.750 C 1034.492 661.538, 1035.621 663, 1036.100 663 C 1037.135 663, 1030.447 650.168, 1028.283 648 C 1026.952 646.667, 1026.862 646.779, 1027.475 649 M 1039.058 670.203 C 1040.010 673.523, 1042.557 676.776, 1043.481 675.852 C 1044.116 675.218, 1039.794 667.020, 1038.820 667.008 C 1038.446 667.004, 1038.553 668.441, 1039.058 670.203 M 696.847 670.116 C 697.311 671.370, 698.210 672.570, 698.844 672.781 C 699.646 673.049, 699.740 672.471, 699.153 670.884 C 698.689 669.630, 697.790 668.430, 697.156 668.219 C 696.354 667.951, 696.260 668.529, 696.847 670.116 M 186 722.059 C 186 722.641, 186.450 722.840, 187 722.500 C 187.550 722.160, 188 721.684, 188 721.441 C 188 721.198, 187.550 721, 187 721 C 186.450 721, 186 721.477, 186 722.059 M 488.583 722.866 C 488.152 723.563, 488.070 724.403, 488.400 724.733 C 489.295 725.628, 490.271 724.312, 489.787 722.862 C 489.449 721.846, 489.213 721.846, 488.583 722.866 M 754.691 811.250 C 755.206 811.938, 756.868 815.875, 758.386 820 C 759.903 824.125, 761.505 828.400, 761.944 829.500 C 762.867 831.811, 772.208 843.125, 772.747 842.586 C 772.946 842.388, 769.544 835.987, 765.188 828.363 C 760.832 820.738, 756.952 813.487, 756.567 812.250 C 756.181 811.013, 755.390 810, 754.810 810 C 754.134 810, 754.091 810.449, 754.691 811.250 M 470.046 817.914 C 469.432 819.062, 469.347 820, 469.858 820 C 470.886 820, 472.304 816.971, 471.605 816.271 C 471.361 816.028, 470.660 816.767, 470.046 817.914 M 872.029 846.961 C 871.220 847.473, 870.771 848.104, 871.031 848.364 C 871.290 848.624, 872.376 848.198, 873.443 847.418 C 875.576 845.858, 874.383 845.472, 872.029 846.961 M 846.607 852.582 C 845.801 854.681, 845.838 855, 846.883 855 C 847.369 855, 848.002 854.100, 848.290 853 C 848.907 850.638, 847.488 850.286, 846.607 852.582 M 53.499 1124.703 C 50.896 1125.955, 45.877 1133.461, 47.087 1134.291 C 47.314 1134.446, 49.934 1131.969, 52.909 1128.787 C 58.505 1122.799, 58.583 1122.258, 53.499 1124.703 M 43.459 1137.067 C 42.383 1138.808, 43.608 1139.177, 44.980 1137.524 C 45.769 1136.574, 45.845 1136, 45.181 1136 C 44.597 1136, 43.821 1136.480, 43.459 1137.067" stroke="none" fill="black" fill-rule="evenodd"/>
</svg>