<svg xmlns="http://www.w3.org/2000/svg" width="1240" height="1753" viewBox="0 0 1240 1753" version="1.1">
	<path d="M 652 41.960 C 650.625 42.379, 648.370 42.524, 646.989 42.283 C 645.607 42.042, 642.457 42.549, 639.989 43.408 C 637.520 44.268, 634.369 44.977, 632.986 44.985 C 631.603 44.993, 628.003 45.908, 624.986 47.018 C 621.969 48.128, 618.295 49.254, 616.821 49.520 C 613.831 50.060, 602.273 54.570, 593.950 58.443 C 590.953 59.839, 587.263 60.985, 585.750 60.990 C 584.237 60.996, 583 61.450, 583 62 C 583 62.550, 581.763 63, 580.250 63.001 C 576.635 63.002, 567.741 66.404, 568.729 67.408 C 569.153 67.838, 568.825 68.094, 568 67.977 C 565.224 67.581, 563.878 67.993, 564.525 69.040 C 564.938 69.709, 564.285 69.859, 562.693 69.459 C 561.302 69.110, 559.921 69.319, 559.540 69.935 C 559.167 70.539, 558.413 70.755, 557.864 70.416 C 557.316 70.077, 556.236 70.632, 555.465 71.650 C 554.364 73.103, 554.054 73.178, 554.016 72 C 553.977 70.748, 553.824 70.730, 553.089 71.890 C 552.605 72.655, 550.474 73.583, 548.354 73.952 C 546.234 74.322, 544.581 75.063, 544.679 75.599 C 544.779 76.144, 542.794 76.479, 540.179 76.357 C 537.606 76.237, 535.598 75.700, 535.719 75.163 C 535.973 74.030, 516.904 72.368, 509.500 72.879 C 502.968 73.330, 496.136 76.871, 491.497 82.210 C 486.750 87.672, 484.869 91.886, 486.126 94.236 C 486.701 95.310, 486.707 96, 486.142 96 C 484.898 96, 483.850 93.109, 484.569 91.660 C 484.886 91.022, 484.014 91.824, 482.632 93.442 C 481.250 95.060, 480.351 96.758, 480.634 97.217 C 480.917 97.675, 480.778 97.939, 480.324 97.804 C 479.013 97.413, 459.506 117.893, 454.898 124.499 C 448.142 134.183, 443.058 145.025, 441.961 152.086 C 439.190 169.917, 438.716 172.576, 438.140 173.500 C 437.327 174.804, 435.034 181.266, 435.015 182.309 C 435.007 182.754, 435.419 182.859, 435.931 182.543 C 436.443 182.226, 437.187 182.494, 437.585 183.138 C 438.010 183.826, 437.878 184.042, 437.264 183.663 C 434.345 181.859, 428.661 199.682, 431.185 202.723 C 432.236 203.989, 432.558 203.957, 433.640 202.478 C 434.747 200.964, 434.982 201.147, 435.768 204.138 C 436.438 206.689, 436.215 208.465, 434.842 211.500 C 433.847 213.700, 432.542 215.376, 431.942 215.225 C 431.342 215.074, 431.136 215.412, 431.485 215.975 C 432.184 217.106, 430.964 217.307, 428.692 216.435 C 427.789 216.089, 427.425 215.092, 427.749 213.851 C 428.163 212.270, 428.483 212.121, 429.223 213.165 C 429.853 214.054, 429.967 213.342, 429.565 211.031 C 429.234 209.123, 428.455 207.098, 427.835 206.531 C 427.037 205.802, 426.914 205.868, 427.417 206.758 C 427.808 207.449, 427.409 208.734, 426.530 209.613 C 425.546 210.597, 425.178 211.986, 425.573 213.231 C 426 214.574, 425.844 215.021, 425.107 214.566 C 424.407 214.133, 424 214.830, 424 216.461 C 424 217.879, 422.945 220.718, 421.656 222.770 C 419.233 226.625, 417.259 230.690, 414.562 237.372 C 412.648 242.118, 412.626 242.555, 414.383 241.097 C 415.457 240.206, 415.910 240.323, 416.407 241.618 C 416.759 242.535, 416.811 243.522, 416.524 243.810 C 416.236 244.098, 416 243.753, 416 243.044 C 416 242.012, 415.701 242.003, 414.500 243 C 413.675 243.685, 412.968 243.852, 412.930 243.372 C 412.808 241.862, 411.144 246.405, 411.070 248.450 C 410.985 250.811, 412.589 249.400, 413.287 246.500 C 413.710 244.741, 413.782 244.780, 413.884 246.821 C 413.998 249.097, 411.728 252.395, 410.734 251.400 C 410.137 250.803, 406.231 258.616, 405.685 261.500 C 405.476 262.600, 404.754 264.850, 404.080 266.500 C 403.406 268.150, 402.590 270.850, 402.267 272.500 C 401.943 274.150, 401.099 276.400, 400.390 277.500 C 399.100 279.503, 397.853 283.680, 393.525 300.500 C 392.252 305.450, 390.301 312.200, 389.191 315.500 C 386.865 322.416, 385.369 329.177, 384.435 337 C 384.074 340.025, 383.139 344.051, 382.358 345.947 C 381.576 347.843, 381.163 349.982, 381.439 350.700 C 382.314 352.982, 376.149 376.821, 370.887 391.500 C 366.983 402.391, 364.902 407.060, 362.105 411.196 C 356.438 419.580, 345.891 448.568, 345.548 456.700 C 345.436 459.345, 344.609 461.973, 343.472 463.298 C 342.432 464.509, 340.621 467.858, 339.447 470.740 C 338.274 473.622, 336.946 475.647, 336.497 475.240 C 336.047 474.833, 335.990 475.042, 336.370 475.704 C 336.750 476.366, 336.763 478.096, 336.398 479.549 C 335.895 481.553, 335.510 481.866, 334.802 480.845 C 334.159 479.918, 334.066 480.200, 334.503 481.753 C 334.907 483.191, 334.557 484.586, 333.534 485.609 C 332.549 486.594, 332.266 487.653, 332.800 488.356 C 333.310 489.027, 333.076 491.525, 332.235 494.398 C 331.346 497.433, 330.512 498.828, 330.042 498.067 C 329.568 497.300, 328.667 498.723, 327.641 501.858 C 325.465 508.510, 325.649 509.604, 328 504 C 330.577 497.858, 330.514 501.621, 327.930 508.177 C 326.102 512.814, 326.004 513.941, 327.086 517.809 C 327.827 520.455, 327.945 522.448, 327.383 522.844 C 323.808 525.367, 319.507 537.996, 317.966 550.500 C 317.356 555.450, 316.254 560.850, 315.518 562.500 C 313.716 566.540, 312.297 572.358, 311.496 579 C 311.130 582.025, 310.041 586.075, 309.074 588 C 308.107 589.925, 306.064 595.550, 304.532 600.500 C 303.001 605.450, 299.810 615.350, 297.442 622.500 C 291.742 639.711, 288.318 653.061, 287.591 660.907 C 287.159 665.570, 286.318 668.206, 284.499 670.590 C 281.189 674.930, 281.292 676.853, 284.644 673.302 L 287.288 670.500 286.677 675.146 C 286.342 677.701, 285.280 681.442, 284.318 683.459 C 282.856 686.524, 282.453 686.828, 281.855 685.312 C 281.233 683.735, 281.131 683.787, 281.070 685.716 C 280.970 688.864, 277.866 695, 276.374 695 C 274.471 695, 273.864 696.562, 273.339 702.802 C 272.341 714.671, 271.013 725.692, 269.943 731 C 269.332 734.025, 268.708 737.175, 268.555 738 C 268.403 738.825, 267.948 740.273, 267.545 741.217 C 267.141 742.161, 267.020 743.511, 267.276 744.217 C 267.531 744.923, 267.073 747.075, 266.257 749 C 265.441 750.925, 264.588 753.966, 264.362 755.757 C 263.964 758.914, 259.846 769.186, 254.041 781.500 C 250.140 789.778, 248.449 793.833, 246.967 798.472 C 246.269 800.657, 245.066 803.077, 244.294 803.849 C 243.522 804.621, 242.982 806.208, 243.094 807.376 C 243.206 808.544, 243.026 810.175, 242.695 811 C 242.364 811.825, 241.357 815.200, 240.457 818.500 C 238.985 823.899, 235.328 834.226, 233.019 839.500 C 232.094 841.616, 229.064 851.471, 227.026 859 C 226.356 861.475, 225.118 865.075, 224.275 867 C 223.432 868.925, 222.637 873.875, 222.509 878 C 222.380 882.125, 221.575 888.200, 220.719 891.500 C 219.863 894.800, 218.650 900.650, 218.022 904.500 C 217.395 908.350, 216.036 914.650, 215.003 918.500 C 212.820 926.634, 207.435 949.777, 206.449 955.261 C 206.078 957.330, 205.374 959.269, 204.887 959.570 C 204.399 959.871, 203.997 962.004, 203.994 964.309 C 203.991 966.614, 203.529 970.156, 202.967 972.179 C 202.405 974.202, 201.724 977.577, 201.454 979.679 C 200.208 989.364, 198.938 996.249, 198.110 997.803 C 197.613 998.736, 197.047 1001.300, 196.853 1003.500 C 196.546 1006.975, 196.750 1007.457, 198.401 1007.172 C 200.172 1006.865, 200.256 1007.332, 199.635 1014.017 C 199.268 1017.962, 198.434 1022.160, 197.781 1023.345 C 197.127 1024.530, 196.707 1027.807, 196.847 1030.626 C 197.099 1035.718, 194.502 1044, 192.653 1044 C 192.171 1044, 192.038 1042.313, 192.356 1040.250 C 192.674 1038.188, 192.651 1037.171, 192.304 1037.990 C 191.957 1038.810, 190.397 1040.757, 188.837 1042.317 C 186.706 1044.448, 186 1046.110, 186 1048.994 C 186 1051.105, 186.417 1052.983, 186.926 1053.167 C 188.206 1053.627, 185.480 1063.662, 183.551 1065.592 C 181.727 1067.416, 181.508 1068.422, 183.157 1067.403 C 184.014 1066.873, 184.103 1067.962, 183.498 1071.594 C 183.049 1074.292, 182.741 1078.168, 182.814 1080.207 C 182.888 1082.246, 182.510 1084.185, 181.974 1084.516 C 181.438 1084.847, 181.052 1086.554, 181.116 1088.309 C 181.189 1090.329, 181.398 1090.766, 181.684 1089.500 C 181.933 1088.400, 182.726 1086.150, 183.446 1084.500 C 184.167 1082.850, 185.001 1080.825, 185.300 1080 C 185.598 1079.175, 185.863 1080.300, 185.889 1082.500 C 185.915 1084.700, 185.276 1087.374, 184.468 1088.441 C 183.661 1089.509, 183 1091.862, 183 1093.671 C 183 1096.732, 181.048 1103.242, 178.942 1107.209 C 178.442 1108.150, 178.290 1110.200, 178.603 1111.765 C 178.989 1113.694, 178.661 1115.037, 177.586 1115.928 C 176.714 1116.652, 175.968 1118.427, 175.930 1119.872 C 175.867 1122.209, 175.770 1122.278, 175.054 1120.500 C 174.400 1118.875, 173.927 1119.592, 172.532 1124.324 C 171.588 1127.527, 171.082 1130.415, 171.407 1130.741 C 171.733 1131.067, 172.014 1130.696, 172.032 1129.917 C 172.049 1129.137, 172.766 1127.600, 173.626 1126.500 C 175.071 1124.650, 175.136 1124.987, 174.499 1131 C 174.120 1134.575, 173.224 1138.427, 172.507 1139.560 C 171.789 1140.693, 169.798 1146.768, 168.081 1153.060 C 166.364 1159.352, 164.212 1166.215, 163.300 1168.311 C 161.622 1172.166, 158.599 1174.644, 156.177 1174.149 C 155.408 1173.992, 154.951 1174.637, 155.086 1175.689 C 155.213 1176.685, 154.982 1178.702, 154.570 1180.171 C 153.249 1184.891, 154.455 1186.934, 155.945 1182.500 C 156.685 1180.300, 157.601 1178.275, 157.980 1178 C 158.360 1177.725, 159.219 1176.600, 159.889 1175.500 C 160.989 1173.694, 161.061 1173.790, 160.626 1176.500 C 160.361 1178.150, 158.970 1183.550, 157.534 1188.500 C 154.305 1199.633, 151.235 1214.873, 150.038 1225.711 C 149.539 1230.227, 148.442 1235.402, 147.600 1237.211 C 146.231 1240.150, 144.418 1246.527, 136.994 1274.500 C 130.831 1297.723, 129.065 1305.044, 128.423 1310.024 C 127.777 1315.033, 121.508 1334.315, 119.109 1338.670 C 116.124 1344.089, 110.517 1363.990, 109.470 1372.883 C 109.186 1375.294, 108.672 1377.721, 108.329 1378.277 C 107.985 1378.833, 107.542 1380.685, 107.343 1382.392 C 106.728 1387.675, 100.807 1398.837, 98.004 1399.998 C 96.063 1400.802, 95.045 1402.512, 93.541 1407.491 C 92.470 1411.039, 91.010 1414.166, 90.297 1414.440 C 89.552 1414.726, 88.999 1416.546, 88.997 1418.719 C 88.995 1420.798, 86.700 1429.925, 83.896 1439 C 81.093 1448.075, 77.985 1459.325, 76.989 1464 C 75.993 1468.675, 74.437 1474.236, 73.531 1476.358 C 72.624 1478.480, 72.132 1480.466, 72.437 1480.770 C 72.742 1481.075, 73.487 1479.901, 74.093 1478.162 C 74.700 1476.423, 75.602 1475, 76.098 1475 C 77.243 1475, 77.236 1475.690, 76.070 1477.870 C 75.558 1478.826, 75.501 1480.193, 75.943 1480.908 C 77.805 1483.921, 70.722 1502.974, 66.429 1506.500 C 65.760 1507.050, 64.991 1508.850, 64.721 1510.500 C 64.451 1512.150, 63.275 1518.450, 62.107 1524.500 C 55.431 1559.074, 51.542 1588.107, 51.518 1603.542 L 51.500 1615.585 57.950 1622.789 C 61.498 1626.751, 65.213 1630.250, 66.206 1630.565 C 67.199 1630.880, 69.250 1632.181, 70.764 1633.455 C 74.583 1636.668, 97.197 1642.997, 104.871 1642.999 C 107.278 1643, 131.769 1649.707, 140 1652.619 C 142.475 1653.495, 146.075 1654.639, 148 1655.162 C 149.925 1655.685, 153.075 1656.573, 155 1657.137 C 160.387 1658.712, 174.093 1661.938, 178 1662.550 C 179.925 1662.852, 188.475 1665.297, 197 1667.985 C 214.587 1673.529, 226.617 1676.842, 242.500 1680.516 C 248.550 1681.915, 254.882 1683.497, 256.571 1684.030 C 262.176 1685.800, 270.544 1685.157, 277.727 1682.404 C 282.111 1680.724, 287.057 1679.687, 291.749 1679.464 C 300.148 1679.064, 300.474 1678.921, 302.656 1674.687 C 303.559 1672.934, 305.178 1670.879, 306.255 1670.119 C 308.660 1668.422, 310.305 1664.586, 313.008 1654.372 C 314.153 1650.043, 317.530 1640.855, 320.511 1633.955 C 326.286 1620.590, 333.408 1600.105, 334.576 1593.500 C 334.965 1591.300, 336.276 1587.250, 337.490 1584.500 C 340.121 1578.534, 344.435 1571.519, 343.537 1574.666 C 343.197 1575.857, 343.387 1577.121, 343.959 1577.475 C 344.618 1577.882, 345.004 1576.537, 345.012 1573.809 C 345.019 1571.170, 345.911 1567.950, 347.312 1565.500 C 351.176 1558.745, 352.784 1549.713, 353.632 1530 C 354.833 1502.091, 355.348 1498.604, 359.218 1492.214 C 360.777 1489.639, 361.501 1489.171, 362.560 1490.050 C 363.637 1490.943, 364.442 1490.084, 366.509 1485.836 C 371.564 1475.450, 375.038 1466.317, 376.389 1459.860 C 378.215 1451.135, 382.920 1435.112, 384.571 1432 C 387.148 1427.142, 390.272 1419.400, 393.044 1411 C 394.587 1406.325, 398.385 1395.075, 401.484 1386 C 408.238 1366.219, 410.595 1357.894, 417.054 1331 C 419.762 1319.725, 423.847 1303.075, 426.131 1294 C 435.800 1255.583, 438.353 1241.413, 442.524 1203 C 443.390 1195.025, 444.557 1185.237, 445.118 1181.249 C 445.679 1177.261, 445.861 1170.511, 445.524 1166.249 C 445.086 1160.709, 445.289 1157.787, 446.238 1156 C 447.511 1153.603, 447.955 1153.500, 457.033 1153.500 C 462.240 1153.500, 466.950 1153.782, 467.500 1154.128 C 468.050 1154.473, 471.177 1154.967, 474.450 1155.226 C 477.722 1155.486, 480.557 1156.171, 480.750 1156.749 C 480.971 1157.413, 483.331 1157.599, 487.150 1157.253 C 491.710 1156.839, 493.412 1157.048, 494.063 1158.102 C 495.080 1159.748, 507.790 1160.306, 509.702 1158.788 C 510.505 1158.152, 511.741 1158.444, 513.421 1159.667 C 514.805 1160.675, 515.951 1161.740, 515.969 1162.033 C 515.986 1162.326, 519.144 1162.388, 522.987 1162.171 C 526.829 1161.953, 530.767 1162.128, 531.737 1162.560 C 535.519 1164.240, 549.211 1165.591, 547 1164.066 C 545.690 1163.162, 545.706 1163.029, 547.128 1163.015 C 548.023 1163.007, 549.268 1163.618, 549.896 1164.374 C 550.636 1165.266, 553.573 1165.821, 558.268 1165.956 C 568.924 1166.263, 570.932 1166.532, 572.228 1167.828 C 573.124 1168.724, 572.471 1169.035, 569.450 1169.150 C 566.185 1169.274, 566.020 1169.365, 568.500 1169.678 C 570.150 1169.887, 579.600 1171.150, 589.500 1172.487 C 612.464 1175.587, 620.950 1176.466, 656.921 1179.475 C 673.187 1180.836, 686.626 1182.395, 686.977 1182.963 C 687.342 1183.553, 692.982 1184.106, 700.237 1184.262 C 707.182 1184.411, 712.331 1184.195, 711.682 1183.782 C 711.032 1183.369, 712.638 1183.024, 715.250 1183.015 C 719.715 1183.001, 721.540 1184.212, 718.750 1185.338 C 718.063 1185.615, 718.906 1185.878, 720.625 1185.921 C 725.557 1186.046, 730.018 1187.161, 729.425 1188.122 C 729.126 1188.605, 723.621 1189.061, 717.191 1189.136 C 710.761 1189.211, 706.592 1189.478, 707.927 1189.729 C 709.261 1189.980, 711.286 1190.763, 712.427 1191.468 C 719.236 1195.682, 759.036 1198.293, 771.598 1195.351 C 774.715 1194.621, 773.667 1190, 770.383 1190 C 765.379 1190, 769.646 1186.203, 777 1184.112 C 779.475 1183.408, 783.839 1181.704, 786.697 1180.324 C 792.206 1177.667, 794 1177.863, 794 1181.124 C 794 1182.227, 794.853 1185.238, 795.895 1187.815 C 796.937 1190.392, 798.322 1193.915, 798.972 1195.645 C 799.623 1197.375, 800.995 1199.691, 802.020 1200.792 C 803.954 1202.867, 808 1209.915, 808 1211.208 C 808 1211.613, 809.189 1214.456, 810.642 1217.525 C 812.344 1221.119, 813.756 1222.924, 814.610 1222.596 C 815.339 1222.316, 816.245 1222.587, 816.622 1223.198 C 817.038 1223.871, 816.854 1224.028, 816.155 1223.595 C 815.520 1223.203, 815 1223.028, 815 1223.206 C 815 1224.616, 822.489 1245.018, 823.696 1246.894 C 825.096 1249.073, 825.084 1249.374, 823.557 1250.228 C 822.292 1250.936, 822.035 1251.949, 822.515 1254.334 C 823.445 1258.953, 826.155 1266, 827.002 1266 C 827.403 1266, 828.733 1268.813, 829.957 1272.250 C 831.180 1275.688, 833.021 1280.300, 834.048 1282.500 C 835.075 1284.700, 836.195 1288.525, 836.538 1291 C 837.309 1296.555, 838.925 1300.925, 840.964 1302.964 C 842.444 1304.444, 857.204 1339.562, 860.314 1349 C 861.129 1351.475, 868.171 1372.365, 875.963 1395.421 C 892.953 1445.697, 898.910 1467.634, 905.037 1502.500 C 911.253 1537.877, 919.941 1565.384, 927.343 1573.128 C 930.382 1576.308, 937.450 1590.118, 940.518 1598.872 C 941.747 1602.377, 942.954 1604.639, 943.200 1603.899 C 943.447 1603.159, 944.824 1605.120, 946.260 1608.257 C 950.427 1617.359, 951.137 1627.253, 947.168 1620.897 C 945.882 1618.838, 940.548 1604.706, 937.099 1594.221 C 936.144 1591.318, 934.381 1588.255, 933.181 1587.414 C 929.707 1584.981, 930.946 1590.397, 934.894 1594.903 C 936.052 1596.225, 937 1597.930, 937 1598.692 C 937 1599.454, 939.739 1608.723, 943.086 1619.289 C 946.434 1629.855, 949.530 1640.075, 949.966 1642 C 951.587 1649.151, 958.087 1661.440, 962.241 1665.207 C 964.490 1667.246, 966.818 1668.603, 967.415 1668.222 C 969.248 1667.054, 974.392 1667.323, 976.473 1668.697 C 979.404 1670.633, 980.289 1670.294, 979.744 1667.442 C 979.359 1665.425, 979.586 1665.011, 980.822 1665.485 C 982.147 1665.994, 982.127 1665.798, 980.694 1664.214 C 978.559 1661.856, 978.453 1660.310, 980.571 1662.429 C 982.354 1664.212, 984 1664.486, 984 1663 C 984 1662.450, 986.476 1662, 989.502 1662 C 994.958 1662, 995.033 1662.041, 998.595 1667 C 1000.678 1669.899, 1002.964 1672, 1004.035 1672 C 1005.051 1672, 1006.162 1672.453, 1006.505 1673.007 C 1007.387 1674.436, 1015 1677.993, 1015 1676.977 C 1015 1676.514, 1015.900 1675.849, 1017 1675.500 C 1018.100 1675.151, 1019 1674.273, 1019 1673.549 C 1019 1671.867, 1022.756 1670.838, 1023.358 1672.356 C 1023.608 1672.985, 1023.742 1672.150, 1023.656 1670.500 C 1023.556 1668.572, 1023.947 1667.589, 1024.750 1667.750 C 1025.438 1667.887, 1026 1667.550, 1026 1667 C 1026 1666.450, 1025.523 1666, 1024.941 1666 C 1024.359 1666, 1024.165 1665.543, 1024.510 1664.984 C 1024.856 1664.425, 1025.557 1664.226, 1026.069 1664.543 C 1026.581 1664.859, 1027 1664.609, 1027 1663.988 C 1027 1663.356, 1027.726 1663.583, 1028.645 1664.502 C 1029.974 1665.831, 1030.452 1665.893, 1031.130 1664.824 C 1031.747 1663.851, 1031.981 1664.030, 1032.015 1665.500 C 1032.057 1667.345, 1032.140 1667.364, 1033.085 1665.742 C 1033.648 1664.775, 1033.832 1663.538, 1033.495 1662.992 C 1032.561 1661.480, 1033.752 1661.807, 1035.909 1663.654 C 1037.812 1665.284, 1037.809 1665.337, 1035.670 1667.207 L 1033.500 1669.106 1035.996 1668.407 C 1037.369 1668.023, 1038.990 1667.029, 1039.597 1666.198 C 1040.446 1665.038, 1041.890 1664.827, 1045.807 1665.291 C 1050.896 1665.893, 1050.908 1665.888, 1049.980 1663.448 C 1049.048 1660.995, 1050.362 1659.838, 1051.341 1662.250 C 1051.681 1663.090, 1052.119 1663.160, 1052.674 1662.463 C 1053.128 1661.893, 1055.525 1661.384, 1058 1661.331 C 1062.463 1661.237, 1062.498 1661.209, 1062.310 1657.868 L 1062.120 1654.500 1063.143 1657.250 C 1063.786 1658.977, 1064.902 1660, 1066.142 1660 C 1067.384 1660, 1067.852 1659.570, 1067.403 1658.842 C 1066.916 1658.054, 1067.355 1657.860, 1068.779 1658.232 C 1070.056 1658.566, 1071.078 1658.238, 1071.404 1657.389 C 1071.697 1656.625, 1073.118 1656, 1074.562 1656 C 1076.346 1656, 1077.355 1655.359, 1077.710 1654 C 1077.998 1652.900, 1078.882 1652, 1079.676 1652 C 1080.469 1652, 1080.840 1652.450, 1080.500 1653 C 1080.160 1653.550, 1080.766 1654, 1081.847 1654 C 1083.272 1654, 1083.679 1653.488, 1083.326 1652.138 C 1083.034 1651.021, 1083.471 1650.033, 1084.419 1649.669 C 1085.361 1649.308, 1086 1649.589, 1086 1650.365 C 1086 1651.081, 1086.675 1651.667, 1087.500 1651.667 C 1088.325 1651.667, 1089 1651.404, 1089.001 1651.083 C 1089.001 1650.763, 1090.225 1650.429, 1091.720 1650.342 C 1093.215 1650.255, 1094.603 1649.690, 1094.805 1649.086 C 1095.006 1648.482, 1095.555 1648.225, 1096.025 1648.515 C 1096.495 1648.806, 1098.031 1647.800, 1099.440 1646.282 C 1101.498 1644.061, 1101.881 1642.881, 1101.389 1640.260 C 1101.018 1638.281, 1101.185 1637, 1101.815 1637 C 1102.386 1637, 1103.059 1636.213, 1103.311 1635.250 C 1103.746 1633.583, 1103.774 1633.583, 1103.884 1635.250 C 1104.016 1637.246, 1106 1637.679, 1106 1635.713 C 1106 1634.283, 1111.438 1633.530, 1113.312 1634.700 C 1115.561 1636.104, 1118.065 1635.994, 1118.652 1634.465 C 1119.070 1633.376, 1120.414 1633.002, 1123.301 1633.173 C 1125.773 1633.319, 1127.520 1632.940, 1127.765 1632.206 C 1127.986 1631.543, 1128.939 1631, 1129.883 1631 C 1130.828 1631, 1132.111 1630.489, 1132.736 1629.864 C 1134.431 1628.169, 1141.294 1628.491, 1144.211 1630.403 C 1146.612 1631.976, 1147.004 1631.969, 1150.634 1630.289 C 1152.760 1629.305, 1154.650 1628.162, 1154.833 1627.750 C 1155.017 1627.337, 1155.692 1626.998, 1156.333 1626.996 C 1156.978 1626.993, 1157.587 1625.322, 1157.695 1623.264 C 1157.802 1621.214, 1158.365 1619.378, 1158.945 1619.185 C 1159.525 1618.992, 1160 1618.251, 1160 1617.538 C 1160 1615.571, 1167.585 1613.959, 1171.090 1615.181 C 1172.691 1615.739, 1174 1616.827, 1174 1617.598 C 1174 1618.369, 1174.450 1619, 1175 1619 C 1175.550 1619, 1176 1618.534, 1176 1617.965 C 1176 1617.263, 1176.644 1617.274, 1178 1618 C 1179.356 1618.726, 1180 1618.737, 1180 1618.035 C 1180 1617.466, 1180.338 1617.089, 1180.750 1617.198 C 1181.162 1617.307, 1182.558 1617.037, 1183.851 1616.599 C 1185.267 1616.118, 1186.627 1616.227, 1187.272 1616.872 C 1188.034 1617.634, 1188.663 1617.304, 1189.447 1615.731 C 1190.750 1613.118, 1193.903 1612.239, 1195.115 1614.152 C 1195.748 1615.150, 1195.973 1615.176, 1195.985 1614.250 C 1195.993 1613.563, 1196.450 1613, 1197 1613 C 1197.550 1613, 1198 1614.350, 1198 1616 C 1198 1617.650, 1198.450 1619, 1199 1619 C 1199.550 1619, 1200 1617.650, 1200 1616 C 1200 1613.486, 1200.395 1613, 1202.441 1613 C 1203.784 1613, 1205.197 1613.510, 1205.583 1614.134 C 1206.055 1614.898, 1208.688 1615.085, 1213.671 1614.709 C 1222.286 1614.057, 1227.629 1611.512, 1227.274 1608.229 C 1227.150 1607.078, 1227.693 1604.892, 1228.483 1603.371 C 1229.289 1601.816, 1229.552 1600.144, 1229.083 1599.553 C 1228.623 1598.974, 1228.609 1596.025, 1229.051 1593 C 1230.187 1585.218, 1230.195 1581.143, 1229.071 1582.919 C 1228.442 1583.913, 1227.994 1582.866, 1227.575 1579.419 C 1226.397 1569.732, 1224.125 1558.306, 1221.028 1546.500 C 1219.297 1539.900, 1216.935 1530.900, 1215.778 1526.500 C 1213.884 1519.292, 1210.626 1508.527, 1206.549 1496 C 1204.855 1490.794, 1202.569 1481.877, 1200.012 1470.500 C 1199.023 1466.100, 1197.235 1458.675, 1196.038 1454 C 1194.841 1449.325, 1192.950 1441.900, 1191.835 1437.500 C 1189.783 1429.405, 1180.946 1398.502, 1174.391 1376.500 C 1165.844 1347.812, 1162.669 1338.005, 1159.439 1330.306 C 1157.547 1325.799, 1156 1321.563, 1156 1320.893 C 1156 1317.678, 1152.161 1307.834, 1148.632 1302 C 1146.469 1298.425, 1144.072 1293.250, 1143.305 1290.500 C 1142.537 1287.750, 1141 1282.125, 1139.889 1278 C 1138.777 1273.875, 1137.161 1269.410, 1136.298 1268.078 C 1134.687 1265.592, 1133.912 1263.141, 1129.005 1245 C 1126.216 1234.692, 1125.140 1232.005, 1121.794 1227 C 1118.783 1222.494, 1115 1209.051, 1115 1202.853 C 1115 1196.528, 1110.228 1182.013, 1108.871 1184.210 C 1107.933 1185.726, 1105.189 1179.471, 1100.536 1165.210 C 1098.510 1159, 1095.901 1151.800, 1094.738 1149.210 C 1093.576 1146.619, 1092.597 1143.600, 1092.562 1142.500 C 1092.528 1141.400, 1091.949 1140.609, 1091.275 1140.742 C 1089.215 1141.148, 1084.322 1129.596, 1084.074 1123.740 C 1084.033 1122.772, 1083.123 1121.230, 1082.051 1120.312 C 1080.979 1119.394, 1080.333 1118.270, 1080.614 1117.815 C 1080.896 1117.359, 1080.259 1115.752, 1079.199 1114.243 C 1078.139 1112.734, 1076.661 1109.788, 1075.915 1107.695 C 1074.784 1104.523, 1074.781 1103.753, 1075.896 1103.064 C 1076.970 1102.400, 1076.699 1100.904, 1074.514 1095.443 C 1073.019 1091.706, 1071.208 1086.590, 1070.490 1084.074 C 1068.232 1076.158, 1059.367 1050.554, 1058.002 1048.004 C 1057.284 1046.661, 1056.610 1044.424, 1056.504 1043.032 C 1055.989 1036.213, 1056.032 1036.341, 1054.920 1038.250 C 1053.444 1040.784, 1051.102 1040.398, 1049.975 1037.435 C 1048.529 1033.631, 1048.690 1019.690, 1050.170 1020.605 C 1050.994 1021.115, 1051.109 1020.763, 1050.556 1019.414 C 1050.126 1018.361, 1049.537 1016.600, 1049.249 1015.500 C 1048.960 1014.400, 1047.829 1012.510, 1046.735 1011.301 C 1045.384 1009.807, 1044.998 1008.524, 1045.531 1007.301 C 1046.610 1004.823, 1046.215 1003.215, 1043.977 1000.977 C 1040.655 997.655, 1037.005 989.315, 1037.113 985.294 C 1037.218 981.396, 1034.852 974.645, 1032.974 973.484 C 1032.394 973.125, 1032.191 971.857, 1032.525 970.666 C 1032.977 969.049, 1032.881 968.862, 1032.146 969.929 C 1031.001 971.590, 1028.945 965.118, 1026.847 953.250 C 1026.143 949.263, 1025.185 946, 1024.720 946 C 1024.255 946, 1023.974 945.212, 1024.096 944.250 C 1024.413 941.751, 1023.032 936.991, 1020.978 933.500 C 1019.253 930.570, 1011.737 909.963, 1009.853 903 C 1009.332 901.075, 1008.487 898.600, 1007.976 897.500 C 1007.464 896.400, 1006.409 893.475, 1005.632 891 C 1004.854 888.525, 1001.878 879.229, 999.018 870.343 C 993.880 854.377, 993.838 854.144, 995.470 850.705 C 996.964 847.556, 996.980 846.715, 995.637 841.862 C 993.745 835.024, 986.121 816.022, 986.052 817.973 C 986.017 818.974, 985.502 818.734, 984.443 817.223 C 980.602 811.739, 980.992 815.950, 985.613 829.883 C 987.236 834.776, 986.678 836.914, 984.959 832.389 C 984.355 830.800, 982.792 826.800, 981.484 823.500 C 980.177 820.200, 978.370 814.350, 977.469 810.500 C 976.567 806.650, 975.455 802.600, 974.997 801.500 C 973.052 796.827, 972.387 793.342, 972.993 791 C 973.349 789.625, 973.162 787.712, 972.579 786.750 C 970.928 784.025, 969.933 784.692, 971.088 787.750 C 971.836 789.732, 971.822 790.199, 971.037 789.425 C 970.439 788.833, 969.764 786.889, 969.538 785.104 C 969.313 783.319, 968.743 781.328, 968.272 780.679 C 967.109 779.075, 965.267 773.315, 964.438 768.690 C 963.961 766.029, 963.340 765.039, 962.377 765.409 C 961.620 765.699, 961 765.497, 961 764.959 C 961 764.422, 958.535 758.923, 955.523 752.741 C 948.966 739.282, 941.009 719.094, 940.978 715.838 C 940.954 713.255, 937.638 705.395, 935.569 703.018 C 933.408 700.534, 928 684.640, 928 680.773 C 928 678.803, 926.927 674.021, 925.616 670.146 C 924.305 666.271, 923.518 662.781, 923.866 662.390 C 924.215 661.999, 923.957 661.991, 923.293 662.372 C 921.938 663.150, 919.939 659.751, 918.074 653.500 C 914.969 643.093, 911.682 635, 910.559 635 C 909.112 635, 908.557 633.858, 901.371 616.109 C 898.389 608.744, 896.163 602.504, 896.424 602.243 C 896.686 601.981, 897.578 603.282, 898.408 605.134 C 899.909 608.481, 899.914 608.483, 899.318 605.500 C 898.480 601.301, 888.861 576.806, 888.278 577.388 C 887.616 578.051, 889.789 584.587, 892.510 590.115 C 893.759 592.653, 895.057 596.253, 895.393 598.115 C 896.125 602.167, 895.933 601.792, 889.458 586.500 C 882.847 570.886, 875.127 555, 874.151 555 C 872.990 555, 871 550.359, 871 547.653 C 871 546.414, 870.450 544.850, 869.778 544.178 C 869.105 543.505, 867.775 540.378, 866.821 537.228 C 861.366 519.214, 845.541 474.364, 839.572 460 C 836.252 452.013, 834.959 448.262, 831.125 435.500 C 829.473 430, 824.457 414.925, 819.980 402 C 815.503 389.075, 811.218 376.331, 810.459 373.680 C 809.699 371.029, 808.390 367.484, 807.551 365.802 C 806.712 364.120, 805.480 360.101, 804.813 356.872 C 804.146 353.642, 803.240 351, 802.800 351 C 802.360 351, 802 349.634, 802 347.965 C 802 343.843, 795.568 321.960, 780.554 275 C 774.171 255.035, 772.860 249.773, 773.986 248.628 C 775.164 247.431, 774.097 245, 772.393 245 C 771.627 245, 771.007 244.213, 771.015 243.250 C 771.028 241.782, 771.181 241.737, 771.961 242.971 C 773.519 245.434, 774.018 243.589, 772.557 240.772 C 771.804 239.321, 770.864 236.657, 770.467 234.850 C 769.720 231.450, 769.385 230.616, 766.669 225.390 C 765.780 223.680, 765.330 222.003, 765.669 221.664 C 766.009 221.325, 765.566 220.771, 764.686 220.433 C 763.547 219.996, 763.244 219.028, 763.635 217.073 C 763.974 215.380, 763.639 213.781, 762.761 212.904 C 761.091 211.234, 759.411 206.128, 759.115 201.821 C 759.052 200.898, 758.296 199.439, 757.436 198.579 C 756.576 197.719, 756.139 196.585, 756.464 196.058 C 757.050 195.110, 754.085 185.269, 751.475 179.500 C 750.728 177.850, 749.624 174.588, 749.020 172.250 C 748.417 169.912, 747.539 168, 747.071 168 C 746.602 168, 745.985 166.537, 745.699 164.750 C 745.413 162.963, 744.948 160.600, 744.666 159.500 C 744.384 158.400, 744.112 157.275, 744.061 157 C 744.011 156.725, 743.533 157.175, 743 158 C 742.295 159.092, 742.025 158.275, 742.012 155 C 742 152.180, 741.191 149.194, 739.846 147 C 738.666 145.075, 737.572 141.935, 737.415 140.022 C 737.258 138.109, 736.676 136.392, 736.121 136.207 C 735.566 136.022, 735.338 135.284, 735.613 134.566 C 736.406 132.501, 731.430 117.405, 720.264 88 C 714.308 72.314, 710.736 64.684, 706.155 57.864 C 704.543 55.464, 703.059 52.600, 702.859 51.500 C 702.658 50.400, 701.065 48.785, 699.317 47.911 C 697.570 47.037, 695.054 45.610, 693.727 44.741 C 692.400 43.871, 688.685 42.673, 685.473 42.080 C 678.928 40.870, 655.854 40.787, 652 41.960 M 556.718 74.706 C 556.288 75.370, 555.203 75.631, 554.307 75.288 C 553.006 74.788, 552.800 75.125, 553.280 76.962 C 553.642 78.348, 553.309 79.834, 552.441 80.702 C 550.407 82.736, 550.618 84.555, 552.692 82.872 C 553.788 81.983, 554.124 81.933, 553.646 82.729 C 552.736 84.244, 554.625 88.006, 556.285 87.985 C 557.227 87.973, 557.224 87.794, 556.271 87.189 C 555.367 86.615, 555.600 85.931, 557.150 84.604 C 558.880 83.122, 559.431 83.041, 560.223 84.149 C 560.960 85.180, 561.058 85.093, 560.638 83.782 C 560.335 82.837, 560.443 81.844, 560.877 81.576 C 561.895 80.947, 561.041 75, 559.932 75 C 559.470 75, 559.306 76.675, 559.568 78.722 C 559.871 81.085, 559.697 82.089, 559.094 81.472 C 558.571 80.938, 557.998 78.925, 557.821 77 C 557.626 74.870, 557.194 73.972, 556.718 74.706 M 567 75 C 567 75.550, 567.450 76, 568 76 C 568.550 76, 569 75.550, 569 75 C 569 74.450, 568.550 74, 568 74 C 567.450 74, 567 74.450, 567 75 M 548.573 78.119 C 549.021 78.843, 548.559 78.995, 547.209 78.566 C 546.087 78.210, 544.911 78.336, 544.595 78.846 C 543.651 80.374, 548.367 81.061, 549.822 79.607 C 550.933 78.496, 550.884 78.169, 549.526 77.648 C 548.488 77.250, 548.142 77.421, 548.573 78.119 M 565.015 77.550 C 565.007 78.127, 565.525 79.125, 566.167 79.767 C 567.057 80.657, 566.928 81.090, 565.627 81.590 C 564.182 82.144, 564.334 82.460, 566.608 83.640 C 568.087 84.408, 569.402 84.915, 569.530 84.768 C 570.267 83.920, 568.608 78.124, 567.776 78.638 C 567.226 78.978, 566.384 78.636, 565.904 77.878 C 565.423 77.120, 565.024 76.972, 565.015 77.550 M 555.500 80 C 555.840 80.550, 556.316 81, 556.559 81 C 556.802 81, 557 80.550, 557 80 C 557 79.450, 556.523 79, 555.941 79 C 555.359 79, 555.160 79.450, 555.500 80 M 541.552 87.250 C 540.364 91.106, 540.149 93.912, 540.843 96.506 C 541.353 98.411, 541.885 98.995, 542.380 98.194 C 542.797 97.519, 543.530 97.209, 544.009 97.505 C 544.487 97.801, 544.814 97.183, 544.735 96.131 C 544.655 95.073, 544.046 94.429, 543.370 94.688 C 542.498 95.023, 542.218 93.847, 542.391 90.578 C 542.629 86.070, 542.308 84.797, 541.552 87.250 M 568.500 87 C 568.840 87.550, 569.541 88, 570.059 88 C 570.577 88, 571 87.550, 571 87 C 571 86.450, 570.298 86, 569.441 86 C 568.584 86, 568.160 86.450, 568.500 87 M 519.290 93 C 519.002 94.100, 518.369 95, 517.883 95 C 517.398 95, 517 95.450, 517 96 C 517 96.550, 517.675 97, 518.500 97 C 519.325 97, 520.056 97.450, 520.125 98 C 520.567 101.534, 522.102 105.055, 522.967 104.520 C 523.420 104.240, 524.063 104.721, 524.395 105.588 C 525.332 108.028, 525.127 108.350, 523.500 107 C 522.280 105.988, 522 106.035, 522 107.255 C 522 108.080, 522.709 109.344, 523.576 110.063 C 524.883 111.147, 525.308 111.126, 526.061 109.936 C 526.747 108.852, 526.973 108.821, 526.985 109.809 C 526.993 110.529, 527.450 110.840, 528 110.500 C 528.550 110.160, 529 110.434, 529 111.108 C 529 111.782, 529.277 112.057, 529.614 111.719 C 529.952 111.381, 529.169 108.943, 527.873 106.302 C 525.098 100.646, 524.551 97, 526.477 97 C 527.223 97, 528.012 97.535, 528.229 98.188 C 528.520 99.059, 529.142 98.993, 530.563 97.938 C 532.916 96.191, 533.580 93.840, 531.494 94.641 C 530.679 94.954, 530.260 95.612, 530.565 96.105 C 530.869 96.597, 530.609 97, 529.988 97 C 528.463 97, 525.939 94.394, 526.714 93.619 C 527.055 93.279, 526.808 93, 526.167 93 C 525.525 93, 525 93.600, 525 94.333 C 525 95.066, 524.109 95.600, 523.020 95.520 C 520.212 95.313, 519.515 94.289, 520.980 92.524 C 521.951 91.354, 521.962 91, 521.029 91 C 520.360 91, 519.577 91.900, 519.290 93 M 495.494 96.029 C 495.135 97.663, 494.357 99, 493.766 99 C 493.174 99, 493.505 99.900, 494.500 101 C 495.777 102.412, 495.921 103, 494.988 103 C 494.261 103, 493.933 103.266, 494.258 103.591 C 494.583 103.917, 495.737 103.901, 496.823 103.556 C 498.373 103.064, 498.764 102.110, 498.648 99.103 C 498.450 93.978, 496.386 91.967, 495.494 96.029 M 523.079 99.583 C 523.127 100.748, 523.364 100.985, 523.683 100.188 C 523.972 99.466, 523.936 98.603, 523.604 98.271 C 523.272 97.939, 523.036 98.529, 523.079 99.583 M 533.223 99.523 C 531.223 100.567, 531.132 100.865, 532.473 101.978 C 533.730 103.021, 534 102.972, 534 101.706 C 534 100.859, 534.563 99.966, 535.250 99.720 C 535.938 99.475, 536.275 99.063, 536 98.805 C 535.725 98.547, 534.476 98.870, 533.223 99.523 M 525 113 C 525 113.550, 525.450 114, 526 114 C 526.550 114, 527 113.550, 527 113 C 527 112.450, 526.550 112, 526 112 C 525.450 112, 525 112.450, 525 113 M 529.490 116.016 C 529.144 116.575, 528.373 116.731, 527.776 116.362 C 527.113 115.952, 526.980 116.159, 527.435 116.894 C 528.004 117.815, 528.509 117.823, 529.589 116.926 C 531.004 115.752, 531.383 115, 530.559 115 C 530.316 115, 529.835 115.457, 529.490 116.016 M 535 116 C 535 116.550, 535.477 117, 536.059 117 C 536.641 117, 536.840 116.550, 536.500 116 C 536.160 115.450, 535.684 115, 535.441 115 C 535.198 115, 535 115.450, 535 116 M 474.975 118.565 C 473.779 121.712, 473.771 122, 474.883 122 C 475.369 122, 476.045 121.213, 476.384 120.250 C 476.724 119.287, 477.263 117.938, 477.584 117.250 C 477.904 116.563, 477.668 116, 477.059 116 C 476.449 116, 475.512 117.154, 474.975 118.565 M 517 120.729 C 517 121.349, 516.252 122.605, 515.338 123.519 C 513.933 124.924, 513.894 125.320, 515.088 126.074 C 515.865 126.566, 516.950 126.827, 517.500 126.655 C 518.945 126.205, 519.360 121.960, 518.085 120.685 C 517.305 119.905, 517 119.917, 517 120.729 M 521 123 C 521 123.550, 521.450 124, 522 124 C 522.550 124, 523 123.550, 523 123 C 523 122.450, 522.550 122, 522 122 C 521.450 122, 521 122.450, 521 123 M 481.813 124.683 C 482.534 124.972, 483.397 124.936, 483.729 124.604 C 484.061 124.272, 483.471 124.036, 482.417 124.079 C 481.252 124.127, 481.015 124.364, 481.813 124.683 M 439 179.059 C 439 179.641, 439.450 179.840, 440 179.500 C 440.550 179.160, 441 178.684, 441 178.441 C 441 178.198, 440.550 178, 440 178 C 439.450 178, 439 178.477, 439 179.059 M 438.079 186.857 C 438.034 187.627, 437.365 187.970, 436.532 187.651 C 435.725 187.341, 434.798 187.518, 434.473 188.044 C 434.148 188.570, 434.584 189, 435.441 189 C 436.298 189, 437 189.436, 437 189.969 C 437 190.501, 436.400 190.707, 435.667 190.426 C 434.933 190.144, 434.333 190.544, 434.333 191.314 C 434.333 192.391, 435.121 192.537, 437.746 191.945 C 441.310 191.141, 443.254 190, 441.060 190 C 440.319 190, 440.035 189.350, 440.382 188.448 C 440.709 187.594, 440.571 187.147, 440.074 187.454 C 439.577 187.761, 438.943 187.447, 438.664 186.756 C 438.284 185.812, 438.138 185.837, 438.079 186.857 M 437.750 193.749 C 436.788 193.968, 436 194.564, 436 195.073 C 436 196.147, 436.749 196.154, 439.434 195.102 C 441.672 194.226, 440.346 193.160, 437.750 193.749 M 444.158 196 C 444.158 197.375, 444.385 197.938, 444.662 197.250 C 444.940 196.563, 444.940 195.438, 444.662 194.750 C 444.385 194.063, 444.158 194.625, 444.158 196 M 446 199.059 C 446 199.641, 446.450 199.840, 447 199.500 C 447.550 199.160, 448 198.684, 448 198.441 C 448 198.198, 447.550 198, 447 198 C 446.450 198, 446 198.477, 446 199.059 M 442 201 C 441.072 202.735, 441.233 202.990, 443.215 202.921 C 444.472 202.878, 444.963 202.624, 444.306 202.356 C 443.650 202.089, 443.360 201.225, 443.663 200.435 C 444.490 198.280, 443.226 198.709, 442 201 M 436.015 201.691 C 436.024 202.136, 436.467 203.175, 437 204 C 437.835 205.293, 437.971 205.266, 437.985 203.809 C 437.993 202.879, 437.550 201.840, 437 201.500 C 436.450 201.160, 436.007 201.246, 436.015 201.691 M 428 203.241 C 428 204.730, 429.932 207, 431.200 207 C 431.640 207, 432 206.523, 432 205.941 C 432 205.359, 431.550 205.160, 431 205.500 C 430.450 205.840, 430 205.443, 430 204.618 C 430 203.793, 429.550 202.840, 429 202.500 C 428.450 202.160, 428 202.494, 428 203.241 M 445.500 204 C 445.160 204.550, 445.359 205, 445.941 205 C 446.523 205, 447 204.550, 447 204 C 447 203.450, 446.802 203, 446.559 203 C 446.316 203, 445.840 203.450, 445.500 204 M 441.271 207.314 C 441.397 207.966, 440.600 208.401, 439.500 208.279 C 438.400 208.158, 438.063 208.308, 438.750 208.612 C 440.232 209.270, 440.445 213, 439 213 C 438.450 213, 437.967 212.213, 437.926 211.250 C 437.886 210.287, 437.145 211.339, 436.279 213.586 C 435.191 216.413, 433.827 218.004, 431.853 218.749 C 430.284 219.342, 429 220.540, 429 221.413 C 429 223.379, 429.454 223.403, 431.321 221.536 C 432.607 220.250, 432.848 220.311, 433.299 222.036 C 433.590 223.148, 433.311 224.007, 432.656 224.015 C 431.997 224.024, 432.144 224.473, 433 225.059 C 434.283 225.939, 434.175 226.316, 432.250 227.666 C 429.122 229.860, 429.265 233.626, 432.500 234.245 C 434.153 234.561, 435 234.272, 435 233.392 C 435 232.660, 435.937 230.264, 437.082 228.068 C 438.227 225.871, 438.875 223.607, 438.523 223.037 C 438.170 222.467, 438.584 222, 439.441 222 C 441 222, 441.124 221.679, 441.369 217 C 441.441 215.625, 442.150 213.727, 442.945 212.782 C 445.303 209.978, 445.347 206.452, 443.027 206.277 C 441.935 206.195, 441.145 206.661, 441.271 207.314 M 425 218 C 425 218.550, 425.477 219, 426.059 219 C 426.641 219, 426.840 218.550, 426.500 218 C 426.160 217.450, 425.684 217, 425.441 217 C 425.198 217, 425 217.450, 425 218 M 424 221 C 424 221.550, 424.477 222, 425.059 222 C 425.641 222, 425.840 221.550, 425.500 221 C 425.160 220.450, 424.684 220, 424.441 220 C 424.198 220, 424 220.450, 424 221 M 434 221 C 434 221.550, 434.450 222, 435 222 C 435.550 222, 436 221.550, 436 221 C 436 220.450, 435.550 220, 435 220 C 434.450 220, 434 220.450, 434 221 M 422.806 228.991 C 421.122 231.949, 421.127 231.967, 423.539 231.767 C 425.130 231.636, 425.628 231.228, 424.983 230.583 C 423.504 229.104, 423.801 227.987, 425.500 228.638 C 426.450 229.003, 427 228.625, 427 227.607 C 427 224.998, 424.633 225.779, 422.806 228.991 M 433 231.059 C 433 231.641, 433.450 231.840, 434 231.500 C 434.550 231.160, 435 230.684, 435 230.441 C 435 230.198, 434.550 230, 434 230 C 433.450 230, 433 230.477, 433 231.059 M 422.638 234.500 C 422.955 235.325, 423.391 236, 423.607 236 C 423.823 236, 424 235.325, 424 234.500 C 424 233.675, 423.564 233, 423.031 233 C 422.499 233, 422.322 233.675, 422.638 234.500 M 428.158 237 C 428.158 238.375, 428.385 238.938, 428.662 238.250 C 428.940 237.563, 428.940 236.438, 428.662 235.750 C 428.385 235.063, 428.158 235.625, 428.158 237 M 420.459 243.067 C 420.096 243.653, 420.014 244.348, 420.276 244.610 C 420.538 244.872, 421.019 244.392, 421.345 243.543 C 422.021 241.781, 421.445 241.471, 420.459 243.067 M 427 247.271 C 427 248.104, 427.675 249.045, 428.500 249.362 C 429.325 249.678, 430 249.556, 430 249.091 C 430 248.626, 429.325 247.685, 428.500 247 C 427.279 245.987, 427 246.037, 427 247.271 M 378.397 354.593 C 377.571 356.569, 377.039 358.616, 377.214 359.142 C 377.389 359.667, 378.291 358.051, 379.218 355.549 C 381.213 350.166, 380.563 349.409, 378.397 354.593 M 372.513 369.622 C 371.681 371.614, 371 373.657, 371 374.162 C 371 374.667, 370.069 376.905, 368.930 379.137 C 367.792 381.368, 367.080 383.414, 367.349 383.683 C 368.038 384.372, 369.364 381.611, 372.360 373.250 C 375.056 365.723, 375.160 363.289, 372.513 369.622 M 361.615 399.615 C 360.730 402.213, 360.179 404.512, 360.390 404.724 C 360.602 404.935, 361.499 402.983, 362.385 400.385 C 363.270 397.787, 363.821 395.488, 363.610 395.276 C 363.398 395.065, 362.501 397.017, 361.615 399.615 M 356.564 414.707 C 356.022 416.132, 356.136 416.247, 357.124 415.267 C 357.808 414.588, 358.115 413.781, 357.807 413.474 C 357.499 413.166, 356.940 413.721, 356.564 414.707 M 352.390 425.608 C 351.561 427.593, 351.122 429.455, 351.413 429.747 C 351.874 430.207, 352.572 428.737, 354.498 423.250 C 355.517 420.350, 353.772 422.302, 352.390 425.608 M 339.624 463.539 C 338.659 466.053, 338.943 466.702, 340.122 464.675 C 340.706 463.671, 340.973 462.639, 340.715 462.382 C 340.458 462.124, 339.966 462.645, 339.624 463.539 M 865 524.417 C 865 525.945, 869.191 533.142, 869.753 532.580 C 870.091 532.243, 869.834 531.434, 869.183 530.783 C 868.533 530.133, 868 528.845, 868 527.922 C 868 527, 867.325 525.685, 866.500 525 C 865.675 524.315, 865 524.053, 865 524.417 M 319.667 527.667 C 319.300 528.033, 319 528.798, 319 529.367 C 319 529.993, 319.466 529.934, 320.183 529.217 C 320.834 528.566, 321.134 527.801, 320.850 527.517 C 320.566 527.232, 320.033 527.300, 319.667 527.667 M 870.582 536.500 C 871.397 539.879, 876.093 550.240, 876.586 549.747 C 877.094 549.239, 871.978 535.609, 870.864 534.500 C 870.190 533.830, 870.097 534.491, 870.582 536.500 M 312.638 548.500 C 312.322 549.325, 312.451 550, 312.924 550 C 313.398 550, 314.045 549.325, 314.362 548.500 C 314.678 547.675, 314.549 547, 314.076 547 C 313.602 547, 312.955 547.675, 312.638 548.500 M 875 562.941 C 875 563.459, 875.445 564.157, 875.989 564.493 C 876.555 564.843, 876.723 564.442, 876.382 563.552 C 875.717 561.820, 875 561.503, 875 562.941 M 305.446 570.087 C 305.077 570.685, 305.179 571.579, 305.673 572.073 C 306.204 572.604, 306.571 572.160, 306.571 570.986 C 306.571 568.713, 306.386 568.566, 305.446 570.087 M 879 571.941 C 879 573.009, 879.457 574.165, 880.016 574.510 C 880.575 574.856, 880.772 575.560, 880.454 576.075 C 879.806 577.123, 882.046 584, 883.034 584 C 884.154 584, 883.839 580.634, 882.217 575.250 C 880.630 569.985, 879 568.308, 879 571.941 M 301.158 584 C 301.158 585.375, 301.385 585.938, 301.662 585.250 C 301.940 584.563, 301.940 583.438, 301.662 582.750 C 301.385 582.063, 301.158 582.625, 301.158 584 M 884.638 583.500 C 884.955 584.325, 885.391 585, 885.607 585 C 885.823 585, 886 584.325, 886 583.500 C 886 582.675, 885.564 582, 885.031 582 C 884.499 582, 884.322 582.675, 884.638 583.500 M 887.158 590 C 887.158 591.375, 887.385 591.938, 887.662 591.250 C 887.940 590.563, 887.940 589.438, 887.662 588.750 C 887.385 588.063, 887.158 588.625, 887.158 590 M 297.079 598.583 C 297.127 599.748, 297.364 599.985, 297.683 599.188 C 297.972 598.466, 297.936 597.603, 297.604 597.271 C 297.272 596.939, 297.036 597.529, 297.079 598.583 M 293.459 607.067 C 293.096 607.653, 293.014 608.348, 293.276 608.610 C 293.538 608.872, 294.019 608.392, 294.345 607.543 C 295.021 605.781, 294.445 605.471, 293.459 607.067 M 895.079 610.583 C 895.127 611.748, 895.364 611.985, 895.683 611.188 C 895.972 610.466, 895.936 609.603, 895.604 609.271 C 895.272 608.939, 895.036 609.529, 895.079 610.583 M 593.589 618.715 C 592.651 621.897, 590.821 627.425, 589.523 631 C 586.016 640.663, 577.306 666.129, 576.526 669 C 576.152 670.375, 572.781 681.175, 569.033 693 C 565.286 704.825, 560.978 718.550, 559.460 723.500 C 557.942 728.450, 555.396 735.340, 553.803 738.810 C 550.398 746.223, 548.952 749.860, 548.479 752.198 C 547.569 756.691, 544.544 765, 543.817 765 C 543.368 765, 543 766.581, 543 768.514 C 543 770.446, 542.553 772.809, 542.007 773.764 C 540.582 776.257, 537.811 784.234, 537.757 786 C 537.732 786.825, 538.051 788.293, 538.467 789.261 C 539.062 790.649, 538.860 790.883, 537.512 790.366 C 536.050 789.805, 535.973 789.984, 536.982 791.605 C 537.949 793.157, 537.495 795.488, 534.470 804.500 C 530.440 816.506, 529.677 820.293, 527.521 839 C 526.728 845.875, 525.637 853.750, 525.096 856.500 C 524.554 859.250, 523.623 865.970, 523.026 871.433 C 522.429 876.897, 521.496 881.902, 520.953 882.557 C 520.410 883.211, 520.246 884.479, 520.590 885.373 C 520.955 886.325, 520.710 887, 520 887 C 519.224 887, 519.057 887.632, 519.537 888.750 C 519.950 889.712, 520.336 891.850, 520.394 893.500 C 520.496 896.382, 520.697 896.511, 525.500 896.767 C 528.250 896.913, 536.143 897.701, 543.040 898.517 C 549.938 899.332, 558.713 900.009, 562.540 900.019 C 566.368 900.030, 573.977 900.673, 579.449 901.448 C 585.556 902.313, 590.042 902.513, 591.067 901.964 C 591.986 901.472, 593.046 901.379, 593.423 901.756 C 593.800 902.133, 594.422 901.956, 594.804 901.362 C 595.284 900.618, 597.518 900.561, 602 901.178 C 605.575 901.670, 611.200 902.323, 614.500 902.628 C 617.800 902.934, 620.950 903.526, 621.500 903.943 C 622.050 904.361, 626.696 904.794, 631.825 904.905 C 636.954 905.016, 642.258 905.528, 643.612 906.043 C 644.967 906.558, 649.085 907.227, 652.764 907.529 C 656.443 907.832, 660.771 908.737, 662.380 909.540 C 665.686 911.189, 667.271 911.467, 665 910 C 663.720 909.173, 663.759 909.028, 665.264 909.015 C 666.953 909.001, 670.951 910.835, 672 912.106 C 672.275 912.439, 674.300 913.091, 676.500 913.554 C 680.009 914.292, 680.172 914.440, 677.826 914.757 C 676.355 914.956, 672.868 914.703, 670.076 914.196 C 667.284 913.688, 665 913.616, 665 914.035 C 665 914.454, 668.263 915.099, 672.250 915.467 C 681.229 916.297, 703.724 919.622, 710.665 921.145 C 713.837 921.841, 715.658 922.727, 715.385 923.440 C 714.778 925.021, 721.990 928.410, 723.259 927.141 C 723.800 926.600, 723.858 925.585, 723.392 924.837 C 722.933 924.102, 722.444 922.768, 722.304 921.874 C 722.165 920.980, 720.732 917.380, 719.121 913.874 C 717.509 910.368, 712.948 897.410, 708.984 885.078 C 705.020 872.746, 699.542 857.446, 696.810 851.078 C 694.078 844.710, 690.352 835.225, 688.531 830 C 683.595 815.843, 679.051 803.817, 677.573 801 C 676.852 799.625, 675.474 796.025, 674.511 793 C 673.548 789.975, 672.179 786.150, 671.469 784.500 C 670.759 782.850, 668.989 778.350, 667.536 774.500 C 666.083 770.650, 664.498 766.600, 664.013 765.500 C 663.529 764.400, 662.559 761.700, 661.858 759.500 C 661.156 757.300, 660.309 755.050, 659.974 754.500 C 659.640 753.950, 658.538 750.800, 657.526 747.500 C 653.153 733.232, 635.386 688.796, 633.800 688.158 C 633.333 687.970, 632.266 686.170, 631.429 684.158 C 630.592 682.146, 628.880 678.925, 627.625 677 C 618.938 663.679, 618.007 661.490, 618.590 655.769 C 619.248 649.309, 618.097 646.060, 612.150 637.584 C 609.868 634.331, 608 631.158, 608 630.533 C 608 628.887, 600.654 617.897, 597.761 615.215 L 595.296 612.929 593.589 618.715 M 282.500 644 C 282.125 645.183, 282.042 646.376, 282.317 646.651 C 282.592 646.926, 283.125 646.183, 283.500 645 C 283.875 643.817, 283.958 642.624, 283.683 642.349 C 283.408 642.074, 282.875 642.817, 282.500 644 M 624.031 645.500 C 624.031 646.050, 624.467 647.175, 625 648 C 625.533 648.825, 625.969 649.050, 625.969 648.500 C 625.969 647.950, 625.533 646.825, 625 646 C 624.467 645.175, 624.031 644.950, 624.031 645.500 M 279.564 653.707 C 279.022 655.132, 279.136 655.247, 280.124 654.267 C 280.808 653.588, 281.115 652.781, 280.807 652.474 C 280.499 652.166, 279.940 652.721, 279.564 653.707 M 927.067 654.500 C 927.074 656.266, 929.926 660.638, 929.965 658.941 C 929.984 658.084, 929.339 656.509, 928.532 655.441 C 927.724 654.374, 927.065 653.950, 927.067 654.500 M 291.755 680.500 C 291.492 681.875, 291.665 683, 292.139 683 C 292.612 683, 293 681.875, 293 680.500 C 293 679.125, 292.827 678, 292.617 678 C 292.406 678, 292.018 679.125, 291.755 680.500 M 278.079 686.583 C 278.127 687.748, 278.364 687.985, 278.683 687.188 C 278.972 686.466, 278.936 685.603, 278.604 685.271 C 278.272 684.939, 278.036 685.529, 278.079 686.583 M 642 690.059 C 642 690.641, 641.579 690.858, 641.064 690.540 C 639.868 689.800, 640.774 692.756, 645.803 706 C 651.208 720.233, 651.103 720, 652.056 720 C 652.519 720, 652.264 718.482, 651.489 716.627 C 649.662 712.256, 650.795 711.134, 653.141 714.992 C 654.773 717.675, 655.207 717.863, 657.432 716.849 C 659.714 715.809, 659.805 715.518, 658.594 713.111 C 657.872 711.675, 656.984 709.263, 656.621 707.750 C 655.695 703.888, 653.584 704.168, 654.360 708.050 C 654.738 709.941, 654.596 710.868, 653.985 710.491 C 653.443 710.156, 652.998 709.346, 652.995 708.691 C 652.992 708.036, 651.878 705.700, 650.519 703.500 L 648.048 699.500 648.498 704.303 C 648.745 706.944, 649.250 709.644, 649.620 710.303 C 650.080 711.121, 649.952 711.183, 649.216 710.500 C 647.394 708.809, 641.958 692.708, 642.564 690.799 C 642.878 689.809, 642.879 689, 642.567 689 C 642.255 689, 642 689.477, 642 690.059 M 943 710.878 C 943 711.360, 943.675 712.315, 944.500 713 C 946.128 714.351, 946.332 714.028, 945.393 711.582 C 944.750 709.907, 943 709.392, 943 710.878 M 655.031 712.500 C 655.031 713.050, 655.467 714.175, 656 715 C 656.533 715.825, 656.969 716.050, 656.969 715.500 C 656.969 714.950, 656.533 713.825, 656 713 C 655.467 712.175, 655.031 711.950, 655.031 712.500 M 942.564 714.293 C 942.940 715.279, 943.499 715.834, 943.807 715.526 C 944.115 715.219, 943.808 714.412, 943.124 713.733 C 942.136 712.753, 942.022 712.868, 942.564 714.293 M 262.500 736 C 262.125 737.183, 262.042 738.376, 262.317 738.651 C 262.592 738.926, 263.125 738.183, 263.500 737 C 263.875 735.817, 263.958 734.624, 263.683 734.349 C 263.408 734.074, 262.875 734.817, 262.500 736 M 951.070 735.691 C 951.109 736.136, 951.527 737.400, 952 738.500 C 952.829 740.428, 952.862 740.421, 952.930 738.309 C 952.968 737.104, 952.550 735.840, 952 735.500 C 951.450 735.160, 951.032 735.246, 951.070 735.691 M 661.033 747.593 C 660.994 748.896, 664.256 758.536, 666.314 763.197 C 667.853 766.682, 672.344 778.099, 674.497 784 C 675.200 785.925, 676.245 788.625, 676.819 790 C 677.846 792.454, 677.866 792.440, 677.932 789.210 C 677.970 787.401, 677.104 784.163, 676.008 782.016 C 674.913 779.868, 672.883 774.599, 671.497 770.306 C 670.112 766.013, 668.331 761.150, 667.541 759.500 C 666.751 757.850, 665.861 755.319, 665.565 753.876 C 664.999 751.123, 661.091 745.705, 661.033 747.593 M 969 760.882 C 969 761.432, 969.450 762.160, 970 762.500 C 970.550 762.840, 971 762.668, 971 762.118 C 971 761.568, 970.550 760.840, 970 760.500 C 969.450 760.160, 969 760.332, 969 760.882 M 244.975 794.565 C 243.747 797.796, 243.695 799.733, 244.871 798.450 C 245.925 797.300, 247.259 792, 246.494 792 C 246.195 792, 245.512 793.154, 244.975 794.565 M 535.500 794 C 535.840 794.550, 536.316 795, 536.559 795 C 536.802 795, 537 794.550, 537 794 C 537 793.450, 536.523 793, 535.941 793 C 535.359 793, 535.160 793.450, 535.500 794 M 983.551 799 C 983.932 800.925, 985.143 804.275, 986.242 806.445 C 987.341 808.615, 988.783 811.960, 989.448 813.879 C 990.112 815.797, 990.940 816.907, 991.287 816.344 C 991.635 815.781, 991.104 813.786, 990.106 811.910 C 989.109 810.035, 988 806.925, 987.641 805 C 987.282 803.075, 986.059 800.150, 984.923 798.500 L 982.858 795.500 983.551 799 M 977 805 C 977 806.100, 977.408 807, 977.906 807 C 978.405 807, 978.577 806.100, 978.290 805 C 978.002 803.900, 977.594 803, 977.383 803 C 977.173 803, 977 803.900, 977 805 M 241.079 807.583 C 241.127 808.748, 241.364 808.985, 241.683 808.188 C 241.972 807.466, 241.936 806.603, 241.604 806.271 C 241.272 805.939, 241.036 806.529, 241.079 807.583 M 993.651 824.200 C 994.535 828.902, 997.137 834.729, 997.693 833.254 C 998.257 831.763, 995.231 822.261, 993.939 821.462 C 993.419 821.141, 993.296 822.313, 993.651 824.200 M 538.269 895.693 C 539.242 895.947, 540.592 895.930, 541.269 895.656 C 541.946 895.382, 541.150 895.175, 539.500 895.195 C 537.850 895.215, 537.296 895.439, 538.269 895.693 M 554.750 896.706 C 555.987 896.944, 558.013 896.944, 559.250 896.706 C 560.487 896.467, 559.475 896.272, 557 896.272 C 554.525 896.272, 553.513 896.467, 554.750 896.706 M 565.500 898.057 C 567.700 898.512, 570.625 898.904, 572 898.927 C 573.972 898.960, 574.183 898.765, 573 898 C 572.175 897.467, 569.250 897.075, 566.500 897.130 L 561.500 897.230 565.500 898.057 M 576.500 899 C 576.160 899.550, 576.610 900, 577.500 900 C 578.390 900, 578.840 899.550, 578.500 899 C 578.160 898.450, 577.710 898, 577.500 898 C 577.290 898, 576.840 898.450, 576.500 899 M 585.500 900 C 585.840 900.550, 586.879 900.993, 587.809 900.985 C 589.266 900.971, 589.293 900.835, 588 900 C 586.042 898.734, 584.718 898.734, 585.500 900 M 1015.031 902.500 C 1015.031 903.050, 1015.467 904.175, 1016 905 C 1016.533 905.825, 1016.969 906.050, 1016.969 905.500 C 1016.969 904.950, 1016.533 903.825, 1016 903 C 1015.467 902.175, 1015.031 901.950, 1015.031 902.500 M 1021.071 903.500 C 1021.071 904.050, 1021.714 905.625, 1022.500 907 C 1023.286 908.375, 1023.929 909.050, 1023.929 908.500 C 1023.929 907.950, 1023.286 906.375, 1022.500 905 C 1021.714 903.625, 1021.071 902.950, 1021.071 903.500 M 638 911.965 C 640.932 912.945, 647.608 913.275, 646.730 912.397 C 646.399 912.065, 643.736 911.644, 640.814 911.462 C 636.985 911.223, 636.199 911.363, 638 911.965 M 679.101 912.346 C 681.656 912.987, 683.529 913.993, 683.314 914.609 C 683.085 915.266, 684.833 915.979, 687.603 916.359 C 694.313 917.279, 699.210 917.149, 698.543 916.069 C 698.226 915.557, 698.514 914.800, 699.182 914.388 C 701.041 913.239, 689.455 911.124, 681.500 911.160 L 674.500 911.192 679.101 912.346 M 703.865 914.470 C 707.592 916.165, 720.580 916.660, 718 915.010 C 717.175 914.482, 714.925 914.103, 713 914.167 C 711.075 914.232, 707.475 913.982, 705 913.613 L 700.500 912.941 703.865 914.470 M 1020 916.941 C 1020 917.459, 1020.450 918.160, 1021 918.500 C 1021.550 918.840, 1022 918.416, 1022 917.559 C 1022 916.702, 1021.550 916, 1021 916 C 1020.450 916, 1020 916.423, 1020 916.941 M 710.500 918 C 710.840 918.550, 712.693 919, 714.618 919 C 716.697 919, 717.867 918.594, 717.500 918 C 717.160 917.450, 715.307 917, 713.382 917 C 711.303 917, 710.133 917.406, 710.500 918 M 198.158 971 C 198.158 972.375, 198.385 972.938, 198.662 972.250 C 198.940 971.563, 198.940 970.438, 198.662 969.750 C 198.385 969.063, 198.158 969.625, 198.158 971 M 1039 979.882 C 1039 980.432, 1039.450 981.160, 1040 981.500 C 1040.550 981.840, 1041 981.668, 1041 981.118 C 1041 980.568, 1040.550 979.840, 1040 979.500 C 1039.450 979.160, 1039 979.332, 1039 979.882 M 1040.079 984.583 C 1040.127 985.748, 1040.364 985.985, 1040.683 985.188 C 1040.972 984.466, 1040.936 983.603, 1040.604 983.271 C 1040.272 982.939, 1040.036 983.529, 1040.079 984.583 M 1042.015 992.191 C 1042.007 993.121, 1042.450 994.160, 1043 994.500 C 1044.266 995.282, 1044.266 993.958, 1043 992 C 1042.165 990.707, 1042.029 990.734, 1042.015 992.191 M 189.079 1012.583 C 189.127 1013.748, 189.364 1013.985, 189.683 1013.188 C 189.972 1012.466, 189.936 1011.603, 189.604 1011.271 C 189.272 1010.939, 189.036 1011.529, 189.079 1012.583 M 195.387 1013.750 C 195.085 1014.712, 194.424 1016.534, 193.919 1017.797 C 193.413 1019.060, 193 1021.028, 193 1022.169 C 193 1025.467, 195.814 1022.508, 196.585 1018.400 C 196.936 1016.530, 197.608 1015, 198.080 1015 C 198.551 1015, 198.678 1014.325, 198.362 1013.500 C 197.585 1011.476, 196.062 1011.604, 195.387 1013.750 M 192.079 1026.583 C 192.127 1027.748, 192.364 1027.985, 192.683 1027.188 C 192.972 1026.466, 192.936 1025.603, 192.604 1025.271 C 192.272 1024.939, 192.036 1025.529, 192.079 1026.583 M 189 1029 C 189 1030.100, 189.173 1031, 189.383 1031 C 189.594 1031, 190.002 1030.100, 190.290 1029 C 190.577 1027.900, 190.405 1027, 189.906 1027 C 189.408 1027, 189 1027.900, 189 1029 M 1052.086 1027.500 C 1052.190 1029.394, 1053.856 1032.584, 1053.914 1031 C 1053.945 1030.175, 1053.533 1028.825, 1053 1028 C 1052.467 1027.175, 1052.055 1026.950, 1052.086 1027.500 M 199 1029.524 C 198.175 1030.547, 198.043 1031.058, 198.707 1030.660 C 199.608 1030.119, 199.802 1031.271, 199.472 1035.218 C 199.035 1040.458, 199.039 1040.468, 200.055 1036.500 C 200.618 1034.300, 200.949 1031.412, 200.789 1030.082 C 200.512 1027.768, 200.436 1027.744, 199 1029.524 M 1050 1033.845 C 1050 1034.310, 1050.970 1035.547, 1052.155 1036.595 L 1054.310 1038.500 1052.540 1035.750 C 1050.715 1032.914, 1050 1032.378, 1050 1033.845 M 1054.079 1034.583 C 1054.127 1035.748, 1054.364 1035.985, 1054.683 1035.188 C 1054.972 1034.466, 1054.936 1033.603, 1054.604 1033.271 C 1054.272 1032.939, 1054.036 1033.529, 1054.079 1034.583 M 183 1043.059 C 183 1043.641, 183.450 1043.840, 184 1043.500 C 184.550 1043.160, 185 1042.684, 185 1042.441 C 185 1042.198, 184.550 1042, 184 1042 C 183.450 1042, 183 1042.477, 183 1043.059 M 196.667 1044.667 C 195.629 1045.704, 195.883 1049, 197 1049 C 197.550 1049, 198 1047.875, 198 1046.500 C 198 1043.882, 197.769 1043.564, 196.667 1044.667 M 177.825 1085.326 C 177.452 1087.151, 177.592 1087.808, 178.218 1087.182 C 178.751 1086.649, 179.011 1085.377, 178.794 1084.356 C 178.503 1082.981, 178.251 1083.233, 177.825 1085.326 M 180.079 1095.583 C 180.127 1096.748, 180.364 1096.985, 180.683 1096.188 C 180.972 1095.466, 180.936 1094.603, 180.604 1094.271 C 180.272 1093.939, 180.036 1094.529, 180.079 1095.583 M 169.512 1107.607 C 168.615 1110.692, 168.104 1113.437, 168.375 1113.708 C 168.646 1113.980, 169.375 1112.244, 169.994 1109.851 C 170.613 1107.458, 171.348 1104.713, 171.627 1103.750 C 171.906 1102.787, 171.911 1102, 171.638 1102 C 171.365 1102, 170.408 1104.523, 169.512 1107.607 M 173.958 1114.278 C 173.181 1115.933, 172.379 1116.614, 171.976 1115.961 C 171.066 1114.488, 168.700 1120.321, 169.254 1122.671 C 169.625 1124.246, 169.845 1124.153, 170.834 1122 C 171.465 1120.625, 172.939 1118.309, 174.109 1116.854 C 175.279 1115.398, 176.017 1113.598, 175.749 1112.854 C 175.435 1111.980, 174.800 1112.484, 173.958 1114.278 M 167.079 1117.583 C 167.127 1118.748, 167.364 1118.985, 167.683 1118.188 C 167.972 1117.466, 167.936 1116.603, 167.604 1116.271 C 167.272 1115.939, 167.036 1116.529, 167.079 1117.583 M 162.921 1131.250 C 162.284 1133.588, 161.095 1137.667, 160.279 1140.315 C 159.464 1142.963, 159.021 1145.354, 159.295 1145.628 C 159.757 1146.090, 163.076 1136.099, 164.570 1129.750 C 165.616 1125.304, 164.189 1126.603, 162.921 1131.250 M 1089.195 1132.500 C 1089.215 1134.150, 1089.439 1134.704, 1089.693 1133.731 C 1089.947 1132.758, 1089.930 1131.408, 1089.656 1130.731 C 1089.382 1130.054, 1089.175 1130.850, 1089.195 1132.500 M 167.197 1138.771 C 166.488 1140.020, 166.159 1141.448, 166.466 1141.945 C 166.773 1142.441, 165.899 1146.370, 164.525 1150.674 C 161.642 1159.701, 161.506 1160.637, 163.342 1158.801 C 166.383 1155.759, 169.473 1144.910, 168.838 1139.500 C 168.488 1136.516, 168.479 1136.512, 167.197 1138.771 M 1094 1142.882 C 1094 1143.432, 1094.450 1144.160, 1095 1144.500 C 1095.550 1144.840, 1096 1144.668, 1096 1144.118 C 1096 1143.568, 1095.550 1142.840, 1095 1142.500 C 1094.450 1142.160, 1094 1142.332, 1094 1142.882 M 152.023 1167.023 C 149.183 1175.916, 147.034 1183.367, 147.249 1183.582 C 147.463 1183.797, 149.957 1176.691, 152.791 1167.791 C 155.624 1158.891, 157.773 1151.439, 157.565 1151.232 C 157.358 1151.024, 154.864 1158.131, 152.023 1167.023 M 159.079 1152.583 C 159.127 1153.748, 159.364 1153.985, 159.683 1153.188 C 159.972 1152.466, 159.936 1151.603, 159.604 1151.271 C 159.272 1150.939, 159.036 1151.529, 159.079 1152.583 M 535.750 1161.662 C 536.438 1161.940, 537.563 1161.940, 538.250 1161.662 C 538.938 1161.385, 538.375 1161.158, 537 1161.158 C 535.625 1161.158, 535.063 1161.385, 535.750 1161.662 M 156.637 1164.849 C 155.640 1165.950, 154.978 1167.650, 155.166 1168.625 C 155.450 1170.098, 155.816 1169.930, 157.317 1167.639 C 159.577 1164.190, 159.079 1162.150, 156.637 1164.849 M 591.750 1177.662 C 592.438 1177.940, 593.563 1177.940, 594.250 1177.662 C 594.938 1177.385, 594.375 1177.158, 593 1177.158 C 591.625 1177.158, 591.063 1177.385, 591.750 1177.662 M 600.813 1178.683 C 601.534 1178.972, 602.397 1178.936, 602.729 1178.604 C 603.061 1178.272, 602.471 1178.036, 601.417 1178.079 C 600.252 1178.127, 600.015 1178.364, 600.813 1178.683 M 641.269 1183.693 C 642.242 1183.947, 643.592 1183.930, 644.269 1183.656 C 644.946 1183.382, 644.150 1183.175, 642.500 1183.195 C 640.850 1183.215, 640.296 1183.439, 641.269 1183.693 M 152.162 1189.543 C 151.523 1190.946, 151.032 1192.860, 151.070 1193.797 C 151.109 1194.734, 151.786 1193.739, 152.574 1191.587 C 154.206 1187.133, 153.916 1185.694, 152.162 1189.543 M 698.762 1188.707 C 700.006 1188.946, 701.806 1188.937, 702.762 1188.687 C 703.718 1188.437, 702.700 1188.241, 700.500 1188.252 C 698.300 1188.263, 697.518 1188.468, 698.762 1188.707 M 134.624 1228.539 C 134.281 1229.432, 134.029 1230.689, 134.063 1231.332 C 134.098 1231.974, 134.558 1231.422, 135.085 1230.105 C 135.612 1228.787, 135.864 1227.531, 135.645 1227.312 C 135.426 1227.093, 134.966 1227.645, 134.624 1228.539 M 137 1230.918 C 137 1231.423, 136.691 1232.661, 136.313 1233.668 C 135.708 1235.281, 135.828 1235.336, 137.313 1234.128 C 139.157 1232.627, 139.595 1230, 138 1230 C 137.450 1230, 137 1230.413, 137 1230.918 M 822 1235.441 C 822 1237.398, 822.450 1239, 823 1239 C 823.550 1239, 824 1237.677, 824 1236.059 C 824 1234.441, 823.550 1232.840, 823 1232.500 C 822.405 1232.132, 822 1233.323, 822 1235.441 M 133.079 1235.583 C 133.127 1236.748, 133.364 1236.985, 133.683 1236.188 C 133.972 1235.466, 133.936 1234.603, 133.604 1234.271 C 133.272 1233.939, 133.036 1234.529, 133.079 1235.583 M 141.571 1236.571 C 141.204 1238.037, 141.096 1239.429, 141.331 1239.665 C 141.567 1239.900, 142.061 1238.894, 142.429 1237.429 C 142.796 1235.963, 142.904 1234.571, 142.669 1234.335 C 142.433 1234.100, 141.939 1235.106, 141.571 1236.571 M 140.195 1243.500 C 140.215 1245.150, 140.439 1245.704, 140.693 1244.731 C 140.947 1243.758, 140.930 1242.408, 140.656 1241.731 C 140.382 1241.054, 140.175 1241.850, 140.195 1243.500 M 135 1260.059 C 135 1260.641, 135.450 1260.840, 136 1260.500 C 136.550 1260.160, 137 1259.684, 137 1259.441 C 137 1259.198, 136.550 1259, 136 1259 C 135.450 1259, 135 1259.477, 135 1260.059 M 124.195 1277.500 C 124.215 1279.150, 124.439 1279.704, 124.693 1278.731 C 124.947 1277.758, 124.930 1276.408, 124.656 1275.731 C 124.382 1275.054, 124.175 1275.850, 124.195 1277.500 M 121.624 1288.539 C 121.281 1289.432, 121.063 1292.039, 121.141 1294.332 C 121.273 1298.253, 121.323 1298.175, 121.981 1293 C 122.726 1287.137, 122.629 1285.919, 121.624 1288.539 M 129.079 1288.583 C 129.127 1289.748, 129.364 1289.985, 129.683 1289.188 C 129.972 1288.466, 129.936 1287.603, 129.604 1287.271 C 129.272 1286.939, 129.036 1287.529, 129.079 1288.583 M 124.459 1307.067 C 124.096 1307.653, 124.014 1308.348, 124.276 1308.610 C 124.538 1308.872, 125.019 1308.392, 125.345 1307.543 C 126.021 1305.781, 125.445 1305.471, 124.459 1307.067 M 850.121 1335 C 850.104 1335.825, 850.708 1337.850, 851.464 1339.500 C 853.232 1343.362, 853.258 1341.566, 851.500 1337 C 850.759 1335.075, 850.138 1334.175, 850.121 1335 M 106.183 1368.783 C 103.784 1376.783, 102.003 1383.870, 102.070 1385.154 C 102.173 1387.128, 105.901 1376.076, 106.460 1372.141 C 106.722 1370.293, 107.423 1368.196, 108.017 1367.480 C 108.628 1366.743, 108.707 1365.937, 108.198 1365.622 C 107.703 1365.316, 106.797 1366.739, 106.183 1368.783 M 871 1396.441 C 871 1397.234, 871.408 1398.134, 871.907 1398.442 C 872.405 1398.751, 872.578 1398.102, 872.290 1397.001 C 871.679 1394.666, 871 1394.371, 871 1396.441 M 885.082 1439.685 C 884.960 1441.455, 886.976 1446.357, 887.578 1445.755 C 887.866 1445.468, 887.440 1443.718, 886.632 1441.866 C 885.824 1440.015, 885.126 1439.033, 885.082 1439.685 M 71.429 1485 C 71.429 1486.295, 71.767 1486.633, 72.414 1485.986 C 73.062 1485.338, 73.062 1484.662, 72.414 1484.014 C 71.767 1483.367, 71.429 1483.705, 71.429 1485 M 356.729 1484.604 C 356.328 1485.005, 356 1486.023, 356 1486.867 C 356 1487.992, 356.296 1488.104, 357.113 1487.287 C 357.724 1486.676, 358.053 1485.658, 357.842 1485.025 C 357.631 1484.392, 357.130 1484.203, 356.729 1484.604 M 359.667 1501.667 C 359.300 1502.033, 359 1502.798, 359 1503.367 C 359 1503.993, 359.466 1503.934, 360.183 1503.217 C 360.834 1502.566, 361.134 1501.801, 360.850 1501.517 C 360.566 1501.233, 360.033 1501.300, 359.667 1501.667 M 357.607 1506.582 C 356.668 1509.029, 356.872 1509.271, 358.500 1507.643 C 360.200 1505.943, 360.417 1505, 359.107 1505 C 358.616 1505, 357.941 1505.712, 357.607 1506.582 M 332.684 1605.382 C 332.308 1606.362, 332.029 1607.914, 332.063 1608.832 C 332.105 1609.937, 332.453 1609.685, 333.092 1608.086 C 333.623 1606.758, 333.902 1605.206, 333.712 1604.636 C 333.522 1604.067, 333.059 1604.403, 332.684 1605.382 M 936.655 1615.500 C 936.986 1617.150, 938.502 1622.550, 940.025 1627.500 C 941.547 1632.450, 943.088 1637.796, 943.448 1639.380 C 944.192 1642.648, 953 1658.143, 953 1656.182 C 953 1655.481, 950.252 1648.290, 946.894 1640.203 C 943.536 1632.116, 940.123 1623.475, 939.309 1621 C 937.098 1614.270, 935.918 1611.824, 936.655 1615.500 M 1184 1618 C 1184 1618.550, 1184.477 1619, 1185.059 1619 C 1185.641 1619, 1185.840 1618.550, 1185.500 1618 C 1185.160 1617.450, 1184.684 1617, 1184.441 1617 C 1184.198 1617, 1184 1617.450, 1184 1618 M 1072 1654.031 C 1072 1654.564, 1072.675 1655, 1073.500 1655 C 1074.325 1655, 1075 1654.823, 1075 1654.607 C 1075 1654.391, 1074.325 1653.955, 1073.500 1653.638 C 1072.675 1653.322, 1072 1653.499, 1072 1654.031 M 1019.500 1656 C 1019.160 1656.550, 1019.359 1657, 1019.941 1657 C 1020.523 1657, 1021 1656.550, 1021 1656 C 1021 1655.450, 1020.802 1655, 1020.559 1655 C 1020.316 1655, 1019.840 1655.450, 1019.500 1656 M 1014.564 1659.293 C 1014.940 1660.279, 1015.499 1660.834, 1015.807 1660.526 C 1016.115 1660.219, 1015.808 1659.412, 1015.124 1658.733 C 1014.136 1657.753, 1014.022 1657.868, 1014.564 1659.293 M 1043.571 1661.571 C 1042.512 1662.346, 1041.839 1663.172, 1042.075 1663.408 C 1042.310 1663.644, 1043.370 1663.203, 1044.429 1662.429 C 1045.488 1661.654, 1046.161 1660.828, 1045.925 1660.592 C 1045.690 1660.356, 1044.630 1660.797, 1043.571 1661.571 M 1020.299 1667.892 C 1019.130 1669.764, 1019.498 1671, 1021.226 1671 C 1021.716 1671, 1021.828 1670.530, 1021.473 1669.956 C 1021.118 1669.382, 1021.372 1668.257, 1022.036 1667.456 C 1022.701 1666.655, 1022.848 1666, 1022.363 1666 C 1021.878 1666, 1020.949 1666.851, 1020.299 1667.892" stroke="none" fill="black" fill-rule="evenodd"/>
</svg>