<svg xmlns="http://www.w3.org/2000/svg" width="1240" height="1753" viewBox="0 0 1240 1753" version="1.1">
	<path d="M 250.250 134.031 C 249.012 134.529, 247.993 134.613, 247.985 134.218 C 247.976 133.823, 247.639 133.950, 247.235 134.500 C 246.831 135.050, 244.742 136.396, 242.593 137.492 C 240.444 138.588, 238.479 140.275, 238.226 141.242 C 237.974 142.209, 237.207 143, 236.523 143 C 235.709 143, 235.377 144.239, 235.562 146.577 C 235.770 149.192, 235.494 150.020, 234.539 149.653 C 233.492 149.252, 233.455 149.744, 234.352 152.121 C 235.262 154.532, 235.193 155.265, 233.986 156.022 C 233.169 156.535, 231.711 156.709, 230.747 156.409 C 229.550 156.036, 227.648 157.290, 224.747 160.363 C 222.411 162.837, 220.351 165.455, 220.169 166.181 C 219.987 166.906, 219.200 167.860, 218.419 168.300 C 217.639 168.740, 217 169.779, 217 170.609 C 217 171.439, 216.547 171.838, 215.992 171.495 C 214.435 170.533, 211.916 173.618, 212.665 175.570 C 213.395 177.472, 210.585 180.162, 208.646 179.418 C 208.008 179.173, 207.039 179.991, 206.493 181.236 C 205.857 182.685, 204.600 183.523, 203 183.563 C 201.340 183.604, 200.624 184.108, 200.869 185.063 C 201.720 188.373, 201.374 189.447, 199.081 190.618 C 197.750 191.297, 196.265 192.561, 195.781 193.427 C 195.297 194.292, 194.248 195, 193.450 195 C 192.653 195, 192 195.450, 192 196 C 192 196.550, 191.330 197, 190.511 197 C 188.603 197, 185 200.067, 185 201.691 C 185 202.376, 184.397 202.706, 183.660 202.423 C 182.454 201.960, 179.500 204.427, 179.500 205.897 C 179.500 206.221, 178.938 206.357, 178.250 206.199 C 177.563 206.041, 177 206.637, 177 207.524 C 177 208.680, 176.435 208.955, 175 208.500 C 173.808 208.122, 173 208.320, 173 208.992 C 173 209.611, 172.550 209.840, 172 209.500 C 171.450 209.160, 171 209.702, 171 210.704 C 171 212.534, 170.621 212.824, 163.419 216.500 C 161.263 217.600, 159.248 218.839, 158.939 219.253 C 158.631 219.666, 156.949 219.839, 155.202 219.635 C 152.027 219.265, 149.359 220.975, 150.759 222.483 C 151.166 222.922, 150.262 222.984, 148.750 222.622 C 146.854 222.167, 145.990 222.356, 145.968 223.231 C 145.928 224.855, 141.428 230, 140.048 230 C 139.472 230, 139 230.675, 139 231.500 C 139 232.325, 138.325 233.056, 137.500 233.125 C 134.422 233.382, 134.057 233.537, 132.793 235.127 C 131.226 237.100, 122 242.496, 122 241.440 C 122 241.028, 121.100 241.505, 120 242.500 C 118.900 243.495, 118 245.140, 118 246.155 C 118 247.170, 117.311 248, 116.469 248 C 115.626 248, 114.664 248.713, 114.329 249.584 C 113.897 250.710, 113.511 250.828, 112.995 249.992 C 112.012 248.401, 108 250.876, 108 253.073 C 108 255.214, 100.274 261.319, 98.450 260.619 C 97.589 260.289, 97 260.659, 97 261.531 C 97 262.339, 96.530 263, 95.956 263 C 95.382 263, 93.768 264.062, 92.368 265.359 C 90.233 267.339, 90.079 267.816, 91.412 268.328 C 92.285 268.663, 93 269.696, 93 270.624 C 93 272.200, 92.878 272.199, 91.120 270.609 C 89.328 268.987, 89.204 269.038, 88.466 271.704 C 87.359 275.702, 87.859 278.770, 90.596 284.780 C 91.918 287.683, 93 290.496, 93 291.030 C 93 291.563, 93.395 292, 93.879 292 C 94.362 292, 95.317 293.350, 96 295 C 96.683 296.650, 97.690 298, 98.236 298 C 98.783 298, 98.515 296.909, 97.641 295.575 C 96.469 293.786, 96.370 293.043, 97.266 292.745 C 98.596 292.301, 103.414 298.317, 106.524 304.305 C 107.611 306.398, 110.438 310.223, 112.807 312.805 L 117.115 317.500 113.283 311.500 C 111.176 308.200, 108.657 303.925, 107.685 302 C 105.923 298.509, 104.388 295.842, 102.506 293 C 101.960 292.175, 101.490 290.509, 101.461 289.297 C 101.418 287.516, 101.678 287.317, 102.814 288.260 C 103.659 288.962, 103.803 289.566, 103.175 289.775 C 102.601 289.966, 103.901 291.723, 106.065 293.678 C 108.229 295.633, 110 297.637, 110 298.130 C 110 300.338, 114.587 305.956, 115.970 305.442 C 116.778 305.141, 117.131 305.202, 116.755 305.579 C 116.378 305.955, 116.540 307.141, 117.115 308.214 C 118.106 310.066, 118.224 310.075, 119.453 308.395 C 120.643 306.768, 121.127 307.011, 125.466 311.413 C 128.062 314.046, 130.812 317.699, 131.578 319.532 C 132.343 321.364, 133.427 323.146, 133.985 323.491 C 135.578 324.476, 135.171 326.280, 133.500 325.638 C 131.500 324.871, 131.596 325.315, 134.284 329.277 C 135.541 331.129, 137.037 332.488, 137.610 332.297 C 138.751 331.916, 144 341.910, 144 344.463 C 144 345.905, 143.724 345.909, 141.009 344.505 C 139.365 343.654, 137.237 341.730, 136.283 340.229 C 135.328 338.728, 134.307 337.275, 134.014 337 C 133.721 336.725, 132.188 334.475, 130.608 332 C 127.606 327.299, 120.495 320, 118.916 320 C 117.414 320, 117.856 321.509, 120.500 325.405 C 121.875 327.431, 123 329.339, 123 329.644 C 123 331.148, 129.696 341.024, 131.019 341.473 C 131.855 341.756, 133.430 343.679, 134.519 345.744 C 135.609 347.810, 137.512 350.533, 138.750 351.795 C 139.987 353.058, 141 354.602, 141 355.226 C 141 356.964, 149.123 369.042, 149.949 368.532 C 150.930 367.925, 160 380.380, 160 382.335 C 160 383.188, 160.828 384.475, 161.841 385.193 C 162.853 385.912, 164.884 388.413, 166.354 390.750 C 167.823 393.087, 169.469 395, 170.013 395 C 170.556 395, 171 395.514, 171 396.142 C 171 396.771, 172.363 398.683, 174.028 400.392 C 175.693 402.102, 178.978 406.425, 181.326 410 C 186.785 418.310, 192.554 426.546, 196.035 431 C 197.540 432.925, 200.850 437.650, 203.391 441.500 C 205.932 445.350, 208.940 449.714, 210.076 451.197 C 215.571 458.375, 222.383 467.088, 231.500 478.602 C 237 485.548, 241.950 491.959, 242.500 492.850 C 243.050 493.741, 244.392 495.138, 245.482 495.954 C 246.572 496.771, 248.822 498.999, 250.482 500.907 C 252.142 502.814, 255.464 506.428, 257.865 508.937 C 260.266 511.447, 263.413 515.075, 264.859 517 C 266.305 518.925, 267.716 520.725, 267.994 521 C 271.009 523.981, 285.367 540.822, 288.184 544.682 C 289.458 546.427, 292.413 550.178, 294.750 553.017 C 297.138 555.918, 299 559.232, 299 560.582 C 299 562.347, 300.286 563.836, 303.846 566.191 C 308.613 569.346, 312.639 574.487, 311.092 575.443 C 310.658 575.711, 309.419 575.107, 308.338 574.101 C 305.594 571.543, 301.954 569.713, 301.171 570.496 C 299.913 571.754, 307.493 576.833, 313.215 578.565 C 316.478 579.553, 319.589 581.216, 320.396 582.404 C 321.179 583.557, 323.286 586.073, 325.078 587.995 C 326.870 589.918, 330.574 594.193, 333.311 597.495 C 336.047 600.798, 338.608 603.725, 339.001 604 C 339.728 604.508, 344.254 609.776, 351.500 618.549 C 357.201 625.452, 373.896 643.747, 384.879 655.129 C 393.087 663.634, 396.487 666.091, 400.500 666.418 C 401.050 666.463, 401.502 667.175, 401.504 668 C 401.506 668.825, 402.406 669.547, 403.504 669.604 C 406.522 669.761, 411 671.810, 411 673.034 C 411 673.630, 410.438 673.800, 409.750 673.412 C 408.816 672.885, 408.826 673.057, 409.792 674.095 C 410.878 675.263, 411.217 675.267, 411.925 674.122 C 412.614 673.007, 412.931 673.054, 413.673 674.380 C 414.172 675.271, 416.362 676.242, 418.540 676.538 C 422.975 677.141, 423.608 676.687, 432.500 666.523 C 435.250 663.380, 439.525 659.661, 442 658.260 C 448.715 654.457, 454.196 650.842, 457 648.367 C 458.375 647.153, 461.523 644.324, 463.995 642.080 C 466.467 639.836, 469.054 638, 469.745 638 C 470.435 638, 471 637.550, 471 637 C 471 635.377, 474.297 632.696, 480.083 629.615 C 483.062 628.028, 487.094 625.216, 489.042 623.365 C 490.990 621.514, 493.142 620, 493.823 620 C 494.504 620, 497.256 617.862, 499.939 615.250 C 510.185 605.272, 515.444 600.500, 516.195 600.500 C 516.623 600.500, 521.194 596.337, 526.353 591.250 C 531.511 586.163, 536.003 582, 536.335 582 C 536.667 582, 540.890 577.838, 545.719 572.752 C 558.259 559.544, 566.779 551.113, 567.181 551.514 C 568.062 552.395, 575.151 540.394, 575.222 537.901 C 575.266 536.337, 574.189 533.620, 572.801 531.792 C 570.138 528.287, 565 519.034, 565 517.743 C 565 517.317, 562.809 513.939, 560.131 510.235 C 557.453 506.531, 554.518 502.042, 553.610 500.260 C 552.684 498.443, 550.265 496.156, 548.104 495.053 C 545.985 493.972, 542.506 490.750, 540.375 487.893 C 534.435 479.931, 534.118 479.520, 508.013 445.970 C 485.592 417.156, 479.184 408.906, 468.037 394.500 C 465.909 391.750, 462.077 386.800, 459.521 383.500 C 456.964 380.200, 453.143 375.250, 451.029 372.500 C 448.915 369.750, 440.281 358.643, 431.843 347.818 C 423.404 336.993, 413.350 324.005, 409.500 318.956 C 405.650 313.907, 400.250 306.957, 397.500 303.513 C 394.750 300.069, 390.808 295.057, 388.739 292.376 C 361.783 257.432, 328.705 214.800, 322.500 207.006 C 320.850 204.933, 315.964 198.669, 311.643 193.086 C 305.390 185.008, 303.399 183.056, 301.893 183.534 C 300.852 183.864, 300 183.687, 300 183.139 C 300 182.591, 299.427 181.548, 298.726 180.821 C 298.025 180.095, 296.001 177.250, 294.228 174.500 C 292.455 171.750, 289.853 168.227, 288.445 166.671 C 287.037 165.115, 285.359 162.640, 284.715 161.171 C 284.072 159.702, 281.285 156.205, 278.523 153.399 C 275.760 150.594, 271.700 146.023, 269.500 143.242 C 265.662 138.390, 258.723 133.813, 254.500 133.348 C 253.400 133.226, 251.488 133.534, 250.250 134.031 M 238.500 149 C 238.840 149.550, 239.316 150, 239.559 150 C 239.802 150, 240 149.550, 240 149 C 240 148.450, 239.523 148, 238.941 148 C 238.359 148, 238.160 148.450, 238.500 149 M 269 267 C 269 267.550, 269.477 268, 270.059 268 C 270.641 268, 270.840 267.550, 270.500 267 C 270.160 266.450, 269.684 266, 269.441 266 C 269.198 266, 269 266.450, 269 267 M 97.097 279 C 101.678 284.432, 104.459 285.857, 101 281 C 99.825 279.350, 98.475 278, 97.999 278 C 97.524 278, 96.849 277.100, 96.500 276 C 96.151 274.900, 95.194 274, 94.373 274 C 93.413 274, 94.385 275.784, 97.097 279 M 95.333 290.544 C 95.333 291.345, 95.708 292, 96.167 292 C 96.625 292, 97 291.577, 97 291.059 C 97 290.541, 96.625 289.886, 96.167 289.603 C 95.708 289.320, 95.333 289.743, 95.333 290.544 M 331.906 296.824 C 332.513 297.959, 333.503 299.193, 334.105 299.565 C 334.889 300.050, 334.886 299.656, 334.094 298.176 C 333.487 297.041, 332.497 295.807, 331.895 295.435 C 331.111 294.950, 331.114 295.344, 331.906 296.824 M 110.604 319.500 C 113.200 324.043, 125.329 342.320, 126.732 343.803 C 127.409 344.520, 129.625 347.670, 131.656 350.803 C 136.239 357.874, 137.773 359.578, 135.491 355.060 C 132.563 349.267, 115.925 324.615, 111.490 319.500 L 108.889 316.500 110.604 319.500 M 136 325.698 C 136 327.037, 138.749 330.585, 139.332 329.998 C 139.605 329.724, 138.967 328.438, 137.914 327.139 C 136.861 325.841, 136 325.192, 136 325.698 M 182 376.500 C 182 377.325, 182.730 378, 183.622 378 C 184.951 378, 185.020 377.729, 184 376.500 C 183.315 375.675, 182.585 375, 182.378 375 C 182.170 375, 182 375.675, 182 376.500 M 186 382 C 186.589 383.100, 187.799 384, 188.690 384 C 190.120 384, 190.098 383.765, 188.500 382 C 187.505 380.900, 186.294 380, 185.810 380 C 185.326 380, 185.411 380.900, 186 382 M 191 388 C 191 388.550, 191.477 389, 192.059 389 C 192.641 389, 192.840 388.550, 192.500 388 C 192.160 387.450, 191.684 387, 191.441 387 C 191.198 387, 191 387.450, 191 388 M 193 390.882 C 193 391.432, 193.450 392.160, 194 392.500 C 194.550 392.840, 195 392.668, 195 392.118 C 195 391.568, 194.550 390.840, 194 390.500 C 193.450 390.160, 193 390.332, 193 390.882 M 201.015 400.750 C 201.007 401.988, 201.450 403, 202 403 C 203.253 403, 203.253 401.939, 202 400 C 201.216 398.787, 201.028 398.931, 201.015 400.750 M 317.500 400 C 317.840 400.550, 318.316 401, 318.559 401 C 318.802 401, 319 400.550, 319 400 C 319 399.450, 318.523 399, 317.941 399 C 317.359 399, 317.160 399.450, 317.500 400 M 269.658 418.551 C 269.964 419.348, 270.616 420, 271.107 420 C 272.545 420, 272.133 418.265, 270.551 417.658 C 269.582 417.286, 269.286 417.582, 269.658 418.551 M 229.500 422 C 229.840 422.550, 230.316 423, 230.559 423 C 230.802 423, 231 422.550, 231 422 C 231 421.450, 230.523 421, 229.941 421 C 229.359 421, 229.160 421.450, 229.500 422 M 276.411 426.077 C 277.835 427.769, 279 429.464, 279 429.844 C 279 431.043, 288.016 440, 289.222 440 C 290.256 440, 287.140 435.991, 283.004 432 C 282.149 431.175, 280.170 428.813, 278.606 426.750 C 277.042 424.688, 275.326 423, 274.792 423 C 274.259 423, 274.987 424.385, 276.411 426.077 M 233 426.878 C 233 428.328, 235.836 430.220, 236.964 429.522 C 237.657 429.094, 237.526 428.383, 236.579 427.436 C 234.979 425.836, 233 425.527, 233 426.878 M 234 432 C 234 432.550, 234.477 433, 235.059 433 C 235.641 433, 235.840 432.550, 235.500 432 C 235.160 431.450, 234.684 431, 234.441 431 C 234.198 431, 234 431.450, 234 432 M 238.001 432.667 C 238.002 433.125, 239.127 434.807, 240.501 436.406 C 243.131 439.463, 243.941 442.683, 241.750 441.367 C 240.890 440.851, 240.926 441.141, 241.863 442.297 C 242.613 443.222, 243.645 443.719, 244.157 443.403 C 244.669 443.087, 245.743 443.372, 246.544 444.036 C 249.179 446.223, 248.233 442.852, 245.374 439.868 C 243.930 438.361, 242.242 436.122, 241.624 434.893 C 240.494 432.646, 237.999 431.113, 238.001 432.667 M 227.500 436 C 227.840 436.550, 228.316 437, 228.559 437 C 228.802 437, 229 436.550, 229 436 C 229 435.450, 228.523 435, 227.941 435 C 227.359 435, 227.160 435.450, 227.500 436 M 290.036 441.694 C 290.016 442.351, 291.111 444.151, 292.468 445.694 C 295.683 449.348, 295.738 447.413, 292.531 443.500 C 291.179 441.850, 290.056 441.037, 290.036 441.694 M 246.538 448.461 C 248.033 450.421, 250.124 452, 251.226 452 C 252.531 452, 253.027 452.487, 252.670 453.417 C 252.371 454.197, 252.810 455.097, 253.645 455.417 C 256.382 456.468, 256.899 456.034, 255.690 453.704 C 253.811 450.081, 249.663 446.383, 246.625 445.621 L 243.838 444.921 246.538 448.461 M 236 446.882 C 236 447.432, 236.450 448.160, 237 448.500 C 237.550 448.840, 238 448.668, 238 448.118 C 238 447.568, 237.550 446.840, 237 446.500 C 236.450 446.160, 236 446.332, 236 446.882 M 242 454.882 C 242 455.432, 242.450 456.160, 243 456.500 C 243.550 456.840, 244 456.668, 244 456.118 C 244 455.568, 243.550 454.840, 243 454.500 C 242.450 454.160, 242 454.332, 242 454.882 M 245 459 C 245 459.550, 245.477 460, 246.059 460 C 246.641 460, 246.840 459.550, 246.500 459 C 246.160 458.450, 245.684 458, 245.441 458 C 245.198 458, 245 458.450, 245 459 M 261 462.759 C 261 463.177, 261.900 464.081, 263 464.768 C 265.326 466.220, 265.636 465.493, 263.571 463.429 C 261.995 461.852, 261 461.593, 261 462.759 M 268.500 470 C 268.190 470.502, 267.214 470.636, 266.332 470.297 C 265.232 469.875, 264.884 470.125, 265.224 471.091 C 265.498 471.869, 266.744 472.382, 268.006 472.236 C 269.386 472.077, 270.851 472.770, 271.703 473.986 C 273.836 477.031, 275.045 476.398, 273.399 473.098 C 271.862 470.017, 269.437 468.484, 268.500 470 M 268.047 473.500 C 268.023 474.986, 269.808 477.526, 270.435 476.898 C 270.735 476.599, 270.323 475.487, 269.521 474.427 C 268.720 473.367, 268.056 472.950, 268.047 473.500 M 259.229 476.188 C 259.447 476.841, 260.160 477.553, 260.813 477.771 C 261.544 478.015, 261.767 477.557, 261.394 476.584 C 260.696 474.766, 258.629 474.388, 259.229 476.188 M 281 476 C 281 476.550, 281.702 477, 282.559 477 C 283.416 477, 283.840 476.550, 283.500 476 C 283.160 475.450, 282.459 475, 281.941 475 C 281.423 475, 281 475.450, 281 476 M 276.469 477.377 C 276.780 478.409, 276.534 479.856, 275.923 480.593 C 275.311 481.330, 275.043 482.510, 275.327 483.216 C 275.651 484.023, 275.871 483.850, 275.921 482.750 C 275.964 481.788, 276.285 481, 276.634 481 C 277.357 481, 281.997 486.221, 281.999 487.037 C 281.999 487.333, 282.900 487.642, 284 487.725 C 286.778 487.934, 286.543 487.305, 282.250 483.043 C 280.188 480.995, 277.916 478.460, 277.202 477.410 C 275.960 475.582, 275.929 475.581, 276.469 477.377 M 271.500 479 C 271.840 479.550, 272.316 480, 272.559 480 C 272.802 480, 273 479.550, 273 479 C 273 478.450, 272.523 478, 271.941 478 C 271.359 478, 271.160 478.450, 271.500 479 M 264 481.378 C 264 481.585, 264.788 482.373, 265.750 483.128 C 267.336 484.371, 267.371 484.336, 266.128 482.750 C 264.821 481.084, 264 480.555, 264 481.378 M 285 489.845 C 285 491.183, 288.590 494.076, 289.331 493.336 C 289.699 492.968, 290 493.417, 290 494.333 C 290 495.250, 290.745 496, 291.655 496 C 293.195 496, 293.195 495.873, 291.655 494.171 C 290.745 493.165, 290 491.864, 290 491.278 C 290 490.693, 289.288 489.941, 288.418 489.607 C 286.221 488.764, 285 488.849, 285 489.845 M 293.344 500.453 C 294.486 502.876, 298.755 505.579, 299.796 504.537 C 300.091 504.242, 299.808 504, 299.167 504 C 298.525 504, 298 503.351, 298 502.557 C 298 501.207, 294.390 498, 292.872 498 C 292.496 498, 292.708 499.104, 293.344 500.453 M 300.620 507.806 C 299.932 508.919, 302.762 514.287, 304.570 515.299 C 305.357 515.739, 306 517.004, 306 518.109 C 306 519.214, 306.448 519.841, 306.996 519.503 C 308.588 518.518, 313.118 524.052, 312.448 526.163 C 312.004 527.561, 312.385 528, 314.040 528 C 315.685 528, 316.053 528.418, 315.554 529.720 C 315.191 530.665, 315.214 531.119, 315.605 530.728 C 316.659 529.675, 319 531.969, 319 534.055 C 319 535.051, 319.860 536.138, 320.911 536.472 C 322.947 537.118, 328 543.149, 328 544.933 C 328 545.520, 328.450 546, 329 546 C 329.550 546, 330 546.675, 330 547.500 C 330 548.325, 330.845 549, 331.878 549 C 334.266 549, 336.207 551.298, 335.461 553.242 C 335.093 554.200, 335.626 554.930, 336.943 555.275 C 339.384 555.913, 339.734 553.854, 337.500 552 C 336.675 551.315, 336 550.351, 336 549.856 C 336 548.359, 325.991 535.843, 320.322 530.251 C 317.395 527.364, 315 524.485, 315 523.852 C 315 523.220, 313.425 521.172, 311.500 519.303 C 309.575 517.433, 308 515.349, 308 514.672 C 308 513.008, 301.273 506.749, 300.620 507.806 M 244.745 512.250 C 244.317 513.517, 247.272 517.612, 254.467 525.723 C 256.650 528.183, 258.600 529.701, 258.801 529.097 C 259.148 528.055, 253.708 520.328, 251.526 518.765 C 250.962 518.361, 250.860 518.024, 251.301 518.015 C 252.339 517.995, 247.018 511, 245.965 511 C 245.526 511, 244.977 511.563, 244.745 512.250 M 262.949 535.250 C 264.534 537.587, 267.314 540.850, 269.127 542.500 C 271.970 545.087, 271.439 543.253, 268.548 540.500 C 267.971 539.950, 266.255 537.587, 264.735 535.250 C 263.215 532.913, 261.543 531, 261.020 531 C 260.496 531, 261.364 532.913, 262.949 535.250 M 340 557.456 C 340 557.706, 341.103 559.537, 342.451 561.523 C 345.259 565.661, 349.432 569.234, 350.366 568.301 C 351.625 567.042, 350.958 566, 348.893 566 C 347.451 566, 346.964 565.537, 347.350 564.531 C 347.706 563.603, 346.824 562.418, 344.957 561.315 C 343.331 560.355, 342 558.991, 342 558.284 C 342 557.578, 341.550 557, 341 557 C 340.450 557, 340 557.205, 340 557.456 M 291.500 563 C 291.840 563.550, 292.568 564, 293.118 564 C 293.668 564, 293.840 563.550, 293.500 563 C 293.160 562.450, 292.432 562, 291.882 562 C 291.332 562, 291.160 562.450, 291.500 563 M 350.500 571 C 350.840 571.550, 351.316 572, 351.559 572 C 351.802 572, 352 571.550, 352 571 C 352 570.450, 351.523 570, 350.941 570 C 350.359 570, 350.160 570.450, 350.500 571 M 357.311 576.765 C 355.269 577.099, 355.389 577.398, 359.100 581.222 C 362.086 584.300, 363.363 585.037, 364.222 584.178 C 364.852 583.548, 365.035 582.701, 364.629 582.296 C 364.223 581.890, 363.528 582.145, 363.085 582.863 C 362.449 583.891, 362.150 583.832, 361.671 582.584 C 361.336 581.713, 361.294 580.397, 361.577 579.660 C 362.268 577.859, 360.007 576.324, 357.311 576.765" stroke="none" fill="black" fill-rule="evenodd"/>
</svg>