<svg xmlns="http://www.w3.org/2000/svg" width="1240" height="1753" viewBox="0 0 1240 1753" version="1.1">
	<path d="M 563.157 90.781 C 562.521 90.993, 562 92.077, 562 93.190 C 562 94.559, 561.525 95.032, 560.532 94.651 C 559.725 94.341, 558.779 94.548, 558.431 95.112 C 558.083 95.675, 557.197 95.906, 556.463 95.624 C 555.730 95.343, 554.988 95.478, 554.815 95.924 C 554.642 96.370, 553.523 97.039, 552.329 97.410 C 550.779 97.892, 549.562 97.446, 548.079 95.854 C 546.935 94.627, 546 94.158, 546 94.811 C 546 96.295, 541.298 96.395, 540.807 94.922 C 540.610 94.329, 538.885 93.766, 536.974 93.672 L 533.500 93.500 533.473 101.500 C 533.453 107.656, 532.942 110.537, 531.257 114 C 528.006 120.679, 525.286 136.625, 524.603 153 C 523.943 168.846, 523.134 185.577, 522.500 196.500 C 522.277 200.350, 522.073 225.261, 522.047 251.858 L 522 300.215 516.212 294.858 C 513.028 291.911, 506.840 286.649, 502.462 283.163 C 487.258 271.063, 481.627 266.467, 474.583 260.409 C 470.687 257.059, 463.900 251.750, 459.500 248.611 C 452.676 243.743, 425.298 218.431, 407.171 200.230 C 399.802 192.831, 390.489 186.164, 386.685 185.564 C 377.119 184.057, 372.433 184.221, 368.198 186.209 C 365.832 187.320, 363.176 189.328, 362.295 190.672 C 361.415 192.016, 359.007 193.976, 356.944 195.029 C 353.041 197.020, 347 203.519, 347 205.728 C 347 206.883, 345.722 207.430, 343.750 207.118 C 343.337 207.053, 343 207.429, 343 207.953 C 343 208.477, 341.520 209.608, 339.711 210.467 C 337.902 211.325, 334.338 214.176, 331.790 216.803 C 329.242 219.429, 325.885 222.226, 324.329 223.018 C 322.773 223.811, 320.108 225.481, 318.406 226.730 C 316.704 227.978, 314.995 229, 314.608 229 C 313.266 229, 309.063 234.509, 309.032 236.309 C 309.014 237.304, 308.565 237.849, 308.034 237.521 C 306.851 236.790, 301.253 241.629, 300.486 244.044 C 300.152 245.095, 299.245 245.616, 298.215 245.347 C 297.175 245.076, 295.123 246.285, 293 248.418 C 291.075 250.353, 288.879 251.951, 288.119 251.968 C 287.103 251.992, 286.888 252.923, 287.306 255.500 C 287.632 257.507, 287.456 259, 286.893 259 C 286.354 259, 286.003 259.563, 286.114 260.250 C 286.629 263.445, 281.781 269.514, 279.433 268.613 C 278.782 268.363, 277.753 269.248, 277.146 270.579 C 276.539 271.911, 275.183 273, 274.132 273 C 273.081 273, 271.212 273.818, 269.978 274.817 C 267.097 277.150, 268.166 279.383, 274.422 284.098 C 277.955 286.760, 279.264 288.587, 280.441 292.500 C 282.712 300.052, 292.219 313.495, 304.612 326.679 C 310.723 333.181, 317.645 340.750, 319.994 343.500 C 328.992 354.035, 346.189 372.288, 365.898 392.224 C 377.166 403.622, 386.186 413.117, 385.943 413.323 C 385.699 413.529, 374.700 414.703, 361.500 415.931 C 348.300 417.159, 332.325 419.010, 326 420.043 C 317.019 421.511, 306.723 422.055, 279 422.529 C 236.238 423.261, 232.599 423.807, 224.090 430.779 C 217.470 436.203, 214.856 441.134, 215.034 447.859 C 215.102 450.412, 214.685 455.152, 214.108 458.393 C 213.531 461.634, 213.355 464.765, 213.717 465.350 C 214.984 467.401, 214.909 471.547, 213.506 477 C 212.728 480.025, 212.090 485.200, 212.090 488.500 C 212.089 491.800, 211.914 495.175, 211.701 496 C 211.487 496.825, 211.022 498.625, 210.667 500 C 208.513 508.335, 208.277 515.424, 210.080 517.597 C 210.753 518.408, 210.746 518.920, 210.058 519.153 C 208.926 519.536, 208.290 528.623, 209.322 529.655 C 209.678 530.011, 209.333 530.797, 208.557 531.401 C 207.658 532.100, 207.031 534.928, 206.833 539.177 C 206.525 545.760, 207.040 547.477, 209.333 547.524 C 209.975 547.537, 210.437 548.325, 210.361 549.274 C 210.285 550.223, 210.670 551, 211.218 551 C 211.766 551, 211.955 551.675, 211.638 552.500 C 211.322 553.325, 211.446 554, 211.915 554 C 213.780 554, 213.757 559.243, 211.884 561.116 C 210.039 562.961, 210.067 563.003, 213.250 563.136 C 215.600 563.235, 215.877 563.392, 214.250 563.706 C 213 563.946, 211.986 564.886, 211.968 565.820 C 211.951 566.744, 211.276 568.374, 210.468 569.441 C 206.642 574.500, 210.244 577.243, 219.464 576.292 C 224.024 575.821, 225.946 576.118, 229.354 577.820 C 233.306 579.794, 242.705 582.371, 250.230 583.544 C 252.028 583.825, 262.050 584.457, 272.500 584.949 C 322.798 587.319, 349.939 588.056, 377.155 587.790 C 396.744 587.598, 406.601 587.839, 406.193 588.500 C 405.853 589.050, 401.498 594.225, 396.515 600 C 391.532 605.775, 384.765 613.800, 381.477 617.834 C 378.190 621.867, 371.761 629.742, 367.192 635.334 C 362.623 640.925, 355.479 650, 351.316 655.500 C 344.548 664.444, 319.621 691.486, 302 709 C 298.404 712.575, 293.735 718.048, 291.625 721.161 C 288.122 726.331, 287.744 727.550, 287.266 735.212 C 286.670 744.774, 287.433 746.972, 293.652 753.603 C 295.768 755.859, 298.625 759.355, 300 761.371 C 301.375 763.386, 303.963 765.754, 305.750 766.632 C 307.538 767.510, 309.563 769.243, 310.250 770.483 C 310.938 771.723, 312.541 774.634, 313.812 776.951 C 315.084 779.269, 317.444 781.915, 319.056 782.832 C 320.668 783.750, 321.990 784.885, 321.994 785.356 C 321.997 785.826, 323.125 787.548, 324.500 789.182 C 325.875 790.816, 327 792.724, 327 793.422 C 327 794.119, 327.900 795.505, 329 796.500 C 330.100 797.495, 331 798.803, 331 799.405 C 331 800.686, 337.403 806, 338.947 806 C 339.526 806, 340.014 806.563, 340.032 807.250 C 340.074 808.934, 344.145 813.458, 346.395 814.321 C 347.420 814.715, 347.972 815.629, 347.666 816.427 C 347.369 817.203, 348.043 818.887, 349.165 820.169 C 350.288 821.451, 352.182 823.650, 353.375 825.055 C 355.730 827.831, 359 829.524, 359 827.969 C 359 827.436, 359.675 827, 360.500 827 C 361.325 827, 362 827.498, 362 828.107 C 362 828.716, 362.675 828.955, 363.500 828.638 C 364.325 828.322, 365 828.389, 365 828.787 C 365 829.186, 366.350 830.109, 368 830.840 C 370.139 831.787, 371 832.861, 371 834.584 C 371 837.272, 371.902 837.622, 374.002 835.750 C 375.193 834.688, 375.206 834.761, 374.089 836.238 C 372.978 837.707, 373.029 838.074, 374.417 838.607 C 375.362 838.969, 375.848 839.930, 375.560 840.868 C 375.286 841.766, 375.909 843.609, 376.946 844.964 C 378.664 847.209, 379.055 847.309, 381.338 846.087 C 382.716 845.349, 385.248 842.790, 386.964 840.400 C 389.296 837.154, 391.127 835.774, 394.202 834.946 C 396.467 834.336, 399.485 833.124, 400.910 832.253 C 410.742 826.241, 417.788 820.911, 426.500 812.894 C 432 807.832, 441.675 799.177, 448 793.659 C 454.325 788.142, 477.837 765.366, 500.250 743.046 C 522.663 720.726, 541.034 702.472, 541.077 702.482 C 541.119 702.492, 541.319 703.392, 541.522 704.482 C 541.725 705.572, 542.384 706.628, 542.987 706.829 C 543.757 707.086, 543.727 707.624, 542.884 708.640 C 541.976 709.734, 541.966 710.366, 542.842 711.242 C 544.342 712.742, 544.344 714.331, 542.845 713.405 C 542.134 712.965, 541.962 713.130, 542.398 713.834 C 542.786 714.463, 543.117 717.701, 543.133 721.030 C 543.159 726.440, 543.357 727.021, 544.997 726.501 C 546.006 726.181, 547.121 726.387, 547.475 726.959 C 547.829 727.532, 547.387 728, 546.493 728 C 545.173 728, 544.943 728.847, 545.270 732.500 C 545.511 735.197, 545.257 737, 544.636 737 C 544.012 737, 544.078 737.478, 544.800 738.200 C 545.460 738.860, 546 740.040, 546 740.822 C 546 741.977, 545.716 742.009, 544.493 740.994 C 543.159 739.887, 543.144 740.049, 544.365 742.402 C 545.326 744.255, 545.632 747.671, 545.373 753.679 C 545.134 759.253, 545.411 762.791, 546.159 763.692 C 547.034 764.746, 547.034 765.366, 546.158 766.242 C 544.581 767.819, 544.695 769.331, 546.344 768.698 C 547.305 768.329, 547.557 768.865, 547.230 770.580 C 546.978 771.898, 546.400 772.747, 545.946 772.467 C 545.492 772.186, 545.190 772.878, 545.275 774.003 C 545.367 775.223, 545.948 775.850, 546.715 775.556 C 548.219 774.979, 548.472 777.590, 547 778.500 C 545.396 779.492, 545.886 796.037, 548.432 826.833 C 548.799 831.275, 548.622 832.069, 547.371 831.589 C 546.297 831.177, 546.017 831.509, 546.388 832.756 C 546.674 833.715, 547.165 838.100, 547.480 842.500 C 548.025 850.119, 550.439 862.853, 552.977 871.500 C 553.623 873.700, 554.487 877.300, 554.897 879.500 C 555.308 881.700, 556.381 884.906, 557.282 886.624 C 558.183 888.342, 559.571 892.842, 560.366 896.624 C 561.161 900.406, 562.125 904.726, 562.508 906.225 C 563.095 908.523, 562.797 909.135, 560.602 910.135 C 556.548 911.983, 557.521 913.471, 562.999 913.800 C 565.748 913.966, 569.460 914.712, 571.248 915.459 C 573.037 916.206, 580.575 917.324, 588 917.943 C 595.425 918.562, 604.200 919.476, 607.500 919.975 C 628.731 923.179, 652.311 924.163, 663.343 922.305 C 668.207 921.486, 673.011 921.031, 674.018 921.295 C 675.316 921.634, 675.687 921.349, 675.291 920.316 C 674.834 919.125, 675.440 918.989, 678.616 919.573 C 680.752 919.965, 682.651 920.675, 682.835 921.150 C 683.020 921.624, 683.672 921.703, 684.285 921.324 C 686.251 920.109, 690.295 920.188, 699.090 921.614 C 706.498 922.814, 708.218 922.809, 711.590 921.573 C 713.741 920.786, 715.015 920.109, 714.423 920.070 C 713.792 920.029, 713.537 918.700, 713.808 916.858 C 714.127 914.681, 713.920 913.931, 713.134 914.417 C 712.467 914.829, 712 914.452, 712 913.500 C 712 912.610, 712.450 912.160, 713 912.500 C 713.550 912.840, 714 912.454, 714 911.642 C 714 910.831, 713.438 909.938, 712.750 909.659 C 711.940 909.331, 711.852 908.861, 712.500 908.326 C 713.050 907.872, 713.618 905.729, 713.763 903.565 C 714.027 899.595, 716.533 895.593, 718.134 896.583 C 718.610 896.877, 719 896.063, 719 894.774 C 719 893.485, 719.953 889.746, 721.117 886.465 C 722.678 882.066, 723.269 877.874, 723.367 870.500 C 723.565 855.622, 721.134 810.949, 719.503 799.500 C 717.727 787.027, 715.097 762.933, 714.428 753 C 714.150 748.875, 713.507 742.800, 713 739.500 C 712.492 736.200, 711.568 728.100, 710.947 721.500 C 710.327 714.900, 709.747 709.112, 709.659 708.637 C 709.572 708.162, 710.625 707.598, 712 707.384 C 713.641 707.128, 714.047 707.288, 713.182 707.848 C 712.207 708.480, 713.250 709.906, 717.182 713.316 C 721.935 717.441, 722.632 717.756, 723.740 716.288 C 724.421 715.385, 725.273 714.940, 725.632 715.299 C 725.991 715.658, 725.774 716.567, 725.150 717.319 C 724.259 718.393, 724.551 718.930, 726.508 719.822 C 727.879 720.446, 729 721.417, 729 721.979 C 729 722.540, 729.788 723.007, 730.750 723.015 C 732.166 723.028, 732.230 723.201, 731.088 723.925 C 730.001 724.612, 730.231 724.902, 732.088 725.183 C 733.415 725.383, 734.431 725.987, 734.346 726.524 C 734.261 727.061, 734.823 728.080, 735.596 728.789 C 736.368 729.499, 737 729.842, 737 729.552 C 737 729.263, 739.971 732.057, 743.602 735.763 C 747.234 739.468, 750.609 742.387, 751.102 742.250 C 751.596 742.112, 752 742.707, 752 743.571 C 752 745.109, 754.261 748, 755.464 748 C 755.797 748, 755.531 746.987, 754.871 745.750 C 753.779 743.700, 753.822 743.623, 755.359 744.891 C 756.286 745.656, 756.813 747.013, 756.530 747.905 C 756.228 748.856, 756.840 750.044, 758.007 750.773 C 759.601 751.768, 760.005 751.765, 760.023 750.758 C 760.035 750.066, 760.786 751.002, 761.691 752.839 C 763.299 756.103, 765.627 758.311, 783 773.053 C 798.627 786.313, 802.944 790.626, 799.302 789.341 C 797.127 788.574, 797.551 789.002, 805.500 795.590 C 814.609 803.140, 822.088 808.495, 827.035 811.009 C 829.491 812.257, 833.750 814.710, 836.500 816.460 C 839.250 818.210, 843.020 820.169, 844.879 820.813 C 846.737 821.458, 852.042 824.478, 856.668 827.525 L 865.079 833.064 864.415 836.782 L 863.752 840.500 867.126 837.362 C 868.982 835.636, 872.075 833.440, 874 832.482 C 878.143 830.420, 887.379 823.440, 902.500 810.945 C 908.550 805.946, 916.650 799.311, 920.500 796.201 C 930.646 788.005, 940.139 779.031, 942.921 775.004 C 944.253 773.077, 946.647 769.587, 948.242 767.250 C 949.837 764.913, 951.897 762.993, 952.821 762.985 C 954.275 762.971, 954.299 762.835, 953 761.966 C 951.729 761.115, 951.881 760.675, 954 759.080 C 955.375 758.045, 956.832 757.148, 957.239 757.088 C 957.645 757.029, 959.895 754.900, 962.238 752.358 C 964.580 749.816, 968.980 746.051, 972.015 743.990 C 975.049 741.929, 978.133 739.120, 978.868 737.747 C 980.059 735.521, 979.963 734.973, 977.987 732.700 C 976.580 731.082, 975.173 730.374, 974.135 730.763 C 972.715 731.294, 972.680 731.153, 973.872 729.687 C 974.627 728.759, 974.809 728, 974.275 728 C 972.918 728, 969.803 725.070, 967.203 721.346 C 964.826 717.942, 964.274 714, 966.174 714 C 966.820 714, 966.421 712.987, 965.287 711.750 C 964.153 710.513, 962.215 707.475, 960.979 705 C 956.999 697.029, 952.695 691.916, 943.500 684.235 C 938.550 680.100, 927.714 670.593, 919.420 663.108 C 904.462 649.610, 901.479 647.110, 884.919 634.193 C 873.305 625.135, 863.073 616.795, 859.769 613.694 C 858.267 612.284, 855.344 609.864, 853.273 608.316 C 844.228 601.552, 826.722 587.155, 817.245 578.688 C 807.256 569.762, 807.042 569.482, 809.731 568.868 C 811.254 568.521, 814.562 568.183, 817.083 568.118 C 819.604 568.053, 821.981 567.685, 822.366 567.301 C 822.750 566.916, 825.112 566.727, 827.613 566.881 C 831.064 567.093, 832.505 566.719, 833.583 565.331 C 834.950 563.571, 834.979 563.574, 834.334 565.411 C 833.761 567.042, 834.016 567.227, 836.081 566.674 C 837.412 566.318, 839.543 566.021, 840.817 566.014 C 842.677 566.003, 843.010 565.605, 842.500 564 C 842.136 562.853, 842.320 562, 842.933 562 C 843.520 562, 844 562.654, 844 563.452 C 844 564.941, 847.439 564.948, 852.097 563.469 C 853.641 562.979, 854.039 563.127, 853.505 563.993 C 852.934 564.915, 853.243 564.941, 854.814 564.100 C 857.730 562.539, 858.464 562.736, 856.872 564.655 C 855.604 566.183, 855.728 566.196, 858.500 564.817 C 860.672 563.737, 864.042 563.410, 870.711 563.631 C 876.522 563.823, 880.167 563.539, 880.586 562.861 C 881.021 562.156, 881.465 562.132, 881.875 562.790 C 882.567 563.901, 884.862 564.289, 889.719 564.115 C 892.115 564.029, 892.793 563.624, 892.373 562.529 C 891.897 561.290, 892.324 561.315, 895.077 562.689 C 898.021 564.157, 899.798 564.191, 912.923 563.026 C 934.699 561.093, 949.836 560.654, 948 562.009 C 946.555 563.076, 948.226 563.013, 961.780 561.491 C 963.276 561.323, 967.200 560.888, 970.500 560.524 C 973.800 560.159, 979.650 558.818, 983.500 557.542 C 987.350 556.266, 992.525 554.904, 995 554.515 C 997.475 554.126, 1000.447 553.208, 1001.605 552.476 C 1003.939 550.999, 1019.869 547, 1023.418 547 C 1024.889 547, 1026.098 547.919, 1026.877 549.629 C 1028.400 552.972, 1029.263 552.095, 1029.719 546.738 C 1029.918 544.407, 1030.702 540.475, 1031.462 538 C 1032.801 533.640, 1033.355 529.653, 1034.518 516 C 1034.822 512.425, 1035.483 506.125, 1035.985 502 C 1039.581 472.494, 1040.186 458.198, 1038.334 446.500 C 1037.551 441.550, 1037.161 436.499, 1037.467 435.277 C 1037.892 433.581, 1037.666 433.191, 1036.516 433.632 C 1035.288 434.104, 1035.124 433.588, 1035.636 430.855 C 1035.982 429.010, 1036.600 427.128, 1037.010 426.673 C 1037.419 426.218, 1037.379 424.193, 1036.921 422.173 C 1036.380 419.787, 1036.602 415.538, 1037.556 410.051 C 1038.643 403.790, 1038.751 400.777, 1037.972 398.415 C 1036.964 395.361, 1036.768 395.263, 1033.235 396.060 C 1030.745 396.621, 1029.324 396.524, 1028.851 395.760 C 1028.332 394.920, 1027.802 394.919, 1026.793 395.757 C 1024.272 397.849, 1011.414 393.968, 1012.396 391.411 C 1012.691 390.642, 1011.513 390.010, 1009.181 389.686 C 1007.156 389.405, 1003.039 388.461, 1000.032 387.587 C 997.025 386.714, 991.400 385.992, 987.532 385.983 C 972.274 385.947, 933.488 388.211, 915 390.218 C 888.701 393.073, 883.542 393.596, 869.118 394.874 C 862.308 395.477, 853.083 396.445, 848.618 397.025 C 829.923 399.453, 814 400.702, 814 399.741 C 814 399.269, 813.592 399.134, 813.093 399.442 C 812.595 399.751, 812.421 399.107, 812.707 398.013 C 812.993 396.918, 813.634 396.274, 814.130 396.580 C 814.626 396.887, 814.777 397.552, 814.464 398.058 C 813.202 400.100, 816.631 397.736, 818.363 395.370 C 819.730 393.502, 819.929 392.529, 819.113 391.713 C 817.354 389.954, 817.814 388.806, 820 389.500 C 821.393 389.942, 822 389.680, 822 388.635 C 822 387.810, 822.933 386.839, 824.072 386.477 C 825.275 386.095, 825.926 385.249, 825.623 384.461 C 825.282 383.570, 825.615 383.299, 826.592 383.674 C 827.411 383.988, 828.010 383.853, 827.922 383.373 C 827.519 381.163, 828.126 380.111, 829.500 380.638 C 830.325 380.955, 831 380.737, 831 380.155 C 831 379.573, 832.575 377.567, 834.500 375.697 C 836.425 373.828, 838 371.807, 838 371.208 C 838 370.609, 838.520 369.797, 839.155 369.405 C 839.930 368.925, 840.043 369.152, 839.500 370.095 C 839.055 370.868, 840.110 370.178, 841.845 368.563 C 843.580 366.948, 845 365.035, 845 364.313 C 845 363.591, 845.587 363, 846.304 363 C 847.674 363, 854 356.953, 854 355.643 C 854 355.225, 853.550 355.160, 853 355.500 C 852.450 355.840, 852 355.641, 852 355.059 C 852 354.477, 852.802 354, 853.781 354 C 855.743 354, 863.272 346.561, 873.014 335 C 884.412 321.471, 892 313.664, 892 315.466 C 892 316.405, 894.900 313.423, 898.444 308.837 C 901.988 304.252, 905.985 299.215, 907.326 297.645 C 908.667 296.075, 912.095 290.572, 914.942 285.417 C 917.790 280.262, 920.510 275.803, 920.987 275.508 C 921.464 275.213, 922.391 273.291, 923.047 271.236 C 923.702 269.181, 926.708 263.551, 929.725 258.724 C 935.169 250.015, 935.237 249.954, 938.606 250.586 C 940.472 250.936, 942 250.936, 942 250.585 C 942 250.234, 940.640 248.452, 938.978 246.626 C 937.316 244.800, 934.846 241.099, 933.489 238.403 C 932.131 235.706, 928.082 230.125, 924.491 226 C 920.899 221.875, 915.547 215.350, 912.597 211.500 C 909.647 207.650, 906.227 203.375, 904.996 202 C 903.765 200.625, 901.045 197.250, 898.950 194.500 C 893.530 187.383, 880.358 174.116, 874.626 170 C 871.945 168.075, 868.457 165.297, 866.876 163.827 C 865.294 162.357, 864 161.648, 864 162.251 C 864 162.855, 862.875 162.292, 861.500 161 C 860.125 159.708, 859 157.906, 859 156.995 C 859 156.083, 857.843 154.719, 856.429 153.962 C 854.303 152.824, 847.066 144.263, 844.227 139.528 C 843.827 138.861, 842.246 137.506, 840.713 136.518 C 837.984 134.759, 837.875 134.769, 835.494 137.006 C 834.156 138.263, 833.280 139.644, 833.547 140.076 C 833.814 140.508, 833.575 141.144, 833.016 141.490 C 832.457 141.835, 832 141.615, 832 141 C 832 140.385, 831.550 140.160, 831 140.500 C 830.450 140.840, 830 142.066, 830 143.226 C 830 144.385, 829.712 145.045, 829.360 144.693 C 829.008 144.341, 827.031 145.391, 824.966 147.027 C 821.166 150.037, 817 150.977, 817 148.826 C 817 148.180, 815.958 148.630, 814.686 149.826 C 813.413 151.022, 811.895 152, 811.314 152 C 810.732 152, 806.936 154.178, 802.878 156.840 C 797.729 160.218, 792.941 164.673, 787.026 171.590 C 782.366 177.040, 773.946 186.351, 768.316 192.280 C 759.667 201.389, 749.873 213.066, 739.706 226.392 C 738.493 227.983, 735.022 232.258, 731.992 235.892 C 728.963 239.526, 725.152 244.300, 723.524 246.500 C 721.896 248.700, 719.119 252.075, 717.354 254 C 715.589 255.925, 712.874 259.150, 711.322 261.167 C 709.770 263.183, 706.700 267.058, 704.500 269.778 C 702.300 272.497, 699.838 275.685, 699.029 276.861 C 697.413 279.211, 695.775 279.718, 696.152 277.750 C 696.453 276.183, 695.234 261.913, 693.952 252 C 693.419 247.875, 692.299 237.340, 691.463 228.588 C 690.628 219.837, 689.310 208.812, 688.535 204.088 C 687.616 198.491, 686.932 183.309, 686.569 160.500 C 686.263 141.250, 685.635 123.385, 685.173 120.800 C 683.850 113.405, 676.005 103.154, 669.629 100.489 C 667.548 99.620, 663.742 98.962, 661.172 99.028 C 658.603 99.095, 654.025 98.712, 651 98.178 C 647.975 97.644, 645.137 97.428, 644.693 97.698 C 642.819 98.837, 638.113 98.766, 632.500 97.514 C 629.200 96.778, 623.800 96.170, 620.500 96.164 C 617.200 96.158, 613.375 95.839, 612 95.456 C 610.625 95.072, 607.810 94.540, 605.744 94.274 C 603.678 94.007, 601.765 93.429, 601.494 92.990 C 600.884 92.003, 592.928 92.934, 591.347 94.177 C 590.646 94.729, 590.059 94.695, 589.847 94.092 C 589.418 92.868, 581.872 92.343, 580.135 93.417 C 579.390 93.877, 578.378 93.580, 577.683 92.698 C 576.559 91.270, 565.906 89.865, 563.157 90.781 M 563 122.941 C 563 123.459, 563.450 124.160, 564 124.500 C 564.550 124.840, 565 124.416, 565 123.559 C 565 122.702, 564.550 122, 564 122 C 563.450 122, 563 122.423, 563 122.941 M 582.470 138.951 C 582.793 139.474, 583.118 141.518, 583.192 143.493 C 583.348 147.648, 583.982 148.350, 585.801 146.383 C 586.874 145.222, 586.830 144.872, 585.551 144.381 C 584.698 144.054, 584 143.358, 584 142.834 C 584 142.310, 584.450 142.160, 585 142.500 C 586.407 143.369, 586.187 141.830, 584.608 139.750 C 583.235 137.941, 581.428 137.266, 582.470 138.951 M 592.710 148 C 592.998 149.100, 593.406 150, 593.617 150 C 593.827 150, 594 149.100, 594 148 C 594 146.900, 593.592 146, 593.094 146 C 592.595 146, 592.423 146.900, 592.710 148 M 599 150.059 C 599 151.191, 599.430 151.852, 599.956 151.527 C 600.482 151.202, 600.659 150.275, 600.349 149.468 C 599.556 147.401, 599 147.644, 599 150.059 M 615.079 150.583 C 615.127 151.748, 615.364 151.985, 615.683 151.188 C 615.972 150.466, 615.936 149.603, 615.604 149.271 C 615.272 148.939, 615.036 149.529, 615.079 150.583 M 585.079 153.583 C 585.127 154.748, 585.364 154.985, 585.683 154.188 C 585.972 153.466, 585.936 152.603, 585.604 152.271 C 585.272 151.939, 585.036 152.529, 585.079 153.583 M 586.750 155.689 C 584.343 156.318, 584.538 157.910, 587 157.725 C 588.100 157.642, 589 156.995, 589 156.287 C 589 155.579, 588.888 155.052, 588.750 155.116 C 588.612 155.180, 587.712 155.438, 586.750 155.689 M 586.079 161.583 C 586.127 162.748, 586.364 162.985, 586.683 162.188 C 586.972 161.466, 586.936 160.603, 586.604 160.271 C 586.272 159.939, 586.036 160.529, 586.079 161.583 M 828.443 175.418 C 827.376 176.198, 826.768 177.101, 827.091 177.424 C 827.414 177.748, 828.496 177.110, 829.494 176.006 C 831.619 173.659, 831.183 173.415, 828.443 175.418 M 843 182 C 842.175 182.533, 841.950 182.969, 842.500 182.969 C 843.050 182.969, 844.175 182.533, 845 182 C 845.825 181.467, 846.050 181.031, 845.500 181.031 C 844.950 181.031, 843.825 181.467, 843 182 M 830.872 190.750 C 829.629 192.336, 829.664 192.371, 831.250 191.128 C 832.916 189.821, 833.445 189, 832.622 189 C 832.415 189, 831.627 189.787, 830.872 190.750 M 846.459 197.067 C 845.383 198.808, 846.608 199.177, 847.980 197.524 C 848.769 196.574, 848.845 196, 848.181 196 C 847.597 196, 846.821 196.480, 846.459 197.067 M 842 202.059 C 842 202.641, 842.450 202.840, 843 202.500 C 843.550 202.160, 844 201.684, 844 201.441 C 844 201.198, 843.550 201, 843 201 C 842.450 201, 842 201.477, 842 202.059 M 850.079 256.583 C 850.127 257.748, 850.364 257.985, 850.683 257.188 C 850.972 256.466, 850.936 255.603, 850.604 255.271 C 850.272 254.939, 850.036 255.529, 850.079 256.583 M 365.500 259 C 365.840 259.550, 366.316 260, 366.559 260 C 366.802 260, 367 259.550, 367 259 C 367 258.450, 366.523 258, 365.941 258 C 365.359 258, 365.160 258.450, 365.500 259 M 854.712 261 C 854.314 262.925, 853.343 265.738, 852.554 267.250 C 851.331 269.593, 851.326 270, 852.521 270 C 854.104 270, 856.304 263.021, 855.776 259.673 C 855.517 258.028, 855.258 258.350, 854.712 261 M 849.079 260.583 C 849.127 261.748, 849.364 261.985, 849.683 261.188 C 849.972 260.466, 849.936 259.603, 849.604 259.271 C 849.272 258.939, 849.036 259.529, 849.079 260.583 M 851.168 263.949 C 850.583 265.627, 850.482 267, 850.944 267 C 851.860 267, 853.367 262.034, 852.664 261.331 C 852.426 261.093, 851.753 262.271, 851.168 263.949 M 855.584 269.641 C 855.057 271.014, 855.204 271.076, 856.477 270.019 C 858.212 268.579, 858.393 268, 857.107 268 C 856.616 268, 855.931 268.739, 855.584 269.641 M 859.079 269.583 C 859.127 270.748, 859.364 270.985, 859.683 270.188 C 859.972 269.466, 859.936 268.603, 859.604 268.271 C 859.272 267.939, 859.036 268.529, 859.079 269.583 M 353 269.924 C 353 270.398, 353.675 271.045, 354.500 271.362 C 355.325 271.678, 356 271.549, 356 271.076 C 356 270.602, 355.325 269.955, 354.500 269.638 C 353.675 269.322, 353 269.451, 353 269.924 M 864.487 272.722 C 864.149 274.800, 863.451 277.534, 862.936 278.797 C 861.719 281.785, 861.710 283.700, 862.920 282.450 C 864.359 280.963, 866.909 270.062, 865.956 269.473 C 865.486 269.182, 864.825 270.644, 864.487 272.722 M 883 270.500 C 882.282 271.365, 882.185 272, 882.771 272 C 883.329 272, 884.045 271.325, 884.362 270.500 C 884.678 269.675, 884.781 269, 884.591 269 C 884.401 269, 883.685 269.675, 883 270.500 M 348 273.500 C 348.685 274.325, 349.672 275, 350.194 275 C 350.716 275, 350.468 274.325, 349.643 273.500 C 348.818 272.675, 347.831 272, 347.449 272 C 347.067 272, 347.315 272.675, 348 273.500 M 334.012 273.550 C 334.019 274.072, 335.707 275.625, 337.762 277 C 342.824 280.385, 342.919 280.407, 342.300 278.041 C 341.986 276.838, 341.074 276.080, 340.129 276.234 C 339.187 276.388, 338.623 275.921, 338.791 275.127 C 338.967 274.297, 338.521 273.970, 337.663 274.299 C 336.882 274.599, 335.739 274.339, 335.122 273.722 C 334.505 273.105, 334.006 273.028, 334.012 273.550 M 848 274 C 848 274.550, 848.450 275, 849 275 C 849.550 275, 850 274.550, 850 274 C 850 273.450, 849.550 273, 849 273 C 848.450 273, 848 273.450, 848 274 M 849.437 277.671 C 847.897 279.690, 847.148 281.027, 847.772 280.641 C 849.052 279.850, 853.381 274, 852.687 274 C 852.440 274, 850.977 275.652, 849.437 277.671 M 878.178 277.607 C 874.999 282.514, 875.845 282.744, 879.315 277.916 C 880.863 275.762, 881.763 274.006, 881.315 274.012 C 880.867 274.019, 879.455 275.637, 878.178 277.607 M 309 276.393 C 309 276.609, 309.675 277.045, 310.500 277.362 C 311.325 277.678, 312 277.501, 312 276.969 C 312 276.436, 311.325 276, 310.500 276 C 309.675 276, 309 276.177, 309 276.393 M 867.798 284.250 C 864.049 289.245, 863.277 290.832, 865.578 288.817 C 867.501 287.133, 871.500 281, 870.675 281 C 870.434 281, 869.140 282.462, 867.798 284.250 M 349.583 283.643 C 348.746 285.825, 349.858 286.839, 351.039 284.971 C 352.222 283.101, 352.247 282, 351.107 282 C 350.616 282, 349.930 282.739, 349.583 283.643 M 892.564 284.707 C 892.022 286.132, 892.136 286.247, 893.124 285.267 C 893.808 284.588, 894.115 283.781, 893.807 283.474 C 893.499 283.166, 892.940 283.721, 892.564 284.707 M 842.500 286 C 842.160 286.550, 842.359 287, 842.941 287 C 843.523 287, 844 286.550, 844 286 C 844 285.450, 843.802 285, 843.559 285 C 843.316 285, 842.840 285.450, 842.500 286 M 870.750 287.392 C 869.788 288.123, 869 289.260, 869 289.919 C 869 290.579, 868.581 290.859, 868.069 290.543 C 867.557 290.226, 866.880 290.385, 866.564 290.896 C 865.905 291.962, 867.901 291.818, 869.745 290.666 C 870.857 289.971, 873.493 285.953, 872.785 286.032 C 872.628 286.049, 871.712 286.661, 870.750 287.392 M 352.733 288.124 C 353.412 288.808, 354.219 289.115, 354.526 288.807 C 354.834 288.499, 354.279 287.940, 353.293 287.564 C 351.868 287.022, 351.753 287.136, 352.733 288.124 M 833.459 292.067 C 833.096 292.653, 833.014 293.348, 833.276 293.610 C 833.538 293.872, 834.019 293.392, 834.345 292.543 C 835.021 290.781, 834.445 290.471, 833.459 292.067 M 865.872 294.750 C 864.629 296.336, 864.664 296.371, 866.250 295.128 C 867.916 293.821, 868.445 293, 867.622 293 C 867.415 293, 866.627 293.788, 865.872 294.750 M 868.100 295.295 C 866.835 297.402, 866.857 297.423, 868.579 295.774 C 869.570 294.824, 870.166 293.832, 869.903 293.569 C 869.640 293.306, 868.829 294.083, 868.100 295.295 M 632 295 C 632 295.550, 632.477 296, 633.059 296 C 633.641 296, 633.840 295.550, 633.500 295 C 633.160 294.450, 632.684 294, 632.441 294 C 632.198 294, 632 294.450, 632 295 M 858.980 295.524 C 858.284 296.362, 857.968 297.301, 858.276 297.610 C 858.585 297.919, 859.340 297.233, 859.954 296.086 C 861.264 293.638, 860.778 293.358, 858.980 295.524 M 861.788 296.750 C 860.951 297.712, 860.281 299.292, 860.299 300.260 C 860.332 301.928, 860.420 301.926, 862 300.230 C 862.917 299.246, 863.667 297.667, 863.667 296.721 C 863.667 294.601, 863.657 294.601, 861.788 296.750 M 872 297.500 C 871.293 298.352, 870.940 299.273, 871.215 299.548 C 871.490 299.823, 872.293 299.352, 873 298.500 C 873.707 297.648, 874.060 296.727, 873.785 296.452 C 873.510 296.177, 872.707 296.648, 872 297.500 M 828.100 300.295 C 826.835 302.402, 826.857 302.423, 828.579 300.774 C 829.570 299.824, 830.166 298.832, 829.903 298.569 C 829.640 298.306, 828.829 299.083, 828.100 300.295 M 834.564 300.707 C 834.022 302.132, 834.136 302.247, 835.124 301.267 C 835.808 300.588, 836.115 299.781, 835.807 299.474 C 835.499 299.166, 834.940 299.721, 834.564 300.707 M 873.405 302.250 L 871.500 304.500 873.750 302.595 C 875.864 300.805, 876.455 300, 875.655 300 C 875.465 300, 874.453 301.012, 873.405 302.250 M 855 305 C 852.105 309.066, 852.950 309.911, 855.909 305.909 C 857.156 304.223, 857.961 302.627, 857.697 302.364 C 857.434 302.100, 856.220 303.287, 855 305 M 859 305.500 C 859 306.325, 858.598 307, 858.107 307 C 857.616 307, 856.916 307.777, 856.551 308.726 C 856.070 309.981, 856.587 309.797, 858.444 308.052 C 861.110 305.548, 861.705 304, 860 304 C 859.450 304, 859 304.675, 859 305.500 M 822 306.559 C 822 307.416, 822.450 307.840, 823 307.500 C 823.550 307.160, 824 306.459, 824 305.941 C 824 305.423, 823.550 305, 823 305 C 822.450 305, 822 305.702, 822 306.559 M 807.494 308.006 C 806.496 309.110, 805.915 310.249, 806.204 310.537 C 806.493 310.826, 807.475 309.923, 808.388 308.531 C 810.381 305.490, 809.983 305.256, 807.494 308.006 M 867.880 309.007 C 866.270 309.948, 862.519 315, 863.431 315 C 863.694 315, 865.007 313.902, 866.348 312.561 C 867.690 311.219, 868.986 310.319, 869.227 310.561 C 869.469 310.802, 869.667 310.325, 869.667 309.500 C 869.667 308.675, 869.629 308.014, 869.583 308.030 C 869.538 308.047, 868.771 308.487, 867.880 309.007 M 813 313.971 C 813 314.725, 812.255 316.165, 811.345 317.171 C 810.435 318.177, 810.140 319, 810.690 319 C 811.240 319, 812.514 318.089, 813.521 316.976 C 814.925 315.425, 815.078 314.678, 814.176 313.776 C 813.275 312.875, 813 312.920, 813 313.971 M 661 315 C 661 315.550, 661.450 316, 662 316 C 662.550 316, 663 315.550, 663 315 C 663 314.450, 662.550 314, 662 314 C 661.450 314, 661 314.450, 661 315 M 855.108 324.473 C 852.813 327.513, 851.287 329.974, 851.718 329.943 C 852.765 329.867, 860.285 319.951, 859.722 319.389 C 859.479 319.146, 857.403 321.434, 855.108 324.473 M 807.667 320.667 C 807.300 321.033, 807 321.798, 807 322.367 C 807 322.993, 807.466 322.934, 808.183 322.217 C 808.834 321.566, 809.134 320.801, 808.850 320.517 C 808.566 320.233, 808.033 320.300, 807.667 320.667 M 816.872 323.750 C 815.629 325.336, 815.664 325.371, 817.250 324.128 C 818.916 322.821, 819.445 322, 818.622 322 C 818.415 322, 817.627 322.788, 816.872 323.750 M 868 323.059 C 868 323.641, 868.450 323.840, 869 323.500 C 869.550 323.160, 870 322.684, 870 322.441 C 870 322.198, 869.550 322, 869 322 C 868.450 322, 868 322.477, 868 323.059 M 581.158 325 C 581.158 326.375, 581.385 326.938, 581.662 326.250 C 581.940 325.563, 581.940 324.438, 581.662 323.750 C 581.385 323.063, 581.158 323.625, 581.158 325 M 631.752 327.002 C 631.395 329.284, 631.691 331.009, 632.602 331.964 C 633.814 333.233, 633.991 333.034, 633.930 330.464 C 633.891 328.834, 633.509 326.601, 633.080 325.502 C 632.424 323.823, 632.212 324.063, 631.752 327.002 M 820.703 328.598 C 819.715 329.919, 819.269 331, 819.713 331 C 820.585 331, 823.345 327.002, 822.819 326.501 C 822.644 326.333, 821.691 327.277, 820.703 328.598 M 636.500 328 C 636.840 328.550, 637.316 329, 637.559 329 C 637.802 329, 638 328.550, 638 328 C 638 327.450, 637.523 327, 636.941 327 C 636.359 327, 636.160 327.450, 636.500 328 M 812.564 329.707 C 812.022 331.132, 812.136 331.247, 813.124 330.267 C 813.808 329.588, 814.115 328.781, 813.807 328.474 C 813.499 328.166, 812.940 328.721, 812.564 329.707 M 856 332 C 856 332.550, 856.450 333, 857 333 C 857.550 333, 858 332.550, 858 332 C 858 331.450, 857.550 331, 857 331 C 856.450 331, 856 331.450, 856 332 M 858 335.059 C 858 335.641, 858.450 335.840, 859 335.500 C 859.550 335.160, 860 334.684, 860 334.441 C 860 334.198, 859.550 334, 859 334 C 858.450 334, 858 334.477, 858 335.059 M 814.158 338.457 C 813.008 340.406, 812.247 342, 812.466 342 C 813.248 342, 817.209 335.875, 816.733 335.400 C 816.466 335.133, 815.307 336.509, 814.158 338.457 M 849.500 340 C 849.160 340.550, 849.359 341, 849.941 341 C 850.523 341, 851 340.550, 851 340 C 851 339.450, 850.802 339, 850.559 339 C 850.316 339, 849.840 339.450, 849.500 340 M 514 343 C 514 343.550, 514.450 344, 515 344 C 515.550 344, 516 343.550, 516 343 C 516 342.450, 515.550 342, 515 342 C 514.450 342, 514 342.450, 514 343 M 809.500 345 C 808.505 346.100, 808.102 347, 808.604 347 C 809.107 347, 810.081 346.100, 810.768 345 C 811.455 343.900, 811.858 343, 811.663 343 C 811.469 343, 810.495 343.900, 809.500 345 M 845.020 344.476 C 844.231 345.426, 844.155 346, 844.819 346 C 846.027 346, 847.436 344.103, 846.743 343.409 C 846.491 343.158, 845.716 343.638, 845.020 344.476 M 847.872 346.250 C 847.802 346.387, 847.638 347.517, 847.508 348.760 C 847.325 350.516, 847.563 350.778, 848.577 349.936 C 849.294 349.341, 849.635 348.212, 849.334 347.427 C 848.835 346.127, 848.197 345.613, 847.872 346.250 M 822.241 348.986 C 821.558 350.079, 821 351.231, 821 351.545 C 821 352.606, 822.980 350.905, 824.030 348.944 C 825.399 346.387, 823.841 346.423, 822.241 348.986 M 803.136 352.610 C 801.349 355.145, 800.085 357.418, 800.328 357.661 C 800.984 358.317, 807 350.752, 807 349.272 C 807 347.328, 806.639 347.640, 803.136 352.610 M 480 349.893 C 480 350.384, 480.652 351.036, 481.449 351.342 C 482.418 351.714, 482.714 351.418, 482.342 350.449 C 481.735 348.867, 480 348.455, 480 349.893 M 763 354.059 C 763 354.641, 763.450 354.840, 764 354.500 C 764.550 354.160, 765 353.684, 765 353.441 C 765 353.198, 764.550 353, 764 353 C 763.450 353, 763 353.477, 763 354.059 M 777.459 354.067 C 777.096 354.653, 777.014 355.348, 777.276 355.610 C 777.538 355.872, 778.019 355.392, 778.345 354.543 C 779.021 352.781, 778.445 352.471, 777.459 354.067 M 818.667 353.667 C 818.300 354.033, 818 354.798, 818 355.367 C 818 355.993, 818.466 355.934, 819.183 355.217 C 819.834 354.566, 820.134 353.801, 819.850 353.517 C 819.566 353.233, 819.033 353.300, 818.667 353.667 M 601.079 355.583 C 601.127 356.748, 601.364 356.985, 601.683 356.188 C 601.972 355.466, 601.936 354.603, 601.604 354.271 C 601.272 353.939, 601.036 354.529, 601.079 355.583 M 586.500 358 C 586.160 358.550, 586.359 359, 586.941 359 C 587.523 359, 588 358.550, 588 358 C 588 357.450, 587.802 357, 587.559 357 C 587.316 357, 586.840 357.450, 586.500 358 M 815.667 357.667 C 815.300 358.033, 815 358.798, 815 359.367 C 815 359.993, 815.466 359.934, 816.183 359.217 C 816.834 358.566, 817.134 357.801, 816.850 357.517 C 816.566 357.233, 816.033 357.300, 815.667 357.667 M 838.200 359.200 C 837.540 359.860, 837 360.760, 837 361.200 C 837 362.673, 838.506 362.020, 839.768 360 C 841.135 357.810, 840.112 357.288, 838.200 359.200 M 847.872 359.750 C 846.629 361.336, 846.664 361.371, 848.250 360.128 C 849.916 358.821, 850.445 358, 849.622 358 C 849.415 358, 848.627 358.788, 847.872 359.750 M 797.183 360.217 C 796.533 360.868, 796 361.761, 796 362.202 C 796 362.643, 794.341 364.569, 792.313 366.482 C 790.285 368.395, 788.863 370.197, 789.153 370.486 C 789.884 371.217, 794 367.521, 794 366.133 C 794 365.510, 794.440 365, 794.977 365 C 796.114 365, 799.489 360.156, 798.819 359.485 C 798.570 359.237, 797.834 359.566, 797.183 360.217 M 812.151 362.664 C 811.595 363.674, 809.323 366.300, 807.103 368.500 C 804.882 370.700, 803.061 373.175, 803.055 374 C 803.047 375.086, 803.521 374.913, 804.772 373.370 C 805.723 372.199, 808.251 369.150, 810.391 366.595 C 812.531 364.040, 814.030 361.697, 813.722 361.389 C 813.414 361.081, 812.707 361.655, 812.151 362.664 M 592 366 C 592 366.550, 592.450 367, 593 367 C 593.550 367, 594 366.550, 594 366 C 594 365.450, 593.550 365, 593 365 C 592.450 365, 592 365.450, 592 366 M 832.405 368.146 C 830.510 370.280, 830.512 370.285, 832.750 369.110 C 833.987 368.461, 835 367.495, 835 366.965 C 835 365.544, 834.521 365.762, 832.405 368.146 M 501.033 370.827 C 501.121 372.598, 505.066 376, 507.033 376 C 508.872 376, 509.038 375.751, 508.017 374.521 C 506.588 372.798, 500.984 369.834, 501.033 370.827 M 784.704 376.269 C 782.092 379.432, 781.020 382.724, 783 381.500 C 783.550 381.160, 784 380.375, 784 379.755 C 784 379.136, 784.977 377.589, 786.171 376.318 C 787.364 375.048, 788.123 373.790, 787.856 373.523 C 787.590 373.256, 786.171 374.492, 784.704 376.269 M 826.500 375 C 825.505 376.100, 825.102 377, 825.604 377 C 826.107 377, 827.081 376.100, 827.768 375 C 828.455 373.900, 828.858 373, 828.663 373 C 828.469 373, 827.495 373.900, 826.500 375 M 814.961 376.547 C 813.935 377.783, 813.511 377.834, 812.854 376.797 C 812.275 375.885, 812.026 375.853, 812.015 376.691 C 811.987 378.868, 813.763 379.013, 816.146 377.028 C 817.441 375.949, 817.993 375.052, 817.372 375.033 C 816.752 375.015, 815.667 375.696, 814.961 376.547 M 742.872 377.750 C 741.629 379.336, 741.664 379.371, 743.250 378.128 C 744.916 376.821, 745.445 376, 744.622 376 C 744.415 376, 743.627 376.788, 742.872 377.750 M 797.551 380.344 C 794.557 384.269, 794.105 386.671, 797.051 383 C 799.507 379.939, 801.239 377, 800.586 377 C 800.320 377, 798.954 378.505, 797.551 380.344 M 749.713 385.493 C 745.988 390.161, 746.288 390.881, 750.133 386.501 C 751.856 384.539, 753.077 382.744, 752.846 382.513 C 752.615 382.282, 751.205 383.623, 749.713 385.493 M 779.564 384.707 C 779.022 386.132, 779.136 386.247, 780.124 385.267 C 780.808 384.588, 781.115 383.781, 780.807 383.474 C 780.499 383.166, 779.940 383.721, 779.564 384.707 M 466 398 C 466 398.550, 466.450 399, 467 399 C 467.550 399, 468 398.550, 468 398 C 468 397.450, 467.550 397, 467 397 C 466.450 397, 466 397.450, 466 398 M 786.564 398.707 C 786.022 400.132, 786.136 400.247, 787.124 399.267 C 787.808 398.588, 788.115 397.781, 787.807 397.474 C 787.499 397.166, 786.940 397.721, 786.564 398.707 M 734.688 401.229 C 733.691 402.272, 733.036 403.608, 733.233 404.199 C 733.430 404.790, 734.394 404.048, 735.375 402.550 C 737.523 399.273, 737.182 398.620, 734.688 401.229 M 476.500 409 C 476.840 409.550, 477.316 410, 477.559 410 C 477.802 410, 478 409.550, 478 409 C 478 408.450, 477.523 408, 476.941 408 C 476.359 408, 476.160 408.450, 476.500 409 M 500 414 C 500 414.550, 500.477 415, 501.059 415 C 501.641 415, 501.840 414.550, 501.500 414 C 501.160 413.450, 500.684 413, 500.441 413 C 500.198 413, 500 413.450, 500 414 M 1000 418.786 C 1000 419.218, 1000.900 419.571, 1002 419.571 C 1003.100 419.571, 1004 419.218, 1004 418.786 C 1004 418.354, 1003.100 418, 1002 418 C 1000.900 418, 1000 418.354, 1000 418.786 M 1007 433.393 C 1007 433.609, 1007.698 434.054, 1008.552 434.382 C 1009.442 434.723, 1009.843 434.555, 1009.493 433.989 C 1008.906 433.038, 1007 432.583, 1007 433.393 M 992.500 447 C 992.840 447.550, 993.316 448, 993.559 448 C 993.802 448, 994 447.550, 994 447 C 994 446.450, 993.523 446, 992.941 446 C 992.359 446, 992.160 446.450, 992.500 447 M 999 447 C 999.825 447.533, 1000.950 447.969, 1001.500 447.969 C 1002.050 447.969, 1001.825 447.533, 1001 447 C 1000.175 446.467, 999.050 446.031, 998.500 446.031 C 997.950 446.031, 998.175 446.467, 999 447 M 442 476 C 441.175 476.533, 440.950 476.982, 441.500 476.998 C 442.050 477.014, 443.583 477.317, 444.906 477.671 C 446.581 478.119, 447.097 477.967, 446.604 477.169 C 446.156 476.443, 446.428 476.227, 447.347 476.580 C 448.145 476.886, 449.095 476.656, 449.458 476.068 C 450.299 474.707, 444.089 474.650, 442 476 M 410.473 476.956 C 410.798 477.482, 411.725 477.659, 412.532 477.349 C 414.599 476.556, 414.356 476, 411.941 476 C 410.809 476, 410.148 476.430, 410.473 476.956 M 958 492.089 C 956.339 493.448, 956.172 493.787, 957.500 493.101 C 960.762 491.415, 962.570 490.030, 961.500 490.038 C 960.950 490.041, 959.375 490.965, 958 492.089 M 954.441 497.468 C 953.374 498.276, 952.950 498.936, 953.500 498.936 C 954.050 498.936, 955.374 498.276, 956.441 497.468 C 957.509 496.661, 957.932 496, 957.382 496 C 956.832 496, 955.509 496.661, 954.441 497.468 M 957.549 498.529 C 955.375 499.816, 953.269 500.666, 952.868 500.418 C 952.467 500.170, 951.856 500.425, 951.510 500.984 C 950.268 502.993, 955.120 501.949, 959.021 499.367 C 965.221 495.265, 964.119 494.637, 957.549 498.529 M 892.269 497.693 C 893.242 497.947, 894.592 497.930, 895.269 497.656 C 895.946 497.382, 895.150 497.175, 893.500 497.195 C 891.850 497.215, 891.296 497.439, 892.269 497.693 M 829 498.969 C 829 499.501, 829.675 499.678, 830.500 499.362 C 831.325 499.045, 832 498.609, 832 498.393 C 832 498.177, 831.325 498, 830.500 498 C 829.675 498, 829 498.436, 829 498.969 M 873.813 498.683 C 874.534 498.972, 875.397 498.936, 875.729 498.604 C 876.061 498.272, 875.471 498.036, 874.417 498.079 C 873.252 498.127, 873.015 498.364, 873.813 498.683 M 777.500 503 C 777.160 503.550, 777.359 504, 777.941 504 C 778.523 504, 779 503.550, 779 503 C 779 502.450, 778.802 502, 778.559 502 C 778.316 502, 777.840 502.450, 777.500 503 M 946 503 C 946 503.550, 946.450 504, 947 504 C 947.550 504, 948 503.550, 948 503 C 948 502.450, 947.550 502, 947 502 C 946.450 502, 946 502.450, 946 503 M 919.500 505.005 C 917.774 505.750, 917.877 505.848, 920.250 505.716 C 921.763 505.632, 923 505.212, 923 504.782 C 923 503.822, 922.105 503.879, 919.500 505.005 M 891.458 506.068 C 891.095 506.656, 890.056 506.854, 889.149 506.509 C 887.903 506.035, 887.781 506.165, 888.649 507.040 C 889.899 508.300, 894 507.451, 894 505.933 C 894 504.661, 892.271 504.753, 891.458 506.068 M 945.269 505.693 C 946.242 505.947, 947.592 505.930, 948.269 505.656 C 948.946 505.382, 948.150 505.175, 946.500 505.195 C 944.850 505.215, 944.296 505.439, 945.269 505.693 M 882.500 507 C 882.160 507.550, 882.809 508, 883.941 508 C 885.073 508, 886 507.550, 886 507 C 886 506.450, 885.352 506, 884.559 506 C 883.766 506, 882.840 506.450, 882.500 507 M 904.813 506.683 C 905.534 506.972, 906.397 506.936, 906.729 506.604 C 907.061 506.272, 906.471 506.036, 905.417 506.079 C 904.252 506.127, 904.015 506.364, 904.813 506.683 M 913.813 506.683 C 914.534 506.972, 915.397 506.936, 915.729 506.604 C 916.061 506.272, 915.471 506.036, 914.417 506.079 C 913.252 506.127, 913.015 506.364, 913.813 506.683 M 933.500 507 C 933.160 507.550, 933.332 508, 933.882 508 C 934.432 508, 935.160 507.550, 935.500 507 C 935.840 506.450, 935.668 506, 935.118 506 C 934.568 506, 933.840 506.450, 933.500 507 M 955.500 507 C 954.718 508.266, 956.042 508.266, 958 507 C 959.293 506.165, 959.266 506.029, 957.809 506.015 C 956.879 506.007, 955.840 506.450, 955.500 507 M 470 508 C 470 508.550, 470.702 509, 471.559 509 C 472.416 509, 472.840 508.550, 472.500 508 C 472.160 507.450, 471.459 507, 470.941 507 C 470.423 507, 470 507.450, 470 508 M 838 509 C 838 509.550, 838.423 510, 838.941 510 C 839.459 510, 840.160 509.550, 840.500 509 C 840.840 508.450, 840.416 508, 839.559 508 C 838.702 508, 838 508.450, 838 509 M 264 510 C 264 511.253, 265.061 511.253, 267 510 C 268.213 509.216, 268.069 509.028, 266.250 509.015 C 265.012 509.007, 264 509.450, 264 510 M 809 511 C 809 511.550, 809.450 512, 810 512 C 810.550 512, 811 511.550, 811 511 C 811 510.450, 810.550 510, 810 510 C 809.450 510, 809 510.450, 809 511 M 794.269 511.693 C 795.242 511.947, 796.592 511.930, 797.269 511.656 C 797.946 511.382, 797.150 511.175, 795.500 511.195 C 793.850 511.215, 793.296 511.439, 794.269 511.693 M 799.813 511.683 C 800.534 511.972, 801.397 511.936, 801.729 511.604 C 802.061 511.272, 801.471 511.036, 800.417 511.079 C 799.252 511.127, 799.015 511.364, 799.813 511.683 M 916.750 511.662 C 917.438 511.940, 918.563 511.940, 919.250 511.662 C 919.938 511.385, 919.375 511.158, 918 511.158 C 916.625 511.158, 916.063 511.385, 916.750 511.662 M 958.500 512.636 C 956.850 513.529, 954.392 514.861, 953.038 515.596 C 951.123 516.636, 950.405 516.662, 949.803 515.716 C 949.270 514.876, 949.026 515.041, 949.015 516.250 C 949.007 517.212, 949.436 518, 949.969 518 C 950.501 518, 950.692 518.788, 950.393 519.750 C 949.896 521.348, 949.943 521.355, 950.927 519.834 C 951.520 518.918, 954.254 516.785, 957.003 515.093 C 959.751 513.402, 962 511.789, 962 511.509 C 962 510.780, 961.826 510.836, 958.500 512.636 M 749 513 C 747.831 513.755, 748.107 513.973, 750.250 513.985 C 751.763 513.993, 753 513.550, 753 513 C 753 511.736, 750.957 511.736, 749 513 M 772.813 512.683 C 773.534 512.972, 774.397 512.936, 774.729 512.604 C 775.061 512.272, 774.471 512.036, 773.417 512.079 C 772.252 512.127, 772.015 512.364, 772.813 512.683 M 262.500 516 C 262.160 516.550, 262.359 517, 262.941 517 C 263.523 517, 264 516.550, 264 516 C 264 515.450, 263.802 515, 263.559 515 C 263.316 515, 262.840 515.450, 262.500 516 M 481.667 515.667 C 481.300 516.033, 481 516.798, 481 517.367 C 481 517.993, 481.466 517.934, 482.183 517.217 C 482.834 516.566, 483.134 515.801, 482.850 515.517 C 482.566 515.232, 482.033 515.300, 481.667 515.667 M 271.393 521.582 C 271.727 522.452, 272 523.352, 272 523.582 C 272 523.812, 272.422 524, 272.938 524 C 273.454 524, 273.808 523.100, 273.725 522 C 273.642 520.900, 272.947 520, 272.180 520 C 271.320 520, 271.018 520.606, 271.393 521.582 M 450 521.059 C 450 521.641, 450.450 521.840, 451 521.500 C 451.550 521.160, 452 520.684, 452 520.441 C 452 520.198, 451.550 520, 451 520 C 450.450 520, 450 520.477, 450 521.059 M 890 521 C 890 521.550, 890.477 522, 891.059 522 C 891.641 522, 891.840 521.550, 891.500 521 C 891.160 520.450, 890.684 520, 890.441 520 C 890.198 520, 890 520.450, 890 521 M 473 522.094 C 473 522.592, 473.900 523, 475 523 C 476.100 523, 477 522.827, 477 522.617 C 477 522.406, 476.100 521.998, 475 521.710 C 473.900 521.423, 473 521.595, 473 522.094 M 886.813 521.683 C 887.534 521.972, 888.397 521.936, 888.729 521.604 C 889.061 521.272, 888.471 521.036, 887.417 521.079 C 886.252 521.127, 886.015 521.364, 886.813 521.683 M 260.621 523.545 C 260.314 524.345, 259.572 525, 258.972 525 C 258.373 525, 258.160 524.550, 258.500 524 C 258.840 523.450, 258.664 523, 258.109 523 C 257.554 523, 256.740 523.609, 256.300 524.353 C 255.860 525.098, 254.825 526.002, 254 526.362 C 253.175 526.723, 254.732 526.785, 257.460 526.499 C 263.068 525.913, 264.433 525.046, 262.506 523.295 C 261.463 522.346, 261.061 522.400, 260.621 523.545 M 878.500 523 C 878.160 523.550, 878.359 524, 878.941 524 C 879.523 524, 880 523.550, 880 523 C 880 522.450, 879.802 522, 879.559 522 C 879.316 522, 878.840 522.450, 878.500 523 M 267.500 524 C 265.592 524.820, 265.603 524.863, 267.750 524.930 C 268.988 524.968, 270 524.550, 270 524 C 270 523.450, 269.887 523.032, 269.750 523.070 C 269.613 523.109, 268.600 523.527, 267.500 524 M 947 524 C 945.823 524.761, 946.038 524.947, 948 524.866 C 949.375 524.810, 951.850 524.420, 953.500 524 C 956.390 523.265, 956.353 523.233, 952.500 523.134 C 950.300 523.077, 947.825 523.467, 947 524 M 867 525 C 865.718 525.828, 865.754 525.972, 867.250 525.985 C 868.212 525.993, 869 525.550, 869 525 C 869 523.780, 868.887 523.780, 867 525 M 972.813 524.683 C 973.534 524.972, 974.397 524.936, 974.729 524.604 C 975.061 524.272, 974.471 524.036, 973.417 524.079 C 972.252 524.127, 972.015 524.364, 972.813 524.683 M 771.813 525.683 C 772.534 525.972, 773.397 525.936, 773.729 525.604 C 774.061 525.272, 773.471 525.036, 772.417 525.079 C 771.252 525.127, 771.015 525.364, 771.813 525.683 M 855.750 525.789 C 852.767 526.162, 851.883 528.049, 854.750 527.923 C 855.712 527.881, 858.300 527.267, 860.500 526.559 C 864.164 525.380, 864.248 525.279, 861.500 525.359 C 859.850 525.406, 857.263 525.600, 855.750 525.789 M 965 526 C 965 527.174, 965.769 527.174, 968.500 526 C 970.272 525.238, 970.187 525.133, 967.750 525.070 C 966.237 525.032, 965 525.450, 965 526 M 949.581 527.648 C 948.998 529.170, 951.711 529.469, 953.842 528.119 C 954.825 527.496, 954.504 527.138, 952.642 526.782 C 951.057 526.479, 949.905 526.805, 949.581 527.648 M 960.813 526.683 C 961.534 526.972, 962.397 526.936, 962.729 526.604 C 963.061 526.272, 962.471 526.036, 961.417 526.079 C 960.252 526.127, 960.015 526.364, 960.813 526.683 M 845 528 C 843.813 528.767, 844.021 528.969, 846 528.969 C 847.375 528.969, 849.175 528.533, 850 528 C 851.187 527.233, 850.979 527.031, 849 527.031 C 847.625 527.031, 845.825 527.467, 845 528 M 835.750 528.662 C 836.438 528.940, 837.563 528.940, 838.250 528.662 C 838.938 528.385, 838.375 528.158, 837 528.158 C 835.625 528.158, 835.063 528.385, 835.750 528.662 M 840.510 529.016 C 840.856 529.575, 841.557 529.774, 842.069 529.457 C 843.456 528.600, 843.198 528, 841.441 528 C 840.584 528, 840.165 528.457, 840.510 529.016 M 927.500 529 L 924.500 529.763 928.191 529.882 C 930.221 529.947, 932.160 529.550, 932.500 529 C 933.193 527.879, 931.907 527.879, 927.500 529 M 936.500 529 C 936.840 529.550, 938.018 530, 939.118 530 C 940.218 530, 940.840 529.550, 940.500 529 C 940.160 528.450, 938.982 528, 937.882 528 C 936.782 528, 936.160 528.450, 936.500 529 M 829.269 529.693 C 830.242 529.947, 831.592 529.930, 832.269 529.656 C 832.946 529.382, 832.150 529.175, 830.500 529.195 C 828.850 529.215, 828.296 529.439, 829.269 529.693 M 823.500 531 C 822.718 532.266, 824.042 532.266, 826 531 C 827.293 530.165, 827.266 530.029, 825.809 530.015 C 824.879 530.007, 823.840 530.450, 823.500 531 M 946.500 531 C 946.160 531.550, 946.332 532, 946.882 532 C 947.432 532, 948.160 531.550, 948.500 531 C 948.840 530.450, 948.668 530, 948.118 530 C 947.568 530, 946.840 530.450, 946.500 531 M 819 532 C 819 532.550, 819.450 533, 820 533 C 820.550 533, 821 532.550, 821 532 C 821 531.450, 820.550 531, 820 531 C 819.450 531, 819 531.450, 819 532 M 931.500 532 C 931.160 532.550, 931.610 533, 932.500 533 C 933.390 533, 933.840 532.550, 933.500 532 C 933.160 531.450, 932.710 531, 932.500 531 C 932.290 531, 931.840 531.450, 931.500 532 M 772.239 534.216 C 769.346 534.733, 767.235 535.571, 767.548 536.078 C 767.862 536.585, 768.766 537, 769.559 537 C 770.352 537, 771 537.450, 771 538 C 771 539.530, 775.598 539.189, 776.951 537.559 C 777.608 536.767, 779.351 535.980, 780.823 535.809 C 782.295 535.639, 783.500 535.101, 783.500 534.614 C 783.500 533.321, 778.276 533.136, 772.239 534.216 M 874 537 L 871.500 537.801 874.191 537.900 C 875.671 537.955, 877.160 537.550, 877.500 537 C 878.203 535.863, 877.549 535.863, 874 537 M 867.500 538 C 867.160 538.550, 867.584 539, 868.441 539 C 869.298 539, 870 538.550, 870 538 C 870 537.450, 869.577 537, 869.059 537 C 868.541 537, 867.840 537.450, 867.500 538 M 781.671 539.662 C 781.307 540.026, 779.413 540.264, 777.463 540.191 C 775.395 540.113, 774.168 540.462, 774.518 541.029 C 774.848 541.563, 777.116 542, 779.559 542 C 782.840 542, 784 541.608, 784 540.500 C 784 538.941, 782.818 538.516, 781.671 539.662 M 849.439 540.099 C 848.756 541.204, 854.021 541.274, 855.739 540.183 C 856.487 539.707, 855.596 539.357, 853.487 539.297 C 851.567 539.242, 849.745 539.603, 849.439 540.099 M 942.589 539.856 C 942.298 540.326, 943.172 540.499, 944.530 540.239 C 945.889 539.979, 947 539.594, 947 539.383 C 947 538.610, 943.101 539.027, 942.589 539.856 M 836.750 540.794 C 835.237 540.981, 834 541.562, 834 542.085 C 834 542.921, 838.787 542.333, 839.917 541.359 C 840.710 540.675, 839.488 540.458, 836.750 540.794 M 843.750 540.662 C 844.438 540.940, 845.563 540.940, 846.250 540.662 C 846.938 540.385, 846.375 540.158, 845 540.158 C 843.625 540.158, 843.063 540.385, 843.750 540.662 M 929.500 540.939 C 926.762 541.579, 926.922 541.679, 931.337 542.084 C 936.186 542.529, 938.365 541.738, 935.412 540.605 C 933.683 539.941, 933.788 539.935, 929.500 540.939 M 439.813 542.683 C 440.534 542.972, 441.397 542.936, 441.729 542.604 C 442.061 542.272, 441.471 542.036, 440.417 542.079 C 439.252 542.127, 439.015 542.364, 439.813 542.683 M 830.813 542.683 C 831.534 542.972, 832.397 542.936, 832.729 542.604 C 833.061 542.272, 832.471 542.036, 831.417 542.079 C 830.252 542.127, 830.015 542.364, 830.813 542.683 M 918.269 542.693 C 919.242 542.947, 920.592 542.930, 921.269 542.656 C 921.946 542.382, 921.150 542.175, 919.500 542.195 C 917.850 542.215, 917.296 542.439, 918.269 542.693 M 909.750 543.662 C 910.438 543.940, 911.563 543.940, 912.250 543.662 C 912.938 543.385, 912.375 543.158, 911 543.158 C 909.625 543.158, 909.063 543.385, 909.750 543.662 M 238.500 545 C 238.160 545.550, 238.584 546, 239.441 546 C 240.298 546, 241 545.550, 241 545 C 241 544.450, 240.577 544, 240.059 544 C 239.541 544, 238.840 544.450, 238.500 545 M 933 547.059 C 933 547.641, 933.450 547.840, 934 547.500 C 934.550 547.160, 935 546.684, 935 546.441 C 935 546.198, 934.550 546, 934 546 C 933.450 546, 933 546.477, 933 547.059 M 910 549 C 910 549.550, 910.450 550, 911 550 C 911.550 550, 912 549.550, 912 549 C 912 548.450, 911.550 548, 911 548 C 910.450 548, 910 548.450, 910 549 M 916.813 548.683 C 917.534 548.972, 918.397 548.936, 918.729 548.604 C 919.061 548.272, 918.471 548.036, 917.417 548.079 C 916.252 548.127, 916.015 548.364, 916.813 548.683 M 899.813 549.683 C 900.534 549.972, 901.397 549.936, 901.729 549.604 C 902.061 549.272, 901.471 549.036, 900.417 549.079 C 899.252 549.127, 899.015 549.364, 899.813 549.683 M 925.500 551 C 925.840 551.550, 926.316 552, 926.559 552 C 926.802 552, 927 551.550, 927 551 C 927 550.450, 926.523 550, 925.941 550 C 925.359 550, 925.160 550.450, 925.500 551 M 849.269 551.693 C 850.242 551.947, 851.592 551.930, 852.269 551.656 C 852.946 551.382, 852.150 551.175, 850.500 551.195 C 848.850 551.215, 848.296 551.439, 849.269 551.693 M 892.638 554.500 C 892.955 555.325, 893.568 556, 894 556 C 894.432 556, 895.045 555.325, 895.362 554.500 C 895.751 553.485, 895.311 553, 894 553 C 892.689 553, 892.249 553.485, 892.638 554.500 M 876.500 556 C 876.149 556.567, 876.990 557, 878.441 557 C 879.848 557, 881 556.550, 881 556 C 881 555.450, 880.127 555, 879.059 555 C 877.991 555, 876.840 555.450, 876.500 556 M 867.473 557.956 C 867.798 558.482, 868.725 558.659, 869.532 558.349 C 871.599 557.556, 871.356 557, 868.941 557 C 867.809 557, 867.148 557.430, 867.473 557.956 M 892 558.059 C 892 558.641, 892.450 558.840, 893 558.500 C 893.550 558.160, 894 557.684, 894 557.441 C 894 557.198, 893.550 557, 893 557 C 892.450 557, 892 557.477, 892 558.059 M 858.269 558.693 C 859.242 558.947, 860.592 558.930, 861.269 558.656 C 861.946 558.382, 861.150 558.175, 859.500 558.195 C 857.850 558.215, 857.296 558.439, 858.269 558.693 M 885.269 562.693 C 886.242 562.947, 887.592 562.930, 888.269 562.656 C 888.946 562.382, 888.150 562.175, 886.500 562.195 C 884.850 562.215, 884.296 562.439, 885.269 562.693 M 815.212 565.150 C 817.039 565.818, 818.509 565.802, 819.712 565.101 C 821.135 564.273, 820.582 564.071, 817 564.109 C 812.846 564.154, 812.709 564.234, 815.212 565.150 M 828.813 565.683 C 829.534 565.972, 830.397 565.936, 830.729 565.604 C 831.061 565.272, 830.471 565.036, 829.417 565.079 C 828.252 565.127, 828.015 565.364, 828.813 565.683 M 516 582.559 C 516 583.416, 516.450 583.840, 517 583.500 C 517.550 583.160, 518 582.459, 518 581.941 C 518 581.423, 517.550 581, 517 581 C 516.450 581, 516 581.702, 516 582.559 M 445 600.059 C 445 600.641, 445.450 600.840, 446 600.500 C 446.550 600.160, 447 599.684, 447 599.441 C 447 599.198, 446.550 599, 446 599 C 445.450 599, 445 599.477, 445 600.059 M 475.624 609.034 C 472.349 612.927, 472.242 614.543, 475.396 612.476 C 477.505 611.095, 479.511 607.178, 478.585 606.251 C 478.400 606.067, 477.068 607.319, 475.624 609.034 M 471.500 608 C 471.160 608.550, 471.359 609, 471.941 609 C 472.523 609, 473 608.550, 473 608 C 473 607.450, 472.802 607, 472.559 607 C 472.316 607, 471.840 607.450, 471.500 608 M 529.564 612.293 C 529.940 613.279, 530.499 613.834, 530.807 613.526 C 531.115 613.219, 530.808 612.412, 530.124 611.733 C 529.136 610.753, 529.022 610.868, 529.564 612.293 M 516 614.059 C 516 614.641, 516.450 614.840, 517 614.500 C 517.550 614.160, 518 613.684, 518 613.441 C 518 613.198, 517.550 613, 517 613 C 516.450 613, 516 613.477, 516 614.059 M 527.981 622.523 C 526.924 623.796, 526.986 623.943, 528.359 623.416 C 529.261 623.069, 530 622.384, 530 621.893 C 530 620.607, 529.421 620.788, 527.981 622.523 M 720.500 628 C 720.840 628.550, 721.316 629, 721.559 629 C 721.802 629, 722 628.550, 722 628 C 722 627.450, 721.523 627, 720.941 627 C 720.359 627, 720.160 627.450, 720.500 628 M 712 632.500 C 713.292 633.875, 714.767 635, 715.279 635 C 716.481 635, 711.799 630.040, 710.576 630.017 C 710.067 630.008, 710.708 631.125, 712 632.500 M 451.500 634 C 451.160 634.550, 451.359 635, 451.941 635 C 452.523 635, 453 634.550, 453 634 C 453 633.450, 452.802 633, 452.559 633 C 452.316 633, 451.840 633.450, 451.500 634 M 736.638 640.500 C 736.955 641.325, 737.671 642, 738.229 642 C 738.815 642, 738.718 641.365, 738 640.500 C 737.315 639.675, 736.599 639, 736.409 639 C 736.219 639, 736.322 639.675, 736.638 640.500 M 728.222 647.359 C 730.025 649.207, 731.829 650.535, 732.231 650.312 C 732.975 649.898, 726.769 644, 725.590 644 C 725.234 644, 726.419 645.512, 728.222 647.359 M 499.500 648 C 499.160 648.550, 499.359 649, 499.941 649 C 500.523 649, 501 648.550, 501 648 C 501 647.450, 500.802 647, 500.559 647 C 500.316 647, 499.840 647.450, 499.500 648 M 508.500 650 C 508.160 650.550, 508.359 651, 508.941 651 C 509.523 651, 510 650.550, 510 650 C 510 649.450, 509.802 649, 509.559 649 C 509.316 649, 508.840 649.450, 508.500 650 M 584.079 656.583 C 584.127 657.748, 584.364 657.985, 584.683 657.188 C 584.972 656.466, 584.936 655.603, 584.604 655.271 C 584.272 654.939, 584.036 655.529, 584.079 656.583 M 737 656 C 737 656.550, 737.450 657, 738 657 C 738.550 657, 739 656.550, 739 656 C 739 655.450, 738.550 655, 738 655 C 737.450 655, 737 655.450, 737 656 M 596 657.441 C 596 658.298, 596.450 659, 597 659 C 597.550 659, 598 658.577, 598 658.059 C 598 657.541, 597.550 656.840, 597 656.500 C 596.450 656.160, 596 656.584, 596 657.441 M 584.158 661 C 584.158 662.375, 584.385 662.938, 584.662 662.250 C 584.940 661.563, 584.940 660.438, 584.662 659.750 C 584.385 659.063, 584.158 659.625, 584.158 661 M 760 661 C 760 661.550, 760.477 662, 761.059 662 C 761.641 662, 761.840 661.550, 761.500 661 C 761.160 660.450, 760.684 660, 760.441 660 C 760.198 660, 760 660.450, 760 661 M 596.500 662 C 596.840 662.550, 597.316 663, 597.559 663 C 597.802 663, 598 662.550, 598 662 C 598 661.450, 597.523 661, 596.941 661 C 596.359 661, 596.160 661.450, 596.500 662 M 573.674 665.408 C 573.111 666.874, 573.759 668, 575.167 668 C 576.283 668, 576.234 665.263, 575.105 664.565 C 574.612 664.260, 573.968 664.640, 573.674 665.408 M 764.500 666 C 764.160 666.550, 764.359 667, 764.941 667 C 765.523 667, 766 666.550, 766 666 C 766 665.450, 765.802 665, 765.559 665 C 765.316 665, 764.840 665.450, 764.500 666 M 753.079 671.583 C 753.127 672.748, 753.364 672.985, 753.683 672.188 C 753.972 671.466, 753.936 670.603, 753.604 670.271 C 753.272 669.939, 753.036 670.529, 753.079 671.583 M 760.020 675.524 C 760.716 676.362, 761.491 676.842, 761.743 676.591 C 762.436 675.897, 761.027 674, 759.819 674 C 759.155 674, 759.231 674.574, 760.020 675.524 M 729.500 678 C 729.840 678.550, 730.316 679, 730.559 679 C 730.802 679, 731 678.550, 731 678 C 731 677.450, 730.523 677, 729.941 677 C 729.359 677, 729.160 677.450, 729.500 678 M 733.008 679.750 C 733.018 680.672, 741.157 685.176, 741.747 684.586 C 741.980 684.353, 741.120 683.610, 739.836 682.935 C 738.551 682.260, 737.140 681.099, 736.700 680.354 C 735.860 678.931, 732.994 678.462, 733.008 679.750 M 597 685 C 597 685.550, 597.450 686, 598 686 C 598.550 686, 599 685.550, 599 685 C 599 684.450, 598.550 684, 598 684 C 597.450 684, 597 684.450, 597 685 M 744 686.651 C 744 687.201, 745.125 688.708, 746.500 690 C 747.875 691.292, 749 691.899, 749 691.349 C 749 690.799, 747.875 689.292, 746.500 688 C 745.125 686.708, 744 686.101, 744 686.651 M 750 692.828 C 750 693.715, 754.304 697, 755.465 697 C 756.963 697, 755.655 695.227, 753 693.659 C 751.350 692.684, 750 692.311, 750 692.828 M 597.500 694 C 597.840 694.550, 598.316 695, 598.559 695 C 598.802 695, 599 694.550, 599 694 C 599 693.450, 598.523 693, 597.941 693 C 597.359 693, 597.160 693.450, 597.500 694 M 733.962 695.951 C 735.866 697.628, 737.891 698.990, 738.462 698.978 C 739.639 698.953, 735.530 695.469, 732.500 693.923 C 731.400 693.361, 732.058 694.274, 733.962 695.951 M 757 697.837 C 757 698.424, 759.025 700.297, 761.500 702 C 765.983 705.084, 767.745 704.939, 764.066 701.789 C 760.447 698.690, 757 696.762, 757 697.837 M 543.563 699.851 C 543.113 701.239, 543.244 702.644, 543.884 703.284 C 545.516 704.916, 546.029 703.748, 545.130 700.450 C 544.338 697.546, 544.313 697.536, 543.563 699.851 M 741 701.500 C 741.685 702.325, 742.695 703, 743.245 703 C 743.803 703, 743.694 702.337, 743 701.500 C 742.315 700.675, 741.305 700, 740.755 700 C 740.197 700, 740.306 700.663, 741 701.500 M 805 704.500 C 805.685 705.325, 806.695 706, 807.245 706 C 807.803 706, 807.694 705.337, 807 704.500 C 806.315 703.675, 805.305 703, 804.755 703 C 804.197 703, 804.306 703.663, 805 704.500 M 747.490 706.990 C 749.065 708.634, 750.576 709.757, 750.848 709.486 C 751.508 708.826, 746.925 704, 745.639 704 C 745.082 704, 745.915 705.345, 747.490 706.990 M 792.229 705.187 C 792.727 706.682, 795 707.505, 795 706.190 C 795 705.653, 794.287 704.941, 793.416 704.606 C 792.443 704.233, 791.985 704.456, 792.229 705.187 M 768 705.965 C 768 706.495, 769.013 707.461, 770.250 708.110 C 772.488 709.285, 772.490 709.280, 770.595 707.146 C 768.479 704.762, 768 704.544, 768 705.965 M 578.025 709.565 C 578.561 710.976, 579 713.226, 579 714.565 C 579 715.904, 579.422 717, 579.937 717 C 580.453 717, 580.639 715.313, 580.352 713.250 C 579.636 708.112, 579.228 707, 578.056 707 C 577.389 707, 577.378 707.865, 578.025 709.565 M 797.533 710.037 C 799.336 712.029, 801.006 712.615, 800.992 711.250 C 800.988 710.837, 799.808 709.954, 798.370 709.287 C 795.814 708.100, 795.796 708.117, 797.533 710.037 M 716.500 711 C 716.840 711.550, 717.316 712, 717.559 712 C 717.802 712, 718 711.550, 718 711 C 718 710.450, 717.523 710, 716.941 710 C 716.359 710, 716.160 710.450, 716.500 711 M 775.722 712.050 C 776.944 713.337, 778.138 714.189, 778.374 713.944 C 778.611 713.700, 777.611 712.648, 776.152 711.606 L 773.500 709.712 775.722 712.050 M 737.195 712.940 C 738.546 715.104, 740 715.672, 740 714.035 C 740 713.505, 739.079 712.578, 737.954 711.976 C 736.065 710.964, 736.007 711.038, 737.195 712.940 M 610.158 714 C 610.158 715.375, 610.385 715.938, 610.662 715.250 C 610.940 714.563, 610.940 713.438, 610.662 712.750 C 610.385 712.063, 610.158 712.625, 610.158 714 M 755.564 713.293 C 755.940 714.279, 756.499 714.834, 756.807 714.526 C 757.115 714.219, 756.808 713.412, 756.124 712.733 C 755.136 711.753, 755.022 711.868, 755.564 713.293 M 598.405 715.250 L 596.500 717.500 598.750 715.595 C 600.864 713.805, 601.455 713, 600.655 713 C 600.465 713, 599.453 714.013, 598.405 715.250 M 566 714.882 C 566 715.432, 566.450 716.160, 567 716.500 C 567.550 716.840, 568 716.668, 568 716.118 C 568 715.568, 567.550 714.840, 567 714.500 C 566.450 714.160, 566 714.332, 566 714.882 M 759 715.924 C 759 716.398, 759.675 717.045, 760.500 717.362 C 761.325 717.678, 762 717.549, 762 717.076 C 762 716.602, 761.325 715.955, 760.500 715.638 C 759.675 715.322, 759 715.451, 759 715.924 M 784.500 718 C 784.840 718.550, 785.316 719, 785.559 719 C 785.802 719, 786 718.550, 786 718 C 786 717.450, 785.523 717, 784.941 717 C 784.359 717, 784.160 717.450, 784.500 718 M 567.015 719.583 C 567.024 720.638, 567.487 722.175, 568.046 723 C 568.787 724.095, 568.880 723.691, 568.390 721.500 C 567.567 717.823, 566.995 717.025, 567.015 719.583 M 763 719.020 C 763 719.949, 768.932 723.435, 769.473 722.824 C 769.630 722.646, 768.239 721.508, 766.380 720.296 C 764.521 719.084, 763 718.510, 763 719.020 M 808.020 720.524 C 808.716 721.362, 809.491 721.842, 809.743 721.591 C 810.436 720.897, 809.027 719, 807.819 719 C 807.155 719, 807.231 719.574, 808.020 720.524 M 580 723.500 C 580 725.425, 580.361 727, 580.802 727 C 581.243 727, 581.648 725.425, 581.703 723.500 C 581.757 721.575, 581.397 720, 580.901 720 C 580.405 720, 580 721.575, 580 723.500 M 609.813 720.683 C 610.534 720.972, 611.397 720.936, 611.729 720.604 C 612.061 720.272, 611.471 720.036, 610.417 720.079 C 609.252 720.127, 609.015 720.364, 609.813 720.683 M 600.079 723.583 C 600.127 724.748, 600.364 724.985, 600.683 724.188 C 600.972 723.466, 600.936 722.603, 600.604 722.271 C 600.272 721.939, 600.036 722.529, 600.079 723.583 M 739 724.500 C 739.685 725.325, 740.672 726, 741.194 726 C 741.716 726, 741.468 725.325, 740.643 724.500 C 739.818 723.675, 738.831 723, 738.449 723 C 738.067 723, 738.315 723.675, 739 724.500 M 813 724.378 C 813 724.585, 813.788 725.373, 814.750 726.128 C 816.336 727.371, 816.371 727.336, 815.128 725.750 C 813.821 724.084, 813 723.555, 813 724.378 M 937 724.571 C 937 725.318, 939.688 728, 940.437 728 C 940.756 728, 940.455 727.100, 939.768 726 C 938.596 724.123, 937 723.299, 937 724.571 M 568 728.941 C 568 730.073, 568.450 731, 569 731 C 569.550 731, 570 730.352, 570 729.559 C 570 728.766, 569.550 727.840, 569 727.500 C 568.450 727.160, 568 727.809, 568 728.941 M 580.385 731.177 C 581.472 736.612, 583.094 736.675, 582.268 731.250 C 581.996 729.462, 581.318 728, 580.762 728 C 580.158 728, 580.007 729.283, 580.385 731.177 M 746 730.500 C 746.685 731.325, 747.695 732, 748.245 732 C 748.803 732, 748.694 731.337, 748 730.500 C 747.315 729.675, 746.305 729, 745.755 729 C 745.197 729, 745.306 729.663, 746 730.500 M 821 731.059 C 821 731.641, 821.450 731.840, 822 731.500 C 822.550 731.160, 823 730.684, 823 730.441 C 823 730.198, 822.550 730, 822 730 C 821.450 730, 821 730.477, 821 731.059 M 813.638 732.500 C 813.955 733.325, 814.671 734, 815.229 734 C 815.815 734, 815.718 733.365, 815 732.500 C 814.315 731.675, 813.599 731, 813.409 731 C 813.219 731, 813.322 731.675, 813.638 732.500 M 557 734.941 C 557 736.073, 557.450 737, 558 737 C 558.550 737, 559 736.352, 559 735.559 C 559 734.766, 558.550 733.840, 558 733.500 C 557.450 733.160, 557 733.809, 557 734.941 M 568.829 737 C 569.038 739.200, 569.388 741, 569.605 741 C 569.822 741, 570 739.200, 570 737 C 570 734.800, 569.651 733, 569.224 733 C 568.797 733, 568.619 734.800, 568.829 737 M 753 734.723 C 753 735.981, 755.858 738.475, 756.530 737.803 C 756.795 737.538, 756.110 736.504, 755.006 735.506 C 753.903 734.507, 753 734.155, 753 734.723 M 582.364 741.772 C 582.687 746.681, 583.430 748.907, 584.414 747.917 C 584.642 747.688, 584.196 745.025, 583.423 742 L 582.017 736.500 582.364 741.772 M 821.500 739 C 821.840 739.550, 822.316 740, 822.559 740 C 822.802 740, 823 739.550, 823 739 C 823 738.450, 822.523 738, 821.941 738 C 821.359 738, 821.160 738.450, 821.500 739 M 932.080 740 C 933.538 743.061, 934 743.628, 934 742.358 C 934 741.821, 933.300 740.509, 932.445 739.441 C 930.978 737.611, 930.958 737.643, 932.080 740 M 912.500 740 C 912.840 740.550, 913.316 741, 913.559 741 C 913.802 741, 914 740.550, 914 740 C 914 739.450, 913.523 739, 912.941 739 C 912.359 739, 912.160 739.450, 912.500 740 M 828.500 741 C 828.840 741.550, 829.316 742, 829.559 742 C 829.802 742, 830 741.550, 830 741 C 830 740.450, 829.523 740, 828.941 740 C 828.359 740, 828.160 740.450, 828.500 741 M 550 742 C 550 742.550, 550.477 743, 551.059 743 C 551.641 743, 551.840 742.550, 551.500 742 C 551.160 741.450, 550.684 741, 550.441 741 C 550.198 741, 550 741.450, 550 742 M 569 743 C 569 743.550, 569.477 744, 570.059 744 C 570.641 744, 570.840 743.550, 570.500 743 C 570.160 742.450, 569.684 742, 569.441 742 C 569.198 742, 569 742.450, 569 743 M 769 742.409 C 769 742.599, 769.675 743.315, 770.500 744 C 771.365 744.718, 772 744.815, 772 744.229 C 772 743.671, 771.325 742.955, 770.500 742.638 C 769.675 742.322, 769 742.219, 769 742.409 M 916.638 744.500 C 916.955 745.325, 917.671 746, 918.229 746 C 918.815 746, 918.718 745.365, 918 744.500 C 917.315 743.675, 916.599 743, 916.409 743 C 916.219 743, 916.322 743.675, 916.638 744.500 M 765.279 744.721 C 764.321 745.055, 764.320 745.427, 765.274 746.448 C 766.499 747.759, 769 747.459, 769 746 C 769 744.948, 766.797 744.191, 765.279 744.721 M 570.079 747.583 C 570.127 748.748, 570.364 748.985, 570.683 748.188 C 570.972 747.466, 570.936 746.603, 570.604 746.271 C 570.272 745.939, 570.036 746.529, 570.079 747.583 M 774 747 C 774 747.550, 774.477 748, 775.059 748 C 775.641 748, 775.840 747.550, 775.500 747 C 775.160 746.450, 774.684 746, 774.441 746 C 774.198 746, 774 746.450, 774 747 M 801.500 747 C 801.840 747.550, 802.568 748, 803.118 748 C 803.668 748, 803.840 747.550, 803.500 747 C 803.160 746.450, 802.432 746, 801.882 746 C 801.332 746, 801.160 746.450, 801.500 747 M 840 747 C 840 747.550, 840.450 748, 841 748 C 841.550 748, 842 747.550, 842 747 C 842 746.450, 841.550 746, 841 746 C 840.450 746, 840 746.450, 840 747 M 854 747 C 854 747.550, 854.477 748, 855.059 748 C 855.641 748, 855.840 747.550, 855.500 747 C 855.160 746.450, 854.684 746, 854.441 746 C 854.198 746, 854 746.450, 854 747 M 837 747.378 C 837 747.585, 837.788 748.373, 838.750 749.128 C 840.336 750.371, 840.371 750.336, 839.128 748.750 C 837.821 747.084, 837 746.555, 837 747.378 M 857 747.393 C 857 747.609, 857.698 748.054, 858.552 748.382 C 859.442 748.723, 859.843 748.555, 859.493 747.989 C 858.906 747.038, 857 746.583, 857 747.393 M 361 749.059 C 361 749.641, 361.450 749.840, 362 749.500 C 362.550 749.160, 363 748.684, 363 748.441 C 363 748.198, 362.550 748, 362 748 C 361.450 748, 361 748.477, 361 749.059 M 848.500 749 C 848.840 749.550, 849.316 750, 849.559 750 C 849.802 750, 850 749.550, 850 749 C 850 748.450, 849.523 748, 848.941 748 C 848.359 748, 848.160 748.450, 848.500 749 M 788.022 751.892 C 789.935 753.483, 792.850 755.958, 794.500 757.391 C 796.150 758.825, 797.853 759.998, 798.285 759.999 C 798.716 759.999, 797.370 758.538, 795.293 756.750 C 793.215 754.962, 790.392 752.487, 789.018 751.250 C 787.644 750.013, 786.076 749, 785.532 749 C 784.989 749, 786.109 750.302, 788.022 751.892 M 845 749.922 C 845 751.044, 851.894 753.439, 852.727 752.607 C 853.053 752.281, 851.898 751.730, 850.160 751.382 C 848.422 751.034, 847 750.356, 847 749.875 C 847 749.394, 846.550 749, 846 749 C 845.450 749, 845 749.415, 845 749.922 M 583.684 750.750 C 583.446 751.163, 583.612 752.400, 584.055 753.500 C 584.757 755.246, 584.868 755.151, 584.930 752.750 C 584.999 750.037, 584.531 749.286, 583.684 750.750 M 806 750.409 C 806 750.599, 806.675 751.315, 807.500 752 C 808.365 752.718, 809 752.815, 809 752.229 C 809 751.671, 808.325 750.955, 807.500 750.638 C 806.675 750.322, 806 750.219, 806 750.409 M 551.158 753 C 551.158 754.375, 551.385 754.938, 551.662 754.250 C 551.940 753.563, 551.940 752.438, 551.662 751.750 C 551.385 751.063, 551.158 751.625, 551.158 753 M 571.158 753 C 571.158 754.375, 571.385 754.938, 571.662 754.250 C 571.940 753.563, 571.940 752.438, 571.662 751.750 C 571.385 751.063, 571.158 751.625, 571.158 753 M 403.232 755 C 402.545 756.100, 402.329 757, 402.751 757 C 403.173 757, 404.081 756.100, 404.768 755 C 405.455 753.900, 405.671 753, 405.249 753 C 404.827 753, 403.919 753.900, 403.232 755 M 782 754 C 782 754.550, 782.477 755, 783.059 755 C 783.641 755, 783.840 754.550, 783.500 754 C 783.160 753.450, 782.684 753, 782.441 753 C 782.198 753, 782 753.450, 782 754 M 810 754 C 810 754.550, 810.477 755, 811.059 755 C 811.641 755, 811.840 754.550, 811.500 754 C 811.160 753.450, 810.684 753, 810.441 753 C 810.198 753, 810 753.450, 810 754 M 805.500 755 C 805.840 755.550, 806.568 756, 807.118 756 C 807.668 756, 807.840 755.550, 807.500 755 C 807.160 754.450, 806.432 754, 805.882 754 C 805.332 754, 805.160 754.450, 805.500 755 M 571.070 757.250 C 571.109 757.938, 571.527 759.400, 572 760.500 C 572.720 762.176, 572.871 761.974, 572.930 759.250 C 572.968 757.462, 572.550 756, 572 756 C 571.450 756, 571.032 756.563, 571.070 757.250 M 843 756.383 C 843 756.594, 843.900 757.002, 845 757.290 C 846.100 757.577, 847 757.405, 847 756.906 C 847 756.408, 846.100 756, 845 756 C 843.900 756, 843 756.173, 843 756.383 M 809 758.059 C 809 758.641, 809.450 758.840, 810 758.500 C 810.550 758.160, 811 757.684, 811 757.441 C 811 757.198, 810.550 757, 810 757 C 809.450 757, 809 757.477, 809 758.059 M 815 758.190 C 815 759.806, 817.975 762.928, 818.032 761.372 C 818.049 760.893, 818.724 761.374, 819.532 762.441 C 820.339 763.509, 821 763.930, 821 763.378 C 821 762.826, 819.650 761.081, 818 759.500 C 815.836 757.427, 815 757.062, 815 758.190 M 585.079 759.583 C 585.127 760.748, 585.364 760.985, 585.683 760.188 C 585.972 759.466, 585.936 758.603, 585.604 758.271 C 585.272 757.939, 585.036 758.529, 585.079 759.583 M 371.964 761.164 C 370.819 763.397, 370.846 763.424, 372.574 761.774 C 373.568 760.824, 374.107 759.773, 373.771 759.438 C 373.436 759.103, 372.623 759.880, 371.964 761.164 M 831.606 760.586 C 831.247 761.521, 831.189 762.522, 831.476 762.810 C 831.764 763.098, 832 762.849, 832 762.257 C 832 761.523, 833.829 761.617, 837.750 762.555 C 840.913 763.310, 843.938 763.945, 844.473 763.964 C 846.463 764.037, 841.388 761.282, 838.500 760.722 C 836.850 760.402, 834.771 759.858, 833.879 759.513 C 832.860 759.118, 832.016 759.517, 831.606 760.586 M 390 761.059 C 390 761.641, 390.450 761.840, 391 761.500 C 391.550 761.160, 392 760.684, 392 760.441 C 392 760.198, 391.550 760, 391 760 C 390.450 760, 390 760.477, 390 761.059 M 552.070 760.750 C 552.109 761.163, 552.527 762.400, 553 763.500 C 553.762 765.272, 553.867 765.187, 553.930 762.750 C 553.968 761.237, 553.550 760, 553 760 C 552.450 760, 552.032 760.337, 552.070 760.750 M 813 761 C 813 761.550, 813.477 762, 814.059 762 C 814.641 762, 814.840 761.550, 814.500 761 C 814.160 760.450, 813.684 760, 813.441 760 C 813.198 760, 813 760.450, 813 761 M 802.061 763.808 C 803.402 765.503, 805.132 766.914, 805.905 766.945 C 807.623 767.012, 804.584 763.383, 801.572 761.771 C 799.920 760.887, 799.995 761.199, 802.061 763.808 M 825 761.885 C 825 762.445, 827.025 764.297, 829.500 766 C 831.975 767.703, 834 768.904, 834 768.669 C 834 768.433, 831.975 766.582, 829.500 764.554 C 827.025 762.525, 825 761.325, 825 761.885 M 585.500 763 C 585.840 763.550, 586.316 764, 586.559 764 C 586.802 764, 587 763.550, 587 763 C 587 762.450, 586.523 762, 585.941 762 C 585.359 762, 585.160 762.450, 585.500 763 M 384.543 763.930 C 384.257 764.393, 384.917 765.007, 386.011 765.293 C 387.105 765.579, 388 765.453, 388 765.013 C 388 763.838, 385.152 762.946, 384.543 763.930 M 375.459 766.067 C 375.096 766.653, 375.014 767.348, 375.276 767.610 C 375.538 767.872, 376.019 767.392, 376.345 766.543 C 377.021 764.781, 376.445 764.471, 375.459 766.067 M 825 766.878 C 825 767.360, 825.675 768.315, 826.500 769 C 828.128 770.351, 828.332 770.028, 827.393 767.582 C 826.750 765.907, 825 765.392, 825 766.878 M 384.100 769.295 C 382.835 771.402, 382.857 771.423, 384.579 769.774 C 385.570 768.824, 386.166 767.832, 385.903 767.569 C 385.640 767.306, 384.829 768.083, 384.100 769.295 M 601.638 768.500 C 601.955 769.325, 602.391 770, 602.607 770 C 602.823 770, 603 769.325, 603 768.500 C 603 767.675, 602.564 767, 602.031 767 C 601.499 767, 601.322 767.675, 601.638 768.500 M 587.079 770.583 C 587.127 771.748, 587.364 771.985, 587.683 771.188 C 587.972 770.466, 587.936 769.603, 587.604 769.271 C 587.272 768.939, 587.036 769.529, 587.079 770.583 M 812.506 772.006 C 813.504 773.110, 814.538 773.795, 814.803 773.530 C 815.475 772.858, 812.981 770, 811.723 770 C 811.155 770, 811.507 770.903, 812.506 772.006 M 602 774.333 C 602 776.350, 602.439 778, 602.975 778 C 603.535 778, 603.687 776.617, 603.331 774.750 C 602.464 770.193, 602 770.048, 602 774.333 M 378.714 775.015 C 379.104 776.507, 378.853 776.881, 377.746 776.456 C 376.638 776.031, 376.250 776.607, 376.250 778.673 L 376.250 781.463 379.125 778.019 C 382.498 773.979, 382.687 773, 380.094 773 C 378.675 773, 378.322 773.515, 378.714 775.015 M 835 774.945 C 836.375 776.107, 838.400 777.568, 839.500 778.192 C 841.181 779.147, 841.313 779.102, 840.327 777.914 C 839.682 777.136, 837.657 775.675, 835.827 774.667 L 832.500 772.833 835 774.945 M 611.079 776.583 C 611.127 777.748, 611.364 777.985, 611.683 777.188 C 611.972 776.466, 611.936 775.603, 611.604 775.271 C 611.272 774.939, 611.036 775.529, 611.079 776.583 M 554.526 776.959 C 554.112 777.627, 554.268 778.668, 554.870 779.270 C 556.407 780.807, 557.380 779.501, 556.230 777.447 C 555.530 776.196, 555.077 776.067, 554.526 776.959 M 559.158 779 C 559.158 780.375, 559.385 780.938, 559.662 780.250 C 559.940 779.563, 559.940 778.438, 559.662 777.750 C 559.385 777.063, 559.158 777.625, 559.158 779 M 602.500 780 C 602.160 780.550, 602.359 781, 602.941 781 C 603.523 781, 604 780.550, 604 780 C 604 779.450, 603.802 779, 603.559 779 C 603.316 779, 602.840 779.450, 602.500 780 M 843.500 781 C 843.840 781.550, 844.568 782, 845.118 782 C 845.668 782, 845.840 781.550, 845.500 781 C 845.160 780.450, 844.432 780, 843.882 780 C 843.332 780, 843.160 780.450, 843.500 781 M 559.079 784.583 C 559.127 785.748, 559.364 785.985, 559.683 785.188 C 559.972 784.466, 559.936 783.603, 559.604 783.271 C 559.272 782.939, 559.036 783.529, 559.079 784.583 M 565 788.059 C 565 788.641, 565.450 788.840, 566 788.500 C 566.550 788.160, 567 787.684, 567 787.441 C 567 787.198, 566.550 787, 566 787 C 565.450 787, 565 787.477, 565 788.059 M 602 789.559 C 602 790.416, 602.457 790.835, 603.016 790.490 C 603.575 790.144, 603.774 789.443, 603.457 788.931 C 602.600 787.544, 602 787.802, 602 789.559 M 830.500 791 C 830.160 791.550, 830.359 792, 830.941 792 C 831.523 792, 832 791.550, 832 791 C 832 790.450, 831.802 790, 831.559 790 C 831.316 790, 830.840 790.450, 830.500 791 M 565.424 794.332 C 565.741 795.339, 566 798.377, 566 801.082 C 566 803.787, 566.399 806, 566.886 806 C 568.012 806, 567.128 796.001, 565.825 794 C 565.039 792.792, 564.961 792.857, 565.424 794.332 M 556 795 C 556 795.550, 556.450 796, 557 796 C 557.550 796, 558 795.550, 558 795 C 558 794.450, 557.550 794, 557 794 C 556.450 794, 556 794.450, 556 795 M 603.079 803.583 C 603.127 804.748, 603.364 804.985, 603.683 804.188 C 603.972 803.466, 603.936 802.603, 603.604 802.271 C 603.272 801.939, 603.036 802.529, 603.079 803.583 M 378.667 803.667 C 378.300 804.033, 378 804.798, 378 805.367 C 378 805.993, 378.466 805.934, 379.183 805.217 C 379.834 804.566, 380.134 803.801, 379.850 803.517 C 379.566 803.232, 379.033 803.300, 378.667 803.667 M 603.813 806.683 C 604.534 806.972, 605.397 806.936, 605.729 806.604 C 606.061 806.272, 605.471 806.036, 604.417 806.079 C 603.252 806.127, 603.015 806.364, 603.813 806.683 M 567.079 809.583 C 567.127 810.748, 567.364 810.985, 567.683 810.188 C 567.972 809.466, 567.936 808.603, 567.604 808.271 C 567.272 807.939, 567.036 808.529, 567.079 809.583 M 558.079 810.583 C 558.127 811.748, 558.364 811.985, 558.683 811.188 C 558.972 810.466, 558.936 809.603, 558.604 809.271 C 558.272 808.939, 558.036 809.529, 558.079 810.583 M 579.100 810.583 C 579.155 811.638, 579.586 813.625, 580.058 815 C 580.766 817.062, 580.854 816.832, 580.559 813.684 C 580.196 809.801, 578.918 807.085, 579.100 810.583 M 576.079 812.583 C 576.127 813.748, 576.364 813.985, 576.683 813.188 C 576.972 812.466, 576.936 811.603, 576.604 811.271 C 576.272 810.939, 576.036 811.529, 576.079 812.583 M 566.791 816.972 C 566.518 818.831, 566.847 820.111, 567.679 820.430 C 568.587 820.779, 569 820.028, 569 818.028 C 569 814.090, 567.331 813.292, 566.791 816.972 M 576 816 C 576 816.550, 576.477 817, 577.059 817 C 577.641 817, 577.840 816.550, 577.500 816 C 577.160 815.450, 576.684 815, 576.441 815 C 576.198 815, 576 815.450, 576 816 M 602.079 818.583 C 602.127 819.748, 602.364 819.985, 602.683 819.188 C 602.972 818.466, 602.936 817.603, 602.604 817.271 C 602.272 816.939, 602.036 817.529, 602.079 818.583 M 579.333 823.345 C 579.333 825.080, 579.538 825.887, 579.788 825.137 C 580.171 823.986, 580.377 823.986, 581.106 825.137 C 581.718 826.103, 581.974 825.730, 581.985 823.857 C 581.993 822.403, 581.400 820.984, 580.667 820.702 C 579.729 820.343, 579.333 821.127, 579.333 823.345 M 577.079 822.583 C 577.127 823.748, 577.364 823.985, 577.683 823.188 C 577.972 822.466, 577.936 821.603, 577.604 821.271 C 577.272 820.939, 577.036 821.529, 577.079 822.583 M 583 822 C 583 822.550, 583.450 823, 584 823 C 584.550 823, 585 822.550, 585 822 C 585 821.450, 584.550 821, 584 821 C 583.450 821, 583 821.450, 583 822 M 603.232 827 C 603.232 828.925, 603.438 829.712, 603.689 828.750 C 603.941 827.788, 603.941 826.212, 603.689 825.250 C 603.438 824.288, 603.232 825.075, 603.232 827 M 569.195 828.500 C 569.215 830.150, 569.439 830.704, 569.693 829.731 C 569.947 828.758, 569.930 827.408, 569.656 826.731 C 569.382 826.054, 569.175 826.850, 569.195 828.500 M 573.158 830 C 573.158 831.375, 573.385 831.938, 573.662 831.250 C 573.940 830.563, 573.940 829.438, 573.662 828.750 C 573.385 828.063, 573.158 828.625, 573.158 830 M 578.079 831.583 C 578.127 832.748, 578.364 832.985, 578.683 832.188 C 578.972 831.466, 578.936 830.603, 578.604 830.271 C 578.272 829.939, 578.036 830.529, 578.079 831.583 M 581.500 831 C 581.160 831.550, 581.359 832, 581.941 832 C 582.523 832, 583 831.550, 583 831 C 583 830.450, 582.802 830, 582.559 830 C 582.316 830, 581.840 830.450, 581.500 831 M 606 831.059 C 606 831.641, 606.450 831.840, 607 831.500 C 607.550 831.160, 608 830.684, 608 830.441 C 608 830.198, 607.550 830, 607 830 C 606.450 830, 606 830.477, 606 831.059 M 585.001 835.510 C 585.378 837.990, 586.046 840.352, 586.487 840.760 C 586.927 841.167, 586.998 839.981, 586.644 838.125 C 586.290 836.269, 586 833.906, 586 832.875 C 586 831.844, 585.621 831, 585.159 831 C 584.696 831, 584.625 833.029, 585.001 835.510 M 580.070 834.750 C 580.109 835.163, 580.487 836.387, 580.911 837.472 C 581.603 839.242, 581.735 839.166, 582.202 836.722 C 582.563 834.838, 582.304 834, 581.361 834 C 580.613 834, 580.032 834.337, 580.070 834.750 M 591 834.934 C 591 836.362, 597.189 846, 598.107 846 C 598.551 846, 597.306 843.300, 595.340 840 C 591.802 834.059, 591 833.124, 591 834.934 M 607.468 836.224 C 606.866 837.791, 611.859 847, 613.311 847 C 613.765 847, 613.175 845.650, 612 844 C 610.825 842.350, 609.744 839.874, 609.597 838.498 C 609.262 835.354, 608.226 834.247, 607.468 836.224 M 610 838 C 610 838.550, 610.450 839, 611 839 C 611.550 839, 612 838.550, 612 838 C 612 837.450, 611.550 837, 611 837 C 610.450 837, 610 837.450, 610 838 M 601.884 840.774 C 602.985 842.840, 603.239 842.904, 604.667 841.476 C 605.531 840.612, 605.898 839.589, 605.482 839.202 C 605.066 838.816, 604.519 839.081, 604.266 839.792 C 603.890 840.847, 603.519 840.847, 602.239 839.792 C 600.850 838.646, 600.810 838.757, 601.884 840.774 M 612 841 C 612 841.550, 612.477 842, 613.059 842 C 613.641 842, 613.840 841.550, 613.500 841 C 613.160 840.450, 612.684 840, 612.441 840 C 612.198 840, 612 840.450, 612 841 M 617 843 C 619.745 846.855, 620.396 846.859, 618.203 843.006 C 617.267 841.360, 616.132 840.010, 615.682 840.006 C 615.232 840.003, 615.825 841.350, 617 843 M 583.195 849.500 C 583.215 851.150, 583.439 851.704, 583.693 850.731 C 583.947 849.758, 583.930 848.408, 583.656 847.731 C 583.382 847.054, 583.175 847.850, 583.195 849.500 M 584.564 857.293 C 584.940 858.279, 585.499 858.834, 585.807 858.526 C 586.115 858.219, 585.808 857.412, 585.124 856.733 C 584.136 855.753, 584.022 855.868, 584.564 857.293 M 662.158 884 C 662.158 885.375, 662.385 885.938, 662.662 885.250 C 662.940 884.563, 662.940 883.438, 662.662 882.750 C 662.385 882.063, 662.158 882.625, 662.158 884 M 690.015 886.250 C 690.028 888.069, 690.216 888.213, 691 887 C 692.253 885.061, 692.253 884, 691 884 C 690.450 884, 690.007 885.013, 690.015 886.250 M 675 892 C 674.409 893.105, 674.341 894, 674.848 894 C 675.353 894, 676.002 893.100, 676.290 892 C 676.577 890.900, 676.646 890, 676.442 890 C 676.237 890, 675.589 890.900, 675 892 M 701.500 914 C 701.840 914.550, 702.316 915, 702.559 915 C 702.802 915, 703 914.550, 703 914 C 703 913.450, 702.523 913, 701.941 913 C 701.359 913, 701.160 913.450, 701.500 914" stroke="none" fill="black" fill-rule="evenodd"/>
</svg>