<svg xmlns="http://www.w3.org/2000/svg" width="1240" height="1753" viewBox="0 0 1240 1753" version="1.1">
	<path d="M 258.601 211.075 C 254.807 211.509, 251.382 212.382, 250.990 213.017 C 250.598 213.651, 248.077 214.394, 245.389 214.667 C 242.672 214.944, 239.611 215.973, 238.500 216.983 C 237.400 217.982, 235.600 218.970, 234.500 219.178 C 232.941 219.473, 232.542 220.266, 232.689 222.778 C 232.804 224.745, 232.404 226, 231.661 226 C 230.275 226, 227 229.521, 227 231.011 C 227 231.555, 226.352 232, 225.559 232 C 224.766 232, 223.797 232.520, 223.405 233.155 C 222.962 233.870, 223.130 234.038, 223.845 233.595 C 224.575 233.144, 225 233.639, 225 234.941 C 225 237.235, 222.999 237.605, 219.813 235.900 C 217.893 234.873, 217.785 235.033, 218.170 238.330 C 218.397 240.271, 218.257 241.659, 217.860 241.414 C 217.463 241.168, 216.856 241.425, 216.510 241.984 C 216.165 242.543, 215.036 243, 214.003 243 C 212.969 243, 210.645 244.350, 208.839 246 C 207.032 247.650, 205.211 249, 204.792 249 C 203.368 249, 192.038 260.252, 192.579 261.128 C 192.876 261.608, 192.711 262, 192.212 262 C 190.729 262, 184 268.979, 184 270.517 C 184 271.338, 183.396 271.706, 182.569 271.388 C 180.981 270.779, 175.004 274.764, 174.994 276.438 C 174.986 277.734, 169.444 281, 167.252 281 C 166.380 281, 165.950 281.284, 166.297 281.630 C 167.227 282.560, 159.793 288.950, 157.750 288.977 C 156.787 288.990, 156 289.623, 156 290.383 C 156 291.144, 154.988 292.096, 153.750 292.499 C 152.512 292.902, 151.275 293.326, 151 293.443 C 150.725 293.560, 148.750 294.019, 146.611 294.465 C 143.662 295.079, 142.472 295.937, 141.687 298.019 C 141.052 299.701, 139.361 301.270, 137.318 302.071 C 134.799 303.060, 134.126 303.821, 134.560 305.189 C 134.948 306.411, 134.625 307, 133.567 307 C 132.705 307, 132 306.288, 132 305.417 C 132 304.546, 131.438 304.029, 130.750 304.268 C 130.063 304.507, 129.536 305.669, 129.579 306.851 C 129.623 308.033, 129.169 309, 128.570 309 C 127.971 309, 126.908 309.917, 126.208 311.039 C 125.508 312.160, 124.538 312.832, 124.053 312.533 C 123.568 312.233, 122.990 312.529, 122.770 313.191 C 122.487 314.040, 121.140 313.754, 118.191 312.216 C 115.893 311.019, 114.063 310.368, 114.125 310.769 C 114.430 312.758, 113.870 314, 112.669 314 C 111.937 314, 110.745 315.108, 110.020 316.462 C 108.851 318.647, 108.212 318.866, 104.351 318.412 C 101.429 318.069, 100 318.281, 100 319.057 C 100 319.693, 99.369 319.972, 98.598 319.676 C 97.827 319.380, 96.925 319.408, 96.595 319.738 C 96.265 320.068, 94.391 320.503, 92.430 320.704 C 85.009 321.466, 78.361 328.640, 78.844 335.368 C 79.290 341.580, 74.965 342.825, 72.305 337.250 C 70.512 333.493, 70.370 333.073, 70.110 330.750 C 70.012 329.880, 69.675 329.956, 69 331 C 68.467 331.825, 68.024 331.986, 68.015 331.357 C 67.989 329.412, 65.007 328.945, 62.127 330.434 C 58.876 332.116, 56.951 337.390, 57.620 342.784 C 58.126 346.860, 56.439 351, 54.272 351 C 53.507 351, 53.141 351.419, 53.457 351.931 C 53.774 352.443, 53.575 353.144, 53.016 353.490 C 52.457 353.835, 52 354.922, 52 355.904 C 52 356.886, 51.086 358.517, 49.969 359.528 C 48.235 361.097, 48.006 362.253, 48.401 367.433 C 48.825 373, 48.739 373.335, 47.361 371.500 C 46.535 370.400, 45.407 369.624, 44.855 369.775 C 44.303 369.926, 44.122 369.611, 44.454 369.075 C 44.785 368.539, 44.143 367.612, 43.028 367.015 C 41.385 366.136, 41 366.232, 41 367.524 C 41 368.401, 40.579 368.858, 40.064 368.540 C 39.505 368.194, 39.427 369.075, 39.870 370.731 C 40.279 372.254, 40.499 375.733, 40.359 378.461 C 40.220 381.190, 40.571 383.983, 41.139 384.668 C 42.474 386.277, 41.228 388.302, 39.347 387.580 C 38.549 387.273, 38.152 387.437, 38.464 387.942 C 38.777 388.448, 38.575 389.144, 38.016 389.490 C 37.457 389.835, 37 391.194, 37 392.509 C 37 393.825, 36.398 395.260, 35.662 395.700 C 34.195 396.577, 31.883 404.549, 32.823 405.490 C 33.145 405.812, 33.572 407.294, 33.772 408.783 C 33.971 410.272, 34.780 412.204, 35.569 413.077 C 36.359 413.949, 36.754 414.913, 36.448 415.218 C 36.142 415.524, 36.743 417.174, 37.783 418.884 C 38.823 420.594, 39.972 421.694, 40.337 421.330 C 40.702 420.965, 41 421.812, 41 423.211 C 41 424.610, 41.683 426.322, 42.518 427.015 C 43.354 427.708, 44.727 429.731, 45.571 431.509 C 46.415 433.288, 49.670 437.495, 52.803 440.859 C 58.058 446.501, 64.015 453.123, 69.848 459.809 C 71.140 461.289, 73.796 464.975, 75.752 468 C 77.707 471.025, 79.914 474.400, 80.656 475.500 C 81.397 476.600, 83.524 479.786, 85.381 482.581 C 87.239 485.375, 90.838 490.003, 93.379 492.864 C 95.921 495.726, 98 498.445, 98 498.907 C 98 499.369, 100.390 502.426, 103.311 505.699 C 106.232 508.973, 109.700 513.417, 111.018 515.576 C 112.337 517.734, 115.117 521.672, 117.197 524.326 C 119.277 526.981, 121.710 530.693, 122.603 532.576 C 123.497 534.459, 124.563 536, 124.972 536 C 125.724 536, 130.954 544.154, 134.912 551.500 C 136.098 553.700, 138.393 557.525, 140.014 560 C 141.634 562.475, 143.417 565.536, 143.975 566.803 C 144.903 568.906, 150.650 576.810, 152.116 578 C 152.456 578.275, 154.706 581.254, 157.116 584.621 C 159.527 587.987, 166.900 597.821, 173.500 606.474 C 189.456 627.393, 190.650 629.017, 192.568 632.406 C 193.473 634.004, 195.103 636.254, 196.191 637.406 C 197.279 638.558, 199.343 641.525, 200.777 644 C 204.798 650.939, 212.339 660.484, 212.772 659.183 C 212.986 658.542, 212.450 657.307, 211.580 656.437 C 209.770 654.627, 209.432 649, 211.133 649 C 212.658 649, 215.459 652.336, 219.713 659.221 C 221.674 662.394, 224.457 665.477, 225.961 666.143 C 228.782 667.392, 228.928 667.588, 232.963 675.606 C 237.429 684.479, 241.272 690, 242.982 690 C 244.905 690, 251.555 697.778, 250.519 698.815 C 250.143 699.190, 249.198 698.624, 248.418 697.557 C 247.638 696.491, 247 695.966, 247 696.391 C 247 697.652, 254.155 706, 255.235 706 C 255.782 706, 255.472 704.763, 254.545 703.250 C 253.529 701.592, 254.652 702.387, 257.372 705.250 C 259.854 707.862, 262.136 710, 262.442 710 C 263.740 710, 262.858 706.615, 261.250 705.428 C 259.807 704.361, 259.730 703.904, 260.809 702.817 C 261.891 701.729, 262.003 701.804, 261.452 703.250 C 261.034 704.349, 261.259 705, 262.058 705 C 262.758 705, 265.478 707.299, 268.102 710.110 C 271.871 714.145, 272.625 715.492, 271.687 716.516 C 270.719 717.574, 270.177 717.525, 268.750 716.252 C 267.788 715.393, 267 715.131, 267 715.671 C 267 716.927, 270.970 720.515, 273.250 721.320 C 274.212 721.659, 275 722.674, 275 723.575 C 275 724.475, 276.125 726.097, 277.500 727.179 C 278.875 728.260, 280 729.703, 280 730.384 C 280 731.065, 280.810 732.495, 281.800 733.561 C 282.790 734.628, 284.462 736.962, 285.516 738.750 C 286.569 740.538, 287.784 742, 288.216 742 C 288.647 742, 289 742.427, 289 742.950 C 289 743.472, 290.350 745.900, 292 748.345 C 293.650 750.790, 295 753.271, 295 753.860 C 295 754.448, 295.900 755.411, 297 756 C 298.100 756.589, 299 757.531, 299 758.094 C 299 758.657, 298.530 758.828, 297.956 758.473 C 297.382 758.118, 298.321 760.117, 300.042 762.914 C 301.763 765.711, 303.539 768, 303.988 768 C 304.437 768, 305.295 769.463, 305.894 771.250 L 306.984 774.500 304.019 771 C 302.388 769.075, 301.042 767.856, 301.027 768.292 C 301.012 768.728, 301.462 769.628, 302.027 770.292 C 302.591 770.956, 305.432 774.650, 308.339 778.500 C 311.246 782.350, 314.046 785.507, 314.562 785.515 C 316.369 785.545, 318 787.134, 318 788.865 C 318 789.825, 319.110 792.116, 320.467 793.955 C 321.824 795.794, 322.697 797.681, 322.408 798.149 C 322.119 798.617, 322.471 799.006, 323.191 799.012 C 323.911 799.019, 325.549 800.643, 326.830 802.621 C 328.112 804.599, 328.675 805.917, 328.080 805.550 C 326.174 804.371, 326.919 806.110, 329.973 809.966 C 331.609 812.031, 332.641 814.026, 332.267 814.400 C 331.893 814.774, 332.542 815.329, 333.709 815.634 C 334.889 815.943, 336.112 817.310, 336.464 818.713 C 336.813 820.101, 338.647 822.871, 340.540 824.868 C 342.434 826.866, 343.987 829.257, 343.991 830.183 C 343.996 831.108, 344.860 832.138, 345.911 832.472 C 348.181 833.192, 351.437 837.766, 351.474 840.286 C 351.488 841.269, 352.171 842.488, 352.991 842.995 C 353.811 843.502, 354.489 844.498, 354.496 845.208 C 354.514 846.846, 361.092 856, 362.252 856 C 362.728 856, 362.822 856.478, 362.461 857.063 C 362.100 857.648, 362.489 858.885, 363.327 859.813 C 364.768 861.409, 368.661 867.051, 381.050 885.500 C 384.005 889.900, 386.963 893.838, 387.623 894.250 C 388.283 894.663, 391.417 898.488, 394.587 902.750 C 397.757 907.013, 402.409 912.786, 404.925 915.580 C 407.441 918.374, 411.975 923.494, 415 926.957 C 423.378 936.548, 449.940 965.770, 454.055 969.922 C 455.460 971.340, 458.385 974.758, 460.555 977.518 C 464.643 982.719, 469.636 988.405, 474.061 992.899 C 475.470 994.329, 479.720 999.550, 483.506 1004.500 C 487.292 1009.450, 492.922 1016.425, 496.016 1020 C 502.976 1028.040, 517.206 1046.625, 518.985 1050 C 520.675 1053.204, 528.572 1063.480, 532.646 1067.776 C 534.377 1069.600, 537.072 1072.985, 538.635 1075.297 C 540.199 1077.608, 543.508 1081.616, 545.989 1084.203 C 548.470 1086.789, 550.288 1089.039, 550.030 1089.203 C 549.198 1089.729, 556.007 1098.933, 558.027 1100.015 C 559.101 1100.589, 560.715 1102.508, 561.614 1104.280 C 562.513 1106.051, 564.768 1109.376, 566.625 1111.668 C 568.481 1113.961, 570 1116.246, 570 1116.745 C 570 1117.245, 573.395 1121.162, 577.545 1125.448 C 581.695 1129.735, 584.859 1133.475, 584.575 1133.758 C 584.291 1134.042, 584.946 1135.520, 586.030 1137.041 C 587.113 1138.563, 588 1140.064, 588 1140.375 C 588 1140.686, 590.700 1144.531, 594 1148.920 C 597.300 1153.308, 600 1157.355, 600 1157.914 C 600 1158.473, 601.272 1160.409, 602.827 1162.215 C 605.428 1165.237, 611.105 1173.186, 613.500 1177.159 C 614.050 1178.072, 617.650 1183.410, 621.500 1189.021 C 625.350 1194.633, 629.579 1201.086, 630.898 1203.362 C 632.217 1205.638, 634.354 1208.772, 635.648 1210.327 C 636.942 1211.881, 638 1213.505, 638 1213.934 C 638 1214.363, 640.250 1217.724, 643 1221.403 C 645.750 1225.081, 648 1228.487, 648 1228.971 C 648 1229.455, 651.600 1234.588, 656 1240.378 C 660.400 1246.168, 664 1251.390, 664 1251.984 C 664 1252.577, 664.563 1253.281, 665.250 1253.548 C 665.938 1253.815, 669.334 1257.739, 672.799 1262.267 C 676.263 1266.795, 683.391 1276.125, 688.639 1283 C 693.886 1289.875, 699.208 1296.625, 700.464 1298 C 701.720 1299.375, 704.447 1302.975, 706.524 1306 C 708.601 1309.025, 711.695 1313.107, 713.400 1315.071 C 719.194 1321.744, 721 1324.014, 721 1324.620 C 721 1324.953, 722.144 1326.637, 723.542 1328.363 C 727.146 1332.809, 746.634 1359.565, 752 1367.433 C 754.475 1371.062, 757.625 1375.549, 759 1377.402 C 760.375 1379.256, 763.300 1383.332, 765.500 1386.459 C 767.700 1389.587, 773.840 1397.953, 779.143 1405.052 C 788.217 1417.196, 799.267 1432.911, 801.500 1436.847 C 802.050 1437.816, 807 1444.625, 812.500 1451.977 C 818 1459.329, 822.387 1465.717, 822.250 1466.172 C 822.112 1466.627, 822.503 1466.888, 823.117 1466.750 C 823.732 1466.613, 824.364 1467.266, 824.522 1468.202 C 824.680 1469.138, 826.808 1472.513, 829.251 1475.702 C 831.694 1478.891, 834.942 1483.490, 836.467 1485.921 C 837.993 1488.353, 840.126 1491.278, 841.208 1492.421 C 842.289 1493.565, 843.993 1496.087, 844.993 1498.026 C 845.993 1499.965, 848.879 1504.302, 851.406 1507.663 C 853.933 1511.024, 856 1514.034, 856 1514.352 C 856 1515.071, 859.704 1520.310, 867.614 1530.780 C 872.460 1537.193, 873.994 1538.626, 875.011 1537.686 C 876.031 1536.743, 876.157 1536.888, 875.624 1538.391 C 874.694 1541.019, 877.506 1545.096, 879.752 1544.374 C 881.239 1543.895, 881.276 1543.978, 880 1544.926 C 878.696 1545.895, 878.770 1546.269, 880.567 1547.782 C 882.526 1549.433, 893.362 1563.313, 895.500 1566.909 C 898.024 1571.156, 908.212 1584, 909.056 1584 C 909.575 1584, 910 1584.490, 910 1585.090 C 910 1585.689, 912.250 1588.704, 915 1591.789 C 917.750 1594.875, 920 1597.950, 920 1598.622 C 920 1599.295, 921.583 1600.367, 923.517 1601.006 C 925.451 1601.644, 928.703 1603.740, 930.743 1605.664 C 932.782 1607.588, 935.812 1609.817, 937.476 1610.617 C 945.419 1614.439, 946.191 1615.102, 945.571 1617.573 C 945.015 1619.789, 945.192 1619.912, 948.113 1619.327 C 950.384 1618.873, 951.490 1619.125, 952.112 1620.236 C 952.585 1621.081, 954.560 1622.070, 956.501 1622.434 C 958.441 1622.798, 961.300 1624.312, 962.854 1625.798 C 974.451 1636.892, 981.908 1642.594, 988.863 1645.689 L 994.226 1648.075 997.613 1644.587 C 999.476 1642.669, 1001 1640.852, 1001 1640.550 C 1001 1640.247, 1001.787 1639.146, 1002.750 1638.101 C 1008.807 1631.530, 1009.308 1630.809, 1008.267 1630.165 C 1007.664 1629.793, 1011.070 1627.567, 1015.836 1625.220 C 1020.601 1622.872, 1025.535 1620.157, 1026.799 1619.185 L 1029.098 1617.417 1023.929 1610.459 C 1021.086 1606.631, 1018.309 1602.938, 1017.757 1602.250 C 1017.206 1601.563, 1017.007 1601, 1017.314 1601 C 1017.621 1601, 1020.634 1604.569, 1024.009 1608.932 L 1030.145 1616.864 1034.335 1614.182 C 1039.611 1610.805, 1051 1599.344, 1051 1597.412 C 1051 1596.613, 1052.125 1594.178, 1053.500 1592 C 1054.875 1589.822, 1056 1587.774, 1056 1587.448 C 1056 1586.225, 1059.022 1583.895, 1059.902 1584.439 C 1061.305 1585.306, 1064 1583.960, 1064 1582.393 C 1064 1581.627, 1064.930 1580.070, 1066.067 1578.933 C 1067.710 1577.290, 1067.890 1576.572, 1066.944 1575.433 C 1065.964 1574.252, 1066.208 1574, 1068.334 1574 C 1069.752 1574, 1073.202 1572.650, 1076 1571 C 1078.798 1569.350, 1082.093 1568, 1083.322 1568 C 1084.550 1568, 1086.443 1567.392, 1087.527 1566.649 C 1088.612 1565.906, 1090.694 1565.009, 1092.154 1564.654 C 1093.613 1564.300, 1097.088 1562.208, 1099.874 1560.005 C 1102.661 1557.802, 1105.332 1556, 1105.810 1556 C 1106.288 1556, 1107.186 1554.887, 1107.805 1553.528 C 1108.425 1552.168, 1110.056 1550.773, 1111.430 1550.428 C 1112.804 1550.083, 1114.220 1548.833, 1114.577 1547.651 C 1114.933 1546.468, 1116.249 1544.375, 1117.500 1543 C 1118.751 1541.625, 1120.079 1539.495, 1120.449 1538.268 C 1121.087 1536.157, 1123.188 1534.878, 1130.750 1531.996 C 1132.537 1531.315, 1134 1530.234, 1134 1529.594 C 1134 1528.955, 1135.328 1527.647, 1136.952 1526.687 C 1138.576 1525.728, 1140.916 1523.494, 1142.154 1521.722 C 1143.391 1519.950, 1144.745 1518.259, 1145.163 1517.965 C 1146.012 1517.367, 1149.240 1510, 1148.653 1510 C 1147.527 1510, 1161.548 1496.768, 1164.039 1495.480 C 1165.667 1494.638, 1167 1493.487, 1167 1492.923 C 1167 1492.359, 1168.575 1491.240, 1170.500 1490.436 C 1172.458 1489.617, 1174 1488.259, 1174 1487.353 C 1174 1485.446, 1179.345 1480.543, 1179.833 1482.003 C 1180.587 1484.256, 1182.178 1482.847, 1181.579 1480.457 C 1180.953 1477.966, 1180.989 1477.947, 1183.378 1479.512 C 1185.021 1480.588, 1186.030 1480.760, 1186.476 1480.038 C 1186.840 1479.449, 1187.557 1479.226, 1188.069 1479.543 C 1189.422 1480.379, 1189.212 1477.612, 1187.817 1476.217 C 1185.294 1473.694, 1188.178 1473.796, 1190.815 1476.323 C 1192.352 1477.795, 1194.447 1479, 1195.471 1479 C 1196.495 1479, 1197.037 1478.704, 1196.675 1478.342 C 1196.313 1477.980, 1196.561 1477.029, 1197.226 1476.227 C 1198.208 1475.044, 1197.923 1474.331, 1195.708 1472.425 C 1194.208 1471.135, 1192.569 1468.997, 1192.066 1467.675 C 1191.104 1465.144, 1192.072 1463.904, 1202.250 1454.620 C 1204.313 1452.739, 1206 1450.678, 1206 1450.041 C 1206 1449.404, 1205.662 1449.090, 1205.250 1449.344 C 1204.838 1449.597, 1204.407 1448.520, 1204.294 1446.949 C 1204.009 1442.996, 1200.835 1437.102, 1194.169 1428.142 C 1191.051 1423.952, 1188.050 1419.586, 1187.500 1418.439 C 1186.950 1417.293, 1181.219 1409.413, 1174.764 1400.927 C 1168.309 1392.442, 1159.613 1381, 1155.439 1375.500 C 1141.501 1357.135, 1136.568 1350.879, 1133.021 1347.066 C 1131.084 1344.984, 1125.900 1339.305, 1121.500 1334.447 C 1117.100 1329.588, 1111.806 1323.911, 1109.735 1321.831 C 1107.664 1319.751, 1105.577 1317.025, 1105.097 1315.774 C 1104.428 1314.028, 1093.528 1299.036, 1085.268 1288.500 C 1084.837 1287.950, 1083.645 1286.150, 1082.618 1284.500 C 1079.035 1278.740, 1061.649 1256, 1060.828 1256 C 1060.373 1256, 1060 1255.373, 1060 1254.607 C 1060 1253.841, 1059.325 1252.955, 1058.500 1252.638 C 1057.675 1252.322, 1057 1251.600, 1057 1251.034 C 1057 1249.837, 1032.058 1216.925, 1028.695 1213.684 C 1027.448 1212.483, 1024.895 1209.475, 1023.022 1207 C 1021.149 1204.525, 1017.340 1199.975, 1014.558 1196.890 C 1011.776 1193.804, 1008.133 1189.754, 1006.463 1187.890 C 1000.191 1180.890, 993.269 1171.393, 992.257 1168.402 C 990.904 1164.398, 978.479 1148.287, 976.184 1147.558 C 975.216 1147.251, 972.445 1143.962, 970.026 1140.250 C 967.607 1136.537, 962.853 1129.900, 959.462 1125.500 C 956.070 1121.100, 951.993 1115.475, 950.401 1113 C 948.809 1110.525, 944.355 1104.121, 940.503 1098.768 C 936.652 1093.416, 930.125 1084.256, 926 1078.413 C 921.875 1072.570, 917.800 1067.024, 916.944 1066.088 C 914.012 1062.884, 908.499 1055.093, 904.500 1048.502 C 902.300 1044.876, 897.403 1037.822, 893.619 1032.826 C 889.834 1027.830, 885.784 1022.094, 884.619 1020.080 C 883.453 1018.066, 881.256 1014.636, 879.735 1012.459 C 878.214 1010.281, 875.401 1006.250, 873.483 1003.500 C 871.566 1000.750, 869.563 997.497, 869.032 996.272 C 868.501 995.046, 865.126 990.235, 861.533 985.580 C 857.940 980.925, 855 976.677, 855 976.141 C 855 975.605, 854.599 975.017, 854.109 974.833 C 852.807 974.346, 845.504 964.875, 843.618 961.229 C 842.728 959.508, 841.406 957.740, 840.681 957.300 C 839.382 956.513, 827.296 941.229, 817.499 927.984 C 814.748 924.266, 811.565 920.386, 810.424 919.362 C 807.926 917.118, 802.533 910.152, 798.530 904 C 796.920 901.525, 793.540 897.025, 791.019 894 C 784.644 886.350, 780.362 880.709, 779.895 879.345 C 779.187 877.275, 754.027 843.085, 732.545 815 C 726.024 806.475, 719.823 797.959, 718.764 796.076 C 717.705 794.192, 715.525 791.424, 713.919 789.925 C 712.314 788.425, 711 786.687, 711 786.063 C 711 785.438, 708.862 782.070, 706.250 778.578 C 703.638 775.087, 700.150 769.880, 698.500 767.009 C 696.850 764.138, 694 759.759, 692.167 757.277 C 690.334 754.795, 687.936 751.167, 686.839 749.213 C 685.741 747.259, 682.034 742.024, 678.601 737.580 C 675.167 733.136, 671.287 727.700, 669.979 725.500 C 667.458 721.260, 657.642 708.523, 654.951 706 C 654.071 705.175, 651.735 702.475, 649.760 700 C 647.784 697.525, 644.780 694.010, 643.084 692.188 C 641.388 690.367, 640 688.455, 640 687.941 C 640 687.426, 635.837 682.396, 630.750 676.762 C 625.663 671.128, 621.171 666.064, 620.769 665.509 C 617.772 661.374, 607.790 648.855, 605.867 646.820 C 604.565 645.442, 600.932 641.206, 597.793 637.407 C 588.097 625.671, 580.396 616.717, 575.511 611.500 C 572.936 608.750, 567.853 602.563, 564.214 597.750 C 560.576 592.938, 557.293 589, 556.920 589 C 556.547 589, 553.754 585.694, 550.713 581.654 C 547.673 577.614, 542.615 571.877, 539.474 568.904 C 536.333 565.932, 532.579 562.170, 531.132 560.545 C 529.684 558.919, 526.654 555.544, 524.398 553.045 C 518.983 547.045, 505 528.397, 505 527.174 C 505 526.646, 504.349 525.964, 503.552 525.658 C 502.756 525.353, 501.337 523.617, 500.398 521.801 C 499.459 519.986, 497.416 516.925, 495.858 515 C 494.300 513.075, 488.856 505.859, 483.762 498.964 C 467.163 476.498, 452.220 457.414, 448.617 454.076 C 447.178 452.742, 446 451.162, 446 450.565 C 446 449.967, 439.461 440.933, 431.469 430.489 C 423.477 420.045, 414.814 408.363, 412.219 404.529 C 409.623 400.695, 406.038 395.598, 404.250 393.203 C 402.462 390.807, 401 388.384, 401 387.817 C 401 387.251, 399.650 385.083, 398 383 C 396.350 380.917, 395 378.929, 395 378.582 C 395 378.235, 393.452 375.701, 391.559 372.949 C 389.666 370.198, 387.802 366.946, 387.415 365.724 C 387.029 364.501, 385.652 362.108, 384.356 360.406 C 383.060 358.704, 382 356.965, 382 356.541 C 382 356.117, 380.190 353.235, 377.977 350.135 C 370.406 339.530, 367.032 334.499, 365.481 331.500 C 364.628 329.850, 362.837 326.700, 361.502 324.500 C 360.167 322.300, 358.141 318.925, 357 317 C 351.757 308.156, 350.104 305.678, 344.250 297.893 C 340.813 293.321, 338 289, 338 288.291 C 338 287.581, 337.623 287, 337.163 287 C 336.703 287, 334.120 283.800, 331.423 279.889 C 328.726 275.977, 325.819 272.265, 324.962 271.639 C 324.105 271.012, 321.709 268.250, 319.637 265.500 C 315.994 260.663, 303.651 246.752, 297.487 240.538 C 295.831 238.867, 292.681 235.267, 290.487 232.538 C 288.294 229.809, 284.813 225.817, 282.750 223.668 C 280.688 221.518, 279 219.456, 279 219.085 C 279 218.014, 269.708 211.291, 267.500 210.764 C 266.400 210.502, 262.396 210.642, 258.601 211.075 M 163 288 C 163 288.550, 163.477 289, 164.059 289 C 164.641 289, 164.840 288.550, 164.500 288 C 164.160 287.450, 163.684 287, 163.441 287 C 163.198 287, 163 287.450, 163 288 M 69 356.217 C 69 356.978, 69.374 358.028, 69.831 358.550 C 70.289 359.072, 71.190 361.300, 71.834 363.500 C 72.479 365.700, 73.946 368.625, 75.096 370 C 76.777 372.011, 77.041 372.108, 76.447 370.500 C 76.040 369.400, 74.733 365.603, 73.541 362.063 C 71.557 356.166, 69 352.874, 69 356.217 M 68 361.500 C 68 362.325, 68.436 363, 68.969 363 C 69.501 363, 69.678 362.325, 69.362 361.500 C 69.045 360.675, 68.609 360, 68.393 360 C 68.177 360, 68 360.675, 68 361.500 M 132 360.882 C 132 361.432, 132.450 362.160, 133 362.500 C 133.550 362.840, 134 362.668, 134 362.118 C 134 361.568, 133.550 360.840, 133 360.500 C 132.450 360.160, 132 360.332, 132 360.882 M 43 363.726 C 43 364.216, 43.688 365.491, 44.529 366.559 C 46.010 368.439, 46.050 368.423, 45.779 366.078 C 45.522 363.844, 43 361.709, 43 363.726 M 115.831 365.623 C 119.325 370.302, 127.236 378.671, 126.112 376.500 C 125.543 375.400, 123.709 372.977, 122.038 371.114 C 120.367 369.252, 119 367.392, 119 366.980 C 119 366.567, 117.804 365.446, 116.342 364.488 L 113.683 362.746 115.831 365.623 M 55.368 376.927 C 56.158 381.072, 56.690 381.710, 58.145 380.255 C 58.961 379.439, 58.653 378.392, 56.987 376.321 L 54.716 373.500 55.368 376.927 M 217 374.882 C 217 375.432, 217.450 376.160, 218 376.500 C 218.550 376.840, 219 376.668, 219 376.118 C 219 375.568, 218.550 374.840, 218 374.500 C 217.450 374.160, 217 374.332, 217 374.882 M 143.500 395 C 143.840 395.550, 144.316 396, 144.559 396 C 144.802 396, 145 395.550, 145 395 C 145 394.450, 144.523 394, 143.941 394 C 143.359 394, 143.160 394.450, 143.500 395 M 169.500 397 C 170.495 398.100, 171.469 399, 171.663 399 C 171.858 399, 171.455 398.100, 170.768 397 C 170.081 395.900, 169.107 395, 168.604 395 C 168.102 395, 168.505 395.900, 169.500 397 M 146.072 397.250 C 146.152 398.634, 153.017 404.703, 152.971 403.348 C 152.938 402.398, 147.316 396, 146.514 396 C 146.231 396, 146.032 396.563, 146.072 397.250 M 154 405 C 154 405.550, 154.450 406, 155 406 C 155.550 406, 156 405.550, 156 405 C 156 404.450, 155.550 404, 155 404 C 154.450 404, 154 404.450, 154 405 M 201.020 405.524 C 201.716 406.362, 202.491 406.842, 202.743 406.591 C 203.436 405.897, 202.027 404, 200.819 404 C 200.155 404, 200.231 404.574, 201.020 405.524 M 180 406.711 C 180 407.285, 180.787 408.373, 181.750 409.128 C 183.369 410.397, 183.390 410.350, 182.033 408.500 C 181.226 407.400, 180.439 406.313, 180.283 406.083 C 180.127 405.854, 180 406.137, 180 406.711 M 160.715 412.017 C 161 413.108, 161.856 414, 162.617 414 C 164.623 414, 164.313 412.238, 162.098 411.053 C 160.480 410.187, 160.274 410.331, 160.715 412.017 M 156.262 415.690 C 157.192 416.620, 158.233 417.100, 158.576 416.757 C 159.561 415.773, 158.050 414, 156.227 414 C 154.700 414, 154.703 414.132, 156.262 415.690 M 137 416 C 137 416.550, 137.477 417, 138.059 417 C 138.641 417, 138.840 416.550, 138.500 416 C 138.160 415.450, 137.684 415, 137.441 415 C 137.198 415, 137 415.450, 137 416 M 113 418 C 113 418.550, 113.477 419, 114.059 419 C 114.641 419, 114.840 418.550, 114.500 418 C 114.160 417.450, 113.684 417, 113.441 417 C 113.198 417, 113 417.450, 113 418 M 141.020 420.476 C 140.231 421.426, 140.155 422, 140.819 422 C 142.027 422, 143.436 420.103, 142.743 419.409 C 142.491 419.158, 141.716 419.638, 141.020 420.476 M 192 420 C 192 420.550, 192.477 421, 193.059 421 C 193.641 421, 193.840 420.550, 193.500 420 C 193.160 419.450, 192.684 419, 192.441 419 C 192.198 419, 192 419.450, 192 420 M 170 420.893 C 170 421.384, 170.739 422.069, 171.641 422.416 C 173.014 422.943, 173.076 422.796, 172.019 421.523 C 170.579 419.788, 170 419.607, 170 420.893 M 43.500 424 C 43.840 424.550, 44.316 425, 44.559 425 C 44.802 425, 45 424.550, 45 424 C 45 423.450, 44.523 423, 43.941 423 C 43.359 423, 43.160 423.450, 43.500 424 M 174.188 426.063 C 174.428 426.784, 175.216 427.572, 175.938 427.813 C 176.688 428.063, 177.063 427.688, 176.813 426.938 C 176.572 426.216, 175.784 425.428, 175.063 425.188 C 174.313 424.938, 173.938 425.313, 174.188 426.063 M 168 428 C 168 428.550, 168.450 429, 169 429 C 169.550 429, 170 428.550, 170 428 C 170 427.450, 169.550 427, 169 427 C 168.450 427, 168 427.450, 168 428 M 57.496 430.007 C 57.153 430.561, 57.596 431.292, 58.480 431.631 C 60.394 432.365, 61.461 431.556, 60.541 430.067 C 59.711 428.723, 58.306 428.696, 57.496 430.007 M 172.600 432.261 C 173.879 434.512, 176.296 437, 177.202 437 C 178.376 437, 174.876 432.238, 173.198 431.554 C 172.377 431.219, 172.156 431.480, 172.600 432.261 M 227.500 435 C 227.840 435.550, 228.316 436, 228.559 436 C 228.802 436, 229 435.550, 229 435 C 229 434.450, 228.523 434, 227.941 434 C 227.359 434, 227.160 434.450, 227.500 435 M 208 439.378 C 208 439.585, 208.685 440.324, 209.523 441.019 C 210.796 442.076, 210.943 442.014, 210.416 440.641 C 209.878 439.240, 208 438.257, 208 439.378 M 188 440.596 C 188 441.713, 192.217 447.117, 192.707 446.627 C 193.346 445.987, 189.803 440, 188.784 440 C 188.353 440, 188 440.268, 188 440.596 M 183.752 444.592 C 183.439 445.098, 184.246 446.747, 185.544 448.256 C 188.014 451.127, 189 451.641, 189 450.056 C 189 448.452, 184.355 443.616, 183.752 444.592 M 214 445.723 C 214 446.981, 216.858 449.475, 217.530 448.803 C 217.795 448.538, 217.110 447.504, 216.006 446.506 C 214.903 445.507, 214 445.155, 214 445.723 M 194 446.698 C 194 448.037, 196.749 451.585, 197.332 450.998 C 197.605 450.724, 196.967 449.438, 195.914 448.139 C 194.861 446.841, 194 446.192, 194 446.698 M 178.192 453.091 C 178.741 454.757, 183 455.624, 183 454.070 C 183 453.481, 182.587 453, 182.082 453 C 181.577 453, 180.390 452.703, 179.445 452.341 C 178.239 451.878, 177.866 452.101, 178.192 453.091 M 191 453.882 C 191 454.432, 191.450 455.160, 192 455.500 C 192.550 455.840, 193 455.668, 193 455.118 C 193 454.568, 192.550 453.840, 192 453.500 C 191.450 453.160, 191 453.332, 191 453.882 M 246.500 459 C 246.840 459.550, 247.316 460, 247.559 460 C 247.802 460, 248 459.550, 248 459 C 248 458.450, 247.523 458, 246.941 458 C 246.359 458, 246.160 458.450, 246.500 459 M 192 470.845 C 192 472.076, 195.912 475.421, 196.575 474.758 C 197.425 473.908, 194.701 470, 193.259 470 C 192.567 470, 192 470.380, 192 470.845 M 187 471.941 C 187 472.459, 187.450 473.160, 188 473.500 C 188.550 473.840, 189 473.416, 189 472.559 C 189 471.702, 188.550 471, 188 471 C 187.450 471, 187 471.423, 187 471.941 M 306.500 474 C 306.840 474.550, 307.316 475, 307.559 475 C 307.802 475, 308 474.550, 308 474 C 308 473.450, 307.523 473, 306.941 473 C 306.359 473, 306.160 473.450, 306.500 474 M 210 477.882 C 210 478.432, 210.450 479.160, 211 479.500 C 211.550 479.840, 212 479.668, 212 479.118 C 212 478.568, 211.550 477.840, 211 477.500 C 210.450 477.160, 210 477.332, 210 477.882 M 351.022 487.583 C 351.010 488.179, 351.337 489.004, 351.750 489.417 C 352.163 489.829, 352.500 490.654, 352.500 491.250 C 352.500 491.846, 353.063 492.521, 353.750 492.750 C 354.438 492.979, 354.990 492.792, 354.978 492.333 C 354.943 491.039, 351.047 486.361, 351.022 487.583 M 361 501.865 C 361 503.129, 365.143 508.191, 365.711 507.622 C 366.348 506.986, 362.798 501, 361.784 501 C 361.353 501, 361 501.389, 361 501.865 M 375 519.882 C 375 520.432, 375.450 521.160, 376 521.500 C 376.550 521.840, 377 521.668, 377 521.118 C 377 520.568, 376.550 519.840, 376 519.500 C 375.450 519.160, 375 519.332, 375 519.882 M 255 521.711 C 255 522.285, 255.787 523.373, 256.750 524.128 C 258.369 525.397, 258.390 525.350, 257.033 523.500 C 256.226 522.400, 255.439 521.313, 255.283 521.083 C 255.127 520.854, 255 521.137, 255 521.711 M 215.149 530.988 C 216.364 532.631, 217.547 533.787, 217.777 533.556 C 218.335 532.998, 214.717 528.072, 213.720 528.031 C 213.291 528.014, 213.934 529.344, 215.149 530.988 M 276 529.755 C 276 530.305, 276.675 531.315, 277.500 532 C 278.337 532.694, 279 532.803, 279 532.245 C 279 531.695, 278.325 530.685, 277.500 530 C 276.663 529.306, 276 529.197, 276 529.755 M 256.964 532.836 C 257.623 534.120, 258.436 534.897, 258.771 534.562 C 259.107 534.227, 258.568 533.176, 257.574 532.226 C 255.846 530.576, 255.819 530.603, 256.964 532.836 M 283.568 539.500 C 286.403 543.217, 287.748 544.164, 286.052 541.250 C 284.428 538.458, 282.338 536, 281.589 536 C 281.209 536, 282.100 537.575, 283.568 539.500 M 313 538.059 C 313 538.641, 313.450 538.840, 314 538.500 C 314.550 538.160, 315 537.684, 315 537.441 C 315 537.198, 314.550 537, 314 537 C 313.450 537, 313 537.477, 313 538.059 M 263 541 C 263.589 542.100, 264.574 543, 265.190 543 C 265.806 543, 265.495 542.100, 264.500 541 C 263.505 539.900, 262.519 539, 262.310 539 C 262.101 539, 262.411 539.900, 263 541 M 249.910 541.832 C 250.450 542.840, 251.685 544.302, 252.656 545.082 C 253.909 546.088, 253.760 545.556, 252.143 543.250 C 249.674 539.729, 248.327 538.873, 249.910 541.832 M 260.100 541.705 C 260.829 542.917, 261.640 543.694, 261.903 543.431 C 262.166 543.168, 261.570 542.176, 260.579 541.226 C 258.857 539.577, 258.835 539.598, 260.100 541.705 M 338 559.059 C 338 559.641, 338.450 559.840, 339 559.500 C 339.550 559.160, 340 558.684, 340 558.441 C 340 558.198, 339.550 558, 339 558 C 338.450 558, 338 558.477, 338 559.059 M 284 562 C 284 562.550, 284.477 563, 285.059 563 C 285.641 563, 285.840 562.550, 285.500 562 C 285.160 561.450, 284.684 561, 284.441 561 C 284.198 561, 284 561.450, 284 562 M 407.500 563 C 407.160 563.550, 407.359 564, 407.941 564 C 408.523 564, 409 563.550, 409 563 C 409 562.450, 408.802 562, 408.559 562 C 408.316 562, 407.840 562.450, 407.500 563 M 341.500 564 C 341.160 564.550, 341.332 565, 341.882 565 C 342.432 565, 343.160 564.550, 343.500 564 C 343.840 563.450, 343.668 563, 343.118 563 C 342.568 563, 341.840 563.450, 341.500 564 M 240 564.845 C 240 565.310, 240.970 566.547, 242.155 567.595 L 244.310 569.500 242.540 566.750 C 240.715 563.914, 240 563.378, 240 564.845 M 346.500 566 C 346.160 566.550, 346.332 567, 346.882 567 C 347.432 567, 348.160 566.550, 348.500 566 C 348.840 565.450, 348.668 565, 348.118 565 C 347.568 565, 346.840 565.450, 346.500 566 M 232.543 567.931 C 232.226 568.443, 232.425 569.144, 232.984 569.490 C 233.543 569.835, 234 569.416, 234 568.559 C 234 566.802, 233.400 566.544, 232.543 567.931 M 339.500 575 C 339.840 575.550, 340.568 576, 341.118 576 C 341.668 576, 341.840 575.550, 341.500 575 C 341.160 574.450, 340.432 574, 339.882 574 C 339.332 574, 339.160 574.450, 339.500 575 M 181.015 582.028 C 181.612 583.143, 182.550 583.778, 183.099 583.439 C 183.743 583.041, 183.681 582.321, 182.926 581.411 C 181.155 579.277, 179.780 579.721, 181.015 582.028 M 263.510 581.016 C 263.856 581.575, 264.557 581.774, 265.069 581.457 C 266.456 580.600, 266.198 580, 264.441 580 C 263.584 580, 263.165 580.457, 263.510 581.016 M 421.500 582 C 422.495 583.100, 423.469 584, 423.663 584 C 423.858 584, 423.455 583.100, 422.768 582 C 422.081 580.900, 421.107 580, 420.604 580 C 420.102 580, 420.505 580.900, 421.500 582 M 249.703 584.402 C 250.691 585.723, 251.644 586.667, 251.819 586.499 C 252.345 585.998, 249.585 582, 248.713 582 C 248.269 582, 248.715 583.081, 249.703 584.402 M 222.548 602.250 C 223.290 604.697, 226.861 609, 228.150 609 C 228.590 609, 227.728 606.975, 226.233 604.500 C 223.335 599.703, 221.421 598.534, 222.548 602.250 M 333 607.755 C 333 608.305, 333.675 609.315, 334.500 610 C 335.337 610.694, 336 610.803, 336 610.245 C 336 609.695, 335.325 608.685, 334.500 608 C 333.663 607.306, 333 607.197, 333 607.755 M 202.457 611.500 C 203.858 613.700, 205.413 616.434, 205.911 617.575 C 206.410 618.717, 208.051 620.458, 209.557 621.446 L 212.297 623.241 209.026 618.686 C 207.227 616.181, 204.440 612.639, 202.832 610.816 L 199.910 607.500 202.457 611.500 M 271.381 609.235 C 271.728 610.340, 271.182 611.367, 269.877 612.066 C 268.750 612.669, 268.025 613.359, 268.266 613.599 C 268.506 613.839, 269.883 613.423, 271.326 612.675 C 273.759 611.412, 273.837 611.175, 272.393 609.407 C 271.057 607.770, 270.914 607.746, 271.381 609.235 M 319 610.882 C 319 611.432, 319.450 612.160, 320 612.500 C 320.550 612.840, 321 612.668, 321 612.118 C 321 611.568, 320.550 610.840, 320 610.500 C 319.450 610.160, 319 610.332, 319 610.882 M 231 613.929 C 231 614.439, 231.616 615.473, 232.368 616.225 C 233.121 616.978, 234.038 618.545, 234.407 619.707 C 234.776 620.870, 236.172 622.538, 237.509 623.414 C 239.775 624.899, 239.897 624.888, 239.304 623.253 C 238.954 622.289, 237.316 619.587, 235.664 617.250 C 232.801 613.198, 231 611.916, 231 613.929 M 266.515 616.281 C 267.481 617.811, 268.522 618.811, 268.830 618.503 C 269.137 618.196, 268.347 616.944, 267.074 615.722 L 264.759 613.500 266.515 616.281 M 273 617 C 273 617.550, 273.450 618, 274 618 C 274.550 618, 275 617.550, 275 617 C 275 616.450, 274.550 616, 274 616 C 273.450 616, 273 616.450, 273 617 M 323 616.378 C 323 616.585, 323.788 617.373, 324.750 618.128 C 326.336 619.371, 326.371 619.336, 325.128 617.750 C 323.821 616.084, 323 615.555, 323 616.378 M 229 618 C 229 618.550, 229.477 619, 230.059 619 C 230.641 619, 230.840 618.550, 230.500 618 C 230.160 617.450, 229.684 617, 229.441 617 C 229.198 617, 229 617.450, 229 618 M 291 621.878 C 291 622.360, 291.675 623.315, 292.500 624 C 293.753 625.040, 294 624.896, 294 623.122 C 294 621.902, 293.362 621, 292.500 621 C 291.675 621, 291 621.395, 291 621.878 M 285 624.882 C 285 625.432, 285.450 626.160, 286 626.500 C 286.550 626.840, 287 626.668, 287 626.118 C 287 625.568, 286.550 624.840, 286 624.500 C 285.450 624.160, 285 624.332, 285 624.882 M 367.120 641 C 368.888 643.200, 370.514 645, 370.732 645 C 371.503 645, 365.489 637.042, 364.703 637.021 C 364.264 637.010, 365.352 638.800, 367.120 641 M 240 644 C 240 644.550, 240.477 645, 241.059 645 C 241.641 645, 241.840 644.550, 241.500 644 C 241.160 643.450, 240.684 643, 240.441 643 C 240.198 643, 240 643.450, 240 644 M 235 644.881 C 235 646.237, 240.816 652.489, 241.476 651.843 C 242.605 650.738, 239.210 645.288, 237.040 644.721 C 235.918 644.427, 235 644.500, 235 644.881 M 225 646.378 C 225 647.135, 225.668 648.310, 226.485 648.987 C 227.301 649.665, 228.989 652.268, 230.235 654.772 C 231.481 657.276, 234.347 661.389, 236.604 663.912 C 238.862 666.436, 241.446 669.934, 242.347 671.687 C 244.015 674.930, 245.753 676.580, 246.606 675.728 C 246.865 675.468, 245.485 673.169, 243.539 670.619 C 241.593 668.069, 240 665.720, 240 665.399 C 240 665.078, 237.070 660.357, 233.488 654.908 C 227.346 645.562, 225 643.205, 225 646.378 M 248.708 646.625 C 247.928 647.405, 249.003 650, 250.107 650 C 251.250 650, 251.275 647.288, 250.139 646.586 C 249.666 646.294, 249.022 646.311, 248.708 646.625 M 313 649.845 C 313 650.310, 313.900 651.505, 315 652.500 C 317.348 654.625, 317.736 652.879, 315.429 650.571 C 313.661 648.804, 313 648.606, 313 649.845 M 297.964 652.836 C 298.623 654.120, 299.436 654.897, 299.771 654.562 C 300.107 654.227, 299.568 653.176, 298.574 652.226 C 296.846 650.576, 296.819 650.603, 297.964 652.836 M 485.500 653 C 485.840 653.550, 486.316 654, 486.559 654 C 486.802 654, 487 653.550, 487 653 C 487 652.450, 486.523 652, 485.941 652 C 485.359 652, 485.160 652.450, 485.500 653 M 242 653.941 C 242 654.459, 242.450 655.160, 243 655.500 C 243.550 655.840, 244 655.416, 244 654.559 C 244 653.702, 243.550 653, 243 653 C 242.450 653, 242 653.423, 242 653.941 M 305.033 654.694 C 305.079 655.803, 308.957 660.377, 309.440 659.892 C 309.654 659.676, 308.743 658.237, 307.415 656.694 C 306.087 655.151, 305.015 654.251, 305.033 654.694 M 329 655.378 C 329 655.585, 329.788 656.373, 330.750 657.128 C 332.336 658.371, 332.371 658.336, 331.128 656.750 C 329.821 655.084, 329 654.555, 329 655.378 M 385 655.755 C 385 656.305, 385.675 657.315, 386.500 658 C 387.337 658.694, 388 658.803, 388 658.245 C 388 657.695, 387.325 656.685, 386.500 656 C 385.663 655.306, 385 655.197, 385 655.755 M 245 657.755 C 245 658.305, 245.675 659.315, 246.500 660 C 247.337 660.694, 248 660.803, 248 660.245 C 248 659.695, 247.325 658.685, 246.500 658 C 245.663 657.306, 245 657.197, 245 657.755 M 321.500 658 C 321.840 658.550, 322.316 659, 322.559 659 C 322.802 659, 323 658.550, 323 658 C 323 657.450, 322.523 657, 321.941 657 C 321.359 657, 321.160 657.450, 321.500 658 M 356 658 C 356 658.550, 356.450 659, 357 659 C 357.550 659, 358 658.550, 358 658 C 358 657.450, 357.550 657, 357 657 C 356.450 657, 356 657.450, 356 658 M 374.500 658 C 374.840 658.550, 375.316 659, 375.559 659 C 375.802 659, 376 658.550, 376 658 C 376 657.450, 375.523 657, 374.941 657 C 374.359 657, 374.160 657.450, 374.500 658 M 377.964 661.836 C 378.623 663.120, 379.436 663.897, 379.771 663.562 C 380.107 663.227, 379.568 662.176, 378.574 661.226 C 376.846 659.576, 376.819 659.603, 377.964 661.836 M 361.563 664.245 C 363.178 666.030, 364.613 667.680, 364.750 667.912 C 364.887 668.144, 365.262 668.071, 365.583 667.751 C 366.317 667.017, 361.027 661, 359.648 661 C 359.086 661, 359.948 662.460, 361.563 664.245 M 455 663.882 C 455 664.432, 455.450 665.160, 456 665.500 C 456.550 665.840, 457 665.668, 457 665.118 C 457 664.568, 456.550 663.840, 456 663.500 C 455.450 663.160, 455 663.332, 455 663.882 M 359 665.441 C 359 666.298, 359.450 667, 360 667 C 360.550 667, 361 666.577, 361 666.059 C 361 665.541, 360.550 664.840, 360 664.500 C 359.450 664.160, 359 664.584, 359 665.441 M 230 665.750 C 230 666.227, 230.653 667.491, 231.450 668.559 C 232.849 670.432, 232.880 670.420, 232.330 668.234 C 231.761 665.977, 230 664.099, 230 665.750 M 329.250 667.662 C 327.867 668.220, 327.531 670, 328.809 670 C 329.254 670, 330.491 669.339, 331.559 668.532 C 333.005 667.438, 333.118 667.076, 332 667.111 C 331.175 667.137, 329.938 667.385, 329.250 667.662 M 310.500 669 C 310.840 669.550, 311.316 670, 311.559 670 C 311.802 670, 312 669.550, 312 669 C 312 668.450, 311.523 668, 310.941 668 C 310.359 668, 310.160 668.450, 310.500 669 M 335.396 672.155 C 336.515 673.753, 336.638 674.808, 335.871 676.240 C 335.303 677.302, 335.137 678.470, 335.502 678.836 C 336.210 679.543, 342 679.777, 342 679.098 C 342 678.199, 335.441 670.060, 334.693 670.031 C 334.250 670.014, 334.566 670.970, 335.396 672.155 M 354 671 C 354 671.550, 354.477 672, 355.059 672 C 355.641 672, 355.840 671.550, 355.500 671 C 355.160 670.450, 354.684 670, 354.441 670 C 354.198 670, 354 670.450, 354 671 M 385 670.882 C 385 671.432, 385.450 672.160, 386 672.500 C 386.550 672.840, 387 672.668, 387 672.118 C 387 671.568, 386.550 670.840, 386 670.500 C 385.450 670.160, 385 670.332, 385 670.882 M 313.638 672.500 C 313.955 673.325, 314.671 674, 315.229 674 C 315.815 674, 315.718 673.365, 315 672.500 C 314.315 671.675, 313.599 671, 313.409 671 C 313.219 671, 313.322 671.675, 313.638 672.500 M 330 671.755 C 330 672.305, 330.675 673.315, 331.500 674 C 332.337 674.694, 333 674.803, 333 674.245 C 333 673.695, 332.325 672.685, 331.500 672 C 330.663 671.306, 330 671.197, 330 671.755 M 620 673 C 620 673.550, 620.675 674, 621.500 674 C 622.325 674, 623 673.550, 623 673 C 623 672.450, 622.325 672, 621.500 672 C 620.675 672, 620 672.450, 620 673 M 322 675.671 C 322 676.948, 325.838 680.495, 326.502 679.831 C 326.772 679.562, 325.869 678.286, 324.496 676.996 C 323.123 675.707, 322 675.110, 322 675.671 M 358 675.893 C 358 676.384, 358.652 677.036, 359.449 677.342 C 360.418 677.714, 360.714 677.418, 360.342 676.449 C 359.735 674.867, 358 674.455, 358 675.893 M 328.027 681.538 C 328.042 682.067, 329.380 684.075, 331 686 C 332.620 687.925, 333.940 689.050, 333.932 688.500 C 333.925 687.950, 332.587 685.942, 330.959 684.038 C 329.332 682.134, 328.012 681.009, 328.027 681.538 M 252 682.794 C 252 683.323, 252.727 684.358, 253.615 685.096 C 255.013 686.256, 255.181 686.182, 254.865 684.551 C 254.489 682.607, 252 681.082, 252 682.794 M 323.229 683.188 C 323.447 683.841, 324.160 684.553, 324.813 684.771 C 325.544 685.015, 325.767 684.557, 325.394 683.584 C 324.696 681.766, 322.629 681.388, 323.229 683.188 M 504.970 684.944 C 505.543 686.014, 506.505 687.194, 507.109 687.567 C 507.713 687.941, 507.434 687.066, 506.489 685.623 C 504.487 682.568, 503.451 682.105, 504.970 684.944 M 269 687.878 C 269 688.360, 269.749 689.373, 270.664 690.128 C 272.172 691.372, 272.216 691.290, 271.129 689.250 C 269.889 686.923, 269 686.350, 269 687.878 M 327 687.819 C 327 689.027, 328.897 690.436, 329.591 689.743 C 329.842 689.491, 329.362 688.716, 328.524 688.020 C 327.574 687.231, 327 687.155, 327 687.819 M 382.020 688.524 C 382.716 689.362, 383.491 689.842, 383.743 689.591 C 384.436 688.897, 383.027 687, 381.819 687 C 381.155 687, 381.231 687.574, 382.020 688.524 M 399 688 C 399 688.550, 399.477 689, 400.059 689 C 400.641 689, 400.840 688.550, 400.500 688 C 400.160 687.450, 399.684 687, 399.441 687 C 399.198 687, 399 687.450, 399 688 M 436 689.878 C 436 690.360, 436.749 691.373, 437.664 692.128 C 439.172 693.372, 439.216 693.290, 438.129 691.250 C 436.889 688.923, 436 688.350, 436 689.878 M 268.036 691.698 C 268.094 692.987, 272.990 698.612, 272.995 697.396 C 272.998 696.789, 271.875 695.078, 270.500 693.595 C 269.125 692.111, 268.016 691.258, 268.036 691.698 M 272.500 693 C 272.840 693.550, 273.316 694, 273.559 694 C 273.802 694, 274 693.550, 274 693 C 274 692.450, 273.523 692, 272.941 692 C 272.359 692, 272.160 692.450, 272.500 693 M 373.860 695.694 C 375.135 698.125, 377 699.622, 377 698.214 C 377 697.717, 376.035 696.453, 374.854 695.405 C 372.724 693.513, 372.717 693.515, 373.860 695.694 M 275.500 696 C 275.160 696.550, 275.359 697, 275.941 697 C 276.523 697, 277 696.550, 277 696 C 277 695.450, 276.802 695, 276.559 695 C 276.316 695, 275.840 695.450, 275.500 696 M 316.506 697.006 C 317.504 698.110, 318.538 698.795, 318.803 698.530 C 319.475 697.858, 316.981 695, 315.723 695 C 315.155 695, 315.507 695.903, 316.506 697.006 M 390.041 698.500 C 390.058 699.050, 391.179 700.850, 392.531 702.500 C 393.883 704.150, 394.976 705.050, 394.959 704.500 C 394.942 703.950, 393.821 702.150, 392.469 700.500 C 391.117 698.850, 390.024 697.950, 390.041 698.500 M 443 699.882 C 443 700.432, 443.450 701.160, 444 701.500 C 444.550 701.840, 445 701.668, 445 701.118 C 445 700.568, 444.550 699.840, 444 699.500 C 443.450 699.160, 443 699.332, 443 699.882 M 267 700.889 C 267 701.378, 267.895 702.841, 268.989 704.139 L 270.979 706.500 269.416 703.250 C 267.866 700.026, 267 699.180, 267 700.889 M 367 700.882 C 367 701.432, 367.450 702.160, 368 702.500 C 368.550 702.840, 369 702.668, 369 702.118 C 369 701.568, 368.550 700.840, 368 700.500 C 367.450 700.160, 367 700.332, 367 700.882 M 281.500 703 C 281.840 703.550, 282.316 704, 282.559 704 C 282.802 704, 283 703.550, 283 703 C 283 702.450, 282.523 702, 281.941 702 C 281.359 702, 281.160 702.450, 281.500 703 M 321 702.882 C 321 703.432, 321.450 704.160, 322 704.500 C 322.550 704.840, 323 704.668, 323 704.118 C 323 703.568, 322.550 702.840, 322 702.500 C 321.450 702.160, 321 702.332, 321 702.882 M 278.188 705.063 C 278.428 705.784, 279.216 706.572, 279.938 706.813 C 280.688 707.063, 281.063 706.688, 280.813 705.938 C 280.572 705.216, 279.784 704.428, 279.063 704.188 C 278.313 703.938, 277.938 704.313, 278.188 705.063 M 357.037 704.500 C 357.022 705.050, 358.117 706.850, 359.469 708.500 C 360.821 710.150, 361.944 710.963, 361.964 710.306 C 361.984 709.649, 360.889 707.849, 359.532 706.306 C 358.174 704.763, 357.051 703.950, 357.037 704.500 M 362.036 704.673 C 362.101 706.172, 366.897 711.436, 367.578 710.756 C 367.944 710.389, 366.839 708.685, 365.122 706.968 C 363.405 705.251, 362.016 704.218, 362.036 704.673 M 324.910 707.832 C 325.450 708.840, 326.685 710.302, 327.656 711.082 C 328.909 712.088, 328.760 711.556, 327.143 709.250 C 324.674 705.729, 323.327 704.873, 324.910 707.832 M 420 706.882 C 420 707.432, 420.450 708.160, 421 708.500 C 421.550 708.840, 422 708.668, 422 708.118 C 422 707.568, 421.550 706.840, 421 706.500 C 420.450 706.160, 420 706.332, 420 706.882 M 449.638 708.500 C 449.955 709.325, 450.671 710, 451.229 710 C 451.815 710, 451.718 709.365, 451 708.500 C 450.315 707.675, 449.599 707, 449.409 707 C 449.219 707, 449.322 707.675, 449.638 708.500 M 273.777 710.935 C 274.239 714.081, 276.857 715.849, 278.094 713.848 C 278.681 712.898, 279.196 712.918, 280.424 713.937 C 282.366 715.548, 282.433 714.156, 280.535 711.650 C 279.764 710.632, 278.625 710.114, 278.004 710.498 C 277.382 710.882, 276.080 710.478, 275.110 709.600 C 273.459 708.105, 273.374 708.190, 273.777 710.935 M 264.710 712 C 264.998 713.100, 265.968 713.964, 266.867 713.921 C 267.903 713.871, 268.043 713.658, 267.250 713.338 C 266.563 713.060, 266 712.196, 266 711.417 C 266 710.638, 265.592 710, 265.094 710 C 264.595 710, 264.423 710.900, 264.710 712 M 363 712.882 C 363 713.432, 363.450 714.160, 364 714.500 C 364.550 714.840, 365 714.668, 365 714.118 C 365 713.568, 364.550 712.840, 364 712.500 C 363.450 712.160, 363 712.332, 363 712.882 M 492 713 C 492 713.550, 492.477 714, 493.059 714 C 493.641 714, 493.840 713.550, 493.500 713 C 493.160 712.450, 492.684 712, 492.441 712 C 492.198 712, 492 712.450, 492 713 M 291.551 715.272 C 292.088 716.672, 296 719.401, 296 718.376 C 296 717.760, 292.028 714, 291.378 714 C 291.205 714, 291.282 714.572, 291.551 715.272 M 289 716.326 C 289 717.055, 290.170 718.742, 291.601 720.076 L 294.202 722.500 292.002 718.750 C 289.651 714.742, 289 714.216, 289 716.326 M 456.500 717 C 456.840 717.550, 457.316 718, 457.559 718 C 457.802 718, 458 717.550, 458 717 C 458 716.450, 457.523 716, 456.941 716 C 456.359 716, 456.160 716.450, 456.500 717 M 421 717.711 C 421 718.285, 421.788 719.373, 422.750 720.128 C 424.369 721.397, 424.390 721.350, 423.033 719.500 C 422.226 718.400, 421.439 717.313, 421.283 717.083 C 421.127 716.854, 421 717.137, 421 717.711 M 273.607 719 C 274.293 720.313, 278.756 726.329, 283.620 732.500 C 284.488 733.600, 286.390 736.267, 287.849 738.427 C 289.915 741.488, 290.577 741.955, 290.848 740.547 C 291.040 739.553, 290.775 738.461, 290.259 738.120 C 289.742 737.779, 288.011 735.700, 286.410 733.500 C 281.376 726.581, 272.044 716.013, 273.607 719 M 352 719 C 352 719.550, 352.423 720, 352.941 720 C 353.459 720, 354.160 719.550, 354.500 719 C 354.840 718.450, 354.416 718, 353.559 718 C 352.702 718, 352 718.450, 352 719 M 282 720.306 C 282 721.103, 282.675 722.315, 283.500 723 C 284.634 723.941, 285 723.954, 285 723.051 C 285 722.394, 284.325 721.182, 283.500 720.357 C 282.214 719.071, 282 719.063, 282 720.306 M 285 719.885 C 285 720.372, 286.155 721.527, 287.567 722.452 L 290.134 724.134 288.452 721.567 C 286.793 719.035, 285 718.161, 285 719.885 M 334 720 C 334 720.550, 334.477 721, 335.059 721 C 335.641 721, 335.840 720.550, 335.500 720 C 335.160 719.450, 334.684 719, 334.441 719 C 334.198 719, 334 719.450, 334 720 M 394.667 722.827 C 395.675 724.657, 397.136 726.682, 397.914 727.327 C 399.102 728.313, 399.147 728.181, 398.192 726.500 C 397.568 725.400, 396.107 723.375, 394.945 722 L 392.833 719.500 394.667 722.827 M 425 722.711 C 425 723.285, 425.788 724.373, 426.750 725.128 C 428.369 726.397, 428.390 726.350, 427.033 724.500 C 426.226 723.400, 425.439 722.313, 425.283 722.083 C 425.127 721.854, 425 722.137, 425 722.711 M 351 724 C 351 724.550, 351.477 725, 352.059 725 C 352.641 725, 352.840 724.550, 352.500 724 C 352.160 723.450, 351.684 723, 351.441 723 C 351.198 723, 351 723.450, 351 724 M 408.500 725 C 408.840 725.550, 409.316 726, 409.559 726 C 409.802 726, 410 725.550, 410 725 C 410 724.450, 409.523 724, 408.941 724 C 408.359 724, 408.160 724.450, 408.500 725 M 464.437 727.329 C 465.977 729.348, 467.440 731, 467.687 731 C 468.381 731, 464.052 725.150, 462.772 724.359 C 462.148 723.973, 462.897 725.310, 464.437 727.329 M 378 725.711 C 378 726.285, 378.788 727.373, 379.750 728.128 C 381.369 729.397, 381.390 729.350, 380.033 727.500 C 379.226 726.400, 378.439 725.313, 378.283 725.083 C 378.127 724.854, 378 725.137, 378 725.711 M 340 726.735 C 340 728.070, 346.280 736, 347.336 736 C 348.255 736, 346.481 733.342, 344.334 731.500 C 343.693 730.950, 343.018 729.637, 342.834 728.583 C 342.500 726.665, 340 725.035, 340 726.735 M 292.042 727.741 C 292.019 728.424, 293.575 731.046, 295.500 733.568 C 298.011 736.858, 299 737.614, 299 736.243 C 299 734.150, 292.109 725.730, 292.042 727.741 M 429 728.882 C 429 729.432, 429.450 730.160, 430 730.500 C 430.550 730.840, 431 730.668, 431 730.118 C 431 729.568, 430.550 728.840, 430 728.500 C 429.450 728.160, 429 728.332, 429 728.882 M 289.054 729.500 C 289.067 730.823, 291.856 734.478, 292.421 733.912 C 292.664 733.669, 292.004 732.352, 290.954 730.985 C 289.904 729.618, 289.049 728.950, 289.054 729.500 M 400 730.378 C 400 730.585, 400.788 731.373, 401.750 732.128 C 403.336 733.371, 403.371 733.336, 402.128 731.750 C 400.821 730.084, 400 729.555, 400 730.378 M 305 737.917 C 305 738.513, 305.367 739, 305.816 739 C 306.265 739, 307.639 740.792, 308.870 742.983 C 312.146 748.812, 313.803 750.260, 315.452 748.736 C 317.039 747.270, 316.494 745.873, 314.616 746.594 C 313.399 747.061, 311.003 744.307, 308.512 739.579 C 307.363 737.398, 305 736.280, 305 737.917 M 387 738.441 C 387 739.298, 387.450 740, 388 740 C 388.550 740, 389 739.577, 389 739.059 C 389 738.541, 388.550 737.840, 388 737.500 C 387.450 737.160, 387 737.584, 387 738.441 M 473.808 739.641 C 474.362 740.676, 475.842 742.417, 477.096 743.511 L 479.378 745.500 477.143 742.280 C 474.537 738.527, 472.238 736.708, 473.808 739.641 M 514 738.882 C 514 739.432, 514.450 740.160, 515 740.500 C 515.550 740.840, 516 740.668, 516 740.118 C 516 739.568, 515.550 738.840, 515 738.500 C 514.450 738.160, 514 738.332, 514 738.882 M 301.639 739.694 C 300.513 740.820, 300.954 742, 302.500 742 C 303.325 742, 304 741.577, 304 741.059 C 304 739.798, 302.438 738.895, 301.639 739.694 M 518 743.690 C 518 744.240, 518.900 745.505, 520 746.500 C 521.100 747.495, 522 747.860, 522 747.310 C 522 746.760, 521.100 745.495, 520 744.500 C 518.900 743.505, 518 743.140, 518 743.690 M 304.700 745.333 C 305.140 746.067, 307.724 749.667, 310.443 753.333 C 314.842 759.267, 317 761.257, 317 759.382 C 317 758.152, 305.862 744, 304.894 744 C 304.333 744, 304.249 744.580, 304.700 745.333 M 371.072 744.500 C 371.072 745.050, 372.179 746.850, 373.531 748.500 C 374.883 750.150, 375.990 751.050, 375.990 750.500 C 375.990 749.950, 374.883 748.150, 373.531 746.500 C 372.179 744.850, 371.072 743.950, 371.072 744.500 M 294 745.577 C 294 745.895, 297.825 751.222, 302.500 757.415 C 307.175 763.608, 311 769.043, 311 769.493 C 311 769.943, 312.125 771.786, 313.500 773.589 C 314.875 775.392, 316 777.237, 316 777.690 C 316 778.143, 317.590 779.973, 319.534 781.757 C 321.477 783.541, 322.817 785, 322.511 785 C 321.540 785, 325.318 790.351, 329.218 794.500 C 331.286 796.700, 332.983 798.837, 332.989 799.250 C 332.995 799.663, 333.675 800, 334.500 800 C 335.325 800, 336 799.550, 336 799 C 336 798.450, 335.589 798, 335.086 798 C 334.284 798, 330.757 793.056, 326 785.262 C 325.175 783.910, 322.592 780.711, 320.261 778.152 C 317.929 775.593, 316.017 773.129, 316.011 772.675 C 315.996 771.577, 305.393 757.414, 301.279 753 C 299.485 751.075, 298.013 748.761, 298.009 747.857 C 298.004 746.953, 297.288 745.941, 296.418 745.607 C 294.449 744.851, 294 744.846, 294 745.577 M 302 746.921 C 302 747.563, 303.101 749.275, 304.446 750.726 C 305.792 752.177, 306.666 753.732, 306.387 754.182 C 306.109 754.632, 306.359 755, 306.941 755 C 308.334 755, 308.280 754.441, 306.566 751.128 C 304.840 747.789, 302 745.173, 302 746.921 M 481 747.882 C 481 748.432, 481.450 749.160, 482 749.500 C 482.550 749.840, 483 749.668, 483 749.118 C 483 748.568, 482.550 747.840, 482 747.500 C 481.450 747.160, 481 747.332, 481 747.882 M 539 749.378 C 539 749.585, 539.788 750.373, 540.750 751.128 C 542.336 752.371, 542.371 752.336, 541.128 750.750 C 539.821 749.084, 539 748.555, 539 749.378 M 453 750.819 C 453 752.027, 454.897 753.436, 455.591 752.743 C 455.842 752.491, 455.362 751.716, 454.524 751.020 C 453.574 750.231, 453 750.155, 453 750.819 M 514.149 752.988 C 515.364 754.631, 516.547 755.787, 516.777 755.556 C 517.335 754.998, 513.717 750.072, 512.720 750.031 C 512.291 750.014, 512.934 751.344, 514.149 752.988 M 316.634 752.513 C 315.989 754.192, 317.805 755.610, 319.004 754.363 C 319.460 753.888, 319.236 752.958, 318.506 752.295 C 317.464 751.347, 317.063 751.394, 316.634 752.513 M 418 753.690 C 418 754.240, 418.900 755.505, 420 756.500 C 421.100 757.495, 422 757.860, 422 757.310 C 422 756.760, 421.100 755.495, 420 754.500 C 418.900 753.505, 418 753.140, 418 753.690 M 450.919 755.500 C 452.471 758.464, 454.918 761.415, 455.413 760.921 C 455.651 760.682, 454.502 758.915, 452.859 756.994 C 451.216 755.072, 450.343 754.400, 450.919 755.500 M 310.032 759.128 C 310.014 760.023, 310.675 761.315, 311.500 762 C 313.423 763.596, 313.443 761.968, 311.532 759.441 C 310.298 757.810, 310.059 757.760, 310.032 759.128 M 323.598 761.868 C 325.151 764.270, 326.606 765.683, 326.831 765.007 C 327.056 764.332, 325.786 762.366, 324.008 760.639 L 320.775 757.500 323.598 761.868 M 423.022 759.750 C 423.034 760.163, 423.962 761.625, 425.082 763 L 427.120 765.500 425.535 762.250 C 424.028 759.162, 422.974 758.113, 423.022 759.750 M 520.461 760.957 C 522.639 763.364, 523.138 763.524, 522.391 761.577 C 522.091 760.795, 521.118 759.875, 520.229 759.534 C 518.901 759.025, 518.942 759.279, 520.461 760.957 M 321.468 768.507 C 323.918 772.086, 327.063 776.154, 328.457 777.548 C 329.851 778.942, 331.680 781.413, 332.521 783.041 C 333.363 784.668, 334.490 786, 335.026 786 C 335.562 786, 336 786.801, 336 787.779 C 336 788.758, 336.900 790.207, 338 791 C 339.100 791.793, 340 793.017, 340 793.721 C 340 794.424, 340.675 795, 341.500 795 C 342.325 795, 343 795.638, 343 796.418 C 343 797.636, 346.250 801.804, 352 807.961 C 352.825 808.844, 356.771 813.939, 360.769 819.283 C 366.984 827.592, 369.060 829.984, 368.985 828.750 C 368.922 827.732, 352.145 805.008, 347.663 799.871 C 346.391 798.413, 344.137 795.476, 334.785 783.095 C 333.291 781.118, 330.256 776.940, 328.039 773.812 C 325.823 770.684, 323.530 767.827, 322.943 767.465 C 322.357 767.102, 321.466 765.724, 320.963 764.403 C 320.461 763.081, 319.366 762, 318.531 762 C 317.475 762, 318.368 763.978, 321.468 768.507 M 386 765 C 386 765.550, 386.477 766, 387.059 766 C 387.641 766, 387.840 765.550, 387.500 765 C 387.160 764.450, 386.684 764, 386.441 764 C 386.198 764, 386 764.450, 386 765 M 315 766.794 C 315 767.323, 315.727 768.358, 316.615 769.096 C 318.013 770.256, 318.181 770.182, 317.865 768.551 C 317.489 766.607, 315 765.082, 315 766.794 M 329.592 769.500 C 330.493 770.875, 331.707 772, 332.289 772 C 332.872 772, 332.292 770.875, 331 769.500 C 329.708 768.125, 328.494 767, 328.303 767 C 328.111 767, 328.691 768.125, 329.592 769.500 M 385.020 769.476 C 384.231 770.426, 384.155 771, 384.819 771 C 386.027 771, 387.436 769.103, 386.743 768.409 C 386.491 768.158, 385.716 768.638, 385.020 769.476 M 319.647 771.523 C 320.161 772.862, 319.998 773.117, 319.015 772.510 C 318.134 771.965, 317.930 772.077, 318.405 772.845 C 319.238 774.194, 322 774.407, 322 773.122 C 322 772.640, 321.315 771.676, 320.477 770.981 C 319.190 769.913, 319.061 769.996, 319.647 771.523 M 324.650 780 C 325.473 781.650, 326.789 783, 327.573 783 C 329.403 783, 329.379 782.236, 327.491 780.348 C 326.661 779.518, 326.237 778.425, 326.550 777.919 C 326.862 777.414, 326.226 777, 325.136 777 C 323.267 777, 323.239 777.172, 324.650 780 M 439.870 780.694 C 441.076 783.015, 442.845 784.488, 443.563 783.771 C 443.799 783.535, 442.808 782.252, 441.360 780.921 C 438.851 778.613, 438.782 778.602, 439.870 780.694 M 553 787.500 C 554.292 788.875, 555.516 790, 555.721 790 C 556.552 790, 552.431 785.060, 551.576 785.031 C 551.067 785.014, 551.708 786.125, 553 787.500 M 514.703 790.469 C 517.060 793.706, 518.526 793.733, 516.408 790.500 C 515.507 789.125, 514.351 788, 513.838 788 C 513.326 788, 513.715 789.111, 514.703 790.469 M 428.564 792.293 C 428.940 793.279, 429.499 793.834, 429.807 793.526 C 430.115 793.219, 429.808 792.412, 429.124 791.733 C 428.136 790.753, 428.022 790.868, 428.564 792.293 M 335 792.849 C 335 794.529, 337.902 797.431, 338.742 796.591 C 339.098 796.236, 338.401 794.957, 337.194 793.750 C 335.864 792.419, 335 792.065, 335 792.849 M 559.500 795 C 559.840 795.550, 560.316 796, 560.559 796 C 560.802 796, 561 795.550, 561 795 C 561 794.450, 560.523 794, 559.941 794 C 559.359 794, 559.160 794.450, 559.500 795 M 441 796.882 C 441 797.432, 441.450 798.160, 442 798.500 C 442.550 798.840, 443 798.668, 443 798.118 C 443 797.568, 442.550 796.840, 442 796.500 C 441.450 796.160, 441 796.332, 441 796.882 M 564 800 C 565.175 801.650, 566.361 803, 566.636 803 C 566.911 803, 566.175 801.650, 565 800 C 563.825 798.350, 562.639 797, 562.364 797 C 562.089 797, 562.825 798.350, 564 800 M 522.606 800.152 C 523.648 801.611, 524.700 802.611, 524.944 802.374 C 525.189 802.138, 524.337 800.944, 523.050 799.722 L 520.712 797.500 522.606 800.152 M 410 801.626 C 410 802.131, 411.383 804.222, 413.073 806.272 C 416.085 809.927, 418 810.987, 418 809 C 418 808.450, 417.325 808, 416.500 808 C 415.675 808, 415 807.573, 415 807.052 C 415 806.530, 413.875 804.889, 412.500 803.405 C 411.125 801.922, 410 801.121, 410 801.626 M 336 802.878 C 336 803.360, 336.675 804.315, 337.500 805 C 338.325 805.685, 339.008 806.752, 339.017 807.372 C 339.027 807.993, 340.226 809.625, 341.682 811 L 344.328 813.500 343.619 810.500 C 343.229 808.850, 342.182 807.050, 341.293 806.500 C 340.403 805.950, 338.849 804.712, 337.838 803.750 C 336.827 802.788, 336 802.395, 336 802.878 M 343.583 802.866 C 343.152 803.563, 343.070 804.403, 343.400 804.733 C 344.295 805.628, 345.271 804.312, 344.787 802.862 C 344.449 801.846, 344.213 801.846, 343.583 802.866 M 570.041 806.576 C 570.064 807.084, 571.937 809.525, 574.204 812 C 577.844 815.975, 578.102 816.114, 576.413 813.190 C 574.342 809.607, 569.974 805.073, 570.041 806.576 M 334 808 C 334 808.550, 334.477 809, 335.059 809 C 335.641 809, 335.840 808.550, 335.500 808 C 335.160 807.450, 334.684 807, 334.441 807 C 334.198 807, 334 807.450, 334 808 M 535.069 814.500 C 535.066 815.770, 538.905 820.428, 539.481 819.853 C 539.718 819.616, 538.823 818.089, 537.492 816.461 C 536.161 814.832, 535.071 813.950, 535.069 814.500 M 579 817.542 C 579 817.840, 579.895 819.045, 580.989 820.219 C 583.515 822.930, 584.755 821.905, 582.349 819.095 C 580.654 817.115, 579 816.348, 579 817.542 M 603.564 820.293 C 603.940 821.279, 604.499 821.834, 604.807 821.526 C 605.115 821.219, 604.808 820.412, 604.124 819.733 C 603.136 818.753, 603.022 818.868, 603.564 820.293 M 351 822.290 C 351 822.450, 352.800 824.569, 355 827 C 357.200 829.431, 359 831.888, 359.001 832.460 C 359.001 833.032, 360.464 835.148, 362.251 837.162 C 364.038 839.177, 366.487 842.102, 367.694 843.662 C 369.113 845.496, 369.909 845.966, 369.944 844.990 C 369.975 844.159, 368.762 842.150, 367.250 840.524 C 365.738 838.899, 363.334 835.738, 361.909 833.500 C 357.535 826.632, 351 819.916, 351 822.290 M 623.149 824.988 C 624.364 826.631, 625.547 827.787, 625.777 827.556 C 626.335 826.998, 622.717 822.072, 621.720 822.031 C 621.291 822.014, 621.934 823.344, 623.149 824.988 M 588.622 827.750 C 590.747 830.362, 595.041 835.200, 598.163 838.500 C 601.286 841.800, 605.034 845.850, 606.491 847.500 C 608.015 849.225, 608.723 849.650, 608.155 848.500 C 606.852 845.856, 586.749 823.162, 585.630 823.071 C 585.151 823.032, 586.498 825.138, 588.622 827.750 M 544 824.845 C 544 825.310, 544.970 826.547, 546.155 827.595 L 548.310 829.500 546.540 826.750 C 544.715 823.914, 544 823.378, 544 824.845 M 576 826.819 C 576 828.027, 577.897 829.436, 578.591 828.743 C 578.842 828.491, 578.362 827.716, 577.524 827.020 C 576.574 826.231, 576 826.155, 576 826.819 M 608.500 827 C 608.840 827.550, 609.568 828, 610.118 828 C 610.668 828, 610.840 827.550, 610.500 827 C 610.160 826.450, 609.432 826, 608.882 826 C 608.332 826, 608.160 826.450, 608.500 827 M 508 827.378 C 508 827.585, 508.788 828.373, 509.750 829.128 C 511.336 830.371, 511.371 830.336, 510.128 828.750 C 508.821 827.084, 508 826.555, 508 827.378 M 581 827.378 C 581 827.585, 581.788 828.373, 582.750 829.128 C 584.336 830.371, 584.371 830.336, 583.128 828.750 C 581.821 827.084, 581 826.555, 581 827.378 M 580 830.755 C 580 831.305, 580.675 832.315, 581.500 833 C 582.337 833.694, 583 833.803, 583 833.245 C 583 832.695, 582.325 831.685, 581.500 831 C 580.663 830.306, 580 830.197, 580 830.755 M 436.500 836 C 437.495 837.100, 438.469 838, 438.663 838 C 438.858 838, 438.455 837.100, 437.768 836 C 437.081 834.900, 436.107 834, 435.604 834 C 435.102 834, 435.505 834.900, 436.500 836 M 616.188 836.063 C 616.428 836.784, 617.216 837.572, 617.938 837.813 C 618.688 838.063, 619.063 837.688, 618.813 836.938 C 618.572 836.216, 617.784 835.428, 617.063 835.188 C 616.313 834.938, 615.938 835.313, 616.188 836.063 M 511 840 C 511 840.550, 511.477 841, 512.059 841 C 512.641 841, 512.840 840.550, 512.500 840 C 512.160 839.450, 511.684 839, 511.441 839 C 511.198 839, 511 839.450, 511 840 M 371.500 842 C 371.840 842.550, 372.316 843, 372.559 843 C 372.802 843, 373 842.550, 373 842 C 373 841.450, 372.523 841, 371.941 841 C 371.359 841, 371.160 841.450, 371.500 842 M 441.782 842.582 C 442.392 843.727, 443.664 845.302, 444.609 846.082 C 446.173 847.372, 446.228 847.312, 445.218 845.418 C 444.608 844.273, 443.336 842.698, 442.391 841.918 C 440.827 840.628, 440.772 840.688, 441.782 842.582 M 558.578 841.874 C 558.269 842.373, 559.171 843.537, 560.582 844.462 C 563.074 846.094, 563.116 846.085, 562.068 844.127 C 560.717 841.603, 559.307 840.694, 558.578 841.874 M 529.020 843.524 C 529.716 844.362, 530.491 844.842, 530.743 844.591 C 531.436 843.897, 530.027 842, 528.819 842 C 528.155 842, 528.231 842.574, 529.020 843.524 M 590 842.378 C 590 842.585, 590.685 843.324, 591.523 844.019 C 592.796 845.076, 592.943 845.014, 592.416 843.641 C 591.878 842.240, 590 841.257, 590 842.378 M 623.964 843.836 C 624.623 845.120, 625.436 845.897, 625.771 845.562 C 626.107 845.227, 625.568 844.176, 624.574 843.226 C 622.846 841.576, 622.819 841.603, 623.964 843.836 M 577 849.882 C 577 850.432, 577.450 851.160, 578 851.500 C 578.550 851.840, 579 851.668, 579 851.118 C 579 850.568, 578.550 849.840, 578 849.500 C 577.450 849.160, 577 849.332, 577 849.882 M 631.592 852.500 C 632.493 853.875, 633.707 855, 634.289 855 C 634.872 855, 634.292 853.875, 633 852.500 C 631.708 851.125, 630.494 850, 630.303 850 C 630.111 850, 630.691 851.125, 631.592 852.500 M 510.982 853.063 C 508.879 854.692, 508.729 855.137, 510 855.977 C 512.156 857.404, 513.300 857.225, 512.662 855.562 C 512.306 854.635, 512.859 854.014, 514.220 853.812 C 515.994 853.550, 516.102 853.312, 514.897 852.320 C 513.770 851.392, 512.936 851.551, 510.982 853.063 M 375 852.378 C 375 852.585, 375.788 853.373, 376.750 854.128 C 378.336 855.371, 378.371 855.336, 377.128 853.750 C 375.821 852.084, 375 851.555, 375 852.378 M 451 854.826 C 451 855.280, 452.205 856.742, 453.678 858.076 L 456.355 860.500 454.109 857.250 C 451.843 853.970, 451 853.313, 451 854.826 M 614 855.755 C 614 856.305, 614.675 857.315, 615.500 858 C 616.337 858.694, 617 858.803, 617 858.245 C 617 857.695, 616.325 856.685, 615.500 856 C 614.663 855.306, 614 855.197, 614 855.755 M 529 859.755 C 529 860.305, 529.675 861.315, 530.500 862 C 531.337 862.694, 532 862.803, 532 862.245 C 532 861.695, 531.325 860.685, 530.500 860 C 529.663 859.306, 529 859.197, 529 859.755 M 640 861.882 C 640 862.432, 640.450 863.160, 641 863.500 C 641.550 863.840, 642 863.668, 642 863.118 C 642 862.568, 641.550 861.840, 641 861.500 C 640.450 861.160, 640 861.332, 640 861.882 M 495.058 862.500 C 495.039 863.909, 498.753 868.581, 499.387 867.946 C 499.676 867.658, 498.823 866.089, 497.492 864.461 C 496.161 862.832, 495.066 861.950, 495.058 862.500 M 540 862.882 C 540 863.432, 540.450 864.160, 541 864.500 C 541.550 864.840, 542 864.668, 542 864.118 C 542 863.568, 541.550 862.840, 541 862.500 C 540.450 862.160, 540 862.332, 540 862.882 M 578 862.882 C 578 863.432, 578.450 864.160, 579 864.500 C 579.550 864.840, 580 864.668, 580 864.118 C 580 863.568, 579.550 862.840, 579 862.500 C 578.450 862.160, 578 862.332, 578 862.882 M 384 863.755 C 384 864.305, 384.675 865.315, 385.500 866 C 386.337 866.694, 387 866.803, 387 866.245 C 387 865.695, 386.325 864.685, 385.500 864 C 384.663 863.306, 384 863.197, 384 863.755 M 461 867 C 462.742 869.200, 464.355 871, 464.584 871 C 465.717 871, 464.723 868.890, 462.277 866.103 C 458.308 861.580, 457.279 862.302, 461 867 M 622.232 865 C 622.919 866.100, 623.893 867, 624.396 867 C 624.898 867, 624.495 866.100, 623.500 865 C 622.505 863.900, 621.531 863, 621.337 863 C 621.142 863, 621.545 863.900, 622.232 865 M 609.500 865 C 609.840 865.550, 610.316 866, 610.559 866 C 610.802 866, 611 865.550, 611 865 C 611 864.450, 610.523 864, 609.941 864 C 609.359 864, 609.160 864.450, 609.500 865 M 534 865.800 C 534 866.852, 536.172 869, 537.235 869 C 537.695 869, 537.589 868.100, 537 867 C 535.943 865.025, 534 864.248, 534 865.800 M 514.158 871 C 515.378 872.650, 516.776 874, 517.264 874 C 518.327 874, 513.844 868.135, 512.720 868.055 C 512.291 868.025, 512.938 869.350, 514.158 871 M 584.703 870.469 C 587.060 873.706, 588.526 873.733, 586.408 870.500 C 585.507 869.125, 584.351 868, 583.838 868 C 583.326 868, 583.715 869.111, 584.703 870.469 M 608.405 870.858 C 610.443 873.150, 611 873.446, 611 872.241 C 611 871.823, 609.987 870.859, 608.750 870.099 C 606.508 868.722, 606.507 868.724, 608.405 870.858 M 502.638 871.500 C 502.955 872.325, 503.671 873, 504.229 873 C 504.815 873, 504.718 872.365, 504 871.500 C 503.315 870.675, 502.599 870, 502.409 870 C 502.219 870, 502.322 870.675, 502.638 871.500 M 467.861 874.033 C 469.159 875.115, 470.734 875.990, 471.361 875.978 C 471.987 875.966, 471.375 875.076, 470 874 C 466.732 871.444, 464.789 871.474, 467.861 874.033 M 576 872.878 C 576 874.181, 578.583 876.084, 579.333 875.333 C 580.084 874.583, 578.181 872, 576.878 872 C 576.395 872, 576 872.395, 576 872.878 M 541 874 C 541 874.550, 541.450 875, 542 875 C 542.550 875, 543 874.550, 543 874 C 543 873.450, 542.550 873, 542 873 C 541.450 873, 541 873.450, 541 874 M 496 874.819 C 496 876.027, 497.897 877.436, 498.591 876.743 C 498.842 876.491, 498.362 875.716, 497.524 875.020 C 496.574 874.231, 496 874.155, 496 874.819 M 506 875.499 C 506 875.773, 507.800 877.852, 510 880.119 C 514.801 885.067, 515.313 884.047, 510.687 878.750 C 507.721 875.353, 506 874.159, 506 875.499 M 528.500 877 C 528.840 877.550, 529.568 878, 530.118 878 C 530.668 878, 530.840 877.550, 530.500 877 C 530.160 876.450, 529.432 876, 528.882 876 C 528.332 876, 528.160 876.450, 528.500 877 M 520 877.378 C 520 877.585, 520.788 878.373, 521.750 879.128 C 523.336 880.371, 523.371 880.336, 522.128 878.750 C 520.821 877.084, 520 876.555, 520 877.378 M 499 879 C 499 879.550, 499.450 880, 500 880 C 500.550 880, 501 879.550, 501 879 C 501 878.450, 500.550 878, 500 878 C 499.450 878, 499 878.450, 499 879 M 582 879.441 C 582 880.942, 583.795 882.538, 584.590 881.743 C 585.288 881.046, 583.907 878, 582.893 878 C 582.402 878, 582 878.648, 582 879.441 M 594 880.819 C 594 882.027, 595.897 883.436, 596.591 882.743 C 596.842 882.491, 596.362 881.716, 595.524 881.020 C 594.574 880.231, 594 880.155, 594 880.819 M 634.500 883 C 634.840 883.550, 635.316 884, 635.559 884 C 635.802 884, 636 883.550, 636 883 C 636 882.450, 635.523 882, 634.941 882 C 634.359 882, 634.160 882.450, 634.500 883 M 478.500 886 C 479.495 887.100, 480.469 888, 480.663 888 C 480.858 888, 480.455 887.100, 479.768 886 C 479.081 884.900, 478.107 884, 477.604 884 C 477.102 884, 477.505 884.900, 478.500 886 M 484 885.374 C 484 885.580, 485.629 887.493, 487.620 889.624 C 489.611 891.756, 490.744 892.600, 490.137 891.500 C 488.052 887.719, 484 883.675, 484 885.374 M 568 885.845 C 568 886.310, 568.970 887.547, 570.155 888.595 L 572.310 890.500 570.540 887.750 C 568.715 884.914, 568 884.378, 568 885.845 M 588 887 C 588 887.550, 588.450 888, 589 888 C 589.550 888, 590 887.550, 590 887 C 590 886.450, 589.550 886, 589 886 C 588.450 886, 588 886.450, 588 887 M 678 887.651 C 678 888.201, 679.125 889.708, 680.500 891 C 681.875 892.292, 683 892.899, 683 892.349 C 683 891.799, 681.875 890.292, 680.500 889 C 679.125 887.708, 678 887.101, 678 887.651 M 613.964 891.836 C 614.623 893.120, 615.436 893.897, 615.771 893.562 C 616.107 893.227, 615.568 892.176, 614.574 891.226 C 612.846 889.576, 612.819 889.603, 613.964 891.836 M 577.500 892 C 577.840 892.550, 578.316 893, 578.559 893 C 578.802 893, 579 892.550, 579 892 C 579 891.450, 578.523 891, 577.941 891 C 577.359 891, 577.160 891.450, 577.500 892 M 523.506 895.006 C 524.504 896.110, 525.538 896.795, 525.803 896.530 C 526.475 895.858, 523.981 893, 522.723 893 C 522.155 893, 522.507 893.903, 523.506 895.006 M 513.500 895 C 513.840 895.550, 514.316 896, 514.559 896 C 514.802 896, 515 895.550, 515 895 C 515 894.450, 514.523 894, 513.941 894 C 513.359 894, 513.160 894.450, 513.500 895 M 617.500 896 C 617.840 896.550, 618.316 897, 618.559 897 C 618.802 897, 619 896.550, 619 896 C 619 895.450, 618.523 895, 617.941 895 C 617.359 895, 617.160 895.450, 617.500 896 M 650.500 899 C 650.840 899.550, 651.316 900, 651.559 900 C 651.802 900, 652 899.550, 652 899 C 652 898.450, 651.523 898, 650.941 898 C 650.359 898, 650.160 898.450, 650.500 899 M 634 899.845 C 634 900.310, 634.970 901.547, 636.155 902.595 L 638.310 904.500 636.540 901.750 C 634.715 898.914, 634 898.378, 634 899.845 M 533.232 905 C 533.919 906.100, 534.893 907, 535.396 907 C 535.898 907, 535.495 906.100, 534.500 905 C 533.505 903.900, 532.531 903, 532.337 903 C 532.142 903, 532.545 903.900, 533.232 905 M 542.194 915.717 C 545.358 920.710, 547.642 922.691, 548.846 921.488 C 549.153 921.180, 547.039 918.582, 544.146 915.714 L 538.888 910.500 542.194 915.717 M 552 911.882 C 552 912.432, 552.450 913.160, 553 913.500 C 553.550 913.840, 554 913.668, 554 913.118 C 554 912.568, 553.550 911.840, 553 911.500 C 552.450 911.160, 552 911.332, 552 911.882 M 578 914 C 578 914.550, 578.477 915, 579.059 915 C 579.641 915, 579.840 914.550, 579.500 914 C 579.160 913.450, 578.684 913, 578.441 913 C 578.198 913, 578 913.450, 578 914 M 572.232 918 C 572.919 919.100, 573.827 920, 574.249 920 C 574.671 920, 574.455 919.100, 573.768 918 C 573.081 916.900, 572.173 916, 571.751 916 C 571.329 916, 571.545 916.900, 572.232 918 M 538 922 C 538 922.550, 538.450 923, 539 923 C 539.550 923, 540 922.550, 540 922 C 540 921.450, 539.550 921, 539 921 C 538.450 921, 538 921.450, 538 922 M 561 921.819 C 561 923.027, 562.897 924.436, 563.591 923.743 C 563.842 923.491, 563.362 922.716, 562.524 922.020 C 561.574 921.231, 561 921.155, 561 921.819 M 500 922.378 C 500 922.585, 500.788 923.373, 501.750 924.128 C 503.336 925.371, 503.371 925.336, 502.128 923.750 C 500.821 922.084, 500 921.555, 500 922.378 M 541.500 925 C 541.840 925.550, 542.316 926, 542.559 926 C 542.802 926, 543 925.550, 543 925 C 543 924.450, 542.523 924, 541.941 924 C 541.359 924, 541.160 924.450, 541.500 925 M 565 926.617 C 565 926.956, 566.800 928.981, 569 931.116 C 573.837 935.810, 574.176 935.282, 569.750 929.951 C 566.746 926.332, 565 925.107, 565 926.617 M 638.857 932.750 C 640.111 934.538, 641.346 936, 641.603 936 C 642.468 936, 640.126 932.349, 638.344 930.918 C 637.091 929.912, 637.240 930.444, 638.857 932.750 M 587.032 933.559 C 587.014 934.141, 587.661 935.491, 588.468 936.559 C 589.276 937.626, 589.951 938.024, 589.968 937.441 C 589.986 936.859, 589.339 935.509, 588.532 934.441 C 587.724 933.374, 587.049 932.976, 587.032 933.559 M 513.665 936.733 C 513.370 937.210, 514.113 938.212, 515.315 938.961 C 517.381 940.247, 517.420 940.217, 516.033 938.411 C 515.226 937.360, 514.484 936.358, 514.383 936.183 C 514.283 936.009, 513.959 936.257, 513.665 936.733 M 575.027 937.538 C 575.042 938.067, 576.380 940.075, 578 942 C 579.620 943.925, 580.940 945.050, 580.932 944.500 C 580.925 943.950, 579.587 941.942, 577.959 940.038 C 576.332 938.134, 575.012 937.009, 575.027 937.538 M 617 938.878 C 617 939.360, 617.640 940.286, 618.421 940.935 C 619.588 941.903, 619.746 941.745, 619.305 940.057 C 618.779 938.047, 617 937.137, 617 938.878 M 715.783 953.500 C 716.933 955.683, 720.779 960, 721.574 960 C 722.563 960, 720.121 956.443, 717.456 954 C 715.221 951.951, 714.919 951.861, 715.783 953.500 M 580.032 957.504 C 579.989 958.859, 590.143 971.190, 590.779 970.555 C 591.055 970.279, 589.754 968.353, 587.889 966.276 C 586.023 964.199, 583.500 961.150, 582.280 959.500 C 581.061 957.850, 580.049 956.952, 580.032 957.504 M 603 960.941 C 603 961.459, 603.450 962.160, 604 962.500 C 604.550 962.840, 605 962.416, 605 961.559 C 605 960.702, 604.550 960, 604 960 C 603.450 960, 603 960.423, 603 960.941 M 641.860 969.694 C 643.135 972.125, 645 973.622, 645 972.214 C 645 971.717, 644.035 970.453, 642.854 969.405 C 640.724 967.513, 640.717 967.515, 641.860 969.694 M 565.564 970.293 C 565.940 971.279, 566.499 971.834, 566.807 971.526 C 567.115 971.219, 566.808 970.412, 566.124 969.733 C 565.136 968.753, 565.022 968.868, 565.564 970.293 M 693.703 973.402 C 694.691 974.723, 695.644 975.667, 695.819 975.499 C 696.345 974.998, 693.585 971, 692.713 971 C 692.269 971, 692.715 972.081, 693.703 973.402 M 697.906 978.824 C 698.513 979.959, 699.503 981.193, 700.105 981.565 C 700.889 982.050, 700.886 981.656, 700.094 980.176 C 699.487 979.041, 698.497 977.807, 697.895 977.435 C 697.111 976.950, 697.114 977.344, 697.906 978.824 M 494.500 984 C 494.840 984.550, 495.316 985, 495.559 985 C 495.802 985, 496 984.550, 496 984 C 496 983.450, 495.523 983, 494.941 983 C 494.359 983, 494.160 983.450, 494.500 984 M 575 983.882 C 575 984.432, 575.450 985.160, 576 985.500 C 576.550 985.840, 577 985.668, 577 985.118 C 577 984.568, 576.550 983.840, 576 983.500 C 575.450 983.160, 575 983.332, 575 983.882 M 491.022 986.128 C 491 987.741, 493.673 990.660, 494.456 989.878 C 494.680 989.653, 494.004 988.352, 492.954 986.985 C 491.531 985.133, 491.039 984.914, 491.022 986.128 M 626.500 992 C 626.840 992.550, 627.568 993, 628.118 993 C 628.668 993, 628.840 992.550, 628.500 992 C 628.160 991.450, 627.432 991, 626.882 991 C 626.332 991, 626.160 991.450, 626.500 992 M 660 991.878 C 660 992.360, 660.749 993.373, 661.664 994.128 C 663.172 995.372, 663.216 995.290, 662.129 993.250 C 660.889 990.923, 660 990.350, 660 991.878 M 746 992.173 C 746 992.504, 749.487 997.286, 753.750 1002.800 C 758.013 1008.314, 762.010 1013.652, 762.633 1014.663 C 763.256 1015.673, 763.989 1016.275, 764.261 1016 C 764.534 1015.725, 761.276 1010.855, 757.021 1005.178 C 749.388 994.995, 746 990.996, 746 992.173 M 639.500 1000 C 639.840 1000.550, 640.541 1001, 641.059 1001 C 641.577 1001, 642 1000.550, 642 1000 C 642 999.450, 641.298 999, 640.441 999 C 639.584 999, 639.160 999.450, 639.500 1000 M 615 1001.882 C 615 1002.432, 615.450 1003.160, 616 1003.500 C 616.550 1003.840, 617 1003.668, 617 1003.118 C 617 1002.568, 616.550 1001.840, 616 1001.500 C 615.450 1001.160, 615 1001.332, 615 1001.882 M 626 1016.347 C 626 1016.538, 626.934 1017.771, 628.076 1019.087 C 629.217 1020.403, 631.785 1023.622, 633.781 1026.240 C 635.778 1028.858, 637.780 1031, 638.231 1031 C 639.740 1031, 636.134 1025.318, 633.551 1023.625 C 632.148 1022.706, 631 1021.519, 631 1020.988 C 631 1019.766, 627.813 1016, 626.778 1016 C 626.350 1016, 626 1016.156, 626 1016.347 M 680 1017.606 C 680 1017.939, 681.125 1019.548, 682.500 1021.182 C 685.414 1024.645, 685.577 1024.464, 683.427 1020.154 C 682.050 1017.395, 680 1015.870, 680 1017.606 M 771.120 1027 C 774.251 1030.896, 775.873 1032.268, 774.373 1029.750 C 772.415 1026.463, 769.537 1023, 768.765 1023 C 768.292 1023, 769.352 1024.800, 771.120 1027 M 692.039 1034.171 C 694.165 1037.951, 696.718 1040.615, 697.482 1039.852 C 697.720 1039.613, 696.128 1037.412, 693.944 1034.959 C 689.979 1030.506, 689.977 1030.505, 692.039 1034.171 M 776 1033.348 C 776 1034.478, 782.346 1043.987, 782.799 1043.535 C 783.569 1042.764, 781.857 1039.417, 778.964 1036.038 C 777.334 1034.134, 776 1032.923, 776 1033.348 M 644.526 1039.645 C 646.218 1043.155, 649 1045.950, 649 1044.138 C 649 1043.530, 647.652 1041.562, 646.005 1039.766 L 643.010 1036.500 644.526 1039.645 M 761 1043.378 C 761 1043.585, 761.788 1044.373, 762.750 1045.128 C 764.336 1046.371, 764.371 1046.336, 763.128 1044.750 C 761.821 1043.084, 761 1042.555, 761 1043.378 M 650 1046.382 C 650 1047.207, 650.450 1048.160, 651 1048.500 C 651.550 1048.840, 652 1048.443, 652 1047.618 C 652 1046.793, 651.550 1045.840, 651 1045.500 C 650.450 1045.160, 650 1045.557, 650 1046.382 M 704 1050 C 704 1050.550, 704.477 1051, 705.059 1051 C 705.641 1051, 705.840 1050.550, 705.500 1050 C 705.160 1049.450, 704.684 1049, 704.441 1049 C 704.198 1049, 704 1049.450, 704 1050 M 653 1050.865 C 653 1052.098, 657.136 1057.198, 657.688 1056.646 C 658.395 1055.938, 655.077 1050, 653.974 1050 C 653.438 1050, 653 1050.389, 653 1050.865 M 707.789 1054.654 C 709.005 1056.389, 710 1058.111, 710 1058.480 C 710 1058.850, 711.947 1061.705, 714.326 1064.826 C 716.705 1067.947, 719.008 1071.400, 719.442 1072.500 C 719.877 1073.600, 720.413 1074.028, 720.633 1073.451 C 721.101 1072.223, 709.995 1055.049, 707.368 1052.938 C 706.015 1051.851, 706.118 1052.270, 707.789 1054.654 M 783.622 1053.530 C 784.730 1056.525, 787.126 1060, 788.085 1060 C 788.555 1060, 787.803 1058.324, 786.413 1056.276 C 783.220 1051.572, 782.714 1051.074, 783.622 1053.530 M 790 1053.941 C 790 1054.459, 790.445 1055.157, 790.989 1055.493 C 791.555 1055.843, 791.723 1055.442, 791.382 1054.552 C 790.717 1052.820, 790 1052.503, 790 1053.941 M 791.515 1065.281 C 792.481 1066.811, 793.522 1067.811, 793.830 1067.503 C 794.137 1067.196, 793.347 1065.944, 792.074 1064.722 L 789.759 1062.500 791.515 1065.281 M 800.079 1069.583 C 800.127 1070.748, 800.364 1070.985, 800.683 1070.188 C 800.972 1069.466, 800.936 1068.603, 800.604 1068.271 C 800.272 1067.939, 800.036 1068.529, 800.079 1069.583 M 660 1072 C 660 1072.550, 660.477 1073, 661.059 1073 C 661.641 1073, 661.840 1072.550, 661.500 1072 C 661.160 1071.450, 660.684 1071, 660.441 1071 C 660.198 1071, 660 1071.450, 660 1072 M 798.090 1075.250 C 799.877 1077.862, 801.504 1080, 801.705 1080 C 802.384 1080, 800.116 1076.519, 797.470 1073.500 C 795.480 1071.229, 795.630 1071.655, 798.090 1075.250 M 804 1074.941 C 804 1075.459, 804.445 1076.157, 804.989 1076.493 C 805.555 1076.843, 805.723 1076.442, 805.382 1075.552 C 804.717 1073.820, 804 1073.503, 804 1074.941 M 723.500 1078 C 723.840 1078.550, 724.316 1079, 724.559 1079 C 724.802 1079, 725 1078.550, 725 1078 C 725 1077.450, 724.523 1077, 723.941 1077 C 723.359 1077, 723.160 1077.450, 723.500 1078 M 713 1081 C 713.589 1082.100, 714.295 1083, 714.570 1083 C 714.845 1083, 714.589 1082.100, 714 1081 C 713.411 1079.900, 712.705 1079, 712.430 1079 C 712.155 1079, 712.411 1079.900, 713 1081 M 726.917 1082.654 C 728.063 1084.389, 729 1086.079, 729 1086.409 C 729 1087.552, 742.262 1106.511, 744.802 1109 L 747.354 1111.500 745.663 1109 C 744.733 1107.625, 743.663 1105.825, 743.286 1105 C 742.909 1104.175, 742.228 1103.050, 741.773 1102.500 C 738.385 1098.408, 732.046 1089.315, 732.012 1088.500 C 731.989 1087.950, 730.365 1085.700, 728.402 1083.500 C 725.541 1080.293, 725.247 1080.125, 726.917 1082.654 M 678.054 1085.500 C 678.067 1086.823, 680.856 1090.478, 681.421 1089.912 C 681.664 1089.669, 681.004 1088.352, 679.954 1086.985 C 678.904 1085.618, 678.049 1084.950, 678.054 1085.500 M 685.500 1097 C 685.840 1097.550, 686.316 1098, 686.559 1098 C 686.802 1098, 687 1097.550, 687 1097 C 687 1096.450, 686.523 1096, 685.941 1096 C 685.359 1096, 685.160 1096.450, 685.500 1097 M 834 1098.882 C 834 1099.432, 834.450 1100.160, 835 1100.500 C 835.550 1100.840, 836 1100.668, 836 1100.118 C 836 1099.568, 835.550 1098.840, 835 1098.500 C 834.450 1098.160, 834 1098.332, 834 1098.882 M 689 1101.621 C 689 1102.146, 690.361 1104.134, 692.024 1106.038 L 695.049 1109.500 692.467 1105.526 C 689.411 1100.822, 689 1100.359, 689 1101.621 M 729.005 1104.556 C 729.010 1105.569, 733.904 1111.874, 733.964 1110.944 C 733.984 1110.639, 732.875 1108.864, 731.500 1107 C 730.125 1105.136, 729.002 1104.036, 729.005 1104.556 M 792.710 1112 C 792.998 1113.100, 793.647 1114, 794.152 1114 C 794.659 1114, 794.591 1113.105, 794 1112 C 793.411 1110.900, 792.763 1110, 792.558 1110 C 792.354 1110, 792.423 1110.900, 792.710 1112 M 704.036 1112.639 C 703.989 1114.136, 707.670 1118.657, 708.370 1117.961 C 708.668 1117.664, 707.823 1116.089, 706.492 1114.461 C 705.161 1112.832, 704.056 1112.013, 704.036 1112.639 M 825.564 1116.293 C 825.940 1117.279, 826.499 1117.834, 826.807 1117.526 C 827.115 1117.219, 826.808 1116.412, 826.124 1115.733 C 825.136 1114.753, 825.022 1114.868, 825.564 1116.293 M 750 1117.878 C 750 1118.360, 750.749 1119.373, 751.664 1120.128 C 753.172 1121.372, 753.216 1121.290, 752.129 1119.250 C 750.889 1116.923, 750 1116.350, 750 1117.878 M 738 1118.786 C 738 1119.283, 738.965 1120.547, 740.146 1121.595 C 742.276 1123.487, 742.283 1123.485, 741.140 1121.306 C 739.865 1118.875, 738 1117.378, 738 1118.786 M 757 1128.412 C 757 1129.511, 763.423 1138, 764.255 1138 C 764.733 1138, 763.643 1135.938, 761.834 1133.418 C 758.674 1129.019, 757 1127.285, 757 1128.412 M 708.515 1131.281 C 709.481 1132.811, 710.522 1133.811, 710.830 1133.503 C 711.137 1133.196, 710.347 1131.944, 709.074 1130.722 L 706.759 1128.500 708.515 1131.281 M 663.500 1133 C 663.840 1133.550, 664.316 1134, 664.559 1134 C 664.802 1134, 665 1133.550, 665 1133 C 665 1132.450, 664.523 1132, 663.941 1132 C 663.359 1132, 663.160 1132.450, 663.500 1133 M 771.241 1149.488 C 772.483 1151.406, 773.853 1152.981, 774.285 1152.988 C 775.118 1153.001, 773.938 1150.649, 771.657 1147.750 C 769.211 1144.643, 768.912 1145.893, 771.241 1149.488 M 694.117 1159.750 C 694.866 1160.713, 696.384 1162.429, 697.490 1163.564 C 698.595 1164.700, 700.050 1166.500, 700.722 1167.564 C 701.914 1169.452, 701.928 1169.451, 701.289 1167.500 C 700.543 1165.218, 696.993 1159.862, 695.500 1158.765 C 693.618 1157.383, 692.754 1157.998, 694.117 1159.750 M 858.054 1158.500 C 858.067 1159.823, 860.856 1163.478, 861.421 1162.912 C 861.664 1162.669, 861.004 1161.352, 859.954 1159.985 C 858.904 1158.618, 858.049 1157.950, 858.054 1158.500 M 729 1162.491 C 729 1162.762, 730.563 1165.031, 732.474 1167.534 C 734.385 1170.038, 736.377 1172.851, 736.899 1173.785 C 737.422 1174.719, 738.098 1175.235, 738.401 1174.933 C 738.704 1174.630, 737.162 1172.001, 734.976 1169.090 C 732.789 1166.180, 731 1163.394, 731 1162.900 C 731 1162.405, 730.550 1162, 730 1162 C 729.450 1162, 729 1162.221, 729 1162.491 M 802 1167.845 C 802 1168.310, 802.970 1169.547, 804.155 1170.595 L 806.310 1172.500 804.540 1169.750 C 802.715 1166.914, 802 1166.378, 802 1167.845 M 635 1178 C 635.589 1179.100, 636.295 1180, 636.570 1180 C 636.845 1180, 636.589 1179.100, 636 1178 C 635.411 1176.900, 634.705 1176, 634.430 1176 C 634.155 1176, 634.411 1176.900, 635 1178 M 744 1183.882 C 744 1184.432, 744.450 1185.160, 745 1185.500 C 745.550 1185.840, 746 1185.668, 746 1185.118 C 746 1184.568, 745.550 1183.840, 745 1183.500 C 744.450 1183.160, 744 1183.332, 744 1183.882 M 642.797 1190.994 C 644.386 1193.786, 646.043 1194.966, 645.967 1193.250 C 645.925 1192.310, 642.370 1188, 641.636 1188 C 641.337 1188, 641.860 1189.347, 642.797 1190.994 M 895.970 1191.944 C 896.543 1193.014, 897.505 1194.194, 898.109 1194.567 C 898.713 1194.941, 898.434 1194.066, 897.489 1192.623 C 895.487 1189.568, 894.451 1189.105, 895.970 1191.944 M 647 1195.914 C 647 1197.621, 653.325 1207.017, 656.451 1209.954 C 660.333 1213.601, 659.546 1211.883, 653.405 1203.311 C 646.811 1194.105, 647 1194.324, 647 1195.914 M 904.910 1203.832 C 905.450 1204.840, 906.685 1206.302, 907.656 1207.082 C 908.909 1208.088, 908.760 1207.556, 907.143 1205.250 C 904.674 1201.729, 903.327 1200.873, 904.910 1203.832 M 831.405 1205.858 C 833.443 1208.150, 834 1208.446, 834 1207.241 C 834 1206.823, 832.987 1205.859, 831.750 1205.099 C 829.508 1203.722, 829.507 1203.724, 831.405 1205.858 M 744.500 1210 C 744.840 1210.550, 745.316 1211, 745.559 1211 C 745.802 1211, 746 1210.550, 746 1210 C 746 1209.450, 745.523 1209, 744.941 1209 C 744.359 1209, 744.160 1209.450, 744.500 1210 M 730 1211.878 C 730 1212.360, 730.749 1213.373, 731.664 1214.128 C 733.172 1215.372, 733.216 1215.290, 732.129 1213.250 C 730.889 1210.923, 730 1210.350, 730 1211.878 M 776.500 1214 C 776.840 1214.550, 777.316 1215, 777.559 1215 C 777.802 1215, 778 1214.550, 778 1214 C 778 1213.450, 777.523 1213, 776.941 1213 C 776.359 1213, 776.160 1213.450, 776.500 1214 M 662.020 1218.524 C 662.716 1219.362, 663.491 1219.842, 663.743 1219.591 C 664.436 1218.897, 663.027 1217, 661.819 1217 C 661.155 1217, 661.231 1217.574, 662.020 1218.524 M 668.677 1227.750 C 671.253 1231.463, 673.640 1234.725, 673.982 1235 C 674.323 1235.275, 676.155 1237.746, 678.051 1240.491 C 681.973 1246.166, 692.249 1259.070, 696.293 1263.396 C 697.782 1264.989, 699 1266.685, 699 1267.165 C 699 1268.429, 706.338 1277.876, 707.372 1277.943 C 707.852 1277.974, 707.627 1277.130, 706.872 1276.066 C 700.901 1267.650, 691.666 1255.323, 686.969 1249.500 C 683.863 1245.650, 680.019 1240.475, 678.425 1238 C 676.832 1235.525, 674.818 1232.825, 673.951 1232 C 673.084 1231.175, 670.919 1228.362, 669.139 1225.750 C 667.360 1223.138, 665.474 1221, 664.949 1221 C 664.423 1221, 666.101 1224.037, 668.677 1227.750 M 921 1224.786 C 921 1225.283, 921.965 1226.547, 923.146 1227.595 C 925.276 1229.487, 925.283 1229.485, 924.140 1227.306 C 922.865 1224.875, 921 1223.378, 921 1224.786 M 787.703 1238.469 C 788.691 1239.826, 789.859 1240.951, 790.297 1240.969 C 790.735 1240.986, 790.285 1239.889, 789.297 1238.531 C 788.309 1237.174, 787.141 1236.049, 786.703 1236.031 C 786.265 1236.014, 786.715 1237.111, 787.703 1238.469 M 815 1243.878 C 815 1244.360, 815.749 1245.373, 816.664 1246.128 C 818.172 1247.372, 818.216 1247.290, 817.129 1245.250 C 815.889 1242.923, 815 1242.350, 815 1243.878 M 972 1243.882 C 972 1244.432, 972.450 1245.160, 973 1245.500 C 973.550 1245.840, 974 1245.668, 974 1245.118 C 974 1244.568, 973.550 1243.840, 973 1243.500 C 972.450 1243.160, 972 1243.332, 972 1243.882 M 807 1246.882 C 807 1247.432, 807.450 1248.160, 808 1248.500 C 808.550 1248.840, 809 1248.668, 809 1248.118 C 809 1247.568, 808.550 1246.840, 808 1246.500 C 807.450 1246.160, 807 1246.332, 807 1246.882 M 796 1249.378 C 796 1249.585, 796.685 1250.324, 797.523 1251.019 C 798.796 1252.076, 798.943 1252.014, 798.416 1250.641 C 797.878 1249.240, 796 1248.257, 796 1249.378 M 805 1250 C 805 1250.550, 805.477 1251, 806.059 1251 C 806.641 1251, 806.840 1250.550, 806.500 1250 C 806.160 1249.450, 805.684 1249, 805.441 1249 C 805.198 1249, 805 1249.450, 805 1250 M 853.500 1252 C 853.840 1252.550, 854.316 1253, 854.559 1253 C 854.802 1253, 855 1252.550, 855 1252 C 855 1251.450, 854.523 1251, 853.941 1251 C 853.359 1251, 853.160 1251.450, 853.500 1252 M 790 1252.845 C 790 1253.310, 790.970 1254.547, 792.155 1255.595 L 794.310 1257.500 792.540 1254.750 C 790.715 1251.914, 790 1251.378, 790 1252.845 M 833.638 1253.500 C 833.955 1254.325, 834.671 1255, 835.229 1255 C 835.815 1255, 835.718 1254.365, 835 1253.500 C 834.315 1252.675, 833.599 1252, 833.409 1252 C 833.219 1252, 833.322 1252.675, 833.638 1253.500 M 814 1256 C 814.589 1257.100, 815.295 1258, 815.570 1258 C 815.845 1258, 815.589 1257.100, 815 1256 C 814.411 1254.900, 813.705 1254, 813.430 1254 C 813.155 1254, 813.411 1254.900, 814 1256 M 874.015 1260.536 C 874.043 1262.257, 875.871 1264.463, 876.636 1263.697 C 877.046 1263.288, 876.620 1262.192, 875.690 1261.262 C 874.761 1260.332, 874.007 1260.005, 874.015 1260.536 M 830 1265 C 830 1265.550, 830.450 1266, 831 1266 C 831.550 1266, 832 1265.550, 832 1265 C 832 1264.450, 831.550 1264, 831 1264 C 830.450 1264, 830 1264.450, 830 1265 M 773 1267 C 773 1267.550, 773.477 1268, 774.059 1268 C 774.641 1268, 774.840 1267.550, 774.500 1267 C 774.160 1266.450, 773.684 1266, 773.441 1266 C 773.198 1266, 773 1266.450, 773 1267 M 776 1271 C 776.589 1272.100, 777.574 1273, 778.190 1273 C 778.806 1273, 778.495 1272.100, 777.500 1271 C 776.505 1269.900, 775.519 1269, 775.310 1269 C 775.101 1269, 775.411 1269.900, 776 1271 M 821 1282 C 821 1282.550, 821.477 1283, 822.059 1283 C 822.641 1283, 822.840 1282.550, 822.500 1282 C 822.160 1281.450, 821.684 1281, 821.441 1281 C 821.198 1281, 821 1281.450, 821 1282 M 888.173 1284.250 C 889.444 1286.037, 892.512 1289.751, 894.992 1292.503 C 897.471 1295.254, 900.414 1298.629, 901.531 1300.003 C 904.183 1303.264, 908.624 1306.991, 907.487 1305 C 907.015 1304.175, 905.158 1301.925, 903.360 1300 C 896.717 1292.889, 888 1282.553, 888 1281.789 C 888 1281.355, 887.519 1281, 886.932 1281 C 886.344 1281, 886.903 1282.463, 888.173 1284.250 M 710.707 1282.626 C 710.410 1282.923, 711.067 1284.067, 712.167 1285.167 C 714.754 1287.754, 715.356 1287.151, 713.038 1284.293 C 712.054 1283.078, 711.005 1282.328, 710.707 1282.626 M 1002.500 1284 C 1003.495 1285.100, 1004.469 1286, 1004.663 1286 C 1004.858 1286, 1004.455 1285.100, 1003.768 1284 C 1003.081 1282.900, 1002.107 1282, 1001.604 1282 C 1001.102 1282, 1001.505 1282.900, 1002.500 1284 M 815.100 1285.705 C 815.829 1286.917, 816.640 1287.694, 816.903 1287.431 C 817.166 1287.168, 816.570 1286.176, 815.579 1285.226 C 813.857 1283.577, 813.835 1283.598, 815.100 1285.705 M 1000 1287.378 C 1000 1287.585, 1000.788 1288.373, 1001.750 1289.128 C 1003.336 1290.371, 1003.371 1290.336, 1002.128 1288.750 C 1000.821 1287.084, 1000 1286.555, 1000 1287.378 M 1009 1290.305 C 1009 1290.472, 1010.575 1292.329, 1012.500 1294.430 C 1014.425 1296.532, 1016 1297.845, 1016 1297.349 C 1016 1296.346, 1010.435 1290, 1009.556 1290 C 1009.250 1290, 1009 1290.137, 1009 1290.305 M 834.500 1300 C 834.840 1300.550, 835.316 1301, 835.559 1301 C 835.802 1301, 836 1300.550, 836 1300 C 836 1299.450, 835.523 1299, 834.941 1299 C 834.359 1299, 834.160 1299.450, 834.500 1300 M 837 1303 C 837 1303.550, 837.477 1304, 838.059 1304 C 838.641 1304, 838.840 1303.550, 838.500 1303 C 838.160 1302.450, 837.684 1302, 837.441 1302 C 837.198 1302, 837 1302.450, 837 1303 M 909.620 1309.250 C 911.598 1311.848, 917 1316.449, 917 1315.536 C 917 1314.806, 909.147 1307, 908.413 1307 C 908.134 1307, 908.678 1308.013, 909.620 1309.250 M 1025.860 1309.694 C 1027.135 1312.125, 1029 1313.622, 1029 1312.214 C 1029 1311.717, 1028.035 1310.453, 1026.854 1309.405 C 1024.724 1307.513, 1024.717 1307.515, 1025.860 1309.694 M 939.959 1315.808 C 941.202 1317.627, 942.483 1318.851, 942.806 1318.527 C 943.129 1318.204, 942.113 1316.716, 940.547 1315.220 L 937.700 1312.500 939.959 1315.808 M 1032 1315.845 C 1032 1316.310, 1032.970 1317.547, 1034.155 1318.595 L 1036.310 1320.500 1034.540 1317.750 C 1032.715 1314.914, 1032 1314.378, 1032 1315.845 M 955 1318.878 C 955 1320.156, 957.940 1322.393, 958.667 1321.667 C 959.393 1320.940, 957.156 1318, 955.878 1318 C 955.395 1318, 955 1318.395, 955 1318.878 M 1037.232 1323 C 1037.919 1324.100, 1038.893 1325, 1039.396 1325 C 1039.898 1325, 1039.495 1324.100, 1038.500 1323 C 1037.505 1321.900, 1036.531 1321, 1036.337 1321 C 1036.142 1321, 1036.545 1321.900, 1037.232 1323 M 916.860 1326.694 C 918.135 1329.125, 920 1330.622, 920 1329.214 C 920 1328.717, 919.035 1327.453, 917.854 1326.405 C 915.724 1324.513, 915.717 1324.515, 916.860 1326.694 M 862.437 1334.329 C 863.977 1336.348, 865.440 1338, 865.687 1338 C 866.381 1338, 862.052 1332.150, 860.772 1331.359 C 860.148 1330.973, 860.897 1332.310, 862.437 1334.329 M 765.624 1336.128 C 768.461 1340.667, 774.327 1348.007, 774.765 1347.568 C 775.303 1347.030, 767.449 1336.395, 765.728 1335.332 C 765.118 1334.955, 765.078 1335.255, 765.624 1336.128 M 927.703 1339.402 C 928.691 1340.723, 929.649 1341.662, 929.831 1341.488 C 930.455 1340.891, 927.930 1337, 926.918 1337 C 926.362 1337, 926.715 1338.081, 927.703 1339.402 M 937 1338.378 C 937 1338.585, 937.788 1339.373, 938.750 1340.128 C 940.336 1341.371, 940.371 1341.336, 939.128 1339.750 C 937.821 1338.084, 937 1337.555, 937 1338.378 M 965.849 1344.788 C 967.107 1346.555, 968.541 1348, 969.037 1348 C 970.560 1348, 969.057 1345.604, 966.239 1343.538 L 963.562 1341.576 965.849 1344.788 M 935 1346.882 C 935 1347.432, 935.450 1348.160, 936 1348.500 C 936.550 1348.840, 937 1348.668, 937 1348.118 C 937 1347.568, 936.550 1346.840, 936 1346.500 C 935.450 1346.160, 935 1346.332, 935 1346.882 M 947.857 1350.750 C 949.111 1352.537, 950.346 1354, 950.603 1354 C 951.468 1354, 949.126 1350.349, 947.344 1348.918 C 946.091 1347.912, 946.240 1348.444, 947.857 1350.750 M 911.014 1350.749 C 911.006 1351.436, 912.800 1353.852, 915 1356.119 C 920.194 1361.471, 920.205 1359.676, 915.014 1353.920 C 912.822 1351.489, 911.022 1350.062, 911.014 1350.749 M 972 1350.506 C 972 1351.647, 981.460 1364, 982.334 1364 C 983.095 1364, 980.313 1360.079, 974.296 1352.673 C 973.033 1351.119, 972 1350.143, 972 1350.506 M 766 1356 C 766 1356.550, 766.477 1357, 767.059 1357 C 767.641 1357, 767.840 1356.550, 767.500 1356 C 767.160 1355.450, 766.684 1355, 766.441 1355 C 766.198 1355, 766 1355.450, 766 1356 M 1066 1356.882 C 1066 1357.432, 1066.450 1358.160, 1067 1358.500 C 1067.550 1358.840, 1068 1358.668, 1068 1358.118 C 1068 1357.568, 1067.550 1356.840, 1067 1356.500 C 1066.450 1356.160, 1066 1356.332, 1066 1356.882 M 794.275 1360 C 794.358 1361.100, 794.944 1362, 795.577 1362 C 796.210 1362, 797.981 1363.808, 799.513 1366.018 C 801.044 1368.228, 802.519 1369.815, 802.790 1369.544 C 803.232 1369.101, 795.203 1358, 794.441 1358 C 794.267 1358, 794.192 1358.900, 794.275 1360 M 926.500 1369 C 927.495 1370.100, 928.481 1371, 928.690 1371 C 928.899 1371, 928.589 1370.100, 928 1369 C 927.411 1367.900, 926.426 1367, 925.810 1367 C 925.194 1367, 925.505 1367.900, 926.500 1369 M 936.032 1380.259 C 935.948 1382.259, 946.630 1395.294, 947.975 1394.832 C 948.506 1394.649, 947.182 1392.475, 945.033 1390 C 942.884 1387.525, 939.987 1384.150, 938.594 1382.500 C 937.202 1380.850, 936.049 1379.841, 936.032 1380.259 M 950.685 1398.500 C 953.374 1402.974, 964.840 1417.930, 969.085 1422.500 C 974.202 1428.010, 981.809 1436.747, 986 1441.929 C 987.925 1444.309, 990.288 1447.099, 991.250 1448.128 C 992.212 1449.158, 993 1450.342, 993 1450.759 C 993 1451.177, 993.998 1452.142, 995.218 1452.904 C 997.416 1454.277, 997.420 1454.268, 995.704 1451.895 C 994.751 1450.578, 993.262 1448.126, 992.394 1446.447 C 991.527 1444.767, 989.555 1442.545, 988.013 1441.509 C 986.471 1440.472, 984.520 1438.471, 983.677 1437.062 C 982.835 1435.653, 980.413 1432.700, 978.295 1430.500 C 976.178 1428.300, 971.379 1422.675, 967.631 1418 C 961.269 1410.064, 956.217 1403.972, 951.046 1398 L 948.881 1395.500 950.685 1398.500 M 1007.500 1411 C 1007.840 1411.550, 1008.316 1412, 1008.559 1412 C 1008.802 1412, 1009 1411.550, 1009 1411 C 1009 1410.450, 1008.523 1410, 1007.941 1410 C 1007.359 1410, 1007.160 1410.450, 1007.500 1411 M 881.277 1423.750 C 889.360 1434.330, 951.227 1515.353, 960.169 1527.072 C 965.026 1533.436, 969 1539.174, 969 1539.822 C 969 1540.470, 969.423 1541, 969.940 1541 C 970.457 1541, 977.289 1549.438, 985.122 1559.750 C 1003.425 1583.846, 1016.082 1600, 1016.660 1600 C 1017.112 1600, 995.700 1571.551, 968.489 1536 C 960.701 1525.825, 938.207 1496.350, 918.502 1470.500 C 898.798 1444.650, 881.737 1422.287, 880.588 1420.805 C 879.440 1419.323, 878.136 1418.086, 877.692 1418.055 C 877.247 1418.025, 878.860 1420.588, 881.277 1423.750 M 1033 1453.941 C 1033 1454.459, 1033.445 1455.157, 1033.989 1455.493 C 1034.555 1455.843, 1034.723 1455.442, 1034.382 1454.552 C 1033.717 1452.820, 1033 1452.503, 1033 1453.941 M 998 1455.587 C 998 1456.557, 1004.287 1465, 1005.009 1465 C 1005.377 1465, 1006.218 1466.183, 1006.877 1467.629 C 1007.536 1469.075, 1008.339 1469.994, 1008.663 1469.671 C 1008.986 1469.347, 1006.902 1465.914, 1004.031 1462.041 C 999.096 1455.385, 998 1454.212, 998 1455.587 M 924 1524.659 C 924 1525.884, 932.057 1536, 933.032 1536 C 934.696 1536, 934.098 1534.441, 931.500 1532 C 930.125 1530.708, 929 1529.125, 929 1528.481 C 929 1527.837, 928.177 1526.565, 927.171 1525.655 C 925.265 1523.930, 924 1523.533, 924 1524.659 M 993 1553 C 993 1553.550, 993.450 1554, 994 1554 C 994.550 1554, 995 1553.550, 995 1553 C 995 1552.450, 994.550 1552, 994 1552 C 993.450 1552, 993 1552.450, 993 1553" stroke="none" fill="black" fill-rule="evenodd"/>
</svg>