<svg xmlns="http://www.w3.org/2000/svg" width="1240" height="1753" viewBox="0 0 1240 1753" version="1.1">
	<path d="M 633.500 93.164 C 629.100 93.551, 621.900 94.319, 617.500 94.871 C 613.100 95.423, 606.800 96.141, 603.500 96.468 C 600.200 96.795, 596.375 97.238, 595 97.454 C 593.625 97.670, 589.800 98.159, 586.500 98.541 C 583.200 98.923, 579.524 99.844, 578.331 100.588 C 577.138 101.331, 572.413 102.200, 567.831 102.519 C 563.249 102.838, 557.700 103.554, 555.500 104.110 C 545.667 106.597, 540.250 108.471, 537 110.513 C 535.075 111.723, 530.913 113.299, 527.750 114.016 C 524.587 114.733, 522 115.640, 522 116.032 C 522 116.424, 520.180 117.035, 517.956 117.391 C 515.732 117.747, 513.145 118.433, 512.206 118.916 C 508.804 120.668, 502.413 122.991, 498.500 123.899 C 496.300 124.409, 492.025 125.799, 489 126.988 C 479.756 130.622, 470.987 132.926, 466.639 132.862 C 464.362 132.829, 460.250 133.797, 457.500 135.013 C 454.750 136.228, 449.900 137.845, 446.723 138.606 C 443.545 139.367, 439.945 140.627, 438.723 141.407 C 437.500 142.187, 433.350 143.783, 429.500 144.953 C 422.189 147.177, 408.761 153.398, 405.750 155.957 C 404.788 156.775, 404 157.992, 404 158.660 C 404 159.329, 403.212 159.821, 402.250 159.755 C 398.774 159.515, 395.120 161.046, 394.499 163.002 C 394.107 164.240, 392.986 165, 391.555 165 C 389.199 165, 386.539 167.206, 387.608 168.274 C 387.932 168.599, 387.366 168.650, 386.349 168.388 C 385.318 168.123, 382.383 169.259, 379.715 170.956 C 377.084 172.630, 374.520 174, 374.019 174 C 372.825 174, 361.072 180.793, 358.500 182.970 C 357.400 183.901, 354.822 185.618, 352.771 186.785 C 350.720 187.953, 345.477 191.857, 341.121 195.461 C 336.012 199.687, 332.647 201.802, 331.642 201.416 C 330.547 200.996, 329.887 201.600, 329.424 203.448 C 328.759 206.097, 323.353 211, 321.097 211 C 320.429 211, 320.150 211.434, 320.478 211.964 C 320.806 212.494, 319.370 214.010, 317.287 215.333 C 312.609 218.303, 289.566 242.495, 279.758 254.734 C 275.766 259.715, 268.337 268.987, 263.250 275.340 C 258.163 281.692, 254 287.214, 254 287.611 C 254 288.007, 253.351 289.045, 252.559 289.916 C 246.500 296.574, 244.228 299.818, 238.841 309.500 C 235.475 315.550, 231.769 322.750, 230.605 325.500 C 229.442 328.250, 226.786 333.502, 224.703 337.172 C 222.620 340.841, 220.750 344.666, 220.547 345.672 C 220.345 346.677, 219.039 349.525, 217.647 352 C 216.254 354.475, 213.802 358.975, 212.198 362 C 209.305 367.457, 203.962 372.270, 201.685 371.472 C 201.007 371.234, 198.811 374.498, 196.552 379.101 C 193.963 384.375, 190.520 389.304, 186.552 393.416 C 177.285 403.019, 170.957 415.715, 165.578 435.500 C 164.681 438.800, 163.457 443.300, 162.859 445.500 C 161.651 449.945, 161.083 451.463, 158.185 458 C 157.087 460.475, 154.760 466.976, 153.012 472.446 C 151.265 477.916, 148.731 484.570, 147.382 487.233 C 146.032 489.896, 145.141 492.420, 145.402 492.841 C 145.957 493.739, 144.373 501.603, 143.054 504.500 C 142.553 505.600, 141.404 508.975, 140.500 512 C 139.596 515.025, 138.481 518.400, 138.022 519.500 C 136.221 523.810, 134.033 530.006, 133.538 532.198 C 133.252 533.464, 132.085 538.775, 130.945 544 C 129.805 549.225, 128.226 555.790, 127.436 558.588 C 126.646 561.386, 126 564.653, 126 565.847 C 126 568.035, 121.627 587.763, 117.543 604 C 115.809 610.897, 114.728 615.968, 114.452 618.500 C 114.272 620.150, 113.616 623.975, 112.994 627 C 112.371 630.025, 111.733 633.400, 111.575 634.500 C 111.085 637.910, 105.821 662.467, 105.449 663.076 C 104.598 664.469, 98.975 687.487, 97.040 697.500 C 95.871 703.550, 94.063 711.875, 93.023 716 C 89.979 728.076, 89.094 732.222, 88.531 737.037 C 88.240 739.532, 87.382 744.032, 86.625 747.037 C 85.867 750.041, 85.211 753.175, 85.167 754 C 85.123 754.825, 84.605 758.875, 84.016 763 C 81.375 781.498, 79.653 799.896, 78.963 817 C 78.243 834.829, 76.809 848.882, 75.492 851.013 C 73.101 854.882, 73.070 961.068, 75.458 964.932 C 75.819 965.516, 76.312 978.482, 76.554 993.746 C 77.134 1030.368, 80.422 1070.671, 83.876 1083.500 C 84.468 1085.700, 84.963 1089.217, 84.976 1091.316 C 84.989 1093.414, 85.429 1095.933, 85.954 1096.913 C 86.478 1097.893, 87.372 1101.351, 87.939 1104.598 C 88.507 1107.844, 89.833 1114.550, 90.888 1119.500 C 91.942 1124.450, 93.573 1132.100, 94.512 1136.500 C 95.451 1140.900, 96.563 1144.950, 96.984 1145.500 C 97.404 1146.050, 98.065 1148.687, 98.452 1151.361 C 98.839 1154.035, 100.264 1159.617, 101.618 1163.765 C 102.972 1167.914, 104.350 1173.377, 104.678 1175.904 C 105.007 1178.432, 105.640 1180.967, 106.085 1181.539 C 106.530 1182.110, 107.375 1185.710, 107.963 1189.539 C 108.551 1193.367, 109.464 1198.525, 109.991 1201 C 110.518 1203.475, 112.355 1213.118, 114.073 1222.428 C 115.791 1231.738, 117.997 1241.863, 118.974 1244.928 C 119.951 1247.993, 121.303 1253.200, 121.978 1256.500 C 122.653 1259.800, 123.601 1263.400, 124.085 1264.500 C 124.569 1265.600, 125.434 1268.679, 126.007 1271.341 C 126.580 1274.004, 127.642 1277.604, 128.367 1279.341 C 129.092 1281.079, 130.261 1284.975, 130.965 1288 C 131.669 1291.025, 133.060 1295.075, 134.055 1297 C 135.050 1298.925, 136.854 1303.875, 138.063 1308 C 139.272 1312.125, 140.604 1315.950, 141.023 1316.500 C 141.442 1317.050, 142.591 1320.425, 143.576 1324 C 146.021 1332.869, 163.705 1370.195, 171.281 1382.476 C 171.951 1383.563, 174.075 1386.949, 176 1390 C 177.925 1393.051, 179.950 1396.279, 180.500 1397.173 C 181.050 1398.068, 184.989 1403.986, 189.253 1410.325 C 193.517 1416.664, 197.320 1422.671, 197.704 1423.675 C 198.560 1425.909, 201.633 1430.486, 205.863 1435.826 C 207.611 1438.034, 209.956 1441.907, 211.073 1444.431 C 212.189 1446.956, 214.205 1449.743, 215.552 1450.626 C 217.017 1451.586, 218 1453.188, 218 1454.615 C 218 1455.927, 218.340 1457, 218.756 1457 C 219.172 1457, 220.109 1458.350, 220.840 1460 C 221.688 1461.916, 222.950 1463.042, 224.334 1463.116 C 226.060 1463.208, 226.139 1463.326, 224.727 1463.694 C 223.211 1464.089, 223.538 1464.889, 226.977 1469.208 C 229.190 1471.987, 231.002 1474.765, 231.005 1475.381 C 231.007 1475.996, 232.582 1478.213, 234.505 1480.306 C 236.427 1482.399, 238 1484.303, 238 1484.536 C 238 1484.770, 239.537 1487.364, 241.416 1490.302 C 244.749 1495.512, 246.185 1497.374, 252.641 1504.859 C 254.368 1506.861, 255.862 1508.950, 255.960 1509.500 C 256.058 1510.050, 259.258 1514.262, 263.069 1518.860 C 270.190 1527.448, 272.328 1531.605, 267 1526.500 C 265.350 1524.919, 264 1524.103, 264 1524.687 C 264 1525.271, 267.464 1529.068, 271.697 1533.124 C 275.931 1537.181, 281.770 1542.862, 284.675 1545.750 C 287.579 1548.637, 290.556 1551, 291.291 1551 C 292.025 1551, 293.919 1552.350, 295.500 1554 C 299.069 1557.725, 297.641 1557.988, 293.805 1554.313 C 289.817 1550.493, 290.311 1553.171, 294.333 1557.179 C 298.590 1561.421, 301.514 1563.901, 306.500 1567.497 C 308.700 1569.084, 311.529 1571.419, 312.786 1572.686 C 315.175 1575.094, 325.019 1582.775, 327.926 1584.500 C 328.853 1585.050, 331.386 1587.196, 333.556 1589.269 C 335.725 1591.342, 338.509 1593.302, 339.743 1593.626 C 340.977 1593.949, 341.767 1594.567, 341.500 1595 C 341.233 1595.433, 342.123 1596.065, 343.478 1596.405 C 344.833 1596.745, 346.421 1597.918, 347.006 1599.012 C 347.592 1600.105, 348.692 1601, 349.452 1601 C 350.212 1601, 350.983 1601.338, 351.167 1601.750 C 351.350 1602.162, 353.975 1603.804, 357 1605.398 C 360.025 1606.992, 365.281 1610.255, 368.679 1612.648 C 372.078 1615.042, 375.092 1617, 375.378 1617 C 375.663 1617, 377.110 1618.125, 378.593 1619.499 C 381.434 1622.131, 389.941 1628.128, 395.618 1631.500 C 400.485 1634.390, 407.445 1639.376, 407.833 1640.250 C 408.017 1640.662, 409.029 1641, 410.083 1641 C 411.137 1641, 412 1641.450, 412 1642 C 412 1643.259, 409.313 1643.316, 408.545 1642.073 C 408.230 1641.563, 406.291 1640.606, 404.236 1639.947 C 402.181 1639.287, 399.815 1638.152, 398.977 1637.424 C 398.048 1636.617, 396.920 1636.432, 396.082 1636.950 C 395.041 1637.593, 395.448 1638.180, 397.760 1639.376 C 399.438 1640.243, 401.416 1641.532, 402.155 1642.238 C 402.895 1642.945, 404.796 1644.097, 406.379 1644.799 C 407.963 1645.501, 409.044 1646.289, 408.783 1646.551 C 408.126 1647.207, 401.089 1644.190, 397.757 1641.822 C 396.248 1640.751, 394.544 1640.164, 393.970 1640.519 C 392.272 1641.568, 399.214 1646.219, 412 1652.597 C 415.025 1654.106, 417.651 1655.716, 417.835 1656.176 C 418.020 1656.636, 418.532 1656.790, 418.973 1656.517 C 419.413 1656.244, 419.712 1656.804, 419.637 1657.761 C 419.538 1659.022, 420.251 1659.500, 422.231 1659.500 C 423.733 1659.500, 425.063 1659.950, 425.186 1660.500 C 425.442 1661.645, 429.666 1664.016, 431.364 1663.968 C 431.989 1663.951, 431.626 1663.276, 430.559 1662.468 C 428.662 1661.033, 428.668 1661, 430.809 1661 C 432.014 1661, 433.872 1661.872, 434.938 1662.938 C 436.003 1664.003, 437.028 1664.417, 437.214 1663.857 C 437.440 1663.180, 438.381 1663.166, 440.027 1663.816 C 441.387 1664.352, 444.474 1665.381, 446.886 1666.101 C 449.298 1666.821, 450.760 1667.580, 450.136 1667.788 C 447.672 1668.609, 449.186 1669.958, 452.250 1669.672 C 455.403 1669.377, 457.101 1669.817, 463.598 1672.615 C 465.302 1673.349, 468.677 1674.203, 471.098 1674.513 C 473.519 1674.823, 477.249 1675.341, 479.386 1675.664 C 484.321 1676.409, 483.488 1674.370, 478.474 1673.429 C 476.573 1673.072, 475.262 1672.385, 475.561 1671.902 C 475.859 1671.418, 475.451 1671.273, 474.653 1671.580 C 473.855 1671.886, 472.905 1671.656, 472.542 1671.068 C 472.179 1670.481, 470.810 1670, 469.500 1670 C 468.190 1670, 466.821 1669.519, 466.458 1668.932 C 466.095 1668.344, 465.201 1668.093, 464.472 1668.372 C 463.743 1668.652, 462.608 1668.233, 461.951 1667.441 C 461.293 1666.648, 459.798 1665.980, 458.628 1665.955 C 457.457 1665.930, 455.150 1665.274, 453.500 1664.496 L 450.500 1663.082 453.500 1663.628 C 458.479 1664.535, 467.434 1667.136, 468.500 1667.986 C 469.050 1668.425, 472.094 1669.315, 475.263 1669.965 C 478.889 1670.709, 480.781 1671.545, 480.364 1672.220 C 479.919 1672.940, 480.599 1673.067, 482.435 1672.606 C 483.938 1672.229, 484.924 1672.314, 484.626 1672.797 C 484.328 1673.279, 485.527 1673.577, 487.292 1673.460 C 489.056 1673.343, 490.973 1673.622, 491.552 1674.081 C 492.131 1674.541, 493.660 1674.640, 494.950 1674.303 C 497.178 1673.720, 497.203 1673.622, 495.457 1672.345 C 493.735 1671.086, 493.776 1671, 496.099 1671 C 497.463 1671, 501.262 1671.701, 504.540 1672.557 C 507.818 1673.414, 512.750 1674.311, 515.500 1674.552 C 518.250 1674.792, 522.075 1675.275, 524 1675.625 C 527.830 1676.322, 529.549 1676.552, 538.500 1677.565 C 541.800 1677.939, 545.036 1678.673, 545.692 1679.197 C 546.347 1679.720, 550.847 1680.318, 555.692 1680.524 L 564.500 1680.900 558 1679.572 L 551.500 1678.244 557.782 1678.122 C 561.237 1678.055, 565.564 1678.627, 567.397 1679.392 C 569.327 1680.199, 572.574 1680.590, 575.115 1680.323 C 577.527 1680.069, 581.300 1680.318, 583.500 1680.877 C 587.180 1681.811, 586.919 1681.877, 580.225 1681.696 C 574.188 1681.533, 573.242 1681.713, 574.666 1682.750 C 575.610 1683.437, 577.309 1684.003, 578.441 1684.006 C 579.574 1684.010, 581.810 1684.696, 583.412 1685.531 C 585.013 1686.366, 589.738 1687.220, 593.912 1687.428 C 617.452 1688.604, 624.590 1689.311, 626.078 1690.615 C 627.187 1691.588, 630.280 1691.970, 636.485 1691.903 C 643.433 1691.828, 645.495 1692.133, 646.168 1693.335 C 646.781 1694.431, 648.165 1694.749, 651.071 1694.460 C 653.297 1694.238, 655.917 1694.555, 656.892 1695.165 C 658.232 1696.001, 659.867 1695.879, 663.583 1694.664 C 666.287 1693.779, 671.763 1692.527, 675.750 1691.881 C 679.737 1691.235, 683.007 1690.210, 683.015 1689.603 C 683.024 1688.997, 683.440 1689.146, 683.939 1689.936 C 684.719 1691.169, 686.660 1691.043, 697.654 1689.051 C 704.697 1687.774, 711.144 1686.360, 711.980 1685.908 C 712.816 1685.457, 717.029 1683.915, 721.342 1682.483 C 729.515 1679.770, 734.591 1677.738, 739.252 1675.315 C 740.766 1674.528, 742.503 1674.193, 743.114 1674.570 C 743.724 1674.948, 744.511 1674.861, 744.862 1674.378 C 746.546 1672.061, 760.496 1666.658, 771.500 1664.060 C 774.250 1663.411, 778.564 1661.557, 781.088 1659.940 C 783.611 1658.323, 786.455 1657, 787.408 1657 C 788.362 1657, 791.697 1655.665, 794.821 1654.033 C 797.944 1652.401, 805.900 1648.532, 812.500 1645.436 C 819.100 1642.340, 826.750 1638.744, 829.500 1637.446 C 832.250 1636.147, 835.625 1634.784, 837 1634.416 C 838.375 1634.048, 841.525 1632.307, 844 1630.548 C 846.475 1628.789, 851.084 1626.258, 854.242 1624.925 C 857.400 1623.591, 860.242 1621.712, 860.559 1620.750 C 860.876 1619.787, 861.570 1619, 862.101 1619 C 862.633 1619, 864.327 1617.763, 865.867 1616.250 C 871.058 1611.151, 876.754 1607.384, 890.302 1600.091 C 898.488 1595.685, 900.518 1594.280, 905.314 1589.705 C 906.925 1588.168, 908.487 1587.153, 908.784 1587.450 C 909.081 1587.747, 910.713 1586.955, 912.412 1585.690 C 914.110 1584.425, 917.525 1582.810, 920 1582.100 C 922.475 1581.390, 925.400 1580.038, 926.500 1579.094 C 927.600 1578.151, 929.463 1576.731, 930.641 1575.939 C 931.818 1575.148, 936.543 1571.316, 941.141 1567.424 C 945.738 1563.532, 950.738 1559.543, 952.250 1558.559 C 953.763 1557.575, 955 1556.168, 955 1555.433 C 955 1554.698, 956.575 1552.567, 958.500 1550.697 C 960.425 1548.828, 962 1546.781, 962 1546.149 C 962 1545.517, 962.363 1545, 962.807 1545 C 963.895 1545, 970 1539.897, 970 1538.988 C 970 1538.044, 982.604 1525, 983.515 1525 C 983.899 1525, 983.955 1525.675, 983.638 1526.500 C 983.322 1527.325, 983.451 1528, 983.924 1528 C 985.129 1528, 986.044 1525.279, 985.403 1523.607 C 984.924 1522.359, 990.585 1515.041, 996.369 1509.434 C 997.541 1508.297, 999.610 1505.968, 1000.966 1504.258 C 1002.323 1502.548, 1003.785 1501.367, 1004.216 1501.634 C 1004.647 1501.900, 1005 1501.218, 1005 1500.118 C 1005 1499.018, 1005.516 1497.799, 1006.146 1497.410 C 1006.952 1496.911, 1007.095 1497.486, 1006.627 1499.351 C 1005.790 1502.686, 1007.235 1502.798, 1008.982 1499.534 C 1009.708 1498.178, 1010.754 1497.348, 1011.307 1497.690 C 1011.948 1498.086, 1012.079 1497.147, 1011.670 1495.099 C 1011.174 1492.618, 1011.506 1491.388, 1013.129 1489.693 L 1015.231 1487.500 1013.514 1490.896 C 1011.917 1494.055, 1011.915 1494.247, 1013.481 1493.646 C 1014.406 1493.291, 1015.563 1493, 1016.050 1493 C 1016.538 1493, 1016.677 1492.321, 1016.358 1491.491 C 1016.011 1490.585, 1017.060 1488.689, 1018.986 1486.741 C 1024.412 1481.256, 1030.565 1471.626, 1026.476 1475.020 C 1025.638 1475.716, 1024.626 1475.959, 1024.227 1475.561 C 1023.829 1475.162, 1024.290 1474.261, 1025.252 1473.558 C 1026.213 1472.855, 1027 1471.955, 1027 1471.558 C 1027 1471.161, 1028.591 1468.895, 1030.536 1466.521 C 1032.968 1463.554, 1034.638 1462.354, 1035.883 1462.680 C 1037.204 1463.025, 1038.545 1461.826, 1040.847 1458.239 C 1044.095 1453.177, 1044.742 1451, 1043 1451 C 1042.450 1451, 1042.053 1451.338, 1042.118 1451.750 C 1042.415 1453.628, 1041.797 1454.867, 1039 1458 C 1031.233 1466.699, 1039.743 1452.177, 1051.529 1436.618 C 1054.813 1432.284, 1058.338 1427.334, 1059.363 1425.618 C 1061.170 1422.593, 1063.098 1420.765, 1063.771 1421.438 C 1063.953 1421.619, 1062.278 1424.369, 1060.050 1427.549 C 1055.597 1433.906, 1054.695 1436.679, 1058.307 1432.908 C 1059.575 1431.584, 1060.397 1429.859, 1060.133 1429.076 C 1059.781 1428.032, 1060.157 1427.846, 1061.546 1428.379 C 1062.587 1428.779, 1063.152 1428.819, 1062.802 1428.468 C 1062.451 1428.118, 1062.915 1426.954, 1063.832 1425.883 C 1064.843 1424.702, 1065.511 1422.155, 1065.528 1419.414 C 1065.543 1416.927, 1066.032 1414.579, 1066.613 1414.196 C 1067.195 1413.813, 1069.130 1410.800, 1070.914 1407.500 C 1075.097 1399.761, 1081.187 1390.854, 1081.845 1391.512 C 1082.127 1391.794, 1081.465 1393.257, 1080.374 1394.762 C 1079.282 1396.268, 1077.764 1399.075, 1077 1401 C 1076.236 1402.925, 1074.900 1405.175, 1074.032 1406 C 1072.631 1407.332, 1070 1412.282, 1070 1413.586 C 1070 1413.857, 1070.628 1413.499, 1071.395 1412.789 C 1072.162 1412.080, 1072.586 1411.162, 1072.336 1410.750 C 1072.086 1410.338, 1072.359 1410, 1072.941 1410 C 1073.523 1410, 1074 1409.395, 1074 1408.655 C 1074 1407.915, 1074.976 1406.453, 1076.170 1405.405 C 1078.049 1403.755, 1078.256 1403.727, 1077.720 1405.199 C 1077.324 1406.289, 1077.532 1406.733, 1078.301 1406.437 C 1080.153 1405.724, 1084.317 1396.606, 1082.993 1396.164 C 1082.281 1395.927, 1082.498 1395.107, 1083.594 1393.896 C 1084.538 1392.853, 1084.903 1391.993, 1084.405 1391.985 C 1083.907 1391.976, 1084.149 1391.559, 1084.942 1391.057 C 1085.885 1390.461, 1086.385 1388.411, 1086.385 1385.144 C 1086.385 1381.301, 1086.636 1380.488, 1087.471 1381.629 C 1088.361 1382.846, 1088.794 1382.458, 1089.870 1379.482 C 1090.593 1377.485, 1090.899 1375.566, 1090.552 1375.219 C 1090.205 1374.871, 1089.661 1375.580, 1089.344 1376.794 C 1088.500 1380.018, 1086.843 1379.498, 1087.614 1376.250 C 1087.973 1374.738, 1088.271 1372.263, 1088.277 1370.750 C 1088.282 1369.238, 1088.672 1368, 1089.144 1368 C 1090.689 1368, 1090.041 1364.866, 1087.862 1361.807 C 1086.106 1359.340, 1085.225 1358.905, 1082.918 1359.366 C 1080.817 1359.787, 1079.974 1359.494, 1079.564 1358.201 C 1078.944 1356.250, 1079.426 1348.740, 1080.257 1347.388 C 1081.264 1345.751, 1074.451 1338.774, 1071.532 1338.454 C 1070.011 1338.287, 1067.557 1336.992, 1066.079 1335.575 C 1064.600 1334.159, 1062.601 1333, 1061.636 1333 C 1060.551 1333, 1060.158 1332.553, 1060.605 1331.830 C 1061.100 1331.029, 1060.769 1330.875, 1059.553 1331.341 C 1058.229 1331.849, 1057.926 1331.635, 1058.362 1330.499 C 1058.815 1329.317, 1058.424 1329.107, 1056.617 1329.560 C 1055.168 1329.924, 1053.693 1329.550, 1052.715 1328.572 C 1051.850 1327.708, 1050.243 1327, 1049.143 1327 C 1048.043 1327, 1046.439 1326.296, 1045.579 1325.436 C 1044.719 1324.576, 1043.559 1324.155, 1043.001 1324.500 C 1042.443 1324.845, 1041.716 1324.423, 1041.386 1323.563 C 1041.056 1322.704, 1039.934 1322, 1038.893 1322 C 1037.852 1322, 1037 1321.540, 1037 1320.979 C 1037 1320.417, 1035.763 1319.430, 1034.250 1318.785 C 1032.737 1318.141, 1030.713 1316.956, 1029.750 1316.152 C 1028.787 1315.348, 1028 1314.946, 1028 1315.259 C 1028 1315.572, 1025.412 1314.579, 1022.250 1313.052 C 1019.087 1311.526, 1015.487 1309.959, 1014.250 1309.571 C 1013.013 1309.183, 1012 1308.446, 1012 1307.933 C 1012 1307.420, 1011.196 1307, 1010.212 1307 C 1009.229 1307, 1006.866 1305.668, 1004.962 1304.041 C 1003.058 1302.413, 1000.712 1301.063, 999.749 1301.041 C 998.786 1301.018, 996.311 1299.308, 994.249 1297.239 C 990.512 1293.490, 988.088 1291.981, 982.611 1289.993 C 981.023 1289.416, 979.989 1288.678, 980.314 1288.353 C 981.458 1287.209, 977.975 1284.866, 975.005 1284.781 C 972.579 1284.712, 972 1284.261, 972 1282.441 C 972 1280.658, 971.570 1280.300, 969.941 1280.726 C 968.430 1281.121, 967.734 1280.700, 967.327 1279.143 C 967.022 1277.977, 966.339 1277.290, 965.810 1277.617 C 965.281 1277.945, 963.108 1276.814, 960.982 1275.106 C 956.510 1271.512, 956.005 1271.375, 955.985 1273.750 C 955.972 1275.163, 955.798 1275.229, 955.077 1274.091 C 954.587 1273.316, 954.417 1272.078, 954.700 1271.341 C 954.982 1270.603, 954.730 1270, 954.138 1270 C 953.547 1270, 953.315 1269.343, 953.623 1268.540 C 954.025 1267.492, 953.608 1267.190, 952.149 1267.471 C 950.696 1267.751, 950.274 1267.449, 950.672 1266.413 C 951.129 1265.222, 950.747 1265.146, 948.530 1265.989 C 945.095 1267.294, 944.373 1266.803, 943.590 1262.626 C 943.239 1260.758, 942.401 1259.249, 941.726 1259.273 C 938.530 1259.383, 937.022 1258.900, 937.250 1257.839 C 937.387 1257.200, 936.418 1256.402, 935.095 1256.066 C 932.729 1255.465, 931.675 1254.216, 930.604 1250.750 C 930.306 1249.787, 929.135 1249, 928 1249 C 926.865 1249, 925.679 1248.328, 925.364 1247.507 C 924.988 1246.525, 924.014 1246.209, 922.520 1246.584 C 920.686 1247.045, 920.059 1246.608, 919.259 1244.314 C 918.715 1242.751, 917.043 1240.017, 915.546 1238.237 C 912.642 1234.786, 910.074 1234.258, 904.277 1235.921 C 901.662 1236.671, 900.593 1236.468, 898.503 1234.824 C 896.615 1233.339, 895.597 1233.089, 894.645 1233.879 C 893.734 1234.636, 893.039 1234.639, 892.292 1233.892 C 891.545 1233.145, 890.756 1233.510, 889.622 1235.129 C 888.206 1237.152, 888.192 1237.528, 889.506 1238.263 C 890.328 1238.723, 891 1239.602, 891 1240.216 C 891 1240.831, 890.718 1241.051, 890.373 1240.707 C 890.028 1240.362, 888.466 1240.742, 886.900 1241.552 C 884.320 1242.886, 884.112 1242.871, 884.678 1241.395 C 885.672 1238.808, 882.154 1241.097, 877.642 1245.975 L 873.784 1250.146 871.853 1248.073 C 869.791 1245.860, 868 1245.361, 868 1247 C 868 1247.550, 867.501 1248, 866.892 1248 C 866.205 1248, 866.009 1246.953, 866.377 1245.250 C 866.913 1242.771, 866.849 1242.691, 865.736 1244.436 C 865.056 1245.500, 863.487 1247.352, 862.250 1248.550 C 861.013 1249.749, 860 1251.433, 860 1252.293 C 860 1253.153, 859.383 1254.474, 858.630 1255.227 C 856.707 1257.150, 853.972 1262.638, 854.615 1263.282 C 854.910 1263.576, 854.262 1264.100, 853.175 1264.445 C 852.088 1264.789, 850.916 1266.199, 850.570 1267.577 C 850.224 1268.955, 849.505 1269.812, 848.971 1269.482 C 848.437 1269.152, 848 1269.925, 848 1271.199 C 848 1273.354, 835.473 1295.422, 829.097 1304.500 C 827.552 1306.700, 825.546 1310.075, 824.639 1312 C 821.831 1317.960, 798.449 1344.112, 787.534 1353.500 C 784.336 1356.250, 780.096 1359.994, 778.110 1361.820 C 776.125 1363.646, 771.393 1367.921, 767.596 1371.320 C 763.799 1374.719, 759.968 1378.181, 759.083 1379.014 C 756.066 1381.850, 751.046 1385.106, 749.117 1385.478 C 748.058 1385.681, 742.762 1388.204, 737.346 1391.084 C 731.931 1393.964, 726.491 1396.811, 725.258 1397.410 C 724.025 1398.010, 723.012 1398.838, 723.008 1399.250 C 723.004 1399.662, 721.923 1400, 720.607 1400 C 719.291 1400, 717.955 1400.675, 717.638 1401.500 C 717.322 1402.325, 716.261 1403, 715.281 1403 C 713.026 1403, 702.132 1406.661, 695.180 1409.756 C 679.990 1416.519, 643.889 1421.625, 604.289 1422.613 C 591.665 1422.928, 587.129 1422.687, 583.789 1421.523 C 581.430 1420.701, 578.577 1420.023, 577.450 1420.015 C 576.322 1420.007, 574.870 1419.470, 574.223 1418.823 C 573.576 1418.176, 568.198 1415.127, 562.273 1412.048 C 553.330 1407.400, 551.549 1406.095, 551.789 1404.365 C 551.976 1403.016, 551.152 1401.675, 549.452 1400.561 C 546.354 1398.531, 545.043 1399.185, 547.429 1401.571 C 549.766 1403.909, 548.723 1404.425, 545.270 1402.640 C 541.792 1400.841, 539.138 1398, 540.937 1398 C 541.586 1398, 541.810 1397.502, 541.434 1396.893 C 540.957 1396.122, 540.492 1396.198, 539.900 1397.143 C 539.192 1398.274, 538.589 1398.246, 536.275 1396.975 C 534.749 1396.137, 533.056 1394.449, 532.513 1393.225 C 531.540 1391.033, 530.444 1390.614, 526.500 1390.930 C 525 1391.050, 524.836 1390.862, 525.845 1390.177 C 526.823 1389.513, 524.876 1388.004, 518.691 1384.633 C 514.016 1382.085, 509.811 1379.998, 509.346 1379.996 C 508.881 1379.993, 506.176 1378.230, 503.336 1376.076 C 500.496 1373.923, 497.908 1372.425, 497.586 1372.747 C 497.264 1373.070, 497 1372.886, 497 1372.340 C 497 1371.794, 494.300 1369.391, 491 1367 C 485.495 1363.012, 483.751 1361, 485.800 1361 C 486.240 1361, 487.133 1361.533, 487.783 1362.183 C 488.434 1362.834, 489.312 1363.006, 489.733 1362.566 C 490.155 1362.126, 489.639 1361.256, 488.588 1360.633 C 487.536 1360.010, 485.949 1358.825, 485.061 1358 C 484.173 1357.175, 481.132 1354.748, 478.304 1352.606 C 473.322 1348.834, 467.274 1339.984, 468.416 1338.137 C 468.711 1337.658, 468.049 1336.450, 466.945 1335.450 C 465.840 1334.450, 463.606 1331.353, 461.981 1328.566 C 460.355 1325.780, 457.550 1321.881, 455.747 1319.903 C 453.943 1317.924, 451.350 1314.848, 449.984 1313.066 C 448.618 1311.285, 447.025 1309.304, 446.444 1308.664 C 445.424 1307.540, 443.764 1304.170, 443.586 1302.864 C 443.539 1302.514, 442.262 1300.990, 440.750 1299.477 C 438.164 1296.892, 436.741 1291.104, 439.041 1292.525 C 439.613 1292.879, 439.820 1293.993, 439.500 1295 C 438.863 1297.008, 440.481 1298.648, 441.490 1297.016 C 441.835 1296.457, 441.615 1296, 441 1296 C 440.385 1296, 440.150 1295.566, 440.478 1295.035 C 440.807 1294.504, 439.310 1291.242, 437.152 1287.785 C 432.802 1280.816, 428 1271.905, 428 1270.803 C 428 1270.411, 426.601 1267.032, 424.891 1263.295 C 423.182 1259.558, 421.436 1255.600, 421.011 1254.500 C 420.587 1253.400, 419.428 1250.555, 418.435 1248.178 L 416.631 1243.856 415.146 1246.678 L 413.660 1249.500 412.277 1246.126 C 411.516 1244.271, 411.062 1241.796, 411.268 1240.626 C 411.603 1238.728, 411.777 1238.821, 412.892 1241.500 C 413.955 1244.054, 414.279 1244.253, 415.070 1242.839 C 415.735 1241.650, 415.040 1238.935, 412.628 1233.299 C 410.773 1228.966, 408.746 1223.042, 408.122 1220.134 C 407.498 1217.226, 406.462 1213.868, 405.819 1212.673 C 405.176 1211.478, 404.330 1208.925, 403.939 1207 C 402.635 1200.579, 397.005 1175.687, 393.249 1159.735 C 390.839 1149.500, 389.283 1144.589, 388.812 1145.735 C 388.414 1146.706, 388.334 1145.695, 388.634 1143.490 C 388.942 1141.220, 388.489 1136.817, 387.589 1133.345 C 386.715 1129.972, 386 1125.787, 386 1124.047 C 386 1122.306, 385.593 1121.133, 385.096 1121.440 C 384.600 1121.748, 383.968 1119.862, 383.694 1117.249 C 383.419 1114.637, 382.719 1107.775, 382.138 1102 C 381.557 1096.225, 380.639 1090.018, 380.098 1088.206 C 379.557 1086.394, 378.805 1080.701, 378.427 1075.555 C 377.603 1064.327, 376.776 1062.479, 374.113 1065.916 L 372.241 1068.332 370.048 1063.416 C 368.300 1059.498, 367.755 1055.964, 367.362 1046 C 367.091 1039.125, 366.477 1032.375, 365.997 1031 C 363.972 1025.194, 363.088 1017.914, 363.032 1006.584 C 363 1000.023, 363.743 997.014, 364.720 999.750 C 364.966 1000.438, 365.977 1001, 366.967 1001 C 368.447 1001, 368.892 999.829, 369.472 994.420 C 370.398 985.772, 370.119 953.781, 369.023 943 C 368.548 938.325, 368.123 933.990, 368.080 933.367 C 368.036 932.743, 367.171 932.016, 366.157 931.751 C 363.915 931.165, 363.155 923.965, 363.648 908 C 363.827 902.225, 364.155 891.650, 364.378 884.500 C 364.921 867.109, 366.228 841.986, 367.734 820 C 368.130 814.225, 368.374 808.825, 368.276 808 C 368.179 807.175, 368.494 804.925, 368.977 803 C 369.460 801.075, 370.093 796.350, 370.383 792.500 C 371.981 771.304, 373.015 761.739, 374.437 755 C 377.546 740.275, 378.814 735.733, 380.027 734.984 C 380.703 734.566, 380.971 733.762, 380.622 733.197 C 380.273 732.633, 380.416 732.020, 380.940 731.835 C 381.463 731.651, 383.297 723.448, 385.015 713.607 C 386.733 703.765, 388.969 691.825, 389.984 687.073 C 391 682.320, 392.113 675.297, 392.458 671.466 C 392.803 667.635, 393.329 663.375, 393.626 662 C 393.924 660.625, 394.371 657.700, 394.619 655.500 C 395.850 644.580, 398.445 633.140, 399.949 632 C 400.312 631.725, 401.619 627.460, 402.853 622.522 C 404.087 617.584, 406.425 611.091, 408.048 608.094 C 409.672 605.097, 411 601.240, 411 599.522 C 411 597.805, 411.465 595.935, 412.033 595.367 C 413.157 594.243, 412.325 591, 410.912 591 C 410.431 591, 409.756 592.125, 409.411 593.500 C 409.066 594.875, 408.334 596, 407.785 596 C 407.235 596, 407.006 595.426, 407.276 594.724 C 407.545 594.023, 408.297 590.760, 408.947 587.474 C 410.728 578.473, 413.004 572.025, 416.276 566.707 C 420.082 560.521, 425.372 547.015, 427.392 538.326 C 428.836 532.119, 433.653 517.751, 440.372 499.608 C 442.777 493.116, 447.510 484.931, 449.315 484.145 C 449.763 483.950, 450.506 482.798, 450.967 481.586 C 452.635 477.201, 464.044 463.211, 473.097 454.452 C 478.185 449.528, 489.133 438.727, 497.424 430.449 C 505.716 422.171, 514.975 413.531, 518 411.248 C 526.554 404.793, 527.591 403.789, 530.398 399.250 C 531.843 396.913, 533.410 395, 533.880 395 C 534.350 395, 537.711 392.124, 541.349 388.610 C 549.237 380.989, 552.397 379.019, 561.564 376.010 C 565.379 374.758, 568.950 373.402, 569.500 372.997 C 570.050 372.592, 573.650 371.661, 577.500 370.928 C 581.350 370.195, 584.725 369.304, 585 368.948 C 585.275 368.592, 589.448 367.798, 594.272 367.183 C 599.097 366.569, 605.172 365.388, 607.772 364.558 C 616.412 361.802, 628.527 358.988, 644.500 356.027 C 652.914 354.467, 658.321 354.083, 667.500 354.391 C 683.528 354.929, 700.365 356.642, 706.500 358.358 C 713.104 360.207, 726.237 364.972, 727.500 365.978 C 729.354 367.455, 741.561 371.969, 749.058 373.949 C 766.280 378.499, 778.166 386.858, 805.297 413.500 C 812.018 420.100, 820.312 428.086, 823.728 431.246 C 829.600 436.678, 831.412 439.131, 841.775 455.675 C 844.126 459.429, 848.519 465.200, 851.537 468.500 C 854.668 471.923, 858.991 478.365, 861.603 483.500 C 867.409 494.911, 872.635 504.386, 875.943 509.500 C 877.366 511.700, 880.098 516.557, 882.015 520.293 C 884.184 524.521, 887.802 529.311, 891.595 532.978 C 897.385 538.574, 898.470 539.070, 902 537.735 C 902.825 537.422, 904.625 536.922, 906 536.623 C 907.495 536.297, 909.009 534.919, 909.765 533.195 C 910.815 530.800, 912 530.089, 916.765 528.990 C 924.096 527.300, 924.355 527.139, 922.799 525.224 C 921.679 523.846, 921.757 523.722, 923.361 524.324 C 924.773 524.854, 925.080 524.652, 924.634 523.489 C 924.029 521.913, 927.375 517.708, 928.410 518.744 C 928.728 519.061, 929.778 518.425, 930.744 517.329 C 931.710 516.234, 934.677 514.071, 937.338 512.523 C 939.998 510.974, 942.397 509.129, 942.668 508.423 C 942.939 507.716, 944.459 507.175, 946.046 507.220 C 947.633 507.265, 948.744 507.605, 948.515 507.975 C 948.287 508.345, 950.646 508.559, 953.758 508.449 C 956.893 508.340, 959.584 507.749, 959.791 507.126 C 959.998 506.507, 961.142 505.995, 962.333 505.989 C 965.061 505.976, 979.064 499.473, 984.924 495.500 C 987.357 493.850, 990.890 491.038, 992.774 489.250 C 994.658 487.463, 996.416 486, 996.681 486 C 996.945 486, 999.586 484.390, 1002.550 482.423 C 1005.964 480.157, 1008.614 479.060, 1009.781 479.431 C 1010.949 479.801, 1013.065 478.924, 1015.562 477.035 C 1017.728 475.397, 1020.486 474.043, 1021.691 474.028 C 1022.896 474.013, 1024.138 473.585, 1024.452 473.078 C 1025.171 471.915, 1036.279 466.590, 1041.250 465.025 C 1043.313 464.376, 1045 463.430, 1045 462.922 C 1045 462.415, 1045.434 462, 1045.965 462 C 1047.482 462, 1055.221 456.784, 1058.205 453.750 C 1059.692 452.238, 1061.333 451, 1061.852 451 C 1063.700 451, 1069.001 445.519, 1069.079 443.527 C 1069.122 442.412, 1069.385 442.063, 1069.662 442.750 C 1069.940 443.437, 1070.855 444, 1071.697 444 C 1072.828 444, 1073.112 443.218, 1072.787 441 C 1072.279 437.539, 1073.239 437.275, 1077.888 439.594 C 1080.791 441.042, 1081.385 441.045, 1084.371 439.628 L 1087.659 438.068 1087.364 422.112 C 1087.087 407.133, 1086.899 405.786, 1084.301 400.096 C 1081.345 393.622, 1079.144 391.734, 1078.303 394.949 C 1077.828 396.766, 1077.632 396.713, 1075.554 394.203 C 1074.324 392.716, 1072.766 389.250, 1072.093 386.500 C 1071.420 383.750, 1070.296 380.600, 1069.594 379.500 C 1068.892 378.400, 1067.303 374.125, 1066.062 370 C 1064.821 365.875, 1063.341 361.933, 1062.772 361.240 C 1062.203 360.546, 1061.356 357.933, 1060.888 355.432 C 1060.421 352.930, 1059.394 349.447, 1058.607 347.692 C 1057.819 345.936, 1055.703 340.724, 1053.904 336.108 C 1051.760 330.607, 1050.006 327.553, 1048.811 327.240 C 1047.809 326.978, 1046.086 324.905, 1044.981 322.632 C 1039.592 311.542, 1030.134 296.509, 1028.628 296.637 C 1027.744 296.712, 1027.256 296.395, 1027.543 295.931 C 1028.198 294.871, 1025.385 288, 1024.295 288 C 1023.851 288, 1022.413 285.637, 1021.098 282.750 C 1019.783 279.863, 1016.411 273.915, 1013.604 269.533 C 1010.797 265.150, 1008.050 260.799, 1007.500 259.863 C 1006.950 258.927, 1004.565 255.537, 1002.199 252.330 C 999.834 249.124, 995.229 242.795, 991.965 238.266 C 988.702 233.737, 985.237 229.223, 984.266 228.233 C 983.295 227.244, 981.159 224.649, 979.521 222.467 C 977.882 220.285, 975.407 217.182, 974.021 215.571 C 969.605 210.441, 944.444 185, 943.786 185 C 943.438 185, 941.851 183.762, 940.260 182.250 C 938.668 180.738, 935.624 178.150, 933.495 176.500 C 931.366 174.850, 928.292 172.262, 926.664 170.750 C 925.036 169.238, 923.312 168, 922.833 168 C 922.355 168, 917.359 165.009, 911.732 161.353 C 906.104 157.697, 899.174 153.197, 896.331 151.353 C 893.487 149.509, 890.014 148, 888.611 148 C 887.208 148, 884.458 147.100, 882.500 146 C 880.542 144.900, 878.449 144, 877.849 144 C 876.849 144, 873.458 142.048, 864.563 136.350 C 862.717 135.168, 860.147 133.895, 858.853 133.523 C 857.559 133.150, 852 130.702, 846.500 128.081 C 841 125.461, 833.350 122.534, 829.500 121.577 C 825.650 120.620, 821.600 119.447, 820.500 118.969 C 813.982 116.140, 801.735 113.617, 794.250 113.561 C 789.712 113.528, 786 113.201, 786 112.835 C 786 112.470, 783.188 111.986, 779.750 111.760 C 776.313 111.534, 770.800 110.395, 767.500 109.228 C 756.739 105.424, 747.133 102.800, 746.163 103.399 C 745.640 103.722, 743.308 103.314, 740.981 102.493 C 738.653 101.672, 735.717 101, 734.457 101 C 733.197 101, 729.991 100.067, 727.333 98.926 C 716.531 94.289, 704.204 92.946, 670 92.681 C 654.325 92.559, 637.900 92.777, 633.500 93.164 M 711 100 C 711 100.550, 711.450 101, 712 101 C 712.550 101, 713 100.550, 713 100 C 713 99.450, 712.550 99, 712 99 C 711.450 99, 711 99.450, 711 100 M 675.500 103 C 675.840 103.550, 676.316 104, 676.559 104 C 676.802 104, 677 103.550, 677 103 C 677 102.450, 676.523 102, 675.941 102 C 675.359 102, 675.160 102.450, 675.500 103 M 649.500 122 C 649.160 122.550, 649.332 123, 649.882 123 C 650.432 123, 651.160 122.550, 651.500 122 C 651.840 121.450, 651.668 121, 651.118 121 C 650.568 121, 649.840 121.450, 649.500 122 M 350.558 183.907 C 350.249 184.405, 350.898 184.578, 351.999 184.290 C 354.334 183.679, 354.629 183, 352.559 183 C 351.766 183, 350.866 183.408, 350.558 183.907 M 338.490 193.010 C 336.915 194.655, 336.082 196, 336.639 196 C 337.925 196, 342.508 191.174, 341.848 190.514 C 341.576 190.243, 340.065 191.366, 338.490 193.010 M 325.584 205.641 C 325.057 207.014, 325.204 207.076, 326.477 206.019 C 328.212 204.579, 328.393 204, 327.107 204 C 326.616 204, 325.931 204.739, 325.584 205.641 M 347.667 478.667 C 347.300 479.033, 347 479.798, 347 480.367 C 347 480.993, 347.466 480.934, 348.183 480.217 C 348.834 479.566, 349.134 478.801, 348.850 478.517 C 348.566 478.233, 348.033 478.300, 347.667 478.667 M 447.158 493 C 447.158 494.375, 447.385 494.938, 447.662 494.250 C 447.940 493.563, 447.940 492.438, 447.662 491.750 C 447.385 491.063, 447.158 491.625, 447.158 493 M 405.630 600.250 C 405.299 601.487, 405.035 603.400, 405.044 604.500 C 405.057 606.103, 405.226 606.202, 405.895 605 C 407.299 602.478, 408.092 598, 407.136 598 C 406.639 598, 405.962 599.013, 405.630 600.250 M 128.552 651.731 C 127.622 655.433, 126.526 658.920, 126.117 659.481 C 125.707 660.041, 124.339 663.875, 123.077 668 C 121.815 672.125, 120.381 676.534, 119.891 677.797 C 119.401 679.060, 119 680.753, 119 681.558 C 119 682.363, 118.142 684.929, 117.092 687.261 C 114.811 692.330, 113.864 697.212, 115.251 696.750 C 115.795 696.568, 117.239 694.638, 118.460 692.460 C 120.420 688.963, 121.266 686.508, 122.411 681 C 122.582 680.175, 122.970 678.825, 123.273 678 C 124.915 673.529, 126 669.490, 126 667.851 C 126 666.833, 126.953 665.047, 128.118 663.882 C 129.484 662.516, 129.852 661.527, 129.156 661.096 C 128.561 660.729, 128.334 659.437, 128.651 658.225 C 128.968 657.014, 129.514 656.198, 129.864 656.413 C 130.214 656.628, 130.565 654.148, 130.644 650.902 C 130.724 647.656, 130.666 645, 130.516 645 C 130.366 645, 129.482 648.029, 128.552 651.731 M 151.079 650.583 C 151.127 651.748, 151.364 651.985, 151.683 651.188 C 151.972 650.466, 151.936 649.603, 151.604 649.271 C 151.272 648.939, 151.036 649.529, 151.079 650.583 M 109.500 691 C 109.160 691.550, 109.359 692, 109.941 692 C 110.523 692, 111 691.550, 111 691 C 111 690.450, 110.802 690, 110.559 690 C 110.316 690, 109.840 690.450, 109.500 691 M 111.649 710.233 C 111.328 711.461, 111.501 712.901, 112.033 713.433 C 112.656 714.056, 113 713.261, 113 711.200 C 113 707.460, 112.473 707.083, 111.649 710.233 M 109 719 C 107.707 719.835, 107.734 719.971, 109.191 719.985 C 110.121 719.993, 111.160 719.550, 111.500 719 C 112.282 717.734, 110.958 717.734, 109 719 M 104.751 722.560 C 103.928 724.177, 102.747 728.462, 102.127 732.082 C 100.160 743.571, 100.947 749.179, 104.009 745.489 C 104.991 744.306, 104.989 744, 104 744 C 103.079 744, 103.042 743.655, 103.857 742.673 C 104.463 741.943, 105.669 738.230, 106.538 734.423 C 107.407 730.615, 108.342 726.600, 108.617 725.500 C 108.892 724.400, 108.471 722.627, 107.683 721.560 C 106.298 719.686, 106.196 719.721, 104.751 722.560 M 363 821.667 C 363 825.883, 363.210 829.123, 363.468 828.866 C 364.330 828.004, 364.672 814, 363.831 814 C 363.374 814, 363 817.450, 363 821.667 M 362.446 838.087 C 362.077 838.685, 362.275 839.675, 362.887 840.287 C 363.704 841.104, 364 840.815, 364 839.200 C 364 836.785, 363.481 836.413, 362.446 838.087 M 362.667 843.667 C 362.300 844.033, 362 847.708, 362 851.833 C 362 855.958, 362.179 859.146, 362.398 858.917 C 362.903 858.388, 364.140 843, 363.677 843 C 363.488 843, 363.033 843.300, 362.667 843.667 M 361.604 862.107 C 360.702 864.946, 360.240 875.770, 360.970 876.952 C 361.386 877.625, 362.047 874.495, 362.440 869.998 C 363.094 862.501, 362.690 858.690, 361.604 862.107 M 361.136 881.668 C 361.061 882.861, 360.741 884.661, 360.424 885.668 C 359.880 887.402, 359.910 887.405, 360.990 885.721 C 361.618 884.743, 361.938 882.943, 361.702 881.721 C 361.273 879.502, 361.272 879.502, 361.136 881.668 M 360.252 892.500 C 360.263 894.700, 360.468 895.482, 360.707 894.238 C 360.946 892.994, 360.937 891.194, 360.687 890.238 C 360.437 889.282, 360.241 890.300, 360.252 892.500 M 359.870 900.583 C 359.361 912.020, 360.057 926.968, 360.960 924 C 361.729 921.471, 361.288 898.954, 360.452 898.119 C 360.204 897.870, 359.942 898.979, 359.870 900.583 M 98.079 912.583 C 98.127 913.748, 98.364 913.985, 98.683 913.188 C 98.972 912.466, 98.936 911.603, 98.604 911.271 C 98.272 910.939, 98.036 911.529, 98.079 912.583 M 166.079 998.583 C 166.127 999.748, 166.364 999.985, 166.683 999.188 C 166.972 998.466, 166.936 997.603, 166.604 997.271 C 166.272 996.939, 166.036 997.529, 166.079 998.583 M 392.293 1169.738 C 392.485 1172.068, 392.947 1174.281, 393.321 1174.654 C 394.409 1175.743, 394.073 1168.653, 392.957 1167 C 392.217 1165.903, 392.039 1166.639, 392.293 1169.738 M 393 1178.941 C 393 1180.009, 393.385 1181.120, 393.856 1181.411 C 394.326 1181.702, 394.499 1180.828, 394.239 1179.470 C 393.675 1176.519, 393 1176.231, 393 1178.941 M 398.079 1200.583 C 398.127 1201.748, 398.364 1201.985, 398.683 1201.188 C 398.972 1200.466, 398.936 1199.603, 398.604 1199.271 C 398.272 1198.939, 398.036 1199.529, 398.079 1200.583 M 399 1205 C 399 1206.100, 399.408 1207, 399.906 1207 C 400.405 1207, 400.577 1206.100, 400.290 1205 C 400.002 1203.900, 399.594 1203, 399.383 1203 C 399.173 1203, 399 1203.900, 399 1205 M 409.015 1234.750 C 409.007 1235.987, 409.450 1237, 410 1237 C 411.253 1237, 411.253 1235.939, 410 1234 C 409.216 1232.787, 409.028 1232.931, 409.015 1234.750 M 405.477 1247.732 C 406.219 1251.683, 407.882 1255.451, 408.578 1254.756 C 409.136 1254.197, 406.077 1244, 405.350 1244 C 405.035 1244, 405.092 1245.679, 405.477 1247.732 M 888 1244.819 C 888 1246.027, 889.897 1247.436, 890.591 1246.743 C 890.842 1246.491, 890.362 1245.716, 889.524 1245.020 C 888.574 1244.231, 888 1244.155, 888 1244.819 M 416.079 1248.583 C 416.127 1249.748, 416.364 1249.985, 416.683 1249.188 C 416.972 1248.466, 416.936 1247.603, 416.604 1247.271 C 416.272 1246.939, 416.036 1247.529, 416.079 1248.583 M 416.015 1256.536 C 416.043 1258.257, 417.871 1260.463, 418.636 1259.697 C 419.046 1259.288, 418.620 1258.192, 417.690 1257.262 C 416.761 1256.332, 416.007 1256.005, 416.015 1256.536 M 423 1271 C 423 1271.550, 423.477 1272, 424.059 1272 C 424.641 1272, 424.840 1271.550, 424.500 1271 C 424.160 1270.450, 423.684 1270, 423.441 1270 C 423.198 1270, 423 1270.450, 423 1271 M 955.079 1278.583 C 955.127 1279.748, 955.364 1279.985, 955.683 1279.188 C 955.972 1278.466, 955.936 1277.603, 955.604 1277.271 C 955.272 1276.939, 955.036 1277.529, 955.079 1278.583 M 434.500 1291 C 434.840 1291.550, 435.568 1292, 436.118 1292 C 436.668 1292, 436.840 1291.550, 436.500 1291 C 436.160 1290.450, 435.432 1290, 434.882 1290 C 434.332 1290, 434.160 1290.450, 434.500 1291 M 960 1311.059 C 960 1311.641, 960.450 1311.840, 961 1311.500 C 961.550 1311.160, 962 1310.684, 962 1310.441 C 962 1310.198, 961.550 1310, 961 1310 C 960.450 1310, 960 1310.477, 960 1311.059 M 1009.369 1326.480 C 1008.525 1328.680, 1009.453 1329.364, 1010.906 1327.613 C 1011.724 1326.628, 1011.766 1325.974, 1011.041 1325.526 C 1010.461 1325.167, 1009.708 1325.596, 1009.369 1326.480 M 1030.500 1338 C 1030.840 1338.550, 1031.316 1339, 1031.559 1339 C 1031.802 1339, 1032 1338.550, 1032 1338 C 1032 1337.450, 1031.523 1337, 1030.941 1337 C 1030.359 1337, 1030.160 1337.450, 1030.500 1338 M 1047.500 1346 C 1047.840 1346.550, 1048.316 1347, 1048.559 1347 C 1048.802 1347, 1049 1346.550, 1049 1346 C 1049 1345.450, 1048.523 1345, 1047.941 1345 C 1047.359 1345, 1047.160 1345.450, 1047.500 1346 M 1053.813 1347.683 C 1054.534 1347.972, 1055.397 1347.936, 1055.729 1347.604 C 1056.061 1347.272, 1055.471 1347.036, 1054.417 1347.079 C 1053.252 1347.127, 1053.015 1347.364, 1053.813 1347.683 M 1062 1352 C 1062 1352.550, 1062.477 1353, 1063.059 1353 C 1063.641 1353, 1063.840 1352.550, 1063.500 1352 C 1063.160 1351.450, 1062.684 1351, 1062.441 1351 C 1062.198 1351, 1062 1351.450, 1062 1352 M 1070 1353.167 C 1070 1354.358, 1070.296 1355.037, 1070.658 1354.675 C 1071.020 1354.313, 1071.920 1354.519, 1072.658 1355.131 C 1074.739 1356.858, 1074.239 1355.239, 1072 1353 L 1070 1351 1070 1353.167 M 1081 1352.500 C 1081 1353.325, 1081.450 1354, 1082 1354 C 1082.550 1354, 1083 1353.325, 1083 1352.500 C 1083 1351.675, 1082.550 1351, 1082 1351 C 1081.450 1351, 1081 1351.675, 1081 1352.500 M 1065 1353.559 C 1065 1354.416, 1065.457 1354.835, 1066.016 1354.490 C 1066.575 1354.144, 1066.774 1353.443, 1066.457 1352.931 C 1065.600 1351.544, 1065 1351.802, 1065 1353.559 M 1017.584 1354.641 C 1017.057 1356.014, 1017.204 1356.076, 1018.477 1355.019 C 1020.212 1353.579, 1020.393 1353, 1019.107 1353 C 1018.616 1353, 1017.931 1353.739, 1017.584 1354.641 M 1022.500 1360 C 1022.160 1360.550, 1022.359 1361, 1022.941 1361 C 1023.523 1361, 1024 1360.550, 1024 1360 C 1024 1359.450, 1023.802 1359, 1023.559 1359 C 1023.316 1359, 1022.840 1359.450, 1022.500 1360 M 1083.500 1362 C 1083.160 1362.550, 1083.359 1363, 1083.941 1363 C 1084.523 1363, 1085 1362.550, 1085 1362 C 1085 1361.450, 1084.802 1361, 1084.559 1361 C 1084.316 1361, 1083.840 1361.450, 1083.500 1362 M 783.215 1364.561 C 781.958 1365.903, 781.317 1367, 781.790 1367 C 782.264 1367, 783.708 1365.875, 785 1364.500 C 786.292 1363.125, 786.933 1362.028, 786.424 1362.061 C 785.916 1362.095, 784.472 1363.220, 783.215 1364.561 M 480.773 1365.780 C 482.573 1367.276, 485.998 1370.188, 488.384 1372.250 C 490.771 1374.313, 492.991 1376, 493.317 1376 C 493.644 1376, 495.569 1377.125, 497.595 1378.500 C 499.621 1379.875, 502.229 1380.976, 503.390 1380.948 C 505.410 1380.897, 505.396 1380.823, 503.047 1379.198 C 501.698 1378.264, 498.548 1375.579, 496.047 1373.231 C 493.546 1370.883, 490.262 1368.689, 488.750 1368.356 C 487.238 1368.023, 486 1367.362, 486 1366.888 C 486 1366.100, 479.592 1362.960, 478.128 1363.030 C 477.783 1363.047, 478.973 1364.284, 480.773 1365.780 M 1018.552 1365.561 C 1017.629 1366.970, 1017.015 1368.501, 1017.187 1368.965 C 1017.359 1369.428, 1018.278 1368.276, 1019.229 1366.404 C 1021.271 1362.382, 1020.921 1361.946, 1018.552 1365.561 M 781.250 1370.055 C 779.462 1371.731, 778 1373.334, 778 1373.619 C 778 1374.352, 783.422 1370.402, 784.961 1368.547 C 787.206 1365.843, 784.626 1366.891, 781.250 1370.055 M 1090 1370 C 1090 1370.550, 1090.450 1371, 1091 1371 C 1091.550 1371, 1092 1370.550, 1092 1370 C 1092 1369.450, 1091.550 1369, 1091 1369 C 1090.450 1369, 1090 1369.450, 1090 1370 M 1037.667 1378.667 C 1037.300 1379.033, 1037 1379.798, 1037 1380.367 C 1037 1380.993, 1037.466 1380.934, 1038.183 1380.217 C 1038.834 1379.566, 1039.134 1378.801, 1038.850 1378.517 C 1038.566 1378.233, 1038.033 1378.300, 1037.667 1378.667 M 533 1392.902 C 533 1393.940, 534.902 1395.443, 535.466 1394.850 C 535.649 1394.658, 535.169 1393.920, 534.399 1393.211 C 533.630 1392.501, 533 1392.362, 533 1392.902 M 1004.583 1396.866 C 1004.152 1397.563, 1004.070 1398.403, 1004.400 1398.733 C 1005.295 1399.628, 1006.271 1398.312, 1005.787 1396.862 C 1005.449 1395.846, 1005.213 1395.846, 1004.583 1396.866 M 851.029 1412.961 C 850.220 1413.473, 849.818 1414.152, 850.136 1414.470 C 850.455 1414.788, 851.284 1414.362, 851.980 1413.524 C 853.423 1411.786, 853.146 1411.622, 851.029 1412.961 M 1063.459 1413.067 C 1063.096 1413.653, 1063.014 1414.348, 1063.276 1414.610 C 1063.538 1414.872, 1064.019 1414.392, 1064.345 1413.543 C 1065.021 1411.781, 1064.445 1411.471, 1063.459 1413.067 M 1067 1419 C 1067 1420.650, 1067.423 1422, 1067.941 1422 C 1069.472 1422, 1070.121 1420.207, 1068.756 1419.748 C 1067.772 1419.417, 1067.797 1418.965, 1068.872 1417.663 C 1070.054 1416.232, 1070.019 1416, 1068.622 1416 C 1067.486 1416, 1067 1416.899, 1067 1419 M 980.660 1432.442 C 979.963 1434.260, 981.140 1435.150, 982.845 1434.096 C 983.822 1433.492, 983.783 1433.065, 982.664 1432.136 C 981.539 1431.202, 981.111 1431.268, 980.660 1432.442 M 979.500 1438 C 979.160 1438.550, 979.359 1439, 979.941 1439 C 980.523 1439, 981 1438.550, 981 1438 C 981 1437.450, 980.802 1437, 980.559 1437 C 980.316 1437, 979.840 1437.450, 979.500 1438 M 805 1441.059 C 805 1441.641, 805.450 1441.840, 806 1441.500 C 806.550 1441.160, 807 1440.684, 807 1440.441 C 807 1440.198, 806.550 1440, 806 1440 C 805.450 1440, 805 1440.477, 805 1441.059 M 1012.667 1440.667 C 1012.300 1441.033, 1012 1441.798, 1012 1442.367 C 1012 1442.993, 1012.466 1442.934, 1013.183 1442.217 C 1013.834 1441.566, 1014.134 1440.801, 1013.850 1440.517 C 1013.566 1440.233, 1013.033 1440.300, 1012.667 1440.667 M 1051 1441.059 C 1051 1441.641, 1051.450 1441.840, 1052 1441.500 C 1052.550 1441.160, 1053 1440.684, 1053 1440.441 C 1053 1440.198, 1052.550 1440, 1052 1440 C 1051.450 1440, 1051 1440.477, 1051 1441.059 M 1006 1449.059 C 1006 1449.641, 1006.450 1449.840, 1007 1449.500 C 1007.550 1449.160, 1008 1448.684, 1008 1448.441 C 1008 1448.198, 1007.550 1448, 1007 1448 C 1006.450 1448, 1006 1448.477, 1006 1449.059 M 231 1470.882 C 231 1471.432, 231.450 1472.160, 232 1472.500 C 232.550 1472.840, 233 1472.668, 233 1472.118 C 233 1471.568, 232.550 1470.840, 232 1470.500 C 231.450 1470.160, 231 1470.332, 231 1470.882 M 1028.500 1473 C 1028.840 1473.550, 1029.316 1474, 1029.559 1474 C 1029.802 1474, 1030 1473.550, 1030 1473 C 1030 1472.450, 1029.523 1472, 1028.941 1472 C 1028.359 1472, 1028.160 1472.450, 1028.500 1473 M 237.022 1479.191 C 237.060 1481.409, 240.626 1485.413, 241.420 1484.129 C 241.809 1483.500, 241.423 1482.716, 240.563 1482.386 C 239.704 1482.056, 239 1481.186, 239 1480.452 C 239 1479.718, 238.550 1478.840, 238 1478.500 C 237.450 1478.160, 237.010 1478.471, 237.022 1479.191 M 242 1487.441 C 242 1488.298, 242.450 1489, 243 1489 C 243.550 1489, 244 1488.577, 244 1488.059 C 244 1487.541, 243.550 1486.840, 243 1486.500 C 242.450 1486.160, 242 1486.584, 242 1487.441 M 672.813 1488.683 C 673.534 1488.972, 674.397 1488.936, 674.729 1488.604 C 675.061 1488.272, 674.471 1488.036, 673.417 1488.079 C 672.252 1488.127, 672.015 1488.364, 672.813 1488.683 M 971.767 1490.780 C 970.873 1491.726, 969.404 1493.109, 968.503 1493.853 C 967.602 1494.597, 967.104 1495.829, 967.397 1496.592 C 967.732 1497.465, 967.039 1498.203, 965.531 1498.582 C 964.004 1498.965, 963.329 1499.695, 963.674 1500.592 C 963.971 1501.366, 963.622 1502, 962.897 1502 C 961.710 1502, 953.438 1510.204, 952.986 1511.829 C 952.884 1512.198, 952.395 1512.388, 951.900 1512.250 C 951.405 1512.113, 951 1512.661, 951 1513.469 C 951 1514.285, 950.405 1514.709, 949.660 1514.423 C 947.633 1513.645, 945.479 1516.668, 946.869 1518.342 C 947.481 1519.080, 947.687 1519.980, 947.325 1520.342 C 946.963 1520.704, 947.304 1520.973, 948.083 1520.940 C 948.862 1520.907, 951.300 1518.492, 953.500 1515.573 C 962.221 1504.003, 965.574 1500.079, 967.250 1499.485 C 968.212 1499.144, 969 1497.996, 969 1496.933 C 969 1495.870, 969.599 1495, 970.331 1495 C 971.707 1495, 974.701 1490.367, 973.865 1489.531 C 973.605 1489.272, 972.661 1489.834, 971.767 1490.780 M 902.890 1492.250 C 901.715 1494.488, 901.720 1494.490, 903.854 1492.595 C 906.238 1490.479, 906.456 1490, 905.035 1490 C 904.505 1490, 903.539 1491.013, 902.890 1492.250 M 246 1491.941 C 246 1492.459, 246.450 1493.160, 247 1493.500 C 247.550 1493.840, 248 1493.416, 248 1492.559 C 248 1491.702, 247.550 1491, 247 1491 C 246.450 1491, 246 1491.423, 246 1491.941 M 989.020 1497.476 C 988.231 1498.426, 988.155 1499, 988.819 1499 C 990.027 1499, 991.436 1497.103, 990.743 1496.409 C 990.491 1496.158, 989.716 1496.638, 989.020 1497.476 M 709.500 1501 C 709.160 1501.550, 709.359 1502, 709.941 1502 C 710.523 1502, 711 1501.550, 711 1501 C 711 1500.450, 710.802 1500, 710.559 1500 C 710.316 1500, 709.840 1500.450, 709.500 1501 M 980.568 1507.075 C 976.897 1510.967, 973.478 1515.242, 972.971 1516.575 C 972.464 1517.909, 971.363 1519, 970.525 1519 C 969.544 1519, 969 1519.941, 969 1521.640 C 969 1524.174, 969.104 1524.124, 971.618 1520.390 C 973.799 1517.148, 982.153 1506.746, 983.978 1505 C 985.638 1503.411, 988.229 1500, 987.776 1500 C 987.482 1500, 984.239 1503.184, 980.568 1507.075 M 1003.500 1504 C 1002.498 1505.107, 1001.904 1506.237, 1002.179 1506.512 C 1002.454 1506.787, 1003.498 1506.107, 1004.500 1505 C 1005.502 1503.893, 1006.096 1502.763, 1005.821 1502.488 C 1005.546 1502.213, 1004.502 1502.893, 1003.500 1504 M 832.625 1506.798 C 832.354 1507.237, 832.532 1508.243, 833.022 1509.035 C 833.693 1510.121, 833.870 1509.924, 833.743 1508.237 C 833.560 1505.810, 833.379 1505.577, 832.625 1506.798 M 845.500 1510 C 845.160 1510.550, 845.359 1511, 845.941 1511 C 846.523 1511, 847 1510.550, 847 1510 C 847 1509.450, 846.802 1509, 846.559 1509 C 846.316 1509, 845.840 1509.450, 845.500 1510 M 833 1512.500 C 833 1513.325, 833.177 1514, 833.393 1514 C 833.609 1514, 834.045 1513.325, 834.362 1512.500 C 834.678 1511.675, 834.501 1511, 833.969 1511 C 833.436 1511, 833 1511.675, 833 1512.500 M 823.500 1513 C 823.160 1513.550, 823.359 1514, 823.941 1514 C 824.523 1514, 825 1513.550, 825 1513 C 825 1512.450, 824.802 1512, 824.559 1512 C 824.316 1512, 823.840 1512.450, 823.500 1513 M 969 1513.500 C 969 1514.325, 968.647 1515, 968.216 1515 C 967.784 1515, 966.575 1516.463, 965.529 1518.250 C 963.652 1521.458, 963.653 1521.481, 965.560 1520 C 968.957 1517.363, 969.721 1516.455, 970.435 1514.203 C 970.858 1512.872, 970.713 1512, 970.067 1512 C 969.480 1512, 969 1512.675, 969 1513.500 M 254.126 1514.750 C 254.879 1515.713, 256.285 1517.228, 257.248 1518.117 C 258.212 1519.007, 259 1520.244, 259 1520.867 C 259 1521.490, 259.450 1522, 260 1522 C 261.763 1522, 261.068 1519.060, 259 1517.768 C 257.900 1517.081, 257 1516, 257 1515.366 C 257 1514.733, 256.288 1513.941, 255.418 1513.607 C 252.917 1512.647, 252.658 1512.876, 254.126 1514.750 M 830.667 1513.667 C 829.735 1514.599, 829.835 1516, 830.833 1516 C 831.292 1516, 831.667 1515.325, 831.667 1514.500 C 831.667 1512.801, 831.594 1512.740, 830.667 1513.667 M 841.244 1513.664 C 840.553 1513.943, 840.230 1514.563, 840.526 1515.042 C 841.174 1516.090, 844 1515.156, 844 1513.893 C 844 1512.930, 843.225 1512.866, 841.244 1513.664 M 820 1516 C 820 1516.550, 820.450 1517, 821 1517 C 821.550 1517, 822 1516.550, 822 1516 C 822 1515.450, 821.550 1515, 821 1515 C 820.450 1515, 820 1515.450, 820 1516 M 823 1519.035 C 821.010 1520.621, 820.908 1520.882, 822.500 1520.319 C 824.680 1519.548, 827.650 1516.986, 826.321 1517.022 C 825.870 1517.034, 824.375 1517.940, 823 1519.035 M 951.697 1520.393 C 951.288 1521.434, 951.189 1522.522, 951.476 1522.810 C 952.389 1523.722, 953.191 1522.227, 952.809 1520.328 C 952.459 1518.588, 952.405 1518.591, 951.697 1520.393 M 977.584 1524.641 C 977.057 1526.014, 977.204 1526.076, 978.477 1525.019 C 980.212 1523.579, 980.393 1523, 979.107 1523 C 978.616 1523, 977.931 1523.739, 977.584 1524.641 M 962.996 1527.504 C 960.162 1530.521, 959 1530.665, 959 1528 C 959 1525.510, 957.809 1525.449, 955.655 1527.829 C 953.596 1530.103, 953.534 1531.116, 955.500 1530.362 C 956.325 1530.045, 957 1530.209, 957 1530.726 C 957 1532.559, 961.129 1531.326, 963.742 1528.713 C 965.201 1527.254, 966.157 1525.824, 965.868 1525.534 C 965.578 1525.245, 964.286 1526.131, 962.996 1527.504 M 981 1530.059 C 981 1530.641, 981.450 1530.840, 982 1530.500 C 982.550 1530.160, 983 1529.684, 983 1529.441 C 983 1529.198, 982.550 1529, 982 1529 C 981.450 1529, 981 1529.477, 981 1530.059 M 970.158 1533 C 970.158 1534.375, 970.385 1534.938, 970.662 1534.250 C 970.940 1533.563, 970.940 1532.438, 970.662 1531.750 C 970.385 1531.063, 970.158 1531.625, 970.158 1533 M 883 1533.059 C 883 1533.641, 883.450 1533.840, 884 1533.500 C 884.550 1533.160, 885 1532.684, 885 1532.441 C 885 1532.198, 884.550 1532, 884 1532 C 883.450 1532, 883 1532.477, 883 1533.059 M 978 1533.500 C 978 1534.325, 978.177 1535, 978.393 1535 C 978.609 1535, 979.045 1534.325, 979.362 1533.500 C 979.678 1532.675, 979.501 1532, 978.969 1532 C 978.436 1532, 978 1532.675, 978 1533.500 M 879.459 1535.067 C 879.096 1535.653, 879.040 1536.373, 879.333 1536.667 C 880.050 1537.383, 882 1536.121, 882 1534.941 C 882 1533.663, 880.274 1533.748, 879.459 1535.067 M 620.813 1541.683 C 621.534 1541.972, 622.397 1541.936, 622.729 1541.604 C 623.061 1541.272, 622.471 1541.036, 621.417 1541.079 C 620.252 1541.127, 620.015 1541.364, 620.813 1541.683 M 576 1543.094 C 576 1543.592, 576.900 1544, 578 1544 C 579.100 1544, 580 1543.827, 580 1543.617 C 580 1543.406, 579.100 1542.998, 578 1542.710 C 576.900 1542.423, 576 1542.595, 576 1543.094 M 594.500 1543 C 594.160 1543.550, 594.584 1544, 595.441 1544 C 596.298 1544, 597 1543.550, 597 1543 C 597 1542.450, 596.577 1542, 596.059 1542 C 595.541 1542, 594.840 1542.450, 594.500 1543 M 599 1543 C 597.859 1543.738, 598.263 1543.973, 600.691 1543.985 C 602.446 1543.993, 604.160 1543.550, 604.500 1543 C 605.292 1541.718, 600.983 1541.718, 599 1543 M 884 1546.059 C 884 1547.191, 884.450 1547.840, 885 1547.500 C 885.550 1547.160, 886 1546.234, 886 1545.441 C 886 1544.648, 885.550 1544, 885 1544 C 884.450 1544, 884 1544.927, 884 1546.059 M 966.500 1545 C 966.160 1545.550, 966.359 1546, 966.941 1546 C 967.523 1546, 968 1545.550, 968 1545 C 968 1544.450, 967.802 1544, 967.559 1544 C 967.316 1544, 966.840 1544.450, 966.500 1545 M 515.813 1549.683 C 516.534 1549.972, 517.397 1549.936, 517.729 1549.604 C 518.061 1549.272, 517.471 1549.036, 516.417 1549.079 C 515.252 1549.127, 515.015 1549.364, 515.813 1549.683 M 868 1560.059 C 868 1560.641, 868.450 1560.840, 869 1560.500 C 869.550 1560.160, 870 1559.684, 870 1559.441 C 870 1559.198, 869.550 1559, 869 1559 C 868.450 1559, 868 1559.477, 868 1560.059 M 586 1566 C 586 1566.550, 587.237 1566.968, 588.750 1566.930 C 591.187 1566.867, 591.272 1566.762, 589.500 1566 C 586.769 1564.826, 586 1564.826, 586 1566 M 608.250 1565.689 C 609.212 1565.941, 610.788 1565.941, 611.750 1565.689 C 612.712 1565.438, 611.925 1565.232, 610 1565.232 C 608.075 1565.232, 607.288 1565.438, 608.250 1565.689 M 615.813 1565.683 C 616.534 1565.972, 617.397 1565.936, 617.729 1565.604 C 618.061 1565.272, 617.471 1565.036, 616.417 1565.079 C 615.252 1565.127, 615.015 1565.364, 615.813 1565.683 M 315.500 1573 C 315.840 1573.550, 316.316 1574, 316.559 1574 C 316.802 1574, 317 1573.550, 317 1573 C 317 1572.450, 316.523 1572, 315.941 1572 C 315.359 1572, 315.160 1572.450, 315.500 1573 M 622 1585 C 621.099 1585.582, 620.975 1585.975, 621.691 1585.985 C 622.346 1585.993, 623.160 1585.550, 623.500 1585 C 624.267 1583.758, 623.921 1583.758, 622 1585 M 789 1589.059 C 789 1589.641, 789.450 1589.840, 790 1589.500 C 790.550 1589.160, 791 1588.684, 791 1588.441 C 791 1588.198, 790.550 1588, 790 1588 C 789.450 1588, 789 1588.477, 789 1589.059 M 596.250 1589.689 C 597.212 1589.941, 598.788 1589.941, 599.750 1589.689 C 600.712 1589.438, 599.925 1589.232, 598 1589.232 C 596.075 1589.232, 595.288 1589.438, 596.250 1589.689 M 609.813 1589.683 C 610.534 1589.972, 611.397 1589.936, 611.729 1589.604 C 612.061 1589.272, 611.471 1589.036, 610.417 1589.079 C 609.252 1589.127, 609.015 1589.364, 609.813 1589.683 M 779.500 1593 C 779.160 1593.550, 779.584 1594, 780.441 1594 C 781.298 1594, 782 1593.550, 782 1593 C 782 1592.450, 781.577 1592, 781.059 1592 C 780.541 1592, 779.840 1592.450, 779.500 1593 M 873.500 1599 C 873.160 1599.550, 873.332 1600, 873.882 1600 C 874.432 1600, 875.160 1599.550, 875.500 1599 C 875.840 1598.450, 875.668 1598, 875.118 1598 C 874.568 1598, 873.840 1598.450, 873.500 1599 M 782 1602 C 782 1602.550, 782.450 1603, 783 1603 C 783.550 1603, 784 1602.550, 784 1602 C 784 1601.450, 783.550 1601, 783 1601 C 782.450 1601, 782 1601.450, 782 1602 M 457.426 1609.881 C 457.726 1610.365, 459.206 1610.997, 460.716 1611.286 C 463.283 1611.777, 463.336 1611.719, 461.540 1610.405 C 459.419 1608.855, 456.567 1608.491, 457.426 1609.881 M 758.500 1611 C 758.160 1611.550, 758.584 1612, 759.441 1612 C 760.298 1612, 761 1611.550, 761 1611 C 761 1610.450, 760.577 1610, 760.059 1610 C 759.541 1610, 758.840 1610.450, 758.500 1611 M 721 1623 C 721 1623.550, 721.423 1624, 721.941 1624 C 722.459 1624, 723.160 1623.550, 723.500 1623 C 723.840 1622.450, 723.416 1622, 722.559 1622 C 721.702 1622, 721 1622.450, 721 1623 M 380.038 1625.750 C 380.059 1626.162, 381.859 1627.733, 384.038 1629.240 C 387.291 1631.491, 388 1631.684, 388 1630.324 C 388 1629.412, 387.747 1628.919, 387.438 1629.228 C 387.129 1629.537, 385.714 1628.712, 384.292 1627.395 C 381.714 1625.006, 379.966 1624.330, 380.038 1625.750 M 438 1626.781 C 438 1627.210, 439.350 1628.071, 441 1628.694 C 444.645 1630.070, 445.023 1628.787, 441.453 1627.161 C 438.447 1625.791, 438 1625.742, 438 1626.781 M 389 1631.845 C 389 1633.046, 392.433 1636, 393.829 1636 C 395.545 1636, 395.259 1634.544, 393.171 1632.655 C 391.216 1630.886, 389 1630.456, 389 1631.845 M 406 1633 C 406 1633.550, 406.477 1634, 407.059 1634 C 407.641 1634, 407.840 1633.550, 407.500 1633 C 407.160 1632.450, 406.684 1632, 406.441 1632 C 406.198 1632, 406 1632.450, 406 1633 M 640.500 1634 C 640.160 1634.550, 640.610 1635, 641.500 1635 C 642.390 1635, 642.840 1634.550, 642.500 1634 C 642.160 1633.450, 641.710 1633, 641.500 1633 C 641.290 1633, 640.840 1633.450, 640.500 1634 M 446 1636 C 446 1636.550, 446.477 1637, 447.059 1637 C 447.641 1637, 447.840 1636.550, 447.500 1636 C 447.160 1635.450, 446.684 1635, 446.441 1635 C 446.198 1635, 446 1635.450, 446 1636 M 422 1637 C 423.958 1638.266, 425.282 1638.266, 424.500 1637 C 424.160 1636.450, 423.121 1636.007, 422.191 1636.015 C 420.734 1636.029, 420.707 1636.165, 422 1637 M 431.735 1641.105 C 433.514 1642.245, 435.522 1642.993, 436.197 1642.768 C 436.872 1642.543, 435.910 1641.603, 434.059 1640.679 C 429.356 1638.333, 427.840 1638.611, 431.735 1641.105 M 769 1642.500 C 767.625 1643.286, 766.976 1643.945, 767.559 1643.965 C 768.141 1643.984, 769.491 1643.339, 770.559 1642.532 C 773.028 1640.664, 772.239 1640.648, 769 1642.500 M 413 1643.551 C 413 1644.142, 419.417 1647.004, 420.718 1646.993 C 421.148 1646.990, 420.150 1646.093, 418.500 1645 C 415.614 1643.089, 413 1642.400, 413 1643.551 M 439 1644 C 439.825 1644.533, 441.400 1644.969, 442.500 1644.969 C 444.156 1644.969, 444.242 1644.803, 443 1644 C 442.175 1643.467, 440.600 1643.031, 439.500 1643.031 C 437.844 1643.031, 437.758 1643.197, 439 1644 M 446.768 1646.168 C 447.350 1646.750, 448.415 1647.028, 449.137 1646.788 C 449.886 1646.538, 449.432 1646.085, 448.080 1645.731 C 446.417 1645.296, 446.026 1645.426, 446.768 1646.168 M 756.441 1647.486 C 754.665 1648.846, 754.777 1648.880, 757.750 1647.888 C 761.143 1646.756, 761.921 1646, 759.691 1646 C 758.971 1646, 757.509 1646.669, 756.441 1647.486 M 422.500 1648 C 422.840 1648.550, 423.568 1649, 424.118 1649 C 424.668 1649, 424.840 1648.550, 424.500 1648 C 424.160 1647.450, 423.432 1647, 422.882 1647 C 422.332 1647, 422.160 1647.450, 422.500 1648 M 451.768 1648.168 C 452.350 1648.750, 453.415 1649.028, 454.137 1648.788 C 454.886 1648.538, 454.432 1648.085, 453.080 1647.731 C 451.417 1647.296, 451.026 1647.426, 451.768 1648.168 M 410 1648.411 C 410 1648.914, 418.816 1653.232, 419.215 1652.924 C 419.372 1652.803, 421.300 1653.620, 423.500 1654.740 C 428.147 1657.106, 435 1659.145, 435 1658.164 C 435 1657.437, 432.381 1656.249, 424.500 1653.402 C 421.750 1652.409, 418.150 1650.789, 416.500 1649.802 C 413.791 1648.182, 410 1647.370, 410 1648.411 M 458 1649.393 C 458 1649.609, 458.675 1650.045, 459.500 1650.362 C 460.325 1650.678, 461 1650.501, 461 1649.969 C 461 1649.436, 460.325 1649, 459.500 1649 C 458.675 1649, 458 1649.177, 458 1649.393 M 428 1650.921 C 428 1651.514, 428.873 1652, 429.941 1652 C 431.009 1652, 432.167 1652.462, 432.516 1653.027 C 432.865 1653.591, 433.679 1653.970, 434.325 1653.869 C 434.971 1653.767, 436.175 1653.917, 437 1654.201 C 445.458 1657.114, 447 1657.411, 447 1656.130 C 447 1655.651, 444.863 1654.717, 442.250 1654.054 C 439.637 1653.391, 436.810 1652.490, 435.967 1652.051 C 433.008 1650.512, 428 1649.802, 428 1650.921 M 606.500 1658 C 606.160 1658.550, 606.359 1659, 606.941 1659 C 607.523 1659, 608 1658.550, 608 1658 C 608 1657.450, 607.802 1657, 607.559 1657 C 607.316 1657, 606.840 1657.450, 606.500 1658 M 437 1658.921 C 437 1659.514, 437.494 1660, 438.099 1660 C 438.703 1660, 440.695 1660.711, 442.526 1661.579 C 444.356 1662.448, 446.899 1662.977, 448.177 1662.755 C 450.377 1662.373, 450.394 1662.312, 448.500 1661.603 C 447.400 1661.191, 445.810 1660.494, 444.967 1660.054 C 442.016 1658.514, 437 1657.800, 437 1658.921 M 460.500 1661.383 C 463.733 1662.789, 471 1664.365, 471 1663.660 C 471 1663.424, 468.778 1662.503, 466.062 1661.615 C 460.049 1659.648, 456.137 1659.485, 460.500 1661.383 M 438.244 1666.250 C 438.470 1666.938, 439.970 1667.645, 441.577 1667.822 C 444.393 1668.132, 444.427 1668.087, 442.500 1666.604 C 440.072 1664.734, 437.681 1664.535, 438.244 1666.250 M 477.500 1667 C 477.840 1667.550, 478.879 1667.993, 479.809 1667.985 C 481.266 1667.971, 481.293 1667.835, 480 1667 C 478.042 1665.734, 476.718 1665.734, 477.500 1667 M 565 1670 C 565.825 1670.533, 567.850 1670.931, 569.500 1670.885 C 572.440 1670.802, 572.450 1670.785, 570 1670 C 568.625 1669.560, 566.600 1669.161, 565.500 1669.115 C 563.852 1669.045, 563.764 1669.201, 565 1670 M 578.638 1671.500 C 578.955 1672.325, 579.642 1673, 580.166 1673 C 580.690 1673, 580.864 1672.588, 580.553 1672.085 C 580.242 1671.582, 580.553 1670.943, 581.244 1670.664 C 581.935 1670.386, 581.502 1670.122, 580.281 1670.079 C 578.704 1670.023, 578.229 1670.433, 578.638 1671.500 M 584.269 1671.693 C 585.242 1671.947, 586.592 1671.930, 587.269 1671.656 C 587.946 1671.382, 587.150 1671.175, 585.500 1671.195 C 583.850 1671.215, 583.296 1671.439, 584.269 1671.693 M 499 1675 C 500.957 1676.264, 503 1676.264, 503 1675 C 503 1674.450, 501.762 1674.007, 500.250 1674.015 C 498.107 1674.027, 497.831 1674.245, 499 1675 M 613.510 1684.016 C 613.856 1684.575, 614.557 1684.774, 615.069 1684.457 C 616.456 1683.600, 616.198 1683, 614.441 1683 C 613.584 1683, 613.165 1683.457, 613.510 1684.016" stroke="none" fill="black" fill-rule="evenodd"/>
</svg>