<svg xmlns="http://www.w3.org/2000/svg" width="1240" height="1753" viewBox="0 0 1240 1753" version="1.1">
	<path d="M 554.500 62.206 C 552.850 62.730, 550.825 63.421, 550 63.743 C 549.175 64.064, 548.275 64.404, 548 64.497 C 547.725 64.591, 546.375 65.138, 545 65.713 C 543.625 66.288, 541.600 66.943, 540.500 67.168 C 539.400 67.393, 538.553 68.289, 538.618 69.160 C 538.700 70.277, 538.139 70.587, 536.711 70.214 C 535.353 69.859, 534.920 70.062, 535.396 70.831 C 535.870 71.599, 535.534 71.759, 534.378 71.315 C 533.082 70.817, 532.805 71.048, 533.263 72.244 C 533.622 73.178, 533.259 74.070, 532.385 74.406 C 531.422 74.775, 531.117 74.540, 531.522 73.739 C 531.867 73.057, 531.522 73.262, 530.756 74.192 C 529.990 75.123, 528.269 76.845, 526.932 78.019 C 525.594 79.192, 525.063 79.867, 525.750 79.517 C 527.960 78.394, 527.085 80.614, 524.077 83.762 C 522.469 85.444, 521.419 87.086, 521.744 87.410 C 522.068 87.735, 521.587 88, 520.675 88 C 519.763 88, 517.776 89.249, 516.259 90.775 C 511.698 95.361, 498.170 105.011, 497.811 103.934 C 497.619 103.358, 496.631 103.585, 495.488 104.468 C 493.883 105.709, 493.837 105.888, 495.250 105.395 C 496.230 105.054, 497 105.273, 497 105.893 C 497 106.502, 495.848 107, 494.441 107 C 492.990 107, 492.149 107.433, 492.500 108 C 492.861 108.583, 491.844 109, 490.059 109 C 486.765 109, 485.881 110.561, 488.750 111.311 C 490.067 111.655, 489.943 111.797, 488.250 111.884 C 486.968 111.950, 486 112.645, 486 113.500 C 486 114.325, 485.550 115, 485 115 C 484.450 115, 483.993 114.438, 483.985 113.750 C 483.974 112.905, 483.667 112.977, 483.037 113.974 C 482.423 114.945, 482.513 115.706, 483.303 116.208 C 484.160 116.753, 484.074 116.986, 483 117.027 C 482.175 117.059, 480.396 118.416, 479.047 120.042 C 477.698 121.669, 475.984 123, 475.238 123 C 474.492 123, 474.160 123.450, 474.500 124 C 474.840 124.550, 474.754 125.002, 474.309 125.004 C 473.864 125.006, 470.207 128.164, 466.182 132.021 C 462.157 135.878, 458.445 138.775, 457.932 138.458 C 457.419 138.141, 457 138.406, 457 139.046 C 457 139.686, 455.191 142.075, 452.979 144.355 C 440.590 157.127, 435.248 162.958, 433.107 166.047 C 430.811 169.360, 418.402 180.755, 413.600 183.961 C 410.882 185.776, 399.850 195.737, 401.905 194.522 C 402.865 193.953, 403.078 194.064, 402.579 194.872 C 402.178 195.522, 401.318 195.931, 400.669 195.782 C 400.020 195.633, 398.591 196.283, 397.494 197.227 C 392.172 201.806, 386.611 206.673, 384.899 208.250 C 383.855 209.213, 382.523 210, 381.941 210 C 381.359 210, 381.160 210.450, 381.500 211 C 381.840 211.550, 381.650 212, 381.078 212 C 379.695 212, 368 223.662, 368 225.040 C 368 225.633, 367.618 225.882, 367.151 225.594 C 365.826 224.774, 358 232.925, 358 235.124 C 358 235.734, 357.134 236.007, 356.075 235.730 C 354.724 235.377, 354.308 235.640, 354.682 236.613 C 355.004 237.454, 354.558 238, 353.548 238 C 352.632 238, 352.171 238.468, 352.525 239.041 C 352.879 239.613, 354.143 239.814, 355.334 239.488 L 357.500 238.894 355.293 240.823 C 354.078 241.884, 353.390 243.056, 353.762 243.429 C 354.134 243.801, 353.665 243.809, 352.720 243.446 C 351.584 243.010, 351 243.275, 351 244.228 C 351 245.507, 345.761 251, 344.540 251 C 344.278 251, 344.358 250.213, 344.719 249.250 C 345.293 247.718, 345.165 247.671, 343.687 248.872 C 342.539 249.807, 342 249.876, 342 249.091 C 342 248.456, 342.675 247.678, 343.500 247.362 C 344.325 247.045, 345 246.306, 345 245.719 C 345 245.132, 343.875 245.708, 342.500 247 C 339.631 249.695, 339.324 251, 341.559 251 C 342.427 251, 342.820 251.482, 342.446 252.087 C 341.962 252.870, 341.470 252.870, 340.687 252.087 C 339.126 250.526, 337.689 250.748, 338.342 252.449 C 338.674 253.314, 338.415 253.718, 337.699 253.451 C 337.040 253.206, 333.800 255.771, 330.500 259.152 C 327.200 262.534, 325.015 265.010, 325.645 264.656 C 326.275 264.301, 327.057 264.707, 327.384 265.558 C 327.724 266.443, 327.555 266.843, 326.989 266.493 C 326.445 266.157, 326 266.776, 326 267.868 C 326 268.961, 324.875 270.740, 323.500 271.821 C 322.125 272.903, 321 274.286, 321 274.894 C 321 275.502, 320.627 276, 320.172 276 C 319.717 276, 316.704 278.672, 313.478 281.939 C 310.251 285.205, 307.254 287.657, 306.817 287.387 C 306.380 287.117, 306.319 287.668, 306.681 288.612 C 307.167 289.877, 306.987 290.110, 306 289.500 C 305.029 288.900, 304.831 289.116, 305.279 290.285 C 305.670 291.304, 305.456 291.732, 304.699 291.449 C 304.040 291.201, 302.449 292.545, 301.165 294.435 C 299.881 296.326, 298.306 297.750, 297.665 297.600 C 297.024 297.450, 296.838 297.517, 297.250 297.747 C 297.663 297.978, 298 298.654, 298 299.250 C 298 299.846, 297.737 300.071, 297.417 299.750 C 297.096 299.429, 296.003 299.917, 294.988 300.833 C 291.208 304.248, 290.194 304.863, 289.447 304.190 C 289.026 303.810, 288.973 304.311, 289.329 305.302 C 289.723 306.397, 289.581 306.859, 288.968 306.480 C 287.293 305.445, 282.322 310.340, 282.507 312.844 C 282.611 314.258, 281.892 315.480, 280.587 316.107 C 278.552 317.085, 278.548 317.071, 280.441 315.555 C 282.652 313.784, 281.814 313.494, 278.934 315.035 C 277.870 315.605, 277 316.730, 277 317.535 C 277 318.341, 276.339 319, 275.531 319 C 274.637 319, 274.288 319.586, 274.638 320.500 C 275.049 321.570, 274.538 322.004, 272.857 322.015 C 271.524 322.024, 270.975 322.350, 271.594 322.765 C 272.374 323.289, 272.315 324.361, 271.389 326.500 C 270.590 328.346, 270.073 328.827, 270.045 327.750 C 269.998 325.908, 268 325.233, 268 327.059 C 268 327.641, 267.601 327.871, 267.113 327.570 C 266.625 327.268, 266.288 327.804, 266.363 328.761 C 266.555 331.195, 269.018 332.581, 270.104 330.866 C 270.580 330.115, 270.976 329.893, 270.985 330.372 C 270.993 330.852, 271.675 330.685, 272.500 330 C 273.325 329.315, 274 329.120, 274 329.565 C 274 330.572, 265.650 337.984, 265.117 337.450 C 264.904 337.237, 265.444 335.972, 266.317 334.639 C 267.852 332.296, 267.814 332.197, 265.203 331.684 C 261.590 330.975, 260.806 331.962, 260.232 337.941 C 259.964 340.724, 259.367 343, 258.904 343 C 258.441 343, 258.350 343.749, 258.701 344.664 C 259.099 345.701, 258.942 346.082, 258.283 345.675 C 257.702 345.316, 256.671 345.692, 255.991 346.511 C 255.311 347.330, 255.116 348, 255.558 348 C 255.999 348, 255.030 349.237, 253.403 350.750 C 251.325 352.683, 250.454 354.428, 250.473 356.623 C 250.493 358.974, 250.870 359.607, 252 359.185 C 253.296 358.702, 253.310 358.859, 252.107 360.337 C 250.287 362.575, 251.179 363.339, 254.707 362.564 C 257.380 361.977, 260.737 358.404, 259.644 357.310 C 258.868 356.535, 264.178 350.992, 265.132 351.582 C 266.074 352.164, 275 346.348, 275 345.152 C 275 344.738, 274.460 343.860, 273.800 343.200 C 272.953 342.353, 272.932 342, 273.727 342 C 274.346 342, 275.057 341.212, 275.307 340.250 C 275.556 339.288, 275.651 340.382, 275.518 342.683 C 275.385 344.984, 274.539 347.603, 273.638 348.504 C 271.980 350.163, 271.370 355.481, 272.750 356.253 C 273.163 356.483, 272.938 356.535, 272.250 356.367 C 270.608 355.967, 268 356.993, 268 358.039 C 268 359.555, 272.994 358.353, 275.261 356.291 C 276.492 355.171, 278.015 354.444, 278.644 354.675 C 280.392 355.318, 279.002 359.072, 277.129 358.766 C 275.963 358.576, 275.509 359.248, 275.530 361.134 C 275.549 362.756, 275.107 363.595, 274.382 363.316 C 273.733 363.067, 272.901 363.352, 272.532 363.948 C 272.163 364.545, 271.456 364.782, 270.960 364.475 C 270.464 364.169, 269.776 365.043, 269.431 366.418 C 269.086 367.793, 268.173 369.442, 267.402 370.081 C 265.194 371.914, 265.607 376, 268 376 C 270.188 376, 270.757 373.472, 268.750 372.662 C 267.965 372.345, 267.919 372.129, 268.628 372.079 C 269.248 372.036, 270.238 372.582, 270.829 373.294 C 271.626 374.254, 271.279 375.352, 269.488 377.544 C 267.626 379.822, 267.064 380.099, 267.036 378.750 C 267.016 377.788, 266.325 377, 265.500 377 C 264.675 377, 264 376.325, 264 375.500 C 264 374.667, 263.111 374, 262 374 C 260.075 374, 259.660 373.228, 259.852 370 C 259.912 368.993, 259.760 368.911, 259.388 369.750 C 259.083 370.437, 257.971 371, 256.917 371 C 255.862 371, 255 371.502, 255 372.117 C 255 372.741, 255.882 373.003, 257 372.710 C 259.666 372.013, 259.621 374.379, 256.917 377.083 C 255.771 378.229, 255.120 379.454, 255.471 379.804 C 255.822 380.155, 256.478 379.845, 256.929 379.114 C 257.889 377.561, 259.190 379.093, 258.667 381.160 C 258.480 381.897, 258.517 382.162, 258.747 381.750 C 258.978 381.337, 261.042 381.007, 263.333 381.015 C 265.625 381.024, 267.017 381.361, 266.427 381.765 C 265.837 382.169, 265.064 383.288, 264.708 384.250 C 264.353 385.212, 263.429 386, 262.654 386 C 261.879 386, 260.707 386.648, 260.049 387.441 C 259.392 388.233, 258.212 388.635, 257.427 388.334 C 256.642 388.032, 256 388.284, 256 388.893 C 256 389.502, 256.477 390, 257.059 390 C 257.641 390, 257.810 390.498, 257.434 391.107 C 256.953 391.885, 256.511 391.826, 255.944 390.910 C 255.333 389.921, 254.648 390.197, 253.103 392.053 C 250.611 395.048, 250.463 396.143, 252.664 395.299 C 253.783 394.869, 254.091 395.043, 253.605 395.830 C 253.207 396.474, 252.196 397, 251.358 397 C 250.519 397, 250.030 397.562, 250.270 398.250 C 250.511 398.938, 251.413 399.376, 252.275 399.224 C 253.138 399.072, 254.051 399.747, 254.306 400.724 C 254.560 401.701, 254.820 400.330, 254.884 397.679 C 254.989 393.295, 255.143 393, 256.571 394.429 C 258.632 396.489, 258.497 396.549, 261.051 392.418 C 262.978 389.300, 263.451 389.022, 264.705 390.276 C 265.955 391.527, 265.957 392.168, 264.718 395.133 C 263.932 397.013, 261.650 400.289, 259.645 402.415 C 257.640 404.541, 255.964 407.004, 255.921 407.890 C 255.870 408.925, 255.662 409.053, 255.338 408.250 C 254.516 406.214, 253.268 406.819, 252.755 409.500 C 252.492 410.875, 252.735 412, 253.294 412 C 253.853 412, 253.623 412.788, 252.783 413.750 C 250.846 415.971, 248.743 420, 249.521 420 C 249.847 420, 251.425 418.563, 253.030 416.807 C 256.138 413.404, 257.993 413.437, 255.857 416.857 C 254.410 419.174, 254.654 419.664, 257.500 420.155 C 259.017 420.417, 259.430 420.017, 259.208 418.500 C 258.999 417.064, 259.167 416.870, 259.804 417.810 C 260.483 418.812, 261.080 418.526, 262.346 416.595 C 263.256 415.206, 264 413.642, 264 413.119 C 264 412.595, 264.338 412.017, 264.750 411.833 C 265.163 411.650, 267.485 408.890, 269.911 405.699 C 274.554 399.593, 278.529 396.384, 277.307 399.727 C 276.951 400.702, 275.836 402.573, 274.830 403.885 C 273.823 405.197, 273 406.587, 273 406.974 C 273 407.362, 270.539 410.339, 267.531 413.589 C 264.523 416.840, 261.788 420.738, 261.452 422.250 C 261.116 423.763, 260.427 425, 259.921 425 C 259.414 425, 259 425.724, 259 426.608 C 259 427.860, 259.604 428.065, 261.723 427.533 C 264.347 426.875, 264.383 426.919, 262.723 428.754 C 260.331 431.396, 260.569 432.315, 263.500 431.755 C 264.875 431.492, 266 431.665, 266 432.139 C 266 432.612, 266.675 433, 267.500 433 C 268.333 433, 269 433.889, 269 435 C 269 436.100, 268.602 437, 268.117 437 C 267.631 437, 267.032 438.050, 266.787 439.333 C 266.176 442.532, 268.511 442.352, 270.037 439.083 C 271.182 436.633, 271.285 436.603, 272.052 438.500 C 272.847 440.469, 272.861 440.468, 272.930 438.429 C 272.968 437.289, 273.882 434.589, 274.960 432.429 C 276.572 429.198, 276.927 428.912, 276.960 430.821 C 276.982 432.098, 276.299 433.844, 275.442 434.700 C 274.586 435.557, 274.133 436.903, 274.435 437.692 C 274.738 438.481, 274.314 440.426, 273.493 442.014 C 271.719 445.444, 271.658 446, 273.059 446 C 273.641 446, 273.794 445.437, 273.399 444.750 C 273.003 444.063, 273.048 443.834, 273.498 444.241 C 273.948 444.649, 275.032 444.424, 275.908 443.741 C 277.252 442.693, 277.328 442.734, 276.394 444 C 274.790 446.177, 274.021 450, 275.187 450 C 275.737 450, 276.414 449.131, 276.692 448.069 C 276.970 447.007, 277.828 445.896, 278.599 445.601 C 279.369 445.305, 280 444.374, 280 443.531 C 280 442.689, 280.417 442, 280.927 442 C 281.436 442, 282.042 441.438, 282.272 440.750 C 282.502 440.063, 282.480 440.825, 282.223 442.443 C 281.966 444.062, 281.136 446.007, 280.378 446.765 C 279.620 447.523, 279.010 449.123, 279.022 450.321 C 279.044 452.452, 279.087 452.445, 280.987 450 L 282.930 447.500 282.715 450.748 C 282.597 452.534, 282.275 453.998, 282 454 C 281.725 454.003, 281.450 455.391, 281.389 457.086 C 281.328 458.781, 281.553 459.777, 281.889 459.300 C 283.032 457.678, 285.503 458.519, 285.328 460.471 C 285.123 462.768, 287.672 464.924, 290.645 464.968 C 292.576 464.997, 292.711 465.347, 292 468.500 C 291.118 472.411, 292.148 473.054, 294.322 469.950 C 295.717 467.959, 295.771 467.986, 296.201 470.914 C 296.454 472.639, 296.078 474.494, 295.322 475.250 C 294.226 476.345, 294.323 476.571, 295.886 476.571 C 297.013 476.571, 297.574 476.053, 297.279 475.286 C 297.008 474.579, 297.254 474, 297.826 474 C 298.397 474, 299.153 474.907, 299.505 476.015 C 299.856 477.123, 300.612 477.740, 301.184 477.386 C 302.731 476.430, 304.004 479.137, 303.309 481.906 C 302.831 483.811, 303.029 484.203, 304.237 483.739 C 305.377 483.302, 305.643 483.651, 305.266 485.090 C 304.876 486.583, 305.143 486.882, 306.428 486.389 C 307.461 485.993, 308.636 486.463, 309.516 487.625 C 310.297 488.656, 310.951 488.965, 310.968 488.312 C 310.986 487.659, 311.845 487.188, 312.878 487.266 C 314.472 487.386, 314.675 488.002, 314.225 491.357 C 313.846 494.187, 314.022 495.104, 314.848 494.594 C 315.529 494.173, 316 494.519, 316 495.441 C 316 497.124, 317.620 497.594, 318.167 496.070 C 318.748 494.449, 321.638 497.378, 322.374 500.334 C 322.799 502.040, 322.703 502.935, 322.133 502.582 C 321.592 502.248, 321.427 502.918, 321.749 504.146 C 322.263 506.113, 322.415 506.152, 323.544 504.609 C 324.644 503.105, 324.916 503.278, 326.064 506.211 L 327.350 509.500 327.735 506.817 C 328.011 504.892, 328.668 504.175, 330.060 504.279 C 332.010 504.426, 332.870 506, 331 506 C 330.450 506, 330 506.675, 330 507.500 C 330 508.359, 330.901 509, 332.106 509 C 333.264 509, 335.127 510.163, 336.245 511.584 C 337.843 513.616, 338.479 513.883, 339.220 512.834 C 339.854 511.936, 339.958 512.429, 339.538 514.346 C 338.763 517.881, 340.599 520.577, 342.633 518.890 C 343.663 518.035, 344 518.058, 344 518.985 C 344 519.704, 344.668 519.958, 345.611 519.596 C 346.753 519.157, 347.057 519.408, 346.655 520.457 C 346.343 521.270, 346.525 522.206, 347.060 522.537 C 347.595 522.868, 347.774 523.557, 347.457 524.069 C 347.141 524.581, 347.561 525, 348.391 525 C 349.221 525, 350.311 524.267, 350.812 523.372 C 351.411 522.301, 351.954 522.117, 352.398 522.835 C 352.769 523.436, 352.157 524.843, 351.036 525.964 C 349.011 527.989, 348.272 531, 349.800 531 C 350.240 531, 351.123 530.477, 351.763 529.837 C 352.647 528.953, 353.181 529.347, 353.991 531.476 C 354.577 533.017, 355.339 533.994, 355.686 533.647 C 356.032 533.301, 356.891 533.495, 357.594 534.078 C 358.499 534.829, 359.502 534.802, 361.031 533.984 C 363.013 532.923, 363.131 533.019, 362.472 535.164 L 361.755 537.500 363.627 535.410 C 364.657 534.260, 366.850 533.009, 368.500 532.630 C 370.684 532.127, 371.092 532.215, 370 532.954 C 368.662 533.860, 369.245 534.424, 371.214 534.130 C 371.607 534.072, 371.671 534.694, 371.357 535.512 C 370.997 536.449, 371.381 537, 372.393 537 C 373.277 537, 374 537.675, 374 538.500 C 374 540.683, 375.651 540.336, 377.443 537.777 L 379 535.555 379 538.309 C 379 539.834, 378.331 541.320, 377.500 541.638 C 375.403 542.443, 375.628 543.571, 377.886 543.571 C 379.013 543.571, 379.574 543.053, 379.279 542.286 C 378.690 540.749, 380.603 540.548, 381.530 542.049 C 382.409 543.471, 385 541.284, 385 539.118 C 385 538.218, 385.900 536.919, 387 536.232 C 388.349 535.390, 389 535.338, 389 536.075 C 389 537.537, 405.866 519.997, 406.559 517.815 C 406.858 516.873, 407.979 515.824, 409.051 515.484 C 410.123 515.144, 411 514.276, 411 513.555 C 411 511.366, 413.464 509.864, 414.824 511.224 C 416.639 513.039, 416.218 514.204, 414 513.500 C 412.853 513.136, 412 513.320, 412 513.933 C 412 514.520, 412.477 515, 413.059 515 C 413.641 515, 413.810 515.498, 413.434 516.107 C 412.937 516.911, 412.559 516.905, 412.051 516.083 C 411.578 515.317, 410.761 515.606, 409.516 516.982 C 408.506 518.099, 408.001 519.334, 408.394 519.727 C 408.787 520.120, 409.527 519.780, 410.039 518.971 C 410.839 517.706, 410.972 517.723, 410.985 519.095 C 411.009 521.625, 407.629 524.229, 406.190 522.790 C 404.627 521.227, 401.851 524.735, 402.623 527.298 C 403.271 529.447, 401.388 532, 399.155 532 C 397.955 532, 398.110 531.611, 399.777 530.443 C 401.937 528.931, 402.767 526.993, 401.250 527.007 C 399.302 527.025, 395.849 534.030, 396.138 537.379 C 396.304 539.311, 396.116 541.217, 395.720 541.613 C 394.139 543.195, 395.157 543.815, 397.999 543 C 400.190 542.372, 401.385 542.527, 402.435 543.578 C 403.333 544.476, 404.106 544.638, 404.495 544.008 C 405.705 542.050, 407.228 543.029, 406.762 545.465 C 406.503 546.821, 406.788 548.153, 407.395 548.425 C 408.003 548.698, 407.262 548.665, 405.750 548.352 C 403.996 547.989, 403 548.206, 403 548.951 C 403 549.593, 403.450 549.840, 404 549.500 C 404.550 549.160, 404.993 549.246, 404.985 549.691 C 404.963 550.843, 403.034 553.688, 403.015 552.595 C 403.007 552.097, 402.179 552.433, 401.175 553.342 C 400.171 554.250, 398.235 555.086, 396.872 555.198 C 395.230 555.334, 394.347 556.049, 394.251 557.320 C 394.110 559.185, 394.144 559.186, 395.491 557.368 C 396.841 555.548, 396.913 555.549, 398.307 557.430 C 399.705 559.317, 399.764 559.310, 400.949 557.095 C 401.616 555.848, 402.364 555.031, 402.611 555.278 C 402.859 555.525, 405.185 553.769, 407.780 551.374 C 410.376 548.980, 412.837 547.017, 413.250 547.011 C 413.663 547.005, 414 546.395, 414 545.655 C 414 544.915, 414.889 543.505, 415.976 542.521 C 417.063 541.538, 417.665 540.266, 417.312 539.696 C 416.925 539.070, 417.304 538.903, 418.271 539.274 C 419.151 539.611, 420.071 539.350, 420.315 538.694 C 420.630 537.850, 421.270 537.985, 422.497 539.152 C 424.142 540.717, 424.122 540.865, 422.117 541.938 C 419.912 543.117, 419.187 547.380, 421 548.500 C 421.550 548.840, 422 548.261, 422 547.214 C 422 546.167, 422.900 544.495, 424 543.500 C 425.100 542.505, 426 540.995, 426 540.145 C 426 539.011, 426.296 538.896, 427.112 539.712 C 427.928 540.528, 429.059 539.884, 431.362 537.294 C 438.011 529.815, 439.984 528, 441.466 528 C 442.310 528, 443 527.531, 443 526.958 C 443 526.385, 443.464 525.372, 444.031 524.708 C 450.003 517.712, 451 516.782, 451 518.213 C 451 519.078, 450.325 520.045, 449.500 520.362 C 448.675 520.678, 448 521.626, 448 522.469 C 448 523.311, 447.647 524, 447.216 524 C 446.784 524, 445.634 525.350, 444.659 527 C 443.684 528.650, 442.237 530, 441.443 530 C 440.604 530, 440.013 530.941, 440.032 532.250 C 440.061 534.334, 440.162 534.371, 441.392 532.750 C 442.123 531.788, 443.068 531, 443.492 531 C 443.917 531, 445.749 529.425, 447.565 527.500 C 449.380 525.575, 451.683 524.014, 452.683 524.032 C 454.362 524.061, 454.348 524.179, 452.500 525.575 C 451.400 526.406, 450.449 527.404, 450.387 527.793 C 450.068 529.787, 447.459 535, 446.781 535 C 446.351 535, 446 535.723, 446 536.607 C 446 537.674, 445.458 538.006, 444.389 537.596 C 443.219 537.147, 442.942 537.405, 443.377 538.541 C 443.707 539.400, 443.563 539.848, 443.058 539.536 C 442.552 539.223, 441.856 539.425, 441.510 539.984 C 441.165 540.543, 441.662 541, 442.615 541 C 444.096 541, 444.007 541.363, 442.004 543.496 C 439.537 546.122, 437.804 546.146, 439.980 543.524 C 440.676 542.686, 440.906 542, 440.492 542 C 440.078 542, 436.645 545.150, 432.863 549 C 429.081 552.850, 425.540 556, 424.994 556 C 424.447 556, 424 556.614, 424 557.365 C 424 558.116, 423.067 559.916, 421.927 561.365 C 419.895 563.948, 419.893 564, 421.820 564 C 422.902 564, 424.047 563.321, 424.365 562.491 C 424.684 561.661, 425.294 561.039, 425.722 561.109 C 428.360 561.542, 429.863 560.682, 430.433 558.412 C 430.959 556.317, 431.352 556.047, 432.497 556.998 C 434.216 558.424, 436.006 557.497, 435.985 555.191 C 435.973 553.861, 435.786 553.790, 435.110 554.857 C 434.636 555.604, 433.991 555.794, 433.673 555.280 C 432.839 553.930, 434.064 549.922, 435.114 550.570 C 435.601 550.872, 436 550.672, 436 550.126 C 436 549.581, 436.915 548.844, 438.034 548.489 C 439.152 548.134, 440.840 547.021, 441.784 546.016 C 442.728 545.011, 444.400 544.034, 445.500 543.844 C 448.175 543.384, 450.996 540.188, 451.015 537.597 C 451.028 535.877, 451.205 535.769, 452 537 C 452.841 538.302, 452.971 538.283, 452.985 536.857 C 452.993 535.953, 453.704 534.944, 454.563 534.614 C 455.423 534.284, 455.847 533.561, 455.504 533.007 C 455.162 532.453, 455.321 532, 455.858 532 C 456.394 532, 457.060 532.562, 457.338 533.250 C 457.639 533.997, 457.874 533.795, 457.921 532.750 C 457.964 531.788, 458.565 531, 459.256 531 C 459.947 531, 461.109 529.650, 461.840 528 C 462.570 526.350, 463.706 525, 464.363 525 C 465.021 525, 466.178 524.141, 466.934 523.091 C 467.691 522.041, 468.921 521.416, 469.667 521.702 C 470.627 522.071, 470.823 521.702, 470.338 520.438 C 469.801 519.038, 470.025 518.796, 471.378 519.315 C 472.420 519.715, 472.858 519.579, 472.483 518.972 C 472.141 518.420, 473.468 516.408, 475.431 514.501 C 477.394 512.595, 479 510.577, 479 510.018 C 479 509.458, 479.675 509, 480.500 509 C 481.325 509, 482 508.619, 482 508.153 C 482 506.926, 485.567 503, 486.682 503 C 487.203 503, 488.392 501.401, 489.324 499.447 C 490.256 497.492, 491.432 496.149, 491.937 496.461 C 492.443 496.774, 493.146 496.116, 493.500 495 C 493.854 493.884, 494.562 493.229, 495.072 493.544 C 495.582 493.860, 496 493.702, 496 493.195 C 496 492.687, 497.317 490.763, 498.926 488.920 C 500.535 487.077, 501.627 485.205, 501.351 484.760 C 501.076 484.315, 501.231 484.074, 501.695 484.225 C 502.657 484.539, 508 480.564, 508 479.535 C 508 478.712, 511.129 475.500, 511.929 475.501 C 512.243 475.502, 515.032 473.125, 518.128 470.219 C 521.223 467.313, 525.777 463.596, 528.247 461.960 C 533.309 458.607, 556 435.652, 556 433.885 C 556 431.794, 588.455 395.297, 590.500 395.089 C 591.050 395.032, 594.074 392.351, 597.221 389.131 C 600.367 385.910, 603.251 383.550, 603.630 383.887 C 604.009 384.224, 604.027 383.689, 603.671 382.698 C 603.314 381.707, 603.410 381.135, 603.883 381.428 C 604.356 381.720, 606.970 379.606, 609.692 376.730 C 621.157 364.613, 646.834 340.445, 647.874 340.791 C 648.493 340.998, 649 340.657, 649 340.034 C 649 338.998, 662.531 324.678, 674.349 313.206 C 686.235 301.669, 691 296.728, 691 295.939 C 691 295.473, 692.098 293.993, 693.439 292.652 C 694.781 291.310, 695.683 290.016, 695.443 289.777 C 695.204 289.537, 695.794 288.602, 696.754 287.697 C 704.510 280.394, 707 277.640, 707 276.362 C 707 275.548, 707.429 275.147, 707.953 275.471 C 708.476 275.794, 709.630 274.808, 710.516 273.280 C 711.402 271.751, 711.863 271.351, 711.541 272.391 C 711.038 274.014, 711.177 274.098, 712.523 272.981 C 713.385 272.265, 713.902 271.187, 713.671 270.585 C 713.176 269.294, 715.510 266.843, 716.393 267.727 C 716.727 268.060, 717 267.358, 717 266.167 C 717 264.975, 717.351 264, 717.781 264 C 718.210 264, 719.071 262.650, 719.694 261 C 720.317 259.350, 721.468 258, 722.253 258 C 723.037 258, 724.197 256.862, 724.831 255.472 C 725.464 254.081, 726.595 252.709, 727.343 252.422 C 728.180 252.101, 728.522 250.952, 728.232 249.435 C 727.630 246.282, 726.538 245.642, 724.043 246.977 C 722.443 247.833, 722.154 247.763, 722.592 246.622 C 723.104 245.286, 726.004 244.045, 728.683 244.014 C 729.333 244.006, 730.151 244.900, 730.500 246 C 730.849 247.100, 731.502 248, 731.951 248 C 733.276 248, 734.004 243.709, 732.903 242.383 C 732.187 241.520, 732.384 240.884, 733.573 240.219 C 734.836 239.512, 734.947 239.085, 734.017 238.510 C 733.323 238.082, 732.430 238.305, 731.989 239.017 C 731.367 240.024, 731.107 239.999, 730.747 238.895 C 730.497 238.128, 730.448 238.466, 730.639 239.646 C 731.096 242.472, 728.684 243.325, 727.156 240.878 C 726.178 239.313, 726.238 238.846, 727.477 238.370 C 728.315 238.049, 729 237.207, 729 236.500 C 729 235.793, 729.675 234.955, 730.500 234.638 C 732.584 233.839, 732.386 232.114, 730.250 232.460 C 728.287 232.778, 726 231.298, 726 229.711 C 726 229.137, 726.288 228.955, 726.640 229.307 C 727.531 230.197, 731 223.479, 731 220.864 C 731 219.685, 730.212 218.075, 729.250 217.286 C 728.288 216.497, 728.063 216.137, 728.750 216.485 C 730.276 217.258, 730.335 216.494, 728.950 213.906 C 728.372 212.827, 727.477 212.205, 726.961 212.524 C 726.430 212.852, 726.310 212.355, 726.685 211.378 C 727.191 210.060, 726.955 209.803, 725.686 210.290 C 724.772 210.641, 724.072 210.607, 724.130 210.214 C 724.390 208.475, 723.946 206.720, 723.389 207.278 C 723.053 207.614, 721.647 206.545, 720.264 204.902 C 718.882 203.260, 717.534 202.132, 717.269 202.398 C 717.004 202.663, 715.823 201.968, 714.644 200.855 C 713.465 199.741, 711.150 198.145, 709.500 197.307 C 707.850 196.469, 705.673 194.820, 704.663 193.642 C 703.653 192.464, 703.086 192.012, 703.402 192.637 C 703.733 193.290, 703.237 193.716, 702.239 193.637 C 701.277 193.561, 700.623 194.092, 700.775 194.824 C 700.928 195.562, 700.566 195.850, 699.960 195.475 C 699.231 195.025, 699.471 194.115, 700.685 192.731 C 702.357 190.824, 702.363 190.711, 700.762 191.294 C 699.806 191.643, 699.072 191.607, 699.130 191.214 C 699.419 189.276, 698.926 186.741, 698.368 187.299 C 698.021 187.646, 695.797 185.878, 693.428 183.369 C 691.058 180.861, 688.642 179.103, 688.060 179.463 C 687.477 179.823, 687 179.442, 687 178.616 C 687 177.789, 685.650 176.316, 684 175.341 C 682.350 174.366, 680.994 173.103, 680.987 172.534 C 680.967 170.897, 670.116 161.811, 669.002 162.499 C 668.451 162.839, 668 162.605, 668 161.977 C 668 160.501, 661.045 152, 659.837 152 C 658.668 152, 656.851 150.508, 651.930 145.505 C 649.548 143.085, 647.997 142.100, 647.993 143.005 C 647.990 143.873, 647.224 143.344, 646.168 141.742 C 645.168 140.225, 644.046 139.288, 643.675 139.659 C 643.304 140.030, 643 139.579, 643 138.658 C 643 136.958, 637.697 130.730, 636.491 131.013 C 636.129 131.097, 635.533 130.832, 635.167 130.423 C 634.800 130.014, 635.063 130.003, 635.750 130.399 C 636.531 130.848, 637 130.511, 637 129.500 C 637 128.610, 636.550 128.160, 636 128.500 C 635.450 128.840, 635 128.416, 635 127.559 C 635 126.702, 634.550 126, 634 126 C 633.450 126, 633 125.276, 633 124.392 C 633 123.180, 632.390 122.936, 630.527 123.404 C 628.587 123.891, 628.179 123.698, 628.634 122.512 C 628.953 121.681, 628.689 121, 628.048 121 C 627.407 121, 627.131 120.597, 627.435 120.105 C 627.740 119.612, 627.316 118.952, 626.494 118.636 C 625.672 118.321, 625 117.529, 625 116.876 C 625 114.970, 620.034 109, 618.449 109 C 617.652 109, 617 108.523, 617 107.941 C 617 107.359, 616.550 107.160, 616 107.500 C 615.450 107.840, 615 107.402, 615 106.528 C 615 105.653, 614.353 104.689, 613.563 104.386 C 612.773 104.083, 612.371 103.197, 612.670 102.417 C 612.969 101.638, 612.753 101, 612.190 101 C 611.627 101, 610.940 101.563, 610.662 102.250 C 610.385 102.938, 610.122 102.635, 610.079 101.579 C 609.969 98.894, 607.118 96.018, 605.270 96.727 C 604.262 97.113, 603.883 96.852, 604.176 95.972 C 604.727 94.320, 601.297 90.698, 599.964 91.523 C 599.434 91.850, 599 91.679, 599 91.142 C 599 90.606, 599.337 89.978, 599.750 89.747 C 600.163 89.517, 599.981 89.448, 599.348 89.595 C 598.714 89.742, 597.889 89.556, 597.514 89.181 C 597.140 88.806, 596.414 88.500, 595.901 88.500 C 595.388 88.500, 594.078 87.150, 592.991 85.500 C 591.903 83.850, 591.010 83.089, 591.007 83.809 C 591.003 84.529, 590.543 84.835, 589.984 84.490 C 589.425 84.144, 589.228 83.440, 589.547 82.924 C 589.866 82.408, 589.423 81.716, 588.563 81.386 C 587.704 81.056, 587 80.206, 587 79.498 C 587 78.790, 585.883 77.150, 584.517 75.855 C 583.152 74.560, 582.027 73.142, 582.017 72.705 C 581.992 71.550, 577.268 67, 576.095 67 C 575.547 67, 574.593 66.213, 573.974 65.250 C 572.942 63.645, 572.893 63.642, 573.381 65.218 C 573.673 66.163, 573.530 67.172, 573.063 67.461 C 572.596 67.750, 571.944 66.914, 571.615 65.603 C 571.286 64.293, 570.226 62.901, 569.259 62.511 C 566.403 61.358, 557.738 61.179, 554.500 62.206 M 595.733 91.124 C 596.412 91.808, 597.219 92.115, 597.526 91.807 C 597.834 91.499, 597.279 90.940, 596.293 90.564 C 594.868 90.022, 594.753 90.136, 595.733 91.124 M 606 97.893 C 606 98.384, 606.739 99.069, 607.641 99.416 C 609.014 99.943, 609.076 99.796, 608.019 98.523 C 606.579 96.788, 606 96.607, 606 97.893 M 421.940 195.820 C 420.024 196.655, 418.120 198.267, 412.578 203.750 C 410.215 206.088, 407.769 208, 407.141 208 C 406.513 208, 406 208.689, 406 209.531 C 406 210.374, 405.325 211.322, 404.500 211.638 C 403.675 211.955, 403 212.581, 403 213.030 C 403 214.244, 408.786 211.132, 410.242 209.136 C 410.934 208.186, 413.157 206.162, 415.183 204.638 C 418.134 202.416, 425.004 194.789, 423.801 195.070 C 423.635 195.109, 422.798 195.446, 421.940 195.820 M 432.750 195.662 C 433.438 195.940, 434.563 195.940, 435.250 195.662 C 435.938 195.385, 435.375 195.158, 434 195.158 C 432.625 195.158, 432.063 195.385, 432.750 195.662 M 432.500 200 C 432.160 200.550, 432.809 201, 433.941 201 C 435.073 201, 436 200.550, 436 200 C 436 199.450, 435.352 199, 434.559 199 C 433.766 199, 432.840 199.450, 432.500 200 M 385.270 210.069 C 385.097 212.366, 385.568 212.568, 386.349 210.532 C 386.659 209.725, 386.576 208.856, 386.164 208.601 C 385.752 208.347, 385.350 209.007, 385.270 210.069 M 398.703 215.531 C 397.359 217.378, 397.246 218, 398.253 218 C 399.966 218, 402 215.991, 402 214.300 C 402 212.311, 400.692 212.800, 398.703 215.531 M 423.626 217.321 C 421.632 219.148, 420 220.952, 420 221.330 C 420 222.698, 426.908 217.456, 427.355 215.750 C 427.966 213.416, 427.823 213.476, 423.626 217.321 M 415 225.059 C 415 225.641, 415.450 225.840, 416 225.500 C 416.550 225.160, 417 224.684, 417 224.441 C 417 224.198, 416.550 224, 416 224 C 415.450 224, 415 224.477, 415 225.059 M 384.500 230.469 C 382.850 231.821, 381.978 232.944, 382.561 232.964 C 383.606 232.999, 388 229.361, 388 228.461 C 388 227.693, 387.621 227.911, 384.500 230.469 M 411 228.933 C 411 229.446, 410.100 230.151, 409 230.500 C 407.900 230.849, 407 231.554, 407 232.067 C 407 233.676, 408.783 233.092, 411.694 230.532 C 413.927 228.568, 414.142 228.057, 412.750 228.032 C 411.788 228.014, 411 228.420, 411 228.933 M 386.980 237.524 C 385.008 239.901, 386.419 240.239, 388.993 238.006 C 390.676 236.546, 390.889 236, 389.775 236 C 388.934 236, 387.676 236.686, 386.980 237.524 M 735.297 239.500 C 735.243 241.425, 735.551 243, 735.982 243 C 736.923 243, 737.807 238.922, 737.237 237.212 C 736.442 234.827, 735.395 236.062, 735.297 239.500 M 350.343 239.761 C 350.589 240.168, 350.162 241.080, 349.395 241.789 C 348.628 242.499, 348 242.746, 348 242.339 C 348 241.933, 347.499 242.101, 346.887 242.713 C 346.275 243.325, 346.098 244.349, 346.493 244.988 C 346.994 245.799, 347.796 245.523, 349.144 244.075 C 350.208 242.934, 351.510 242, 352.039 242 C 353.577 242, 353.148 240.271, 351.448 239.618 C 350.594 239.291, 350.097 239.355, 350.343 239.761 M 731.079 244.583 C 731.127 245.748, 731.364 245.985, 731.683 245.188 C 731.972 244.466, 731.936 243.603, 731.604 243.271 C 731.272 242.939, 731.036 243.529, 731.079 244.583 M 719 253 C 719 253.550, 719.423 254, 719.941 254 C 720.459 254, 721.160 253.550, 721.500 253 C 721.840 252.450, 721.416 252, 720.559 252 C 719.702 252, 719 252.450, 719 253 M 723.459 253.067 C 722.433 254.727, 723.354 254.957, 724.789 253.399 C 725.499 252.630, 725.638 252, 725.098 252 C 724.559 252, 723.821 252.480, 723.459 253.067 M 334.459 256.067 C 334.096 256.653, 334.070 257.403, 334.400 257.733 C 334.730 258.063, 335 257.841, 335 257.240 C 335 256.639, 335.788 255.941, 336.750 255.689 C 338.328 255.277, 338.334 255.221, 336.809 255.116 C 335.879 255.052, 334.821 255.480, 334.459 256.067 M 329.736 260.598 C 329.407 260.927, 329.382 261.832, 329.680 262.609 C 330.011 263.471, 329.691 263.887, 328.861 263.675 C 328.113 263.484, 327.826 263.513, 328.225 263.739 C 329.352 264.378, 329.853 264.147, 332 262 C 333.879 260.121, 333.889 260, 332.167 260 C 331.158 260, 330.064 260.269, 329.736 260.598 M 350 275 C 350 275.550, 350.450 276, 351 276 C 351.550 276, 352 275.550, 352 275 C 352 274.450, 351.550 274, 351 274 C 350.450 274, 350 274.450, 350 275 M 321.500 281 C 321.160 281.550, 321.359 282, 321.941 282 C 322.523 282, 323 281.550, 323 281 C 323 280.450, 322.802 280, 322.559 280 C 322.316 280, 321.840 280.450, 321.500 281 M 303 297 C 303 297.550, 303.450 298, 304 298 C 304.550 298, 305 297.550, 305 297 C 305 296.450, 304.550 296, 304 296 C 303.450 296, 303 296.450, 303 297 M 273 326 C 273 326.550, 273.450 327, 274 327 C 274.550 327, 275 326.550, 275 326 C 275 325.450, 274.550 325, 274 325 C 273.450 325, 273 325.450, 273 326 M 834.079 331.822 C 834.013 333.751, 833.535 334.089, 831.250 333.822 C 829.143 333.575, 828.532 333.906, 828.637 335.239 C 828.712 336.196, 828.430 336.766, 828.009 336.506 C 826.650 335.666, 817.824 343.099, 818.399 344.599 C 819.015 346.202, 817.439 346.519, 816.490 344.984 C 816.144 344.425, 815.436 344.231, 814.915 344.553 C 814.394 344.875, 814.226 345.557, 814.543 346.069 C 814.859 346.581, 814.416 347, 813.559 347 C 812.702 347, 812 347.627, 812 348.393 C 812 349.159, 811.225 350.083, 810.278 350.447 C 808.803 351.013, 808.767 351.241, 810.028 352.038 C 810.904 352.593, 811.023 352.976, 810.321 352.985 C 809.673 352.993, 808.439 352.296, 807.579 351.436 C 806.719 350.576, 805.514 350.182, 804.901 350.561 C 804.118 351.045, 804.190 351.510, 805.143 352.125 C 806.184 352.796, 805.979 353.143, 804.261 353.614 C 803.030 353.951, 802.312 354.696, 802.666 355.268 C 803.024 355.848, 802.829 356.013, 802.227 355.640 C 800.538 354.596, 790.833 358.820, 787.452 362.070 C 785.776 363.681, 783.837 365, 783.143 365 C 782.450 365, 782.160 365.450, 782.500 366 C 782.840 366.550, 782.207 367, 781.094 367 C 778.936 367, 776.592 370.208, 777.785 371.528 C 778.178 371.963, 777.785 372.064, 776.912 371.753 C 774.974 371.063, 768.813 373.888, 769.573 375.118 C 769.873 375.603, 769.641 376, 769.059 376 C 768.477 376, 767.130 376.870, 766.067 377.933 C 765.004 378.996, 762.979 380.623, 761.567 381.548 C 760.155 382.473, 759 384.153, 759 385.282 C 759 386.410, 758.706 387.040, 758.347 386.681 C 757.989 386.322, 752.251 391.759, 745.597 398.764 C 732.065 413.011, 723.189 421.833, 707.684 436.450 C 701.879 441.923, 697.395 446.830, 697.719 447.355 C 698.044 447.880, 697.840 448.019, 697.268 447.666 C 696.123 446.958, 693.721 449.287, 694.509 450.342 C 694.779 450.704, 694.737 450.812, 694.416 450.582 C 693.462 449.900, 681.108 462.366, 681.734 463.379 C 682.050 463.891, 681.865 464.035, 681.322 463.699 C 680.282 463.056, 672.373 470.963, 672.769 472.250 C 672.896 472.663, 672.350 473, 671.557 473 C 670.763 473, 669.330 474.326, 668.373 475.946 C 667.416 477.566, 666.266 478.664, 665.817 478.387 C 665.367 478.109, 665 478.266, 665 478.735 C 665 479.205, 661.737 482.959, 657.750 487.078 C 653.763 491.197, 650.500 495.227, 650.500 496.033 C 650.500 496.840, 649.974 497.500, 649.331 497.500 C 648.084 497.500, 643.003 502.959, 643.001 504.301 C 643.001 504.742, 641.313 506.652, 639.250 508.546 C 636.503 511.069, 635.968 511.992, 637.250 511.995 C 638.212 511.998, 639 512.450, 639 513 C 639 513.550, 638.502 514, 637.894 514 C 637.286 514, 635.900 515.129, 634.814 516.510 C 633.728 517.890, 632.426 518.763, 631.920 518.451 C 631.414 518.138, 631 518.584, 631 519.441 C 631 520.298, 630.373 521, 629.607 521 C 628.841 521, 627.944 521.704, 627.614 522.563 C 627.278 523.438, 626.503 523.811, 625.853 523.409 C 625.214 523.014, 624.946 523.103, 625.257 523.606 C 625.905 524.656, 620.123 533.053, 614.758 538.851 C 612.756 541.015, 611.392 543.058, 611.726 543.392 C 612.060 543.727, 611.812 544, 611.174 544 C 609.179 544, 604.507 550.068, 604.361 552.847 C 604.088 558.077, 603.901 558.602, 603.053 556.500 C 602.594 555.361, 602.677 553.962, 603.246 553.250 C 603.795 552.563, 603.979 552, 603.655 552 C 602.292 552, 595.112 562.800, 594.174 566.261 C 593.589 568.422, 593.548 569.780, 594.078 569.452 C 594.585 569.139, 595 569.295, 595 569.800 C 595 570.711, 587.462 579.809, 585.514 581.250 C 584.862 581.732, 584.992 582.317, 585.878 582.888 C 586.636 583.377, 586.971 584.238, 586.622 584.803 C 586.273 585.367, 586.489 585.996, 587.101 586.200 C 587.806 586.435, 587.076 589.082, 585.107 593.424 C 583.398 597.193, 582 601.059, 582 602.016 C 582 602.972, 581.325 604.315, 580.500 605 C 579.675 605.685, 578.968 606.752, 578.928 607.372 C 578.835 608.821, 572.109 614.443, 571.363 613.696 C 570.753 613.086, 571.928 611.466, 576.284 606.912 C 577.816 605.310, 578.659 604, 578.157 604 C 577.655 604, 576.676 604.685, 575.981 605.523 C 575.286 606.360, 573.957 606.804, 573.028 606.509 C 571.776 606.112, 571.359 606.546, 571.419 608.186 C 571.470 609.588, 570.584 610.871, 569 611.685 C 567.625 612.392, 566.860 612.977, 567.301 612.985 C 567.741 612.993, 566.884 614.596, 565.396 616.548 C 563.908 618.499, 562.108 619.872, 561.396 619.598 C 560.583 619.286, 560.308 619.640, 560.658 620.551 C 560.964 621.348, 560.716 622, 560.107 622 C 558.314 622, 558.840 618.160, 560.917 616.083 C 561.971 615.029, 563.096 614.429, 563.417 614.750 C 563.737 615.071, 564 614.583, 564 613.667 C 564 612.750, 564.434 612, 564.965 612 C 566.482 612, 568.222 608.020, 567.512 606.172 C 566.620 603.847, 567.035 603.553, 570.750 603.873 C 572.830 604.052, 574 603.704, 574 602.905 C 574 602.219, 574.730 600.851, 575.621 599.866 C 576.640 598.740, 576.968 597.410, 576.505 596.287 C 576.009 595.086, 575.614 594.910, 575.300 595.750 C 575.043 596.438, 573.521 597, 571.917 597 C 568.963 597, 567.957 598.412, 570.250 599.338 C 570.938 599.615, 570.518 599.878, 569.317 599.921 C 568.023 599.968, 566.864 600.853, 566.469 602.098 C 565.965 603.685, 565.201 604.080, 563.326 603.722 C 561.558 603.384, 561.156 603.556, 561.924 604.324 C 562.516 604.916, 563 605.835, 563 606.367 C 563 606.898, 562.737 607.071, 562.417 606.750 C 561.868 606.201, 558 609.458, 558 610.469 C 558 610.726, 558.788 610.684, 559.750 610.374 C 561.171 609.917, 561.228 610.004, 560.054 610.836 C 559.103 611.509, 557.985 611.527, 556.790 610.887 C 555.450 610.171, 555.041 610.255, 555.236 611.207 C 555.381 611.918, 554.924 612.383, 554.221 612.240 C 553.288 612.051, 553.362 612.622, 554.493 614.349 C 556.172 616.912, 555.603 620, 553.452 620 C 552.718 620, 551.793 619.474, 551.395 618.830 C 550.912 618.048, 551.213 617.868, 552.304 618.286 C 554.754 619.227, 555.501 617.043, 553.375 615.154 C 552.352 614.244, 552.074 614.152, 552.757 614.950 C 554.200 616.633, 554.423 618.380, 553.090 617.556 C 551.749 616.727, 549.169 617.952, 549.377 619.319 C 549.475 619.969, 549.926 621.092, 550.378 621.817 C 551.557 623.705, 548.044 626.094, 545.830 624.909 C 542.967 623.377, 542.656 623.894, 545.139 626.056 C 547.360 627.991, 547.371 628.050, 545.316 627.056 C 542.629 625.757, 541.704 625.713, 542.450 626.919 C 543.175 628.092, 540.309 631, 538.429 631 C 537.643 631, 537 631.702, 537 632.559 C 537 633.416, 537.450 633.840, 538 633.500 C 538.550 633.160, 539 633.332, 539 633.882 C 539 634.432, 538.550 635.160, 538 635.500 C 537.450 635.840, 537 635.641, 537 635.059 C 537 634.477, 536.502 634, 535.893 634 C 535.284 634, 535.028 634.631, 535.324 635.401 C 535.965 637.072, 532.616 638.216, 531.209 636.809 C 530.595 636.195, 530.433 636.817, 530.761 638.531 C 531.081 640.205, 530.753 641.543, 529.887 642.091 C 527.765 643.435, 526 643.167, 526 641.500 C 526 640.675, 526.675 640, 527.500 640 C 528.325 640, 529 639.255, 529 638.345 C 529 636.857, 528.799 636.872, 527 638.500 C 524.536 640.730, 524.450 642.590, 526.750 643.888 C 528.152 644.679, 528.251 645.127, 527.250 646.138 C 526.563 646.832, 526 648.242, 526 649.271 C 526 650.301, 525.331 651.811, 524.514 652.629 C 523.200 653.943, 523.229 654.423, 524.764 656.791 C 526.767 659.879, 530.207 663.500, 531.138 663.500 C 533.271 663.500, 545.796 674.539, 555.134 684.649 C 556.582 686.217, 559.732 688.946, 562.134 690.714 C 564.535 692.482, 569.785 697.094, 573.800 700.964 C 577.815 704.834, 581.640 708.008, 582.300 708.018 C 583.623 708.038, 588.511 711.734, 593.849 716.750 C 595.751 718.537, 597.927 720, 598.685 720 C 599.443 720, 600.311 720.647, 600.614 721.437 C 600.917 722.227, 601.773 722.641, 602.515 722.356 C 603.318 722.048, 604.498 723.063, 605.427 724.859 C 606.287 726.521, 608.342 728.680, 609.995 729.656 C 611.648 730.632, 613 731.939, 613 732.561 C 613 733.182, 613.900 734.505, 615 735.500 C 616.100 736.495, 617.007 738.028, 617.015 738.905 C 617.028 740.181, 617.202 740.229, 617.890 739.143 C 618.490 738.197, 618.957 738.122, 619.434 738.893 C 619.810 739.502, 621.006 740, 622.090 740 C 623.175 740, 624.310 740.644, 624.612 741.430 C 624.913 742.217, 626.474 743.318, 628.080 743.878 C 629.686 744.438, 631 745.334, 631 745.869 C 631 746.403, 632.350 747.138, 634 747.500 C 635.650 747.862, 637 748.584, 637 749.104 C 637 749.624, 638.125 750.477, 639.500 751 C 640.875 751.523, 642 752.412, 642 752.975 C 642 753.539, 642.436 754, 642.969 754 C 643.501 754, 643.642 753.212, 643.281 752.250 C 642.720 750.753, 642.856 750.687, 644.224 751.799 C 645.298 752.672, 646.034 752.753, 646.470 752.049 C 646.826 751.472, 646.615 751, 646 751 C 645.385 751, 645.190 750.502, 645.566 749.893 C 646.044 749.119, 646.498 749.187, 647.074 750.119 C 647.734 751.188, 648.650 751.023, 651.699 749.285 C 653.789 748.093, 655.656 746.363, 655.846 745.441 C 656.056 744.424, 655.760 744.030, 655.096 744.441 C 654.493 744.813, 654 744.593, 654 743.952 C 654 743.311, 654.685 743.049, 655.523 743.370 C 656.360 743.692, 657.907 743.093, 658.960 742.040 C 660.267 740.733, 661.029 740.502, 661.361 741.313 C 661.707 742.156, 662.155 742.065, 662.909 741 C 663.613 740.004, 663.975 739.915, 663.985 740.737 C 664.007 742.553, 656.799 748.941, 654.691 748.973 C 653.696 748.988, 653.124 749.392, 653.421 749.872 C 653.717 750.351, 652.001 751.782, 649.608 753.052 C 645.459 755.253, 641.890 759, 643.942 759 C 644.469 759, 645.399 758.212, 646.008 757.250 C 646.719 756.127, 647.292 755.910, 647.606 756.644 C 648.185 757.996, 652 757.224, 652 755.756 C 652 755.136, 653.549 754.992, 656 755.384 C 658.200 755.736, 660 755.678, 660 755.256 C 660 754.834, 661.350 753.891, 663 753.160 C 664.650 752.430, 666.007 751.083, 666.015 750.166 C 666.029 748.714, 666.169 748.692, 667.110 750 C 668.050 751.307, 668.124 751.295, 667.687 749.909 C 667.051 747.893, 668.451 745.543, 669.794 746.373 C 670.354 746.719, 670.579 747.894, 670.294 748.983 C 669.911 750.448, 670.457 751.223, 672.388 751.957 C 675.592 753.176, 676.056 757, 673 757 C 671.583 757, 671 756.333, 671 754.714 C 671 753.073, 670.419 752.429, 668.939 752.429 C 667.453 752.429, 667.009 752.927, 667.346 754.216 C 667.603 755.199, 667.386 755.738, 666.863 755.415 C 665.472 754.555, 663 756.942, 663 759.145 C 663 760.895, 663.182 760.927, 665.282 759.551 C 667.759 757.928, 675.437 758.484, 674.371 760.209 C 674.047 760.733, 672.706 760.892, 671.391 760.562 C 669.681 760.133, 669 760.381, 669 761.434 C 669 763.907, 666.755 768, 665.399 768 C 664.694 768, 663.880 768.385, 663.589 768.856 C 663.298 769.326, 664.172 769.499, 665.530 769.239 C 666.964 768.965, 668 769.235, 668 769.883 C 668 770.498, 669.143 771, 670.540 771 L 673.081 771 670.576 773.702 C 669.198 775.188, 668.230 776.564, 668.426 776.759 C 668.621 776.954, 670.293 776.721, 672.140 776.241 C 674.427 775.647, 675.501 774.776, 675.504 773.516 C 675.510 771.217, 677.595 770.419, 679.490 771.992 C 680.272 772.641, 681.452 772.839, 682.111 772.432 C 682.813 771.998, 683.048 772.114, 682.678 772.712 C 682.331 773.273, 682.983 774.579, 684.126 775.614 C 687.344 778.526, 689.235 782.903, 688.551 785.858 C 688.093 787.838, 688.194 788.124, 688.954 787 C 689.513 786.175, 689.976 785.893, 689.985 786.372 C 689.993 786.852, 690.675 786.685, 691.500 786 C 692.646 785.049, 693.331 785.030, 694.403 785.919 C 695.427 786.769, 695.907 786.780, 696.180 785.961 C 696.892 783.824, 702.072 787.246, 703.717 790.941 C 704.981 793.781, 705.392 794.117, 705.752 792.605 C 706.075 791.244, 706.420 791.062, 706.974 791.958 C 707.576 792.932, 708.231 792.947, 709.958 792.022 C 712.507 790.658, 714.174 791.591, 711.971 793.149 C 710.777 793.993, 710.845 794.077, 712.332 793.594 C 713.339 793.267, 714.352 793, 714.582 793 C 714.812 793, 715 792.100, 715 791 C 715 789.900, 715.477 789, 716.059 789 C 716.641 789, 716.797 788.480, 716.405 787.845 C 715.961 787.128, 716.130 786.963, 716.853 787.409 C 717.528 787.827, 719.372 786.696, 721.257 784.707 C 724.250 781.551, 731 777.242, 731 778.488 C 731 779.315, 728.651 783.259, 727.250 784.783 C 726.563 785.531, 726 786.498, 726 786.933 C 726 787.367, 724.919 787.516, 723.598 787.264 C 721.821 786.924, 721.028 787.336, 720.547 788.851 C 720.190 789.977, 719.062 791.163, 718.041 791.487 C 715.664 792.242, 714.547 795.096, 716.216 796.155 C 717.166 796.758, 717.054 796.973, 715.785 796.985 C 713.276 797.007, 712.062 800.041, 712.689 804.717 C 713.267 809.025, 713.979 809.282, 720.169 807.419 C 721.212 807.105, 722.012 807.588, 722.303 808.708 C 722.731 810.358, 722.777 810.351, 722.884 808.619 C 722.981 807.041, 723.563 806.830, 726.500 807.306 C 729.521 807.796, 730 807.601, 730 805.878 C 730 804.624, 730.429 804.147, 731.155 804.595 C 731.855 805.028, 732.038 804.871, 731.621 804.195 C 730.762 802.806, 739.737 794, 742.011 794 C 742.555 794, 743 793.650, 743 793.223 C 743 791.773, 756.774 777, 758.126 777 C 758.607 777, 759 776.518, 759 775.929 C 759 774.448, 761.622 771.956, 762.381 772.714 C 762.721 773.055, 763 772.870, 763 772.304 C 763 770.992, 768.714 763.757, 770.584 762.700 C 773.465 761.073, 771.920 764.312, 768 768.116 C 764.074 771.926, 763.017 774, 765 774 C 765.550 774, 766 773.523, 766 772.941 C 766 772.359, 766.450 772.160, 767 772.500 C 768.854 773.646, 768.018 775, 765.458 775 C 764.060 775, 761.950 775.900, 760.770 777 C 759.185 778.476, 759.013 779, 760.111 779 C 760.930 779, 762.170 778.438, 762.867 777.750 C 763.883 776.748, 764.392 776.848, 765.428 778.250 C 767.037 780.428, 767.948 780.453, 769.479 778.360 C 770.411 777.085, 771.103 776.958, 772.588 777.789 C 774.045 778.605, 774.906 778.490, 776.212 777.308 C 777.154 776.455, 778.639 776.031, 779.511 776.366 C 780.811 776.865, 780.542 777.516, 778.013 779.987 C 776.318 781.644, 774.497 783, 773.966 783 C 773.434 783, 773 783.637, 773 784.417 C 773 785.196, 772.438 786.060, 771.750 786.338 C 770.789 786.726, 770.802 786.860, 771.809 786.921 C 772.529 786.964, 772.843 787.445, 772.507 787.989 C 772.152 788.563, 772.570 788.718, 773.506 788.360 C 774.391 788.020, 774.884 787.139, 774.601 786.403 C 774.319 785.667, 774.518 784.798, 775.044 784.473 C 775.570 784.148, 776.014 784.471, 776.032 785.191 C 776.052 786.026, 776.571 785.831, 777.465 784.650 C 778.244 783.622, 779.386 783.120, 780.033 783.521 C 780.908 784.061, 780.903 783.687, 780.014 782.026 C 778.960 780.056, 779.039 779.877, 780.727 780.413 C 783.052 781.151, 787.237 776.781, 786.369 774.520 C 786.048 773.684, 786.284 773, 786.893 773 C 787.502 773, 788 771.875, 788 770.500 C 788 768.583, 788.525 767.993, 790.250 767.968 C 792.581 767.935, 796 765.869, 796 764.493 C 796 764.061, 798.048 761.518, 800.551 758.842 C 803.055 756.165, 804.810 753.501, 804.451 752.921 C 804.065 752.296, 804.545 751.995, 805.627 752.183 C 806.633 752.357, 807.503 752.050, 807.563 751.500 C 807.622 750.950, 808.614 748.495, 809.767 746.044 C 810.920 743.594, 811.603 741.119, 811.285 740.544 C 810.967 739.970, 811.313 740.063, 812.053 740.750 C 813.555 742.144, 815.399 742.455, 814.612 741.181 C 814.334 740.731, 815.882 738.829, 818.053 736.954 C 820.224 735.079, 822 733.002, 822 732.338 C 822 731.674, 824.475 728.655, 827.500 725.630 C 830.525 722.605, 833 719.745, 833 719.273 C 833 718.802, 835.925 715.389, 839.500 711.688 C 843.075 707.988, 846 704.493, 846 703.921 C 846 703.350, 846.378 703.116, 846.841 703.402 C 848.217 704.252, 852.039 698.295, 851.395 696.305 C 850.907 694.797, 850.989 694.746, 851.890 696 C 852.589 696.972, 852.975 697.071, 852.985 696.281 C 852.993 695.607, 853.675 695.322, 854.511 695.643 C 855.553 696.043, 855.846 695.762, 855.454 694.740 C 855.131 693.898, 855.580 692.992, 856.494 692.640 C 857.570 692.228, 857.895 692.434, 857.476 693.261 C 857.130 693.943, 857.782 693.438, 858.924 692.139 C 860.066 690.841, 861 688.928, 861 687.889 C 861 686.850, 861.477 686, 862.059 686 C 862.641 686, 862.797 686.520, 862.405 687.155 C 861.948 687.893, 862.132 688.037, 862.914 687.553 C 863.586 687.138, 863.915 686.220, 863.644 685.514 C 863.373 684.807, 864.242 683.281, 865.575 682.121 C 867.753 680.228, 868.008 680.191, 868.079 681.757 C 868.142 683.149, 868.273 683.198, 868.729 682 C 869.043 681.175, 869.626 680.275, 870.025 680 C 870.424 679.725, 872.093 677.374, 873.734 674.776 C 875.376 672.178, 877.007 670.340, 877.359 670.693 C 877.712 671.045, 878 670.583, 878 669.667 C 878 668.750, 878.788 667.964, 879.750 667.921 C 880.795 667.874, 880.997 667.639, 880.250 667.338 C 879.563 667.060, 879 666.373, 879 665.810 C 879 665.247, 879.675 665.045, 880.500 665.362 C 881.381 665.700, 882 665.375, 882 664.574 C 882 663.824, 883.117 662.150, 884.483 660.855 C 885.848 659.560, 886.973 657.911, 886.983 657.191 C 886.992 656.471, 887.430 656.148, 887.956 656.473 C 888.482 656.798, 889.659 655.924, 890.571 654.532 C 891.483 653.139, 892.673 652, 893.214 652 C 893.755 652, 895.444 650.666, 896.967 649.035 C 898.491 647.404, 900.093 646.392, 900.529 646.785 C 900.964 647.178, 901.006 646.952, 900.622 646.283 C 900.219 645.581, 900.787 644.526, 901.961 643.792 C 903.083 643.092, 904 641.952, 904 641.259 C 904 640.567, 904.948 640, 906.107 640 C 907.458 640, 908.029 639.519, 907.700 638.659 C 907.417 637.922, 907.587 636.684, 908.077 635.909 C 908.709 634.912, 908.974 634.865, 908.985 635.750 C 908.993 636.438, 909.498 637, 910.107 637 C 910.716 637, 910.971 636.368, 910.675 635.596 C 910.045 633.953, 918.892 624.451, 920.707 624.821 C 921.371 624.957, 922.603 623.734, 923.446 622.105 C 924.289 620.475, 925.890 618.852, 927.004 618.499 C 928.118 618.145, 928.770 617.438, 928.454 616.926 C 928.138 616.415, 928.919 615.595, 930.190 615.104 C 931.460 614.614, 933.625 612.992, 935 611.500 C 936.375 610.008, 938.540 608.386, 939.810 607.896 C 941.081 607.405, 941.842 606.553, 941.501 606.002 C 941.160 605.449, 941.918 604.965, 943.191 604.921 C 944.461 604.878, 944.966 604.625, 944.313 604.359 C 943.505 604.030, 943.744 603.256, 945.063 601.938 C 947.402 599.598, 949 599.444, 949 601.559 C 949 602.416, 949.457 602.835, 950.016 602.490 C 950.575 602.144, 950.774 601.443, 950.457 600.931 C 950.141 600.419, 950.474 600, 951.197 600 C 951.920 600, 953.824 598.425, 955.429 596.500 C 957.035 594.575, 958.861 593, 959.489 593 C 961.046 593, 964.205 586.149, 963.325 584.681 C 962.920 584.008, 963.343 584.090, 964.308 584.872 C 965.665 585.973, 966.297 585.998, 967.500 585 C 968.325 584.315, 969 583.109, 969 582.319 C 969 581.528, 969.416 581.139, 969.924 581.453 C 970.431 581.767, 971.835 580.636, 973.042 578.941 C 974.249 577.246, 977.426 573.811, 980.102 571.308 C 982.778 568.805, 984.723 566.361, 984.425 565.878 C 984.126 565.395, 984.385 565, 985 565 C 985.615 565, 985.884 564.622, 985.598 564.159 C 985.312 563.696, 986.411 562.333, 988.039 561.129 C 989.668 559.925, 991 558.355, 991 557.639 C 991 556.923, 992.107 555.746, 993.459 555.022 C 994.811 554.298, 996.798 551.860, 997.873 549.603 C 998.948 547.346, 1002.131 543.025, 1004.946 540 C 1007.761 536.975, 1010.329 533.270, 1010.654 531.766 C 1010.989 530.211, 1011.695 529.312, 1012.292 529.680 C 1012.954 530.089, 1013.089 529.674, 1012.659 528.553 C 1012.171 527.281, 1012.373 526.929, 1013.371 527.312 C 1014.280 527.661, 1015.575 526.271, 1017.098 523.309 C 1018.382 520.813, 1020.007 518.551, 1020.710 518.281 C 1021.413 518.011, 1021.740 517.388, 1021.435 516.895 C 1021.131 516.403, 1021.595 516, 1022.466 516 C 1023.337 516, 1024.488 514.848, 1025.023 513.440 C 1026.055 510.726, 1027.990 510.965, 1028.015 513.809 C 1028.028 515.219, 1028.182 515.260, 1028.946 514.054 C 1029.501 513.177, 1029.495 511.924, 1028.930 510.870 C 1027.763 508.688, 1027.730 507.025, 1028.890 508.857 C 1029.443 509.728, 1029.979 509.843, 1030.390 509.179 C 1030.741 508.610, 1030.104 507.850, 1028.973 507.491 C 1027.470 507.014, 1027.060 506.255, 1027.449 504.669 C 1027.742 503.476, 1027.723 503.063, 1027.407 503.750 C 1026.545 505.627, 1024.870 505.253, 1025.206 503.259 C 1025.380 502.232, 1024.578 501.110, 1023.250 500.522 C 1022.013 499.974, 1021 498.784, 1021 497.878 C 1021 496.972, 1019.861 495.483, 1018.468 494.571 C 1017.076 493.659, 1016.209 492.471, 1016.542 491.931 C 1016.876 491.392, 1016.778 491.015, 1016.324 491.094 C 1014.063 491.486, 1013.318 490.788, 1013.725 488.658 C 1013.971 487.370, 1013.571 485.682, 1012.836 484.908 C 1012.101 484.134, 1010.857 482.254, 1010.071 480.731 C 1009.045 478.744, 1008.414 478.320, 1007.836 479.231 C 1007.261 480.136, 1007.026 479.968, 1007.015 478.643 C 1007.006 477.568, 1006.472 476.989, 1005.745 477.268 C 1004.339 477.807, 1001.781 475.552, 1002.727 474.607 C 1003.060 474.273, 1002.829 474, 1002.212 474 C 1001.595 474, 999.966 472.875, 998.591 471.500 C 997.216 470.125, 995.223 469, 994.162 469 C 993.047 469, 992.003 468.119, 991.687 466.910 C 991.273 465.328, 990.638 464.980, 989.070 465.478 C 987.612 465.941, 987 465.696, 987 464.651 C 987 463.836, 985.200 461.742, 983 460 C 980.800 458.258, 979 456.172, 979 455.365 C 979 454.558, 977.416 453.236, 975.480 452.427 C 971.780 450.881, 962.736 444.400, 962.167 442.886 C 961.983 442.399, 961.374 442, 960.812 442 C 960.250 442, 957.790 440.650, 955.345 439 C 952.900 437.350, 950.602 436, 950.237 436 C 949.873 436, 948.658 434.861, 947.538 433.468 C 946.221 431.833, 944.084 430.723, 941.500 430.333 C 939.300 430.001, 936.741 429.071, 935.813 428.267 C 934.885 427.462, 933.578 427.143, 932.909 427.557 C 932.161 428.019, 931.949 427.891, 932.360 427.227 C 932.728 426.631, 932.123 425.856, 931.015 425.505 C 929.907 425.153, 929 424.221, 929 423.433 C 929 422.645, 928.212 421.996, 927.250 421.992 C 925.419 421.984, 923 417.890, 923 414.801 C 923 413.724, 922.266 413, 921.174 413 C 920.170 413, 918.292 411.875, 917 410.500 C 915.708 409.125, 914.087 408, 913.398 408 C 912.709 408, 911.260 406.875, 910.179 405.500 C 909.097 404.125, 907.827 403, 907.356 402.999 C 906.385 402.998, 899 395.605, 899 394.633 C 899 393.198, 894.858 390, 893 390 C 891.900 390, 891 389.617, 891 389.148 C 891 388.680, 889.763 386.958, 888.250 385.322 C 886.737 383.687, 883.925 380.480, 882 378.197 C 880.075 375.913, 878.022 374.035, 877.437 374.023 C 876.027 373.993, 871 368.702, 871 367.247 C 871 366.193, 869.566 364.385, 863.821 358.193 C 862.644 356.924, 860.434 355.637, 858.910 355.332 C 857.387 355.027, 855.130 353.703, 853.896 352.389 C 852.081 350.458, 850.644 350, 846.393 350 C 841.964 350, 841.032 349.675, 840.482 347.943 C 840.123 346.811, 838.751 345.476, 837.434 344.975 C 835.732 344.328, 835.227 343.573, 835.689 342.368 C 836.129 341.221, 835.961 340.906, 835.170 341.395 C 834.526 341.793, 834 341.674, 834 341.132 C 834 340.590, 833.294 340.001, 832.431 339.823 C 831.200 339.570, 831.524 338.759, 833.931 336.070 C 835.619 334.183, 836.993 331.933, 836.985 331.070 C 836.972 329.802, 836.803 329.762, 836.106 330.863 C 835.377 332.014, 835.158 332.014, 834.700 330.863 C 834.395 330.096, 834.123 330.516, 834.079 331.822 M 823.813 335.683 C 824.534 335.972, 825.397 335.936, 825.729 335.604 C 826.061 335.272, 825.471 335.036, 824.417 335.079 C 823.252 335.127, 823.015 335.364, 823.813 335.683 M 277.543 336.931 C 276.860 338.036, 278.437 339.230, 279.361 338.306 C 280.311 337.355, 280.134 336, 279.059 336 C 278.541 336, 277.859 336.419, 277.543 336.931 M 268 340.059 C 268 340.641, 268.450 340.840, 269 340.500 C 269.550 340.160, 270 339.684, 270 339.441 C 270 339.198, 269.550 339, 269 339 C 268.450 339, 268 339.477, 268 340.059 M 257 341.059 C 257 341.641, 257.450 341.840, 258 341.500 C 258.550 341.160, 259 340.684, 259 340.441 C 259 340.198, 258.550 340, 258 340 C 257.450 340, 257 340.477, 257 341.059 M 277.651 340.682 C 276.208 342.125, 277.149 343.795, 279.676 344.278 C 282.008 344.724, 285 343.238, 285 341.634 C 285 340.627, 280.999 341.449, 280.968 342.463 C 280.951 343.033, 280.344 342.719, 279.619 341.766 C 278.895 340.812, 278.009 340.324, 277.651 340.682 M 260.500 349 C 260.840 349.550, 261.541 350, 262.059 350 C 262.577 350, 263 349.550, 263 349 C 263 348.450, 262.298 348, 261.441 348 C 260.584 348, 260.160 348.450, 260.500 349 M 258.732 351.915 C 258.371 353.298, 258.661 354, 259.594 354 C 261.189 354, 261.355 353.109, 260.123 351.165 C 259.480 350.151, 259.147 350.331, 258.732 351.915 M 268.414 353.765 C 267.417 354.440, 265 360.299, 265 362.042 C 265 364.023, 268.010 363.634, 269.428 361.470 C 270.681 359.558, 270.717 359.171, 269.604 359.598 C 267.081 360.567, 266.740 357.906, 269.070 355.426 C 271.212 353.146, 270.815 352.141, 268.414 353.765 M 253 355.500 C 253 356.333, 253.889 357, 255 357 C 256.111 357, 257 356.333, 257 355.500 C 257 354.667, 256.111 354, 255 354 C 253.889 354, 253 354.667, 253 355.500 M 248 356.059 C 248 356.641, 248.450 356.840, 249 356.500 C 249.550 356.160, 250 355.684, 250 355.441 C 250 355.198, 249.550 355, 249 355 C 248.450 355, 248 355.477, 248 356.059 M 245 360.059 C 245 360.641, 245.450 360.840, 246 360.500 C 246.550 360.160, 247 359.684, 247 359.441 C 247 359.198, 246.550 359, 246 359 C 245.450 359, 245 359.477, 245 360.059 M 241.559 362.532 C 240.491 363.339, 240.099 364, 240.686 364 C 241.274 364, 242.315 363.325, 243 362.500 C 244.557 360.624, 244.067 360.634, 241.559 362.532 M 262.244 363.735 C 260.139 364.465, 261.946 366.005, 264.809 365.921 C 266.401 365.874, 266.888 365.609, 266 365.271 C 265.175 364.957, 264.275 364.385, 264 364 C 263.725 363.615, 262.935 363.496, 262.244 363.735 M 239.382 365.809 C 239.745 366.396, 239.300 367.292, 238.394 367.800 C 237.091 368.528, 236.976 369.119, 237.842 370.611 C 238.874 372.388, 238.941 372.366, 238.970 370.250 C 238.987 368.995, 239.553 368.111, 240.250 368.250 C 241.966 368.593, 241.838 365.779, 240.111 365.204 C 239.307 364.936, 239 365.191, 239.382 365.809 M 247.079 367.583 C 247.127 368.748, 247.364 368.985, 247.683 368.188 C 247.972 367.466, 247.936 366.603, 247.604 366.271 C 247.272 365.939, 247.036 366.529, 247.079 367.583 M 259.500 367 C 259.160 367.550, 259.584 368, 260.441 368 C 261.298 368, 262 367.550, 262 367 C 262 366.450, 261.577 366, 261.059 366 C 260.541 366, 259.840 366.450, 259.500 367 M 250.079 368.583 C 250.127 369.748, 250.364 369.985, 250.683 369.188 C 250.972 368.466, 250.936 367.603, 250.604 367.271 C 250.272 366.939, 250.036 367.529, 250.079 368.583 M 276.500 370 C 276.840 370.550, 277.316 371, 277.559 371 C 277.802 371, 278 370.550, 278 370 C 278 369.450, 277.523 369, 276.941 369 C 276.359 369, 276.160 369.450, 276.500 370 M 233.161 373.547 C 231.668 376.823, 231.696 377.054, 233.500 376.362 C 234.325 376.045, 235 375.159, 235 374.393 C 235 373.627, 235.477 373, 236.059 373 C 236.641 373, 236.840 372.550, 236.500 372 C 235.480 370.349, 234.387 370.855, 233.161 373.547 M 244.872 373.750 C 243.603 375.369, 243.650 375.390, 245.500 374.033 C 246.600 373.226, 247.688 372.439, 247.917 372.283 C 248.146 372.127, 247.863 372, 247.289 372 C 246.715 372, 245.627 372.788, 244.872 373.750 M 777 374 C 777 374.550, 777.477 375, 778.059 375 C 778.641 375, 778.840 374.550, 778.500 374 C 778.160 373.450, 777.684 373, 777.441 373 C 777.198 373, 777 373.450, 777 374 M 251.188 376.960 C 248.693 380.334, 248.525 381, 250.167 381 C 250.808 381, 251.060 380.727, 250.727 380.394 C 250.393 380.060, 250.993 378.850, 252.060 377.705 C 253.769 375.871, 254.591 374, 253.688 374 C 253.516 374, 252.391 375.332, 251.188 376.960 M 239.500 377 C 237.846 378.827, 237.836 379, 239.376 379 C 240.304 379, 241.321 378.328, 241.636 377.506 C 241.952 376.684, 242.682 376.303, 243.259 376.660 C 243.872 377.039, 244.012 376.829, 243.595 376.155 C 242.578 374.508, 241.567 374.717, 239.500 377 M 259 377 C 259 377.550, 259.450 378, 260 378 C 260.550 378, 261 377.550, 261 377 C 261 376.450, 260.550 376, 260 376 C 259.450 376, 259 376.450, 259 377 M 261.500 379 C 261.160 379.550, 261.610 380, 262.500 380 C 263.390 380, 263.840 379.550, 263.500 379 C 263.160 378.450, 262.710 378, 262.500 378 C 262.290 378, 261.840 378.450, 261.500 379 M 252.957 381.747 C 252.108 381.923, 250.882 383.474, 250.233 385.194 L 249.053 388.320 251.221 385.993 C 252.547 384.570, 253.540 384.119, 253.778 384.833 C 254.201 386.103, 257.020 386.472, 256.968 385.250 C 256.899 383.615, 254.414 381.445, 252.957 381.747 M 245.583 383.866 C 245.152 384.563, 245.070 385.403, 245.400 385.733 C 246.295 386.628, 247.271 385.312, 246.787 383.862 C 246.449 382.846, 246.213 382.846, 245.583 383.866 M 225.079 385.583 C 225.127 386.748, 225.364 386.985, 225.683 386.188 C 225.972 385.466, 225.936 384.603, 225.604 384.271 C 225.272 383.939, 225.036 384.529, 225.079 385.583 M 258.667 385.667 C 258.300 386.033, 258 386.798, 258 387.367 C 258 387.993, 258.466 387.934, 259.183 387.217 C 259.834 386.566, 260.134 385.801, 259.850 385.517 C 259.566 385.233, 259.033 385.300, 258.667 385.667 M 270 386.500 C 270 387.325, 270.450 388, 271 388 C 271.550 388, 272 387.325, 272 386.500 C 272 385.675, 271.550 385, 271 385 C 270.450 385, 270 385.675, 270 386.500 M 242 389.059 C 242 390.191, 242.450 390.840, 243 390.500 C 243.550 390.160, 244 389.234, 244 388.441 C 244 387.648, 243.550 387, 243 387 C 242.450 387, 242 387.927, 242 389.059 M 251 389 C 250.411 390.100, 250.287 391, 250.724 391 C 251.161 391, 252.081 390.100, 252.768 389 C 253.460 387.892, 253.583 387, 253.044 387 C 252.508 387, 251.589 387.900, 251 389 M 268 395.500 C 266.649 397.128, 266.972 397.332, 269.418 396.393 C 270.288 396.059, 271 395.384, 271 394.893 C 271 393.510, 269.380 393.838, 268 395.500 M 241.500 397 C 241.160 397.550, 241.359 398, 241.941 398 C 242.523 398, 243 397.550, 243 397 C 243 396.450, 242.802 396, 242.559 396 C 242.316 396, 241.840 396.450, 241.500 397 M 262.828 401.250 C 261.865 403.278, 261.581 405.252, 262.072 406.500 C 262.829 408.422, 262.862 408.415, 262.930 406.321 C 263.002 404.089, 265.821 400.488, 266.762 401.428 C 267.049 401.716, 266.707 402.648, 266 403.500 C 265.293 404.352, 265.066 405.375, 265.494 405.774 C 265.923 406.173, 266.466 405.963, 266.702 405.306 C 266.937 404.650, 267.888 404.384, 268.815 404.716 C 269.742 405.047, 270.166 404.951, 269.759 404.501 C 269.351 404.052, 269.502 403.100, 270.095 402.386 C 271.447 400.756, 270.269 398.683, 268.399 399.400 C 267.629 399.696, 267 399.501, 267 398.969 C 267 396.741, 264.256 398.242, 262.828 401.250 M 247.655 401.749 C 247.342 402.256, 247.439 403.983, 247.871 405.586 L 248.658 408.500 249.252 405.500 C 249.841 402.528, 248.753 399.972, 247.655 401.749 M 321.345 405.543 C 320.415 407.967, 321.713 408.405, 322.954 406.086 C 323.728 404.639, 323.743 404, 323.004 404 C 322.417 404, 321.671 404.694, 321.345 405.543 M 258.583 409.643 C 258.237 410.547, 258.189 411.522, 258.476 411.810 C 258.764 412.098, 259.007 411.696, 259.015 410.917 C 259.028 409.750, 259.202 409.765, 260 411 C 260.784 412.213, 260.972 412.069, 260.985 410.250 C 261.003 407.632, 259.501 407.252, 258.583 409.643 M 317.506 410.994 C 316.507 412.097, 316.155 413, 316.723 413 C 317.981 413, 320.475 410.142, 319.803 409.470 C 319.538 409.205, 318.504 409.890, 317.506 410.994 M 371.500 417 C 371.160 417.550, 371.359 418, 371.941 418 C 372.523 418, 373 417.550, 373 417 C 373 416.450, 372.802 416, 372.559 416 C 372.316 416, 371.840 416.450, 371.500 417 M 369 420 C 368.099 420.582, 367.975 420.975, 368.691 420.985 C 369.346 420.993, 370.160 420.550, 370.500 420 C 371.267 418.758, 370.921 418.758, 369 420 M 263 423 C 263 423.550, 263.450 424, 264 424 C 264.550 424, 265 423.550, 265 423 C 265 422.450, 264.550 422, 264 422 C 263.450 422, 263 422.450, 263 423 M 290 440 C 290 440.550, 290.477 441, 291.059 441 C 291.641 441, 291.840 440.550, 291.500 440 C 291.160 439.450, 290.684 439, 290.441 439 C 290.198 439, 290 439.450, 290 440 M 284.619 444.289 C 283.314 445.244, 283.036 446.294, 283.548 448.336 C 284.353 451.543, 285.210 451.131, 285.614 447.342 C 285.770 445.879, 286.483 444.310, 287.199 443.856 C 287.914 443.402, 288.024 443.024, 287.441 443.015 C 286.859 443.007, 285.589 443.580, 284.619 444.289 M 327.250 468.720 C 326.563 468.966, 326 469.804, 326 470.583 C 326 471.363, 325.550 472, 325 472 C 324.450 472, 324 472.450, 324 473 C 324 474.720, 325.426 474.039, 327.348 471.400 C 329.309 468.708, 329.283 467.994, 327.250 468.720 M 340 481 C 340 481.550, 340.675 482, 341.500 482 C 342.325 482, 343 481.550, 343 481 C 343 480.450, 342.325 480, 341.500 480 C 340.675 480, 340 480.450, 340 481 M 921.079 481.583 C 921.127 482.748, 921.364 482.985, 921.683 482.188 C 921.972 481.466, 921.936 480.603, 921.604 480.271 C 921.272 479.939, 921.036 480.529, 921.079 481.583 M 345.500 484 C 345.160 484.550, 345.359 485, 345.941 485 C 346.523 485, 347 484.550, 347 484 C 347 483.450, 346.802 483, 346.559 483 C 346.316 483, 345.840 483.450, 345.500 484 M 477.500 492 C 477.160 492.550, 477.359 493, 477.941 493 C 478.523 493, 479 492.550, 479 492 C 479 491.450, 478.802 491, 478.559 491 C 478.316 491, 477.840 491.450, 477.500 492 M 382.174 496.314 C 379.064 499.625, 379.492 500.498, 383 498 C 384.650 496.825, 386 495.444, 386 494.932 C 386 493.338, 384.441 493.902, 382.174 496.314 M 1019.158 498 C 1019.158 499.375, 1019.385 499.938, 1019.662 499.250 C 1019.940 498.563, 1019.940 497.438, 1019.662 496.750 C 1019.385 496.063, 1019.158 496.625, 1019.158 498 M 1013.750 499.662 C 1014.438 499.940, 1015.563 499.940, 1016.250 499.662 C 1016.938 499.385, 1016.375 499.158, 1015 499.158 C 1013.625 499.158, 1013.063 499.385, 1013.750 499.662 M 420 501 C 420 501.550, 420.450 502, 421 502 C 421.550 502, 422 501.550, 422 501 C 422 500.450, 421.550 500, 421 500 C 420.450 500, 420 500.450, 420 501 M 392.639 506.694 C 391.686 507.647, 391.867 510, 392.893 510 C 394.120 510, 395.105 507.183, 394.096 506.559 C 393.647 506.282, 392.991 506.342, 392.639 506.694 M 329.750 510.662 C 330.438 510.940, 331.563 510.940, 332.250 510.662 C 332.938 510.385, 332.375 510.158, 331 510.158 C 329.625 510.158, 329.063 510.385, 329.750 510.662 M 1025.543 514.931 C 1025.226 515.443, 1025.425 516.144, 1025.984 516.490 C 1026.543 516.835, 1027 516.416, 1027 515.559 C 1027 513.802, 1026.400 513.544, 1025.543 514.931 M 356.500 516 C 356.160 516.550, 356.359 517, 356.941 517 C 357.523 517, 358 516.550, 358 516 C 358 515.450, 357.802 515, 357.559 515 C 357.316 515, 356.840 515.450, 356.500 516 M 353.500 520 C 353.160 520.550, 353.359 521, 353.941 521 C 354.523 521, 355 520.550, 355 520 C 355 519.450, 354.802 519, 354.559 519 C 354.316 519, 353.840 519.450, 353.500 520 M 384.543 529.931 C 383.860 531.036, 385.437 532.230, 386.361 531.306 C 387.311 530.355, 387.134 529, 386.059 529 C 385.541 529, 384.859 529.419, 384.543 529.931 M 381.500 531 C 381.840 531.550, 382.316 532, 382.559 532 C 382.802 532, 383 531.550, 383 531 C 383 530.450, 382.523 530, 381.941 530 C 381.359 530, 381.160 530.450, 381.500 531 M 355.507 531.989 C 355.157 532.555, 355.558 532.723, 356.448 532.382 C 358.180 531.717, 358.497 531, 357.059 531 C 356.541 531, 355.843 531.445, 355.507 531.989 M 427 532.059 C 427 532.641, 427.450 532.840, 428 532.500 C 428.550 532.160, 429 531.684, 429 531.441 C 429 531.198, 428.550 531, 428 531 C 427.450 531, 427 531.477, 427 532.059 M 403.543 535.931 C 402.860 537.036, 404.437 538.230, 405.361 537.306 C 406.311 536.355, 406.134 535, 405.059 535 C 404.541 535, 403.859 535.419, 403.543 535.931 M 423.639 535.694 C 422.686 536.647, 422.867 539, 423.893 539 C 425.120 539, 426.105 536.183, 425.096 535.559 C 424.647 535.282, 423.991 535.342, 423.639 535.694 M 437.584 536.641 C 437.057 538.014, 437.204 538.076, 438.477 537.019 C 440.212 535.579, 440.393 535, 439.107 535 C 438.616 535, 437.931 535.739, 437.584 536.641 M 448 537.500 C 448 538.325, 448.450 539, 449 539 C 449.550 539, 450 538.325, 450 537.500 C 450 536.675, 449.550 536, 449 536 C 448.450 536, 448 536.675, 448 537.500 M 392.925 539.032 C 392.059 540.389, 391.061 542.288, 390.707 543.250 C 390.353 544.212, 389.599 545, 389.031 545 C 388.464 545, 388 545.702, 388 546.559 C 388 547.416, 387.550 547.840, 387 547.500 C 386.450 547.160, 386 547.359, 386 547.941 C 386 549.455, 387.609 549.248, 389.348 547.509 C 390.478 546.379, 390.961 546.318, 391.341 547.259 C 391.616 547.942, 391.878 547.520, 391.921 546.321 C 391.964 545.123, 392.706 543.436, 393.570 542.573 C 394.433 541.710, 394.996 540.004, 394.820 538.783 C 394.500 536.563, 394.500 536.563, 392.925 539.032 M 617.459 538.067 C 617.096 538.653, 617.014 539.348, 617.276 539.610 C 617.538 539.872, 618.019 539.392, 618.345 538.543 C 619.021 536.781, 618.445 536.471, 617.459 538.067 M 370 539 C 370 539.550, 370.477 540, 371.059 540 C 371.641 540, 371.840 539.550, 371.500 539 C 371.160 538.450, 370.684 538, 370.441 538 C 370.198 538, 370 538.450, 370 539 M 446.500 541 C 446.160 541.550, 446.359 542, 446.941 542 C 447.523 542, 448 541.550, 448 541 C 448 540.450, 447.802 540, 447.559 540 C 447.316 540, 446.840 540.450, 446.500 541 M 370 542.059 C 370 542.641, 370.450 542.840, 371 542.500 C 371.550 542.160, 372 541.684, 372 541.441 C 372 541.198, 371.550 541, 371 541 C 370.450 541, 370 541.477, 370 542.059 M 409.158 546 C 409.158 547.375, 409.385 547.938, 409.662 547.250 C 409.940 546.563, 409.940 545.438, 409.662 544.750 C 409.385 544.063, 409.158 544.625, 409.158 546 M 397.678 546.750 C 396.147 548.281, 395.809 548.312, 394.979 547 C 393.997 545.447, 393.640 546.226, 393.948 549.250 C 394.046 550.212, 393.647 551, 393.063 551 C 392.478 551, 392.014 551.788, 392.032 552.750 C 392.057 554.150, 392.549 553.948, 394.492 551.740 C 395.828 550.222, 398.064 548.546, 399.460 548.015 C 400.857 547.484, 402 546.588, 402 546.025 C 402 544.420, 399.607 544.822, 397.678 546.750 M 428.461 547.043 C 426.942 548.721, 426.901 548.975, 428.229 548.466 C 429.118 548.125, 430.091 547.205, 430.391 546.423 C 431.138 544.476, 430.639 544.636, 428.461 547.043 M 443 546.021 C 443 546.583, 441.900 547.544, 440.555 548.157 C 439.210 548.770, 437.850 549.949, 437.531 550.779 C 436.509 553.442, 437.676 553.164, 440.622 550.042 C 442.201 548.369, 444.057 547, 444.747 547 C 445.436 547, 446 546.550, 446 546 C 446 545.450, 445.325 545, 444.500 545 C 443.675 545, 443 545.460, 443 546.021 M 413.977 549.560 C 413.442 550.968, 412.553 551.842, 412.002 551.501 C 411.444 551.157, 410.994 551.906, 410.986 553.191 C 410.979 554.461, 410.690 556.625, 410.344 558 L 409.716 560.500 411.730 558.500 C 412.838 557.400, 413.550 556.163, 413.313 555.750 C 413.076 555.337, 413.359 555, 413.941 555 C 414.523 555, 415 554.116, 415 553.035 C 415 551.955, 415.913 550.582, 417.028 549.985 C 419.202 548.822, 418.828 547, 416.416 547 C 415.610 547, 414.512 548.152, 413.977 549.560 M 404.938 558.219 C 399.685 565.154, 399.835 564.750, 402.519 564.750 C 404.572 564.750, 404.882 564.378, 404.407 562.484 C 403.715 559.727, 405.517 558.314, 406.800 560.607 C 407.830 562.447, 408.412 561.802, 409.381 557.750 C 410.299 553.907, 408.022 554.148, 404.938 558.219 M 407.638 567.500 C 407.322 568.325, 407.499 569, 408.031 569 C 408.564 569, 409 568.325, 409 567.500 C 409 566.675, 408.823 566, 408.607 566 C 408.391 566, 407.955 566.675, 407.638 567.500 M 413.955 569.573 C 412.233 572.360, 412.013 573.405, 412.957 574.323 C 413.890 575.230, 414.121 575.156, 413.965 574 C 413.552 570.933, 414.062 569.927, 416.500 569 C 419.192 567.977, 419.905 566, 417.582 566 C 416.801 566, 415.169 567.608, 413.955 569.573 M 980.405 569.250 L 978.500 571.500 980.750 569.595 C 982.864 567.805, 983.455 567, 982.655 567 C 982.465 567, 981.453 568.013, 980.405 569.250 M 905.638 583.500 C 905.322 584.325, 905.499 585, 906.031 585 C 906.564 585, 907 584.325, 907 583.500 C 907 582.675, 906.823 582, 906.607 582 C 906.391 582, 905.955 582.675, 905.638 583.500 M 583.364 585.494 C 583.048 586.316, 582.388 586.740, 581.895 586.435 C 581.403 586.131, 581 586.302, 581 586.816 C 581 587.330, 582.029 587.750, 583.286 587.750 C 584.854 587.750, 585.571 587.161, 585.571 585.875 C 585.571 583.634, 584.171 583.392, 583.364 585.494 M 925 585 C 925 585.550, 925.450 586, 926 586 C 926.550 586, 927 585.550, 927 585 C 927 584.450, 926.550 584, 926 584 C 925.450 584, 925 584.450, 925 585 M 578.333 592.289 C 578.333 594.119, 578.615 594.635, 579.151 593.789 C 579.601 593.080, 579.976 592.893, 579.985 593.372 C 580.009 594.760, 583 591.895, 583 590.483 C 583 589.776, 581.964 589.276, 580.667 589.356 C 578.815 589.470, 578.333 590.075, 578.333 592.289 M 573.671 593.072 C 572.673 594.237, 572.093 595.426, 572.381 595.714 C 573.154 596.487, 576.218 593.153, 575.823 591.968 C 575.637 591.410, 574.668 591.907, 573.671 593.072 M 610.500 595 C 610.160 595.550, 610.359 596, 610.941 596 C 611.523 596, 612 595.550, 612 595 C 612 594.450, 611.802 594, 611.559 594 C 611.316 594, 610.840 594.450, 610.500 595 M 948.566 596.898 C 947.396 597.356, 947.055 597.916, 947.703 598.316 C 948.292 598.680, 949.329 598.308, 950.009 597.489 C 951.379 595.839, 951.326 595.817, 948.566 596.898 M 568 602 C 568 602.550, 568.702 603, 569.559 603 C 570.416 603, 570.840 602.550, 570.500 602 C 570.160 601.450, 569.459 601, 568.941 601 C 568.423 601, 568 601.450, 568 602 M 603.980 602.524 C 603.284 603.362, 602.968 604.301, 603.276 604.610 C 603.585 604.919, 604.340 604.233, 604.954 603.086 C 606.264 600.638, 605.778 600.358, 603.980 602.524 M 934.500 602 C 934.160 602.550, 934.359 603, 934.941 603 C 935.523 603, 936 602.550, 936 602 C 936 601.450, 935.802 601, 935.559 601 C 935.316 601, 934.840 601.450, 934.500 602 M 945.612 605.470 C 944.233 607.573, 944.216 607.854, 945.497 607.363 C 946.324 607.046, 947 606.133, 947 605.334 C 947 604.491, 947.484 604.181, 948.155 604.595 C 948.870 605.038, 949.038 604.870, 948.595 604.155 C 947.621 602.578, 947.460 602.649, 945.612 605.470 M 931.607 605.582 C 930.392 608.747, 931.873 609.034, 933.768 606 C 934.794 604.357, 934.767 604, 933.615 604 C 932.845 604, 931.941 604.712, 931.607 605.582 M 580.789 615.582 C 580.080 616.452, 576.688 620.163, 573.250 623.828 C 569.813 627.493, 567 631.056, 567 631.746 C 567 632.436, 566.561 633, 566.023 633 C 565.486 633, 564.177 634.800, 563.114 637 C 562.051 639.200, 561.560 641, 562.023 641 C 562.486 641, 563.158 640.078, 563.516 638.950 C 563.874 637.823, 565.704 635.363, 567.583 633.483 C 569.462 631.604, 571 629.483, 571 628.770 C 571 628.058, 572.005 627.030, 573.232 626.487 C 574.460 625.944, 575.988 624.438, 576.629 623.141 C 577.269 621.843, 579.190 619.506, 580.897 617.947 C 582.603 616.388, 584 614.862, 584 614.556 C 584 613.423, 582.038 614.050, 580.789 615.582 M 567 617.469 C 567 618.361, 567.587 618.712, 568.494 618.364 C 569.316 618.048, 569.740 617.388, 569.435 616.895 C 568.563 615.483, 567 615.851, 567 617.469 M 587 620.059 C 587 620.641, 587.450 620.840, 588 620.500 C 588.550 620.160, 589 619.684, 589 619.441 C 589 619.198, 588.550 619, 588 619 C 587.450 619, 587 619.477, 587 620.059 M 546.500 623 C 546.840 623.550, 547.316 624, 547.559 624 C 547.802 624, 548 623.550, 548 623 C 548 622.450, 547.523 622, 546.941 622 C 546.359 622, 546.160 622.450, 546.500 623 M 584 623.500 C 583.282 624.365, 583.185 625, 583.771 625 C 584.329 625, 585.045 624.325, 585.362 623.500 C 585.678 622.675, 585.781 622, 585.591 622 C 585.401 622, 584.685 622.675, 584 623.500 M 554.676 624.402 C 554.051 626.031, 554.891 627.186, 556.139 626.414 C 557.275 625.712, 557.250 623, 556.107 623 C 555.616 623, 554.972 623.631, 554.676 624.402 M 576.750 631.250 C 571.626 637.002, 571.118 639.036, 576.032 634.122 C 577.749 632.405, 579.617 631, 580.184 631 C 580.750 631, 580.966 630.354, 580.663 629.565 C 580.360 628.775, 580.650 627.937, 581.306 627.702 C 581.963 627.466, 582.249 626.998, 581.941 626.661 C 581.634 626.325, 579.298 628.389, 576.750 631.250 M 557.959 629.076 C 556.940 630.981, 557.022 631.059, 558.952 630.026 C 560.109 629.406, 560.792 628.472, 560.469 627.950 C 559.616 626.570, 559.201 626.756, 557.959 629.076 M 533.697 632.041 C 531.922 634.113, 531.469 636.006, 532.750 635.992 C 533.532 635.984, 536.198 630.865, 535.686 630.353 C 535.525 630.192, 534.630 630.952, 533.697 632.041 M 548.495 634.015 C 548.144 635.123, 547.438 635.771, 546.928 635.456 C 546.418 635.140, 546 635.359, 546 635.941 C 546 637.988, 548.692 636.972, 549.818 634.500 C 550.445 633.125, 550.547 632, 550.046 632 C 549.545 632, 548.847 632.907, 548.495 634.015 M 583.500 641 C 583.160 641.550, 583.359 642, 583.941 642 C 584.523 642, 585 641.550, 585 641 C 585 640.450, 584.802 640, 584.559 640 C 584.316 640, 583.840 640.450, 583.500 641 M 522.564 643.707 C 522.022 645.132, 522.136 645.247, 523.124 644.267 C 523.808 643.588, 524.115 642.781, 523.807 642.474 C 523.499 642.166, 522.940 642.721, 522.564 643.707 M 521.211 647.399 C 521.920 648.169, 522.658 648.649, 522.850 648.466 C 523.443 647.902, 521.940 646, 520.902 646 C 520.362 646, 520.501 646.630, 521.211 647.399 M 528 654.902 C 528 655.940, 529.902 657.443, 530.466 656.850 C 530.649 656.658, 530.169 655.920, 529.399 655.211 C 528.630 654.501, 528 654.362, 528 654.902 M 606.079 670.583 C 606.127 671.748, 606.364 671.985, 606.683 671.188 C 606.972 670.466, 606.936 669.603, 606.604 669.271 C 606.272 668.939, 606.036 669.529, 606.079 670.583 M 620 685.059 C 620 685.641, 619.550 685.840, 619 685.500 C 618.450 685.160, 618 685.326, 618 685.870 C 618 686.413, 617.271 687.586, 616.381 688.476 C 615.490 689.367, 615.019 690.352, 615.333 690.667 C 615.648 690.981, 616.489 690.608, 617.202 689.838 C 621.070 685.664, 622.197 684, 621.155 684 C 620.520 684, 620 684.477, 620 685.059 M 594.729 686.604 C 594.328 687.005, 594 688.023, 594 688.867 C 594 689.992, 594.296 690.104, 595.112 689.287 C 595.724 688.676, 596.053 687.657, 595.842 687.025 C 595.631 686.393, 595.130 686.203, 594.729 686.604 M 609.745 688.119 C 608.230 689.249, 607.244 690.585, 607.554 691.087 C 607.864 691.589, 607.615 692, 607 692 C 606.385 692, 606.181 692.484, 606.546 693.075 C 607.263 694.235, 611.464 690.836, 613.127 687.750 C 614.368 685.449, 613.145 685.582, 609.745 688.119 M 621.885 689.250 C 621.234 690.487, 620.205 691.831, 619.600 692.235 C 618.888 692.711, 619.028 692.973, 620 692.978 C 620.825 692.983, 622.267 691.640, 623.203 689.994 C 624.140 688.347, 624.494 687, 623.989 687 C 623.484 687, 622.537 688.013, 621.885 689.250 M 599.813 689.683 C 600.534 689.972, 601.397 689.936, 601.729 689.604 C 602.061 689.272, 601.471 689.036, 600.417 689.079 C 599.252 689.127, 599.015 689.364, 599.813 689.683 M 603 695.167 C 603 695.625, 603.675 696, 604.500 696 C 605.325 696, 606 695.625, 606 695.167 C 606 694.708, 605.325 694.333, 604.500 694.333 C 603.675 694.333, 603 694.708, 603 695.167 M 610 696 C 610 696.550, 609.325 697, 608.500 697 C 606.844 697, 606.475 698.558, 607.919 699.450 C 608.925 700.072, 612 697.419, 612 695.929 C 612 695.418, 611.550 695, 611 695 C 610.450 695, 610 695.450, 610 696 M 639 704.929 C 639 705.439, 638.293 706.564, 637.429 707.429 C 636.397 708.461, 636.273 709, 637.068 709 C 638.288 709, 640.909 706.144, 640.968 704.750 C 640.986 704.337, 640.550 704, 640 704 C 639.450 704, 639 704.418, 639 704.929 M 651.459 708.067 C 650.383 709.808, 651.608 710.177, 652.980 708.524 C 653.769 707.574, 653.845 707, 653.181 707 C 652.597 707, 651.821 707.480, 651.459 708.067 M 643.962 717.091 C 642.899 719.658, 642.529 719.909, 641.779 718.570 C 641.283 717.683, 640.421 717.240, 639.863 717.584 C 639.262 717.956, 639.767 719.187, 641.105 720.612 L 643.361 723.013 640.504 725.996 C 638.932 727.637, 637.972 729.305, 638.371 729.704 C 639.524 730.857, 642.469 728.503, 642.820 726.148 C 642.995 724.967, 643.648 724, 644.270 724 C 645.072 724, 645.051 723.651, 644.200 722.800 C 642.508 721.108, 642.674 720.417, 645.439 717.652 C 646.781 716.310, 647.606 714.939, 647.273 714.606 C 646.076 713.409, 645.222 714.050, 643.962 717.091 M 646.750 727.392 C 644.370 729.199, 644.544 730.279, 647.086 729.473 C 648.998 728.866, 649.070 729.006, 647.956 731.155 L 646.741 733.500 648.742 731.500 C 650.194 730.048, 650.495 729.020, 649.836 727.750 C 648.770 725.692, 648.961 725.714, 646.750 727.392 M 653.232 731 C 652.190 732.668, 652.233 733, 653.492 733 C 654.321 733, 655 732.812, 655 732.582 C 655 732.352, 655.273 731.452, 655.607 730.582 C 656.476 728.316, 654.714 728.627, 653.232 731 M 650.079 734.857 C 650.033 735.640, 649.366 735.971, 648.500 735.638 C 646.889 735.020, 646.349 737.480, 647.887 738.430 C 649.123 739.194, 651.301 736.345, 650.673 734.784 C 650.273 733.786, 650.140 733.802, 650.079 734.857 M 682 735.059 C 682 735.641, 682.450 735.840, 683 735.500 C 683.550 735.160, 684 734.684, 684 734.441 C 684 734.198, 683.550 734, 683 734 C 682.450 734, 682 734.477, 682 735.059 M 695.020 735.476 C 694.231 736.426, 694.155 737, 694.819 737 C 696.027 737, 697.436 735.103, 696.743 734.409 C 696.491 734.158, 695.716 734.638, 695.020 735.476 M 678.012 738.977 C 677.163 740.564, 677.240 740.845, 678.400 740.400 C 680.082 739.755, 681.381 737, 680.004 737 C 679.490 737, 678.594 737.890, 678.012 738.977 M 651.733 740.124 C 652.412 740.808, 653.219 741.115, 653.526 740.807 C 653.834 740.499, 653.279 739.940, 652.293 739.564 C 650.868 739.022, 650.753 739.136, 651.733 740.124 M 655.500 740 C 655.840 740.550, 656.568 741, 657.118 741 C 657.668 741, 657.840 740.550, 657.500 740 C 657.160 739.450, 656.432 739, 655.882 739 C 655.332 739, 655.160 739.450, 655.500 740 M 690.115 741.549 C 687.659 744.138, 687.655 745.459, 690.107 744.506 C 691.555 743.943, 694.309 738.987, 693.156 739.017 C 692.795 739.027, 691.427 740.166, 690.115 741.549 M 703.278 740.250 C 701.324 742.777, 700.657 744.330, 701.840 743.599 C 703.024 742.867, 705.393 739, 704.658 739 C 704.431 739, 703.810 739.563, 703.278 740.250 M 669.638 741.500 C 669.322 742.325, 669.451 743, 669.924 743 C 670.398 743, 671.045 742.325, 671.362 741.500 C 671.678 740.675, 671.549 740, 671.076 740 C 670.602 740, 669.955 740.675, 669.638 741.500 M 694.212 742.032 C 692.784 744.318, 692.645 746, 693.883 746 C 694.637 746, 696.198 740.884, 695.624 740.295 C 695.514 740.183, 694.879 740.964, 694.212 742.032 M 673.575 743.128 C 671.999 744.660, 671.932 745, 673.203 745 C 675.014 745, 677.471 742.394, 676.299 741.717 C 675.859 741.463, 674.634 742.098, 673.575 743.128 M 708.703 746.792 C 704.242 751.361, 703.746 753.330, 708.063 749.335 C 710.802 746.799, 713.606 743, 712.738 743 C 712.555 743, 710.740 744.706, 708.703 746.792 M 718.667 743.667 C 717.452 744.881, 717.976 745.947, 719.500 745.362 C 720.325 745.045, 721 744.384, 721 743.893 C 721 742.845, 719.622 742.711, 718.667 743.667 M 664.386 746.437 C 664.083 747.227, 663.242 747.646, 662.518 747.369 C 661.795 747.091, 660.934 747.297, 660.607 747.827 C 659.638 749.394, 662.914 750.071, 665.040 748.743 C 667.109 747.451, 667.717 745, 665.969 745 C 665.401 745, 664.689 745.647, 664.386 746.437 M 685.183 747.217 C 683.783 748.617, 683.638 750, 684.893 750 C 685.809 750, 687.318 746.984, 686.707 746.374 C 686.520 746.186, 685.834 746.566, 685.183 747.217 M 689.667 747.667 C 689.300 748.033, 689 748.798, 689 749.367 C 689 749.993, 689.466 749.934, 690.183 749.217 C 690.834 748.566, 691.134 747.801, 690.850 747.517 C 690.566 747.232, 690.033 747.300, 689.667 747.667 M 717 749 C 717 749.550, 717.450 750, 718 750 C 718.550 750, 719 749.550, 719 749 C 719 748.450, 718.550 748, 718 748 C 717.450 748, 717 748.450, 717 749 M 805 749.059 C 805 749.641, 805.450 749.840, 806 749.500 C 806.550 749.160, 807 748.684, 807 748.441 C 807 748.198, 806.550 748, 806 748 C 805.450 748, 805 748.477, 805 749.059 M 657.450 751.903 C 656.928 752.400, 655.600 753.022, 654.500 753.287 C 653.205 753.598, 653.646 753.809, 655.750 753.884 C 658.024 753.965, 659 753.549, 659 752.500 C 659 750.760, 658.753 750.665, 657.450 751.903 M 711.835 752.708 C 710.369 752.933, 708.901 753.815, 708.573 754.670 C 708.160 755.746, 708.425 756.051, 709.438 755.662 C 710.378 755.302, 710.715 755.579, 710.384 756.440 C 710.081 757.230, 709.031 757.559, 707.822 757.243 C 706.128 756.800, 705.884 757.059, 706.416 758.735 C 706.837 760.061, 706.547 760.960, 705.581 761.331 C 704.579 761.715, 704.283 761.427, 704.662 760.438 C 705.057 759.409, 704.746 759.160, 703.611 759.596 C 702.725 759.936, 702 760.733, 702 761.366 C 702 762, 701.056 763.108, 699.903 763.829 C 698.749 764.549, 698.053 765.386, 698.355 765.688 C 698.657 765.991, 699.649 765.494, 700.558 764.585 C 701.467 763.676, 702.990 763.179, 703.942 763.482 C 705.139 763.862, 707.113 762.469, 710.337 758.969 C 712.902 756.184, 715 753.477, 715 752.953 C 715 752.429, 714.888 752.067, 714.750 752.150 C 714.612 752.232, 713.301 752.483, 711.835 752.708 M 779.261 754.414 C 776.417 757.686, 777.694 758.622, 780.650 755.432 C 781.943 754.038, 783 752.695, 783 752.448 C 783 751.269, 781.151 752.241, 779.261 754.414 M 696.402 759.558 C 692.668 763.166, 688.913 766.513, 688.057 766.996 C 687.016 767.584, 686.832 768.211, 687.500 768.886 C 688.171 769.565, 690.505 768.007, 694.595 764.150 C 700.166 758.897, 704.986 753, 703.710 753 C 703.424 753, 700.135 755.951, 696.402 759.558 M 680.788 756.170 C 679.846 757.349, 679.348 758.754, 679.681 759.293 C 680.255 760.222, 683.931 756.337, 683.978 754.750 C 684.019 753.346, 682.505 754.021, 680.788 756.170 M 654.211 757.538 C 653.501 758.342, 653.334 759, 653.838 759 C 654.342 759, 655.315 758.325, 656 757.500 C 657.604 755.568, 655.917 755.603, 654.211 757.538 M 694 758 C 694 758.550, 693.518 759, 692.929 759 C 691.549 759, 688.598 761.931, 689.285 762.619 C 689.573 762.907, 691.315 761.774, 693.155 760.101 C 694.995 758.427, 695.938 757.045, 695.250 757.029 C 694.563 757.013, 694 757.450, 694 758 M 731.079 758.583 C 731.127 759.748, 731.364 759.985, 731.683 759.188 C 731.972 758.466, 731.936 757.603, 731.604 757.271 C 731.272 756.939, 731.036 757.529, 731.079 758.583 M 745.652 759.671 C 743.203 762.938, 743.939 763.477, 746.795 760.509 C 748.041 759.215, 748.709 757.942, 748.280 757.681 C 747.851 757.420, 746.668 758.315, 745.652 759.671 M 798 758 C 798 758.550, 798.450 759, 799 759 C 799.550 759, 800 758.550, 800 758 C 800 757.450, 799.550 757, 799 757 C 798.450 757, 798 757.450, 798 758 M 774 759 C 773.207 759.490, 772.783 760.116, 773.058 760.391 C 773.333 760.666, 774.207 760.490, 775 760 C 775.793 759.510, 776.217 758.884, 775.942 758.609 C 775.667 758.334, 774.793 758.510, 774 759 M 659.250 759.720 C 658.563 759.966, 658 760.539, 658 760.995 C 658 762.035, 660.383 761.741, 660.833 760.645 C 661.294 759.523, 660.728 759.192, 659.250 759.720 M 675.407 761.563 C 674.325 762.628, 672.215 764.139, 670.720 764.919 C 668.116 766.277, 666.946 769, 668.965 769 C 669.496 769, 671.634 767.555, 673.715 765.790 C 675.797 764.024, 677.659 762.477, 677.854 762.352 C 678.049 762.227, 678.021 761.563, 677.792 760.875 C 677.497 759.992, 676.797 760.194, 675.407 761.563 M 712 761.500 C 711.306 762.337, 711.197 763, 711.755 763 C 712.305 763, 713.315 762.325, 714 761.500 C 714.694 760.663, 714.803 760, 714.245 760 C 713.695 760, 712.685 760.675, 712 761.500 M 657.750 763.662 C 658.438 763.940, 659.563 763.940, 660.250 763.662 C 660.938 763.385, 660.375 763.158, 659 763.158 C 657.625 763.158, 657.063 763.385, 657.750 763.662 M 700.250 765.944 C 697.707 768.065, 697.410 769, 699.278 769 C 700.455 769, 704 765.614, 704 764.489 C 704 763.508, 702.447 764.110, 700.250 765.944 M 706.204 767.045 C 705.431 768.283, 705.365 769, 706.023 769 C 706.595 769, 707.329 768.306, 707.655 767.457 C 708.555 765.111, 707.583 764.836, 706.204 767.045 M 694.500 767 C 694.160 767.550, 694.359 768, 694.941 768 C 695.523 768, 696 767.550, 696 767 C 696 766.450, 695.802 766, 695.559 766 C 695.316 766, 694.840 766.450, 694.500 767 M 674.872 768.750 C 673.603 770.369, 673.650 770.390, 675.500 769.033 C 676.600 768.226, 677.688 767.439, 677.917 767.283 C 678.146 767.127, 677.863 767, 677.289 767 C 676.715 767, 675.627 767.788, 674.872 768.750 M 780.750 767.689 C 779.788 767.941, 779 768.789, 779 769.573 C 779 770.358, 778.352 771, 777.559 771 C 775.821 771, 774.625 772.650, 775.825 773.392 C 776.297 773.684, 778.193 772.365, 780.038 770.461 C 781.883 768.557, 783.192 767.052, 782.946 767.116 C 782.701 767.180, 781.712 767.438, 780.750 767.689 M 717 769 C 717 769.550, 717.675 770, 718.500 770 C 719.325 770, 720 769.550, 720 769 C 720 768.450, 719.325 768, 718.500 768 C 717.675 768, 717 768.450, 717 769 M 693.579 772.055 C 691.663 773.987, 691.916 775.788, 693.928 774.544 C 695.344 773.669, 697.281 769.984, 696.285 770.059 C 695.853 770.092, 694.636 770.990, 693.579 772.055 M 735.813 771.744 C 733.464 774.478, 732.786 776, 733.918 776 C 735.119 776, 738.503 771.169, 737.796 770.463 C 737.535 770.201, 736.642 770.778, 735.813 771.744 M 687 772 C 687 772.550, 687.450 773, 688 773 C 688.550 773, 689 772.550, 689 772 C 689 771.450, 688.550 771, 688 771 C 687.450 771, 687 771.450, 687 772 M 709 775 C 709 775.550, 709.423 776, 709.941 776 C 710.459 776, 711.160 775.550, 711.500 775 C 711.840 774.450, 711.416 774, 710.559 774 C 709.702 774, 709 774.450, 709 775 M 722.583 777.600 C 720.429 779.470, 719.144 781, 719.728 781 C 720.942 781, 727.475 775.133, 726.887 774.570 C 726.674 774.367, 724.738 775.730, 722.583 777.600 M 705 777.559 C 705 778.416, 705.457 778.835, 706.016 778.490 C 706.575 778.144, 706.774 777.443, 706.457 776.931 C 705.600 775.544, 705 775.802, 705 777.559 M 699 780.069 C 695.650 780.708, 695.703 780.742, 700.250 780.868 C 704.923 780.998, 706.211 780.608, 703.750 779.808 C 703.063 779.584, 700.925 779.702, 699 780.069 M 708.813 780.683 C 709.534 780.972, 710.397 780.936, 710.729 780.604 C 711.061 780.272, 710.471 780.036, 709.417 780.079 C 708.252 780.127, 708.015 780.364, 708.813 780.683 M 729.500 787 C 729.160 787.550, 729.359 788, 729.941 788 C 730.523 788, 731 787.550, 731 787 C 731 786.450, 730.802 786, 730.559 786 C 730.316 786, 729.840 786.450, 729.500 787 M 748.500 791 C 748.160 791.550, 748.359 792, 748.941 792 C 749.523 792, 750 791.550, 750 791 C 750 790.450, 749.802 790, 749.559 790 C 749.316 790, 748.840 790.450, 748.500 791 M 721.500 793 C 721.160 793.550, 721.809 794, 722.941 794 C 724.073 794, 725 793.550, 725 793 C 725 792.450, 724.352 792, 723.559 792 C 722.766 792, 721.840 792.450, 721.500 793 M 706.682 795.387 C 706.308 796.360, 706.724 796.623, 708.075 796.270 C 710.289 795.691, 710.685 794, 708.607 794 C 707.841 794, 706.975 794.624, 706.682 795.387 M 737.234 801.029 C 734.074 803.904, 734.132 804.654, 737.418 803.393 C 738.288 803.059, 739 802.159, 739 801.393 C 739 800.627, 739.675 800, 740.500 800 C 741.325 800, 742 799.550, 742 799 C 742 797.339, 740.667 797.906, 737.234 801.029 M 739.558 803.907 C 739.249 804.405, 739.898 804.578, 740.999 804.290 C 743.334 803.679, 743.629 803, 741.559 803 C 740.766 803, 739.866 803.408, 739.558 803.907 M 717 805.059 C 717 805.641, 717.450 805.840, 718 805.500 C 718.550 805.160, 719 804.684, 719 804.441 C 719 804.198, 718.550 804, 718 804 C 717.450 804, 717 804.477, 717 805.059 M 735 808.500 C 735 809.325, 735.450 810, 736 810 C 736.550 810, 737 809.325, 737 808.500 C 737 807.675, 736.550 807, 736 807 C 735.450 807, 735 807.675, 735 808.500 M 731 809.681 C 731 810.238, 729.987 811.183, 728.750 811.780 C 727.513 812.376, 726.976 812.895, 727.559 812.932 C 729.241 813.040, 732.574 810.241, 731.748 809.415 C 731.337 809.003, 731 809.123, 731 809.681" stroke="none" fill="black" fill-rule="evenodd"/>
</svg>