<svg xmlns="http://www.w3.org/2000/svg" width="595" height="842" viewBox="0 0 595 842" version="1.1">
	<path d="M 247.864 259.470 C 247.593 259.740, 242.226 260.199, 235.936 260.489 C 222.197 261.122, 216.852 262.401, 213.030 265.972 C 209.709 269.074, 210.158 266.701, 205.833 304 C 202.859 329.644, 202.548 334.933, 202.728 356.775 C 202.903 378.030, 203.161 381.575, 204.797 385.275 C 209.479 395.859, 224.675 402.782, 250.500 406.097 C 262.280 407.609, 302.032 407.603, 313.500 406.087 C 346.757 401.692, 367.987 391.762, 374.975 377.333 C 376.262 374.675, 377.694 371.719, 378.158 370.764 C 378.621 369.809, 379 368.121, 379 367.014 C 379 365.906, 379.450 365, 380 365 C 380.550 365, 381.010 364.212, 381.022 363.250 C 381.034 362.288, 381.891 359.634, 382.926 357.354 C 384.182 354.589, 384.476 352.876, 383.808 352.208 C 383.141 351.541, 383.393 349.973, 384.567 347.500 C 386.185 344.090, 386.235 342.301, 385.182 325.146 C 384.552 314.891, 383.391 303.575, 382.600 300 C 381.303 294.134, 381.320 293.378, 382.773 292.250 C 384.076 291.238, 384.108 290.997, 382.941 290.985 C 381.726 290.972, 381.735 290.818, 383 290 C 383.825 289.467, 384.050 289.017, 383.500 289 C 382.950 288.983, 381.843 288.554, 381.040 288.046 C 379.795 287.258, 379.869 286.797, 381.540 284.916 L 383.500 282.709 381.316 283.854 C 380.114 284.485, 377.414 284.964, 375.316 284.921 C 373.217 284.878, 372.063 284.615, 372.750 284.338 C 374.491 283.635, 374.316 282, 372.500 282 C 371.675 282, 371 281.550, 371 281 C 371 279.602, 377.747 279.742, 378.217 281.150 C 378.493 281.978, 379.427 282.018, 381.550 281.294 C 384.424 280.314, 384.346 280.253, 378.500 278.920 C 372.953 277.656, 372.764 277.526, 376 277.205 C 380.701 276.738, 381.567 275.641, 378.520 274.011 C 376.994 273.194, 376 271.791, 376 270.453 C 376 267.843, 372.921 264.768, 372.263 266.722 C 372.001 267.501, 370.993 267.017, 369.480 265.384 C 367.975 263.761, 365.625 262.625, 363.054 262.280 C 360.824 261.981, 359 261.291, 359 260.746 C 359 260.191, 358.359 260.287, 357.544 260.964 C 355.926 262.306, 353.612 261.437, 354.590 259.855 C 355.597 258.225, 302.718 259.158, 300.734 260.805 C 299.775 261.602, 296.305 262.135, 291.831 262.173 C 279.578 262.279, 277.818 262.104, 278.590 260.855 C 279.092 260.042, 278.456 259.909, 276.399 260.394 C 270.978 261.672, 253.818 262.322, 253.145 261.274 C 252.375 260.075, 248.561 258.772, 247.864 259.470 M 349 263 C 347.070 263.618, 347.754 263.820, 352 263.885 C 355.892 263.945, 357.061 263.686, 356 263 C 354.265 261.879, 352.502 261.879, 349 263 M 313 509 C 307.225 509.275, 301.517 510.063, 300.316 510.750 C 297.140 512.568, 279.389 512.456, 278.682 510.614 C 278.230 509.435, 277.281 509.432, 272.325 510.598 C 263.904 512.580, 254.351 512.450, 253.169 510.338 C 252.317 508.814, 250.961 508.781, 236.870 509.943 C 214.918 511.753, 210.311 514.229, 209.294 524.764 C 209.042 527.369, 207.448 540.975, 205.750 555 C 203.003 577.702, 202.677 583.261, 202.784 605.666 C 202.911 632.568, 203.375 635.529, 208.298 640.856 C 213.816 646.828, 225.450 651.653, 241.500 654.626 C 255.436 657.208, 307.600 657.287, 322.012 654.749 C 344.016 650.873, 359.257 644.567, 368.549 635.495 C 373.885 630.285, 378.065 623.464, 377.278 621.250 C 377.033 620.563, 377.321 620, 377.917 620 C 378.512 620, 379 619.151, 379 618.114 C 379 617.077, 379.672 614.940, 380.494 613.364 C 381.315 611.789, 381.990 609.799, 381.994 608.941 C 381.997 608.084, 382.638 606.510, 383.417 605.444 C 384.377 604.131, 384.514 603.120, 383.843 602.311 C 383.170 601.500, 383.406 599.946, 384.580 597.473 C 386.162 594.138, 386.211 592.209, 385.161 574.665 C 384.529 564.124, 383.384 552.655, 382.615 549.177 C 381.487 544.072, 381.464 542.759, 382.498 542.362 C 384.082 541.755, 383.304 538.331, 381.418 537.607 C 380.657 537.315, 380.258 536.492, 380.531 535.780 C 380.907 534.800, 379.871 534.575, 376.294 534.860 C 372.024 535.199, 371.691 535.077, 372.902 533.618 C 374.045 532.240, 374.004 532, 372.622 532 C 371.730 532, 371 531.550, 371 531 C 371 529.602, 377.747 529.742, 378.217 531.150 C 378.492 531.976, 379.431 532.018, 381.550 531.300 L 384.500 530.300 381 529.575 C 375.521 528.441, 374 527.919, 374 527.173 C 374 526.792, 375.339 526.485, 376.975 526.490 C 380.511 526.502, 381.136 524.899, 378.137 523.513 C 376.942 522.961, 376 521.596, 376 520.418 C 376 518.028, 372.427 514.219, 371.839 515.983 C 371.622 516.635, 370.528 516.209, 369.165 514.939 C 367.897 513.758, 365.091 512.554, 362.930 512.264 C 360.768 511.974, 359 511.291, 359 510.746 C 359 510.201, 358.330 510.311, 357.511 510.991 C 356.692 511.671, 356.269 512.626, 356.570 513.113 C 356.871 513.601, 354.729 513.956, 351.809 513.902 L 346.500 513.804 350.500 512.652 C 352.700 512.018, 354.599 510.978, 354.720 510.340 C 355.179 507.920, 343.529 507.546, 313 509 M 379.813 539.683 C 380.534 539.972, 381.397 539.936, 381.729 539.604 C 382.061 539.272, 381.471 539.036, 380.417 539.079 C 379.252 539.127, 379.015 539.364, 379.813 539.683" stroke="none" fill="black" fill-rule="evenodd"/>
</svg>