<svg xmlns="http://www.w3.org/2000/svg" width="1240" height="1753" viewBox="0 0 1240 1753" version="1.1">
	<path d="M 686 1163.158 C 684.075 1163.666, 673.050 1164.125, 661.500 1164.176 C 649.950 1164.227, 641.850 1164.605, 643.500 1165.016 C 649.405 1166.487, 640.175 1166.630, 632.750 1165.184 C 629.359 1164.523, 627.996 1164.579, 627.985 1165.379 C 627.974 1166.134, 627.729 1166.160, 627.235 1165.460 C 626.831 1164.888, 624.250 1164.470, 621.500 1164.532 C 602.082 1164.965, 602 1164.974, 602 1166.531 C 602 1167.374, 601.212 1168.322, 600.250 1168.638 C 599.288 1168.955, 597.145 1169.811, 595.490 1170.540 C 591.787 1172.171, 573.341 1172.299, 563.744 1170.761 C 557.469 1169.755, 555.551 1168.600, 560.040 1168.530 C 561.104 1168.514, 561.868 1168.050, 561.737 1167.500 C 561.607 1166.950, 560.653 1166.618, 559.617 1166.762 C 558.581 1166.906, 557.084 1166.485, 556.290 1165.826 C 555.164 1164.892, 554.675 1164.909, 554.060 1165.904 C 553.626 1166.605, 552.198 1167.089, 550.886 1166.979 C 549.574 1166.869, 546.250 1166.873, 543.500 1166.989 C 539.661 1167.151, 539.080 1167.362, 541 1167.898 L 543.500 1168.597 540.100 1170.296 C 538.144 1171.274, 536.233 1171.641, 535.600 1171.159 C 534.995 1170.699, 531.350 1170.621, 527.500 1170.986 C 523.650 1171.351, 519.150 1171.236, 517.500 1170.730 C 515.850 1170.224, 512.788 1169.873, 510.696 1169.949 C 507.576 1170.063, 506.947 1169.771, 507.196 1168.326 C 507.436 1166.938, 506.470 1166.372, 502.638 1165.654 C 499.851 1165.132, 497.505 1165.118, 497.138 1165.621 C 496.787 1166.105, 493.350 1166.583, 489.500 1166.685 C 485.650 1166.787, 481.375 1166.925, 480 1166.991 C 478.625 1167.058, 475.976 1166.802, 474.114 1166.423 C 471.521 1165.895, 470.515 1166.116, 469.815 1167.367 C 468.738 1169.291, 465.351 1169.547, 464.746 1167.750 C 464.415 1166.768, 463.979 1166.785, 462.711 1167.833 C 461.747 1168.628, 460.219 1168.887, 458.923 1168.475 C 457.650 1168.072, 456.990 1168.175, 457.331 1168.726 C 457.650 1169.243, 456.582 1169.667, 454.956 1169.667 C 453.330 1169.667, 452 1169.237, 452 1168.711 C 452 1168.119, 451.524 1168.131, 450.750 1168.741 C 450.063 1169.284, 446.158 1170.024, 442.074 1170.387 C 437.990 1170.750, 434.073 1171.525, 433.368 1172.109 C 432.664 1172.694, 431.618 1172.882, 431.044 1172.527 C 430.463 1172.168, 430 1172.697, 430 1173.718 C 430 1174.728, 428.599 1176.784, 426.886 1178.287 C 424.727 1180.181, 423.932 1181.630, 424.292 1183.010 C 424.612 1184.234, 424.318 1185, 423.529 1185 C 420.365 1185, 419.449 1187.876, 418.466 1200.888 C 418.159 1204.952, 417.215 1209.617, 416.368 1211.256 C 415.182 1213.550, 414.823 1217.718, 414.812 1229.368 C 414.801 1240.139, 414.396 1245.365, 413.409 1247.500 C 412.645 1249.150, 411.344 1256.938, 410.516 1264.806 C 409.688 1272.674, 408.559 1279.955, 408.007 1280.987 C 406.345 1284.092, 403.778 1296.133, 403.526 1302 C 402.602 1323.557, 401.549 1337.283, 399.938 1348.768 C 397.992 1362.638, 398.005 1362.834, 401.266 1369.865 C 403.049 1373.712, 403.154 1374.821, 402.145 1379.192 C 399.947 1388.715, 401.559 1399.627, 405.998 1405.270 C 408.203 1408.073, 408.641 1411.620, 406.857 1412.214 C 406.040 1412.487, 406.009 1413.153, 406.751 1414.548 C 407.321 1415.622, 408.762 1421.215, 409.953 1426.978 C 411.144 1432.740, 413.055 1438.971, 414.200 1440.824 C 416.786 1445.008, 421.968 1447.304, 432.502 1448.931 C 440.475 1450.163, 442.694 1450.102, 491.311 1447.314 C 497.675 1446.949, 501.583 1446.352, 500.811 1445.862 C 500.066 1445.390, 504.143 1445.024, 510.250 1445.015 C 516.163 1445.007, 521 1445.245, 521 1445.544 C 521 1446.145, 514.619 1455.503, 508.465 1463.927 C 506.284 1466.913, 502.250 1472.595, 499.500 1476.554 C 496.750 1480.514, 489.138 1491.347, 482.584 1500.627 C 460.607 1531.748, 461.630 1530.153, 463.069 1531.043 C 464.067 1531.659, 462.916 1533.687, 458.449 1539.182 C 455.177 1543.207, 451.201 1548.412, 449.614 1550.750 C 448.027 1553.088, 446.123 1555, 445.383 1555 C 444.643 1555, 443.729 1556.231, 443.352 1557.735 C 442.683 1560.400, 441.220 1562.958, 434 1574.085 C 432.075 1577.052, 429.965 1581.734, 429.311 1584.490 C 428.248 1588.968, 428.338 1589.925, 430.156 1593.500 C 432.433 1597.978, 439.411 1605, 441.584 1605 C 442.363 1605, 443 1605.480, 443 1606.067 C 443 1607.236, 447.138 1606.290, 448.026 1604.918 C 448.316 1604.471, 449.216 1604.525, 450.026 1605.037 C 451.257 1605.815, 451.266 1605.972, 450.083 1605.985 C 449.304 1605.993, 448.964 1606.297, 449.327 1606.661 C 449.690 1607.024, 450.778 1606.642, 451.744 1605.813 C 455.297 1602.761, 456.004 1602.780, 457.341 1605.960 C 458.157 1607.900, 460.302 1609.962, 463.073 1611.469 C 465.508 1612.794, 467.362 1614.431, 467.194 1615.108 C 466.961 1616.041, 467.264 1616.026, 468.444 1615.047 C 469.308 1614.329, 470 1614.205, 470 1614.766 C 470 1615.323, 470.563 1615.757, 471.250 1615.731 C 475.474 1615.574, 477.176 1616.098, 476.676 1617.401 C 476.029 1619.088, 480.003 1620.397, 481.433 1618.967 C 481.965 1618.435, 483.170 1618, 484.112 1618 C 485.345 1618, 485.747 1618.700, 485.549 1620.500 C 485.348 1622.333, 485.750 1623, 487.056 1623 C 490.163 1623, 492 1624.154, 492 1626.107 C 492 1628.371, 494.551 1628.625, 495.751 1626.481 C 496.454 1625.224, 497.550 1625.700, 502.085 1629.231 C 505.101 1631.579, 508.651 1634.513, 509.973 1635.750 C 511.295 1636.987, 513.178 1638, 514.157 1638 C 515.350 1638, 515.742 1638.509, 515.346 1639.541 C 515.021 1640.388, 515.147 1641.010, 515.627 1640.922 C 516.107 1640.835, 517.561 1640.816, 518.857 1640.882 C 520.592 1640.969, 521.051 1641.425, 520.596 1642.611 C 520.142 1643.794, 520.404 1644.059, 521.581 1643.607 C 522.657 1643.195, 523.358 1643.652, 523.709 1644.996 C 523.997 1646.098, 524.657 1647, 525.176 1647 C 525.694 1647, 525.799 1647.516, 525.410 1648.146 C 524.911 1648.952, 525.486 1649.095, 527.351 1648.627 C 529.346 1648.126, 530 1648.337, 530 1649.481 C 530 1650.316, 530.465 1651, 531.034 1651 C 531.602 1651, 533.497 1652.463, 535.244 1654.250 C 536.992 1656.037, 538.889 1657.510, 539.461 1657.522 C 540.032 1657.535, 540.369 1658.317, 540.209 1659.261 C 539.775 1661.820, 541.929 1665.241, 543.577 1664.609 C 544.552 1664.235, 545 1664.783, 545 1666.351 C 545 1668.248, 545.854 1668.871, 550 1670 C 552.750 1670.749, 555 1671.730, 555 1672.181 C 555 1672.631, 555.482 1673, 556.071 1673 C 556.661 1673, 557.818 1673.675, 558.643 1674.500 C 559.468 1675.325, 559.868 1676, 559.532 1676 C 559.196 1676, 559.501 1676.628, 560.211 1677.395 C 560.920 1678.162, 561.823 1678.595, 562.217 1678.356 C 562.612 1678.118, 563.508 1678.840, 564.208 1679.961 C 564.908 1681.083, 565.855 1682, 566.312 1682 C 567.446 1682, 569.439 1684.083, 570.877 1686.771 C 571.759 1688.418, 572.975 1689, 575.535 1689 C 578.051 1689, 579 1689.440, 579 1690.607 C 579 1691.674, 579.542 1692.006, 580.611 1691.596 C 581.754 1691.157, 582.057 1691.408, 581.654 1692.460 C 580.840 1694.580, 583.663 1697, 586.949 1697 C 588.492 1697, 590.315 1697.675, 591 1698.500 C 591.685 1699.325, 592.856 1700, 593.603 1700 C 594.351 1700, 595.216 1701.013, 595.527 1702.250 C 596.098 1704.520, 600.148 1707.116, 602.323 1706.604 C 602.970 1706.452, 603.144 1706.523, 602.708 1706.761 C 601.800 1707.259, 603.816 1710, 605.091 1710 C 605.556 1710, 605.721 1709.437, 605.457 1708.748 C 605.193 1708.059, 605.882 1706.930, 606.988 1706.239 C 608.095 1705.548, 609 1705.410, 609 1705.933 C 609 1706.455, 608.550 1707.160, 608 1707.500 C 606.217 1708.602, 606.937 1709.559, 609.725 1709.789 C 612.948 1710.056, 618.891 1707.447, 619.667 1705.424 C 619.968 1704.641, 620.701 1704, 621.297 1704 C 622.658 1704, 632.012 1693.958, 631.967 1692.545 C 631.948 1691.970, 631.030 1692.585, 629.927 1693.910 C 628.608 1695.494, 627.582 1695.982, 626.934 1695.334 C 626.286 1694.686, 626.814 1693.414, 628.474 1691.623 C 629.863 1690.123, 631 1688.496, 631 1688.005 C 631 1687.515, 631.800 1686.525, 632.779 1685.807 C 635.997 1683.442, 645 1671.411, 645 1669.475 C 645 1669.171, 643.026 1671.302, 640.614 1674.211 C 632.824 1683.604, 624.310 1692, 622.574 1692 C 621.643 1692, 621.165 1691.543, 621.510 1690.984 C 621.856 1690.425, 622.494 1690.187, 622.930 1690.456 C 623.365 1690.725, 624.481 1689.270, 625.410 1687.223 C 626.339 1685.175, 628.672 1681.740, 630.595 1679.589 C 632.517 1677.438, 633.868 1675.098, 633.596 1674.390 C 633.302 1673.624, 633.637 1673.307, 634.422 1673.608 C 636.408 1674.371, 637.308 1670.946, 635.474 1669.604 C 634.080 1668.586, 634.159 1667.985, 636.206 1664.016 C 637.468 1661.570, 640.183 1657.753, 642.239 1655.534 C 644.296 1653.315, 645.983 1651.162, 645.989 1650.750 C 645.995 1650.338, 646.661 1650, 647.469 1650 C 648.441 1650, 648.724 1650.591, 648.306 1651.750 C 647.959 1652.713, 649.053 1651.955, 650.736 1650.066 C 652.419 1648.178, 653.583 1646.077, 653.322 1645.397 C 652.616 1643.556, 663.214 1633.881, 664.514 1635.181 C 666.162 1636.828, 661.130 1645.318, 653.663 1653.490 C 652.653 1654.595, 650.956 1657.188, 649.893 1659.250 C 648.829 1661.313, 647.594 1663, 647.147 1663 C 646.482 1663, 646.392 1665.004, 646.922 1668 C 647.011 1668.502, 656.114 1659.086, 661.250 1653.180 C 662.763 1651.440, 664 1649.527, 664 1648.928 C 664 1647.737, 669.479 1640.884, 675.020 1635.146 C 679.664 1630.336, 684.465 1623.972, 684.484 1622.598 C 684.510 1620.763, 692.411 1610.079, 693.771 1610.038 C 694.471 1610.017, 695.577 1608.763, 696.230 1607.250 C 696.883 1605.737, 698.921 1602.700, 700.759 1600.500 C 702.597 1598.300, 704.640 1595.839, 705.300 1595.030 C 705.960 1594.222, 707.400 1591.912, 708.500 1589.897 C 709.600 1587.881, 713.893 1582.018, 718.041 1576.866 C 722.189 1571.715, 727.807 1564.575, 730.526 1561 C 733.246 1557.425, 737.530 1552.025, 740.046 1549 C 744.863 1543.211, 749.451 1536.847, 765 1514.388 C 770.225 1506.841, 775.288 1499.841, 776.250 1498.833 C 777.212 1497.825, 778 1496.619, 778 1496.154 C 778 1494.808, 781.086 1488.776, 783.450 1485.500 C 784.641 1483.850, 787.058 1479.908, 788.822 1476.740 C 790.585 1473.572, 793.597 1468.925, 795.514 1466.414 C 797.431 1463.902, 799 1461.450, 799 1460.966 C 799 1459.887, 808.875 1444.639, 812.254 1440.500 C 813.601 1438.850, 815.287 1436.375, 816 1435 C 818.034 1431.080, 821.904 1426.645, 824.773 1424.947 C 826.564 1423.887, 827.764 1421.953, 828.556 1418.850 C 829.785 1414.030, 833.785 1407.749, 835.106 1408.565 C 835.539 1408.833, 835.242 1410.897, 834.446 1413.152 C 832.783 1417.868, 832.614 1420, 833.906 1420 C 835.476 1420, 838 1410.871, 838 1405.191 C 838 1400.619, 838.534 1398.993, 841.306 1395.119 C 843.125 1392.579, 844.889 1389.769, 845.227 1388.876 C 845.564 1387.983, 847.789 1384.333, 850.170 1380.764 C 854.788 1373.843, 861.011 1364.002, 864.834 1357.572 C 866.119 1355.411, 868.205 1352.261, 869.471 1350.572 C 870.736 1348.882, 872.719 1345.614, 873.876 1343.308 C 875.034 1341.003, 877.155 1337.403, 878.591 1335.308 C 880.026 1333.214, 881.628 1330.600, 882.152 1329.500 C 882.675 1328.400, 884.201 1325.700, 885.543 1323.500 C 886.885 1321.300, 888.551 1318.375, 889.246 1317 C 889.941 1315.625, 891.783 1312.369, 893.341 1309.765 C 896.508 1304.469, 896.808 1303.405, 896.939 1297 C 897.008 1293.621, 897.283 1292.874, 898.044 1294 C 898.848 1295.190, 899.019 1294.983, 898.873 1293 C 898.448 1287.224, 898.969 1284.774, 900.500 1285.362 C 901.430 1285.718, 902 1285.357, 902 1284.410 C 902 1283.569, 901.550 1283.160, 901 1283.500 C 900.450 1283.840, 900 1283.668, 900 1283.118 C 900 1282.568, 900.415 1281.862, 900.921 1281.549 C 902.343 1280.670, 901.572 1275.128, 899.761 1273.213 C 896.946 1270.237, 895.144 1269.009, 893.140 1268.704 C 892.070 1268.540, 890.547 1267.869, 889.756 1267.212 C 888.964 1266.555, 888.020 1266.313, 887.658 1266.675 C 887.296 1267.037, 887 1266.857, 887 1266.275 C 887 1265.693, 885.882 1264.936, 884.517 1264.594 C 883.151 1264.251, 878.763 1261.007, 874.767 1257.386 C 867.438 1250.746, 859.651 1245.196, 852.750 1241.694 C 850.688 1240.647, 849 1239.437, 849 1239.004 C 849 1238.571, 847.935 1237.949, 846.632 1237.623 C 845.330 1237.296, 841.579 1234.376, 838.296 1231.134 C 835.014 1227.891, 831.244 1224.895, 829.919 1224.474 C 828.594 1224.054, 826.383 1222.458, 825.005 1220.928 C 823.627 1219.398, 820.819 1217.465, 818.765 1216.631 C 816.711 1215.797, 812.934 1213.514, 810.371 1211.557 C 807.809 1209.601, 805.102 1208, 804.356 1208 C 803.610 1208, 802.203 1207.203, 801.230 1206.230 C 799.280 1204.280, 793.425 1200.729, 783.330 1195.373 C 779.699 1193.447, 776.148 1191.290, 775.438 1190.581 C 774.729 1189.871, 769.277 1186.921, 763.324 1184.025 C 747.049 1176.107, 745.684 1175.479, 745.328 1175.750 C 745.148 1175.888, 744.100 1175.100, 743 1174 C 741.900 1172.900, 740.298 1172, 739.441 1172 C 738.584 1172, 738.124 1171.609, 738.420 1171.130 C 738.963 1170.251, 729.189 1166.632, 725.500 1166.347 C 724.400 1166.262, 720.350 1165.888, 716.500 1165.515 C 712.650 1165.143, 708.825 1164.838, 708 1164.838 C 707.175 1164.837, 705.375 1164.448, 704 1163.972 C 700.047 1162.606, 689.835 1162.144, 686 1163.158 M 709.663 1166.789 C 709.054 1167.852, 712.709 1171.280, 713.348 1170.247 C 713.650 1169.757, 713.036 1168.619, 711.983 1167.718 C 710.931 1166.816, 709.886 1166.399, 709.663 1166.789 M 716 1168.429 C 716 1171.018, 717.350 1171.861, 718.505 1169.992 C 718.847 1169.438, 718.424 1168.281, 717.564 1167.421 C 716.145 1166.003, 716 1166.096, 716 1168.429 M 697.500 1171.991 C 694.750 1172.390, 692.168 1172.531, 691.761 1172.306 C 691.355 1172.081, 691.291 1172.594, 691.618 1173.448 C 691.946 1174.302, 692.867 1175, 693.666 1175 C 694.465 1175, 694.840 1174.550, 694.500 1174 C 694.148 1173.431, 695.009 1173, 696.500 1173 C 697.940 1173, 698.881 1173.383, 698.592 1173.851 C 698.303 1174.320, 700.863 1174.781, 704.283 1174.877 C 707.702 1174.973, 711.288 1175.295, 712.250 1175.593 C 713.403 1175.950, 714 1175.600, 714 1174.567 C 714 1173.705, 713.175 1173, 712.167 1173 C 711.158 1173, 710.020 1172.687, 709.638 1172.304 C 708.601 1171.267, 706 1171.054, 706 1172.005 C 706 1172.461, 706.563 1173.060, 707.250 1173.338 C 708.035 1173.655, 708.081 1173.871, 707.372 1173.921 C 706.752 1173.964, 705.685 1173.325, 705 1172.500 C 704.315 1171.675, 703.473 1171.060, 703.128 1171.134 C 702.782 1171.207, 700.250 1171.593, 697.500 1171.991 M 639 1172.872 C 639 1173.840, 641.802 1174.505, 644.250 1174.118 C 644.663 1174.053, 645 1174.450, 645 1175 C 645 1176.595, 647.164 1176.158, 648.532 1174.288 C 649.467 1173.008, 650.127 1172.850, 651.142 1173.660 C 652.637 1174.854, 662.417 1174.916, 663.594 1173.739 C 664.001 1173.333, 664.146 1172.983, 663.917 1172.963 C 653.093 1172.010, 639 1171.959, 639 1172.872 M 666.380 1173.194 C 666.106 1173.637, 667.510 1174, 669.500 1174 C 671.657 1174, 672.869 1174.404, 672.500 1175 C 672.160 1175.550, 672.359 1176, 672.941 1176 C 673.523 1176, 674 1175.374, 674 1174.609 C 674 1173.085, 667.225 1171.827, 666.380 1173.194 M 531.143 1176.890 C 530.361 1177.386, 530.193 1178.001, 530.746 1178.343 C 531.274 1178.669, 532.559 1178.290, 533.603 1177.500 C 535.062 1176.395, 535.154 1176.060, 534 1176.047 C 533.175 1176.038, 531.889 1176.417, 531.143 1176.890 M 519.630 1178.030 C 520.313 1178.713, 521.478 1178.734, 523.080 1178.094 C 525.354 1177.185, 525.292 1177.123, 522.050 1177.063 C 519.682 1177.020, 518.923 1177.323, 519.630 1178.030 M 559.510 1179.016 C 559.856 1179.575, 560.557 1179.774, 561.069 1179.457 C 562.456 1178.600, 562.198 1178, 560.441 1178 C 559.584 1178, 559.165 1178.457, 559.510 1179.016 M 569 1179.134 C 572.025 1179.629, 575.898 1180.490, 577.606 1181.047 C 579.838 1181.775, 581.526 1181.715, 583.606 1180.834 C 586.395 1179.653, 586.265 1179.584, 580 1178.921 C 576.425 1178.543, 571.250 1178.234, 568.500 1178.234 L 563.500 1178.234 569 1179.134 M 415.158 1304 C 415.158 1305.375, 415.385 1305.938, 415.662 1305.250 C 415.940 1304.563, 415.940 1303.438, 415.662 1302.750 C 415.385 1302.063, 415.158 1302.625, 415.158 1304 M 504.750 1342.662 C 505.438 1342.940, 506.563 1342.940, 507.250 1342.662 C 507.938 1342.385, 507.375 1342.158, 506 1342.158 C 504.625 1342.158, 504.063 1342.385, 504.750 1342.662 M 803 1343.059 C 803 1343.641, 803.450 1343.840, 804 1343.500 C 804.550 1343.160, 805 1342.684, 805 1342.441 C 805 1342.198, 804.550 1342, 804 1342 C 803.450 1342, 803 1342.477, 803 1343.059 M 827.500 1356 C 827.840 1356.550, 828.541 1357, 829.059 1357 C 829.577 1357, 830 1356.550, 830 1356 C 830 1355.450, 829.298 1355, 828.441 1355 C 827.584 1355, 827.160 1355.450, 827.500 1356 M 823.069 1360.750 C 822.414 1362.185, 822.397 1363, 823.021 1363 C 823.560 1363, 824.037 1363.787, 824.081 1364.750 C 824.139 1365.995, 824.499 1365.749, 825.331 1363.896 C 825.974 1362.463, 827.079 1360.597, 827.787 1359.749 C 828.891 1358.425, 828.722 1358.228, 826.584 1358.354 C 825.065 1358.443, 823.695 1359.377, 823.069 1360.750 M 407.500 1364 C 407.840 1364.550, 408.316 1365, 408.559 1365 C 408.802 1365, 409 1364.550, 409 1364 C 409 1363.450, 408.523 1363, 407.941 1363 C 407.359 1363, 407.160 1363.450, 407.500 1364 M 814 1374 C 812.718 1374.828, 812.754 1374.972, 814.250 1374.985 C 815.212 1374.993, 816 1375.450, 816 1376 C 816 1376.550, 815.424 1377, 814.719 1377 C 814.015 1377, 812.929 1378.350, 812.306 1380 C 811.683 1381.650, 811.485 1383, 811.865 1383 C 813.133 1383, 816.210 1378.755, 817.040 1375.860 C 817.914 1372.814, 816.846 1372.161, 814 1374 M 809 1385 C 809 1385.550, 809.423 1386, 809.941 1386 C 810.459 1386, 811.160 1385.550, 811.500 1385 C 811.840 1384.450, 811.416 1384, 810.559 1384 C 809.702 1384, 809 1384.450, 809 1385 M 805.602 1389.594 C 805.336 1390.287, 805.715 1391.348, 806.443 1391.952 C 807.437 1392.778, 807.920 1392.651, 808.383 1391.444 C 808.722 1390.560, 809 1389.498, 809 1389.085 C 809 1387.820, 806.118 1388.251, 805.602 1389.594 M 798.500 1399 C 795.941 1402.850, 793.445 1406, 792.955 1406 C 792.464 1406, 792.322 1406.675, 792.638 1407.500 C 792.955 1408.325, 792.718 1409, 792.112 1409 C 791.506 1409, 790.010 1411.138, 788.787 1413.750 C 787.564 1416.362, 785.650 1419.273, 784.532 1420.217 C 783.414 1421.161, 782.855 1421.948, 783.289 1421.967 C 783.723 1421.985, 783.149 1422.997, 782.014 1424.215 C 780.880 1425.433, 780.157 1426.967, 780.409 1427.623 C 780.661 1428.280, 779.822 1429.079, 778.544 1429.400 C 777.104 1429.761, 775.964 1431.007, 775.544 1432.680 C 775.172 1434.163, 774.110 1435.952, 773.184 1436.656 C 771.644 1437.827, 771.678 1437.939, 773.576 1437.968 C 776.014 1438.006, 780 1434.107, 780 1431.686 C 780 1430.758, 780.337 1430.053, 780.750 1430.118 C 782.984 1430.471, 783.761 1429.803, 783.276 1427.946 C 782.698 1425.739, 785.850 1422, 788.288 1422 C 789.066 1422, 789.625 1421.028, 789.579 1419.750 C 789.531 1418.383, 790.020 1417.608, 790.824 1417.775 C 791.553 1417.926, 791.889 1417.629, 791.571 1417.115 C 790.768 1415.815, 791.974 1413.009, 793.357 1412.959 C 793.986 1412.936, 795.577 1410.574, 796.893 1407.709 C 798.209 1404.844, 800.273 1401.600, 801.480 1400.500 C 803.722 1398.457, 805.676 1392, 804.052 1392 C 803.558 1392, 801.059 1395.150, 798.500 1399 M 414 1401 C 414 1401.550, 414.450 1402, 415 1402 C 415.550 1402, 416 1401.550, 416 1401 C 416 1400.450, 415.550 1400, 415 1400 C 414.450 1400, 414 1400.450, 414 1401 M 537.500 1412 C 537.840 1412.550, 539.554 1412.955, 541.309 1412.900 C 544.356 1412.805, 544.387 1412.765, 542 1412 C 538.409 1410.850, 536.789 1410.850, 537.500 1412 M 828.162 1430.543 C 826.487 1434.220, 826.807 1435.005, 828.618 1431.662 C 829.464 1430.100, 829.969 1428.636, 829.741 1428.407 C 829.512 1428.179, 828.802 1429.140, 828.162 1430.543 M 769.122 1442.915 C 768.319 1443.417, 768.070 1444.305, 768.526 1445.043 C 769.036 1445.867, 768.906 1446.060, 768.155 1445.595 C 767.422 1445.143, 767 1445.649, 767 1446.980 C 767 1449.063, 767.015 1449.064, 769.091 1447.130 C 771.410 1444.970, 771.436 1441.468, 769.122 1442.915 M 503.813 1446.683 C 504.534 1446.972, 505.397 1446.936, 505.729 1446.604 C 506.061 1446.272, 505.471 1446.036, 504.417 1446.079 C 503.252 1446.127, 503.015 1446.364, 503.813 1446.683 M 507.813 1446.683 C 508.534 1446.972, 509.397 1446.936, 509.729 1446.604 C 510.061 1446.272, 509.471 1446.036, 508.417 1446.079 C 507.252 1446.127, 507.015 1446.364, 507.813 1446.683 M 761.329 1453.142 C 759.257 1456.107, 759.163 1459, 761.139 1459 C 762.268 1459, 763.954 1454.819, 763.282 1453.683 C 763.017 1453.234, 763.632 1452.236, 764.650 1451.465 C 766.094 1450.372, 766.170 1450.060, 765 1450.049 C 764.175 1450.041, 762.523 1451.433, 761.329 1453.142 M 814.659 1459.326 C 812.715 1462.256, 810.421 1465.236, 809.562 1465.949 C 808.703 1466.662, 808 1467.965, 808 1468.845 C 808 1469.968, 808.504 1469.708, 809.692 1467.973 C 810.623 1466.613, 811.635 1465.275, 811.942 1465 C 812.845 1464.191, 816.575 1458.687, 817.873 1456.250 C 820.026 1452.205, 818.271 1453.885, 814.659 1459.326 M 757.500 1459 C 757.160 1459.550, 757.359 1460, 757.941 1460 C 758.523 1460, 759 1459.550, 759 1459 C 759 1458.450, 758.802 1458, 758.559 1458 C 758.316 1458, 757.840 1458.450, 757.500 1459 M 716.381 1462.250 C 712.649 1468.582, 712.628 1468.654, 715.386 1465.694 C 716.824 1464.151, 718 1462.464, 718 1461.944 C 718 1460.627, 717.255 1460.767, 716.381 1462.250 M 755.667 1461.667 C 754.449 1462.885, 754.978 1465, 756.500 1465 C 757.325 1465, 758 1464.362, 758 1463.583 C 758 1462.804, 758.563 1461.940, 759.250 1461.662 C 759.938 1461.385, 759.563 1461.122, 758.417 1461.079 C 757.271 1461.036, 756.033 1461.300, 755.667 1461.667 M 748 1465.559 C 748 1466.416, 748.450 1466.840, 749 1466.500 C 749.550 1466.160, 750 1465.459, 750 1464.941 C 750 1464.423, 749.550 1464, 749 1464 C 748.450 1464, 748 1464.702, 748 1465.559 M 562.511 1468.623 C 561.566 1470.066, 561.287 1470.941, 561.891 1470.567 C 563.045 1469.854, 565.374 1466, 564.650 1466 C 564.419 1466, 563.457 1467.180, 562.511 1468.623 M 752.494 1468.006 C 751.496 1469.110, 750.976 1470.310, 751.339 1470.673 C 751.703 1471.036, 752 1470.793, 752 1470.131 C 752 1469.219, 752.508 1469.201, 754.107 1470.057 C 755.707 1470.913, 756.490 1470.886, 757.357 1469.945 C 758.243 1468.985, 758.092 1468.850, 756.685 1469.347 C 755.219 1469.864, 754.991 1469.603, 755.502 1467.994 C 756.315 1465.431, 754.820 1465.437, 752.494 1468.006 M 710.293 1470.680 C 709.589 1472.513, 703.984 1481.325, 701.531 1484.453 C 700.042 1486.354, 699.539 1488, 700.449 1488 C 701.248 1488, 710 1475.284, 710 1474.123 C 710 1473.505, 710.398 1473, 710.883 1473 C 711.369 1473, 712.002 1472.100, 712.290 1471 C 712.922 1468.582, 711.203 1468.307, 710.293 1470.680 M 804.438 1473.326 C 803.372 1474.811, 800.124 1479.058, 797.220 1482.763 C 793.231 1487.854, 792.327 1489.582, 793.523 1489.834 C 794.512 1490.042, 794.805 1490.623, 794.303 1491.381 C 793.861 1492.048, 794.510 1491.448, 795.745 1490.047 C 796.980 1488.646, 798 1487.050, 798.012 1486.500 C 798.025 1485.950, 799.181 1484.412, 800.583 1483.082 C 803.530 1480.285, 807.289 1473.367, 806.746 1471.738 C 806.542 1471.127, 805.503 1471.841, 804.438 1473.326 M 748.250 1474.793 C 745.902 1477.427, 745.284 1480, 747 1480 C 747.550 1480, 748 1480.990, 748 1482.200 C 748 1483.939, 748.257 1484.143, 749.228 1483.172 C 750.138 1482.262, 750.171 1481.500, 749.354 1480.222 C 748.499 1478.886, 748.676 1477.900, 750.144 1475.820 C 752.613 1472.323, 751.156 1471.533, 748.250 1474.793 M 751.183 1477.217 C 749.783 1478.617, 749.638 1480, 750.893 1480 C 751.809 1480, 753.318 1476.984, 752.707 1476.374 C 752.520 1476.186, 751.834 1476.566, 751.183 1477.217 M 759.459 1479.067 C 759.096 1479.653, 759.014 1480.348, 759.276 1480.610 C 759.538 1480.872, 760.019 1480.392, 760.345 1479.543 C 761.021 1477.781, 760.445 1477.471, 759.459 1479.067 M 742.171 1487.097 C 740.275 1490.134, 741.416 1490.541, 743.388 1487.531 C 744.300 1486.139, 744.694 1485, 744.264 1485 C 743.833 1485, 742.892 1485.944, 742.171 1487.097 M 754.459 1486.067 C 753.383 1487.808, 754.608 1488.177, 755.980 1486.524 C 756.769 1485.574, 756.845 1485, 756.181 1485 C 755.597 1485, 754.821 1485.480, 754.459 1486.067 M 696.729 1491.604 C 696.328 1492.005, 696 1493.023, 696 1493.867 C 696 1494.992, 696.296 1495.104, 697.112 1494.287 C 697.724 1493.676, 698.053 1492.658, 697.842 1492.025 C 697.631 1491.392, 697.130 1491.203, 696.729 1491.604 M 734.359 1498.250 C 731.024 1502.021, 729.420 1505.383, 729.797 1507.812 L 730.155 1510.124 732.578 1507.511 C 733.910 1506.073, 735 1503.988, 735 1502.877 C 735 1501.766, 735.675 1500.182, 736.500 1499.357 C 738.137 1497.720, 738.482 1496, 737.174 1496 C 736.720 1496, 735.453 1497.013, 734.359 1498.250 M 743.079 1504.583 C 743.127 1505.748, 743.364 1505.985, 743.683 1505.188 C 743.972 1504.466, 743.936 1503.603, 743.604 1503.271 C 743.272 1502.939, 743.036 1503.529, 743.079 1504.583 M 726.571 1508.571 C 725.707 1509.436, 725 1510.499, 725 1510.935 C 725 1511.371, 723.952 1512.801, 722.670 1514.114 C 720.040 1516.808, 718.590 1520, 719.996 1520 C 720.510 1520, 721.406 1519.110, 721.988 1518.022 C 722.570 1516.934, 724.196 1514.895, 725.601 1513.490 C 728.110 1510.981, 728.143 1510.976, 727.453 1513.218 C 727.067 1514.473, 727.094 1515.176, 727.513 1514.780 C 728.267 1514.066, 729.153 1507, 728.488 1507 C 728.298 1507, 727.436 1507.707, 726.571 1508.571 M 740 1508.500 C 739.282 1509.365, 739.185 1510, 739.771 1510 C 740.329 1510, 741.045 1509.325, 741.362 1508.500 C 741.678 1507.675, 741.781 1507, 741.591 1507 C 741.401 1507, 740.685 1507.675, 740 1508.500 M 733.638 1516.500 C 733.322 1517.325, 733.451 1518, 733.924 1518 C 734.398 1518, 735.045 1517.325, 735.362 1516.500 C 735.678 1515.675, 735.549 1515, 735.076 1515 C 734.602 1515, 733.955 1515.675, 733.638 1516.500 M 715.225 1523.011 C 713.635 1525.558, 713.680 1526, 715.531 1526 C 717.376 1526, 718.629 1523.229, 717.358 1521.958 C 716.814 1521.414, 715.959 1521.837, 715.225 1523.011 M 725 1529.059 C 725 1529.641, 725.450 1529.840, 726 1529.500 C 726.550 1529.160, 727 1528.684, 727 1528.441 C 727 1528.198, 726.550 1528, 726 1528 C 725.450 1528, 725 1528.477, 725 1529.059 M 711.564 1530.707 C 711.022 1532.132, 711.136 1532.247, 712.124 1531.267 C 712.808 1530.588, 713.115 1529.781, 712.807 1529.474 C 712.499 1529.166, 711.940 1529.721, 711.564 1530.707 M 552 1538.059 C 552 1538.641, 552.450 1538.840, 553 1538.500 C 553.550 1538.160, 554 1537.684, 554 1537.441 C 554 1537.198, 553.550 1537, 553 1537 C 552.450 1537, 552 1537.477, 552 1538.059 M 699.500 1564 C 699.160 1564.550, 699.584 1565, 700.441 1565 C 701.298 1565, 702 1564.550, 702 1564 C 702 1563.450, 701.577 1563, 701.059 1563 C 700.541 1563, 699.840 1563.450, 699.500 1564 M 692.500 1574 C 692.160 1574.550, 692.332 1575, 692.882 1575 C 693.432 1575, 694.160 1574.550, 694.500 1574 C 694.840 1573.450, 694.668 1573, 694.118 1573 C 693.568 1573, 692.840 1573.450, 692.500 1574 M 690 1577.059 C 690 1577.641, 690.450 1577.840, 691 1577.500 C 691.550 1577.160, 692 1576.684, 692 1576.441 C 692 1576.198, 691.550 1576, 691 1576 C 690.450 1576, 690 1576.477, 690 1577.059 M 685.667 1581.667 C 685.300 1582.033, 685 1583.213, 685 1584.289 C 685 1585.914, 685.254 1586.034, 686.500 1585 C 687.325 1584.315, 688 1583.135, 688 1582.378 C 688 1580.920, 686.783 1580.550, 685.667 1581.667 M 682.020 1588.476 C 681.231 1589.426, 681.155 1590, 681.819 1590 C 683.027 1590, 684.436 1588.103, 683.743 1587.409 C 683.491 1587.158, 682.716 1587.638, 682.020 1588.476 M 447 1601 C 447 1601.550, 447.450 1602, 448 1602 C 448.550 1602, 449 1601.550, 449 1601 C 449 1600.450, 448.550 1600, 448 1600 C 447.450 1600, 447 1600.450, 447 1601 M 671.627 1645.250 C 668.601 1648.688, 664.954 1652.850, 663.524 1654.500 C 659.450 1659.198, 647 1675.768, 647 1676.492 C 647 1677.341, 648.530 1675.702, 653.991 1669 C 656.456 1665.975, 658.729 1663.275, 659.042 1663 C 659.355 1662.725, 662.686 1658.450, 666.444 1653.500 C 670.201 1648.550, 674.423 1643.263, 675.825 1641.750 C 677.227 1640.237, 678.094 1639, 677.752 1639 C 677.409 1639, 674.653 1641.813, 671.627 1645.250 M 648.287 1646.630 C 647.100 1649.186, 647.117 1649.204, 649.037 1647.467 C 651.029 1645.664, 651.615 1643.994, 650.250 1644.008 C 649.837 1644.012, 648.954 1645.192, 648.287 1646.630 M 570 1682.059 C 570 1682.641, 570.450 1682.840, 571 1682.500 C 571.550 1682.160, 572 1681.684, 572 1681.441 C 572 1681.198, 571.550 1681, 571 1681 C 570.450 1681, 570 1681.477, 570 1682.059 M 614.615 1695.465 C 613.727 1696.820, 613 1698.203, 613 1698.536 C 613 1698.870, 612.325 1699.818, 611.500 1700.643 C 609.811 1702.332, 609.529 1704, 610.933 1704 C 611.446 1704, 612.134 1703.153, 612.462 1702.119 C 612.791 1701.084, 613.946 1699.215, 615.030 1697.966 C 616.757 1695.974, 617.707 1693, 616.615 1693 C 616.403 1693, 615.503 1694.109, 614.615 1695.465 M 624.658 1697.449 C 624.286 1698.418, 624.582 1698.714, 625.551 1698.342 C 626.348 1698.036, 627 1697.384, 627 1696.893 C 627 1695.455, 625.265 1695.867, 624.658 1697.449 M 617 1702.059 C 617 1702.641, 617.450 1702.840, 618 1702.500 C 618.550 1702.160, 619 1701.684, 619 1701.441 C 619 1701.198, 618.550 1701, 618 1701 C 617.450 1701, 617 1701.477, 617 1702.059" stroke="none" fill="black" fill-rule="evenodd"/>
</svg>