<svg xmlns="http://www.w3.org/2000/svg" width="595" height="842" viewBox="0 0 595 842" version="1.1">
	<path d="M 248.631 43.120 C 247.051 45.370, 239.037 46.667, 237.892 44.859 C 237.347 43.999, 236.967 45.703, 236.858 49.500 L 236.686 55.500 236 50.500 C 235.623 47.750, 235.229 45.950, 235.125 46.500 C 235.021 47.050, 234.312 46.676, 233.549 45.670 C 232.721 44.577, 231.223 43.973, 229.831 44.170 L 227.500 44.500 227.731 217.994 C 227.886 334.742, 228.295 391.598, 228.981 391.827 C 229.541 392.014, 230 392.606, 230 393.142 C 230 393.679, 229.550 393.840, 229 393.500 C 228.364 393.107, 228.006 395.903, 228.015 401.191 C 228.024 406.112, 228.376 408.956, 228.877 408.165 C 230.094 406.245, 230.970 410.124, 230.986 417.507 C 230.994 420.810, 231.441 425.050, 231.980 426.929 C 232.656 429.286, 232.621 430.752, 231.867 431.661 C 230.806 432.938, 231.041 445.085, 232.632 471.336 C 233.181 480.398, 234.088 482.508, 235.283 477.500 C 235.697 475.765, 235.878 479.195, 236.019 491.429 C 236.037 493.040, 236.481 494.875, 237.006 495.507 C 237.611 496.236, 237.600 497.905, 236.975 500.078 C 235.996 503.481, 236.558 534.476, 237.630 536.211 C 237.928 536.693, 237.694 537.664, 237.110 538.368 C 236.377 539.250, 236.351 541.488, 237.026 545.574 C 237.565 548.833, 237.951 558.925, 237.884 568 C 237.759 585.021, 238.326 589.209, 242.419 601.500 C 243.701 605.350, 245.744 612.473, 246.959 617.328 C 249.005 625.502, 249.048 626.289, 247.541 627.955 C 245.433 630.284, 245.929 630.472, 259.209 632.398 C 287.190 636.454, 296.862 636.862, 338.500 635.740 C 358.738 635.194, 357.144 635.509, 355.924 632.299 C 354.543 628.667, 356.557 620.038, 359.293 617.863 C 361.247 616.310, 361.375 614.981, 361.799 591.863 C 362.363 561.076, 361.232 544.294, 354.497 483.500 C 351.511 456.550, 348.169 423.925, 347.069 411 C 345.969 398.075, 344.528 381.875, 343.866 375 C 341.061 345.850, 341.706 286.516, 345.626 213 C 347.523 177.408, 347.043 136.858, 344.537 121.154 C 339.770 91.277, 331.407 70.838, 318.500 57.516 C 311.263 50.047, 308.196 47.964, 303.821 47.544 C 294.492 46.650, 287.800 45.571, 281.136 43.886 C 277.085 42.861, 273.264 42.337, 272.643 42.720 C 270.681 43.933, 260.571 43.567, 259.161 42.232 C 257.321 40.490, 250.048 41.104, 248.631 43.120 M 303 664.096 C 297.775 664.547, 286.300 665.838, 277.500 666.964 C 268.700 668.090, 259.475 669.247, 257 669.534 C 251.028 670.227, 248.854 670.954, 249.521 672.034 C 249.824 672.524, 248.593 673.318, 246.786 673.799 C 243.684 674.625, 243.515 674.904, 243.761 678.772 C 243.904 681.025, 243.578 683.143, 243.036 683.478 C 242.470 683.827, 242.313 686.001, 242.666 688.580 C 243.172 692.271, 242.944 693.329, 241.391 694.505 C 239.658 695.817, 239.646 695.939, 241.250 695.968 C 242.313 695.988, 243 696.773, 243 697.969 C 243 699.308, 242.520 699.753, 241.500 699.362 C 240.675 699.045, 240 699.247, 240 699.810 C 240 700.373, 240.563 701.023, 241.250 701.254 C 242.228 701.583, 242.238 701.992, 241.295 703.135 C 240.082 704.606, 239.741 709.196, 239.981 720.803 C 240.074 725.283, 240.529 727.266, 241.556 727.660 C 243.501 728.406, 243.387 730.637, 241.364 731.414 C 239.862 731.990, 239.869 732.198, 241.446 733.941 C 242.997 735.655, 243.059 736.893, 242.075 746.667 C 241.347 753.904, 241.319 757.606, 241.993 757.831 C 242.547 758.016, 243 759.013, 243 760.048 C 243 763.144, 246.103 763.966, 255.331 763.315 C 262.028 762.842, 265.167 763.093, 269.468 764.446 C 282.462 768.533, 350.031 765.486, 357.690 760.468 C 360.886 758.373, 365.100 750.690, 366.640 744.147 C 367.476 740.593, 367.975 731.992, 367.984 720.938 C 367.998 705.335, 367.774 702.908, 365.977 699.188 C 364.864 696.885, 363.514 695, 362.977 695 C 362.439 695, 362 693.598, 362 691.884 C 362 690.171, 361.213 686.554, 360.252 683.847 C 358.999 680.319, 358.822 678.723, 359.626 678.212 C 361.284 677.160, 359.429 673.007, 357.282 672.965 C 355.898 672.937, 356.058 672.618, 358 671.537 C 360.246 670.286, 360.316 670.073, 358.693 669.443 C 357.698 669.058, 357.122 668.125, 357.411 667.371 C 357.809 666.334, 356.834 666, 353.410 666 C 350.919 666, 349.121 665.613, 349.414 665.140 C 350.702 663.055, 322.413 662.419, 303 664.096" stroke="none" fill="black" fill-rule="evenodd"/>
</svg>