<svg xmlns="http://www.w3.org/2000/svg" width="1240" height="1753" viewBox="0 0 1240 1753" version="1.1">
	<path d="M 345.978 26.353 C 345.691 26.641, 338.266 27.150, 329.478 27.484 C 308.551 28.279, 279.814 29.997, 278.998 30.501 C 278.313 30.924, 267.352 32.350, 252.500 33.947 C 247.550 34.480, 236.525 35.940, 228 37.193 C 213.577 39.312, 208.922 39.480, 161 39.623 C 112.626 39.766, 109.141 39.895, 103.584 41.749 C 99.994 42.947, 98.225 43.970, 99.084 44.352 C 99.863 44.698, 99.511 44.738, 98.302 44.440 C 95.258 43.690, 81.638 49.523, 79.364 52.551 C 78.353 53.898, 77.043 55, 76.454 55 C 75.864 55, 74.509 55.676, 73.441 56.502 C 71.823 57.755, 71.791 57.903, 73.250 57.395 C 74.284 57.035, 75 57.278, 75 57.989 C 75 59.857, 70.952 65.088, 69.974 64.484 C 68.730 63.715, 64.663 69.536, 64.241 72.688 C 63.950 74.865, 64.137 75.131, 65.285 74.178 C 66.054 73.540, 66.969 73.303, 67.318 73.651 C 67.666 74, 68.750 73.659, 69.726 72.893 C 70.702 72.127, 69.363 73.712, 66.750 76.415 C 62.232 81.089, 60.907 84.207, 62.911 85.445 C 63.413 85.755, 63.612 87.244, 63.355 88.754 C 63.097 90.264, 62.711 96.900, 62.496 103.500 C 62.085 116.124, 61.401 129.442, 60.516 142.052 C 59.954 150.057, 58.437 239.911, 58.591 256 C 58.661 263.281, 59.203 266.843, 60.913 271.250 C 62.140 274.413, 63.449 277.012, 63.822 277.027 C 64.195 277.042, 66.033 278.325, 67.906 279.879 L 71.313 282.704 72.151 368.102 C 72.612 415.071, 73.197 460.925, 73.451 470 C 75.307 536.379, 75.999 553.721, 77.452 570.335 C 78.618 583.677, 78.806 590.093, 78.093 592.335 C 77.540 594.076, 76.855 604.500, 76.571 615.500 C 75.824 644.439, 75.067 663.453, 73.983 680.500 C 71.767 715.362, 69.996 758.827, 70.716 760.702 C 71.019 761.491, 70.766 773.468, 70.155 787.318 C 69.543 801.168, 68.802 819.925, 68.507 829 C 68.212 838.075, 67.743 849.325, 67.465 854 C 65.575 885.769, 63.811 952.276, 63.884 989 C 63.936 1015.396, 63.385 1043.646, 62.481 1060.847 C 61.663 1076.438, 60.782 1107.038, 60.525 1128.847 C 59.905 1181.417, 59.040 1222.682, 58.468 1227 C 58.213 1228.925, 57.562 1237.025, 57.021 1245 C 56.480 1252.975, 55.558 1266.025, 54.972 1274 C 54.386 1281.975, 53.921 1311, 53.938 1338.500 C 53.955 1366, 53.500 1400.200, 52.927 1414.500 C 51.620 1447.146, 51.654 1497.515, 52.992 1510.421 C 54.026 1520.398, 54.498 1544.353, 53.687 1545.739 C 52.413 1547.914, 50.828 1597.449, 51.840 1603.410 C 52.366 1606.505, 53.177 1607.652, 55.730 1608.910 C 59.544 1610.790, 59.627 1611.649, 57.883 1631 C 57.179 1638.814, 57.084 1645.735, 57.629 1649.461 C 58.400 1654.726, 58.910 1655.696, 62.001 1657.780 L 65.500 1660.139 66.016 1615.819 L 66.531 1571.500 66.766 1615.639 C 66.980 1656.061, 67.148 1659.961, 68.759 1661.950 C 70.976 1664.689, 74 1663.776, 74 1660.368 C 74 1658.655, 74.801 1657.641, 76.750 1656.889 C 82.313 1654.743, 89.496 1654.154, 97 1655.229 C 101.125 1655.820, 105.400 1656.328, 106.500 1656.359 C 107.600 1656.389, 109.372 1657.221, 110.439 1658.207 C 111.505 1659.193, 113.027 1660, 113.821 1660 C 114.614 1660, 116.667 1660.851, 118.382 1661.892 C 120.097 1662.933, 123.018 1664.106, 124.873 1664.499 C 126.729 1664.892, 129.654 1666.037, 131.373 1667.044 C 136.973 1670.323, 163.257 1672.215, 203 1672.198 C 233.093 1672.186, 241.835 1671.696, 250.833 1669.518 C 254.316 1668.674, 257.512 1668.199, 257.936 1668.460 C 258.359 1668.722, 259.559 1668.290, 260.603 1667.500 C 263.101 1665.609, 264.948 1665.643, 267.134 1667.621 C 268.307 1668.683, 269.543 1668.967, 270.713 1668.445 C 271.696 1668.007, 277.225 1667.615, 283 1667.574 C 296.493 1667.479, 300.031 1665.910, 310.432 1655.406 L 318.219 1647.543 327.360 1647.429 C 340.217 1647.269, 346.393 1643.978, 348.806 1636 C 350.528 1630.305, 350.753 1550.145, 349.113 1526.500 C 348.030 1510.898, 347.904 1496.165, 348.536 1459.500 C 348.983 1433.650, 349.450 1401.475, 349.574 1388 C 349.699 1374.525, 350.063 1352.700, 350.383 1339.500 C 352.002 1272.771, 352.414 1234.951, 352.154 1177 C 351.824 1103.310, 351.775 1113.075, 352.516 1105 C 352.844 1101.425, 353.151 1081.850, 353.198 1061.500 C 353.278 1027.258, 353.090 1022.972, 350.680 1004 C 349.248 992.725, 347.782 982.263, 347.422 980.750 C 346.913 978.614, 347.128 978, 348.383 978 C 349.273 978, 350.007 977.438, 350.015 976.750 C 350.025 975.933, 350.285 975.863, 350.765 976.548 C 351.169 977.124, 354.650 978.180, 358.500 978.896 C 368.649 980.781, 373.391 982.223, 374.300 983.700 C 374.740 984.415, 375.779 985, 376.609 985 C 377.439 985, 377.843 984.555, 377.507 984.011 C 377.157 983.445, 377.558 983.277, 378.448 983.618 C 379.302 983.946, 380 984.621, 380 985.119 C 380 985.616, 381.913 985.809, 384.250 985.548 C 387.799 985.150, 388.005 985.211, 385.500 985.917 C 381.102 987.158, 382.491 987.229, 405 986.916 C 416.275 986.759, 428.200 986.608, 431.500 986.579 C 436.744 986.533, 492.403 988.147, 532 989.494 C 560.590 990.467, 638.705 990.191, 649.849 989.078 C 656.091 988.454, 669.104 987.766, 678.767 987.549 C 693.447 987.219, 696.479 986.895, 697.217 985.577 C 697.702 984.710, 698.715 984, 699.466 984 C 700.218 984, 701.023 983.437, 701.254 982.750 C 701.584 981.770, 701.991 981.761, 703.140 982.709 C 704.308 983.672, 705.242 983.531, 707.739 982.012 C 712.115 979.351, 713.009 977.187, 711.358 973.250 C 710.147 970.364, 709.553 970, 706.056 970 C 701.732 970, 700.641 969.167, 702.066 966.952 C 702.793 965.822, 703.179 965.777, 703.807 966.747 C 704.452 967.743, 705.155 967.743, 707.299 966.747 C 710.414 965.300, 710.956 963.562, 708 964.500 C 705.786 965.203, 705.360 964.040, 707.169 962.231 C 708.816 960.584, 709.054 951.042, 707.432 951.664 C 706.756 951.924, 705.903 951.652, 705.538 951.061 C 705.172 950.470, 705.542 949.729, 706.359 949.416 C 707.177 949.102, 708.110 948.155, 708.434 947.311 C 708.846 946.237, 708.570 945.951, 707.511 946.357 C 705.316 947.200, 705.638 944.637, 707.996 942.503 C 709.429 941.207, 709.701 940.345, 708.961 939.453 C 708.394 938.770, 707.999 937.826, 708.083 937.355 C 708.562 934.689, 707.946 933.959, 706.066 934.965 C 703.526 936.324, 701 936.284, 701 934.885 C 701 934.272, 702.688 932.222, 704.750 930.330 L 708.500 926.889 705.278 927.454 C 702.517 927.938, 702.143 927.767, 702.668 926.259 C 703.004 925.292, 703.887 924.003, 704.630 923.397 C 705.743 922.488, 705.634 921.979, 704.014 920.513 C 701.570 918.301, 702.266 917, 705.892 917 C 707.418 917, 708.715 916.438, 708.775 915.750 C 708.989 913.275, 709.622 911.045, 710.304 910.362 C 711.562 909.104, 711.035 908.226, 708.667 907.631 C 707.383 907.309, 706.333 906.380, 706.333 905.567 C 706.333 904.753, 706.708 904.320, 707.167 904.603 C 707.625 904.886, 708.533 904.789, 709.184 904.387 C 709.997 903.884, 709.763 903.418, 708.434 902.898 C 706.670 902.207, 706.701 902.134, 708.785 902.070 C 710.740 902.010, 710.919 901.716, 710.020 900.037 C 709.442 898.958, 708.347 898.313, 707.586 898.605 C 706.825 898.897, 705.905 898.656, 705.542 898.068 C 705.147 897.430, 705.811 896.994, 707.191 896.985 C 708.767 896.974, 709.093 896.711, 708.216 896.155 C 706.527 895.083, 707.675 892.238, 710.107 891.466 C 712.686 890.648, 711.732 889.396, 707.955 888.641 C 704.799 888.010, 704.711 886, 707.838 886 C 708.784 886, 710.220 885.049, 711.029 883.887 C 711.838 882.725, 713.695 880.241, 715.156 878.368 C 717.736 875.060, 717.782 873.178, 715.405 868.219 C 715.331 868.064, 714.230 867.737, 712.959 867.492 C 710.018 866.926, 707.920 865, 710.243 865 C 711.598 865, 711.872 863.927, 711.800 858.897 C 711.748 855.208, 712.179 852.507, 712.891 852.067 C 713.540 851.666, 713.767 850.557, 713.398 849.595 C 712.891 848.273, 713.177 847.929, 714.578 848.175 C 715.708 848.374, 716.567 847.819, 716.787 846.750 C 717 845.715, 716.547 845, 715.678 845 C 713.950 845, 712.845 837.272, 714.474 836.585 C 715.067 836.335, 714.867 835.705, 714 835.091 C 712.892 834.308, 712.843 834.027, 713.813 834.015 C 714.535 834.007, 715.014 833.212, 714.878 832.250 C 714.742 831.287, 714.944 829.150, 715.326 827.500 C 715.709 825.850, 716.090 822.594, 716.174 820.266 C 716.285 817.179, 716.807 815.879, 718.098 815.469 C 720.041 814.852, 720.271 811.318, 718.414 810.605 C 716.947 810.042, 716.865 804.938, 718.296 803.174 C 719.084 802.202, 718.988 801.605, 717.936 800.939 C 716.989 800.340, 716.915 800.025, 717.719 800.015 C 718.389 800.007, 718.680 799.330, 718.366 798.512 C 718.052 797.693, 718.323 794.820, 718.969 792.128 C 720.966 783.806, 720.746 778.857, 718.223 775.313 C 716.844 773.376, 716.360 771.895, 716.982 771.511 C 718.613 770.503, 718.192 767.989, 716.500 768.638 C 714.056 769.576, 714.748 766.418, 717.229 765.311 L 719.459 764.316 717.229 763.123 C 716.003 762.467, 715 761.270, 715 760.465 C 715 759.659, 714.212 758.995, 713.250 758.989 C 712.288 758.983, 709.813 758.699, 707.750 758.358 C 705.262 757.947, 704 758.119, 704 758.869 C 704 759.491, 705.688 760.072, 707.750 760.160 L 711.500 760.320 708 760.740 C 706.075 760.971, 704.073 761.911, 703.552 762.830 C 702.733 764.272, 702.523 764.160, 702.009 762.008 C 701.681 760.637, 700.324 758.973, 698.992 758.309 C 696.698 757.165, 696.674 757.064, 698.536 756.374 C 699.616 755.973, 700.820 755.165, 701.211 754.578 C 701.678 753.875, 702.362 754.076, 703.211 755.166 C 704.141 756.360, 706.513 756.925, 711.727 757.192 C 718.962 757.563, 721.200 756.600, 718.764 754.164 C 717.457 752.857, 719.663 749.674, 721.213 750.632 C 721.811 751.001, 721.786 750.469, 721.151 749.282 C 719.820 746.795, 720.770 743, 722.724 743 C 723.638 743, 723.991 742.420, 723.638 741.500 C 723.300 740.619, 723.625 740, 724.424 740 C 726.180 740, 726.627 738.620, 726.852 732.500 C 726.953 729.750, 727.290 726.260, 727.599 724.743 C 728.438 720.635, 726.149 716.575, 721.364 713.685 C 713.226 708.770, 703.143 707.372, 703.794 711.250 C 704.222 713.797, 702.136 713.393, 700.905 710.690 C 699.994 708.691, 698.483 708.151, 689.676 706.677 C 668.145 703.075, 646.253 702.065, 586.898 701.935 C 555.329 701.866, 517.125 701.740, 502 701.655 C 459.584 701.416, 433.006 703.313, 420 707.508 C 415.357 709.006, 409.377 708.388, 406.655 706.129 C 405.947 705.541, 403.822 704.993, 401.934 704.912 C 400.045 704.831, 392.118 703.701, 384.318 702.402 C 376.518 701.102, 365.943 699.759, 360.818 699.417 C 355.693 699.074, 351.118 698.436, 350.651 697.998 C 349.514 696.932, 349.389 693.532, 348.613 642.500 C 348.244 618.300, 347.483 587.250, 346.921 573.500 C 345.202 531.453, 345.566 390.101, 347.398 388.268 C 347.729 387.937, 348 388.615, 348 389.774 C 348 391.976, 349.630 393.811, 349.716 391.706 C 349.743 391.043, 350.101 388.137, 350.511 385.250 C 351.034 381.576, 350.919 380, 350.129 380 C 349.508 380, 349 381.125, 349 382.500 C 349 383.875, 348.528 385, 347.951 385 C 347.327 385, 346.994 382.969, 347.129 380 C 347.316 375.914, 347.690 375, 349.179 375 C 351.177 375, 351.745 371.579, 349.933 370.459 C 349.320 370.080, 349.001 370.452, 349.183 371.334 C 349.357 372.178, 349.050 372.888, 348.500 372.912 C 347.903 372.938, 347.626 370.414, 347.812 366.651 C 348.048 361.875, 347.745 360.034, 346.562 359.051 C 344.585 357.410, 344.556 356, 346.500 356 C 348.387 356, 348.431 354.474, 346.593 352.789 C 345.387 351.683, 345.406 351.255, 346.725 349.776 C 348.111 348.222, 348.102 347.805, 346.632 345.561 C 344.801 342.766, 344.487 340, 346 340 C 346.550 340, 347 339.100, 347 338 C 347 336.900, 346.550 336, 346 336 C 344.436 336, 344.829 333.280, 346.485 332.644 C 347.469 332.267, 347.850 331.050, 347.616 329.037 L 347.262 326 352.381 326.063 C 356.464 326.114, 357.045 326.310, 355.249 327.032 C 354.011 327.529, 352.262 327.654, 351.362 327.309 C 350.236 326.877, 349.876 327.120, 350.206 328.091 C 350.526 329.033, 352.200 329.492, 355.262 329.476 C 357.779 329.462, 359.624 329.800, 359.361 330.226 C 359.097 330.651, 360.536 331, 362.558 331 C 365.740 331, 366.163 330.732, 365.711 329.001 C 365.423 327.902, 365.543 326.782, 365.978 326.514 C 367.480 325.585, 434.562 325.887, 450.500 326.894 C 459.300 327.450, 475.950 328.163, 487.500 328.477 C 499.050 328.792, 514.125 329.270, 521 329.541 C 527.875 329.812, 557.800 330.301, 587.500 330.628 C 689.829 331.756, 714.950 332.328, 742.500 334.157 C 779.382 336.606, 1050.237 334.887, 1069 332.085 C 1072.025 331.633, 1077.875 330.570, 1082 329.722 C 1089.044 328.275, 1110.293 326.636, 1117.952 326.949 C 1119.850 327.026, 1122.074 327.632, 1122.894 328.295 C 1124.067 329.244, 1124.224 329.234, 1123.633 328.250 C 1123.072 327.316, 1124.154 327, 1127.910 327 C 1131.760 327, 1132.814 327.321, 1132.411 328.372 C 1132.064 329.274, 1132.846 329.932, 1134.692 330.290 C 1136.236 330.590, 1137.634 330.470, 1137.798 330.024 C 1137.962 329.577, 1138.974 329.442, 1140.048 329.723 C 1141.123 330.004, 1142 329.732, 1142 329.117 C 1142 328.502, 1141.030 328, 1139.844 328 C 1137.837 328, 1137.889 327.828, 1140.594 325.501 C 1142.193 324.127, 1143.893 323.002, 1144.372 323.001 C 1144.852 323.001, 1144.703 322.347, 1144.040 321.548 C 1142.809 320.065, 1143.476 316, 1144.951 316 C 1146.272 316, 1147.005 311.711, 1145.910 310.391 C 1145.231 309.573, 1145.245 308.967, 1145.951 308.530 C 1147.658 307.476, 1147.156 304.468, 1144.768 301.432 C 1143.540 299.871, 1142.438 297.072, 1142.319 295.211 C 1142.200 293.351, 1141.590 291.211, 1140.963 290.455 C 1140.336 289.700, 1140.080 287.826, 1140.394 286.291 C 1141.675 280.020, 1142 272.228, 1141.165 267.804 C 1140.423 263.872, 1140.541 263.006, 1141.889 262.486 C 1143.318 261.936, 1143.292 261.749, 1141.666 260.836 C 1139.483 259.611, 1140.025 256.237, 1143.067 252.123 C 1144.155 250.652, 1145.064 248.109, 1145.087 246.474 C 1145.177 240.073, 1143.701 223.414, 1142.908 221.881 C 1142.447 220.991, 1142.372 219.962, 1142.740 219.594 C 1143.108 219.226, 1143.571 217.715, 1143.769 216.237 C 1143.967 214.759, 1144.471 213.089, 1144.888 212.525 C 1145.306 211.961, 1145.535 209.032, 1145.396 206.016 C 1145.257 202.999, 1145.615 199.964, 1146.190 199.271 C 1146.765 198.578, 1146.940 196.771, 1146.579 195.256 C 1146.218 193.740, 1145.693 190.936, 1145.413 189.025 C 1145.133 187.114, 1144.189 184.762, 1143.317 183.797 C 1142.444 182.833, 1141.608 180.935, 1141.459 179.579 C 1141.310 178.223, 1140.926 176.690, 1140.605 176.170 C 1140.285 175.651, 1140.692 174.671, 1141.511 173.991 C 1143.261 172.539, 1143.492 170, 1141.875 170 C 1141.158 170, 1140.968 168.911, 1141.350 167 C 1141.680 165.350, 1141.527 164, 1141.010 164 C 1139.670 164, 1133 157.992, 1133 156.785 C 1133 156.175, 1134.381 156.037, 1136.500 156.434 C 1138.687 156.844, 1140 156.698, 1140 156.045 C 1140 155.470, 1139.523 155, 1138.941 155 C 1138.359 155, 1138.160 154.550, 1138.500 154 C 1138.840 153.450, 1138.218 153, 1137.118 153 C 1136.018 153, 1134.793 152.474, 1134.395 151.830 C 1133.909 151.043, 1134.217 150.869, 1135.336 151.299 C 1138.103 152.360, 1137.215 151.296, 1133.332 148.896 C 1129.809 146.719, 1129.750 146.591, 1131.832 145.662 C 1133.024 145.130, 1134 143.863, 1134 142.847 C 1134 141.191, 1135.078 140.539, 1137.250 140.882 C 1138.355 141.056, 1138.162 139.218, 1137 138.500 C 1135.174 137.371, 1135.963 136.257, 1139.023 135.645 C 1141.569 135.136, 1141.977 134.656, 1141.605 132.605 C 1141.362 131.266, 1141.440 129.894, 1141.777 129.556 C 1144.179 127.154, 1141.728 122.029, 1136.011 117.500 C 1133.928 115.850, 1131.695 113.673, 1131.049 112.663 C 1130.015 111.046, 1130.128 110.906, 1131.985 111.495 C 1135.143 112.498, 1137.147 110.418, 1135.823 107.512 C 1134.947 105.588, 1135.141 104.765, 1136.923 102.852 C 1138.113 101.574, 1138.618 100.373, 1138.044 100.181 C 1136.404 99.635, 1136.825 97, 1138.551 97 C 1139.795 97, 1140.058 95.892, 1139.877 91.417 C 1139.660 86.049, 1141.018 83.275, 1143.202 84.625 C 1144.805 85.616, 1143.941 83.564, 1141.750 81.179 L 1139.500 78.729 1141.786 79.919 C 1143.069 80.587, 1144.332 82.410, 1144.665 84.075 C 1144.991 85.707, 1145.608 87.258, 1146.036 87.522 C 1146.464 87.787, 1146.591 86.990, 1146.320 85.751 C 1145.921 83.932, 1146.035 83.788, 1146.913 85 C 1147.879 86.333, 1148.109 86.333, 1148.985 85 C 1150.252 83.069, 1150.243 81.769, 1148.938 78.336 C 1148.188 76.364, 1148.188 75.437, 1148.938 75.187 C 1149.522 74.993, 1150 73.396, 1150 71.640 C 1150 68.241, 1145.302 62, 1142.745 62 C 1141.993 62, 1140.462 61.148, 1139.344 60.106 C 1136.644 57.591, 1131.834 55.158, 1126.148 53.432 C 1120.479 51.712, 1119.679 51.672, 1120.595 53.155 C 1121.041 53.876, 1120.869 54.037, 1120.138 53.585 C 1119.494 53.187, 1119.192 52.498, 1119.467 52.053 C 1120.087 51.050, 1115.095 50, 1109.707 50 C 1107.483 50, 1102.927 49.562, 1099.582 49.028 C 1096.237 48.493, 1089.225 47.374, 1084 46.542 C 1078.775 45.710, 1067.075 44.572, 1058 44.012 C 1048.925 43.453, 1039.475 42.757, 1037 42.464 C 1034.525 42.172, 1009.775 41.509, 982 40.991 C 954.225 40.474, 921.150 39.563, 908.500 38.967 C 886.592 37.936, 784.663 38.250, 773.500 39.384 C 763.249 40.425, 751.854 41.086, 728.512 41.996 C 707.311 42.823, 704.370 43.139, 703.204 44.716 C 701.965 46.391, 701.825 46.396, 700.913 44.786 C 700.041 43.249, 697.621 43.070, 677.414 43.041 C 665.024 43.024, 653.899 42.795, 652.693 42.532 C 651.487 42.269, 639.925 41.589, 627 41.019 C 570.852 38.545, 559.461 37.946, 541.500 36.523 C 531.050 35.696, 507.425 34.103, 489 32.984 C 454.953 30.916, 438.081 29.745, 416.435 27.945 C 402.826 26.813, 346.781 25.547, 345.978 26.353 M 329 80.937 C 329 81.456, 330.673 81.616, 332.750 81.296 C 337.943 80.494, 338.102 80, 333.167 80 C 330.875 80, 329 80.422, 329 80.937 M 290.762 81.707 C 292.006 81.946, 293.806 81.937, 294.762 81.687 C 295.718 81.437, 294.700 81.241, 292.500 81.252 C 290.300 81.263, 289.518 81.468, 290.762 81.707 M 304.264 81.718 C 305.784 81.947, 308.034 81.941, 309.264 81.704 C 310.494 81.467, 309.250 81.279, 306.500 81.286 C 303.750 81.294, 302.744 81.488, 304.264 81.718 M 314.750 81.723 C 316.538 81.945, 319.462 81.945, 321.250 81.723 C 323.038 81.502, 321.575 81.320, 318 81.320 C 314.425 81.320, 312.962 81.502, 314.750 81.723 M 396.323 214.922 C 391.275 215.252, 386.775 215.917, 386.323 216.401 C 385.851 216.906, 387.586 217.008, 390.390 216.641 C 393.079 216.288, 397.916 216, 401.140 216 C 404.380 216, 407 215.553, 407 215 C 407 214.450, 406.663 214.073, 406.250 214.162 C 405.837 214.251, 401.370 214.593, 396.323 214.922 M 414.292 214.742 C 418.027 214.935, 423.877 214.934, 427.292 214.739 C 430.706 214.545, 427.650 214.387, 420.500 214.389 C 413.350 214.390, 410.556 214.550, 414.292 214.742 M 436.269 214.693 C 437.242 214.947, 438.592 214.930, 439.269 214.656 C 439.946 214.382, 439.150 214.175, 437.500 214.195 C 435.850 214.215, 435.296 214.439, 436.269 214.693 M 456.264 214.718 C 457.784 214.947, 460.034 214.941, 461.264 214.704 C 462.494 214.467, 461.250 214.279, 458.500 214.286 C 455.750 214.294, 454.744 214.488, 456.264 214.718 M 472 214.661 C 482.707 215.377, 504.003 215.436, 504.001 214.750 C 504.001 214.338, 495.788 214.081, 485.750 214.180 C 475.712 214.279, 469.525 214.496, 472 214.661 M 511.762 215.707 C 513.006 215.946, 514.806 215.937, 515.762 215.687 C 516.718 215.437, 515.700 215.241, 513.500 215.252 C 511.300 215.263, 510.518 215.468, 511.762 215.707 M 520.762 215.707 C 522.006 215.946, 523.806 215.937, 524.762 215.687 C 525.718 215.437, 524.700 215.241, 522.500 215.252 C 520.300 215.263, 519.518 215.468, 520.762 215.707 M 528.813 215.683 C 529.534 215.972, 530.397 215.936, 530.729 215.604 C 531.061 215.272, 530.471 215.036, 529.417 215.079 C 528.252 215.127, 528.015 215.364, 528.813 215.683 M 536.892 216.297 C 537.333 216.735, 541.025 216.956, 545.097 216.788 L 552.500 216.482 544.295 215.991 C 539.783 215.721, 536.451 215.859, 536.892 216.297 M 590.750 215.662 C 591.438 215.940, 592.563 215.940, 593.250 215.662 C 593.938 215.385, 593.375 215.158, 592 215.158 C 590.625 215.158, 590.063 215.385, 590.750 215.662 M 602.768 215.725 C 604.565 215.947, 607.265 215.943, 608.768 215.715 C 610.271 215.486, 608.800 215.304, 605.500 215.310 C 602.200 215.315, 600.971 215.502, 602.768 215.725 M 373 217 C 369.581 217.720, 369.611 217.740, 374.250 217.868 C 376.863 217.941, 379 217.550, 379 217 C 379 215.903, 378.212 215.903, 373 217 M 555.813 216.683 C 556.534 216.972, 557.397 216.936, 557.729 216.604 C 558.061 216.272, 557.471 216.036, 556.417 216.079 C 555.252 216.127, 555.015 216.364, 555.813 216.683 M 564.250 216.735 C 566.862 216.941, 571.138 216.941, 573.750 216.735 C 576.362 216.529, 574.225 216.360, 569 216.360 C 563.775 216.360, 561.638 216.529, 564.250 216.735 M 361.750 218.706 C 362.988 218.944, 365.012 218.944, 366.250 218.706 C 367.488 218.467, 366.475 218.272, 364 218.272 C 361.525 218.272, 360.512 218.467, 361.750 218.706 M 292.750 221.662 C 293.438 221.940, 294.563 221.940, 295.250 221.662 C 295.938 221.385, 295.375 221.158, 294 221.158 C 292.625 221.158, 292.063 221.385, 292.750 221.662 M 471.762 224.707 C 473.006 224.946, 474.806 224.937, 475.762 224.687 C 476.718 224.437, 475.700 224.241, 473.500 224.252 C 471.300 224.263, 470.518 224.468, 471.762 224.707 M 361 228.059 C 361 228.641, 361.450 228.840, 362 228.500 C 362.550 228.160, 363 227.684, 363 227.441 C 363 227.198, 362.550 227, 362 227 C 361.450 227, 361 227.477, 361 228.059 M 392.565 328.895 C 392.260 329.388, 392.640 330.032, 393.408 330.326 C 394.874 330.889, 396 330.241, 396 328.833 C 396 327.717, 393.263 327.766, 392.565 328.895 M 342.070 364.250 C 342.032 365.762, 342.450 367, 343 367 C 344.174 367, 344.174 366.231, 343 363.500 C 342.238 361.728, 342.133 361.813, 342.070 364.250 M 349.731 366.920 C 349.296 368.583, 349.426 368.974, 350.168 368.232 C 350.750 367.650, 351.028 366.585, 350.788 365.863 C 350.538 365.114, 350.085 365.568, 349.731 366.920 M 348.404 405.553 C 349.215 415.750, 349.992 416.324, 349.893 406.654 C 349.849 402.446, 349.357 398.721, 348.799 398.376 C 348.126 397.960, 347.993 400.376, 348.404 405.553 M 100.500 404 C 100.160 404.550, 100.359 405, 100.941 405 C 101.523 405, 102 404.550, 102 404 C 102 403.450, 101.802 403, 101.559 403 C 101.316 403, 100.840 403.450, 100.500 404 M 349.158 417 C 349.158 418.375, 349.385 418.938, 349.662 418.250 C 349.940 417.563, 349.940 416.438, 349.662 415.750 C 349.385 415.063, 349.158 415.625, 349.158 417 M 100.540 419.313 C 100.099 420.310, 100.157 424.360, 100.670 428.313 L 101.602 435.500 102.051 429.993 C 102.618 423.034, 101.716 416.655, 100.540 419.313 M 348 430 C 348 430.550, 348.477 431, 349.059 431 C 349.641 431, 349.840 430.550, 349.500 430 C 349.160 429.450, 348.684 429, 348.441 429 C 348.198 429, 348 429.450, 348 430 M 107.272 436 C 107.272 438.475, 107.467 439.488, 107.706 438.250 C 107.944 437.012, 107.944 434.988, 107.706 433.750 C 107.467 432.512, 107.272 433.525, 107.272 436 M 101.300 443 C 101.300 446.025, 101.487 447.262, 101.716 445.750 C 101.945 444.238, 101.945 441.762, 101.716 440.250 C 101.487 438.738, 101.300 439.975, 101.300 443 M 102.968 469.250 C 102.951 471.038, 102.669 476.775, 102.343 482 C 102.017 487.225, 102.021 491.247, 102.353 490.939 C 103.186 490.163, 104.433 466, 103.640 466 C 103.288 466, 102.986 467.462, 102.968 469.250 M 102.158 494 C 102.158 495.375, 102.385 495.938, 102.662 495.250 C 102.940 494.563, 102.940 493.438, 102.662 492.750 C 102.385 492.063, 102.158 492.625, 102.158 494 M 105.655 559.500 C 105.958 564.450, 106.591 568.909, 107.062 569.409 C 108.090 570.500, 107.305 558.972, 106.014 554 C 105.369 551.518, 105.264 553.117, 105.655 559.500 M 107.079 572.583 C 107.127 573.748, 107.364 573.985, 107.683 573.188 C 107.972 572.466, 107.936 571.603, 107.604 571.271 C 107.272 570.939, 107.036 571.529, 107.079 572.583 M 103 769.559 C 103 770.416, 103.457 770.835, 104.016 770.490 C 104.575 770.144, 104.774 769.443, 104.457 768.931 C 103.600 767.544, 103 767.802, 103 769.559 M 546 842 C 546 842.550, 546.450 843, 547 843 C 547.550 843, 548 842.550, 548 842 C 548 841.450, 547.550 841, 547 841 C 546.450 841, 546 841.450, 546 842 M 713 855.469 C 713 856.363, 713.586 856.712, 714.500 856.362 C 715.325 856.045, 716 855.384, 716 854.893 C 716 854.402, 715.325 854, 714.500 854 C 713.675 854, 713 854.661, 713 855.469 M 456.813 856.683 C 457.534 856.972, 458.397 856.936, 458.729 856.604 C 459.061 856.272, 458.471 856.036, 457.417 856.079 C 456.252 856.127, 456.015 856.364, 456.813 856.683 M 712.624 872.539 C 711.659 875.053, 711.943 875.702, 713.122 873.675 C 713.706 872.671, 713.973 871.639, 713.715 871.382 C 713.458 871.124, 712.966 871.645, 712.624 872.539 M 714.543 874.931 C 714.226 875.443, 714.425 876.144, 714.984 876.490 C 715.543 876.835, 716 876.416, 716 875.559 C 716 873.802, 715.400 873.544, 714.543 874.931 M 274.500 912 C 274.160 912.550, 274.332 913, 274.882 913 C 275.432 913, 276.160 912.550, 276.500 912 C 276.840 911.450, 276.668 911, 276.118 911 C 275.568 911, 274.840 911.450, 274.500 912 M 189 913.059 C 189 913.641, 189.450 913.840, 190 913.500 C 190.550 913.160, 191 912.684, 191 912.441 C 191 912.198, 190.550 912, 190 912 C 189.450 912, 189 912.477, 189 913.059 M 702 922 C 702 922.550, 702.450 923, 703 923 C 703.550 923, 704 922.550, 704 922 C 704 921.450, 703.550 921, 703 921 C 702.450 921, 702 921.450, 702 922 M 477.079 933.583 C 477.127 934.748, 477.364 934.985, 477.683 934.188 C 477.972 933.466, 477.936 932.603, 477.604 932.271 C 477.272 931.939, 477.036 932.529, 477.079 933.583 M 701.500 938 C 700.684 939.320, 701.880 941.192, 703.069 940.457 C 704.284 939.707, 704.276 937, 703.059 937 C 702.541 937, 701.840 937.450, 701.500 938 M 701.840 945.750 C 701.360 954.004, 701.517 960, 702.212 960 C 702.645 960, 703 958.740, 703 957.200 C 703 955.660, 703.559 953.841, 704.242 953.158 C 705.093 952.307, 705.151 951.694, 704.423 951.208 C 703.840 950.819, 703.430 948.813, 703.512 946.750 C 703.680 942.485, 702.085 941.531, 701.840 945.750 M 701.500 975 C 701.160 975.550, 701.359 976, 701.941 976 C 702.523 976, 703 975.550, 703 975 C 703 974.450, 702.802 974, 702.559 974 C 702.316 974, 701.840 974.450, 701.500 975 M 120.079 1316.583 C 120.127 1317.748, 120.364 1317.985, 120.683 1317.188 C 120.972 1316.466, 120.936 1315.603, 120.604 1315.271 C 120.272 1314.939, 120.036 1315.529, 120.079 1316.583 M 187.343 1508.500 C 187.346 1512.900, 187.522 1514.576, 187.733 1512.224 C 187.945 1509.872, 187.942 1506.272, 187.727 1504.224 C 187.512 1502.176, 187.339 1504.100, 187.343 1508.500 M 187.320 1524 C 187.320 1527.575, 187.502 1529.037, 187.723 1527.250 C 187.945 1525.463, 187.945 1522.537, 187.723 1520.750 C 187.502 1518.963, 187.320 1520.425, 187.320 1524 M 186.079 1534.583 C 186.127 1535.748, 186.364 1535.985, 186.683 1535.188 C 186.972 1534.466, 186.936 1533.603, 186.604 1533.271 C 186.272 1532.939, 186.036 1533.529, 186.079 1534.583 M 186.195 1540.500 C 186.215 1542.150, 186.439 1542.704, 186.693 1541.731 C 186.947 1540.758, 186.930 1539.408, 186.656 1538.731 C 186.382 1538.054, 186.175 1538.850, 186.195 1540.500 M 185.158 1550 C 185.158 1551.375, 185.385 1551.938, 185.662 1551.250 C 185.940 1550.563, 185.940 1549.438, 185.662 1548.750 C 185.385 1548.063, 185.158 1548.625, 185.158 1550 M 233.624 1641.539 C 233.281 1642.432, 233.029 1643.689, 233.063 1644.332 C 233.098 1644.974, 233.558 1644.422, 234.085 1643.105 C 234.612 1641.787, 234.864 1640.531, 234.645 1640.312 C 234.426 1640.093, 233.966 1640.645, 233.624 1641.539" stroke="none" fill="black" fill-rule="evenodd"/>
</svg>