<svg xmlns="http://www.w3.org/2000/svg" width="1240" height="1753" viewBox="0 0 1240 1753" version="1.1">
	<path d="M 696 1313.158 C 694.075 1313.666, 683.050 1314.125, 671.500 1314.176 C 659.950 1314.227, 651.850 1314.605, 653.500 1315.016 C 659.405 1316.487, 650.175 1316.630, 642.750 1315.184 C 639.359 1314.523, 637.996 1314.579, 637.985 1315.379 C 637.974 1316.134, 637.729 1316.160, 637.235 1315.460 C 636.831 1314.888, 634.250 1314.470, 631.500 1314.532 C 612.082 1314.965, 612 1314.974, 612 1316.531 C 612 1317.374, 611.212 1318.322, 610.250 1318.638 C 609.288 1318.955, 607.145 1319.811, 605.490 1320.540 C 601.787 1322.171, 583.341 1322.299, 573.744 1320.761 C 567.469 1319.755, 565.551 1318.600, 570.040 1318.530 C 571.104 1318.514, 571.868 1318.050, 571.737 1317.500 C 571.607 1316.950, 570.653 1316.618, 569.617 1316.762 C 568.581 1316.906, 567.084 1316.485, 566.290 1315.826 C 565.164 1314.892, 564.675 1314.909, 564.060 1315.904 C 563.626 1316.605, 562.198 1317.089, 560.886 1316.979 C 559.574 1316.869, 556.250 1316.873, 553.500 1316.989 C 549.661 1317.151, 549.080 1317.362, 551 1317.898 L 553.500 1318.597 550.100 1320.296 C 548.144 1321.274, 546.233 1321.641, 545.600 1321.159 C 544.995 1320.699, 541.350 1320.621, 537.500 1320.986 C 533.650 1321.351, 529.150 1321.236, 527.500 1320.730 C 525.850 1320.224, 522.788 1319.873, 520.696 1319.949 C 517.576 1320.063, 516.947 1319.771, 517.196 1318.326 C 517.436 1316.938, 516.470 1316.372, 512.638 1315.654 C 509.851 1315.132, 507.505 1315.118, 507.138 1315.621 C 506.787 1316.105, 503.350 1316.583, 499.500 1316.685 C 495.650 1316.787, 491.375 1316.925, 490 1316.991 C 488.625 1317.058, 485.976 1316.802, 484.114 1316.423 C 481.521 1315.895, 480.515 1316.116, 479.815 1317.367 C 478.738 1319.291, 475.351 1319.547, 474.746 1317.750 C 474.415 1316.768, 473.979 1316.785, 472.711 1317.833 C 471.747 1318.628, 470.219 1318.887, 468.923 1318.475 C 467.650 1318.072, 466.990 1318.175, 467.331 1318.726 C 467.650 1319.243, 466.582 1319.667, 464.956 1319.667 C 463.330 1319.667, 462 1319.237, 462 1318.711 C 462 1318.119, 461.524 1318.131, 460.750 1318.741 C 460.063 1319.284, 456.158 1320.024, 452.074 1320.387 C 447.990 1320.750, 444.073 1321.525, 443.368 1322.109 C 442.664 1322.694, 441.618 1322.882, 441.044 1322.527 C 440.463 1322.168, 440 1322.697, 440 1323.718 C 440 1324.728, 438.599 1326.784, 436.886 1328.287 C 434.727 1330.181, 433.932 1331.630, 434.292 1333.010 C 434.612 1334.234, 434.318 1335, 433.529 1335 C 430.365 1335, 429.449 1337.876, 428.466 1350.888 C 428.159 1354.952, 427.215 1359.617, 426.368 1361.256 C 425.182 1363.550, 424.823 1367.718, 424.812 1379.368 C 424.801 1390.139, 424.396 1395.365, 423.409 1397.500 C 422.645 1399.150, 421.344 1406.938, 420.516 1414.806 C 419.688 1422.674, 418.559 1429.955, 418.007 1430.987 C 416.345 1434.092, 413.778 1446.133, 413.526 1452 C 412.602 1473.557, 411.549 1487.283, 409.938 1498.768 C 407.992 1512.638, 408.005 1512.834, 411.266 1519.865 C 413.049 1523.712, 413.154 1524.821, 412.145 1529.192 C 409.947 1538.715, 411.559 1549.627, 415.998 1555.270 C 418.203 1558.073, 418.641 1561.620, 416.857 1562.214 C 416.040 1562.487, 416.009 1563.153, 416.751 1564.548 C 417.321 1565.622, 418.762 1571.215, 419.953 1576.978 C 421.144 1582.740, 423.055 1588.971, 424.200 1590.824 C 426.786 1595.008, 431.968 1597.304, 442.502 1598.931 C 450.475 1600.163, 452.694 1600.102, 501.311 1597.314 C 507.675 1596.949, 511.583 1596.352, 510.811 1595.862 C 510.083 1595.400, 516.719 1595.024, 525.750 1595.015 C 534.688 1595.007, 542 1595.388, 542 1595.863 C 542 1596.338, 550.888 1596.985, 561.750 1597.300 C 572.612 1597.616, 583.440 1598.415, 585.810 1599.074 C 589.052 1599.977, 590.663 1599.992, 592.310 1599.136 C 593.653 1598.439, 602.787 1597.819, 615.920 1597.533 C 630.514 1597.216, 637.567 1596.701, 638.051 1595.918 C 638.555 1595.101, 641.613 1594.968, 648.630 1595.457 C 654.059 1595.835, 663.450 1596.378, 669.500 1596.664 C 675.550 1596.949, 681.034 1597.623, 681.686 1598.161 C 682.455 1598.795, 683.511 1598.797, 684.686 1598.168 C 685.684 1597.634, 686.833 1597.141, 687.240 1597.071 C 688.080 1596.928, 688.458 1596.827, 696 1594.720 C 699.025 1593.875, 703.750 1592.886, 706.500 1592.523 C 717.111 1591.122, 727.183 1587.981, 733.948 1583.961 C 737.737 1581.711, 741.084 1579.224, 741.387 1578.435 C 741.689 1577.646, 743.131 1577, 744.591 1577 C 746.837 1577, 747.053 1576.769, 746 1575.500 C 745.085 1574.397, 745.065 1574, 745.925 1574 C 747.930 1574, 751.922 1568.961, 751.268 1567.257 C 750.904 1566.308, 751.073 1565.927, 751.688 1566.307 C 752.253 1566.657, 753.567 1565.268, 754.608 1563.221 C 755.649 1561.175, 757.416 1557.925, 758.535 1556 C 759.654 1554.075, 760.703 1550.925, 760.865 1549 C 761.027 1547.075, 761.806 1544.493, 762.595 1543.261 C 763.771 1541.428, 763.802 1540.650, 762.766 1538.967 C 761.663 1537.176, 761.807 1536.678, 763.889 1535.097 C 765.669 1533.744, 766.313 1532.232, 766.416 1529.164 C 766.498 1526.715, 767.205 1524.531, 768.161 1523.773 C 769.045 1523.073, 770.014 1521.375, 770.315 1520 C 771.998 1512.295, 773.155 1509.312, 775.990 1505.364 C 778.208 1502.276, 778.745 1500.871, 777.816 1500.590 C 773.631 1499.324, 773 1498.920, 773 1497.507 C 773 1496.651, 774.184 1495.500, 775.632 1494.950 C 778.164 1493.987, 778.197 1493.876, 776.511 1492.012 C 774.239 1489.502, 775.239 1487, 778.514 1487 C 780.901 1487, 781.044 1486.750, 780.455 1483.614 C 779.781 1480.017, 778.935 1452.891, 779.157 1442 C 779.324 1433.867, 779.298 1433.244, 778.625 1429.172 C 778.323 1427.342, 777.816 1422.617, 777.499 1418.672 C 777.182 1414.727, 775.768 1406.775, 774.357 1401 C 772.946 1395.225, 771.619 1389.600, 771.409 1388.500 C 771.199 1387.400, 770.742 1385.256, 770.394 1383.736 C 769.909 1381.614, 770.087 1381.096, 771.159 1381.508 C 773.030 1382.225, 776.492 1379.605, 775.594 1378.152 C 775.202 1377.518, 773.813 1377, 772.506 1377 C 769.296 1377, 765 1375.289, 765 1374.011 C 765 1373.381, 766.424 1373.568, 768.622 1374.487 C 773.523 1376.534, 776.235 1376.459, 775.817 1374.286 C 775.616 1373.246, 774.015 1372.224, 771.743 1371.687 C 767.609 1370.709, 766.691 1369, 770.300 1369 C 773.058 1369, 775 1367.264, 775 1364.800 C 775 1362.240, 770.223 1362.442, 767.369 1365.123 C 765.316 1367.052, 764.421 1367.181, 757.555 1366.537 C 753.400 1366.148, 750 1365.404, 750 1364.883 C 750 1363.888, 750.642 1363.605, 755.500 1362.460 C 758.581 1361.734, 758.464 1361.608, 753.750 1360.568 C 751.614 1360.097, 751 1359.384, 751 1357.373 C 751 1355.033, 751.266 1354.855, 753.750 1355.531 C 755.263 1355.942, 757.666 1356.214, 759.092 1356.135 C 760.562 1356.054, 762.468 1356.860, 763.497 1357.996 C 764.836 1359.476, 766.577 1360, 770.155 1360 C 772.820 1360, 775 1359.587, 775 1359.082 C 775 1357.066, 773.714 1355, 772.458 1355 C 771.728 1355, 769.863 1354.488, 768.315 1353.862 C 766.767 1353.235, 763.258 1352.673, 760.517 1352.612 C 756.622 1352.524, 755.459 1352.118, 755.194 1350.750 C 754.796 1348.705, 757.366 1348.428, 761.646 1350.055 C 765.371 1351.472, 769 1350.472, 769 1348.031 C 769 1346.968, 768.404 1345.740, 767.675 1345.300 C 766.946 1344.860, 766.036 1343.651, 765.654 1342.614 C 764.972 1340.766, 764.916 1340.766, 762.834 1342.614 C 760.716 1344.494, 760.711 1344.490, 761.247 1341.589 C 761.842 1338.363, 760.342 1333, 758.843 1333 C 758.315 1333, 758.138 1332.586, 758.450 1332.081 C 759.169 1330.918, 756.316 1328, 754.460 1328 C 753.568 1328, 753.294 1327.399, 753.701 1326.336 C 754.156 1325.150, 753.971 1324.900, 753.058 1325.464 C 752.302 1325.931, 751.418 1325.691, 750.904 1324.878 C 750.207 1323.778, 750.028 1323.841, 750.015 1325.191 C 750.007 1326.121, 750.450 1327.160, 751 1327.500 C 751.550 1327.840, 751.948 1328.879, 751.884 1329.809 C 751.778 1331.351, 751.729 1331.354, 751.329 1329.845 C 751.087 1328.934, 749.771 1327.908, 748.404 1327.565 C 747.037 1327.222, 746.190 1326.501, 746.523 1325.963 C 747.178 1324.902, 744.567 1321.767, 743.727 1322.606 C 743.446 1322.887, 741.480 1322.346, 739.358 1321.404 C 737.236 1320.462, 735.050 1319.815, 734.500 1319.966 C 733.950 1320.117, 731.813 1320.399, 729.750 1320.592 C 726.234 1320.922, 726.005 1320.774, 726.079 1318.222 C 726.122 1316.725, 726.385 1316.063, 726.662 1316.750 C 726.940 1317.438, 728.344 1318, 729.783 1318 C 731.691 1318, 732.101 1317.701, 731.297 1316.897 C 730.362 1315.962, 723.250 1314.863, 718 1314.842 C 717.175 1314.839, 715.375 1314.448, 714 1313.972 C 710.047 1312.606, 699.835 1312.144, 696 1313.158 M 719.663 1316.789 C 719.054 1317.852, 722.709 1321.280, 723.348 1320.247 C 723.650 1319.757, 723.036 1318.619, 721.983 1317.718 C 720.931 1316.816, 719.886 1316.399, 719.663 1316.789 M 707.500 1321.991 C 704.750 1322.390, 702.168 1322.531, 701.761 1322.306 C 701.355 1322.081, 701.291 1322.594, 701.618 1323.448 C 701.946 1324.302, 702.867 1325, 703.666 1325 C 704.465 1325, 704.840 1324.550, 704.500 1324 C 704.148 1323.431, 705.009 1323, 706.500 1323 C 707.940 1323, 708.881 1323.383, 708.592 1323.851 C 708.303 1324.320, 710.863 1324.781, 714.283 1324.877 C 717.702 1324.973, 721.288 1325.295, 722.250 1325.593 C 723.403 1325.950, 724 1325.600, 724 1324.567 C 724 1323.705, 723.175 1323, 722.167 1323 C 721.158 1323, 720.020 1322.687, 719.638 1322.304 C 718.601 1321.267, 716 1321.054, 716 1322.005 C 716 1322.461, 716.563 1323.060, 717.250 1323.338 C 718.035 1323.655, 718.081 1323.871, 717.372 1323.921 C 716.752 1323.964, 715.685 1323.325, 715 1322.500 C 714.315 1321.675, 713.473 1321.060, 713.128 1321.134 C 712.782 1321.207, 710.250 1321.593, 707.500 1321.991 M 649 1322.872 C 649 1323.840, 651.802 1324.505, 654.250 1324.118 C 654.663 1324.053, 655 1324.450, 655 1325 C 655 1326.595, 657.164 1326.158, 658.532 1324.288 C 659.467 1323.008, 660.127 1322.850, 661.142 1323.660 C 662.637 1324.854, 672.417 1324.916, 673.594 1323.739 C 674.001 1323.333, 674.146 1322.983, 673.917 1322.963 C 663.093 1322.010, 649 1321.959, 649 1322.872 M 676.380 1323.194 C 676.106 1323.637, 677.510 1324, 679.500 1324 C 681.657 1324, 682.869 1324.404, 682.500 1325 C 682.160 1325.550, 682.359 1326, 682.941 1326 C 683.523 1326, 684 1325.374, 684 1324.609 C 684 1323.085, 677.225 1321.827, 676.380 1323.194 M 541.143 1326.890 C 540.361 1327.386, 540.193 1328.001, 540.746 1328.343 C 541.274 1328.669, 542.559 1328.290, 543.603 1327.500 C 545.062 1326.395, 545.154 1326.060, 544 1326.047 C 543.175 1326.038, 541.889 1326.417, 541.143 1326.890 M 529.630 1328.030 C 530.313 1328.713, 531.478 1328.734, 533.080 1328.094 C 535.354 1327.185, 535.292 1327.123, 532.050 1327.063 C 529.682 1327.020, 528.923 1327.323, 529.630 1328.030 M 569.510 1329.016 C 569.856 1329.575, 570.557 1329.774, 571.069 1329.457 C 572.456 1328.600, 572.198 1328, 570.441 1328 C 569.584 1328, 569.165 1328.457, 569.510 1329.016 M 579 1329.134 C 582.025 1329.629, 585.898 1330.490, 587.606 1331.047 C 589.838 1331.775, 591.526 1331.715, 593.606 1330.834 C 596.395 1329.653, 596.265 1329.584, 590 1328.921 C 586.425 1328.543, 581.250 1328.234, 578.500 1328.234 L 573.500 1328.234 579 1329.134 M 741 1332 C 742.375 1333.076, 744.036 1333.966, 744.691 1333.978 C 745.346 1333.990, 746.156 1334.443, 746.491 1334.985 C 746.871 1335.601, 745.862 1335.733, 743.800 1335.338 L 740.500 1334.706 744 1337.837 C 747.817 1341.252, 751.654 1342.146, 750.590 1339.373 C 750.246 1338.479, 750.475 1337.132, 751.099 1336.381 C 752.008 1335.286, 751.170 1334.521, 746.866 1332.518 C 740.320 1329.470, 737.441 1329.216, 741 1332 M 744.500 1344.926 C 742.665 1345.648, 742.779 1345.882, 745.881 1347.775 C 749.609 1350.049, 752 1349.746, 752 1347 C 752 1344.268, 748.581 1343.323, 744.500 1344.926 M 744.750 1354.662 C 745.438 1354.940, 746.563 1354.940, 747.250 1354.662 C 747.938 1354.385, 747.375 1354.158, 746 1354.158 C 744.625 1354.158, 744.063 1354.385, 744.750 1354.662 M 425.158 1454 C 425.158 1455.375, 425.385 1455.938, 425.662 1455.250 C 425.940 1454.563, 425.940 1453.438, 425.662 1452.750 C 425.385 1452.063, 425.158 1452.625, 425.158 1454 M 691 1486 C 689.707 1486.835, 689.734 1486.971, 691.191 1486.985 C 692.121 1486.993, 693.160 1486.550, 693.500 1486 C 694.282 1484.734, 692.958 1484.734, 691 1486 M 636.250 1490.689 C 637.212 1490.941, 638.788 1490.941, 639.750 1490.689 C 640.712 1490.438, 639.925 1490.232, 638 1490.232 C 636.075 1490.232, 635.288 1490.438, 636.250 1490.689 M 514.750 1492.662 C 515.438 1492.940, 516.563 1492.940, 517.250 1492.662 C 517.938 1492.385, 517.375 1492.158, 516 1492.158 C 514.625 1492.158, 514.063 1492.385, 514.750 1492.662 M 417.500 1514 C 417.840 1514.550, 418.316 1515, 418.559 1515 C 418.802 1515, 419 1514.550, 419 1514 C 419 1513.450, 418.523 1513, 417.941 1513 C 417.359 1513, 417.160 1513.450, 417.500 1514 M 424 1551 C 424 1551.550, 424.450 1552, 425 1552 C 425.550 1552, 426 1551.550, 426 1551 C 426 1550.450, 425.550 1550, 425 1550 C 424.450 1550, 424 1550.450, 424 1551 M 547.500 1562 C 547.840 1562.550, 549.554 1562.955, 551.309 1562.900 C 554.356 1562.805, 554.387 1562.765, 552 1562 C 548.409 1560.850, 546.789 1560.850, 547.500 1562 M 513.813 1596.683 C 514.534 1596.972, 515.397 1596.936, 515.729 1596.604 C 516.061 1596.272, 515.471 1596.036, 514.417 1596.079 C 513.252 1596.127, 513.015 1596.364, 513.813 1596.683 M 517.813 1596.683 C 518.534 1596.972, 519.397 1596.936, 519.729 1596.604 C 520.061 1596.272, 519.471 1596.036, 518.417 1596.079 C 517.252 1596.127, 517.015 1596.364, 517.813 1596.683" stroke="none" fill="black" fill-rule="evenodd"/>
</svg>