<svg xmlns="http://www.w3.org/2000/svg" width="1240" height="1753" viewBox="0 0 1240 1753" version="1.1">
	<path d="M 499.494 339.832 C 499.122 340.199, 491.321 340.563, 482.159 340.641 C 462.233 340.810, 457.771 341.265, 454.403 343.471 C 451.850 345.144, 447.359 353.875, 443.071 365.500 C 439.807 374.349, 436.690 380.116, 435.880 378.805 C 435.032 377.433, 433.913 378.498, 428.783 385.562 C 426.761 388.346, 423.914 393.521, 422.456 397.062 C 420.998 400.603, 418.958 405.333, 417.921 407.574 C 416.884 409.815, 415.346 413.601, 414.504 415.988 C 413.662 418.375, 412.581 420.816, 412.103 421.414 C 411.624 422.011, 410.046 425.875, 408.596 430 C 407.146 434.125, 405.456 438.625, 404.840 440 C 394.572 462.917, 389.078 477.548, 387.002 487.500 C 386.313 490.800, 385.281 495.300, 384.707 497.500 C 384.133 499.700, 383.562 502.007, 383.438 502.626 C 382.442 507.616, 382.341 507.668, 374.237 507.366 C 369.982 507.207, 361.325 506.552, 355 505.910 C 348.675 505.268, 340.350 504.616, 336.500 504.461 C 332.650 504.307, 322.075 503.209, 313 502.023 C 292.260 499.312, 292.093 499.300, 265 498.536 C 252.625 498.188, 239.575 497.428, 236 496.848 C 232.425 496.268, 228.150 495.631, 226.500 495.432 C 224.850 495.234, 221.731 494.816, 219.570 494.504 C 215.767 493.955, 205.539 492.900, 203.500 492.846 C 200.017 492.754, 173.455 494.066, 168.500 494.574 C 164.537 494.981, 161.482 494.752, 159.500 493.899 C 157.850 493.190, 156.050 492.541, 155.500 492.458 C 153.886 492.214, 150.746 490.994, 147.079 489.186 C 141.677 486.523, 115.043 487.059, 111.621 489.900 C 110.903 490.495, 110.020 490.687, 109.658 490.325 C 109.296 489.963, 109 490.218, 109 490.892 C 109 491.566, 108.591 491.865, 108.091 491.556 C 106.998 490.881, 102 496.587, 102 498.511 C 102 499.257, 100.891 502.485, 99.536 505.684 C 97.517 510.449, 96.869 514.392, 95.954 527.500 C 93.913 556.745, 93.181 564.461, 92.017 569 C 91.382 571.475, 90.480 579.800, 90.013 587.500 C 89.477 596.324, 88.622 602.536, 87.698 604.302 C 86.568 606.463, 86.217 611.495, 86.161 626.302 C 86.121 636.861, 85.833 651.125, 85.521 658 C 85.209 664.875, 84.738 681.075, 84.474 694 C 83.806 726.813, 83.171 748.135, 82.547 758.741 L 82.014 767.805 88.257 768.469 C 91.691 768.835, 96.300 769.317, 98.500 769.541 C 104.149 770.118, 204.011 780.774, 219.500 782.454 C 221.700 782.692, 234.975 784.107, 249 785.597 C 263.025 787.087, 274.930 788.690, 275.455 789.159 C 276.442 790.039, 273.989 798.781, 271.151 804.500 C 269.589 807.648, 257.911 840.903, 255.348 849.500 C 254.529 852.250, 253.597 855.175, 253.278 856 C 252.619 857.705, 252.406 858.492, 251.656 862 C 251.362 863.375, 250.158 866.975, 248.979 870 C 247.801 873.025, 244.995 880.602, 242.745 886.838 C 238.165 899.528, 239.538 898.611, 229 896.014 C 222.080 894.308, 205.393 891.997, 196.500 891.514 C 185.782 890.931, 177.094 890.147, 167.735 888.919 C 163.464 888.359, 159.639 888.096, 159.235 888.334 C 158.831 888.573, 155.800 888.403, 152.500 887.958 C 132.689 885.282, 108.146 886.332, 109.476 889.797 C 109.951 891.037, 108.781 891.164, 101.768 890.633 C 97.221 890.289, 88.464 889.719, 82.310 889.367 L 71.120 888.726 68.310 891.820 C 61.886 898.893, 58.913 902.956, 57.835 906.135 C 57.208 907.986, 55.863 910.694, 54.847 912.154 C 53.831 913.614, 53 915.315, 53 915.933 C 53 917.761, 47.162 928.779, 45.985 929.172 C 45.391 929.370, 44.035 933.510, 42.973 938.372 C 41.910 943.234, 40.329 948.627, 39.458 950.356 C 37.786 953.679, 35.560 969.479, 36.541 971.066 C 36.858 971.580, 36.529 972, 35.809 972 C 35.089 972, 34.460 973.013, 34.410 974.250 C 34.139 981.050, 33.167 988.920, 32.458 990.068 C 31.971 990.855, 32.135 991.545, 32.865 991.788 C 34.572 992.357, 32.308 995, 30.113 995 C 27.986 995, 25.433 1000.965, 24.551 1008 C 24.171 1011.025, 22.933 1016.875, 21.798 1021 C 20.664 1025.125, 19.775 1029.379, 19.821 1030.454 C 19.868 1031.529, 19.521 1032.879, 19.050 1033.454 C 18.578 1034.029, 17.869 1037.200, 17.473 1040.500 C 17.077 1043.800, 16.415 1046.950, 16.002 1047.500 C 15.589 1048.050, 15.015 1049.850, 14.727 1051.500 C 14.438 1053.150, 13.889 1055.625, 13.506 1057 C 13.122 1058.375, 12.849 1060.535, 12.897 1061.799 C 12.946 1063.064, 12.275 1065.764, 11.406 1067.799 C 9.847 1071.451, 9.405 1073.341, 8.602 1079.781 C 8.377 1081.586, 7.693 1083.665, 7.081 1084.402 C 4.128 1087.961, 2.220 1099.521, 1.903 1115.773 C 1.779 1122.152, 2.982 1124.212, 11.976 1133.008 C 15.636 1136.588, 19.051 1140.195, 19.565 1141.025 C 20.079 1141.855, 22.017 1143.780, 23.870 1145.304 L 27.241 1148.073 40.370 1147.524 C 47.592 1147.222, 57.100 1146.566, 61.500 1146.067 C 65.900 1145.569, 71.422 1145.516, 73.772 1145.950 C 76.121 1146.384, 78.285 1146.348, 78.581 1145.870 C 79.473 1144.426, 83.528 1144.872, 93.405 1147.500 C 98.573 1148.875, 104.140 1150, 105.778 1150 C 108.831 1150, 111.567 1152.100, 110.241 1153.425 C 109.834 1153.833, 109.950 1154.040, 110.500 1153.885 C 113.566 1153.021, 134.698 1158.019, 140.461 1160.971 C 142.640 1162.087, 145.003 1163, 145.711 1163 C 147.435 1163, 147.540 1162.542, 143 1174.880 C 140.800 1180.859, 139 1186.019, 139 1186.348 C 139 1186.676, 137.933 1189.320, 136.628 1192.223 C 135.323 1195.125, 133.688 1199.525, 132.994 1202 C 132.300 1204.475, 130.646 1209.699, 129.319 1213.609 C 127.992 1217.520, 127 1221.120, 127.115 1221.609 C 127.229 1222.099, 126.806 1223.751, 126.175 1225.279 C 125.544 1226.808, 124.925 1229.395, 124.801 1231.029 C 124.676 1232.663, 124.220 1234, 123.787 1234 C 123.354 1234, 123.083 1234.337, 123.184 1234.750 C 123.833 1237.388, 119.856 1250.590, 116.029 1258.500 C 114.965 1260.700, 112.684 1266.550, 110.960 1271.500 C 109.237 1276.450, 107.457 1281.215, 107.006 1282.089 C 106.554 1282.963, 105.833 1286.338, 105.403 1289.589 C 104.441 1296.868, 104.361 1297.377, 104.076 1298 C 103.047 1300.247, 100.117 1315.882, 100.046 1319.500 C 99.966 1323.590, 96.641 1329.957, 90.646 1337.500 C 89.334 1339.150, 87.017 1343.875, 85.495 1348 C 83.103 1354.486, 82.714 1357.073, 82.615 1367.143 C 82.482 1380.657, 82.365 1380.430, 93.148 1387.598 C 99.716 1391.965, 103.762 1393.591, 119 1397.989 C 123.125 1399.180, 128.300 1400.993, 130.500 1402.019 C 132.700 1403.045, 137.425 1404.564, 141 1405.394 C 144.575 1406.224, 150.929 1408.702, 155.119 1410.899 C 159.310 1413.097, 165.828 1415.612, 169.604 1416.488 C 179.273 1418.730, 185.174 1420.848, 187.500 1422.910 C 189.790 1424.940, 195.509 1426.682, 212.500 1430.524 C 219.100 1432.016, 227.875 1434.264, 232 1435.519 C 236.125 1436.774, 242.875 1438.832, 247 1440.093 C 251.125 1441.354, 255.625 1442.540, 257 1442.729 C 260.583 1443.222, 276.973 1447.408, 287.500 1450.518 C 292.450 1451.981, 305.050 1455.362, 315.500 1458.032 C 325.950 1460.703, 336.173 1463.588, 338.218 1464.444 C 345.775 1467.607, 342.750 1474.323, 376.910 1378.529 C 394.065 1330.420, 408.826 1288.907, 409.710 1286.279 C 410.595 1283.650, 411.651 1281.275, 412.056 1281 C 412.461 1280.725, 413.334 1278.475, 413.994 1276 C 414.655 1273.525, 415.545 1271.050, 415.971 1270.500 C 416.398 1269.950, 417.761 1266.575, 419.001 1263 C 420.240 1259.425, 422.131 1254.700, 423.202 1252.500 C 426.031 1246.693, 431.052 1233, 430.352 1233 C 430.024 1233, 430.213 1232.438, 430.773 1231.750 C 431.333 1231.063, 433.251 1226.225, 435.037 1221 C 439.235 1208.713, 441.628 1204.025, 443.770 1203.894 C 447.231 1203.682, 451.425 1204.211, 453.934 1205.177 C 455.345 1205.720, 462.575 1207.699, 470 1209.575 C 477.425 1211.452, 484.281 1213.440, 485.236 1213.993 C 486.191 1214.547, 488.077 1215, 489.427 1215 C 490.777 1215, 492.128 1215.397, 492.428 1215.883 C 492.965 1216.753, 503.605 1218.572, 505.445 1218.108 C 505.964 1217.977, 507.314 1218.317, 508.445 1218.863 C 510.517 1219.863, 521.704 1221.775, 529.973 1222.542 C 532.432 1222.770, 535.132 1223.247, 535.973 1223.602 C 536.813 1223.957, 540.200 1224.379, 543.500 1224.539 C 546.800 1224.700, 554.900 1225.372, 561.500 1226.033 C 568.100 1226.694, 574.625 1227.172, 576 1227.095 C 577.375 1227.018, 580.400 1227.510, 582.721 1228.187 C 586.203 1229.204, 586.910 1229.821, 586.753 1231.710 C 586.649 1232.969, 586.212 1234, 585.782 1234 C 585.352 1234, 585.083 1234.338, 585.184 1234.750 C 585.833 1237.388, 581.856 1250.590, 578.029 1258.500 C 576.965 1260.700, 574.684 1266.550, 572.960 1271.500 C 571.237 1276.450, 569.457 1281.215, 569.006 1282.089 C 568.554 1282.963, 567.833 1286.338, 567.403 1289.589 C 566.441 1296.868, 566.361 1297.377, 566.076 1298 C 565.047 1300.247, 562.117 1315.882, 562.046 1319.500 C 561.966 1323.590, 558.641 1329.957, 552.646 1337.500 C 551.334 1339.150, 549.017 1343.875, 547.495 1348 C 545.103 1354.486, 544.714 1357.073, 544.615 1367.143 C 544.482 1380.657, 544.365 1380.430, 555.148 1387.598 C 561.716 1391.965, 565.762 1393.591, 581 1397.989 C 585.125 1399.180, 590.300 1400.993, 592.500 1402.019 C 594.700 1403.045, 599.425 1404.564, 603 1405.394 C 606.575 1406.224, 612.929 1408.702, 617.119 1410.899 C 621.310 1413.097, 627.828 1415.612, 631.604 1416.488 C 641.273 1418.730, 647.174 1420.848, 649.500 1422.910 C 651.790 1424.940, 657.509 1426.682, 674.500 1430.524 C 681.100 1432.016, 689.875 1434.264, 694 1435.519 C 698.125 1436.774, 704.875 1438.832, 709 1440.093 C 713.125 1441.354, 717.625 1442.540, 719 1442.729 C 722.583 1443.222, 738.973 1447.408, 749.500 1450.518 C 754.450 1451.981, 767.050 1455.362, 777.500 1458.032 C 787.950 1460.703, 798.173 1463.588, 800.218 1464.444 C 807.775 1467.607, 804.750 1474.323, 838.910 1378.529 C 856.065 1330.420, 870.826 1288.907, 871.710 1286.279 C 872.595 1283.650, 873.617 1281.275, 873.982 1281 C 874.347 1280.725, 874.946 1279.689, 875.312 1278.697 C 875.910 1277.079, 876.878 1276.958, 884.739 1277.520 C 889.558 1277.864, 899.575 1278.827, 907 1279.659 C 914.425 1280.492, 921.400 1281.144, 922.500 1281.108 C 924.884 1281.031, 932.088 1281.922, 962 1285.991 C 974.375 1287.674, 991.475 1289.963, 1000 1291.076 C 1008.525 1292.189, 1016.850 1293.302, 1018.500 1293.549 C 1020.150 1293.795, 1028.475 1294.909, 1037 1296.023 C 1045.525 1297.137, 1055.875 1298.503, 1060 1299.058 C 1064.125 1299.613, 1071.100 1300.522, 1075.500 1301.080 C 1079.900 1301.637, 1084.625 1302.261, 1086 1302.467 C 1087.375 1302.673, 1090.975 1303.155, 1094 1303.538 C 1097.025 1303.921, 1100.175 1304.354, 1101 1304.500 C 1101.825 1304.646, 1104.975 1305.067, 1108 1305.436 C 1111.025 1305.804, 1114.683 1306.331, 1116.129 1306.606 C 1118.985 1307.149, 1119.240 1306.535, 1120.525 1296 C 1120.827 1293.525, 1122.661 1284.750, 1124.602 1276.500 C 1126.542 1268.250, 1129.438 1254.863, 1131.039 1246.751 C 1132.639 1238.639, 1134.909 1228.289, 1136.083 1223.751 C 1137.256 1219.213, 1138.437 1214.375, 1138.707 1213 C 1144.283 1184.554, 1146.488 1174.195, 1148.675 1166.165 C 1151.828 1154.588, 1152.911 1147.592, 1151.844 1145.686 C 1151.032 1144.235, 1151.796 1138.582, 1154.436 1126.500 C 1155.277 1122.650, 1155.973 1115.989, 1155.983 1111.697 C 1155.992 1107.406, 1156.667 1100.881, 1157.483 1097.197 C 1158.299 1093.514, 1159.148 1088.250, 1159.370 1085.500 C 1159.593 1082.750, 1160.952 1074.122, 1162.392 1066.327 C 1164.087 1057.143, 1164.718 1051.334, 1164.183 1049.827 C 1163.729 1048.547, 1163.258 1045.475, 1163.136 1043 C 1162.799 1036.142, 1161.298 1033.484, 1155.854 1030.100 C 1153.111 1028.395, 1150.431 1027, 1149.898 1027 C 1149.366 1027, 1147.820 1026.273, 1146.465 1025.385 C 1145.109 1024.497, 1144 1024.058, 1144 1024.411 C 1144 1024.763, 1142.747 1024.403, 1141.215 1023.611 C 1137.965 1021.930, 1123.660 1020.063, 1121.783 1021.075 C 1121.078 1021.455, 1116.773 1021.995, 1112.217 1022.275 C 1105.436 1022.691, 1102.989 1022.415, 1098.717 1020.754 C 1085.942 1015.786, 1058.970 1009.434, 1047 1008.574 C 1033.993 1007.639, 1027.879 1006.918, 1023.500 1005.802 C 1019.212 1004.709, 1015.708 1003.988, 1012.500 1003.539 C 1011.400 1003.385, 1007.575 1002.476, 1004 1001.520 C 996.387 999.483, 976.933 995.974, 972.250 995.792 C 968.556 995.649, 968.455 995.403, 970.445 991.404 C 971.239 989.807, 972.148 987.025, 972.464 985.222 C 973.125 981.449, 976.665 970.541, 980.409 960.738 C 981.830 957.019, 982.940 953.644, 982.878 953.238 C 982.557 951.168, 983.140 949.002, 984.344 947.799 C 985.083 947.059, 986.489 943.990, 987.467 940.977 C 988.446 937.965, 990.128 934.038, 991.205 932.250 C 992.282 930.462, 992.926 929, 992.637 929 C 992.110 929, 995.968 919.711, 998.451 915 C 999.176 913.625, 1000.099 910.925, 1000.503 909 C 1000.906 907.075, 1001.718 904.600, 1002.307 903.500 C 1002.896 902.400, 1003.435 900.825, 1003.506 900 C 1003.577 899.175, 1004.592 895.575, 1005.762 892 C 1011.379 874.843, 1013.003 869.095, 1013.605 864.250 C 1014.257 859.003, 1014.260 859, 1017.879 859.002 C 1035.675 859.014, 1068.100 857.905, 1070.500 857.202 C 1072.150 856.719, 1078.816 856.507, 1085.314 856.731 C 1091.812 856.955, 1097.662 856.719, 1098.314 856.207 C 1100.131 854.779, 1130.242 856.226, 1130.755 857.766 C 1130.992 858.477, 1132.934 859.009, 1135.333 859.021 C 1137.625 859.033, 1142.650 860.172, 1146.500 861.553 C 1161.040 866.770, 1165.004 868, 1167.268 868 C 1168.551 868, 1170.028 868.424, 1170.550 868.943 C 1171.073 869.461, 1173.490 870.331, 1175.922 870.875 C 1179.677 871.715, 1180.960 871.552, 1184.422 869.796 C 1186.665 868.658, 1189.772 866.663, 1191.327 865.363 C 1192.881 864.064, 1194.599 863, 1195.143 863 C 1195.688 863, 1197.608 861.875, 1199.411 860.500 C 1201.214 859.125, 1203.121 858, 1203.648 858 C 1205.242 858, 1210.799 851.703, 1212.032 848.500 C 1212.667 846.850, 1213.350 843.250, 1213.550 840.500 C 1213.750 837.750, 1214.382 833.293, 1214.955 830.596 C 1215.528 827.899, 1215.768 823.399, 1215.489 820.596 C 1214.758 813.264, 1214.720 776.238, 1215.417 749.836 C 1216.020 727.027, 1215.516 722, 1212.632 722 C 1210.595 722, 1209.836 719.277, 1211.676 718.571 C 1212.927 718.091, 1212.988 717.690, 1211.990 716.488 C 1211.311 715.670, 1211.164 715, 1211.665 715 C 1212.165 715, 1212.674 713.763, 1212.796 712.250 C 1212.918 710.737, 1213.396 707.138, 1213.859 704.250 C 1214.580 699.755, 1214.471 698.998, 1213.101 698.985 C 1211.936 698.974, 1211.838 698.755, 1212.741 698.181 C 1213.920 697.432, 1215.165 688.951, 1215.041 682.500 C 1214.640 661.531, 1214.133 655.131, 1212.700 652.912 C 1211.843 651.586, 1210.670 647.350, 1210.094 643.500 C 1208.452 632.521, 1206.487 624.673, 1204.698 621.942 C 1203.793 620.562, 1202.911 618.501, 1202.738 617.363 C 1202.147 613.491, 1199.083 610.103, 1195.254 609.086 C 1188.029 607.167, 1174.921 605, 1170.539 605 C 1168.107 605, 1165.840 604.550, 1165.500 604 C 1165.160 603.450, 1163.671 602.964, 1162.191 602.921 C 1160.711 602.878, 1160.063 602.615, 1160.750 602.338 C 1162.201 601.752, 1162.441 600, 1161.070 600 C 1160.558 600, 1157.136 598.610, 1153.464 596.910 C 1147.557 594.176, 1140.826 592.636, 1125 590.397 C 1114.048 588.848, 1110.846 587.842, 1111.529 586.164 C 1114.577 578.668, 1119.792 558.176, 1120.660 550.285 C 1120.930 547.832, 1121.829 543.951, 1122.657 541.662 C 1123.486 539.373, 1124.384 534.350, 1124.654 530.500 C 1124.923 526.650, 1125.640 521.925, 1126.245 520 C 1126.851 518.075, 1127.408 515.746, 1127.482 514.824 C 1127.721 511.876, 1131.472 501, 1132.250 501 C 1132.662 501, 1133 500.523, 1133 499.941 C 1133 499.359, 1132.581 499.141, 1132.069 499.457 C 1130.044 500.709, 1129.947 497.654, 1131.824 491.726 C 1132.908 488.302, 1134.331 483.250, 1134.985 480.500 C 1136.398 474.559, 1139.026 468, 1139.994 468 C 1140.373 468, 1141.249 466.112, 1141.941 463.803 C 1142.632 461.495, 1144.279 458.190, 1145.599 456.459 C 1146.920 454.728, 1148 452.986, 1148 452.589 C 1148 452.192, 1149.125 450.392, 1150.500 448.589 C 1151.875 446.786, 1153 444.791, 1153 444.156 C 1153 443.520, 1153.450 443, 1154 443 C 1154.550 443, 1155 442.325, 1155 441.500 C 1155 440.675, 1155.378 440, 1155.840 440 C 1156.302 440, 1157.272 438.207, 1157.995 436.014 C 1158.719 433.822, 1160.124 431.293, 1161.118 430.394 C 1164.535 427.301, 1165.346 422.570, 1163.456 416.746 C 1162.520 413.861, 1161.359 411.072, 1160.877 410.550 C 1160.395 410.027, 1160 408.616, 1160 407.414 C 1160 406.212, 1159.328 403.940, 1158.506 402.364 C 1157.685 400.789, 1157.010 398.690, 1157.006 397.700 C 1156.998 395.194, 1154.631 390.905, 1151.845 388.346 C 1149.188 385.905, 1142.185 382.768, 1141.011 383.493 C 1140.584 383.757, 1139.099 383.079, 1137.710 381.986 C 1136.321 380.894, 1134.558 380, 1133.792 380 C 1133.027 380, 1131.973 379.626, 1131.450 379.169 C 1129.749 377.680, 1122.612 376.120, 1117.611 376.143 C 1114.921 376.156, 1112.438 375.708, 1112.092 375.148 C 1111.746 374.588, 1108.996 373.843, 1105.981 373.493 C 1102.967 373.142, 1098.025 372.037, 1095 371.037 C 1084.550 367.581, 1081.209 366.753, 1080.211 367.370 C 1079.659 367.711, 1077.924 367.319, 1076.354 366.500 C 1074.784 365.681, 1071.925 364.751, 1070 364.433 C 1068.075 364.116, 1065.600 363.495, 1064.500 363.053 C 1063.400 362.611, 1059.125 361.480, 1055 360.538 C 1050.875 359.597, 1046.600 358.478, 1045.500 358.052 C 1036.323 354.497, 1029.363 353.816, 1027.502 356.291 C 1026.951 357.024, 1025.662 357.939, 1024.639 358.323 C 1023.192 358.867, 1022.917 358.659, 1023.404 357.391 C 1023.887 356.132, 1023.569 355.879, 1022.015 356.286 C 1020.907 356.576, 1020 356.465, 1020 356.040 C 1020 355.616, 1017.188 354.253, 1013.750 353.013 C 1010.313 351.773, 1006.938 350.308, 1006.250 349.757 C 1005.339 349.027, 1004.992 349.264, 1004.970 350.628 C 1004.942 352.350, 1004.859 352.363, 1003.942 350.790 C 1003.394 349.850, 1001.378 348.786, 999.462 348.427 C 997.546 348.067, 994.313 346.924, 992.278 345.887 C 990.242 344.849, 986.737 344, 984.487 344 C 982.238 344, 976.820 342.974, 972.449 341.721 C 964.951 339.571, 963.035 339.291, 961.250 340.083 C 960.837 340.266, 953.075 340.498, 944 340.599 C 924.164 340.819, 919.750 341.278, 916.403 343.471 C 913.850 345.144, 909.359 353.875, 905.071 365.500 C 901.807 374.349, 898.690 380.116, 897.880 378.805 C 897.032 377.433, 895.913 378.498, 890.783 385.562 C 888.761 388.346, 885.914 393.521, 884.456 397.062 C 882.998 400.603, 880.958 405.333, 879.921 407.574 C 878.884 409.815, 877.346 413.601, 876.504 415.988 C 875.662 418.375, 874.581 420.816, 874.103 421.414 C 873.624 422.011, 872.046 425.875, 870.596 430 C 869.146 434.125, 867.456 438.625, 866.840 440 C 856.572 462.917, 851.078 477.548, 849.002 487.500 C 848.313 490.800, 847.309 495.300, 846.769 497.500 C 846.230 499.700, 845.850 501.500, 845.926 501.500 C 846.002 501.500, 845.150 504.158, 844.032 507.407 C 842.914 510.655, 842 514.143, 842 515.157 C 842 516.170, 841.512 517, 840.917 517 C 840.321 517, 840.033 517.563, 840.276 518.250 C 840.520 518.938, 839.402 523.100, 837.793 527.500 C 836.184 531.900, 834.194 537.750, 833.370 540.500 C 832.545 543.250, 831.510 546.400, 831.069 547.500 C 830.628 548.600, 829.854 550.850, 829.350 552.500 C 828.547 555.126, 828 555.482, 824.966 555.353 C 821.311 555.198, 804.593 553.275, 799.500 552.424 C 793.383 551.403, 790 551.367, 790 552.325 C 790 552.867, 789.212 552.615, 788.250 551.765 C 786.682 550.381, 777.753 548.705, 765 547.402 C 762.525 547.149, 758.407 546.471, 755.850 545.895 C 753.292 545.320, 749.692 545.100, 747.850 545.407 C 746.007 545.715, 741.125 545.315, 737 544.518 C 732.875 543.721, 726.575 542.826, 723 542.529 C 713.448 541.735, 709.352 541.242, 707.316 540.640 C 706.317 540.345, 702.350 539.836, 698.500 539.510 C 694.650 539.184, 689.925 538.720, 688 538.478 C 686.075 538.237, 680.450 537.751, 675.500 537.400 C 662.376 536.467, 662.235 536.378, 662.739 529.336 C 662.968 526.126, 663.649 521.925, 664.252 520 C 664.854 518.075, 665.408 515.746, 665.482 514.824 C 665.721 511.876, 669.472 501, 670.250 501 C 670.662 501, 671 500.523, 671 499.941 C 671 499.359, 670.581 499.141, 670.069 499.457 C 668.044 500.709, 667.947 497.654, 669.824 491.726 C 670.908 488.302, 672.331 483.250, 672.985 480.500 C 674.398 474.559, 677.026 468, 677.994 468 C 678.373 468, 679.249 466.112, 679.941 463.803 C 680.632 461.495, 682.279 458.190, 683.599 456.459 C 684.920 454.728, 686 452.986, 686 452.589 C 686 452.192, 687.125 450.392, 688.500 448.589 C 689.875 446.786, 691 444.791, 691 444.156 C 691 443.520, 691.450 443, 692 443 C 692.550 443, 693 442.325, 693 441.500 C 693 440.675, 693.378 440, 693.840 440 C 694.302 440, 695.272 438.207, 695.995 436.014 C 696.719 433.822, 698.124 431.293, 699.118 430.394 C 702.535 427.301, 703.346 422.570, 701.456 416.746 C 700.520 413.861, 699.359 411.072, 698.877 410.550 C 698.395 410.027, 698 408.616, 698 407.414 C 698 406.212, 697.328 403.940, 696.506 402.364 C 695.685 400.789, 695.010 398.690, 695.006 397.700 C 694.998 395.194, 692.631 390.905, 689.845 388.346 C 687.188 385.905, 680.185 382.768, 679.011 383.493 C 678.584 383.757, 677.099 383.079, 675.710 381.986 C 674.321 380.894, 672.558 380, 671.792 380 C 671.027 380, 669.972 379.626, 669.450 379.169 C 667.749 377.680, 660.612 376.120, 655.611 376.143 C 652.921 376.156, 650.438 375.708, 650.092 375.148 C 649.746 374.588, 646.996 373.843, 643.981 373.493 C 640.967 373.142, 636.025 372.037, 633 371.037 C 622.550 367.581, 619.209 366.753, 618.211 367.370 C 617.659 367.711, 615.924 367.319, 614.354 366.500 C 612.784 365.681, 609.925 364.751, 608 364.433 C 606.075 364.116, 603.600 363.495, 602.500 363.053 C 601.400 362.611, 597.125 361.480, 593 360.538 C 588.875 359.597, 584.600 358.478, 583.500 358.052 C 574.323 354.497, 567.363 353.816, 565.502 356.291 C 564.951 357.024, 563.662 357.939, 562.639 358.323 C 561.192 358.867, 560.917 358.659, 561.404 357.391 C 561.887 356.132, 561.569 355.879, 560.015 356.286 C 558.907 356.576, 558 356.465, 558 356.040 C 558 355.616, 555.188 354.253, 551.750 353.013 C 548.313 351.773, 544.938 350.308, 544.250 349.757 C 543.339 349.027, 542.992 349.264, 542.970 350.628 C 542.942 352.350, 542.859 352.363, 541.942 350.790 C 541.394 349.850, 539.378 348.786, 537.462 348.427 C 535.546 348.067, 532.313 346.924, 530.278 345.887 C 528.242 344.849, 524.758 344, 522.535 344 C 520.312 344, 515.345 343.094, 511.497 341.986 C 502.525 339.404, 500.326 339.009, 499.494 339.832 M 444.120 344.880 C 442.855 346.145, 442.237 348.193, 442.233 351.130 L 442.226 355.500 443.946 351.749 C 444.891 349.686, 445.913 348.247, 446.217 348.550 C 446.520 348.854, 447.247 347.729, 447.832 346.051 C 448.699 343.565, 448.628 343, 447.448 343 C 446.652 343, 445.154 343.846, 444.120 344.880 M 906.120 344.880 C 904.855 346.145, 904.237 348.193, 904.233 351.130 L 904.226 355.500 905.946 351.749 C 906.891 349.686, 907.913 348.247, 908.217 348.550 C 908.520 348.854, 909.247 347.729, 909.832 346.051 C 910.699 343.565, 910.628 343, 909.448 343 C 908.652 343, 907.154 343.846, 906.120 344.880 M 674.177 484.088 C 673.454 485.246, 673.053 486.387, 673.288 486.622 C 673.982 487.315, 676.220 484.161, 675.841 483.024 C 675.650 482.450, 674.901 482.929, 674.177 484.088 M 1136.177 484.088 C 1135.454 485.246, 1135.053 486.387, 1135.288 486.622 C 1135.982 487.315, 1138.220 484.161, 1137.841 483.024 C 1137.650 482.450, 1136.901 482.929, 1136.177 484.088 M 231 503 C 231.825 503.533, 232.950 503.969, 233.500 503.969 C 234.050 503.969, 233.825 503.533, 233 503 C 232.175 502.467, 231.050 502.031, 230.500 502.031 C 229.950 502.031, 230.175 502.467, 231 503 M 235.813 503.683 C 236.534 503.972, 237.397 503.936, 237.729 503.604 C 238.061 503.272, 237.471 503.036, 236.417 503.079 C 235.252 503.127, 235.015 503.364, 235.813 503.683 M 256 505.395 C 256 506.138, 260.010 506.793, 260.427 506.118 C 260.663 505.737, 259.763 505.334, 258.428 505.223 C 257.093 505.113, 256 505.190, 256 505.395 M 293.083 509.359 C 293.313 509.557, 294.850 510.021, 296.500 510.390 C 298.691 510.880, 299.095 510.787, 298 510.046 C 296.650 509.132, 292.080 508.494, 293.083 509.359 M 560.150 510.950 C 560.370 511.610, 560.876 512.116, 561.275 512.075 C 562.471 511.951, 562.239 510.580, 560.950 510.150 C 560.290 509.930, 559.930 510.290, 560.150 510.950 M 1022.150 510.950 C 1022.370 511.610, 1022.876 512.116, 1023.275 512.075 C 1024.471 511.951, 1024.239 510.580, 1022.950 510.150 C 1022.290 509.930, 1021.930 510.290, 1022.150 510.950 M 896.667 520.667 C 896.300 521.033, 896 521.798, 896 522.367 C 896 522.993, 896.466 522.934, 897.183 522.217 C 897.834 521.566, 898.134 520.801, 897.850 520.517 C 897.566 520.232, 897.033 520.300, 896.667 520.667 M 247.230 521.757 C 245.117 522.461, 245.882 523.554, 248.649 523.783 C 250.106 523.904, 251.793 524.413, 252.399 524.916 C 254.092 526.321, 255.195 526.298, 256.138 524.835 C 256.845 523.741, 257.194 523.770, 258.076 525 C 258.823 526.041, 259.299 526.144, 259.631 525.336 C 259.944 524.575, 261.044 524.436, 262.805 524.936 C 264.287 525.356, 268.650 525.578, 272.500 525.429 C 276.350 525.280, 281.190 525.645, 283.256 526.239 C 285.322 526.834, 287.299 527.034, 287.649 526.684 C 288.785 525.548, 285.979 523.193, 284.080 523.689 C 283.065 523.955, 277.344 523.635, 271.367 522.978 C 259.261 521.648, 249.098 521.134, 247.230 521.757 M 290 525 C 290 525.550, 290.477 526, 291.059 526 C 291.641 526, 291.840 525.550, 291.500 525 C 291.160 524.450, 290.684 524, 290.441 524 C 290.198 524, 290 524.450, 290 525 M 302 527.031 C 302 527.564, 302.675 528, 303.500 528 C 304.325 528, 305 527.823, 305 527.607 C 305 527.391, 304.325 526.955, 303.500 526.638 C 302.675 526.322, 302 526.499, 302 527.031 M 253.079 529.583 C 253.127 530.748, 253.364 530.985, 253.683 530.188 C 253.972 529.466, 253.936 528.603, 253.604 528.271 C 253.272 527.939, 253.036 528.529, 253.079 529.583 M 893.564 529.707 C 893.022 531.132, 893.136 531.247, 894.124 530.267 C 894.808 529.588, 895.115 528.781, 894.807 528.474 C 894.499 528.166, 893.940 528.721, 893.564 529.707 M 346 532.054 C 346 532.574, 348.325 533, 351.167 533 C 354.008 533, 356.027 532.693, 355.652 532.318 C 354.572 531.239, 346 531.004, 346 532.054 M 365.639 532.694 C 364.513 533.820, 364.954 535, 366.500 535 C 367.325 535, 368 534.577, 368 534.059 C 368 532.798, 366.438 531.895, 365.639 532.694 M 748 547.833 C 748 548.475, 747.311 549, 746.469 549 C 745.626 549, 744.647 549.788, 744.292 550.750 C 743.936 551.712, 743.163 552.831, 742.573 553.235 C 741.904 553.693, 742.088 553.975, 743.062 553.985 C 744.773 554.001, 749.535 548.202, 748.588 547.255 C 748.265 546.931, 748 547.192, 748 547.833 M 837.624 548.539 C 837.281 549.432, 837.029 550.689, 837.063 551.332 C 837.098 551.974, 837.558 551.422, 838.085 550.105 C 838.612 548.787, 838.864 547.531, 838.645 547.312 C 838.426 547.093, 837.966 547.645, 837.624 548.539 M 663.269 549.693 C 664.242 549.947, 665.592 549.930, 666.269 549.656 C 666.946 549.382, 666.150 549.175, 664.500 549.195 C 662.850 549.215, 662.296 549.439, 663.269 549.693 M 676.500 551.008 C 680.625 551.912, 688.655 552.319, 687.917 551.587 C 687.688 551.360, 684.125 550.939, 680 550.652 C 674.293 550.256, 673.456 550.341, 676.500 551.008 M 690.739 552.113 C 691.157 552.517, 694.425 553.133, 698 553.481 C 701.575 553.830, 705.850 554.272, 707.500 554.464 C 713.017 555.107, 726.537 555.846, 723.740 555.353 C 716.354 554.048, 690.071 551.468, 690.739 552.113 M 835.564 554.707 C 835.022 556.132, 835.136 556.247, 836.124 555.267 C 836.808 554.588, 837.115 553.781, 836.807 553.474 C 836.499 553.166, 835.940 553.721, 835.564 554.707 M 728.750 556.706 C 729.987 556.944, 732.013 556.944, 733.250 556.706 C 734.487 556.467, 733.475 556.272, 731 556.272 C 728.525 556.272, 727.513 556.467, 728.750 556.706 M 736.481 557.030 C 736.265 557.380, 736.631 557.712, 737.294 557.768 C 737.957 557.824, 741.875 558.186, 746 558.573 C 750.125 558.960, 753.205 558.957, 752.845 558.566 C 751.974 557.622, 736.985 556.215, 736.481 557.030 M 87 561 C 87 563.200, 87.178 565, 87.395 565 C 87.612 565, 87.962 563.200, 88.171 561 C 88.381 558.800, 88.203 557, 87.776 557 C 87.349 557, 87 558.800, 87 561 M 755.733 559.124 C 756.412 559.808, 757.219 560.115, 757.526 559.807 C 757.834 559.499, 757.279 558.940, 756.293 558.564 C 754.868 558.022, 754.753 558.136, 755.733 559.124 M 759.813 559.683 C 760.534 559.972, 761.397 559.936, 761.729 559.604 C 762.061 559.272, 761.471 559.036, 760.417 559.079 C 759.252 559.127, 759.015 559.364, 759.813 559.683 M 883.564 560.707 C 883.022 562.132, 883.136 562.247, 884.124 561.267 C 884.808 560.588, 885.115 559.781, 884.807 559.474 C 884.499 559.166, 883.940 559.721, 883.564 560.707 M 768.083 560.358 C 768.313 560.556, 770.300 560.993, 772.500 561.330 C 775.224 561.748, 776.021 561.638, 775 560.987 C 773.634 560.116, 767.113 559.523, 768.083 560.358 M 777.813 561.683 C 778.534 561.972, 779.397 561.936, 779.729 561.604 C 780.061 561.272, 779.471 561.036, 778.417 561.079 C 777.252 561.127, 777.015 561.364, 777.813 561.683 M 781.512 561.846 C 781.818 562.152, 784.530 562.673, 787.537 563.004 C 790.545 563.335, 792.667 563.297, 792.253 562.920 C 791.357 562.104, 780.705 561.039, 781.512 561.846 M 692.453 563.924 C 692.744 564.394, 694.448 565.021, 696.241 565.317 C 698.033 565.613, 701.525 566.361, 704 566.979 C 706.475 567.598, 710.871 568.362, 713.768 568.677 C 716.666 568.993, 719.280 569.644, 719.577 570.125 C 719.875 570.606, 721.479 571, 723.142 571 C 726.634 571, 726.658 568.693, 723.172 568.180 C 721.977 568.005, 720.993 567.330, 720.985 566.680 C 720.976 565.975, 720.595 566.092, 720.038 566.972 C 719.241 568.233, 719.013 568.197, 718.447 566.722 C 717.660 564.673, 716 564.428, 716 566.361 C 716 567.272, 715.177 567.565, 713.512 567.247 C 712.143 566.985, 711.238 566.424, 711.500 565.999 C 711.763 565.575, 710.986 564.968, 709.775 564.651 C 708.563 564.334, 707.272 564.559, 706.907 565.151 C 706.512 565.790, 706.091 565.836, 705.871 565.266 C 705.667 564.737, 702.445 564.027, 698.712 563.687 C 694.979 563.346, 692.162 563.453, 692.453 563.924 M 819 565.782 C 819 566.212, 820.237 566.632, 821.750 566.716 C 824.123 566.848, 824.226 566.750, 822.500 566.005 C 819.895 564.879, 819 564.822, 819 565.782 M 87.158 569 C 87.158 570.375, 87.385 570.938, 87.662 570.250 C 87.940 569.563, 87.940 568.438, 87.662 567.750 C 87.385 567.063, 87.158 567.625, 87.158 569 M 740.980 570.966 C 743.161 572.346, 749.739 573.279, 751.147 572.409 C 752.944 571.299, 749.416 570.152, 744 570.086 C 740.835 570.047, 739.939 570.308, 740.980 570.966 M 667.269 589.693 C 668.242 589.947, 669.592 589.930, 670.269 589.656 C 670.946 589.382, 670.150 589.175, 668.500 589.195 C 666.850 589.215, 666.296 589.439, 667.269 589.693 M 673.500 590 C 673.840 590.550, 674.568 591, 675.118 591 C 675.668 591, 675.840 590.550, 675.500 590 C 675.160 589.450, 674.432 589, 673.882 589 C 673.332 589, 673.160 589.450, 673.500 590 M 693.397 592.167 C 693.114 592.625, 694.484 593, 696.441 593 C 698.398 593, 700 592.826, 700 592.613 C 700 591.792, 693.884 591.379, 693.397 592.167 M 758.500 600 C 758.160 600.550, 758.584 601, 759.441 601 C 760.298 601, 761 600.550, 761 600 C 761 599.450, 760.577 599, 760.059 599 C 759.541 599, 758.840 599.450, 758.500 600 M 763.813 600.683 C 764.534 600.972, 765.397 600.936, 765.729 600.604 C 766.061 600.272, 765.471 600.036, 764.417 600.079 C 763.252 600.127, 763.015 600.364, 763.813 600.683 M 1189.199 601.054 C 1184.872 601.990, 1183.991 602.968, 1187.333 603.125 C 1191.467 603.319, 1191.816 603.416, 1193.150 604.750 C 1194.553 606.153, 1199 606.461, 1199 605.155 C 1199 604.082, 1195.967 601.454, 1194 600.822 C 1193.175 600.557, 1191.015 600.662, 1189.199 601.054 M 1060.510 755.016 C 1060.856 755.575, 1061.557 755.774, 1062.069 755.457 C 1063.456 754.600, 1063.198 754, 1061.441 754 C 1060.584 754, 1060.165 754.457, 1060.510 755.016 M 1132.500 764 C 1132.840 764.550, 1133.316 765, 1133.559 765 C 1133.802 765, 1134 764.550, 1134 764 C 1134 763.450, 1133.523 763, 1132.941 763 C 1132.359 763, 1132.160 763.450, 1132.500 764 M 683 780 C 683 780.550, 684.013 781.011, 685.250 781.024 C 687.783 781.052, 690.374 781.322, 718.500 784.494 C 729.500 785.735, 738.896 786.387, 739.380 785.945 C 740.523 784.900, 737.954 784.502, 710.687 781.506 C 685.131 778.699, 683 778.583, 683 780 M 286.695 798.193 C 285.307 802.212, 280.970 814.450, 277.057 825.388 C 273.145 836.327, 270.130 845.464, 270.359 845.693 C 270.588 845.921, 271.455 844.172, 272.285 841.804 C 273.116 839.437, 277.451 827.197, 281.919 814.605 C 286.387 802.012, 289.857 791.524, 289.631 791.297 C 289.404 791.071, 288.083 794.174, 286.695 798.193 M 300.419 798.540 C 299.605 800.487, 298.503 801.811, 297.970 801.481 C 297.436 801.152, 297 801.321, 297 801.858 C 297 802.394, 297.515 803.005, 298.143 803.214 C 299.712 803.737, 297.393 808.069, 295.720 807.740 C 295.021 807.603, 294.500 808.568, 294.500 810 C 294.500 811.375, 293.938 813.095, 293.250 813.821 C 292.563 814.548, 292 816.136, 292 817.349 C 292 818.562, 291.291 820.567, 290.425 821.803 C 289.559 823.040, 289.036 824.602, 289.264 825.276 C 289.491 825.949, 292.019 821.550, 294.881 815.500 C 297.744 809.450, 300.967 802.836, 302.043 800.802 C 304.240 796.651, 304.497 795, 302.949 795 C 302.371 795, 301.232 796.593, 300.419 798.540 M 681 798 C 682.958 799.266, 684.282 799.266, 683.500 798 C 683.160 797.450, 682.121 797.007, 681.191 797.015 C 679.734 797.029, 679.707 797.165, 681 798 M 510.046 846.519 C 502.709 867.155, 496.997 884.330, 497.353 884.686 C 497.709 885.042, 498.156 885.146, 498.347 884.917 C 498.877 884.280, 525.001 810.607, 525 809.750 C 524.998 805.733, 521.423 814.523, 510.046 846.519 M 557.968 814.584 C 556.847 817.532, 556.759 819.208, 557.607 821.418 C 558.525 823.811, 559.680 823.320, 560.351 820.250 C 560.681 818.737, 561.224 816.550, 561.556 815.388 C 562.498 812.099, 559.194 811.359, 557.968 814.584 M 564.750 814.030 C 563.788 814.618, 563 815.683, 563 816.396 C 563 817.109, 562.304 819.088, 561.453 820.794 C 560.602 822.500, 559.454 826.699, 558.903 830.125 C 558.351 833.551, 557.614 836.816, 557.265 837.380 C 556.916 837.944, 556.076 841.352, 555.397 844.953 C 551.224 867.081, 549.922 873.126, 548.174 878.500 C 547.100 881.800, 545.189 887.650, 543.928 891.500 C 542.666 895.350, 541.577 899.175, 541.506 900 C 541.435 900.825, 540.896 902.400, 540.307 903.500 C 539.718 904.600, 538.906 907.075, 538.503 909 C 538.099 910.925, 537.169 913.625, 536.436 915 C 534.417 918.787, 530.885 927.263, 530.456 929.352 C 530.247 930.371, 529.587 931.793, 528.989 932.513 C 527.515 934.289, 528.499 934.656, 535.480 934.931 C 538.769 935.060, 541.733 935.335, 542.068 935.542 C 542.402 935.748, 545.336 936.166, 548.587 936.471 C 567.577 938.248, 575.977 939.218, 579.815 940.075 C 582.188 940.604, 584.450 940.840, 584.841 940.598 C 585.232 940.356, 588.114 940.754, 591.246 941.482 C 594.377 942.210, 599.540 943.094, 602.720 943.446 C 609.234 944.169, 623.830 946.778, 624.839 947.400 C 625.202 947.624, 630.675 948.312, 637 948.928 C 643.325 949.545, 653.103 950.720, 658.728 951.539 C 664.354 952.359, 671.365 953.253, 674.310 953.525 L 679.664 954.020 682.499 947.760 C 684.058 944.317, 685.457 940.825, 685.609 940 C 685.925 938.280, 691.611 921.503, 692.896 918.500 C 695.264 912.963, 696.712 909.131, 702.530 893 C 706.002 883.375, 709.806 873.025, 710.982 870 C 712.159 866.975, 713.362 863.375, 713.656 862 C 714.406 858.492, 714.619 857.705, 715.278 856 C 715.597 855.175, 716.530 852.250, 717.352 849.500 C 718.173 846.750, 719.601 842.475, 720.525 840 C 721.449 837.525, 722.756 833.700, 723.429 831.500 L 724.653 827.500 708.077 827.321 C 690.900 827.135, 667.461 825.124, 651 822.423 C 645.775 821.566, 638.800 820.617, 635.500 820.314 C 632.200 820.011, 629.048 819.403, 628.496 818.964 C 627.944 818.524, 624.794 818.130, 621.496 818.088 C 618.198 818.047, 613.925 817.784, 612 817.505 C 602.341 816.102, 599.790 815.902, 591 815.861 C 585.775 815.837, 581.050 815.452, 580.500 815.007 C 578.788 813.620, 566.651 812.867, 564.750 814.030 M 318.028 827.426 C 316.461 831.547, 316.962 832.962, 318.632 829.134 C 319.440 827.282, 319.866 825.532, 319.578 825.245 C 319.291 824.958, 318.593 825.939, 318.028 827.426 M 735.160 836.160 C 733.410 841.193, 732.147 845.481, 732.355 845.688 C 732.562 845.895, 734.202 841.986, 736 837 C 737.798 832.014, 739.060 827.727, 738.805 827.472 C 738.551 827.217, 736.910 831.127, 735.160 836.160 M 779.079 830.583 C 779.127 831.748, 779.364 831.985, 779.683 831.188 C 779.972 830.466, 779.936 829.603, 779.604 829.271 C 779.272 828.939, 779.036 829.529, 779.079 830.583 M 267.118 853.118 C 265.961 856.544, 265.186 859.519, 265.396 859.730 C 265.607 859.940, 266.725 857.309, 267.882 853.882 C 269.039 850.456, 269.814 847.481, 269.604 847.270 C 269.393 847.060, 268.275 849.691, 267.118 853.118 M 310.564 848.707 C 310.022 850.132, 310.136 850.247, 311.124 849.267 C 311.808 848.588, 312.115 847.781, 311.807 847.474 C 311.499 847.166, 310.940 847.721, 310.564 848.707 M 729.118 853.118 C 727.961 856.544, 727.186 859.519, 727.396 859.730 C 727.607 859.940, 728.725 857.309, 729.882 853.882 C 731.039 850.456, 731.814 847.481, 731.604 847.270 C 731.393 847.060, 730.275 849.691, 729.118 853.118 M 772.564 848.707 C 772.022 850.132, 772.136 850.247, 773.124 849.267 C 773.808 848.588, 774.115 847.781, 773.807 847.474 C 773.499 847.166, 772.940 847.721, 772.564 848.707 M 969.886 852.750 C 967.345 859.314, 959 883.388, 959 884.156 C 959 886.624, 960.817 884.398, 962.190 880.250 C 963.054 877.638, 965.821 869.763, 968.338 862.750 C 970.855 855.737, 972.473 850, 971.933 850 C 971.392 850, 970.471 851.237, 969.886 852.750 M 308.500 854 C 308.125 855.183, 308.042 856.376, 308.317 856.651 C 308.592 856.926, 309.125 856.183, 309.500 855 C 309.875 853.817, 309.958 852.624, 309.683 852.349 C 309.408 852.074, 308.875 852.817, 308.500 854 M 770.500 854 C 770.125 855.183, 770.042 856.376, 770.317 856.651 C 770.592 856.926, 771.125 856.183, 771.500 855 C 771.875 853.817, 771.958 852.624, 771.683 852.349 C 771.408 852.074, 770.875 852.817, 770.500 854 M 1112 858.031 C 1112 858.564, 1112.675 859, 1113.500 859 C 1114.325 859, 1115 858.823, 1115 858.607 C 1115 858.391, 1114.325 857.955, 1113.500 857.638 C 1112.675 857.322, 1112 857.499, 1112 858.031 M 1107 858.393 C 1107 858.609, 1107.698 859.054, 1108.552 859.382 C 1109.442 859.723, 1109.843 859.555, 1109.493 858.989 C 1108.906 858.038, 1107 857.583, 1107 858.393 M 262.624 865.539 C 261.659 868.053, 261.943 868.702, 263.122 866.675 C 263.706 865.671, 263.973 864.639, 263.715 864.382 C 263.458 864.124, 262.966 864.645, 262.624 865.539 M 724.624 865.539 C 723.659 868.053, 723.943 868.702, 725.122 866.675 C 725.706 865.671, 725.973 864.639, 725.715 864.382 C 725.458 864.124, 724.966 864.645, 724.624 865.539 M 260.624 871.539 C 259.659 874.053, 259.943 874.702, 261.122 872.675 C 261.706 871.671, 261.973 870.639, 261.715 870.382 C 261.458 870.124, 260.966 870.645, 260.624 871.539 M 722.624 871.539 C 721.659 874.053, 721.943 874.702, 723.122 872.675 C 723.706 871.671, 723.973 870.639, 723.715 870.382 C 723.458 870.124, 722.966 870.645, 722.624 871.539 M 73.543 882.953 C 71.837 884.837, 71.865 884.928, 74.331 885.547 C 75.736 885.900, 77.468 885.829, 78.179 885.390 C 78.890 884.950, 81.053 884.717, 82.986 884.872 C 86.301 885.137, 86.387 885.068, 84.511 883.665 C 83.417 882.847, 82.211 882.370, 81.830 882.605 C 81.450 882.840, 80.856 882.575, 80.510 882.016 C 79.467 880.329, 75.425 880.872, 73.543 882.953 M 255.615 885.615 C 254.730 888.213, 254.179 890.512, 254.390 890.724 C 254.602 890.935, 255.499 888.983, 256.385 886.385 C 257.270 883.787, 257.821 881.488, 257.610 881.276 C 257.398 881.065, 256.501 883.017, 255.615 885.615 M 717.615 885.615 C 716.730 888.213, 716.179 890.512, 716.390 890.724 C 716.602 890.935, 717.499 888.983, 718.385 886.385 C 719.270 883.787, 719.821 881.488, 719.610 881.276 C 719.398 881.065, 718.501 883.017, 717.615 885.615 M 514.624 889.539 C 513.659 892.053, 513.943 892.702, 515.122 890.675 C 515.706 889.671, 515.973 888.639, 515.715 888.382 C 515.458 888.124, 514.966 888.645, 514.624 889.539 M 976.624 889.539 C 975.659 892.053, 975.943 892.702, 977.122 890.675 C 977.706 889.671, 977.973 888.639, 977.715 888.382 C 977.458 888.124, 976.966 888.645, 976.624 889.539 M 251.624 896.539 C 250.659 899.053, 250.943 899.702, 252.122 897.675 C 252.706 896.671, 252.973 895.639, 252.715 895.382 C 252.458 895.124, 251.966 895.645, 251.624 896.539 M 713.624 896.539 C 712.659 899.053, 712.943 899.702, 714.122 897.675 C 714.706 896.671, 714.973 895.639, 714.715 895.382 C 714.458 895.124, 713.966 895.645, 713.624 896.539 M 710.620 905.189 C 703.231 925.196, 693.050 954.383, 693.354 954.688 C 693.867 955.200, 694.682 953.066, 704.478 925.585 C 709.166 912.431, 712.825 901.491, 712.607 901.274 C 712.390 901.056, 711.495 902.818, 710.620 905.189 M 746.500 919 C 746.160 919.550, 746.359 920, 746.941 920 C 747.523 920, 748 919.550, 748 919 C 748 918.450, 747.802 918, 747.559 918 C 747.316 918, 746.840 918.450, 746.500 919 M 786.500 944 C 786.160 944.550, 786.359 945, 786.941 945 C 787.523 945, 788 944.550, 788 944 C 788 943.450, 787.802 943, 787.559 943 C 787.316 943, 786.840 943.450, 786.500 944 M 524 946.308 C 524 947.239, 524.939 947.516, 527.046 947.207 C 530.550 946.692, 530.519 946.526, 526.750 945.622 C 524.785 945.150, 524 945.346, 524 946.308 M 531.575 947.121 C 532.140 948.035, 539 948.758, 539 947.904 C 539 947.522, 537.238 947.042, 535.084 946.837 C 532.930 946.631, 531.351 946.759, 531.575 947.121 M 540 948 C 540 948.550, 540.477 949, 541.059 949 C 541.641 949, 541.840 948.550, 541.500 948 C 541.160 947.450, 540.684 947, 540.441 947 C 540.198 947, 540 947.450, 540 948 M 546.899 949.299 C 547.365 949.765, 549.265 949.989, 551.123 949.798 C 554.417 949.459, 554.396 949.438, 550.276 948.951 C 547.953 948.677, 546.433 948.833, 546.899 949.299 M 555 950.395 C 555 950.612, 556.762 950.958, 558.916 951.163 C 561.070 951.369, 562.618 951.191, 562.357 950.768 C 561.882 949.999, 555 949.650, 555 950.395 M 564.025 951.309 C 564.503 951.832, 567.422 952.324, 576.857 953.473 C 580.190 953.879, 580.519 952.854, 577.221 952.341 C 571.396 951.434, 563.581 950.823, 564.025 951.309 M 583 953.894 C 584.375 954.329, 587.975 954.957, 591 955.290 C 594.210 955.644, 595.459 955.567, 594 955.106 C 592.625 954.671, 589.025 954.043, 586 953.710 C 582.790 953.356, 581.541 953.433, 583 953.894 M 608 957 C 608 957.550, 608.477 958, 609.059 958 C 609.641 958, 609.840 957.550, 609.500 957 C 609.160 956.450, 608.684 956, 608.441 956 C 608.198 956, 608 956.450, 608 957 M 519 959 C 519 959.550, 520.098 960, 521.441 960 C 522.784 960, 524.160 959.550, 524.500 959 C 524.861 958.417, 523.844 958, 522.059 958 C 520.377 958, 519 958.450, 519 959 M 548.613 960.720 C 548.217 961.116, 546.387 961.311, 544.547 961.152 C 541.190 960.863, 539.050 962.295, 541.020 963.513 C 542.714 964.560, 549.793 962.983, 550.390 961.425 C 550.964 959.930, 549.846 959.487, 548.613 960.720 M 555 961.906 C 555 962.405, 554.100 962.577, 553 962.290 C 551.882 961.997, 551 962.259, 551 962.883 C 551 963.498, 551.788 964.035, 552.750 964.077 C 563.456 964.547, 573.200 964.486, 573.532 963.947 C 574.049 963.112, 562.123 961.806, 560.897 962.564 C 560.404 962.869, 560 962.641, 560 962.059 C 560 961.477, 558.875 961, 557.500 961 C 556.125 961, 555 961.408, 555 961.906 M 639.813 961.683 C 640.534 961.972, 641.397 961.936, 641.729 961.604 C 642.061 961.272, 641.471 961.036, 640.417 961.079 C 639.252 961.127, 639.015 961.364, 639.813 961.683 M 664.500 965.057 C 666.700 965.512, 669.400 965.866, 670.500 965.843 C 672.118 965.809, 672.022 965.648, 670 965 C 668.625 964.560, 665.925 964.206, 664 964.215 L 660.500 964.230 664.500 965.057 M 673.500 966 C 673.840 966.550, 674.316 967, 674.559 967 C 674.802 967, 675 966.550, 675 966 C 675 965.450, 674.523 965, 673.941 965 C 673.359 965, 673.160 965.450, 673.500 966 M 514.813 984.683 C 515.534 984.972, 516.397 984.936, 516.729 984.604 C 517.061 984.272, 516.471 984.036, 515.417 984.079 C 514.252 984.127, 514.015 984.364, 514.813 984.683 M 561.500 991 C 564.291 992.199, 567.241 992.199, 566.500 991 C 566.160 990.450, 564.446 990.032, 562.691 990.070 C 560.001 990.130, 559.814 990.276, 561.500 991 M 584 994.059 C 584 994.641, 584.450 994.840, 585 994.500 C 585.550 994.160, 586 993.684, 586 993.441 C 586 993.198, 585.550 993, 585 993 C 584.450 993, 584 993.477, 584 994.059 M 589 994.383 C 589 994.594, 589.900 995.002, 591 995.290 C 592.100 995.577, 593 995.405, 593 994.906 C 593 994.408, 592.100 994, 591 994 C 589.900 994, 589 994.173, 589 994.383 M 970.250 1005.689 C 971.212 1005.941, 972.788 1005.941, 973.750 1005.689 C 974.712 1005.438, 973.925 1005.232, 972 1005.232 C 970.075 1005.232, 969.288 1005.438, 970.250 1005.689 M 1004 1010 C 1004 1010.550, 1004.477 1011, 1005.059 1011 C 1005.641 1011, 1005.840 1010.550, 1005.500 1010 C 1005.160 1009.450, 1004.684 1009, 1004.441 1009 C 1004.198 1009, 1004 1009.450, 1004 1010 M 1008.269 1010.693 C 1009.242 1010.947, 1010.592 1010.930, 1011.269 1010.656 C 1011.946 1010.382, 1011.150 1010.175, 1009.500 1010.195 C 1007.850 1010.215, 1007.296 1010.439, 1008.269 1010.693 M 960 1021 C 960 1021.550, 960.450 1022, 961 1022 C 961.550 1022, 962 1021.550, 962 1021 C 962 1020.450, 961.550 1020, 961 1020 C 960.450 1020, 960 1020.450, 960 1021 M 972 1022 C 972 1022.550, 972.450 1023, 973 1023 C 973.550 1023, 974 1022.550, 974 1022 C 974 1021.450, 973.550 1021, 973 1021 C 972.450 1021, 972 1021.450, 972 1022 M 976.667 1021.667 C 974.564 1023.770, 977.654 1025.225, 981.665 1024.022 C 984.028 1023.314, 984.135 1023.158, 982.309 1023.086 C 981.104 1023.039, 979.840 1022.550, 979.500 1022 C 978.786 1020.845, 977.625 1020.709, 976.667 1021.667 M 985 1023.774 C 985 1024.959, 991.639 1026.926, 997.708 1027.539 C 1000.344 1027.805, 1002.650 1028.467, 1002.833 1029.010 C 1003.016 1029.552, 1004.320 1029.707, 1005.732 1029.352 C 1007.253 1028.971, 1008.060 1029.095, 1007.712 1029.657 C 1007.369 1030.212, 1009.347 1030.584, 1012.480 1030.555 C 1016.650 1030.515, 1017.604 1030.227, 1016.794 1029.252 C 1016.223 1028.563, 1014.881 1028, 1013.812 1028 C 1012.743 1028, 1011.040 1027.557, 1010.028 1027.015 C 1009.015 1026.473, 1003.757 1025.551, 998.343 1024.966 C 992.930 1024.381, 987.712 1023.669, 986.750 1023.384 C 985.788 1023.099, 985 1023.274, 985 1023.774 M 999.872 1035.750 C 998.603 1037.369, 998.650 1037.390, 1000.500 1036.033 C 1001.600 1035.226, 1002.688 1034.439, 1002.917 1034.283 C 1003.146 1034.127, 1002.863 1034, 1002.289 1034 C 1001.715 1034, 1000.627 1034.787, 999.872 1035.750 M 97.500 1054 C 97.160 1054.550, 97.332 1055, 97.882 1055 C 98.432 1055, 99.160 1054.550, 99.500 1054 C 99.840 1053.450, 99.668 1053, 99.118 1053 C 98.568 1053, 97.840 1053.450, 97.500 1054 M 169 1062 C 169 1062.550, 169.450 1063, 170 1063 C 170.550 1063, 171 1062.550, 171 1062 C 171 1061.450, 170.550 1061, 170 1061 C 169.450 1061, 169 1061.450, 169 1062 M 1161.666 1103.352 C 1161.229 1105.471, 1161.114 1107.448, 1161.412 1107.745 C 1162.318 1108.651, 1163.170 1105.342, 1162.805 1102.334 C 1162.485 1099.694, 1162.407 1099.764, 1161.666 1103.352 M 90 1150.387 C 90 1151.208, 96.116 1151.621, 96.603 1150.833 C 96.886 1150.375, 95.516 1150, 93.559 1150 C 91.602 1150, 90 1150.174, 90 1150.387 M 98.813 1152.683 C 99.534 1152.972, 100.397 1152.936, 100.729 1152.604 C 101.061 1152.272, 100.471 1152.036, 99.417 1152.079 C 98.252 1152.127, 98.015 1152.364, 98.813 1152.683 M 455 1166 C 455 1166.550, 455.900 1167.056, 457 1167.125 C 458.100 1167.194, 459.337 1167.330, 459.750 1167.428 C 460.163 1167.526, 463.650 1168, 467.500 1168.482 C 471.350 1168.963, 474.725 1169.412, 475 1169.480 C 475.275 1169.547, 478.200 1169.939, 481.500 1170.350 C 484.800 1170.761, 497.337 1172.451, 509.360 1174.105 C 529.150 1176.829, 533.421 1177.088, 531.802 1175.469 C 531.510 1175.176, 526.147 1174.275, 519.885 1173.466 C 513.623 1172.657, 507.150 1171.792, 505.500 1171.544 C 499.961 1170.711, 456.567 1165, 455.779 1165 C 455.350 1165, 455 1165.450, 455 1166 M 527.603 1193.833 C 527.320 1194.292, 527.743 1194.667, 528.544 1194.667 C 529.345 1194.667, 530 1194.292, 530 1193.833 C 530 1193.375, 529.577 1193, 529.059 1193 C 528.541 1193, 527.886 1193.375, 527.603 1193.833 M 162.638 1195.500 C 162.322 1196.325, 162.499 1197, 163.031 1197 C 163.564 1197, 164 1196.325, 164 1195.500 C 164 1194.675, 163.823 1194, 163.607 1194 C 163.391 1194, 162.955 1194.675, 162.638 1195.500 M 144.111 1198.111 C 142.656 1202.285, 143.351 1202.980, 145 1199 C 145.698 1197.315, 146.036 1195.702, 145.750 1195.417 C 145.465 1195.131, 144.727 1196.344, 144.111 1198.111 M 443.631 1198.702 C 442.635 1199.699, 442.896 1202.182, 443.931 1201.543 C 444.443 1201.226, 445.144 1201.425, 445.490 1201.984 C 446.424 1203.495, 448 1203.213, 448 1201.535 C 448 1199.905, 444.620 1197.713, 443.631 1198.702 M 157.500 1207 C 157.840 1207.550, 158.316 1208, 158.559 1208 C 158.802 1208, 159 1207.550, 159 1207 C 159 1206.450, 158.523 1206, 157.941 1206 C 157.359 1206, 157.160 1206.450, 157.500 1207 M 155.918 1210.750 C 155.512 1214.452, 154.643 1217.907, 153.362 1220.918 C 152.524 1222.888, 151.678 1225.271, 151.483 1226.213 C 151.289 1227.155, 150.439 1229.405, 149.595 1231.213 C 148.192 1234.217, 145 1245.332, 145 1247.210 C 145 1249.093, 147.614 1247.748, 148.827 1245.242 C 151.216 1240.307, 151.403 1239.633, 150.170 1240.395 C 149.526 1240.793, 149 1240.641, 149 1240.059 C 149 1239.477, 149.644 1239, 150.432 1239 C 151.403 1239, 151.763 1238.115, 151.550 1236.250 C 151.378 1234.737, 151.625 1233.015, 152.099 1232.422 C 152.572 1231.828, 153.161 1230.253, 153.406 1228.922 C 153.651 1227.590, 153.941 1226.388, 154.051 1226.250 C 154.288 1225.952, 154.368 1225.611, 155.346 1220.721 C 155.761 1218.643, 157.023 1215.380, 158.149 1213.471 L 160.198 1210 158.099 1210 C 156.944 1210, 155.963 1210.338, 155.918 1210.750 M 138.624 1213.539 C 137.659 1216.053, 137.943 1216.702, 139.122 1214.675 C 139.706 1213.671, 139.973 1212.639, 139.715 1212.382 C 139.458 1212.124, 138.966 1212.645, 138.624 1213.539 M 132.118 1232.118 C 130.961 1235.544, 130.186 1238.519, 130.396 1238.730 C 130.607 1238.940, 131.725 1236.309, 132.882 1232.882 C 134.039 1229.456, 134.814 1226.481, 134.604 1226.270 C 134.393 1226.060, 133.275 1228.691, 132.118 1232.118 M 594.109 1232.250 C 592.525 1236.483, 591.865 1239, 592.339 1239 C 592.599 1239, 593.502 1236.975, 594.345 1234.500 C 595.886 1229.978, 595.683 1228.043, 594.109 1232.250 M 608.673 1239.853 C 606.671 1248.150, 606.679 1248.002, 608.250 1247.992 C 608.938 1247.988, 610.097 1246.750, 610.827 1245.242 C 613.216 1240.307, 613.403 1239.633, 612.170 1240.395 C 611.526 1240.793, 611 1240.641, 611 1240.059 C 611 1239.477, 611.644 1239, 612.432 1239 C 614.364 1239, 613.787 1233.600, 611.813 1233.210 C 610.756 1233.001, 609.880 1234.854, 608.673 1239.853 M 422.500 1243 C 422.160 1243.550, 422.359 1244, 422.941 1244 C 423.523 1244, 424 1243.550, 424 1243 C 424 1242.450, 423.802 1242, 423.559 1242 C 423.316 1242, 422.840 1242.450, 422.500 1243 M 153 1244 C 153 1244.550, 153.477 1245, 154.059 1245 C 154.641 1245, 154.840 1244.550, 154.500 1244 C 154.160 1243.450, 153.684 1243, 153.441 1243 C 153.198 1243, 153 1243.450, 153 1244 M 615 1244 C 615 1244.550, 615.477 1245, 616.059 1245 C 616.641 1245, 616.840 1244.550, 616.500 1244 C 616.160 1243.450, 615.684 1243, 615.441 1243 C 615.198 1243, 615 1243.450, 615 1244 M 127.079 1245.668 C 127.036 1246.311, 126.741 1247.661, 126.424 1248.668 C 125.877 1250.409, 125.906 1250.412, 126.995 1248.712 C 127.626 1247.729, 127.920 1246.379, 127.650 1245.712 C 127.295 1244.837, 127.136 1244.825, 127.079 1245.668 M 589.079 1245.668 C 589.036 1246.311, 588.741 1247.661, 588.424 1248.668 C 587.877 1250.409, 587.906 1250.412, 588.995 1248.712 C 589.626 1247.729, 589.920 1246.379, 589.650 1245.712 C 589.295 1244.837, 589.136 1244.825, 589.079 1245.668 M 122.624 1258.539 C 121.659 1261.053, 121.943 1261.702, 123.122 1259.675 C 123.706 1258.671, 123.973 1257.639, 123.715 1257.382 C 123.458 1257.124, 122.966 1257.645, 122.624 1258.539 M 584.624 1258.539 C 583.659 1261.053, 583.943 1261.702, 585.122 1259.675 C 585.706 1258.671, 585.973 1257.639, 585.715 1257.382 C 585.458 1257.124, 584.966 1257.645, 584.624 1258.539 M 120.624 1264.539 C 119.659 1267.053, 119.943 1267.702, 121.122 1265.675 C 121.706 1264.671, 121.973 1263.639, 121.715 1263.382 C 121.458 1263.124, 120.966 1263.645, 120.624 1264.539 M 582.624 1264.539 C 581.659 1267.053, 581.943 1267.702, 583.122 1265.675 C 583.706 1264.671, 583.973 1263.639, 583.715 1263.382 C 583.458 1263.124, 582.966 1263.645, 582.624 1264.539 M 884 1274.059 C 884 1274.641, 884.450 1274.840, 885 1274.500 C 885.550 1274.160, 886 1273.684, 886 1273.441 C 886 1273.198, 885.550 1273, 885 1273 C 884.450 1273, 884 1273.477, 884 1274.059 M 141.500 1411.698 C 143.355 1413.409, 147.921 1414.937, 148.479 1414.034 C 148.781 1413.545, 148.010 1412.851, 146.765 1412.493 C 141.254 1410.908, 140.524 1410.797, 141.500 1411.698 M 603.500 1411.698 C 605.355 1413.409, 609.921 1414.937, 610.479 1414.034 C 610.781 1413.545, 610.010 1412.851, 608.765 1412.493 C 603.254 1410.908, 602.524 1410.797, 603.500 1411.698 M 152 1415 C 153.958 1416.266, 155.282 1416.266, 154.500 1415 C 154.160 1414.450, 153.121 1414.007, 152.191 1414.015 C 150.734 1414.029, 150.707 1414.165, 152 1415 M 614 1415 C 615.958 1416.266, 617.282 1416.266, 616.500 1415 C 616.160 1414.450, 615.121 1414.007, 614.191 1414.015 C 612.734 1414.029, 612.707 1414.165, 614 1415" stroke="none" fill="black" fill-rule="evenodd"/>
</svg>