<svg xmlns="http://www.w3.org/2000/svg" width="1240" height="1753" viewBox="0 0 1240 1753" version="1.1">
	<path d="M 967.836 30.944 C 965.821 31.336, 962.896 32.506, 961.336 33.543 C 959.776 34.580, 956.025 36.611, 953 38.056 C 948.085 40.404, 936.797 49.471, 934.695 52.760 C 934.252 53.452, 932.452 54.649, 930.695 55.418 C 928.938 56.188, 921.759 62.484, 914.741 69.409 C 907.724 76.334, 901.581 82, 901.090 82 C 900.599 82, 898.915 83.603, 897.348 85.562 C 891.689 92.640, 884.011 100.570, 879.497 104 C 875.071 107.363, 871.201 110.443, 861.910 118 C 859.544 119.925, 855.108 123.915, 852.054 126.867 C 848.999 129.818, 845.798 132.743, 844.940 133.367 C 844.082 133.990, 840.287 138.100, 836.506 142.500 C 817.882 164.174, 786.297 196.686, 773.610 207.245 C 770.335 209.970, 766.291 213.843, 764.623 215.850 C 761.210 219.958, 748.911 230.893, 743.810 234.354 C 741.965 235.607, 738.215 238.732, 735.477 241.299 C 732.740 243.866, 730.183 245.974, 729.796 245.983 C 729 246.002, 708.577 263.597, 705.500 266.914 C 704.400 268.100, 702.640 269.842, 701.588 270.785 C 694.047 277.550, 692.226 279.164, 690.097 280.966 C 688.775 282.085, 687.088 283, 686.347 283 C 685.606 283, 685 283.559, 685 284.242 C 685 284.926, 680.284 290.213, 674.521 295.992 C 663.328 307.215, 647.614 324.038, 642.203 330.590 C 640.390 332.785, 637.974 334.652, 636.835 334.737 C 635.695 334.823, 631.779 337.989, 628.131 341.772 C 624.484 345.556, 619.813 349.908, 617.750 351.444 C 615.688 352.981, 613.996 354.746, 613.991 355.369 C 613.986 355.991, 612.748 357.474, 611.241 358.665 C 608.474 360.850, 607.847 361.383, 598.111 369.826 C 595.147 372.397, 585.022 382.196, 575.611 391.602 C 566.200 401.007, 556.925 409.507, 555 410.490 C 550.048 413.019, 539.843 420.768, 530.064 429.425 C 521.412 437.085, 436.713 523.207, 422.413 538.886 C 415.404 546.571, 348.122 613.436, 347.015 613.818 C 345.522 614.333, 344.936 381.195, 346.315 335.500 C 348.712 256.103, 348.802 231.888, 346.679 238 C 346.393 238.825, 345.902 240.175, 345.588 241 C 345.274 241.825, 345.286 236.706, 345.616 229.624 C 346.026 220.830, 345.887 216.952, 345.177 217.391 C 344.606 217.744, 343.856 217.575, 343.510 217.016 C 343.165 216.457, 343.696 215.993, 344.691 215.985 C 345.765 215.976, 346.067 215.671, 345.433 215.235 C 344.272 214.434, 344.327 203.013, 345.524 196.614 C 346.002 194.056, 345.902 192.942, 345.231 193.357 C 344.564 193.769, 344.262 190.885, 344.356 185.002 C 344.459 178.562, 344.854 176.014, 345.750 176.008 C 346.610 176.003, 347 174.129, 347 170 C 347 166.667, 346.556 164, 346 164 C 345.450 164, 345 163.523, 345 162.941 C 345 162.359, 345.403 162.131, 345.895 162.435 C 347.338 163.327, 347.720 161.124, 348.055 150 C 348.885 122.397, 347.929 94.978, 345.648 80.965 C 345.361 79.206, 342.314 70.772, 340.331 66.250 C 338.467 61.999, 336.585 61.999, 337.235 66.250 C 337.509 68.038, 337.531 70.058, 337.286 70.741 C 336.529 72.844, 333.492 68.966, 333.837 66.337 C 334.190 63.639, 333.225 63.310, 331.575 65.566 C 330.945 66.428, 328.421 67.365, 325.965 67.649 C 323.509 67.932, 320.825 68.422, 320 68.736 C 319.175 69.050, 317.600 69.218, 316.500 69.109 C 314.841 68.944, 314.756 69.086, 316 69.940 C 317.011 70.634, 317.093 70.974, 316.250 70.985 C 315.563 70.993, 314.993 71.787, 314.985 72.750 C 314.972 74.202, 314.813 74.252, 314.051 73.048 C 313.545 72.249, 313.280 71.349, 313.461 71.048 C 313.642 70.746, 313.190 69.946, 312.457 69.268 C 311.384 68.277, 310.997 68.434, 310.478 70.071 C 309.946 71.746, 309.568 71.887, 308.340 70.867 C 307.145 69.875, 306.679 69.902, 306 71 C 305.290 72.149, 304.891 72.154, 303.534 71.028 C 301.360 69.224, 300.010 70.707, 299.408 75.559 C 298.840 80.135, 298 81.411, 298 77.698 C 298 76.022, 297.545 75.223, 296.750 75.503 C 294.842 76.176, 291.663 73.322, 292.343 71.548 C 292.670 70.697, 292.501 70, 291.969 70 C 291.436 70, 291 70.450, 291 71 C 291 72.640, 287.988 72.132, 287.315 70.378 C 286.782 68.991, 286.413 69.099, 284.759 71.128 C 283.696 72.433, 283.117 72.938, 283.472 72.250 C 283.842 71.534, 283.512 71, 282.698 71 C 281.741 71, 281.426 71.777, 281.733 73.383 C 281.983 74.693, 281.696 76.070, 281.094 76.442 C 280.492 76.814, 280 76.586, 280 75.937 C 280 75.056, 279.618 75.072, 278.500 76 C 277.219 77.063, 276.985 76.752, 276.900 73.872 C 276.809 70.771, 276.740 70.701, 276.053 73 L 275.305 75.500 274.903 73.109 C 274.676 71.762, 273.503 70.351, 272.218 69.879 C 270.297 69.173, 269.760 69.473, 268.827 71.770 C 267.816 74.262, 267.666 74.326, 267.110 72.500 C 266.490 70.466, 262.923 69.580, 260 70.735 C 259.175 71.061, 258.095 71.366, 257.601 71.414 C 257.106 71.461, 256.309 72.400, 255.830 73.500 C 255.015 75.371, 254.985 75.359, 255.369 73.315 C 255.792 71.062, 253.546 69.308, 252.470 71.049 C 252.143 71.578, 251.828 75.046, 251.770 78.756 C 251.712 82.465, 251.477 84.375, 251.248 83 C 251.018 81.625, 250.353 80.050, 249.768 79.500 C 249.039 78.814, 248.865 78.971, 249.214 80 C 249.494 80.825, 249.367 82.400, 248.932 83.500 C 248.363 84.937, 248.121 84.180, 248.070 80.809 C 248.032 78.229, 247.519 75.821, 246.932 75.458 C 246.344 75.095, 246.105 74.168, 246.400 73.399 C 246.696 72.629, 246.389 71.968, 245.719 71.930 C 245.048 71.891, 245.400 71.473, 246.500 71 C 248.438 70.167, 248.433 70.138, 246.338 70.070 C 244.563 70.013, 244.039 70.761, 243.414 74.250 L 242.652 78.500 241.766 74.247 C 240.999 70.558, 240.641 70.122, 239.072 70.961 C 237.259 71.932, 236 71.445, 236 69.774 C 236 69.284, 236.563 69.200, 237.250 69.588 C 238.184 70.115, 238.174 69.943, 237.208 68.905 C 236.108 67.723, 235.777 67.738, 234.974 69.008 C 234.139 70.328, 234.027 70.327, 234 69 C 233.976 67.829, 233.789 67.785, 233.146 68.797 C 232.488 69.835, 232.070 69.790, 231.057 68.568 C 229.566 66.772, 226 68.138, 226 70.505 C 226 72.361, 219.433 72.226, 217.865 70.338 C 216.209 68.342, 215.277 68.697, 214.162 71.750 L 213.158 74.500 213.079 71.691 C 213.026 69.813, 212.612 69.122, 211.830 69.605 C 211.038 70.095, 210.871 69.778, 211.314 68.624 C 211.725 67.553, 211.510 66.993, 210.734 67.118 C 210.055 67.226, 208.825 67.056, 208 66.739 C 204.402 65.356, 201.183 65.314, 201.698 66.656 C 201.982 67.395, 201.702 68, 201.076 68 C 200.449 68, 199.686 67.347, 199.380 66.548 C 199.056 65.703, 196.875 64.851, 194.161 64.509 C 191.598 64.186, 188.263 63.726, 186.750 63.486 C 184.463 63.123, 183.983 63.425, 183.900 65.275 C 183.807 67.363, 183.761 67.377, 183.150 65.500 C 182.606 63.825, 181.544 63.476, 176.623 63.354 C 173.252 63.269, 170.427 62.691, 169.998 61.997 C 169.554 61.279, 168.388 61.059, 167.133 61.458 C 162.679 62.871, 159.881 63.007, 157.827 61.907 C 155.955 60.906, 155.776 60.994, 156.351 62.634 C 156.977 64.421, 156.943 64.419, 155.534 62.603 C 154.726 61.559, 154.301 60.322, 154.591 59.853 C 154.881 59.384, 154.673 59, 154.129 59 C 153.584 59, 152.944 60.013, 152.706 61.250 L 152.272 63.500 152.136 61.250 C 152.061 60.013, 151.522 59, 150.937 59 C 150.353 59, 149.954 59.787, 150.052 60.750 C 150.377 63.943, 150.012 65.126, 148.913 64.446 C 148.315 64.077, 148.022 63.024, 148.262 62.108 C 148.501 61.191, 148.157 59.936, 147.497 59.320 C 146.231 58.136, 143.774 59.047, 144.066 60.592 C 144.160 61.091, 144.177 62.400, 144.103 63.500 C 144 65.049, 143.772 65.188, 143.092 64.115 C 142.558 63.272, 142.430 64.640, 142.765 67.615 C 143.248 71.911, 143.130 72.348, 141.790 71.238 C 139.358 69.224, 137.810 72.021, 134.798 83.871 C 132.677 92.217, 132.140 93.507, 132.298 89.877 C 132.436 86.718, 132.133 85.395, 131.341 85.699 C 130.111 86.171, 130.130 79.838, 131.367 77 C 132.102 75.312, 131.587 69.254, 130.626 68.293 C 130.282 67.949, 130 68.417, 130 69.333 C 130 70.279, 129.212 71, 128.179 71 C 126.555 71, 126.439 70.435, 127.106 65.750 C 128.239 57.799, 128.162 57.186, 125.952 56.485 C 123.306 55.645, 121.064 57.527, 121.720 60.037 C 122.404 62.652, 123.860 62.523, 124.944 59.750 C 125.522 58.271, 125.631 59.555, 125.261 63.500 C 124.952 66.800, 124.414 69.725, 124.066 70 C 123.500 70.447, 123.454 71.419, 123.890 73.750 C 123.967 74.162, 124.467 73.825, 125 73 C 125.777 71.798, 125.972 71.968, 125.985 73.857 C 125.996 75.544, 125.574 76.050, 124.500 75.638 C 123.675 75.322, 122.993 75.611, 122.985 76.281 C 122.974 77.122, 122.698 77.072, 122.096 76.122 C 120.347 73.360, 118.824 76.073, 119.437 80.858 C 119.834 83.957, 119.513 86.830, 118.472 89.500 L 116.913 93.500 117.331 85 C 117.807 75.325, 117.095 70.555, 115.444 72.351 C 114.863 72.983, 114.301 73.838, 114.194 74.250 C 114.087 74.662, 113.662 75.112, 113.250 75.250 C 112.838 75.388, 112.390 73.025, 112.255 70 C 111.969 63.600, 110.092 56.825, 108.822 57.610 C 108.339 57.909, 108.138 60.031, 108.376 62.327 L 108.808 66.500 107.231 63 C 106.364 61.075, 105.620 58.864, 105.577 58.086 C 105.535 57.308, 104.937 56.483, 104.249 56.253 C 103.417 55.973, 103.223 56.418, 103.669 57.580 C 104.127 58.772, 103.968 59.098, 103.170 58.605 C 102.526 58.207, 102 57.196, 102 56.358 C 102 55.519, 101.438 55.023, 100.750 55.254 C 100.063 55.486, 99.050 55.081, 98.500 54.353 C 97.892 53.549, 96.586 53.275, 95.165 53.654 C 93.602 54.072, 93.232 54.525, 94.044 55.027 C 94.727 55.449, 94.915 56.328, 94.475 57.040 C 93.464 58.676, 90.895 55.438, 91.648 53.476 C 92.006 52.542, 91.539 52.308, 90.079 52.690 C 88.936 52.989, 87.966 53.518, 87.923 53.867 C 87.881 54.215, 87.676 55.175, 87.466 56 C 87.257 56.825, 86.578 59.525, 85.958 62 C 84.535 67.673, 82.948 71, 81.664 71 C 81.116 71, 80.963 70.704, 81.325 70.342 C 81.687 69.980, 81.521 69.127, 80.956 68.447 C 80.392 67.767, 79.999 66.826, 80.083 66.355 C 80.168 65.885, 80.184 63.377, 80.118 60.781 C 80.029 57.231, 79.661 56.193, 78.631 56.588 C 76.964 57.228, 75.702 53.305, 77.356 52.627 C 77.985 52.369, 77.713 52.122, 76.750 52.079 C 75.540 52.024, 75 52.753, 75 54.441 C 75 55.784, 74.520 57.179, 73.933 57.541 C 72.529 58.409, 72.201 57.989, 71.770 54.770 C 71.571 53.288, 71.103 51.769, 70.728 51.395 C 69.536 50.203, 68.729 53.969, 69.879 55.355 C 70.486 56.086, 70.683 56.983, 70.317 57.349 C 69.494 58.173, 69.339 59.563, 68.421 74.439 C 67.954 82.012, 67.400 85.610, 66.907 84.278 C 66.271 82.558, 65.291 70.863, 64.999 61.500 C 64.937 59.526, 64.917 59.526, 63.468 61.441 C 61.671 63.817, 61.566 66.657, 63.250 67.341 C 64.081 67.678, 64.156 68.125, 63.474 68.674 C 62.870 69.160, 62.494 74.109, 62.560 80.707 C 62.621 86.872, 62.295 91.683, 61.836 91.398 C 61.376 91.114, 61 90.219, 61 89.410 C 61 88.600, 60.325 87.678, 59.500 87.362 C 57.693 86.668, 57.476 82.006, 59.250 81.985 C 60.083 81.974, 60 81.646, 59 81 C 57.869 80.269, 57.829 80.027, 58.837 80.015 C 59.891 80.003, 60.066 78.141, 59.660 71.250 C 59.377 66.438, 59.112 62.388, 59.072 62.250 C 59.033 62.112, 58.289 62, 57.421 62 C 56.093 62, 55.894 63.195, 56.171 69.502 C 56.352 73.629, 56.140 77.004, 55.700 77.002 C 55.260 77.001, 55.312 77.735, 55.815 78.634 C 56.318 79.532, 56.387 81.785, 55.969 83.639 C 55.550 85.493, 55.518 87.202, 55.898 87.437 C 56.277 87.671, 56.323 90.624, 56 94 C 55.677 97.376, 55.770 100.358, 56.207 100.628 C 57.214 101.250, 57.248 103.039, 56.250 102.882 C 55.837 102.816, 54.825 102.831, 54 102.913 C 52.799 103.034, 52.869 103.343, 54.350 104.465 C 56.158 105.835, 55.772 108.595, 53.931 107.457 C 52.084 106.316, 53.051 108.222, 55.250 110.056 C 56.487 111.089, 56.938 111.948, 56.250 111.967 C 55.563 111.985, 55 111.564, 55 111.031 C 55 110.499, 54.438 110.284, 53.750 110.554 C 52.920 110.879, 52.447 113.644, 52.343 118.772 C 52.239 123.896, 52.458 125.658, 52.993 124 L 53.801 121.500 53.900 124.168 C 53.955 125.636, 54.267 127.661, 54.594 128.668 C 55.044 130.053, 54.950 130.166, 54.211 129.130 C 52.647 126.937, 51.118 133.349, 51.024 142.500 C 50.893 155.281, 50.324 161.462, 48.921 165.341 C 47.795 168.455, 47.839 169.439, 49.233 172.363 C 50.705 175.450, 50.711 175.968, 49.294 177.990 C 48.272 179.450, 48.094 180.440, 48.778 180.863 C 49.411 181.254, 49.956 187.926, 50.161 197.792 C 50.355 207.096, 50.929 214.380, 51.500 214.788 C 52.950 215.820, 53.340 236.627, 52.020 242.462 C 51.402 245.191, 50.686 253.741, 50.428 261.462 C 50.171 269.183, 49.533 277.300, 49.011 279.500 C 48.489 281.700, 47.784 287.325, 47.445 292 C 46.685 302.483, 46.194 308.168, 45.546 314 C 44.711 321.515, 44.992 354.488, 46.040 372 C 46.584 381.075, 47.071 391.280, 47.122 394.677 C 47.196 399.518, 47.518 400.739, 48.608 400.320 C 50.199 399.710, 50.206 399.775, 50.544 418 C 50.671 424.875, 50.204 434.325, 49.506 439 C 48.808 443.675, 48.531 448.175, 48.892 449 C 49.252 449.825, 49.272 452.975, 48.936 456 L 48.326 461.500 48.163 454.628 C 48.028 448.937, 47.765 447.950, 46.632 448.891 C 45.635 449.718, 45.461 451.177, 45.992 454.263 C 46.393 456.593, 46.624 463.338, 46.506 469.250 C 46.361 476.547, 46.647 480.005, 47.396 480.015 C 48.183 480.026, 48.177 480.242, 47.375 480.765 C 46.696 481.208, 46.223 484.875, 46.184 490 C 46.087 502.519, 44.965 546.347, 44.110 571 C 42.687 612.028, 42.883 667.373, 44.504 682 C 49.720 729.088, 49.696 727.355, 45.826 776.500 C 44.126 798.085, 43.787 810.905, 43.829 852 C 43.909 929.400, 44.672 968.953, 46.374 984 C 50.160 1017.474, 51.069 1027.288, 51.436 1038.707 C 51.652 1045.421, 52.034 1051.271, 52.285 1051.707 C 52.536 1052.143, 52.537 1053.400, 52.288 1054.500 C 52.039 1055.600, 51.867 1062.575, 51.907 1070 C 51.988 1085.120, 51.942 1093.529, 51.764 1096.500 C 51.698 1097.600, 51.731 1100.075, 51.837 1102 C 51.980 1104.589, 52.273 1105.117, 52.961 1104.029 C 53.473 1103.220, 54.162 1102.829, 54.493 1103.160 C 54.824 1103.491, 54.399 1104.458, 53.548 1105.310 C 51.808 1107.049, 51.502 1109, 52.969 1109 C 53.501 1109, 53.678 1109.675, 53.362 1110.500 C 53.025 1111.377, 53.350 1112.006, 54.143 1112.015 C 55.189 1112.027, 55.156 1112.250, 54 1112.987 C 52.854 1113.718, 52.756 1114.353, 53.584 1115.682 C 54.335 1116.886, 54.356 1118.247, 53.653 1120.109 C 52.867 1122.191, 53.005 1123.359, 54.267 1125.284 C 55.163 1126.652, 55.625 1128.042, 55.294 1128.373 C 54.166 1129.500, 54.025 1137.103, 55.144 1136.411 C 55.817 1135.995, 55.784 1136.536, 55.054 1137.900 C 54.423 1139.078, 54.189 1140.496, 54.532 1141.052 C 54.876 1141.608, 55.300 1152.287, 55.475 1164.782 C 55.772 1186.082, 56.227 1191, 57.899 1191 C 58.276 1191, 58.555 1186.162, 58.518 1180.250 C 58.482 1174.338, 58.762 1168.375, 59.140 1167 C 59.776 1164.688, 60.281 1175.154, 60.438 1193.916 C 60.480 1198.914, 60.908 1201.469, 61.750 1201.750 C 63.499 1202.333, 63.314 1204, 61.500 1204 C 60.675 1204, 60 1204.450, 60 1205 C 60 1205.550, 60.450 1206, 61 1206 C 61.550 1206, 61.968 1207.688, 61.930 1209.750 C 61.873 1212.758, 61.689 1213.104, 61 1211.500 C 60.355 1210, 60.123 1210.702, 60.070 1214.309 C 60.024 1217.480, 60.364 1218.893, 61.068 1218.458 C 61.656 1218.095, 61.886 1217.145, 61.580 1216.347 C 61.269 1215.537, 61.459 1215.166, 62.011 1215.507 C 63.862 1216.651, 63.128 1221.154, 61 1221.710 C 59.441 1222.118, 59 1223.074, 59 1226.045 C 59 1228.142, 59.675 1230.532, 60.500 1231.357 C 62.296 1233.154, 62.472 1235.099, 60.807 1234.750 C 59.546 1234.486, 59.202 1247.899, 60.418 1249.868 C 60.756 1250.414, 60.568 1251.149, 60 1251.500 C 59.432 1251.851, 59.240 1252.579, 59.573 1253.118 C 59.954 1253.734, 60.701 1253.663, 61.589 1252.926 C 62.761 1251.954, 63.015 1252.412, 63.089 1255.628 C 63.282 1264.051, 62.429 1277.905, 61.670 1278.664 C 61.377 1278.956, 61.397 1279.872, 61.715 1280.699 C 62.032 1281.525, 61.663 1282.606, 60.896 1283.101 C 59.874 1283.759, 59.811 1284.202, 60.660 1284.753 C 61.910 1285.565, 61.989 1290.998, 60.750 1290.999 C 60.337 1291, 60.032 1292.237, 60.070 1293.750 C 60.133 1296.187, 60.238 1296.272, 61 1294.500 C 61.473 1293.400, 61.891 1293.078, 61.930 1293.785 C 61.968 1294.492, 61.288 1296.158, 60.417 1297.486 C 59.439 1298.979, 59.098 1300.733, 59.524 1302.076 C 59.991 1303.547, 59.856 1304.029, 59.107 1303.566 C 58.389 1303.123, 57.995 1298.242, 57.985 1289.691 C 57.965 1272.334, 56.412 1269.203, 54.419 1282.500 C 53.493 1288.674, 53.366 1289.373, 53.061 1290 C 52.927 1290.275, 52.659 1293.200, 52.467 1296.500 C 51.780 1308.257, 50.888 1315.429, 49.978 1316.527 C 49.469 1317.140, 49.091 1323.009, 49.138 1329.571 C 49.185 1336.132, 48.989 1343.750, 48.703 1346.500 C 48.417 1349.250, 47.922 1373.775, 47.603 1401 C 47.283 1428.225, 46.461 1466.700, 45.775 1486.500 C 43.519 1551.646, 44.690 1597.039, 48.863 1606.198 C 53.152 1615.614, 54.334 1620.332, 55.452 1632.485 C 55.704 1635.227, 56.380 1637.627, 56.955 1637.818 C 57.530 1638.010, 58 1638.767, 58 1639.500 C 58 1640.233, 58.563 1641.032, 59.250 1641.275 C 60.185 1641.605, 60.023 1642.627, 58.606 1645.333 C 57.239 1647.943, 57.007 1649.304, 57.771 1650.224 C 58.354 1650.926, 58.837 1651.725, 58.845 1652 C 58.853 1652.275, 59.402 1653.850, 60.066 1655.500 C 60.729 1657.150, 61.226 1661.875, 61.170 1666 C 61.100 1671.093, 61.373 1673.019, 62.018 1672 C 62.864 1670.667, 62.968 1670.667, 62.961 1672 C 62.956 1672.825, 62.548 1675.243, 62.054 1677.373 C 61.455 1679.952, 61.531 1682.124, 62.280 1683.873 C 63.824 1687.477, 63.995 1687.626, 64.912 1686.143 C 65.549 1685.112, 66.478 1685.253, 69.407 1686.822 C 71.649 1688.024, 72.588 1689.005, 71.799 1689.321 C 71.085 1689.608, 71.513 1689.878, 72.750 1689.921 C 73.987 1689.964, 75 1690.502, 75 1691.117 C 75 1691.769, 75.899 1691.998, 77.162 1691.668 C 78.351 1691.357, 80.179 1691.561, 81.226 1692.121 C 82.558 1692.834, 83.545 1692.793, 84.520 1691.983 C 85.286 1691.348, 86.487 1691.183, 87.190 1691.618 C 87.893 1692.052, 92.424 1692.301, 97.260 1692.172 C 102.095 1692.043, 107.727 1692.387, 109.776 1692.938 C 111.824 1693.489, 117.550 1693.988, 122.500 1694.047 C 127.450 1694.106, 133.300 1694.628, 135.500 1695.206 C 140.839 1696.609, 148.026 1696.305, 152.367 1694.491 C 154.607 1693.555, 156.747 1693.305, 158.202 1693.808 C 159.466 1694.245, 171.118 1694.579, 184.096 1694.551 C 202.501 1694.511, 208.054 1694.200, 209.337 1693.135 C 210.743 1691.968, 211.631 1692.077, 215.480 1693.885 C 221.411 1696.674, 221.932 1696.606, 226.820 1692.422 C 231.045 1688.806, 232.037 1686.537, 229.750 1685.720 C 229.063 1685.475, 228.795 1684.955, 229.155 1684.565 C 229.955 1683.700, 234.077 1687.066, 233.453 1688.075 C 233.209 1688.471, 234.602 1688.719, 236.550 1688.628 C 239.638 1688.482, 239.868 1688.623, 238.354 1689.731 C 237.399 1690.429, 237.128 1691, 237.752 1691 C 238.376 1691, 239.584 1690.004, 240.437 1688.786 C 241.807 1686.831, 241.814 1686.475, 240.494 1685.737 C 239.672 1685.277, 239 1684.418, 239 1683.828 C 239 1683.111, 239.468 1683.143, 240.411 1683.926 C 241.279 1684.647, 242.051 1684.727, 242.417 1684.134 C 242.745 1683.604, 242.447 1682.943, 241.756 1682.664 C 241.065 1682.386, 241.486 1682.122, 242.691 1682.079 C 243.896 1682.036, 245.178 1681.521, 245.540 1680.936 C 245.937 1680.294, 248.146 1680.082, 251.116 1680.403 C 253.821 1680.694, 258.025 1680.561, 260.457 1680.107 C 263.180 1679.598, 265.259 1679.659, 265.865 1680.265 C 266.407 1680.807, 268.796 1681.311, 271.175 1681.385 C 273.554 1681.460, 276.152 1681.935, 276.948 1682.442 C 278.242 1683.265, 284.255 1683.318, 298 1682.629 C 300.475 1682.505, 303.258 1682.763, 304.185 1683.202 C 305.142 1683.656, 307.084 1683.481, 308.685 1682.797 C 310.233 1682.135, 314.875 1681.474, 319 1681.329 C 331.900 1680.875, 333.720 1680.305, 334.433 1676.503 C 334.774 1674.688, 335.859 1672.145, 336.844 1670.851 C 340.933 1665.483, 342.718 1654.923, 341.028 1646.096 C 340.105 1641.273, 340.193 1640.553, 341.852 1639.391 C 343.563 1638.193, 343.685 1636.733, 343.384 1620.995 C 343.204 1611.594, 342.736 1603.381, 342.343 1602.746 C 340.290 1599.423, 340.156 1591.313, 341.830 1571.500 C 342.526 1563.250, 343.318 1539.836, 343.590 1519.468 L 344.083 1482.437 341.656 1476.949 C 339.301 1471.623, 339.242 1470.890, 339.655 1452.070 C 339.889 1441.405, 340.499 1431.963, 341.010 1431.089 C 341.994 1429.405, 342.307 1432.171, 342.073 1440.500 C 341.899 1446.708, 343.603 1448.087, 344.339 1442.333 C 344.967 1437.414, 344.441 1348.977, 343.751 1343.500 C 343.543 1341.850, 343.236 1335.100, 343.068 1328.500 C 342.735 1315.369, 341.328 1316.590, 341.118 1330.191 C 341.053 1334.421, 340.563 1338.152, 340.029 1338.482 C 339.044 1339.091, 337.906 1335.737, 338.170 1333 C 338.590 1328.651, 337.846 1326.237, 335.806 1325.326 C 333.826 1324.443, 333.629 1323.676, 333.793 1317.487 C 333.981 1310.360, 335.283 1307.167, 336.473 1310.914 C 337.592 1314.441, 339.250 1312.130, 338.467 1308.135 C 338.074 1306.136, 337.663 1301.575, 337.553 1298 C 337.191 1286.221, 337.023 1284.868, 336 1285.500 C 335.450 1285.840, 334.927 1287.779, 334.837 1289.809 C 334.709 1292.713, 334.544 1292.327, 334.064 1288 C 333.728 1284.975, 333.888 1281.600, 334.418 1280.500 C 334.968 1279.362, 335.307 1268.806, 335.207 1256 C 335.111 1243.625, 335.295 1232.216, 335.618 1230.647 L 336.204 1227.794 339.852 1231.295 C 341.858 1233.221, 344.962 1235.103, 346.750 1235.478 C 350.288 1236.219, 350.551 1235.898, 348.916 1232.842 C 348.319 1231.728, 350.119 1232.975, 352.916 1235.615 C 355.712 1238.254, 358 1241.220, 358 1242.207 C 358 1243.193, 358.418 1244, 358.929 1244 C 359.439 1244, 360.634 1244.777, 361.584 1245.727 C 363.221 1247.363, 363.192 1247.483, 361.034 1247.992 C 358.865 1248.504, 358.988 1248.788, 363.628 1253.969 C 370.501 1261.643, 383.043 1274.040, 386.928 1277 C 388.733 1278.375, 390.725 1279.977, 391.355 1280.560 C 391.985 1281.142, 395.650 1284.254, 399.500 1287.475 C 403.350 1290.696, 409.030 1295.620, 412.121 1298.416 C 415.213 1301.212, 419.296 1304.625, 421.194 1306 C 424.577 1308.450, 428.098 1311.407, 444.413 1325.500 C 448.871 1329.350, 455.438 1334.966, 459.009 1337.981 C 462.579 1340.995, 466.161 1344.370, 466.968 1345.481 C 468.431 1347.493, 504.509 1383.478, 524.158 1402.524 C 537.114 1415.081, 552.791 1428.840, 555.750 1430.249 C 556.987 1430.839, 558 1431.637, 558 1432.023 C 558 1432.725, 568.852 1441.002, 574.483 1444.596 C 576.124 1445.643, 578.149 1447.095, 578.983 1447.823 C 579.818 1448.551, 584.811 1451.926, 590.080 1455.323 C 602.023 1463.024, 613.490 1470.765, 630.744 1482.772 C 631.710 1483.444, 636.775 1486.963, 642 1490.591 C 647.225 1494.219, 651.950 1497.725, 652.500 1498.381 C 653.050 1499.037, 655.075 1500.665, 657 1501.999 C 658.925 1503.332, 664.946 1508.041, 670.380 1512.462 C 675.815 1516.883, 683.015 1522.658, 686.380 1525.295 C 689.746 1527.932, 693.850 1531.171, 695.500 1532.493 C 707.214 1541.881, 713.204 1546.425, 722.538 1553 C 735.560 1562.174, 759.769 1580.164, 762.500 1582.696 C 766.466 1586.374, 776.872 1594, 777.924 1594 C 778.516 1594, 778.887 1594.434, 778.750 1594.965 C 778.492 1595.961, 792.642 1607, 794.178 1607 C 794.654 1607, 796.721 1608.098, 798.771 1609.439 C 800.822 1610.781, 803.846 1612.207, 805.490 1612.608 C 807.135 1613.009, 809.095 1613.952, 809.845 1614.703 C 810.627 1615.484, 812.128 1615.812, 813.355 1615.468 C 814.948 1615.023, 815.135 1615.121, 814.082 1615.847 C 812.946 1616.631, 813.294 1617.208, 815.829 1618.750 C 817.569 1619.808, 818.694 1620.972, 818.330 1621.337 C 817.965 1621.702, 818.417 1622, 819.333 1622 C 820.250 1622, 821 1622.438, 821 1622.974 C 821 1624.826, 826.353 1626.852, 828.167 1625.686 C 829.513 1624.821, 830.861 1625.484, 835.167 1629.126 C 840.762 1633.858, 851.168 1641, 852.468 1641 C 852.886 1641, 854.783 1642.774, 856.684 1644.942 C 858.823 1647.382, 860.699 1648.669, 861.610 1648.319 C 862.420 1648.009, 862.951 1648.160, 862.791 1648.655 C 862.476 1649.631, 870.239 1656.803, 879.399 1664 C 882.549 1666.475, 886.786 1669.876, 888.813 1671.558 C 890.841 1673.240, 895.425 1676.588, 899 1678.999 C 902.575 1681.409, 907.347 1684.633, 909.605 1686.164 C 911.863 1687.694, 914.281 1689.633, 914.978 1690.473 C 915.675 1691.313, 916.662 1692, 917.171 1692 C 917.680 1692, 920.807 1693.800, 924.119 1696 C 927.431 1698.200, 930.329 1700, 930.559 1700 C 930.998 1700, 934.294 1702.618, 936.540 1704.750 C 937.265 1705.438, 938.284 1706, 938.806 1706 C 939.328 1706, 940.293 1706.648, 940.951 1707.441 C 941.608 1708.233, 942.901 1708.611, 943.823 1708.281 C 944.745 1707.951, 945.166 1708.049, 944.759 1708.499 C 943.583 1709.795, 946.015 1712, 948.622 1712 C 950.412 1712, 951.008 1711.444, 951.032 1709.750 C 951.061 1707.666, 951.162 1707.629, 952.392 1709.250 C 953.123 1710.212, 954.485 1711, 955.419 1711 C 956.354 1711, 956.882 1711.382, 956.593 1711.849 C 956.305 1712.316, 957.427 1712.736, 959.086 1712.783 C 960.746 1712.831, 963.476 1713.738, 965.154 1714.801 L 968.204 1716.732 965.602 1717.385 C 962.782 1718.093, 962.022 1720, 964.559 1720 C 965.495 1720, 965.829 1720.468, 965.395 1721.170 C 964.909 1721.957, 965.217 1722.131, 966.336 1721.701 C 967.251 1721.350, 968 1721.499, 968 1722.031 C 968 1722.564, 969.125 1723, 970.500 1723 C 971.875 1723, 972.909 1722.662, 972.798 1722.250 C 972.189 1719.995, 974.432 1713.271, 976.269 1711.844 C 978.080 1710.438, 978.202 1709.948, 977.078 1708.594 C 976.351 1707.717, 975.248 1706.997, 974.628 1706.993 C 974.007 1706.990, 972.150 1706.093, 970.500 1705 L 967.500 1703.013 971.809 1703.007 C 974.428 1703.003, 975.876 1703.392, 975.500 1704 C 975.160 1704.550, 975.359 1705, 975.941 1705 C 976.523 1705, 977 1704.745, 977 1704.434 C 977 1703.237, 974.605 1699.449, 973.185 1698.403 C 972.051 1697.566, 971.988 1697.125, 972.923 1696.548 C 973.646 1696.101, 975.164 1696.745, 976.627 1698.119 C 978.627 1699.998, 979.270 1700.181, 979.960 1699.064 C 980.430 1698.304, 980.562 1697.022, 980.253 1696.217 C 979.944 1695.411, 980.405 1694.353, 981.278 1693.864 C 982.151 1693.376, 983.577 1691.549, 984.447 1689.806 C 985.699 1687.297, 985.765 1686.468, 984.764 1685.833 C 983.755 1685.193, 983.762 1685.028, 984.798 1685.015 C 986.622 1684.994, 991.036 1679.760, 990.504 1678.250 C 990.261 1677.563, 990.750 1677, 991.590 1677 C 992.431 1677, 992.840 1676.550, 992.500 1676 C 992.160 1675.450, 990.469 1675, 988.741 1675 C 986.278 1675, 985.862 1674.738, 986.814 1673.786 C 987.735 1672.865, 988.743 1672.842, 990.995 1673.692 C 993.857 1674.772, 993.952 1674.716, 993.667 1672.111 C 993.504 1670.625, 993.018 1668.837, 992.585 1668.138 C 991.189 1665.879, 992.621 1665.914, 995.540 1668.210 C 997.755 1669.952, 998.244 1670.078, 997.744 1668.776 C 997.079 1667.041, 999.467 1665.652, 1002.146 1666.215 C 1002.987 1666.392, 1003.377 1665.785, 1003.175 1664.614 C 1002.939 1663.247, 1003.283 1662.895, 1004.425 1663.333 C 1006.424 1664.100, 1006.471 1662.636, 1004.500 1661 C 1002.212 1659.101, 1002.709 1657.889, 1005.491 1658.587 C 1007.264 1659.032, 1008.159 1658.749, 1008.598 1657.606 C 1008.937 1656.723, 1009.841 1656, 1010.607 1656 C 1012.226 1656, 1012.466 1654.406, 1010.984 1653.490 C 1009.211 1652.395, 1010.853 1651.249, 1013.476 1651.751 C 1014.956 1652.034, 1016 1651.771, 1016 1651.117 C 1016 1650.502, 1015.625 1650, 1015.167 1650 C 1014.708 1650, 1014.333 1649.325, 1014.333 1648.500 C 1014.333 1646.578, 1015.413 1646.587, 1017.020 1648.524 C 1017.716 1649.362, 1018.491 1649.842, 1018.743 1649.590 C 1018.995 1649.338, 1018.256 1648.118, 1017.101 1646.878 C 1015.945 1645.637, 1015 1644.258, 1015 1643.811 C 1015 1642.126, 1020.492 1642.621, 1023.473 1644.574 C 1025.416 1645.847, 1025.588 1645.777, 1025.540 1643.731 C 1025.510 1642.504, 1025.146 1640.970, 1024.729 1640.322 C 1024.262 1639.596, 1024.744 1638.899, 1025.985 1638.505 C 1027.093 1638.153, 1028 1637.446, 1028 1636.933 C 1028 1636.420, 1028.633 1636, 1029.406 1636 C 1030.355 1636, 1030.629 1635.297, 1030.248 1633.842 C 1029.775 1632.031, 1030.025 1631.773, 1031.804 1632.239 C 1033.447 1632.668, 1034.376 1632.028, 1035.929 1629.397 C 1037.413 1626.880, 1037.584 1626, 1036.589 1626 C 1035.850 1626, 1034.685 1625.325, 1034 1624.500 C 1033.140 1623.464, 1033.102 1623, 1033.878 1623 C 1034.495 1623, 1035 1623.450, 1035 1624 C 1035 1624.550, 1035.480 1625, 1036.067 1625 C 1036.718 1625, 1036.857 1624.125, 1036.423 1622.758 C 1035.814 1620.838, 1035.929 1620.696, 1037.225 1621.772 C 1038.978 1623.227, 1041.030 1622.989, 1046.250 1620.727 C 1050.185 1619.022, 1051.226 1617.047, 1048.250 1616.933 C 1047.287 1616.896, 1048.374 1616.280, 1050.665 1615.564 C 1054.930 1614.230, 1059.073 1610.857, 1060.267 1607.747 C 1060.635 1606.786, 1061.417 1606, 1062.003 1606 C 1063.262 1606, 1068.255 1601.444, 1083.372 1586.500 C 1089.493 1580.450, 1096.985 1573.250, 1100.021 1570.500 C 1110.527 1560.986, 1118.870 1549.388, 1119.709 1543.131 C 1120.365 1538.242, 1118.043 1531.792, 1114.082 1527.500 C 1112.559 1525.850, 1109.879 1522.319, 1108.125 1519.653 C 1104.517 1514.167, 1093.344 1503.351, 1081.512 1493.888 C 1077.119 1490.375, 1068.344 1482.494, 1062.012 1476.376 C 1045.773 1460.683, 1041.423 1456.921, 1040.493 1457.764 C 1040.045 1458.169, 1039.982 1457.971, 1040.353 1457.324 C 1040.755 1456.622, 1039.372 1455.010, 1036.923 1453.324 C 1034.667 1451.771, 1030.899 1448.925, 1028.550 1447 C 1023.210 1442.623, 1010.542 1433.445, 997.500 1424.503 C 992 1420.732, 985.083 1415.814, 982.130 1413.573 C 979.176 1411.333, 975.997 1409.050, 975.065 1408.500 C 974.133 1407.950, 970.700 1405.582, 967.436 1403.238 C 964.171 1400.894, 959.606 1397.739, 957.292 1396.228 C 954.977 1394.717, 950.702 1391.571, 947.792 1389.236 C 944.881 1386.902, 938.631 1381.956, 933.901 1378.246 C 929.172 1374.536, 920.397 1366.931, 914.401 1361.346 C 898.637 1346.663, 866.045 1319.981, 851.115 1309.537 C 839.937 1301.718, 816.887 1282.843, 804 1270.955 C 801.525 1268.672, 791.850 1260.370, 782.500 1252.506 C 773.150 1244.642, 761.900 1235.175, 757.500 1231.468 C 753.100 1227.761, 743.875 1219.273, 737 1212.606 C 721.591 1197.664, 692.763 1174, 689.969 1174 C 689.657 1174, 689.409 1175.684, 689.417 1177.743 C 689.437 1182.892, 687.113 1183.075, 682.188 1178.311 C 680.021 1176.215, 675.942 1172.382, 673.124 1169.793 C 670.306 1167.204, 668 1164.557, 668 1163.910 C 668 1163.264, 666.987 1161.829, 665.750 1160.722 L 663.500 1158.710 666 1159.448 C 667.375 1159.854, 669.625 1160.312, 671 1160.464 C 672.375 1160.617, 673.822 1160.800, 674.215 1160.871 C 674.609 1160.942, 676.409 1162.284, 678.215 1163.853 C 683.449 1168.400, 687.260 1169.928, 682.500 1165.572 C 680.300 1163.558, 677.584 1161.031, 676.465 1159.955 C 675.345 1158.880, 673.988 1158, 673.449 1158 C 672.909 1158, 668.953 1154.359, 664.658 1149.909 C 660.363 1145.459, 656.650 1142.017, 656.407 1142.260 C 656.164 1142.503, 654.060 1140.856, 651.732 1138.601 C 649.405 1136.345, 645.753 1133.150, 643.618 1131.500 C 641.483 1129.850, 638.333 1127.328, 636.618 1125.897 C 633.680 1123.444, 629.708 1121, 628.659 1121 C 628.400 1121, 628.423 1121.900, 628.710 1123 C 629.074 1124.391, 628.741 1125, 627.617 1125 C 625.262 1125, 625.636 1126.568, 628.534 1128.848 C 630.049 1130.040, 630.645 1131.102, 630.016 1131.490 C 627.937 1132.775, 608.514 1115.297, 607.847 1111.543 C 607.525 1109.726, 606.482 1108.267, 602.279 1103.750 C 600.039 1101.343, 602.162 1101.538, 605 1104 C 606.268 1105.100, 607.575 1106.037, 607.903 1106.083 C 608.231 1106.129, 609.445 1106.274, 610.601 1106.405 C 611.756 1106.536, 613.753 1107.624, 615.039 1108.822 C 616.325 1110.020, 617.759 1111, 618.225 1111 C 618.692 1111, 616.019 1108.198, 612.287 1104.772 C 608.554 1101.347, 598.525 1091.730, 590 1083.401 C 581.475 1075.072, 572.025 1066.062, 569 1063.379 C 565.975 1060.695, 563.275 1058.227, 563 1057.893 C 562.725 1057.559, 557.687 1053.672, 551.805 1049.255 C 545.923 1044.838, 539.173 1039.655, 536.805 1037.737 C 530.787 1032.862, 527.044 1031.156, 522.797 1031.356 C 520.785 1031.451, 519.298 1031.369, 519.492 1031.174 C 519.687 1030.980, 518.520 1029.433, 516.898 1027.736 C 513.942 1024.642, 512.353 1020.857, 513.340 1019.259 C 513.630 1018.789, 513.525 1017.849, 513.105 1017.170 C 510.972 1013.719, 473.752 976.199, 462 965.653 C 454.575 958.990, 448.275 953.277, 448 952.957 C 446.764 951.518, 426.723 935.339, 422.250 932.168 C 420.462 930.901, 419 929.438, 419 928.918 C 419 927.347, 429.377 918.041, 431.152 918.020 C 432.060 918.009, 433.635 916.687, 434.652 915.081 C 436.874 911.572, 464.446 881.652, 478.736 867.242 C 484.366 861.565, 489.439 856.048, 490.010 854.981 C 491.411 852.364, 500.207 842.873, 500.738 843.405 C 500.971 843.638, 500.665 844.757, 500.058 845.892 C 499.160 847.569, 499.224 847.851, 500.400 847.400 C 501.796 846.864, 503.204 844.568, 503.403 842.500 C 503.733 839.092, 533.355 809, 536.380 809 C 537.203 809, 539.355 807.650, 541.161 806 C 542.968 804.350, 544.834 803, 545.309 803 C 545.784 803, 548.571 800.463, 551.504 797.362 C 555.284 793.364, 557.321 791.909, 558.503 792.363 C 559.672 792.811, 562.148 791.135, 566.789 786.751 C 582.141 772.253, 590.050 762.399, 596.009 750.349 C 597.682 746.966, 600.502 743.080, 602.275 741.712 C 604.049 740.345, 608.650 736.256, 612.500 732.627 C 621.026 724.589, 620.071 725.552, 625.517 719.500 C 628.864 715.780, 630.233 714.839, 630.864 715.826 C 631.493 716.810, 632.944 715.778, 636.485 711.826 C 639.110 708.897, 640.955 707.375, 640.586 708.444 C 639.928 710.347, 639.958 710.348, 641.981 708.518 C 643.556 707.092, 643.744 706.455, 642.774 705.839 C 641.506 705.034, 643.372 704.562, 647 704.769 C 647.825 704.816, 649.389 703.649, 650.476 702.177 L 652.452 699.500 649.726 701.273 C 648.227 702.248, 647 702.602, 647 702.058 C 647 700.781, 650.339 699, 652.735 699 C 653.761 699, 657.159 696.720, 660.286 693.932 C 663.634 690.949, 666.453 689.162, 667.141 689.587 C 667.869 690.037, 668.041 689.875, 667.595 689.155 C 667.177 688.477, 667.503 688, 668.384 688 C 669.211 688, 670.670 686.674, 671.627 685.054 C 672.584 683.434, 673.734 682.336, 674.183 682.613 C 674.936 683.078, 675.415 681.582, 675.109 679.722 C 675.039 679.294, 675.661 678.684, 676.491 678.365 C 677.321 678.047, 678.006 677.272, 678.013 676.643 C 678.020 676.014, 680.500 673.329, 683.526 670.676 C 686.563 668.012, 688.727 665.368, 688.359 664.771 C 687.965 664.134, 688.158 663.979, 688.830 664.395 C 689.879 665.043, 694.298 661.257, 698 656.538 C 699.367 654.795, 699.341 654.685, 697.698 655.301 C 696.616 655.707, 696.140 655.582, 696.507 654.989 C 696.843 654.445, 698.003 654, 699.084 654 C 700.239 654, 701.426 653.010, 701.963 651.597 C 702.466 650.276, 703.424 648.856, 704.093 648.443 C 704.868 647.963, 705.050 648.109, 704.595 648.845 C 704.203 649.480, 704.089 650, 704.342 650 C 704.595 650, 705.732 648.425, 706.867 646.500 C 708.003 644.575, 709.568 643, 710.344 643 C 711.120 643, 712.373 642.239, 713.128 641.308 C 714.309 639.851, 714.292 639.724, 713 640.393 C 712.175 640.821, 712.984 639.769, 714.798 638.056 C 716.612 636.343, 718.501 635.192, 718.996 635.497 C 720.536 636.449, 732.296 624.213, 731.595 622.388 C 731.160 621.254, 731.409 620.943, 732.438 621.338 C 733.357 621.691, 733.715 621.421, 733.404 620.609 C 733.132 619.900, 733.604 618.743, 734.454 618.038 C 735.305 617.332, 736 615.659, 736 614.319 C 736 612.978, 736.352 612.100, 736.782 612.366 C 737.506 612.813, 739.029 610.818, 743.361 603.750 C 744.288 602.237, 745.936 601, 747.023 601 C 748.110 601, 749 600.550, 749 600 C 749 599.450, 749.723 599, 750.607 599 C 751.648 599, 752.004 599.546, 751.618 600.552 C 751.277 601.442, 751.445 601.843, 752.011 601.493 C 753.414 600.626, 753.238 602.329, 751.750 604.023 C 751.063 604.806, 751.502 604.611, 752.726 603.590 C 753.951 602.568, 754.757 601.416, 754.518 601.029 C 753.909 600.044, 756.879 596, 758.212 596 C 758.816 596, 758.493 596.903, 757.494 598.006 C 756.496 599.110, 755.870 600.203, 756.103 600.436 C 756.635 600.968, 775.360 585.273, 783.922 577.117 C 787.455 573.753, 790.711 571, 791.158 571 C 791.606 571, 793.163 569.200, 794.619 567 C 796.075 564.800, 797.768 563, 798.382 563 C 798.996 563, 800.849 561.648, 802.499 559.995 C 811.430 551.054, 818.293 545, 819.501 545 C 820.251 545, 821.150 544.104, 821.497 543.009 C 822.137 540.993, 833.205 529.845, 835.317 529.089 C 835.949 528.863, 837.369 527.513, 838.473 526.089 C 839.577 524.665, 841.417 522.600, 842.561 521.500 C 843.706 520.400, 846.860 517.362, 849.571 514.749 C 852.282 512.137, 854.950 509.577, 855.500 509.061 C 857.915 506.797, 863.856 501.795, 868 498.536 C 870.475 496.590, 872.950 494.508, 873.500 493.910 C 876.315 490.850, 879.826 487.316, 881.558 485.800 C 882.626 484.865, 884.083 483.515, 884.796 482.800 C 886.678 480.913, 904.411 463.751, 913.606 454.918 C 917.948 450.747, 930.459 438.168, 941.408 426.964 C 952.358 415.760, 963.833 404.556, 966.908 402.066 C 969.984 399.576, 977.900 392.321, 984.500 385.944 C 1006.053 365.119, 1024.267 348.685, 1033.804 341.456 C 1035.287 340.332, 1040.367 335.607, 1045.093 330.956 C 1049.819 326.305, 1055.263 321.150, 1057.190 319.500 C 1075.104 304.162, 1106.992 272.551, 1111.663 265.500 C 1113.120 263.300, 1115.053 260.375, 1115.959 259 C 1119.189 254.092, 1121.913 246.385, 1121.286 243.926 C 1120.284 239.994, 1116.485 234.597, 1113.652 233.081 C 1110.636 231.467, 1106.525 223.764, 1107.319 221.213 C 1107.612 220.271, 1109.010 216.194, 1110.426 212.154 C 1113.566 203.192, 1113.662 198.950, 1110.836 193.922 C 1108.567 189.884, 1104.545 187.385, 1099.500 186.877 C 1096.033 186.529, 1093.780 185.165, 1094.567 183.891 C 1094.867 183.406, 1093.962 182.484, 1092.556 181.844 C 1091.150 181.203, 1090 179.949, 1090 179.056 C 1090 177.416, 1084.914 168.741, 1081.080 163.842 C 1079.936 162.380, 1079 160.674, 1079 160.050 C 1079 159.427, 1078.160 158.014, 1077.133 156.912 C 1076.105 155.809, 1074.418 153.241, 1073.383 151.204 C 1072.347 149.167, 1070.559 146.150, 1069.410 144.500 C 1068.260 142.850, 1066.393 139.475, 1065.261 137 C 1064.128 134.525, 1061.992 131.375, 1060.513 130 C 1059.035 128.625, 1057.252 126.150, 1056.550 124.500 C 1054.947 120.729, 1046.143 109, 1044.915 109 C 1044.412 109, 1043.213 108.158, 1042.250 107.129 C 1041.287 106.100, 1037.350 101.893, 1033.500 97.781 C 1020.934 84.360, 1017 79.865, 1017 78.928 C 1017 78.421, 1015.489 76.317, 1013.643 74.253 C 1011.797 72.189, 1009.519 68.163, 1008.581 65.307 C 1007.644 62.450, 1006.005 59.004, 1004.938 57.649 C 1003.872 56.293, 1003 54.694, 1003 54.095 C 1003 52.439, 995.958 45, 994.390 45 C 993.633 45, 990.202 42.232, 986.765 38.848 C 980.904 33.077, 975.737 29.850, 972.782 30.115 C 972.077 30.178, 969.851 30.551, 967.836 30.944 M 96.195 56.500 C 96.215 58.150, 96.439 58.704, 96.693 57.731 C 96.947 56.758, 96.930 55.408, 96.656 54.731 C 96.382 54.054, 96.175 54.850, 96.195 56.500 M 88.750 56.572 C 88.338 56.991, 88 59.148, 88 61.367 C 88 64.227, 88.311 65.089, 89.068 64.332 C 89.656 63.744, 89.993 61.587, 89.818 59.537 C 89.643 57.487, 89.162 56.153, 88.750 56.572 M 135 59 C 135 60.100, 135.408 61, 135.906 61 C 136.405 61, 136.577 60.100, 136.290 59 C 136.002 57.900, 135.594 57, 135.383 57 C 135.173 57, 135 57.900, 135 59 M 130.970 60.055 C 130.365 61.186, 130.018 62.555, 130.200 63.099 C 130.381 63.642, 131.046 62.717, 131.678 61.043 C 132.991 57.562, 132.598 57.013, 130.970 60.055 M 74.079 60.583 C 74.127 61.748, 74.364 61.985, 74.683 61.188 C 74.972 60.466, 74.936 59.603, 74.604 59.271 C 74.272 58.939, 74.036 59.529, 74.079 60.583 M 113.459 60.067 C 112.433 61.727, 113.354 61.957, 114.789 60.399 C 115.499 59.630, 115.638 59, 115.098 59 C 114.559 59, 113.821 59.480, 113.459 60.067 M 108.535 68.155 C 108.163 69.065, 108.018 71.315, 108.212 73.155 L 108.566 76.500 109.939 73.759 C 110.956 71.729, 111.040 70.430, 110.262 68.759 C 109.361 66.822, 109.115 66.736, 108.535 68.155 M 149 67.393 C 149 67.609, 149.675 68.045, 150.500 68.362 C 151.325 68.678, 152 68.501, 152 67.969 C 152 67.436, 151.325 67, 150.500 67 C 149.675 67, 149 67.177, 149 67.393 M 220.250 68.662 C 218.820 69.239, 218.551 71, 219.893 71 C 220.384 71, 221.045 70.325, 221.362 69.500 C 221.678 68.675, 221.839 68.036, 221.719 68.079 C 221.598 68.122, 220.938 68.385, 220.250 68.662 M 228.459 69.067 C 228.096 69.653, 228.014 70.348, 228.276 70.610 C 228.538 70.872, 229.019 70.392, 229.345 69.543 C 230.021 67.781, 229.445 67.471, 228.459 69.067 M 232.500 72 C 232.160 72.550, 232.359 73, 232.941 73 C 233.523 73, 234 72.550, 234 72 C 234 71.450, 233.802 71, 233.559 71 C 233.316 71, 232.840 71.450, 232.500 72 M 270.079 72.583 C 270.127 73.748, 270.364 73.985, 270.683 73.188 C 270.972 72.466, 270.936 71.603, 270.604 71.271 C 270.272 70.939, 270.036 71.529, 270.079 72.583 M 73 77.333 C 73 80.450, 73.429 83, 73.953 83 C 74.511 83, 74.660 80.825, 74.313 77.750 C 73.511 70.649, 73 70.487, 73 77.333 M 61.079 74.583 C 61.127 75.748, 61.364 75.985, 61.683 75.188 C 61.972 74.466, 61.936 73.603, 61.604 73.271 C 61.272 72.939, 61.036 73.529, 61.079 74.583 M 238.158 76 C 238.158 77.375, 238.385 77.938, 238.662 77.250 C 238.940 76.563, 238.940 75.438, 238.662 74.750 C 238.385 74.063, 238.158 74.625, 238.158 76 M 151.079 76.583 C 151.127 77.748, 151.364 77.985, 151.683 77.188 C 151.972 76.466, 151.936 75.603, 151.604 75.271 C 151.272 74.939, 151.036 75.529, 151.079 76.583 M 105.571 79.571 C 105.204 81.037, 105.128 82.461, 105.403 82.736 C 105.678 83.011, 106.204 82.037, 106.571 80.571 C 106.939 79.106, 107.015 77.682, 106.740 77.407 C 106.465 77.132, 105.939 78.106, 105.571 79.571 M 123.079 80.583 C 123.127 81.748, 123.364 81.985, 123.683 81.188 C 123.972 80.466, 123.936 79.603, 123.604 79.271 C 123.272 78.939, 123.036 79.529, 123.079 80.583 M 109 88.559 C 109 89.416, 109.457 89.835, 110.016 89.490 C 110.575 89.144, 110.774 88.443, 110.457 87.931 C 109.600 86.544, 109 86.802, 109 88.559 M 299.079 92.583 C 299.127 93.748, 299.364 93.985, 299.683 93.188 C 299.972 92.466, 299.936 91.603, 299.604 91.271 C 299.272 90.939, 299.036 91.529, 299.079 92.583 M 62.079 97.679 C 62.122 99.780, 62.415 100.825, 62.729 100 C 63.043 99.175, 63.755 98.203, 64.312 97.841 C 64.940 97.432, 64.693 96.550, 63.662 95.519 C 62.113 93.970, 62.005 94.116, 62.079 97.679 M 53 98 C 53 99.100, 53.173 100, 53.383 100 C 53.594 100, 54.002 99.100, 54.290 98 C 54.577 96.900, 54.405 96, 53.906 96 C 53.408 96, 53 96.900, 53 98 M 264.079 103.583 C 264.127 104.748, 264.364 104.985, 264.683 104.188 C 264.972 103.466, 264.936 102.603, 264.604 102.271 C 264.272 101.939, 264.036 102.529, 264.079 103.583 M 61.500 104 C 61.840 104.550, 62.568 105, 63.118 105 C 63.668 105, 63.840 104.550, 63.500 104 C 63.160 103.450, 62.432 103, 61.882 103 C 61.332 103, 61.160 103.450, 61.500 104 M 63 111.059 C 63 112.191, 63.430 112.852, 63.956 112.527 C 64.482 112.202, 64.659 111.275, 64.349 110.468 C 63.556 108.401, 63 108.644, 63 111.059 M 312.195 111.500 C 312.215 113.150, 312.439 113.704, 312.693 112.731 C 312.947 111.758, 312.930 110.408, 312.656 109.731 C 312.382 109.054, 312.175 109.850, 312.195 111.500 M 76.079 117.583 C 76.127 118.748, 76.364 118.985, 76.683 118.188 C 76.972 117.466, 76.936 116.603, 76.604 116.271 C 76.272 115.939, 76.036 116.529, 76.079 117.583 M 312.079 119.583 C 312.127 120.748, 312.364 120.985, 312.683 120.188 C 312.972 119.466, 312.936 118.603, 312.604 118.271 C 312.272 117.939, 312.036 118.529, 312.079 119.583 M 76.158 132 C 76.158 133.375, 76.385 133.938, 76.662 133.250 C 76.940 132.563, 76.940 131.438, 76.662 130.750 C 76.385 130.063, 76.158 130.625, 76.158 132 M 131.813 168.683 C 132.534 168.972, 133.397 168.936, 133.729 168.604 C 134.061 168.272, 133.471 168.036, 132.417 168.079 C 131.252 168.127, 131.015 168.364, 131.813 168.683 M 87.750 189.577 C 87.338 189.993, 87.014 191.496, 87.030 192.917 C 87.057 195.183, 87.188 195.281, 88.098 193.719 C 89.236 191.762, 88.951 188.365, 87.750 189.577 M 85.079 202.583 C 85.127 203.748, 85.364 203.985, 85.683 203.188 C 85.972 202.466, 85.936 201.603, 85.604 201.271 C 85.272 200.939, 85.036 201.529, 85.079 202.583 M 99.195 204.500 C 99.215 206.150, 99.439 206.704, 99.693 205.731 C 99.947 204.758, 99.930 203.408, 99.656 202.731 C 99.382 202.054, 99.175 202.850, 99.195 204.500 M 345.195 206.500 C 345.215 208.150, 345.439 208.704, 345.693 207.731 C 345.947 206.758, 345.930 205.408, 345.656 204.731 C 345.382 204.054, 345.175 204.850, 345.195 206.500 M 84.195 208.500 C 84.215 210.150, 84.439 210.704, 84.693 209.731 C 84.947 208.758, 84.930 207.408, 84.656 206.731 C 84.382 206.054, 84.175 206.850, 84.195 208.500 M 90.079 214.583 C 90.127 215.748, 90.364 215.985, 90.683 215.188 C 90.972 214.466, 90.936 213.603, 90.604 213.271 C 90.272 212.939, 90.036 213.529, 90.079 214.583 M 344.079 246.583 C 344.127 247.748, 344.364 247.985, 344.683 247.188 C 344.972 246.466, 344.936 245.603, 344.604 245.271 C 344.272 244.939, 344.036 245.529, 344.079 246.583 M 69.079 315.583 C 69.127 316.748, 69.364 316.985, 69.683 316.188 C 69.972 315.466, 69.936 314.603, 69.604 314.271 C 69.272 313.939, 69.036 314.529, 69.079 315.583 M 69 359.333 C 69 361.350, 69.439 363, 69.975 363 C 70.535 363, 70.687 361.617, 70.331 359.750 C 69.464 355.193, 69 355.048, 69 359.333 M 69 370 C 69 370.550, 69.450 371, 70 371 C 70.550 371, 71 370.550, 71 370 C 71 369.450, 70.550 369, 70 369 C 69.450 369, 69 369.450, 69 370 M 171.079 385.583 C 171.127 386.748, 171.364 386.985, 171.683 386.188 C 171.972 385.466, 171.936 384.603, 171.604 384.271 C 171.272 383.939, 171.036 384.529, 171.079 385.583 M 171.300 397 C 171.300 400.025, 171.487 401.262, 171.716 399.750 C 171.945 398.238, 171.945 395.762, 171.716 394.250 C 171.487 392.738, 171.300 393.975, 171.300 397 M 70.400 412.500 C 70.401 420.750, 70.556 423.992, 70.744 419.704 C 70.932 415.417, 70.931 408.667, 70.742 404.704 C 70.552 400.742, 70.399 404.250, 70.400 412.500 M 46.793 419.046 C 47.303 422.517, 48.135 422.273, 48.546 418.533 C 48.710 417.036, 48.317 416, 47.585 416 C 46.773 416, 46.501 417.050, 46.793 419.046 M 171.272 444 C 171.272 446.475, 171.467 447.488, 171.706 446.250 C 171.944 445.012, 171.944 442.988, 171.706 441.750 C 171.467 440.512, 171.272 441.525, 171.272 444 M 69.272 455 C 69.272 457.475, 69.467 458.488, 69.706 457.250 C 69.944 456.012, 69.944 453.988, 69.706 452.750 C 69.467 451.512, 69.272 452.525, 69.272 455 M 170.232 459 C 170.232 460.925, 170.438 461.712, 170.689 460.750 C 170.941 459.788, 170.941 458.212, 170.689 457.250 C 170.438 456.288, 170.232 457.075, 170.232 459 M 179.079 457.583 C 179.127 458.748, 179.364 458.985, 179.683 458.188 C 179.972 457.466, 179.936 456.603, 179.604 456.271 C 179.272 455.939, 179.036 456.529, 179.079 457.583 M 178.079 470.583 C 178.127 471.748, 178.364 471.985, 178.683 471.188 C 178.972 470.466, 178.936 469.603, 178.604 469.271 C 178.272 468.939, 178.036 469.529, 178.079 470.583 M 103.195 499.500 C 103.215 501.150, 103.439 501.704, 103.693 500.731 C 103.947 499.758, 103.930 498.408, 103.656 497.731 C 103.382 497.054, 103.175 497.850, 103.195 499.500 M 170.079 499.583 C 170.127 500.748, 170.364 500.985, 170.683 500.188 C 170.972 499.466, 170.936 498.603, 170.604 498.271 C 170.272 497.939, 170.036 498.529, 170.079 499.583 M 816 499.059 C 816 499.641, 816.450 499.840, 817 499.500 C 817.550 499.160, 818 498.684, 818 498.441 C 818 498.198, 817.550 498, 817 498 C 816.450 498, 816 498.477, 816 499.059 M 169 507.441 C 169 508.234, 169.450 509.160, 170 509.500 C 170.550 509.840, 171 509.191, 171 508.059 C 171 506.927, 170.550 506, 170 506 C 169.450 506, 169 506.648, 169 507.441 M 169.638 512.500 C 169.955 513.325, 170.391 514, 170.607 514 C 170.823 514, 171 513.325, 171 512.500 C 171 511.675, 170.564 511, 170.031 511 C 169.499 511, 169.322 511.675, 169.638 512.500 M 242.272 516 C 242.272 518.475, 242.467 519.487, 242.706 518.250 C 242.944 517.013, 242.944 514.987, 242.706 513.750 C 242.467 512.513, 242.272 513.525, 242.272 516 M 182.079 516.583 C 182.127 517.748, 182.364 517.985, 182.683 517.188 C 182.972 516.466, 182.936 515.603, 182.604 515.271 C 182.272 514.939, 182.036 515.529, 182.079 516.583 M 790.571 521.571 C 788.621 523.521, 788.574 524.101, 790.423 523.391 C 791.205 523.091, 792.091 522.205, 792.391 521.423 C 793.101 519.574, 792.521 519.621, 790.571 521.571 M 68.343 528.500 C 68.346 532.900, 68.522 534.576, 68.733 532.224 C 68.945 529.872, 68.942 526.272, 68.727 524.224 C 68.512 522.176, 68.339 524.100, 68.343 528.500 M 242.195 530.500 C 242.215 532.150, 242.439 532.704, 242.693 531.731 C 242.947 530.758, 242.930 529.408, 242.656 528.731 C 242.382 528.054, 242.175 528.850, 242.195 530.500 M 80.079 532.583 C 80.127 533.748, 80.364 533.985, 80.683 533.188 C 80.972 532.466, 80.936 531.603, 80.604 531.271 C 80.272 530.939, 80.036 531.529, 80.079 532.583 M 169.158 537 C 169.158 538.375, 169.385 538.938, 169.662 538.250 C 169.940 537.563, 169.940 536.438, 169.662 535.750 C 169.385 535.063, 169.158 535.625, 169.158 537 M 242.158 537 C 242.158 538.375, 242.385 538.938, 242.662 538.250 C 242.940 537.563, 242.940 536.438, 242.662 535.750 C 242.385 535.063, 242.158 535.625, 242.158 537 M 68.158 540 C 68.158 541.375, 68.385 541.938, 68.662 541.250 C 68.940 540.563, 68.940 539.438, 68.662 538.750 C 68.385 538.063, 68.158 538.625, 68.158 540 M 80.079 541.583 C 80.127 542.748, 80.364 542.985, 80.683 542.188 C 80.972 541.466, 80.936 540.603, 80.604 540.271 C 80.272 539.939, 80.036 540.529, 80.079 541.583 M 766.872 543.750 C 765.629 545.336, 765.664 545.371, 767.250 544.128 C 768.916 542.821, 769.445 542, 768.622 542 C 768.415 542, 767.627 542.788, 766.872 543.750 M 68.370 554 C 68.370 559.775, 68.535 562.138, 68.737 559.250 C 68.939 556.362, 68.939 551.638, 68.737 548.750 C 68.535 545.862, 68.370 548.225, 68.370 554 M 182.195 547.500 C 182.215 549.150, 182.439 549.704, 182.693 548.731 C 182.947 547.758, 182.930 546.408, 182.656 545.731 C 182.382 545.054, 182.175 545.850, 182.195 547.500 M 162.158 548 C 162.158 549.375, 162.385 549.938, 162.662 549.250 C 162.940 548.563, 162.940 547.438, 162.662 546.750 C 162.385 546.063, 162.158 546.625, 162.158 548 M 80.195 549.500 C 80.215 551.150, 80.439 551.704, 80.693 550.731 C 80.947 549.758, 80.930 548.408, 80.656 547.731 C 80.382 547.054, 80.175 547.850, 80.195 549.500 M 177.328 557.500 C 177.333 561.350, 177.513 562.802, 177.730 560.728 C 177.946 558.653, 177.943 555.503, 177.722 553.728 C 177.501 551.952, 177.324 553.650, 177.328 557.500 M 162.195 554.500 C 162.215 556.150, 162.439 556.704, 162.693 555.731 C 162.947 554.758, 162.930 553.408, 162.656 552.731 C 162.382 552.054, 162.175 552.850, 162.195 554.500 M 80.079 564.583 C 80.127 565.748, 80.364 565.985, 80.683 565.188 C 80.972 564.466, 80.936 563.603, 80.604 563.271 C 80.272 562.939, 80.036 563.529, 80.079 564.583 M 256.158 566 C 256.158 567.375, 256.385 567.938, 256.662 567.250 C 256.940 566.563, 256.940 565.438, 256.662 564.750 C 256.385 564.063, 256.158 564.625, 256.158 566 M 80.195 570.500 C 80.215 572.150, 80.439 572.704, 80.693 571.731 C 80.947 570.758, 80.930 569.408, 80.656 568.731 C 80.382 568.054, 80.175 568.850, 80.195 570.500 M 102.079 575.583 C 102.127 576.748, 102.364 576.985, 102.683 576.188 C 102.972 575.466, 102.936 574.603, 102.604 574.271 C 102.272 573.939, 102.036 574.529, 102.079 575.583 M 67.252 579.500 C 67.263 581.700, 67.468 582.482, 67.707 581.238 C 67.946 579.994, 67.937 578.194, 67.687 577.238 C 67.437 576.282, 67.241 577.300, 67.252 579.500 M 176.158 582 C 176.158 583.375, 176.385 583.938, 176.662 583.250 C 176.940 582.563, 176.940 581.438, 176.662 580.750 C 176.385 580.063, 176.158 580.625, 176.158 582 M 79.079 583.583 C 79.127 584.748, 79.364 584.985, 79.683 584.188 C 79.972 583.466, 79.936 582.603, 79.604 582.271 C 79.272 581.939, 79.036 582.529, 79.079 583.583 M 67.328 592.500 C 67.333 596.350, 67.513 597.802, 67.730 595.728 C 67.946 593.653, 67.943 590.503, 67.722 588.728 C 67.501 586.952, 67.324 588.650, 67.328 592.500 M 79.195 595.500 C 79.215 597.150, 79.439 597.704, 79.693 596.731 C 79.947 595.758, 79.930 594.408, 79.656 593.731 C 79.382 593.054, 79.175 593.850, 79.195 595.500 M 67.272 604 C 67.272 606.475, 67.467 607.487, 67.706 606.250 C 67.944 605.013, 67.944 602.987, 67.706 601.750 C 67.467 600.513, 67.272 601.525, 67.272 604 M 175.252 603.500 C 175.263 605.700, 175.468 606.482, 175.707 605.238 C 175.946 603.994, 175.937 602.194, 175.687 601.238 C 175.437 600.282, 175.241 601.300, 175.252 603.500 M 79.286 605.500 C 79.294 608.250, 79.488 609.256, 79.718 607.736 C 79.947 606.216, 79.941 603.966, 79.704 602.736 C 79.467 601.506, 79.279 602.750, 79.286 605.500 M 749 606.059 C 749 606.641, 748.480 606.797, 747.845 606.405 C 747.132 605.963, 746.962 606.130, 747.402 606.841 C 747.827 607.528, 747.083 608.461, 745.556 609.156 C 744.150 609.797, 743 610.705, 743 611.175 C 743 611.644, 744.793 610.842, 746.984 609.392 C 749.175 607.942, 750.723 606.361, 750.425 605.878 C 749.687 604.685, 749 604.772, 749 606.059 M 175.079 609.583 C 175.127 610.748, 175.364 610.985, 175.683 610.188 C 175.972 609.466, 175.936 608.603, 175.604 608.271 C 175.272 607.939, 175.036 608.529, 175.079 609.583 M 256.030 612.550 C 256.057 615.136, 256.193 615.272, 257.134 613.654 C 257.903 612.330, 257.895 611.495, 257.104 610.704 C 256.299 609.899, 256.008 610.399, 256.030 612.550 M 79.195 613.500 C 79.215 615.150, 79.439 615.704, 79.693 614.731 C 79.947 613.758, 79.930 612.408, 79.656 611.731 C 79.382 611.054, 79.175 611.850, 79.195 613.500 M 728.250 624.662 C 726.820 625.239, 726.551 627, 727.893 627 C 728.384 627, 729.045 626.325, 729.362 625.500 C 729.678 624.675, 729.839 624.036, 729.719 624.079 C 729.598 624.122, 728.938 624.385, 728.250 624.662 M 254.882 628.583 C 254.816 630.188, 254.854 631.950, 254.965 632.500 C 255.077 633.050, 255.189 635.873, 255.216 638.772 C 255.242 641.672, 255.662 644.291, 256.148 644.592 C 257.176 645.227, 256.726 627.393, 255.688 626.355 C 255.310 625.976, 254.947 626.979, 254.882 628.583 M 723.215 629.634 C 721.958 630.935, 721.326 632, 721.810 632 C 722.871 632, 726.493 628.138, 725.911 627.628 C 725.685 627.430, 724.472 628.333, 723.215 629.634 M 245.158 630 C 245.158 631.375, 245.385 631.938, 245.662 631.250 C 245.940 630.563, 245.940 629.438, 245.662 628.750 C 245.385 628.063, 245.158 628.625, 245.158 630 M 167.079 632.583 C 167.127 633.748, 167.364 633.985, 167.683 633.188 C 167.972 632.466, 167.936 631.603, 167.604 631.271 C 167.272 630.939, 167.036 631.529, 167.079 632.583 M 708.500 645 C 708.160 645.550, 708.359 646, 708.941 646 C 709.523 646, 710 645.550, 710 645 C 710 644.450, 709.802 644, 709.559 644 C 709.316 644, 708.840 644.450, 708.500 645 M 255.500 647 C 255.160 647.550, 255.359 648, 255.941 648 C 256.523 648, 257 647.550, 257 647 C 257 646.450, 256.802 646, 256.559 646 C 256.316 646, 255.840 646.450, 255.500 647 M 254.717 650.976 C 254.141 653.177, 255.660 654.751, 257.020 653.363 C 257.485 652.888, 257.276 651.702, 256.555 650.727 C 255.317 649.050, 255.217 649.064, 254.717 650.976 M 255.015 657.691 C 255.024 658.136, 255.467 659.175, 256 660 C 256.835 661.293, 256.971 661.266, 256.985 659.809 C 256.993 658.879, 256.550 657.840, 256 657.500 C 255.450 657.160, 255.007 657.246, 255.015 657.691 M 254 663.500 C 254 664.325, 254.436 665, 254.969 665 C 255.501 665, 255.678 664.325, 255.362 663.500 C 255.045 662.675, 254.609 662, 254.393 662 C 254.177 662, 254 662.675, 254 663.500 M 256.079 668.583 C 256.127 669.748, 256.364 669.985, 256.683 669.188 C 256.972 668.466, 256.936 667.603, 256.604 667.271 C 256.272 666.939, 256.036 667.529, 256.079 668.583 M 254.079 672.583 C 254.127 673.748, 254.364 673.985, 254.683 673.188 C 254.972 672.466, 254.936 671.603, 254.604 671.271 C 254.272 670.939, 254.036 671.529, 254.079 672.583 M 254 679 C 254 679.550, 254.477 680, 255.059 680 C 255.641 680, 255.840 679.550, 255.500 679 C 255.160 678.450, 254.684 678, 254.441 678 C 254.198 678, 254 678.450, 254 679 M 254 683 C 254 684.311, 254.485 684.751, 255.500 684.362 C 256.325 684.045, 257 683.432, 257 683 C 257 682.568, 256.325 681.955, 255.500 681.638 C 254.485 681.249, 254 681.689, 254 683 M 256 686 C 256 686.615, 255.550 686.840, 255 686.500 C 254.450 686.160, 254 686.359, 254 686.941 C 254 688.247, 256.668 688.346, 257.457 687.069 C 257.774 686.557, 257.575 685.856, 257.016 685.510 C 256.457 685.165, 256 685.385, 256 686 M 242.079 689.583 C 242.127 690.748, 242.364 690.985, 242.683 690.188 C 242.972 689.466, 242.936 688.603, 242.604 688.271 C 242.272 687.939, 242.036 688.529, 242.079 689.583 M 254 693.378 C 254 695.920, 254.450 698, 255 698 C 255.550 698, 256.031 697.663, 256.069 697.250 C 256.107 696.837, 256.298 695.290, 256.494 693.810 C 256.694 692.307, 256.222 690.599, 255.425 689.938 C 254.227 688.943, 254 689.490, 254 693.378 M 242.232 697 C 242.232 698.925, 242.438 699.712, 242.689 698.750 C 242.941 697.788, 242.941 696.212, 242.689 695.250 C 242.438 694.288, 242.232 695.075, 242.232 697 M 217.079 696.583 C 217.127 697.748, 217.364 697.985, 217.683 697.188 C 217.972 696.466, 217.936 695.603, 217.604 695.271 C 217.272 694.939, 217.036 695.529, 217.079 696.583 M 125 697.500 C 123.967 698.745, 124.083 699, 125.686 699 C 126.749 699, 128.491 698.339, 129.559 697.532 C 131.425 696.120, 131.399 696.062, 128.872 696.032 C 127.427 696.014, 125.685 696.675, 125 697.500 M 256.079 704.583 C 256.127 705.748, 256.364 705.985, 256.683 705.188 C 256.972 704.466, 256.936 703.603, 256.604 703.271 C 256.272 702.939, 256.036 703.529, 256.079 704.583 M 242 706 C 242 706.550, 242.477 707, 243.059 707 C 243.641 707, 243.840 706.550, 243.500 706 C 243.160 705.450, 242.684 705, 242.441 705 C 242.198 705, 242 705.450, 242 706 M 256 709.059 C 256 710.191, 256.450 710.840, 257 710.500 C 257.550 710.160, 258 709.234, 258 708.441 C 258 707.648, 257.550 707, 257 707 C 256.450 707, 256 707.927, 256 709.059 M 256.070 713.750 C 256.109 714.163, 256.527 715.400, 257 716.500 C 257.762 718.272, 257.867 718.187, 257.930 715.750 C 257.968 714.237, 257.550 713, 257 713 C 256.450 713, 256.032 713.337, 256.070 713.750 M 106.079 715.583 C 106.127 716.748, 106.364 716.985, 106.683 716.188 C 106.972 715.466, 106.936 714.603, 106.604 714.271 C 106.272 713.939, 106.036 714.529, 106.079 715.583 M 222.336 761 C 222.336 765.125, 222.513 766.813, 222.728 764.750 C 222.944 762.688, 222.944 759.313, 222.728 757.250 C 222.513 755.188, 222.336 756.875, 222.336 761 M 205.079 768.583 C 205.127 769.748, 205.364 769.985, 205.683 769.188 C 205.972 768.466, 205.936 767.603, 205.604 767.271 C 205.272 766.939, 205.036 767.529, 205.079 768.583 M 223.158 783 C 223.158 784.375, 223.385 784.938, 223.662 784.250 C 223.940 783.563, 223.940 782.438, 223.662 781.750 C 223.385 781.063, 223.158 781.625, 223.158 783 M 194.079 787.583 C 194.127 788.748, 194.364 788.985, 194.683 788.188 C 194.972 787.466, 194.936 786.603, 194.604 786.271 C 194.272 785.939, 194.036 786.529, 194.079 787.583 M 223.195 788.500 C 223.215 790.150, 223.439 790.704, 223.693 789.731 C 223.947 788.758, 223.930 787.408, 223.656 786.731 C 223.382 786.054, 223.175 786.850, 223.195 788.500 M 205.489 810.500 C 205.758 812.700, 205.983 817.388, 205.989 820.917 C 205.995 824.446, 206.297 827.036, 206.660 826.673 C 207.598 825.735, 207.054 812.718, 205.935 809.333 C 205.114 806.849, 205.059 806.992, 205.489 810.500 M 206.079 837.583 C 206.127 838.748, 206.364 838.985, 206.683 838.188 C 206.972 837.466, 206.936 836.603, 206.604 836.271 C 206.272 835.939, 206.036 836.529, 206.079 837.583 M 207.232 845 C 207.232 846.925, 207.438 847.712, 207.689 846.750 C 207.941 845.788, 207.941 844.212, 207.689 843.250 C 207.438 842.288, 207.232 843.075, 207.232 845 M 207.079 852.583 C 207.127 853.748, 207.364 853.985, 207.683 853.188 C 207.972 852.466, 207.936 851.603, 207.604 851.271 C 207.272 850.939, 207.036 851.529, 207.079 852.583 M 124.079 856.583 C 124.127 857.748, 124.364 857.985, 124.683 857.188 C 124.972 856.466, 124.936 855.603, 124.604 855.271 C 124.272 854.939, 124.036 855.529, 124.079 856.583 M 124.079 866.583 C 124.127 867.748, 124.364 867.985, 124.683 867.188 C 124.972 866.466, 124.936 865.603, 124.604 865.271 C 124.272 864.939, 124.036 865.529, 124.079 866.583 M 86.320 876 C 86.320 879.575, 86.502 881.038, 86.723 879.250 C 86.945 877.462, 86.945 874.538, 86.723 872.750 C 86.502 870.962, 86.320 872.425, 86.320 876 M 208.300 875 C 208.300 878.025, 208.487 879.263, 208.716 877.750 C 208.945 876.237, 208.945 873.763, 208.716 872.250 C 208.487 870.737, 208.300 871.975, 208.300 875 M 324 985.378 C 324 985.585, 324.788 986.373, 325.750 987.128 C 327.336 988.371, 327.371 988.336, 326.128 986.750 C 324.821 985.084, 324 984.555, 324 985.378 M 88.195 1011.500 C 88.215 1013.150, 88.439 1013.704, 88.693 1012.731 C 88.947 1011.758, 88.930 1010.408, 88.656 1009.731 C 88.382 1009.054, 88.175 1009.850, 88.195 1011.500 M 57.479 1069.023 C 57.880 1081.150, 57.865 1081, 58.750 1081 C 59.912 1081, 59.466 1063.655, 58.248 1061.478 C 57.427 1060.012, 57.242 1061.832, 57.479 1069.023 M 121 1080 C 121 1080.550, 121.477 1081, 122.059 1081 C 122.641 1081, 122.840 1080.550, 122.500 1080 C 122.160 1079.450, 121.684 1079, 121.441 1079 C 121.198 1079, 121 1079.450, 121 1080 M 100.086 1090.500 C 100.055 1091.600, 100.467 1093.175, 101 1094 C 101.862 1095.333, 101.963 1095.333, 101.914 1094 C 101.884 1093.175, 101.473 1091.600, 101 1090.500 L 100.141 1088.500 100.086 1090.500 M 598.084 1104.750 C 600.164 1107.488, 603.367 1109.953, 604.876 1109.978 C 605.632 1109.990, 604.532 1108.425, 602.430 1106.500 C 598.409 1102.817, 595.826 1101.777, 598.084 1104.750 M 54.015 1121.750 C 54.024 1122.749, 54.351 1123.071, 54.777 1122.500 C 55.187 1121.950, 55.931 1121.162, 56.428 1120.750 C 56.926 1120.338, 56.583 1120, 55.667 1120 C 54.740 1120, 54.007 1120.777, 54.015 1121.750 M 348.092 1194.750 C 349.574 1198.873, 353.803 1203.290, 355.606 1202.598 C 356.452 1202.273, 358.012 1202.471, 359.072 1203.039 C 360.219 1203.652, 361 1203.688, 361 1203.126 C 361 1202.253, 348.627 1192, 347.573 1192 C 347.315 1192, 347.549 1193.237, 348.092 1194.750 M 363.004 1211.500 C 364.377 1213.150, 365.613 1214.688, 365.750 1214.917 C 365.887 1215.146, 366.220 1215.113, 366.490 1214.844 C 366.759 1214.575, 365.523 1213.037, 363.743 1211.427 L 360.507 1208.500 363.004 1211.500 M 56.042 1213.500 C 55.935 1214.600, 55.607 1216.400, 55.314 1217.500 C 54.437 1220.787, 54.151 1245.025, 54.995 1244.503 C 55.424 1244.238, 55.712 1244.756, 55.637 1245.653 C 55.562 1246.551, 55.953 1247.447, 56.506 1247.644 C 57.144 1247.872, 57.509 1243.654, 57.506 1236.098 C 57.503 1229.550, 57.225 1224.362, 56.889 1224.569 C 56.553 1224.777, 56.571 1223.271, 56.929 1221.223 C 57.287 1219.175, 57.278 1216.150, 56.908 1214.500 C 56.446 1212.436, 56.176 1212.124, 56.042 1213.500 M 282.195 1219.500 C 282.215 1221.150, 282.439 1221.704, 282.693 1220.731 C 282.947 1219.758, 282.930 1218.408, 282.656 1217.731 C 282.382 1217.054, 282.175 1217.850, 282.195 1219.500 M 371.405 1219.854 C 372.453 1221.035, 373.717 1222, 374.214 1222 C 375.622 1222, 374.125 1220.135, 371.694 1218.860 C 369.515 1217.717, 369.513 1217.724, 371.405 1219.854 M 415.597 1218.844 C 415.251 1219.404, 415.455 1220.163, 416.050 1220.531 C 417.588 1221.481, 418.580 1220.180, 417.296 1218.896 C 416.578 1218.178, 416.019 1218.161, 415.597 1218.844 M 60.921 1226.751 C 61.399 1230.202, 61.468 1230.272, 61.798 1227.628 C 61.995 1226.049, 61.762 1224.362, 61.279 1223.879 C 60.776 1223.376, 60.623 1224.601, 60.921 1226.751 M 282.300 1229 C 282.300 1232.025, 282.487 1233.263, 282.716 1231.750 C 282.945 1230.237, 282.945 1227.763, 282.716 1226.250 C 282.487 1224.737, 282.300 1225.975, 282.300 1229 M 341 1224.378 C 341 1224.585, 341.685 1225.324, 342.523 1226.019 C 343.796 1227.076, 343.943 1227.014, 343.416 1225.641 C 342.878 1224.240, 341 1223.257, 341 1224.378 M 413 1228 C 413 1228.550, 413.477 1229, 414.059 1229 C 414.641 1229, 414.840 1228.550, 414.500 1228 C 414.160 1227.450, 413.684 1227, 413.441 1227 C 413.198 1227, 413 1227.450, 413 1228 M 748.577 1234.250 C 750.492 1240.300, 756.582 1244.276, 759.486 1241.372 C 761.489 1239.368, 761.398 1238.739, 759.205 1239.435 C 757.974 1239.826, 756.184 1238.748, 753.502 1236.002 C 749.101 1231.495, 747.528 1230.936, 748.577 1234.250 M 61.079 1237.583 C 61.127 1238.748, 61.364 1238.985, 61.683 1238.188 C 61.972 1237.466, 61.936 1236.603, 61.604 1236.271 C 61.272 1235.939, 61.036 1236.529, 61.079 1237.583 M 61.272 1244 C 61.272 1246.475, 61.467 1247.487, 61.706 1246.250 C 61.944 1245.013, 61.944 1242.987, 61.706 1241.750 C 61.467 1240.513, 61.272 1241.525, 61.272 1244 M 54.079 1249.583 C 54.127 1250.748, 54.364 1250.985, 54.683 1250.188 C 54.972 1249.466, 54.936 1248.603, 54.604 1248.271 C 54.272 1247.939, 54.036 1248.529, 54.079 1249.583 M 56.250 1251.559 C 55.563 1252.305, 55 1253.485, 55 1254.180 C 55 1254.876, 55.721 1254.416, 56.602 1253.158 C 58.406 1250.583, 58.163 1249.482, 56.250 1251.559 M 409.924 1252.330 C 412.472 1255.136, 413.020 1255.481, 412.969 1254.250 C 412.951 1253.838, 411.714 1252.636, 410.219 1251.580 L 407.500 1249.661 409.924 1252.330 M 283.079 1254.583 C 283.127 1255.748, 283.364 1255.985, 283.683 1255.188 C 283.972 1254.466, 283.936 1253.603, 283.604 1253.271 C 283.272 1252.939, 283.036 1253.529, 283.079 1254.583 M 554.279 1268.943 C 554.189 1270.144, 554.620 1270.699, 555.409 1270.397 C 556.111 1270.127, 560.334 1272.853, 564.793 1276.453 C 569.253 1280.054, 573.486 1282.985, 574.201 1282.967 C 575.444 1282.935, 573.988 1281.559, 567.581 1276.709 C 565.975 1275.494, 563.658 1273.553, 562.431 1272.395 C 561.204 1271.238, 559.480 1270.014, 558.600 1269.677 C 557.720 1269.339, 557 1268.599, 557 1268.031 C 557 1266.119, 554.427 1266.981, 554.279 1268.943 M 465.500 1275 C 465.160 1275.550, 465.359 1276, 465.941 1276 C 466.523 1276, 467 1275.550, 467 1275 C 467 1274.450, 466.802 1274, 466.559 1274 C 466.316 1274, 465.840 1274.450, 465.500 1275 M 558.500 1280 C 558.840 1280.550, 559.568 1281, 560.118 1281 C 560.668 1281, 560.840 1280.550, 560.500 1280 C 560.160 1279.450, 559.432 1279, 558.882 1279 C 558.332 1279, 558.160 1279.450, 558.500 1280 M 541.116 1283.282 C 546.801 1288.102, 548.206 1289.127, 548.596 1288.738 C 549.166 1288.167, 543.235 1283, 542.009 1283 C 541.454 1283, 541 1282.550, 541 1282 C 541 1281.450, 540.438 1281.014, 539.750 1281.032 C 539.063 1281.049, 539.677 1282.061, 541.116 1283.282 M 545.500 1282 C 545.840 1282.550, 546.316 1283, 546.559 1283 C 546.802 1283, 547 1282.550, 547 1282 C 547 1281.450, 546.523 1281, 545.941 1281 C 545.359 1281, 545.160 1281.450, 545.500 1282 M 563.500 1284 C 563.840 1284.550, 564.316 1285, 564.559 1285 C 564.802 1285, 565 1284.550, 565 1284 C 565 1283.450, 564.523 1283, 563.941 1283 C 563.359 1283, 563.160 1283.450, 563.500 1284 M 452 1287.393 C 452 1287.609, 452.698 1288.054, 453.552 1288.382 C 454.442 1288.723, 454.843 1288.555, 454.493 1287.989 C 453.906 1287.038, 452 1286.583, 452 1287.393 M 572 1291.500 C 572.685 1292.325, 573.695 1293, 574.245 1293 C 574.803 1293, 574.694 1292.337, 574 1291.500 C 573.315 1290.675, 572.305 1290, 571.755 1290 C 571.197 1290, 571.306 1290.663, 572 1291.500 M 559.500 1293 C 559.840 1293.550, 560.568 1294, 561.118 1294 C 561.668 1294, 561.840 1293.550, 561.500 1293 C 561.160 1292.450, 560.432 1292, 559.882 1292 C 559.332 1292, 559.160 1292.450, 559.500 1293 M 571.500 1295 C 571.840 1295.550, 572.316 1296, 572.559 1296 C 572.802 1296, 573 1295.550, 573 1295 C 573 1294.450, 572.523 1294, 571.941 1294 C 571.359 1294, 571.160 1294.450, 571.500 1295 M 576.918 1295.391 C 577.698 1296.336, 579.273 1297.608, 580.418 1298.218 C 582.312 1299.228, 582.372 1299.173, 581.082 1297.609 C 580.302 1296.664, 578.727 1295.392, 577.582 1294.782 C 575.688 1293.772, 575.628 1293.827, 576.918 1295.391 M 564 1297 C 564 1297.550, 564.450 1298, 565 1298 C 565.550 1298, 566 1297.550, 566 1297 C 566 1296.450, 565.550 1296, 565 1296 C 564.450 1296, 564 1296.450, 564 1297 M 561 1298.792 C 561 1299.833, 563.161 1302, 564.200 1302 C 565.673 1302, 565.020 1300.494, 563 1299.232 C 561.900 1298.545, 561 1298.347, 561 1298.792 M 567 1299 C 567 1299.550, 567.477 1300, 568.059 1300 C 568.641 1300, 568.840 1299.550, 568.500 1299 C 568.160 1298.450, 567.684 1298, 567.441 1298 C 567.198 1298, 567 1298.450, 567 1299 M 579.500 1301 C 579.840 1301.550, 580.316 1302, 580.559 1302 C 580.802 1302, 581 1301.550, 581 1301 C 581 1300.450, 580.523 1300, 579.941 1300 C 579.359 1300, 579.160 1300.450, 579.500 1301 M 597 1311.409 C 597 1311.599, 597.675 1312.315, 598.500 1313 C 599.365 1313.718, 600 1313.815, 600 1313.229 C 600 1312.671, 599.325 1311.955, 598.500 1311.638 C 597.675 1311.322, 597 1311.219, 597 1311.409 M 486.405 1313.854 C 487.453 1315.035, 488.717 1316, 489.214 1316 C 490.622 1316, 489.125 1314.135, 486.694 1312.860 C 484.515 1311.717, 484.513 1311.724, 486.405 1313.854 M 525 1314 C 525 1314.550, 525.477 1315, 526.059 1315 C 526.641 1315, 526.840 1314.550, 526.500 1314 C 526.160 1313.450, 525.684 1313, 525.441 1313 C 525.198 1313, 525 1313.450, 525 1314 M 580 1314 C 580 1314.550, 580.477 1315, 581.059 1315 C 581.641 1315, 581.840 1314.550, 581.500 1314 C 581.160 1313.450, 580.684 1313, 580.441 1313 C 580.198 1313, 580 1313.450, 580 1314 M 326.704 1317.750 C 327.506 1322.943, 328 1323.102, 328 1318.167 C 328 1315.875, 327.578 1314, 327.063 1314 C 326.544 1314, 326.384 1315.673, 326.704 1317.750 M 494.253 1320.273 C 503.438 1328.171, 508.355 1330.960, 501.703 1324.500 C 499.721 1322.575, 497.697 1321, 497.205 1321 C 496.713 1321, 495.495 1320.100, 494.500 1319 C 493.505 1317.900, 492.197 1317.010, 491.595 1317.023 C 490.993 1317.036, 492.189 1318.498, 494.253 1320.273 M 562 1320.393 C 562 1320.609, 562.675 1321.045, 563.500 1321.362 C 564.325 1321.678, 565 1321.501, 565 1320.969 C 565 1320.436, 564.325 1320, 563.500 1320 C 562.675 1320, 562 1320.177, 562 1320.393 M 530 1321.784 C 530 1322.216, 531.462 1323.411, 533.250 1324.441 L 536.500 1326.313 534.076 1323.656 C 531.681 1321.032, 530 1320.260, 530 1321.784 M 569 1325 C 569 1325.550, 569.477 1326, 570.059 1326 C 570.641 1326, 570.840 1325.550, 570.500 1325 C 570.160 1324.450, 569.684 1324, 569.441 1324 C 569.198 1324, 569 1324.450, 569 1325 M 527.405 1331.216 C 527.546 1331.912, 529.199 1333.358, 531.080 1334.429 L 534.500 1336.376 532.595 1334.188 C 531.547 1332.985, 530.122 1332, 529.428 1332 C 528.734 1332, 527.938 1331.539, 527.658 1330.975 C 527.379 1330.411, 527.265 1330.520, 527.405 1331.216 M 512 1334 C 512 1334.550, 512.477 1335, 513.059 1335 C 513.641 1335, 513.840 1334.550, 513.500 1334 C 513.160 1333.450, 512.684 1333, 512.441 1333 C 512.198 1333, 512 1333.450, 512 1334 M 526.226 1345.574 C 527.176 1346.568, 528.227 1347.107, 528.562 1346.771 C 528.897 1346.436, 528.120 1345.623, 526.836 1344.964 C 524.603 1343.819, 524.576 1343.846, 526.226 1345.574 M 535 1351.941 C 535 1352.459, 535.445 1353.157, 535.989 1353.493 C 536.555 1353.843, 536.723 1353.442, 536.382 1352.552 C 535.717 1350.820, 535 1350.503, 535 1351.941 M 541.500 1357.523 C 546.737 1362.036, 548.224 1362.022, 543.306 1357.505 C 541.213 1355.582, 539.050 1354.024, 538.500 1354.042 C 537.950 1354.060, 539.300 1355.627, 541.500 1357.523 M 58.195 1373.500 C 58.215 1375.150, 58.439 1375.704, 58.693 1374.731 C 58.947 1373.758, 58.930 1372.408, 58.656 1371.731 C 58.382 1371.054, 58.175 1371.850, 58.195 1373.500 M 340.158 1374 C 340.158 1375.375, 340.385 1375.938, 340.662 1375.250 C 340.940 1374.563, 340.940 1373.438, 340.662 1372.750 C 340.385 1372.063, 340.158 1372.625, 340.158 1374 M 581 1374 C 581 1374.550, 581.477 1375, 582.059 1375 C 582.641 1375, 582.840 1374.550, 582.500 1374 C 582.160 1373.450, 581.684 1373, 581.441 1373 C 581.198 1373, 581 1373.450, 581 1374 M 328.079 1376.583 C 328.127 1377.748, 328.364 1377.985, 328.683 1377.188 C 328.972 1376.466, 328.936 1375.603, 328.604 1375.271 C 328.272 1374.939, 328.036 1375.529, 328.079 1376.583 M 340 1378 C 340 1378.550, 340.450 1379, 341 1379 C 341.550 1379, 342 1378.550, 342 1378 C 342 1377.450, 341.550 1377, 341 1377 C 340.450 1377, 340 1377.450, 340 1378 M 340.559 1388.242 C 339.628 1392.716, 340.496 1395.904, 342.185 1394.215 C 342.977 1393.423, 343.016 1391.837, 342.321 1388.798 L 341.337 1384.500 340.559 1388.242 M 594.985 1400.954 C 596.352 1402.004, 597.669 1402.664, 597.912 1402.421 C 598.478 1401.856, 594.823 1399.067, 593.500 1399.054 C 592.950 1399.049, 593.618 1399.904, 594.985 1400.954 M 627.500 1427 C 628.495 1428.100, 629.535 1429, 629.810 1429 C 630.085 1429, 629.495 1428.100, 628.500 1427 C 627.505 1425.900, 626.465 1425, 626.190 1425 C 625.915 1425, 626.505 1425.900, 627.500 1427 M 704 1458 C 704 1458.550, 704.450 1459, 705 1459 C 705.550 1459, 706 1458.550, 706 1458 C 706 1457.450, 705.550 1457, 705 1457 C 704.450 1457, 704 1457.450, 704 1458 M 57.825 1473.326 C 57.452 1475.151, 57.592 1475.808, 58.218 1475.182 C 58.751 1474.649, 59.011 1473.377, 58.794 1472.356 C 58.503 1470.981, 58.251 1471.233, 57.825 1473.326 M 887.564 1579.293 C 887.940 1580.279, 888.499 1580.834, 888.807 1580.526 C 889.115 1580.219, 888.808 1579.412, 888.124 1578.733 C 887.136 1577.753, 887.022 1577.868, 887.564 1579.293 M 885 1600.893 C 885 1601.384, 885.675 1602.045, 886.500 1602.362 C 887.325 1602.678, 888 1603.449, 888 1604.076 C 888 1604.702, 887.325 1604.941, 886.500 1604.607 C 881.373 1602.532, 881.530 1602.500, 883.571 1605.223 C 884.632 1606.640, 886.996 1608.608, 888.824 1609.597 C 890.653 1610.586, 893.353 1612.431, 894.824 1613.696 C 897.705 1616.174, 899 1616.582, 899 1615.013 C 899 1614.469, 897.306 1612.956, 895.235 1611.649 C 891.055 1609.010, 888.420 1606.246, 889.272 1605.395 C 889.578 1605.089, 890.801 1605.358, 891.990 1605.995 C 893.959 1607.048, 894.058 1606.977, 893.102 1605.191 C 892.525 1604.112, 890.916 1602.945, 889.526 1602.596 C 888.137 1602.247, 887 1601.520, 887 1600.981 C 887 1600.441, 886.550 1600, 886 1600 C 885.450 1600, 885 1600.402, 885 1600.893 M 867 1607.447 C 867 1608.172, 878.046 1615.287, 878.487 1614.846 C 879.218 1614.115, 877.559 1612.388, 873.518 1609.674 C 869.926 1607.262, 867 1606.262, 867 1607.447 M 816.592 1617.378 C 816.892 1618.162, 818.008 1619.030, 819.071 1619.308 C 821.377 1619.911, 820.675 1618.432, 817.967 1616.982 C 816.448 1616.169, 816.160 1616.252, 816.592 1617.378 M 902.148 1619.887 C 901.089 1620.558, 901.299 1621.096, 903.121 1622.372 C 906.389 1624.661, 907.707 1624.405, 904.861 1622.033 C 903.562 1620.952, 903.025 1620.052, 903.667 1620.033 C 904.308 1620.015, 905.034 1620.563, 905.280 1621.250 C 905.525 1621.938, 906.112 1622.138, 906.584 1621.696 C 907.056 1621.253, 906.780 1620.473, 905.971 1619.961 C 904.163 1618.817, 903.846 1618.811, 902.148 1619.887 M 892.500 1622 C 892.840 1622.550, 893.316 1623, 893.559 1623 C 893.802 1623, 894 1622.550, 894 1622 C 894 1621.450, 893.523 1621, 892.941 1621 C 892.359 1621, 892.160 1621.450, 892.500 1622 M 824 1624.059 C 824 1624.641, 824.450 1624.840, 825 1624.500 C 825.550 1624.160, 826 1623.684, 826 1623.441 C 826 1623.198, 825.550 1623, 825 1623 C 824.450 1623, 824 1623.477, 824 1624.059 M 923 1630 C 923 1630.550, 923.450 1631, 924 1631 C 924.550 1631, 925 1630.550, 925 1630 C 925 1629.450, 924.550 1629, 924 1629 C 923.450 1629, 923 1629.450, 923 1630 M 855.288 1640.579 C 856.693 1643.262, 864.572 1647.501, 865.466 1646.056 C 866.189 1644.884, 857.865 1638.008, 855.718 1638.004 C 854.120 1638, 854.076 1638.266, 855.288 1640.579 M 310.079 1646.583 C 310.127 1647.748, 310.364 1647.985, 310.683 1647.188 C 310.972 1646.466, 310.936 1645.603, 310.604 1645.271 C 310.272 1644.939, 310.036 1645.529, 310.079 1646.583 M 1010 1647 C 1010 1647.550, 1010.702 1648, 1011.559 1648 C 1012.416 1648, 1012.840 1647.550, 1012.500 1647 C 1012.160 1646.450, 1011.459 1646, 1010.941 1646 C 1010.423 1646, 1010 1646.450, 1010 1647 M 922 1652 C 922 1652.550, 922.477 1653, 923.059 1653 C 923.641 1653, 923.840 1652.550, 923.500 1652 C 923.160 1651.450, 922.684 1651, 922.441 1651 C 922.198 1651, 922 1651.450, 922 1652 M 142.500 1657 C 142.840 1657.550, 143.316 1658, 143.559 1658 C 143.802 1658, 144 1657.550, 144 1657 C 144 1656.450, 143.523 1656, 142.941 1656 C 142.359 1656, 142.160 1656.450, 142.500 1657 M 950.065 1657.579 C 950.714 1658.360, 951.891 1659, 952.681 1659 C 954.693 1659, 953.460 1657.354, 950.958 1656.699 C 949.257 1656.254, 949.097 1656.412, 950.065 1657.579 M 953.590 1660.855 C 952.844 1662.062, 957.147 1665.748, 959.250 1665.703 C 961.528 1665.656, 961.491 1665.536, 958.260 1662.540 C 955.332 1659.826, 954.428 1659.499, 953.590 1660.855 M 940.500 1664 C 940.840 1664.550, 941.568 1665, 942.118 1665 C 942.668 1665, 942.840 1664.550, 942.500 1664 C 942.160 1663.450, 941.432 1663, 940.882 1663 C 940.332 1663, 940.160 1663.450, 940.500 1664 M 963.245 1667.250 C 963.471 1667.938, 964.746 1668.626, 966.078 1668.779 C 968.423 1669.050, 968.439 1669.010, 966.559 1667.529 C 964.208 1665.677, 962.685 1665.549, 963.245 1667.250 M 937.500 1669 C 936.791 1670.148, 936.939 1670.206, 941.018 1670.375 C 943.667 1670.485, 943.827 1670.347, 942.327 1669.250 C 940.266 1667.743, 938.339 1667.643, 937.500 1669 M 943.817 1672.123 C 942.234 1673.763, 942.333 1674.017, 945.501 1676.433 C 947.352 1677.845, 949.347 1679, 949.933 1679 C 950.520 1679, 951 1679.450, 951 1680 C 951 1680.550, 952.233 1681, 953.740 1681 L 956.480 1681 953.783 1678.500 C 952.301 1677.125, 950.216 1676, 949.151 1676 C 948.085 1676, 946.941 1675.288, 946.607 1674.418 C 945.767 1672.229, 945.783 1672.192, 947.750 1671.783 C 949.275 1671.466, 949.243 1671.353, 947.500 1670.900 C 946.335 1670.598, 944.798 1671.108, 943.817 1672.123 M 934.433 1671.891 C 935.146 1673.045, 939 1675.374, 939 1674.650 C 939 1674.419, 937.820 1673.457, 936.377 1672.511 C 934.934 1671.566, 934.059 1671.287, 934.433 1671.891 M 928.139 1674.914 C 929.438 1675.967, 930.677 1676.652, 930.893 1676.438 C 931.624 1675.712, 928.764 1673, 927.267 1673 C 926.253 1673, 926.531 1673.610, 928.139 1674.914 M 907 1676.852 C 907 1677.360, 908.384 1678.838, 910.075 1680.137 C 911.767 1681.437, 915.387 1684.242, 918.121 1686.371 C 920.854 1688.500, 923.395 1689.938, 923.766 1689.567 C 924.138 1689.195, 923.956 1688.578, 923.362 1688.196 C 921.038 1686.700, 915.579 1682.390, 913.326 1680.273 C 910.309 1677.439, 907 1675.649, 907 1676.852 M 68.500 1678 C 68.160 1678.550, 68.584 1679, 69.441 1679 C 70.298 1679, 71 1678.550, 71 1678 C 71 1677.450, 70.577 1677, 70.059 1677 C 69.541 1677, 68.840 1677.450, 68.500 1678 M 932 1677.917 C 932 1678.513, 932.381 1679, 932.847 1679 C 933.313 1679, 934.732 1679.900, 936 1681 C 938.373 1683.058, 940.005 1683.569, 939.994 1682.250 C 939.990 1681.838, 938.528 1680.611, 936.744 1679.524 C 932.226 1676.773, 932 1676.696, 932 1677.917 M 942.272 1678.967 C 942.418 1680.899, 947.406 1682.927, 948.738 1681.595 C 949.066 1681.268, 948.283 1681, 947 1681 C 945.717 1681, 944.963 1680.704, 945.325 1680.342 C 946.062 1679.604, 944.204 1677, 942.940 1677 C 942.491 1677, 942.191 1677.885, 942.272 1678.967 M 66.750 1680.689 C 64.671 1681.233, 64.398 1683, 66.393 1683 C 67.159 1683, 68.045 1682.325, 68.362 1681.500 C 68.678 1680.675, 68.839 1680.052, 68.719 1680.116 C 68.598 1680.180, 67.713 1680.438, 66.750 1680.689 M 953 1685.500 C 956.244 1687.893, 958 1688.591, 958 1687.485 C 958 1686.783, 951.730 1683.008, 950.556 1683.004 C 950.036 1683.002, 951.136 1684.125, 953 1685.500 M 941.500 1685 C 941.840 1685.550, 942.568 1686, 943.118 1686 C 943.668 1686, 943.840 1685.550, 943.500 1685 C 943.160 1684.450, 942.432 1684, 941.882 1684 C 941.332 1684, 941.160 1684.450, 941.500 1685 M 960 1686 C 960 1686.550, 960.450 1687, 961 1687 C 961.550 1687, 962 1686.550, 962 1686 C 962 1685.450, 961.550 1685, 961 1685 C 960.450 1685, 960 1685.450, 960 1686 M 968.500 1697 C 968.160 1697.550, 968.332 1698, 968.882 1698 C 969.432 1698, 970.160 1697.550, 970.500 1697 C 970.840 1696.450, 970.668 1696, 970.118 1696 C 969.568 1696, 968.840 1696.450, 968.500 1697 M 933 1698.924 C 933 1699.398, 933.675 1700.045, 934.500 1700.362 C 935.325 1700.678, 936 1700.549, 936 1700.076 C 936 1699.602, 935.325 1698.955, 934.500 1698.638 C 933.675 1698.322, 933 1698.451, 933 1698.924 M 941.518 1704.971 C 941.188 1705.505, 942.083 1706.234, 943.506 1706.591 C 946.359 1707.307, 947.555 1706.707, 946.541 1705.067 C 945.717 1703.734, 942.323 1703.669, 941.518 1704.971 M 948 1708 C 948 1708.550, 948.450 1709, 949 1709 C 949.550 1709, 950 1708.550, 950 1708 C 950 1707.450, 949.550 1707, 949 1707 C 948.450 1707, 948 1707.450, 948 1708 M 964 1710 C 964 1710.550, 964.702 1711, 965.559 1711 C 966.416 1711, 966.840 1710.550, 966.500 1710 C 966.160 1709.450, 965.459 1709, 964.941 1709 C 964.423 1709, 964 1709.450, 964 1710 M 952 1713.031 C 952 1713.564, 952.675 1714, 953.500 1714 C 954.325 1714, 955 1713.823, 955 1713.607 C 955 1713.391, 954.325 1712.955, 953.500 1712.638 C 952.675 1712.322, 952 1712.499, 952 1713.031" stroke="none" fill="black" fill-rule="evenodd"/>
</svg>