<svg xmlns="http://www.w3.org/2000/svg" width="1240" height="1753" viewBox="0 0 1240 1753" version="1.1">
	<path d="M 279 52.174 C 279 52.702, 278.090 52.846, 276.978 52.493 C 275.866 52.140, 272.894 52.639, 270.374 53.601 C 266.886 54.933, 265.370 55.088, 264.024 54.247 C 262.828 53.500, 261.928 53.472, 261.241 54.159 C 260.554 54.846, 260.008 54.822, 259.552 54.084 C 259.097 53.347, 258.287 53.311, 257.051 53.973 C 254.968 55.087, 252.964 55.162, 240.750 54.578 C 235.106 54.308, 232 54.527, 232 55.196 C 232 55.803, 231.066 55.956, 229.750 55.566 C 226.224 54.520, 219.259 54.222, 217.906 55.058 C 217.231 55.475, 215.851 55.300, 214.839 54.668 C 213.438 53.793, 212.523 53.816, 211 54.768 C 209.900 55.455, 209 55.638, 209 55.176 C 209 54.713, 206.438 54.682, 203.307 55.107 C 200.176 55.532, 197.166 55.602, 196.617 55.263 C 194.987 54.256, 182.822 53.903, 183.426 54.881 C 183.730 55.372, 183.421 55.754, 182.739 55.730 C 178.721 55.585, 178 56.082, 178 59 C 178 61.362, 177.562 62, 175.941 62 C 174.798 62, 174.162 61.547, 174.511 60.982 C 174.911 60.335, 173.837 60.125, 171.570 60.406 C 169.607 60.650, 168 60.444, 168 59.949 C 168 59.430, 166.944 59.451, 165.500 60 C 163.788 60.651, 163 60.609, 163 59.868 C 163 59.273, 162.325 59.045, 161.500 59.362 C 160.675 59.678, 160 59.453, 160 58.862 C 160 58.270, 159.268 58.067, 158.373 58.410 C 157.479 58.754, 156.064 58.468, 155.229 57.775 C 153.928 56.695, 153.813 56.835, 154.423 58.758 C 154.857 60.125, 154.718 61, 154.067 61 C 153.480 61, 153 60.362, 153 59.582 C 153 58.543, 151.865 58.228, 148.750 58.404 C 146.412 58.537, 143.971 58.248, 143.325 57.762 C 141.307 56.246, 136.664 56.213, 132.500 57.685 C 130.001 58.569, 125.197 59.028, 119.700 58.911 C 111.427 58.734, 110.734 58.881, 108.145 61.361 C 106.630 62.813, 104.654 64, 103.754 64 C 102.854 64, 101.840 64.450, 101.500 65 C 101.160 65.550, 99.821 66, 98.524 66 C 97.228 66, 95.940 66.563, 95.662 67.250 C 95.290 68.173, 95.137 68.141, 95.079 67.128 C 95.015 66.012, 94.715 65.992, 93.476 67.020 C 92.638 67.716, 91.670 68.003, 91.325 67.658 C 90.980 67.313, 90.203 67.679, 89.599 68.470 C 88.994 69.262, 87.150 70.118, 85.500 70.373 C 83.850 70.627, 82.388 70.929, 82.250 71.043 C 82.112 71.157, 81.548 71.306, 80.997 71.375 C 80.445 71.444, 78.930 72.737, 77.630 74.250 C 76.331 75.762, 74.812 77, 74.256 77 C 73.700 77, 72.676 77.686, 71.980 78.524 C 71.284 79.362, 70.501 79.834, 70.238 79.572 C 69.421 78.754, 67.416 81.356, 66.225 84.779 C 65.597 86.583, 64.825 96.258, 64.509 106.279 C 63.740 130.693, 62.906 141.952, 62.044 139.566 C 61.223 137.294, 60.538 138.191, 59.424 143 C 58.270 147.981, 58.271 147.974, 58.042 148.250 C 57.927 148.387, 57.715 149.400, 57.571 150.500 C 57.427 151.600, 56.806 154.975, 56.191 158 C 55.121 163.265, 54.873 168.524, 53.501 215 C 53.168 226.275, 52.713 238.650, 52.491 242.500 C 50.923 269.570, 50.890 301.804, 52.410 321.424 C 54.522 348.697, 56.299 426.416, 55.013 435.298 C 54.679 437.609, 54.800 441.016, 55.283 442.870 C 55.833 444.984, 55.788 446.612, 55.162 447.238 C 53.950 448.450, 54.878 455.197, 56.405 456.269 C 57.152 456.794, 56.968 457.446, 55.827 458.323 C 54.325 459.476, 54.313 459.708, 55.713 460.591 C 57.120 461.478, 57.113 461.882, 55.636 464.737 C 53.785 468.316, 53.518 471.584, 55 472.500 C 55.550 472.840, 55.993 473.879, 55.985 474.809 C 55.971 476.279, 55.829 476.304, 54.898 475 C 54.063 473.831, 53.965 474.052, 54.453 476 C 55.805 481.396, 55.863 482.033, 54.948 481.468 C 53.784 480.748, 53.784 480.759, 54.936 484.776 C 55.452 486.577, 55.477 487.795, 54.990 487.494 C 54.505 487.194, 54.228 489.667, 54.374 492.988 C 54.521 496.309, 54.391 499.276, 54.087 499.580 C 53.782 499.884, 53.476 509.565, 53.407 521.093 C 53.337 532.621, 53.021 542.313, 52.704 542.629 C 52.387 542.946, 52.548 544.310, 53.061 545.660 C 53.673 547.270, 53.651 547.902, 52.997 547.498 C 51.722 546.710, 51.682 553.406, 52.936 557.776 C 53.517 559.802, 53.517 560.819, 52.936 560.460 C 52.421 560.142, 52 560.835, 52 562 C 52 563.165, 52.368 563.890, 52.818 563.612 C 53.268 563.334, 53.606 565.107, 53.568 567.551 C 53.531 569.996, 53.114 571.997, 52.643 571.998 C 52.172 571.999, 52.059 572.675, 52.393 573.500 C 52.727 574.325, 53.273 575.675, 53.607 576.500 C 54.003 577.478, 53.631 578, 52.540 578 C 51.267 578, 51.034 578.531, 51.567 580.212 C 51.953 581.428, 52.321 584.466, 52.385 586.962 C 52.466 590.157, 52.892 591.419, 53.824 591.225 C 54.564 591.072, 54.850 591.433, 54.473 592.043 C 54.102 592.645, 53.158 592.891, 52.376 592.591 C 51.241 592.155, 51.168 592.445, 52.012 594.023 C 52.594 595.110, 53.505 596, 54.035 596 C 54.566 596, 55 596.505, 55 597.122 C 55 597.853, 54.415 597.765, 53.327 596.872 C 51.836 595.650, 51.716 595.746, 52.233 597.750 C 52.564 599.034, 52.357 600, 51.751 600 C 51.168 600, 51.435 600.823, 52.345 601.829 C 54.171 603.846, 54.569 605.470, 53 604.500 C 52.420 604.141, 51.935 605.271, 51.845 607.191 C 51.282 619.256, 51.346 623.096, 52.121 623.575 C 52.604 623.874, 52.993 625.104, 52.985 626.309 C 52.975 627.694, 52.690 628.060, 52.209 627.305 C 51.792 626.647, 51.411 637.502, 51.364 651.426 C 51.316 665.350, 51.014 677.169, 50.691 677.691 C 49.845 679.060, 50.891 688.291, 52.019 689.419 C 52.624 690.024, 52.455 690.945, 51.559 691.936 C 50.245 693.390, 49.624 717.612, 49.800 760.500 C 49.816 764.350, 49.725 770.650, 49.597 774.500 C 49.470 778.350, 49.749 782.288, 50.218 783.250 C 50.687 784.212, 50.694 785, 50.234 785 C 49.774 785, 49.369 790.063, 49.333 796.250 C 49.076 840.457, 49.116 859.187, 49.509 878 C 49.932 898.291, 50.006 960.200, 49.658 1002.750 C 49.571 1013.337, 49.886 1022, 50.357 1022 C 50.828 1022, 50.873 1022.788, 50.457 1023.750 C 49.472 1026.027, 49.083 1032.050, 49.085 1045 C 49.086 1050.775, 49.012 1059.325, 48.919 1064 C 48.442 1088.159, 50.436 1273.211, 51.511 1304.500 C 51.643 1308.350, 51.835 1320.950, 51.936 1332.500 C 52.037 1344.050, 52.461 1356.319, 52.878 1359.765 C 53.295 1363.211, 53.478 1366.189, 53.284 1366.383 C 53.089 1366.577, 52.897 1383.558, 52.856 1404.118 C 52.778 1442.814, 53.483 1465.939, 54.982 1473.894 C 55.460 1476.427, 55.535 1478.616, 55.149 1478.759 C 54.764 1478.901, 54.749 1482.501, 55.117 1486.759 C 55.485 1491.016, 55.631 1508.675, 55.442 1526 C 55.251 1543.365, 55.537 1560.637, 56.079 1564.492 C 56.619 1568.337, 57.256 1573.962, 57.493 1576.992 C 57.730 1580.021, 58.171 1585.650, 58.472 1589.500 C 58.774 1593.350, 59.720 1601.058, 60.576 1606.629 C 61.818 1614.717, 61.907 1617.996, 61.018 1622.898 C 60.406 1626.275, 60.159 1629.448, 60.469 1629.950 C 60.779 1630.451, 60.575 1631.144, 60.016 1631.490 C 59.457 1631.835, 59 1634.026, 59 1636.359 C 59 1638.692, 58.499 1641.101, 57.887 1641.713 C 56.821 1642.779, 57.177 1666.861, 58.372 1674.500 C 58.630 1676.150, 59.163 1679.851, 59.557 1682.725 C 59.988 1685.870, 60.678 1687.699, 61.291 1687.320 C 61.880 1686.956, 62.002 1687.187, 61.581 1687.869 C 60.498 1689.622, 64.731 1701.406, 67.284 1703.747 C 68.503 1704.864, 71.975 1706.976, 75 1708.442 C 78.025 1709.907, 81.625 1711.711, 83 1712.451 C 84.470 1713.242, 92.297 1714.282, 102 1714.976 C 111.075 1715.624, 123.225 1716.489, 129 1716.897 C 134.775 1717.305, 140.625 1718.123, 142 1718.715 C 148.086 1721.336, 153.331 1722.147, 165.336 1722.324 C 175.946 1722.481, 178.380 1722.799, 179.374 1724.158 C 181.086 1726.500, 189.058 1727.132, 205.797 1726.252 C 213.660 1725.838, 226.035 1725.815, 233.297 1726.199 C 240.558 1726.584, 247.625 1726.889, 249 1726.878 C 293.909 1726.507, 335.706 1726.663, 335.375 1727.200 C 335.138 1727.585, 338.788 1727.900, 343.486 1727.900 C 348.185 1727.900, 352.436 1728.152, 352.934 1728.459 C 354.490 1729.421, 458.315 1728.883, 521.750 1727.584 C 532.337 1727.367, 541 1727.485, 541.001 1727.845 C 541.001 1728.445, 559.466 1728.872, 584.500 1728.851 C 590 1728.846, 602.150 1728.832, 611.500 1728.819 C 630.399 1728.794, 648.705 1729.521, 651 1730.388 C 651.825 1730.700, 659.250 1731.170, 667.500 1731.434 C 675.750 1731.697, 686.488 1732.215, 691.362 1732.585 C 698.356 1733.116, 700.410 1732.967, 701.112 1731.879 C 701.782 1730.838, 702.190 1730.793, 702.775 1731.695 C 703.582 1732.940, 706.481 1733.166, 721.500 1733.156 C 726.450 1733.153, 731.175 1733.152, 732 1733.154 C 732.825 1733.156, 738.225 1733.771, 744 1734.521 C 765.844 1737.360, 775.171 1737.883, 798 1737.550 C 825.381 1737.151, 825.218 1737.161, 824.470 1735.951 C 824.154 1735.441, 824.482 1735.206, 825.198 1735.430 C 826.852 1735.946, 866.805 1737.212, 882 1737.230 C 888.325 1737.237, 905.650 1736.914, 920.500 1736.513 C 935.350 1736.111, 953.125 1735.637, 960 1735.461 C 966.875 1735.284, 977.675 1734.889, 984 1734.582 C 994.240 1734.087, 1007.308 1733.924, 1031 1733.999 C 1047.378 1734.050, 1064.643 1733.163, 1067.247 1732.135 C 1072.884 1729.912, 1096.631 1727.642, 1115 1727.571 C 1131.755 1727.507, 1133.926 1727.697, 1138.022 1729.593 C 1142.990 1731.892, 1147.556 1731.536, 1144.597 1729.080 C 1141.915 1726.855, 1142.783 1726.001, 1147.750 1725.979 C 1150.362 1725.968, 1157.900 1725.307, 1164.500 1724.510 C 1171.100 1723.714, 1176.864 1723.048, 1177.309 1723.031 C 1177.754 1723.014, 1177.797 1722.480, 1177.405 1721.845 C 1176.951 1721.112, 1177.131 1720.963, 1177.899 1721.437 C 1178.612 1721.878, 1179.947 1721.225, 1181.162 1719.842 C 1182.293 1718.554, 1183.542 1717.587, 1183.938 1717.693 C 1184.333 1717.799, 1184.585 1716.899, 1184.497 1715.693 C 1184.357 1713.775, 1183.571 1713.414, 1178.228 1712.817 C 1174.868 1712.442, 1171.080 1711.549, 1169.810 1710.833 C 1167.568 1709.570, 1167.617 1709.513, 1171.500 1708.908 C 1175.462 1708.290, 1175.451 1708.282, 1170.309 1708.142 C 1167.454 1708.064, 1164.880 1707.615, 1164.590 1707.145 C 1164.299 1706.675, 1165.159 1705.260, 1166.500 1704 C 1167.841 1702.740, 1168.694 1701.314, 1168.395 1700.830 C 1168.096 1700.346, 1168.222 1700.053, 1168.676 1700.177 C 1170.059 1700.558, 1177.368 1696.340, 1179.642 1693.847 C 1182.439 1690.783, 1183.629 1685.455, 1181.684 1684.709 C 1179.903 1684.025, 1178.909 1679.258, 1180.395 1678.524 C 1181.003 1678.224, 1180.375 1678.244, 1179 1678.570 C 1171.997 1680.227, 1171.484 1680.268, 1172.601 1679.074 C 1173.206 1678.427, 1174.669 1677.825, 1175.851 1677.736 C 1177.510 1677.611, 1178 1676.924, 1178 1674.720 C 1178 1671.787, 1177.639 1671.722, 1172.351 1673.705 C 1171.719 1673.942, 1170.905 1673.656, 1170.542 1673.068 C 1170.179 1672.481, 1170.584 1672, 1171.441 1672 C 1172.298 1672, 1173 1671.599, 1173 1671.108 C 1173 1670.618, 1174.125 1669.934, 1175.500 1669.589 C 1176.875 1669.244, 1178 1668.465, 1178 1667.859 C 1178 1667.117, 1177.508 1667.163, 1176.500 1668 C 1173.789 1670.250, 1174.935 1667.960, 1177.718 1665.567 C 1180.057 1663.554, 1180.249 1663.004, 1179.095 1661.615 C 1177.599 1659.812, 1174.448 1659.466, 1173.500 1661 C 1173.160 1661.550, 1170.996 1661.997, 1168.691 1661.994 L 1164.500 1661.988 1167.364 1660.494 C 1168.940 1659.672, 1171.266 1659, 1172.533 1659 C 1175.506 1659, 1180.985 1655.885, 1180.994 1654.191 C 1180.997 1653.471, 1180.550 1653.160, 1180 1653.500 C 1179.450 1653.840, 1179 1653.416, 1179 1652.559 C 1179 1651.702, 1178.502 1651, 1177.893 1651 C 1177.279 1651, 1177.066 1650.272, 1177.413 1649.366 C 1177.944 1647.982, 1177.490 1647.821, 1174.454 1648.314 C 1169.690 1649.087, 1170.343 1647.225, 1175.543 1645.210 C 1180.562 1643.266, 1180.751 1643.087, 1178.971 1641.961 C 1178.162 1641.449, 1177.964 1641.024, 1178.532 1641.015 C 1179.099 1641.007, 1179.657 1639.875, 1179.771 1638.500 C 1179.912 1636.791, 1179.472 1636, 1178.382 1636 C 1177.399 1636, 1177 1635.443, 1177.342 1634.551 C 1177.677 1633.679, 1177.134 1632.860, 1175.977 1632.493 C 1174.453 1632.009, 1174.257 1631.482, 1175.028 1629.942 C 1175.563 1628.874, 1176.442 1627.118, 1176.983 1626.040 C 1177.738 1624.536, 1177.564 1623.839, 1176.233 1623.041 C 1174.589 1622.055, 1174.589 1621.932, 1176.234 1620.652 C 1177.188 1619.910, 1177.667 1619, 1177.297 1618.631 C 1176.562 1617.895, 1176.179 1615.827, 1175.517 1609.013 C 1175.224 1606.001, 1175.594 1603.742, 1176.644 1602.140 C 1177.504 1600.828, 1177.686 1600.076, 1177.048 1600.471 C 1176.212 1600.987, 1175.973 1599.763, 1176.194 1596.094 C 1176.362 1593.292, 1176.764 1591, 1177.086 1591 C 1177.408 1591, 1177.740 1589.087, 1177.824 1586.750 C 1177.924 1583.923, 1178.614 1581.973, 1179.882 1580.925 C 1182.019 1579.161, 1181.755 1574.871, 1179.389 1572.908 C 1177.252 1571.135, 1177.716 1569.995, 1181.045 1568.834 C 1184.533 1567.619, 1184.477 1565.826, 1180.926 1564.971 L 1178.500 1564.387 1181 1563.578 C 1182.375 1563.133, 1183.838 1562.709, 1184.250 1562.635 C 1184.662 1562.561, 1184.888 1562.232, 1184.750 1561.904 C 1184.612 1561.576, 1185.102 1560.582, 1185.838 1559.695 C 1186.722 1558.631, 1186.940 1557.002, 1186.480 1554.908 C 1186.096 1553.162, 1185.494 1552.150, 1185.141 1552.659 C 1184.789 1553.168, 1183.192 1553.340, 1181.594 1553.042 C 1178.973 1552.553, 1178.850 1552.365, 1180.344 1551.128 C 1182.455 1549.378, 1182.479 1546.398, 1180.387 1545.595 C 1179.081 1545.094, 1179.010 1544.693, 1180.010 1543.488 C 1181.011 1542.282, 1180.958 1542, 1179.734 1542 C 1178.075 1542, 1177.906 1538.937, 1179.500 1537.765 C 1180.102 1537.323, 1179.954 1537.025, 1179.128 1537.015 C 1178.063 1537.003, 1178.017 1536.685, 1178.919 1535.597 C 1179.806 1534.528, 1179.801 1534.100, 1178.898 1533.799 C 1177.989 1533.496, 1177.996 1532.876, 1178.926 1531.138 C 1179.861 1529.391, 1179.868 1528.546, 1178.955 1527.446 C 1177.840 1526.102, 1178.122 1517.229, 1179.343 1515.254 C 1180.582 1513.250, 1180.403 1500.191, 1179.116 1498.640 C 1178.311 1497.670, 1178.082 1496.322, 1178.541 1495.263 C 1179.614 1492.792, 1179.672 1490.699, 1178.705 1489.324 C 1178.250 1488.677, 1178.018 1487.327, 1178.189 1486.324 C 1178.393 1485.128, 1177.925 1484.543, 1176.829 1484.626 C 1174.305 1484.816, 1175.798 1482.089, 1178.603 1481.385 C 1181.923 1480.552, 1180.601 1479.038, 1176.682 1479.186 C 1174.901 1479.253, 1172.331 1478.697, 1170.971 1477.952 C 1166.797 1475.662, 1157.481 1474.352, 1158.634 1476.217 C 1159.033 1476.863, 1157.565 1477.056, 1154.543 1476.754 C 1151.035 1476.404, 1149.687 1476.653, 1149.275 1477.726 C 1148.868 1478.786, 1148.527 1478.853, 1147.987 1477.978 C 1147.158 1476.637, 1121 1475.509, 1121 1476.814 C 1121 1477.907, 1129.237 1479.973, 1134.264 1480.142 C 1143.117 1480.439, 1124.502 1481.893, 1112 1481.881 C 1097.030 1481.867, 1088.297 1481.062, 1090.178 1479.869 C 1090.905 1479.408, 1092.625 1479.017, 1094 1479 C 1095.983 1478.976, 1096.190 1478.769, 1095 1478 C 1093.014 1476.717, 1094.612 1476.722, 1097.012 1478.007 C 1098.464 1478.784, 1099.119 1478.613, 1099.882 1477.257 C 1100.774 1475.671, 1100.968 1475.744, 1101.872 1478 C 1102.467 1479.486, 1102.899 1479.848, 1102.937 1478.894 C 1102.990 1477.541, 1104.340 1477.305, 1111.500 1477.398 C 1116.597 1477.464, 1120 1477.106, 1120 1476.504 C 1120 1475.952, 1117.412 1475.455, 1114.250 1475.401 C 1104.668 1475.236, 1103 1475.039, 1103 1474.073 C 1103 1473.564, 1103.787 1472.941, 1104.750 1472.689 C 1106.116 1472.332, 1106.024 1472.207, 1104.333 1472.116 C 1103.142 1472.052, 1101.966 1472.563, 1101.720 1473.250 C 1101.475 1473.938, 1100.905 1474.155, 1100.454 1473.733 C 1100.002 1473.312, 1100.166 1472.434, 1100.817 1471.783 C 1102.452 1470.148, 1102.297 1469, 1100.441 1469 C 1099.584 1469, 1099.131 1469.403, 1099.435 1469.895 C 1099.740 1470.388, 1099.429 1470.995, 1098.744 1471.244 C 1096.820 1471.946, 1090 1470.891, 1090 1469.891 C 1090 1468.540, 1088.319 1468.824, 1086.692 1470.451 C 1085.894 1471.248, 1084.062 1472.197, 1082.621 1472.559 C 1081.179 1472.921, 1080 1473.708, 1080 1474.308 C 1080 1475.037, 1079.601 1475.001, 1078.800 1474.200 C 1078.140 1473.540, 1076.678 1472.941, 1075.550 1472.868 C 1074.423 1472.796, 1075.075 1472.405, 1077 1472 L 1080.500 1471.263 1077.450 1471.132 C 1075.772 1471.059, 1073.891 1470.491, 1073.268 1469.868 C 1072.646 1469.246, 1070.193 1468.598, 1067.818 1468.428 C 1065.046 1468.230, 1064.197 1468.396, 1065.446 1468.892 C 1067.370 1469.655, 1067.370 1469.670, 1065.430 1470.177 C 1064.351 1470.459, 1062.575 1470.342, 1061.484 1469.915 C 1059.793 1469.255, 1059.759 1469.130, 1061.250 1469.070 C 1062.213 1469.032, 1063 1468.658, 1063 1468.240 C 1063 1467.822, 1059.737 1467.734, 1055.750 1468.044 C 1051.763 1468.355, 1042.987 1468.584, 1036.250 1468.554 C 1029.141 1468.523, 1024 1468.899, 1024 1469.450 C 1024 1469.973, 1023.460 1469.860, 1022.800 1469.200 C 1022.140 1468.540, 1020.735 1468, 1019.678 1468 C 1018.082 1468, 1017.967 1467.745, 1019 1466.500 C 1020.053 1465.232, 1019.840 1465, 1017.622 1465 C 1016.180 1465, 1015 1465.439, 1015 1465.975 C 1015 1467.379, 1010.703 1465.580, 1005.491 1461.994 C 998.322 1457.062, 993.849 1456.533, 970.830 1457.901 C 959.648 1458.565, 949.825 1459.134, 949 1459.165 C 948.175 1459.196, 945.475 1459.668, 943 1460.215 C 937.036 1461.532, 922.200 1461.935, 856 1462.577 C 761.958 1463.490, 736.980 1463.529, 720.561 1462.788 C 710.945 1462.354, 704.031 1462.448, 702.947 1463.029 C 701.739 1463.675, 701.040 1463.621, 700.788 1462.863 C 700.563 1462.189, 697.044 1461.614, 691.957 1461.421 C 687.306 1461.244, 679.900 1460.789, 675.500 1460.410 C 662.069 1459.253, 652.589 1459.246, 650.750 1460.391 C 649.463 1461.193, 648.475 1461.153, 647.014 1460.241 C 645.921 1459.558, 644.459 1459.032, 643.764 1459.070 C 643.069 1459.109, 643.400 1459.506, 644.500 1459.952 C 645.841 1460.497, 644.688 1460.722, 641 1460.635 C 637.975 1460.564, 635.245 1460.161, 634.934 1459.741 C 634.622 1459.320, 632.881 1459.494, 631.065 1460.127 C 628.857 1460.897, 625.070 1461.027, 619.632 1460.520 C 611.092 1459.723, 608.781 1459.643, 605.500 1460.027 C 604.400 1460.155, 602.179 1459.992, 600.563 1459.663 C 598.948 1459.334, 597.076 1459.522, 596.402 1460.081 C 595.665 1460.693, 594.950 1460.728, 594.604 1460.168 C 594.288 1459.658, 589.186 1459.179, 583.265 1459.105 C 575.797 1459.011, 572.959 1459.276, 574 1459.970 C 575.173 1460.752, 574.846 1460.988, 572.500 1461.054 C 570.850 1461.100, 568.339 1461.293, 566.919 1461.483 C 564.002 1461.872, 562.560 1461.183, 561.729 1459 C 561.400 1458.136, 561.082 1458.771, 560.979 1460.500 C 560.818 1463.206, 560.737 1463.275, 560.150 1461.199 C 559.520 1458.968, 559.055 1458.880, 545 1458.331 C 537.025 1458.019, 522.279 1457.865, 512.230 1457.988 C 500.718 1458.129, 493.497 1457.827, 492.707 1457.172 C 491.926 1456.523, 486.754 1456.285, 478.977 1456.539 C 472.115 1456.763, 463.012 1457.012, 458.750 1457.092 C 454.488 1457.172, 451 1457.634, 451 1458.119 C 451 1458.603, 450.298 1459, 449.441 1459 C 448.584 1459, 448.138 1458.586, 448.450 1458.081 C 448.763 1457.575, 446.202 1456.867, 442.759 1456.508 C 433.111 1455.502, 390.221 1455.315, 376.642 1456.220 C 348.676 1458.084, 347.078 1457.867, 346.931 1452.179 C 346.661 1441.698, 346.928 1403.370, 347.412 1383 C 348.568 1334.434, 348.660 1264.049, 347.604 1236.500 C 347.330 1229.350, 346.659 1221.725, 346.114 1219.555 C 345.569 1217.386, 345.380 1215.195, 345.694 1214.686 C 346.296 1213.712, 346.165 1181.982, 345.534 1176 C 345.331 1174.075, 345.065 1167.775, 344.944 1162 C 344.819 1156.032, 344.428 1152.579, 344.037 1154 C 342.685 1158.920, 341.176 1143.943, 341.019 1124.045 C 340.934 1113.345, 340.662 1104.261, 340.413 1103.859 C 339.221 1101.931, 338.911 1042.740, 339.785 984 C 339.822 981.525, 339.662 978.150, 339.429 976.500 C 339.197 974.850, 338.993 963.263, 338.975 950.750 C 338.958 938.238, 338.582 928, 338.139 928 C 337.697 928, 337.666 925.561, 338.070 922.579 C 340.784 902.581, 340.692 815.661, 337.932 791 C 334.486 760.221, 332.802 739.987, 332.635 727.334 C 332.561 721.743, 332.163 716.830, 331.750 716.417 C 331.005 715.671, 330.623 719.992, 330.969 725.250 C 331.219 729.032, 329.390 728.711, 328.080 724.742 C 325.743 717.662, 327.034 709, 330.425 709 C 332.144 709, 332.305 704.639, 332.244 659.750 C 332.218 640.638, 332.490 624.999, 332.849 624.999 C 333.618 624.997, 333.577 609.190, 332.632 540.500 C 332.246 512.450, 331.973 483.875, 332.026 477 C 332.078 470.125, 332.213 449.875, 332.326 432 C 332.439 414.125, 332.917 398.891, 333.388 398.147 C 333.859 397.403, 334.414 389.322, 334.621 380.188 C 334.829 371.054, 335.207 362.888, 335.462 362.041 C 336.781 357.658, 337.033 345.719, 336.068 333.361 C 335.472 325.738, 334.726 315.900, 334.409 311.500 C 334.092 307.100, 333.432 301.700, 332.941 299.500 C 332.450 297.300, 332.038 291.850, 332.024 287.389 C 332.011 282.928, 331.109 274.828, 330.021 269.389 C 327.979 259.184, 325.918 227.169, 327.250 226.345 C 327.662 226.091, 327.968 225.121, 327.930 224.191 C 327.869 222.727, 327.762 222.748, 327.133 224.347 C 325.447 228.630, 324.221 222.794, 323.382 206.500 C 322.348 186.416, 322.424 177.010, 323.626 176.136 C 324.107 175.786, 324.509 171.900, 324.520 167.500 C 324.539 160.196, 325.217 154.729, 328.058 139 C 329.168 132.853, 330.833 118.220, 331.665 107.304 C 332.141 101.058, 331.935 99.718, 330.107 97.150 C 328.948 95.523, 328 93.628, 328 92.940 C 328 92.252, 326.875 90.214, 325.500 88.411 C 324.125 86.608, 323 84.772, 323 84.331 C 323 83.073, 317.587 72.539, 316.750 72.167 C 316.337 71.983, 316 71.093, 316 70.187 C 316 65.474, 304.023 53.632, 301.090 55.445 C 300.584 55.757, 299.965 55.447, 299.714 54.756 C 299.368 53.806, 298.799 53.771, 297.379 54.610 C 295.377 55.793, 290 54.571, 290 52.934 C 290 52.455, 289.400 52.293, 288.668 52.574 C 287.935 52.855, 285.460 52.664, 283.168 52.149 C 280.519 51.554, 279 51.563, 279 52.174 M 270 55 C 268.718 55.828, 268.754 55.972, 270.250 55.985 C 271.212 55.993, 272 55.550, 272 55 C 272 53.780, 271.887 53.780, 270 55 M 58.750 86.470 C 56.709 89.277, 56.459 94.017, 58.250 95.947 C 58.938 96.687, 59.003 97.016, 58.396 96.678 C 57.597 96.232, 57.574 97.296, 58.314 100.530 C 58.876 102.987, 59.495 104.838, 59.689 104.644 C 59.883 104.450, 60.082 101.466, 60.130 98.014 C 60.187 94.009, 60.536 92.236, 61.094 93.118 C 61.660 94.011, 61.975 92.642, 61.985 89.250 C 62.002 83.444, 61.354 82.888, 58.750 86.470 M 227.543 175.931 C 227.226 176.443, 227.425 177.144, 227.984 177.490 C 228.543 177.835, 229 177.416, 229 176.559 C 229 174.802, 228.400 174.544, 227.543 175.931 M 325 202.559 C 325 204.010, 325.433 204.851, 326 204.500 C 326.550 204.160, 327 203.009, 327 201.941 C 327 200.873, 326.550 200, 326 200 C 325.450 200, 325 201.152, 325 202.559 M 326.500 208 C 326.160 208.550, 326.359 209, 326.941 209 C 327.523 209, 328 208.550, 328 208 C 328 207.450, 327.802 207, 327.559 207 C 327.316 207, 326.840 207.450, 326.500 208 M 225.695 281.943 C 225.991 283.074, 226.664 284, 227.190 284 C 228.518 284, 227.767 280.755, 226.329 280.276 C 225.584 280.028, 225.353 280.634, 225.695 281.943 M 109.232 291 C 109.232 292.925, 109.438 293.712, 109.689 292.750 C 109.941 291.788, 109.941 290.212, 109.689 289.250 C 109.438 288.288, 109.232 289.075, 109.232 291 M 62.158 303 C 62.158 304.375, 62.385 304.938, 62.662 304.250 C 62.940 303.563, 62.940 302.438, 62.662 301.750 C 62.385 301.063, 62.158 301.625, 62.158 303 M 108.079 317.583 C 108.127 318.748, 108.364 318.985, 108.683 318.188 C 108.972 317.466, 108.936 316.603, 108.604 316.271 C 108.272 315.939, 108.036 316.529, 108.079 317.583 M 109.232 343 C 109.232 344.925, 109.438 345.712, 109.689 344.750 C 109.941 343.788, 109.941 342.212, 109.689 341.250 C 109.438 340.288, 109.232 341.075, 109.232 343 M 109.252 356.500 C 109.263 358.700, 109.468 359.482, 109.707 358.238 C 109.946 356.994, 109.937 355.194, 109.687 354.238 C 109.437 353.282, 109.241 354.300, 109.252 356.500 M 62.079 374.583 C 62.127 375.748, 62.364 375.985, 62.683 375.188 C 62.972 374.466, 62.936 373.603, 62.604 373.271 C 62.272 372.939, 62.036 373.529, 62.079 374.583 M 62.079 379.583 C 62.127 380.748, 62.364 380.985, 62.683 380.188 C 62.972 379.466, 62.936 378.603, 62.604 378.271 C 62.272 377.939, 62.036 378.529, 62.079 379.583 M 62.272 389 C 62.272 391.475, 62.467 392.488, 62.706 391.250 C 62.944 390.012, 62.944 387.988, 62.706 386.750 C 62.467 385.512, 62.272 386.525, 62.272 389 M 110.286 396.500 C 110.294 399.250, 110.488 400.256, 110.718 398.736 C 110.947 397.216, 110.941 394.966, 110.704 393.736 C 110.467 392.506, 110.279 393.750, 110.286 396.500 M 62.395 409.500 C 62.396 417.200, 62.553 420.218, 62.743 416.206 C 62.934 412.195, 62.932 405.895, 62.741 402.206 C 62.549 398.518, 62.393 401.800, 62.395 409.500 M 110.195 405.500 C 110.215 407.150, 110.439 407.704, 110.693 406.731 C 110.947 405.758, 110.930 404.408, 110.656 403.731 C 110.382 403.054, 110.175 403.850, 110.195 405.500 M 322.816 422.548 C 322.139 423.584, 321.635 438.682, 321.876 450.679 C 321.949 454.294, 322.546 457.405, 323.316 458.179 C 324.168 459.034, 324.569 461.713, 324.455 465.777 C 324.358 469.229, 324.666 472.293, 325.139 472.586 C 325.613 472.879, 326.032 474.554, 326.070 476.309 C 326.109 478.064, 326.527 480.400, 327 481.500 C 327.674 483.070, 327.875 482.628, 327.930 479.450 C 327.968 477.222, 328.501 474.899, 329.113 474.287 C 329.726 473.674, 330.051 471.334, 329.837 469.087 C 329.623 466.839, 329.684 465, 329.974 465 C 330.699 465.001, 330.317 451.967, 329.519 449.500 C 329.164 448.400, 328.259 446.150, 327.510 444.500 C 325.922 441.004, 325.113 436.999, 324.176 428 C 323.804 424.425, 323.192 421.972, 322.816 422.548 M 62.158 426 C 62.158 427.375, 62.385 427.938, 62.662 427.250 C 62.940 426.563, 62.940 425.438, 62.662 424.750 C 62.385 424.063, 62.158 424.625, 62.158 426 M 62.252 432.500 C 62.263 434.700, 62.468 435.482, 62.707 434.238 C 62.946 432.994, 62.937 431.194, 62.687 430.238 C 62.437 429.282, 62.241 430.300, 62.252 432.500 M 110.252 435.500 C 110.263 437.700, 110.468 438.482, 110.707 437.238 C 110.946 435.994, 110.937 434.194, 110.687 433.238 C 110.437 432.282, 110.241 433.300, 110.252 435.500 M 62.272 441 C 62.272 443.475, 62.467 444.488, 62.706 443.250 C 62.944 442.012, 62.944 439.988, 62.706 438.750 C 62.467 437.512, 62.272 438.525, 62.272 441 M 110.272 444 C 110.272 446.475, 110.467 447.488, 110.706 446.250 C 110.944 445.012, 110.944 442.988, 110.706 441.750 C 110.467 440.512, 110.272 441.525, 110.272 444 M 62.286 451.500 C 62.294 454.250, 62.488 455.256, 62.718 453.736 C 62.947 452.216, 62.941 449.966, 62.704 448.736 C 62.467 447.506, 62.279 448.750, 62.286 451.500 M 109.158 454 C 109.158 455.375, 109.385 455.938, 109.662 455.250 C 109.940 454.563, 109.940 453.438, 109.662 452.750 C 109.385 452.063, 109.158 452.625, 109.158 454 M 62.328 463.500 C 62.333 467.350, 62.513 468.802, 62.730 466.728 C 62.946 464.653, 62.943 461.503, 62.722 459.728 C 62.501 457.952, 62.324 459.650, 62.328 463.500 M 320.336 462.567 C 320.005 463.429, 320.244 464.644, 320.867 465.267 C 321.711 466.111, 322 465.711, 322 463.700 C 322 460.691, 321.251 460.182, 320.336 462.567 M 62.480 566.500 C 62.480 618.750, 62.601 640.272, 62.750 614.326 C 62.898 588.380, 62.898 545.630, 62.750 519.326 C 62.601 493.022, 62.480 514.250, 62.480 566.500 M 108.232 478 C 108.232 479.925, 108.438 480.712, 108.689 479.750 C 108.941 478.788, 108.941 477.212, 108.689 476.250 C 108.438 475.288, 108.232 476.075, 108.232 478 M 319.750 478.577 C 319.337 478.993, 319 480.248, 319 481.367 C 319 482.838, 319.302 483.098, 320.094 482.306 C 320.695 481.705, 321.033 480.449, 320.844 479.517 C 320.655 478.584, 320.163 478.161, 319.750 478.577 M 108.232 493 C 108.232 494.925, 108.438 495.712, 108.689 494.750 C 108.941 493.788, 108.941 492.212, 108.689 491.250 C 108.438 490.288, 108.232 491.075, 108.232 493 M 108.300 507 C 108.300 510.025, 108.487 511.262, 108.716 509.750 C 108.945 508.238, 108.945 505.762, 108.716 504.250 C 108.487 502.738, 108.300 503.975, 108.300 507 M 292 678.441 C 292 784.323, 292.340 839.092, 293 839.500 C 293.665 839.911, 294 786.177, 294 679.059 C 294 572.353, 293.663 518, 293 518 C 292.337 518, 292 572.147, 292 678.441 M 107.343 527.500 C 107.346 531.900, 107.522 533.576, 107.733 531.224 C 107.945 528.872, 107.942 525.272, 107.727 523.224 C 107.512 521.176, 107.339 523.100, 107.343 527.500 M 179.079 534.583 C 179.127 535.748, 179.364 535.985, 179.683 535.188 C 179.972 534.466, 179.936 533.603, 179.604 533.271 C 179.272 532.939, 179.036 533.529, 179.079 534.583 M 53.031 550.500 C 53.031 551.050, 53.467 552.175, 54 553 C 54.533 553.825, 54.969 554.050, 54.969 553.500 C 54.969 552.950, 54.533 551.825, 54 551 C 53.467 550.175, 53.031 549.950, 53.031 550.500 M 106.286 557.500 C 106.294 560.250, 106.488 561.256, 106.718 559.736 C 106.947 558.216, 106.941 555.966, 106.704 554.736 C 106.467 553.506, 106.279 554.750, 106.286 557.500 M 106.232 569 C 106.232 570.925, 106.438 571.712, 106.689 570.750 C 106.941 569.788, 106.941 568.212, 106.689 567.250 C 106.438 566.288, 106.232 567.075, 106.232 569 M 217.079 567.583 C 217.127 568.748, 217.364 568.985, 217.683 568.188 C 217.972 567.466, 217.936 566.603, 217.604 566.271 C 217.272 565.939, 217.036 566.529, 217.079 567.583 M 106.252 580.500 C 106.263 582.700, 106.468 583.482, 106.707 582.238 C 106.946 580.994, 106.937 579.194, 106.687 578.238 C 106.437 577.282, 106.241 578.300, 106.252 580.500 M 105.195 600.500 C 105.215 602.150, 105.439 602.704, 105.693 601.731 C 105.947 600.758, 105.930 599.408, 105.656 598.731 C 105.382 598.054, 105.175 598.850, 105.195 600.500 M 105.079 613.583 C 105.127 614.748, 105.364 614.985, 105.683 614.188 C 105.972 613.466, 105.936 612.603, 105.604 612.271 C 105.272 611.939, 105.036 612.529, 105.079 613.583 M 105.349 631 C 105.349 635.675, 105.522 637.587, 105.732 635.250 C 105.943 632.913, 105.943 629.087, 105.732 626.750 C 105.522 624.413, 105.349 626.325, 105.349 631 M 105.158 654 C 105.158 655.375, 105.385 655.938, 105.662 655.250 C 105.940 654.563, 105.940 653.438, 105.662 652.750 C 105.385 652.063, 105.158 652.625, 105.158 654 M 62.445 693.500 C 62.444 710.550, 62.581 717.666, 62.748 709.312 C 62.915 700.959, 62.915 687.009, 62.748 678.312 C 62.582 669.616, 62.445 676.450, 62.445 693.500 M 318.267 694.750 C 318.674 701.116, 319.674 707.007, 320.486 707.819 C 321.613 708.946, 322.014 698.385, 321.025 693.619 C 319.389 685.738, 317.735 686.416, 318.267 694.750 M 231.079 690.583 C 231.127 691.748, 231.364 691.985, 231.683 691.188 C 231.972 690.466, 231.936 689.603, 231.604 689.271 C 231.272 688.939, 231.036 689.529, 231.079 690.583 M 307.459 692.369 C 306.577 697.070, 307.227 700.500, 309 700.500 C 309.928 700.500, 310.391 699.738, 310.215 698.500 C 310.058 697.400, 309.885 694.813, 309.829 692.750 C 309.703 688.086, 308.304 687.861, 307.459 692.369 M 104.158 698 C 104.158 699.375, 104.385 699.938, 104.662 699.250 C 104.940 698.563, 104.940 697.438, 104.662 696.750 C 104.385 696.063, 104.158 696.625, 104.158 698 M 104.158 710 C 104.158 711.375, 104.385 711.938, 104.662 711.250 C 104.940 710.563, 104.940 709.438, 104.662 708.750 C 104.385 708.063, 104.158 708.625, 104.158 710 M 330.676 712.402 C 330.111 713.874, 330.758 715, 332.167 715 C 332.625 715, 333 714.100, 333 713 C 333 710.707, 331.477 710.315, 330.676 712.402 M 103.232 725 C 103.232 726.925, 103.438 727.712, 103.689 726.750 C 103.941 725.788, 103.941 724.212, 103.689 723.250 C 103.438 722.288, 103.232 723.075, 103.232 725 M 62.455 842 L 62.476 954.500 62.988 856 C 63.270 801.825, 63.864 756.938, 64.309 756.250 C 64.771 755.536, 64.677 755, 64.089 755 C 63.454 755, 62.940 750.122, 62.747 742.250 C 62.575 735.237, 62.444 780.125, 62.455 842 M 103.195 732.500 C 103.215 734.150, 103.439 734.704, 103.693 733.731 C 103.947 732.758, 103.930 731.408, 103.656 730.731 C 103.382 730.054, 103.175 730.850, 103.195 732.500 M 74.882 748.191 C 74.816 750.011, 74.825 751.864, 74.901 752.308 C 74.977 752.752, 75.094 755.452, 75.162 758.308 C 75.341 765.872, 76.842 761.205, 76.930 752.809 C 77 746.111, 75.109 741.846, 74.882 748.191 M 54 754.975 C 54 757.197, 54.375 757.793, 55.500 757.362 C 56.325 757.045, 57 757.284, 57 757.893 C 57 758.502, 57.450 759, 58 759 C 59.841 759, 59.026 756.383, 56.500 754.187 L 54 752.013 54 754.975 M 102.195 755.500 C 102.215 757.150, 102.439 757.704, 102.693 756.731 C 102.947 755.758, 102.930 754.408, 102.656 753.731 C 102.382 753.054, 102.175 753.850, 102.195 755.500 M 102.079 762.583 C 102.127 763.748, 102.364 763.985, 102.683 763.188 C 102.972 762.466, 102.936 761.603, 102.604 761.271 C 102.272 760.939, 102.036 761.529, 102.079 762.583 M 75.667 784.667 C 75.300 785.033, 74.993 787.846, 74.985 790.917 C 74.974 794.890, 74.690 796.068, 74 795 C 73.279 793.885, 73.056 794.398, 73.131 797 C 73.188 798.961, 73.445 799.667, 73.717 798.605 C 74.099 797.116, 74.383 797.002, 75.047 798.076 C 76.359 800.199, 76.776 799.059, 77.545 791.250 C 78.206 784.536, 77.671 782.662, 75.667 784.667 M 73.079 790.583 C 73.127 791.748, 73.364 791.985, 73.683 791.188 C 73.972 790.466, 73.936 789.603, 73.604 789.271 C 73.272 788.939, 73.036 789.529, 73.079 790.583 M 75 802.500 C 75 803.875, 74.550 805, 74 805 C 73.450 805, 73 806.575, 73 808.500 C 73 810.625, 73.491 812.006, 74.250 812.015 C 75.138 812.026, 75.174 812.243, 74.374 812.765 C 73.649 813.238, 73.284 817.144, 73.348 823.726 C 73.403 829.350, 73.739 833.400, 74.095 832.726 C 74.696 831.590, 77.010 807.335, 77.003 802.250 C 77.001 801.013, 76.550 800, 76 800 C 75.450 800, 75 801.125, 75 802.500 M 102.079 810.583 C 102.127 811.748, 102.364 811.985, 102.683 811.188 C 102.972 810.466, 102.936 809.603, 102.604 809.271 C 102.272 808.939, 102.036 809.529, 102.079 810.583 M 102.320 826 C 102.320 829.575, 102.502 831.038, 102.723 829.250 C 102.945 827.462, 102.945 824.538, 102.723 822.750 C 102.502 820.962, 102.320 822.425, 102.320 826 M 311.252 840.500 C 311.263 842.700, 311.468 843.482, 311.707 842.238 C 311.946 840.994, 311.937 839.194, 311.687 838.238 C 311.437 837.282, 311.241 838.300, 311.252 840.500 M 102.158 850 C 102.158 851.375, 102.385 851.938, 102.662 851.250 C 102.940 850.563, 102.940 849.438, 102.662 848.750 C 102.385 848.063, 102.158 848.625, 102.158 850 M 102.195 858.500 C 102.215 860.150, 102.439 860.704, 102.693 859.731 C 102.947 858.758, 102.930 857.408, 102.656 856.731 C 102.382 856.054, 102.175 856.850, 102.195 858.500 M 102.310 869.500 C 102.315 872.800, 102.502 874.029, 102.725 872.232 C 102.947 870.435, 102.943 867.735, 102.715 866.232 C 102.486 864.729, 102.304 866.200, 102.310 869.500 M 102.158 878 C 102.158 879.375, 102.385 879.938, 102.662 879.250 C 102.940 878.563, 102.940 877.438, 102.662 876.750 C 102.385 876.063, 102.158 876.625, 102.158 878 M 102.079 929.583 C 102.127 930.748, 102.364 930.985, 102.683 930.188 C 102.972 929.466, 102.936 928.603, 102.604 928.271 C 102.272 927.939, 102.036 928.529, 102.079 929.583 M 102.079 934.583 C 102.127 935.748, 102.364 935.985, 102.683 935.188 C 102.972 934.466, 102.936 933.603, 102.604 933.271 C 102.272 932.939, 102.036 933.529, 102.079 934.583 M 62.478 1039.500 C 62.478 1085.700, 62.600 1104.454, 62.750 1081.175 C 62.899 1057.896, 62.899 1020.096, 62.750 997.175 C 62.600 974.254, 62.478 993.300, 62.478 1039.500 M 101.079 968.583 C 101.127 969.748, 101.364 969.985, 101.683 969.188 C 101.972 968.466, 101.936 967.603, 101.604 967.271 C 101.272 966.939, 101.036 967.529, 101.079 968.583 M 148.079 989.583 C 148.127 990.748, 148.364 990.985, 148.683 990.188 C 148.972 989.466, 148.936 988.603, 148.604 988.271 C 148.272 987.939, 148.036 988.529, 148.079 989.583 M 150 1001 C 150 1001.550, 150.477 1002, 151.059 1002 C 151.641 1002, 151.840 1001.550, 151.500 1001 C 151.160 1000.450, 150.684 1000, 150.441 1000 C 150.198 1000, 150 1000.450, 150 1001 M 150 1004 C 150 1004.550, 150.450 1005, 151 1005 C 151.550 1005, 152 1004.550, 152 1004 C 152 1003.450, 151.550 1003, 151 1003 C 150.450 1003, 150 1003.450, 150 1004 M 156.813 1010.683 C 157.534 1010.972, 158.397 1010.936, 158.729 1010.604 C 159.061 1010.272, 158.471 1010.036, 157.417 1010.079 C 156.252 1010.127, 156.015 1010.364, 156.813 1010.683 M 101.232 1025 C 101.232 1026.925, 101.438 1027.713, 101.689 1026.750 C 101.941 1025.787, 101.941 1024.213, 101.689 1023.250 C 101.438 1022.288, 101.232 1023.075, 101.232 1025 M 64.500 1053 C 64.160 1053.550, 64.584 1054, 65.441 1054 C 66.298 1054, 67 1053.550, 67 1053 C 67 1052.450, 66.577 1052, 66.059 1052 C 65.541 1052, 64.840 1052.450, 64.500 1053 M 100.079 1064.583 C 100.127 1065.748, 100.364 1065.985, 100.683 1065.188 C 100.972 1064.466, 100.936 1063.603, 100.604 1063.271 C 100.272 1062.939, 100.036 1063.529, 100.079 1064.583 M 72.630 1068.179 C 71.246 1068.959, 71.084 1069.434, 72.005 1070.003 C 72.690 1070.426, 73.247 1072.061, 73.244 1073.636 C 73.240 1075.211, 73.746 1076.838, 74.369 1077.250 C 75.208 1077.806, 75.202 1078.194, 74.349 1078.750 C 73 1079.629, 72.777 1087, 74.100 1087 C 74.595 1087, 75.069 1085.088, 75.152 1082.750 C 75.368 1076.738, 75.443 1076.224, 76.214 1075.453 C 76.958 1074.709, 76.130 1068.939, 75.118 1067.812 C 74.778 1067.434, 73.659 1067.599, 72.630 1068.179 M 100.079 1073.583 C 100.127 1074.748, 100.364 1074.985, 100.683 1074.188 C 100.972 1073.466, 100.936 1072.603, 100.604 1072.271 C 100.272 1071.939, 100.036 1072.529, 100.079 1073.583 M 115 1082 C 115 1082.550, 115.450 1083, 116 1083 C 116.550 1083, 117 1082.550, 117 1082 C 117 1081.450, 116.550 1081, 116 1081 C 115.450 1081, 115 1081.450, 115 1082 M 73.606 1101.829 C 73.208 1102.473, 73.148 1103.430, 73.473 1103.956 C 73.797 1104.481, 74.074 1109.319, 74.087 1114.706 C 74.115 1125.968, 74.885 1133.189, 75.986 1132.509 C 76.889 1131.951, 76.036 1105.365, 75.026 1102.579 C 74.554 1101.278, 74.096 1101.036, 73.606 1101.829 M 62.310 1129.500 C 62.315 1132.800, 62.502 1134.029, 62.725 1132.232 C 62.947 1130.435, 62.943 1127.735, 62.715 1126.232 C 62.486 1124.729, 62.304 1126.200, 62.310 1129.500 M 62.310 1141.500 C 62.315 1144.800, 62.502 1146.029, 62.725 1144.232 C 62.947 1142.435, 62.943 1139.735, 62.715 1138.232 C 62.486 1136.729, 62.304 1138.200, 62.310 1141.500 M 62.300 1155 C 62.300 1158.025, 62.487 1159.263, 62.716 1157.750 C 62.945 1156.237, 62.945 1153.763, 62.716 1152.250 C 62.487 1150.737, 62.300 1151.975, 62.300 1155 M 75 1170.500 C 75 1171.875, 75.450 1173, 76 1173 C 76.550 1173, 77 1171.875, 77 1170.500 C 77 1169.125, 76.550 1168, 76 1168 C 75.450 1168, 75 1169.125, 75 1170.500 M 62.252 1183.500 C 62.263 1185.700, 62.468 1186.482, 62.707 1185.238 C 62.946 1183.994, 62.937 1182.194, 62.687 1181.238 C 62.437 1180.282, 62.241 1181.300, 62.252 1183.500 M 75.900 1181.691 C 75.208 1194.169, 76.635 1224, 77.924 1224 C 78.304 1224, 78.459 1222.537, 78.269 1220.750 C 78.078 1218.963, 77.889 1209.282, 77.848 1199.239 C 77.807 1189.195, 77.374 1180.731, 76.886 1180.430 C 76.399 1180.129, 75.955 1180.696, 75.900 1181.691 M 62.405 1208.500 C 62.406 1217.300, 62.559 1220.766, 62.745 1216.203 C 62.930 1211.639, 62.929 1204.439, 62.742 1200.203 C 62.555 1195.966, 62.404 1199.700, 62.405 1208.500 M 75.779 1231.750 C 75.145 1234.196, 75.911 1236, 77.583 1236 C 79.079 1236, 79.405 1234.219, 78.393 1231.582 C 77.591 1229.491, 76.344 1229.572, 75.779 1231.750 M 75.660 1241.750 C 76.725 1253.956, 77.213 1257, 78.105 1257 C 78.689 1257, 78.865 1253.360, 78.553 1247.750 C 78.271 1242.662, 78.031 1238.162, 78.020 1237.750 C 78.009 1237.338, 77.380 1237, 76.623 1237 C 75.588 1237, 75.349 1238.182, 75.660 1241.750 M 77 1265.059 C 77 1265.641, 77.450 1265.840, 78 1265.500 C 78.550 1265.160, 79 1264.684, 79 1264.441 C 79 1264.198, 78.550 1264, 78 1264 C 77.450 1264, 77 1264.477, 77 1265.059 M 77 1269 C 77 1269.550, 77.477 1270, 78.059 1270 C 78.641 1270, 78.840 1269.550, 78.500 1269 C 78.160 1268.450, 77.684 1268, 77.441 1268 C 77.198 1268, 77 1268.450, 77 1269 M 62.158 1276 C 62.158 1277.375, 62.385 1277.938, 62.662 1277.250 C 62.940 1276.563, 62.940 1275.438, 62.662 1274.750 C 62.385 1274.063, 62.158 1274.625, 62.158 1276 M 76.609 1275.824 C 76.256 1276.395, 76.455 1277.163, 77.050 1277.531 C 78.536 1278.449, 79.062 1277.719, 78.071 1276.114 C 77.539 1275.255, 77.024 1275.152, 76.609 1275.824 M 77 1283 C 77 1284.650, 77.450 1286, 78 1286 C 78.550 1286, 79 1284.650, 79 1283 C 79 1281.350, 78.550 1280, 78 1280 C 77.450 1280, 77 1281.350, 77 1283 M 62.079 1290.583 C 62.127 1291.748, 62.364 1291.985, 62.683 1291.188 C 62.972 1290.466, 62.936 1289.603, 62.604 1289.271 C 62.272 1288.939, 62.036 1289.529, 62.079 1290.583 M 77 1290 C 77 1290.550, 77.477 1291, 78.059 1291 C 78.641 1291, 78.840 1290.550, 78.500 1290 C 78.160 1289.450, 77.684 1289, 77.441 1289 C 77.198 1289, 77 1289.450, 77 1290 M 77 1294 C 77 1294.550, 77.450 1295, 78 1295 C 78.550 1295, 79 1294.550, 79 1294 C 79 1293.450, 78.550 1293, 78 1293 C 77.450 1293, 77 1293.450, 77 1294 M 62.079 1298.583 C 62.127 1299.748, 62.364 1299.985, 62.683 1299.188 C 62.972 1298.466, 62.936 1297.603, 62.604 1297.271 C 62.272 1296.939, 62.036 1297.529, 62.079 1298.583 M 78.627 1301.605 C 78.258 1302.763, 78.347 1304.765, 78.824 1306.054 L 79.691 1308.397 80.172 1305.880 C 80.437 1304.495, 80.348 1302.493, 79.975 1301.431 C 79.323 1299.576, 79.270 1299.583, 78.627 1301.605 M 62.195 1304.500 C 62.215 1306.150, 62.439 1306.704, 62.693 1305.731 C 62.947 1304.758, 62.930 1303.408, 62.656 1302.731 C 62.382 1302.054, 62.175 1302.850, 62.195 1304.500 M 77.748 1311.662 C 78.520 1311.973, 78.765 1313.087, 78.390 1314.583 C 77.937 1316.389, 78.190 1317, 79.392 1317 C 81.280 1317, 81.297 1316.910, 80.025 1313.565 C 79.488 1312.154, 78.476 1311.036, 77.775 1311.079 C 76.774 1311.141, 76.768 1311.266, 77.748 1311.662 M 78.596 1332.250 C 77.876 1335.914, 78.316 1345, 79.214 1345 C 79.670 1345, 79.977 1341.625, 79.897 1337.500 C 79.749 1329.807, 79.373 1328.293, 78.596 1332.250 M 62.079 1376.583 C 62.127 1377.748, 62.364 1377.985, 62.683 1377.188 C 62.972 1376.466, 62.936 1375.603, 62.604 1375.271 C 62.272 1374.939, 62.036 1375.529, 62.079 1376.583 M 343.583 1378.866 C 343.152 1379.563, 343.070 1380.403, 343.400 1380.733 C 344.295 1381.628, 345.271 1380.312, 344.787 1378.862 C 344.449 1377.846, 344.213 1377.846, 343.583 1378.866 M 79.195 1409.500 C 79.215 1411.150, 79.439 1411.704, 79.693 1410.731 C 79.947 1409.758, 79.930 1408.408, 79.656 1407.731 C 79.382 1407.054, 79.175 1407.850, 79.195 1409.500 M 62.343 1417.500 C 62.346 1421.900, 62.522 1423.576, 62.733 1421.224 C 62.945 1418.872, 62.942 1415.272, 62.727 1413.224 C 62.512 1411.176, 62.339 1413.100, 62.343 1417.500 M 77.565 1426.895 C 77.260 1427.388, 77.684 1428.048, 78.506 1428.364 C 79.413 1428.712, 80 1428.361, 80 1427.469 C 80 1425.851, 78.437 1425.483, 77.565 1426.895 M 78.681 1432.159 C 77.257 1432.955, 77.031 1433.834, 77.604 1436.334 C 78.003 1438.075, 78.284 1440.279, 78.228 1441.230 C 78.173 1442.182, 78.505 1443.194, 78.966 1443.479 C 79.765 1443.973, 81.605 1432.271, 80.847 1431.514 C 80.647 1431.314, 79.672 1431.604, 78.681 1432.159 M 62.435 1463 C 62.435 1477.025, 62.575 1482.763, 62.747 1475.750 C 62.919 1468.737, 62.919 1457.263, 62.747 1450.250 C 62.575 1443.237, 62.435 1448.975, 62.435 1463 M 78.981 1445.352 C 77.872 1446.462, 78.665 1489.065, 79.817 1490.217 C 80.449 1490.849, 81.223 1491.111, 81.536 1490.798 C 82.551 1489.782, 82.882 1481.045, 81.927 1480.455 C 80.680 1479.684, 80.740 1476, 82 1476 C 82.550 1476, 83 1475.073, 83 1473.941 C 83 1472.809, 82.662 1472.090, 82.250 1472.345 C 81.838 1472.600, 81.368 1468.014, 81.207 1462.154 C 80.917 1451.598, 79.960 1444.374, 78.981 1445.352 M 569.813 1459.683 C 570.534 1459.972, 571.397 1459.936, 571.729 1459.604 C 572.061 1459.272, 571.471 1459.036, 570.417 1459.079 C 569.252 1459.127, 569.015 1459.364, 569.813 1459.683 M 357 1466.417 C 357 1467.287, 357.712 1468, 358.583 1468 C 360.349 1468, 360.042 1465.847, 358.188 1465.229 C 357.534 1465.011, 357 1465.546, 357 1466.417 M 93 1467.059 C 93 1467.641, 93.450 1467.840, 94 1467.500 C 94.550 1467.160, 95 1466.684, 95 1466.441 C 95 1466.198, 94.550 1466, 94 1466 C 93.450 1466, 93 1466.477, 93 1467.059 M 88.035 1470.934 C 86.498 1473.807, 86.768 1474.179, 89 1472.268 C 91.146 1470.431, 91.599 1469, 90.035 1469 C 89.505 1469, 88.605 1469.870, 88.035 1470.934 M 1075.750 1469.662 C 1076.438 1469.940, 1077.563 1469.940, 1078.250 1469.662 C 1078.938 1469.385, 1078.375 1469.158, 1077 1469.158 C 1075.625 1469.158, 1075.063 1469.385, 1075.750 1469.662 M 1094.500 1470 C 1097.249 1471.181, 1098.828 1471.181, 1097 1470 C 1096.175 1469.467, 1094.825 1469.055, 1094 1469.086 C 1093.011 1469.122, 1093.181 1469.433, 1094.500 1470 M 1068 1470.988 C 1066.889 1471.697, 1067.318 1471.888, 1069.653 1471.723 C 1071.386 1471.600, 1072.597 1471.162, 1072.344 1470.750 C 1071.715 1469.728, 1069.811 1469.832, 1068 1470.988 M 1085.500 1473 C 1085.160 1473.550, 1085.557 1474, 1086.382 1474 C 1087.207 1474, 1088.160 1473.550, 1088.500 1473 C 1088.840 1472.450, 1088.443 1472, 1087.618 1472 C 1086.793 1472, 1085.840 1472.450, 1085.500 1473 M 1091.813 1474.683 C 1092.534 1474.972, 1093.397 1474.936, 1093.729 1474.604 C 1094.061 1474.272, 1093.471 1474.036, 1092.417 1474.079 C 1091.252 1474.127, 1091.015 1474.364, 1091.813 1474.683 M 1028 1476.120 C 1028 1477.118, 1028.409 1477.190, 1036 1477.540 C 1042.701 1477.848, 1054.593 1478.887, 1058 1479.462 C 1059.375 1479.694, 1066.800 1480.116, 1074.500 1480.399 C 1084.763 1480.777, 1087.833 1480.636, 1086 1479.869 C 1084.625 1479.293, 1081.700 1478.621, 1079.500 1478.376 C 1074.114 1477.775, 1065.956 1476.298, 1063.500 1475.478 C 1061.850 1474.928, 1061.763 1475.010, 1063 1475.946 C 1064.133 1476.803, 1061.687 1476.937, 1053 1476.497 C 1046.675 1476.177, 1038.463 1475.763, 1034.750 1475.577 C 1031.037 1475.392, 1028 1475.636, 1028 1476.120 M 86 1481.941 C 86 1482.459, 86.450 1483.160, 87 1483.500 C 87.550 1483.840, 88 1483.416, 88 1482.559 C 88 1481.702, 87.550 1481, 87 1481 C 86.450 1481, 86 1481.423, 86 1481.941 M 1038.269 1485.693 C 1039.242 1485.947, 1040.592 1485.930, 1041.269 1485.656 C 1041.946 1485.382, 1041.150 1485.175, 1039.500 1485.195 C 1037.850 1485.215, 1037.296 1485.439, 1038.269 1485.693 M 62.415 1507 C 62.415 1517.175, 62.564 1521.338, 62.745 1516.250 C 62.927 1511.162, 62.927 1502.838, 62.745 1497.750 C 62.564 1492.662, 62.415 1496.825, 62.415 1507 M 80 1493 C 80 1493.550, 80.477 1494, 81.059 1494 C 81.641 1494, 81.840 1493.550, 81.500 1493 C 81.160 1492.450, 80.684 1492, 80.441 1492 C 80.198 1492, 80 1492.450, 80 1493 M 62.232 1533 C 62.232 1534.925, 62.438 1535.713, 62.689 1534.750 C 62.941 1533.787, 62.941 1532.213, 62.689 1531.250 C 62.438 1530.287, 62.232 1531.075, 62.232 1533 M 62.079 1540.583 C 62.127 1541.748, 62.364 1541.985, 62.683 1541.188 C 62.972 1540.466, 62.936 1539.603, 62.604 1539.271 C 62.272 1538.939, 62.036 1539.529, 62.079 1540.583 M 62.079 1545.583 C 62.127 1546.748, 62.364 1546.985, 62.683 1546.188 C 62.972 1545.466, 62.936 1544.603, 62.604 1544.271 C 62.272 1543.939, 62.036 1544.529, 62.079 1545.583 M 1183.441 1546.096 C 1183.068 1546.699, 1183.437 1547.866, 1184.261 1548.689 C 1185.591 1550.019, 1185.703 1549.897, 1185.263 1547.593 C 1184.713 1544.717, 1184.434 1544.488, 1183.441 1546.096 M 644.813 1558.683 C 645.534 1558.972, 646.397 1558.936, 646.729 1558.604 C 647.061 1558.272, 646.471 1558.036, 645.417 1558.079 C 644.252 1558.127, 644.015 1558.364, 644.813 1558.683 M 681.813 1559.683 C 682.534 1559.972, 683.397 1559.936, 683.729 1559.604 C 684.061 1559.272, 683.471 1559.036, 682.417 1559.079 C 681.252 1559.127, 681.015 1559.364, 681.813 1559.683 M 700.750 1560.706 C 701.987 1560.944, 704.013 1560.944, 705.250 1560.706 C 706.487 1560.467, 705.475 1560.272, 703 1560.272 C 700.525 1560.272, 699.513 1560.467, 700.750 1560.706 M 710.768 1560.725 C 712.565 1560.947, 715.265 1560.943, 716.768 1560.715 C 718.271 1560.486, 716.800 1560.304, 713.500 1560.310 C 710.200 1560.315, 708.971 1560.502, 710.768 1560.725 M 723.750 1560.662 C 724.438 1560.940, 725.563 1560.940, 726.250 1560.662 C 726.938 1560.385, 726.375 1560.158, 725 1560.158 C 723.625 1560.158, 723.063 1560.385, 723.750 1560.662 M 62.195 1575.500 C 62.215 1577.150, 62.439 1577.704, 62.693 1576.731 C 62.947 1575.758, 62.930 1574.408, 62.656 1573.731 C 62.382 1573.054, 62.175 1573.850, 62.195 1575.500 M 701 1611 C 701 1611.550, 701.477 1612, 702.059 1612 C 702.641 1612, 702.840 1611.550, 702.500 1611 C 702.160 1610.450, 701.684 1610, 701.441 1610 C 701.198 1610, 701 1610.450, 701 1611 M 685.250 1615.689 C 686.212 1615.941, 687.788 1615.941, 688.750 1615.689 C 689.712 1615.438, 688.925 1615.232, 687 1615.232 C 685.075 1615.232, 684.288 1615.438, 685.250 1615.689 M 698.872 1616.136 C 697.567 1616.501, 700.100 1616.793, 704.500 1616.784 C 712.587 1616.768, 712.935 1616.370, 705.372 1615.788 C 703.101 1615.613, 700.176 1615.770, 698.872 1616.136 M 752.158 1617 C 752.158 1618.375, 752.385 1618.938, 752.662 1618.250 C 752.940 1617.563, 752.940 1616.438, 752.662 1615.750 C 752.385 1615.063, 752.158 1615.625, 752.158 1617 M 693.813 1616.683 C 694.534 1616.972, 695.397 1616.936, 695.729 1616.604 C 696.061 1616.272, 695.471 1616.036, 694.417 1616.079 C 693.252 1616.127, 693.015 1616.364, 693.813 1616.683 M 752.286 1629.500 C 752.294 1632.250, 752.488 1633.256, 752.718 1631.736 C 752.947 1630.216, 752.941 1627.966, 752.704 1626.736 C 752.467 1625.506, 752.279 1626.750, 752.286 1629.500 M 539.750 1634.732 C 542.087 1634.943, 545.913 1634.943, 548.250 1634.732 C 550.587 1634.522, 548.675 1634.349, 544 1634.349 C 539.325 1634.349, 537.413 1634.522, 539.750 1634.732 M 701.813 1635.683 C 702.534 1635.972, 703.397 1635.936, 703.729 1635.604 C 704.061 1635.272, 703.471 1635.036, 702.417 1635.079 C 701.252 1635.127, 701.015 1635.364, 701.813 1635.683 M 752.079 1638.583 C 752.127 1639.748, 752.364 1639.985, 752.683 1639.188 C 752.972 1638.466, 752.936 1637.603, 752.604 1637.271 C 752.272 1636.939, 752.036 1637.529, 752.079 1638.583 M 752.150 1659.750 L 752 1664 745.750 1664.189 L 739.500 1664.378 745.476 1664.746 C 748.763 1664.948, 751.738 1665.576, 752.087 1666.140 C 753.172 1667.897, 753.600 1664.785, 752.930 1660 L 752.300 1655.500 752.150 1659.750 M 542 1661 C 542 1661.550, 542.675 1662, 543.500 1662 C 544.325 1662, 545 1661.550, 545 1661 C 545 1660.450, 544.325 1660, 543.500 1660 C 542.675 1660, 542 1660.450, 542 1661 M 608.776 1660.733 C 611.128 1660.945, 614.728 1660.942, 616.776 1660.727 C 618.824 1660.512, 616.900 1660.339, 612.500 1660.343 C 608.100 1660.346, 606.424 1660.522, 608.776 1660.733 M 521.269 1661.693 C 522.242 1661.947, 523.592 1661.930, 524.269 1661.656 C 524.946 1661.382, 524.150 1661.175, 522.500 1661.195 C 520.850 1661.215, 520.296 1661.439, 521.269 1661.693 M 634.813 1661.683 C 635.534 1661.972, 636.397 1661.936, 636.729 1661.604 C 637.061 1661.272, 636.471 1661.036, 635.417 1661.079 C 634.252 1661.127, 634.015 1661.364, 634.813 1661.683 M 1161.813 1661.683 C 1162.534 1661.972, 1163.397 1661.936, 1163.729 1661.604 C 1164.061 1661.272, 1163.471 1661.036, 1162.417 1661.079 C 1161.252 1661.127, 1161.015 1661.364, 1161.813 1661.683 M 734.750 1663.662 C 735.438 1663.940, 736.563 1663.940, 737.250 1663.662 C 737.938 1663.385, 737.375 1663.158, 736 1663.158 C 734.625 1663.158, 734.063 1663.385, 734.750 1663.662 M 1124.750 1664.662 C 1125.438 1664.940, 1126.563 1664.940, 1127.250 1664.662 C 1127.938 1664.385, 1127.375 1664.158, 1126 1664.158 C 1124.625 1664.158, 1124.063 1664.385, 1124.750 1664.662 M 1131.813 1664.683 C 1132.534 1664.972, 1133.397 1664.936, 1133.729 1664.604 C 1134.061 1664.272, 1133.471 1664.036, 1132.417 1664.079 C 1131.252 1664.127, 1131.015 1664.364, 1131.813 1664.683 M 1140.762 1664.707 C 1142.006 1664.946, 1143.806 1664.937, 1144.762 1664.687 C 1145.718 1664.437, 1144.700 1664.241, 1142.500 1664.252 C 1140.300 1664.263, 1139.518 1664.468, 1140.762 1664.707 M 785.762 1666.707 C 787.006 1666.946, 788.806 1666.937, 789.762 1666.687 C 790.718 1666.437, 789.700 1666.241, 787.500 1666.252 C 785.300 1666.263, 784.518 1666.468, 785.762 1666.707 M 848.813 1669.683 C 849.534 1669.972, 850.397 1669.936, 850.729 1669.604 C 851.061 1669.272, 850.471 1669.036, 849.417 1669.079 C 848.252 1669.127, 848.015 1669.364, 848.813 1669.683 M 1125.379 1669.805 C 1125.951 1670.730, 1158.784 1670.549, 1159.717 1669.616 C 1160.056 1669.277, 1152.357 1669, 1142.608 1669 C 1132.859 1669, 1125.106 1669.362, 1125.379 1669.805 M 865.768 1670.725 C 867.565 1670.947, 870.265 1670.943, 871.768 1670.715 C 873.271 1670.486, 871.800 1670.304, 868.500 1670.310 C 865.200 1670.315, 863.971 1670.502, 865.768 1670.725 M 976 1671 C 976 1671.550, 976.450 1672, 977 1672 C 977.550 1672, 978 1671.550, 978 1671 C 978 1670.450, 977.550 1670, 977 1670 C 976.450 1670, 976 1670.450, 976 1671 M 1075.813 1670.683 C 1076.534 1670.972, 1077.397 1670.936, 1077.729 1670.604 C 1078.061 1670.272, 1077.471 1670.036, 1076.417 1670.079 C 1075.252 1670.127, 1075.015 1670.364, 1075.813 1670.683 M 901.750 1671.723 C 903.538 1671.945, 906.462 1671.945, 908.250 1671.723 C 910.038 1671.502, 908.575 1671.320, 905 1671.320 C 901.425 1671.320, 899.962 1671.502, 901.750 1671.723 M 912.750 1671.662 C 913.438 1671.940, 914.563 1671.940, 915.250 1671.662 C 915.938 1671.385, 915.375 1671.158, 914 1671.158 C 912.625 1671.158, 912.063 1671.385, 912.750 1671.662 M 917.750 1671.662 C 918.438 1671.940, 919.563 1671.940, 920.250 1671.662 C 920.938 1671.385, 920.375 1671.158, 919 1671.158 C 917.625 1671.158, 917.063 1671.385, 917.750 1671.662 M 936.789 1671.741 C 940.248 1671.937, 945.648 1671.936, 948.789 1671.738 C 951.930 1671.540, 949.100 1671.380, 942.500 1671.382 C 935.900 1671.384, 933.330 1671.546, 936.789 1671.741 M 956.250 1671.689 C 957.212 1671.941, 958.788 1671.941, 959.750 1671.689 C 960.712 1671.438, 959.925 1671.232, 958 1671.232 C 956.075 1671.232, 955.288 1671.438, 956.250 1671.689 M 1002.750 1671.732 C 1005.087 1671.943, 1008.913 1671.943, 1011.250 1671.732 C 1013.587 1671.522, 1011.675 1671.349, 1007 1671.349 C 1002.325 1671.349, 1000.413 1671.522, 1002.750 1671.732 M 1018.750 1671.662 C 1019.438 1671.940, 1020.563 1671.940, 1021.250 1671.662 C 1021.938 1671.385, 1021.375 1671.158, 1020 1671.158 C 1018.625 1671.158, 1018.063 1671.385, 1018.750 1671.662 M 1024.778 1672.178 C 1025.201 1672.601, 1026.887 1672.537, 1028.524 1672.035 C 1031.472 1671.131, 1031.464 1671.124, 1027.754 1671.265 C 1025.694 1671.344, 1024.355 1671.755, 1024.778 1672.178 M 1052.750 1671.662 C 1053.438 1671.940, 1054.563 1671.940, 1055.250 1671.662 C 1055.938 1671.385, 1055.375 1671.158, 1054 1671.158 C 1052.625 1671.158, 1052.063 1671.385, 1052.750 1671.662 M 569.750 1673.706 C 570.987 1673.944, 573.013 1673.944, 574.250 1673.706 C 575.487 1673.467, 574.475 1673.272, 572 1673.272 C 569.525 1673.272, 568.513 1673.467, 569.750 1673.706 M 752.158 1678 C 752.158 1679.375, 752.385 1679.938, 752.662 1679.250 C 752.940 1678.563, 752.940 1677.438, 752.662 1676.750 C 752.385 1676.063, 752.158 1676.625, 752.158 1678 M 544 1687.812 C 544.825 1688.224, 550.225 1688.292, 556 1687.962 L 566.500 1687.362 554.500 1687.211 C 547.900 1687.128, 543.175 1687.399, 544 1687.812 M 571.813 1687.683 C 572.534 1687.972, 573.397 1687.936, 573.729 1687.604 C 574.061 1687.272, 573.471 1687.036, 572.417 1687.079 C 571.252 1687.127, 571.015 1687.364, 571.813 1687.683 M 681.813 1688.683 C 682.534 1688.972, 683.397 1688.936, 683.729 1688.604 C 684.061 1688.272, 683.471 1688.036, 682.417 1688.079 C 681.252 1688.127, 681.015 1688.364, 681.813 1688.683 M 497.269 1689.693 C 498.242 1689.947, 499.592 1689.930, 500.269 1689.656 C 500.946 1689.382, 500.150 1689.175, 498.500 1689.195 C 496.850 1689.215, 496.296 1689.439, 497.269 1689.693 M 752.232 1693 C 752.232 1694.925, 752.438 1695.713, 752.689 1694.750 C 752.941 1693.787, 752.941 1692.213, 752.689 1691.250 C 752.438 1690.287, 752.232 1691.075, 752.232 1693 M 502.500 1692 C 502.840 1692.550, 503.316 1693, 503.559 1693 C 503.802 1693, 504 1692.550, 504 1692 C 504 1691.450, 503.523 1691, 502.941 1691 C 502.359 1691, 502.160 1691.450, 502.500 1692 M 764.500 1697 C 764.840 1697.550, 765.316 1698, 765.559 1698 C 765.802 1698, 766 1697.550, 766 1697 C 766 1696.450, 765.523 1696, 764.941 1696 C 764.359 1696, 764.160 1696.450, 764.500 1697 M 477.813 1698.683 C 478.534 1698.972, 479.397 1698.936, 479.729 1698.604 C 480.061 1698.272, 479.471 1698.036, 478.417 1698.079 C 477.252 1698.127, 477.015 1698.364, 477.813 1698.683 M 482.813 1698.683 C 483.534 1698.972, 484.397 1698.936, 484.729 1698.604 C 485.061 1698.272, 484.471 1698.036, 483.417 1698.079 C 482.252 1698.127, 482.015 1698.364, 482.813 1698.683 M 701.500 1700 C 701.160 1700.550, 701.359 1701, 701.941 1701 C 702.523 1701, 703 1700.550, 703 1700 C 703 1699.450, 702.802 1699, 702.559 1699 C 702.316 1699, 701.840 1699.450, 701.500 1700 M 841.250 1700.689 C 842.212 1700.941, 843.788 1700.941, 844.750 1700.689 C 845.712 1700.438, 844.925 1700.232, 843 1700.232 C 841.075 1700.232, 840.288 1700.438, 841.250 1700.689 M 131.430 1725.887 C 132.354 1727.382, 139.035 1728.216, 140.480 1727.016 C 141.211 1726.410, 143.089 1726.165, 144.654 1726.472 C 146.962 1726.925, 147.122 1726.852, 145.500 1726.086 C 142.948 1724.880, 130.701 1724.707, 131.430 1725.887 M 179.813 1727.683 C 180.534 1727.972, 181.397 1727.936, 181.729 1727.604 C 182.061 1727.272, 181.471 1727.036, 180.417 1727.079 C 179.252 1727.127, 179.015 1727.364, 179.813 1727.683" stroke="none" fill="black" fill-rule="evenodd"/>
</svg>