<svg xmlns="http://www.w3.org/2000/svg" width="1240" height="1753" viewBox="0 0 1240 1753" version="1.1">
	<path d="M 1007.413 423.140 C 1006.929 423.925, 1004.123 424.074, 998.291 423.626 C 993.622 423.267, 990.107 423.364, 990.403 423.843 C 991.225 425.174, 986.357 427, 981.988 427 C 979.833 427, 976.142 427.610, 973.785 428.356 C 971.428 429.102, 967.475 430.308, 965 431.036 C 962.525 431.764, 959.991 432.740, 959.369 433.204 C 958.747 433.668, 955.597 434.718, 952.369 435.536 C 949.141 436.355, 945.600 437.437, 944.500 437.941 C 943.400 438.444, 940.700 439.155, 938.500 439.520 C 936.300 439.885, 933.375 440.807, 932 441.570 C 930.625 442.332, 927.025 443.801, 924 444.833 C 920.975 445.866, 914.675 448.153, 910 449.916 C 892.396 456.556, 894 456.151, 894 453.956 C 894 451.349, 891.146 451.419, 885.195 454.172 C 879.472 456.820, 874.232 457.038, 872.523 454.700 C 871.103 452.759, 869.719 452.574, 867.236 453.993 C 866.281 454.539, 863.700 455.625, 861.500 456.407 C 845.890 461.956, 840.252 464.585, 841.433 465.767 C 841.698 466.032, 840.922 467.054, 839.707 468.038 C 838.493 469.022, 837.725 470.042, 838 470.304 C 838.552 470.830, 854.759 465.977, 856.750 464.690 C 857.472 464.223, 858 464.329, 858 464.941 C 858 465.523, 857.888 466.002, 857.750 466.003 C 857.612 466.005, 854.125 467.399, 850 469.101 C 845.875 470.803, 839.350 473.084, 835.500 474.170 C 831.650 475.256, 827.150 476.743, 825.500 477.473 C 820.051 479.887, 816.533 480.662, 814 480.007 C 812.625 479.651, 810.712 479.838, 809.750 480.421 C 807.025 482.072, 807.692 483.067, 810.750 481.912 C 812.772 481.149, 813.208 481.169, 812.398 481.990 C 811.791 482.603, 810.216 483.249, 808.898 483.425 C 806.580 483.734, 800.113 486.159, 796.967 487.898 C 796.124 488.364, 793.905 489.082, 792.035 489.492 C 790.165 489.903, 787.255 491.013, 785.568 491.959 C 783.880 492.905, 780.025 494.485, 777 495.472 C 773.975 496.458, 771.050 497.595, 770.500 497.999 C 769.950 498.403, 766.350 499.745, 762.500 500.981 C 758.650 502.217, 754.600 503.774, 753.500 504.442 C 752.400 505.109, 749.034 506.451, 746.020 507.423 C 743.007 508.395, 739.182 510.143, 737.520 511.306 C 735.319 512.849, 734.872 512.958, 735.872 511.711 C 737.334 509.889, 736.403 509.459, 734.122 510.904 C 733.364 511.384, 733.021 512.225, 733.359 512.773 C 733.705 513.332, 731.922 514.286, 729.294 514.947 C 722.758 516.593, 717.482 519.157, 710.500 524.079 C 707.200 526.405, 703.150 528.650, 701.500 529.067 C 698.174 529.907, 692.827 531.725, 689 533.317 C 686.283 534.448, 685.522 534.685, 684 534.875 C 683.450 534.944, 683 535.645, 683 536.433 C 683 537.221, 681.987 538.171, 680.750 538.544 C 679.513 538.917, 677.150 539.803, 675.500 540.513 C 673.850 541.223, 669.237 543.044, 665.250 544.560 C 661.221 546.092, 658 547.912, 658 548.658 C 658 549.396, 657.582 550, 657.071 550 C 656.561 550, 655.511 550.632, 654.738 551.404 C 653.966 552.177, 648.646 554.733, 642.917 557.084 C 637.188 559.435, 631.612 561.953, 630.527 562.680 C 627.271 564.859, 625.111 564.262, 628 561.981 L 630.500 560.007 627.312 561.080 C 625.558 561.670, 622.408 563.061, 620.312 564.172 L 616.500 566.191 620.500 565.507 C 625.735 564.610, 624.968 565.192, 616.500 568.539 C 612.650 570.061, 607.933 572.363, 606.018 573.653 C 604.103 574.944, 602.217 576, 601.827 576 C 600.186 576, 584.216 584.035, 583.039 585.453 C 582.333 586.304, 581.158 587, 580.427 587 C 579.697 587, 578.740 587.609, 578.300 588.354 C 577.168 590.271, 573.558 592, 570.688 592 C 569.344 592, 567.685 592.675, 567 593.500 C 566.315 594.325, 564.910 595, 563.878 595 C 562.845 595, 562 595.357, 562 595.793 C 562 596.230, 560.313 597.107, 558.250 597.744 C 551.606 599.794, 535.484 605.583, 534.187 606.385 C 533.495 606.812, 527.764 608.915, 521.453 611.058 C 515.141 613.201, 508.294 615.860, 506.238 616.968 C 504.182 618.076, 497.550 620.847, 491.500 623.125 C 485.450 625.404, 479.825 627.850, 479 628.562 C 477.379 629.960, 473.473 631.357, 459.500 635.539 C 454.550 637.021, 449.987 638.645, 449.360 639.148 C 448.733 639.651, 443.064 641.795, 436.764 643.911 C 430.463 646.028, 423.776 648.467, 421.904 649.332 C 417.035 651.580, 396.940 658.994, 395.614 659.031 C 395.001 659.049, 391.848 660.381, 388.607 661.992 C 385.365 663.602, 380.753 665.214, 378.357 665.574 C 375.960 665.933, 374 666.581, 374 667.013 C 374 667.445, 372.087 668.018, 369.750 668.285 C 364.973 668.832, 356.762 671.012, 356 671.936 C 355.725 672.269, 348.975 674.514, 341 676.925 C 333.025 679.335, 325.600 681.842, 324.500 682.495 C 323.400 683.149, 317.163 685.359, 310.641 687.405 C 304.118 689.452, 296.468 692.148, 293.641 693.396 C 290.813 694.644, 286.700 696.153, 284.500 696.748 C 282.300 697.344, 278.711 698.308, 276.525 698.891 C 274.179 699.516, 272.183 699.583, 271.653 699.053 C 270.441 697.841, 268 698.879, 268 700.607 C 268 701.373, 267.564 702, 267.031 702 C 266.499 702, 266.338 701.283, 266.674 700.407 C 267.180 699.089, 266.576 699.176, 263.183 700.907 C 260.926 702.058, 258.450 703, 257.681 703 C 256.911 703, 253.743 704.355, 250.641 706.010 C 247.538 707.666, 244.986 708.678, 244.968 708.260 C 244.951 707.842, 244.388 708.175, 243.718 709 C 243.048 709.825, 240.990 710.550, 239.144 710.612 C 237.299 710.673, 235.499 711.127, 235.144 711.620 C 234.790 712.113, 232.025 713.367, 229 714.406 C 225.975 715.445, 222.600 716.773, 221.500 717.357 C 220.400 717.942, 218.976 718.314, 218.337 718.186 C 217.153 717.948, 205.959 721.874, 200.500 724.442 C 198.850 725.218, 196.038 726.390, 194.250 727.048 C 192.463 727.705, 191 728.589, 191 729.012 C 191 729.435, 189.537 730.015, 187.750 730.301 C 185.963 730.587, 183.600 731.052, 182.500 731.334 C 181.400 731.616, 180.275 731.888, 180 731.939 C 179.725 731.989, 180.175 732.467, 181 733 C 182.250 733.808, 182.167 733.990, 180.500 734.091 C 179.400 734.157, 177.354 734.140, 175.954 734.052 C 174.553 733.964, 172.264 734.791, 170.866 735.891 C 169.469 736.990, 166.227 738.418, 163.663 739.063 C 161.098 739.709, 159 740.620, 159 741.087 C 159 741.555, 158.376 741.698, 157.614 741.406 C 156.852 741.113, 152.793 742.027, 148.593 743.437 C 144.394 744.847, 140.440 746, 139.808 746 C 139.175 746, 137.947 746.617, 137.079 747.371 C 136.210 748.125, 132.800 749.662, 129.500 750.785 C 121.329 753.567, 113.485 756.672, 107.500 759.492 C 104.750 760.788, 98.910 763.484, 94.523 765.483 C 90.135 767.482, 86.310 769.458, 86.023 769.875 C 85.133 771.164, 76.611 776.691, 74.491 777.354 C 71.821 778.188, 66.276 789.821, 64.888 797.500 C 64.228 801.154, 64.024 809.755, 64.367 819.500 C 64.676 828.300, 64.939 837.075, 64.951 839 C 64.962 840.925, 65.481 844.075, 66.103 846 C 66.725 847.925, 67.591 851.750, 68.027 854.500 C 69.644 864.706, 77.299 888.977, 81.346 896.733 C 82.274 898.511, 83.314 902.011, 83.656 904.510 C 83.999 907.010, 84.666 909.294, 85.140 909.586 C 85.613 909.879, 86.015 911.329, 86.033 912.809 C 86.077 916.482, 89.506 926.158, 90.438 925.240 C 90.852 924.833, 91.094 925.175, 90.977 926 C 90.587 928.734, 90.987 930.126, 91.985 929.509 C 92.592 929.134, 92.745 930.024, 92.384 931.829 C 92.044 933.529, 92.267 935.047, 92.916 935.448 C 93.530 935.828, 93.743 936.607, 93.388 937.181 C 93.034 937.754, 93.332 938.587, 94.052 939.032 C 94.771 939.476, 95.477 940.439, 95.622 941.170 C 95.766 941.902, 96.280 944.525, 96.764 947 C 97.248 949.475, 98.111 951.409, 98.682 951.297 C 99.323 951.171, 99.601 953.081, 99.409 956.297 C 99.239 959.159, 98.670 961.402, 98.146 961.282 C 97.023 961.026, 95.342 982.064, 95.854 989.957 C 96.318 997.098, 99.738 1004.441, 105.144 1009.898 C 110.272 1015.076, 114.668 1017.248, 117.236 1015.874 C 118.357 1015.274, 119 1015.283, 119 1015.897 C 119 1016.430, 118.120 1017.144, 117.045 1017.486 C 115.381 1018.014, 116.586 1019.622, 125.149 1028.303 C 130.681 1033.911, 136.353 1039.981, 137.754 1041.792 C 139.155 1043.602, 142.933 1046.930, 146.150 1049.187 C 149.368 1051.443, 152 1053.644, 152 1054.078 C 152 1054.511, 153.007 1055.185, 154.237 1055.575 C 155.467 1055.966, 158.055 1057.307, 159.987 1058.555 C 161.919 1059.804, 165.975 1061.610, 169 1062.569 C 172.025 1063.528, 175.400 1064.639, 176.500 1065.038 C 177.600 1065.437, 182.268 1066.258, 186.874 1066.862 C 191.480 1067.467, 195.867 1068.475, 196.624 1069.103 C 197.381 1069.731, 198 1069.953, 198 1069.597 C 198 1069.240, 199.328 1069.635, 200.950 1070.474 C 204.681 1072.403, 206.095 1072.412, 205.362 1070.500 C 205.045 1069.675, 205.311 1069, 205.952 1069 C 206.593 1069, 206.890 1069.370, 206.610 1069.822 C 205.334 1071.887, 216.521 1077, 222.315 1077 C 225.555 1077, 227.947 1074.300, 225.529 1073.373 C 224.180 1072.855, 224.106 1072.548, 225.166 1071.876 C 226.165 1071.243, 226.186 1071.027, 225.250 1071.015 C 224.563 1071.007, 224 1070.550, 224 1070 C 224 1069.450, 224.927 1069, 226.059 1069 C 227.191 1069, 227.842 1069.447, 227.504 1069.993 C 227.159 1070.552, 227.899 1070.932, 229.195 1070.862 C 232.775 1070.669, 239.269 1073.858, 238.639 1075.499 C 238.282 1076.428, 238.600 1076.707, 239.584 1076.329 C 240.825 1075.853, 240.881 1076.167, 239.928 1078.259 C 239.141 1079.985, 238.215 1080.607, 236.930 1080.272 C 235.908 1080.004, 235.168 1079.496, 235.286 1079.143 C 235.616 1078.152, 234.710 1078.002, 232.260 1078.642 L 230.020 1079.228 232.539 1081.210 C 233.925 1082.300, 235.744 1082.928, 236.581 1082.607 C 237.419 1082.286, 237.859 1082.418, 237.561 1082.902 C 237.262 1083.385, 238.575 1084.073, 240.479 1084.430 C 242.383 1084.787, 245.192 1086.127, 246.721 1087.408 C 248.249 1088.689, 251.750 1090.702, 254.500 1091.882 C 257.250 1093.061, 260.738 1094.675, 262.250 1095.467 C 263.762 1096.259, 265 1096.478, 265 1095.953 C 265 1095.429, 265.477 1095, 266.059 1095 C 266.641 1095, 266.840 1095.450, 266.500 1096 C 266.160 1096.550, 266.359 1097, 266.941 1097 C 267.523 1097, 268 1096.550, 268 1096 C 268 1095.450, 268.436 1095, 268.969 1095 C 269.501 1095, 269.700 1095.617, 269.411 1096.371 C 269.122 1097.125, 269.650 1098.036, 270.586 1098.394 C 272.786 1099.239, 273.879 1098.161, 272 1097 C 271.207 1096.510, 270.861 1095.806, 271.231 1095.435 C 271.903 1094.763, 275 1097.281, 275 1098.500 C 275 1100.659, 284.974 1105.692, 286.410 1104.257 C 286.734 1103.932, 287 1104.120, 287 1104.674 C 287 1105.227, 289.481 1106.276, 292.513 1107.003 C 295.545 1107.730, 298.525 1108.927, 299.135 1109.663 C 299.745 1110.398, 301 1111, 301.922 1111 C 302.845 1111, 304.027 1111.424, 304.550 1111.943 C 305.072 1112.461, 307.300 1113.331, 309.500 1113.877 C 321.661 1116.891, 329.439 1119.110, 330.407 1119.841 C 333.249 1121.990, 349.660 1126.303, 359.500 1127.487 C 364.436 1128.081, 370.027 1129.795, 371 1131.012 C 371.889 1132.125, 380.587 1136.002, 382.066 1135.944 C 382.855 1135.913, 381.496 1135.076, 379.046 1134.082 C 376.596 1133.089, 374.421 1131.764, 374.213 1131.138 C 373.755 1129.764, 376.218 1129.621, 377.550 1130.945 C 378.072 1131.464, 382.325 1132.790, 387 1133.892 C 397.338 1136.327, 408.380 1139.999, 408.833 1141.152 C 409.017 1141.619, 410.052 1142, 411.133 1142 C 412.214 1142, 414.333 1142.638, 415.842 1143.418 C 417.350 1144.198, 421.196 1145.754, 424.388 1146.876 C 427.581 1147.998, 430.937 1149.746, 431.846 1150.760 C 434.159 1153.337, 439.537 1156.465, 446 1158.993 C 452.734 1161.626, 455.213 1163.692, 449.014 1161.505 C 444.648 1159.964, 444.592 1159.971, 446.541 1161.787 C 449.345 1164.399, 452.735 1165.133, 453.446 1163.281 C 453.951 1161.965, 454.292 1161.960, 456.260 1163.237 C 459.748 1165.501, 474.854 1170.241, 479.404 1170.500 C 484.412 1170.785, 487 1171.801, 487 1173.484 C 487 1174.687, 495.597 1179, 497.994 1179 C 498.612 1179, 498.866 1179.408, 498.558 1179.907 C 498.249 1180.405, 498.968 1180.560, 500.155 1180.249 C 501.538 1179.888, 502.076 1180.067, 501.655 1180.749 C 501.236 1181.427, 501.815 1181.634, 503.249 1181.320 C 505.109 1180.912, 505.239 1181.027, 504 1181.979 C 502.778 1182.917, 502.928 1183.010, 504.808 1182.480 C 506.470 1182.011, 507.635 1182.426, 508.969 1183.964 C 510.108 1185.277, 511.070 1185.695, 511.469 1185.050 C 512.252 1183.783, 516 1183.639, 516 1184.875 C 516 1185.356, 517.463 1186.045, 519.250 1186.405 C 521.515 1186.861, 522.097 1187.311, 521.170 1187.889 C 520.257 1188.457, 521.415 1189.233, 524.858 1190.359 C 531.510 1192.535, 532.604 1192.351, 527 1190 C 520.858 1187.423, 524.621 1187.486, 531.177 1190.070 C 535.814 1191.898, 536.941 1191.996, 540.809 1190.914 C 543.628 1190.124, 545.422 1190.037, 545.844 1190.669 C 546.205 1191.209, 548.075 1192.517, 550 1193.575 C 551.925 1194.634, 553.725 1195.747, 554 1196.049 C 555.196 1197.363, 565.696 1200.014, 573.749 1201.034 C 578.562 1201.644, 583.927 1202.790, 585.670 1203.581 C 587.414 1204.371, 590.226 1205.295, 591.920 1205.634 C 593.614 1205.973, 595 1206.591, 595 1207.009 C 595 1207.426, 597.876 1208.075, 601.392 1208.451 C 604.907 1208.828, 609.323 1209.961, 611.206 1210.970 C 613.088 1211.979, 617.862 1213.768, 621.814 1214.945 C 625.766 1216.122, 629 1217.516, 629 1218.042 C 629 1218.569, 629.701 1219, 630.559 1219 C 632.501 1219, 660.316 1228.238, 661 1229.111 C 661.778 1230.103, 678.843 1233.952, 685.244 1234.580 C 689.833 1235.029, 691.578 1235.731, 693.917 1238.071 C 696.876 1241.030, 699 1241.836, 699 1240 C 699 1239.450, 698.325 1239, 697.500 1239 C 696.675 1239, 696 1238.362, 696 1237.583 C 696 1236.804, 695.438 1235.940, 694.750 1235.662 C 694.063 1235.385, 694.625 1235.125, 696 1235.085 C 699.430 1234.984, 705.188 1236.673, 707.546 1238.472 C 709.236 1239.761, 709.298 1240.097, 708 1240.966 C 706.779 1241.783, 706.924 1241.972, 708.782 1241.985 C 712.310 1242.008, 718 1244.727, 718 1246.390 C 718 1248.671, 719.875 1249.425, 727.500 1250.214 C 737.480 1251.246, 746.571 1252.569, 753.500 1253.999 C 756.800 1254.680, 760.513 1255.231, 761.750 1255.224 C 762.987 1255.217, 764 1255.600, 764 1256.075 C 764 1256.550, 765.464 1256.884, 767.254 1256.817 C 769.044 1256.749, 772.011 1257.471, 773.847 1258.421 C 775.683 1259.371, 777.407 1259.926, 777.678 1259.655 C 778.231 1259.103, 784.225 1260.984, 785 1261.953 C 785.275 1262.297, 788.425 1263.812, 792 1265.319 C 798.490 1268.054, 800.087 1268.843, 809.500 1273.967 C 812.250 1275.463, 816.965 1277.503, 819.977 1278.500 C 822.990 1279.496, 826.059 1280.917, 826.799 1281.656 C 827.538 1282.395, 829.054 1283, 830.167 1283 C 831.280 1283, 833.386 1283.838, 834.846 1284.861 C 836.306 1285.885, 839.148 1287.257, 841.162 1287.910 C 843.175 1288.563, 845.074 1289.750, 845.380 1290.548 C 845.709 1291.405, 847.281 1292.005, 849.219 1292.011 C 852.309 1292.022, 861.795 1294.673, 879 1300.334 C 883.125 1301.691, 889.875 1303.548, 894 1304.461 C 898.125 1305.374, 902.513 1306.779, 903.750 1307.583 C 904.987 1308.388, 906 1308.756, 906 1308.401 C 906 1308.046, 906.675 1308.315, 907.500 1309 C 908.609 1309.920, 909 1309.938, 909 1309.070 C 909 1308.424, 907.651 1307.426, 906.001 1306.851 C 904.352 1306.276, 903.254 1305.398, 903.562 1304.900 C 903.894 1304.363, 904.830 1304.374, 905.865 1304.928 C 906.823 1305.441, 908.202 1305.493, 908.927 1305.045 C 909.653 1304.596, 911.654 1304.599, 913.373 1305.051 C 915.093 1305.502, 918.352 1306.352, 920.615 1306.938 C 924.130 1307.849, 928.224 1310.372, 933.773 1315.049 C 935.754 1316.718, 955.632 1321.399, 965.375 1322.490 C 968.056 1322.791, 970.554 1323.224, 970.926 1323.454 C 971.299 1323.685, 975.630 1324.376, 980.552 1324.992 C 985.473 1325.607, 990.400 1326.499, 991.500 1326.974 C 995.543 1328.718, 1019.848 1331.445, 1031.597 1331.472 L 1043.694 1331.500 1050.097 1325.605 C 1053.619 1322.363, 1057.355 1318.313, 1058.400 1316.605 C 1059.445 1314.897, 1061.333 1311.925, 1062.595 1310 C 1065.240 1305.967, 1069.328 1291.135, 1071.003 1279.500 C 1071.636 1275.100, 1073.523 1266.100, 1075.196 1259.500 C 1076.870 1252.900, 1078.801 1244.993, 1079.489 1241.929 C 1080.176 1238.865, 1081.243 1235.414, 1081.860 1234.261 C 1082.478 1233.107, 1083.701 1229.539, 1084.578 1226.332 C 1085.455 1223.124, 1086.613 1218.925, 1087.150 1217 C 1088.941 1210.575, 1092.126 1195.554, 1092.662 1191 C 1092.953 1188.525, 1094.223 1183.350, 1095.486 1179.500 C 1099.260 1167.986, 1101.943 1158.715, 1102.577 1155 C 1102.905 1153.075, 1103.433 1150.825, 1103.750 1150 C 1104.068 1149.175, 1104.405 1148.275, 1104.500 1148 C 1104.595 1147.725, 1104.920 1146.825, 1105.222 1146 C 1106.516 1142.464, 1109.137 1131.626, 1111.510 1120 C 1112.912 1113.125, 1114.497 1106.118, 1115.030 1104.429 C 1116.802 1098.819, 1116.151 1089.784, 1113.409 1081.925 C 1111.774 1077.237, 1110.667 1071.587, 1110.406 1066.599 C 1109.964 1058.117, 1109.309 1056.728, 1104.610 1054.298 C 1102.940 1053.435, 1100.765 1051.700, 1099.776 1050.442 C 1097.829 1047.967, 1085.735 1043.428, 1083.980 1044.512 C 1083.393 1044.875, 1082.257 1044.628, 1081.456 1043.964 C 1080.655 1043.299, 1080 1043.004, 1080 1043.308 C 1080 1044.174, 1075.621 1042.619, 1060 1036.209 C 1052.025 1032.936, 1044.150 1029.967, 1042.500 1029.612 C 1040.850 1029.257, 1038.600 1028.789, 1037.500 1028.572 C 1036.400 1028.355, 1034.233 1027.687, 1032.684 1027.088 C 1031.134 1026.489, 1026.703 1025.339, 1022.836 1024.533 C 1015.807 1023.067, 1002 1017.377, 1002 1015.946 C 1002 1015.528, 1002.900 1015.423, 1004 1015.710 C 1005.140 1016.008, 1006 1015.741, 1006 1015.089 C 1006 1014.359, 1004.641 1014.094, 1002.250 1014.359 C 999.657 1014.646, 997.111 1014.061, 994 1012.463 C 985.392 1008.041, 983.599 1007.796, 960.500 1007.881 C 956.100 1007.897, 952.050 1007.940, 951.500 1007.975 C 950.950 1008.010, 945.513 1007.882, 939.418 1007.690 C 930.437 1007.407, 927.451 1006.913, 923.671 1005.083 C 919.816 1003.216, 919.096 1002.449, 919.527 1000.662 C 919.970 998.823, 919.187 998.111, 914.274 995.896 C 901.550 990.158, 891.197 986.860, 886.891 987.173 C 884.231 987.366, 867.845 982.713, 861.260 979.894 C 857.294 978.197, 857.084 977.911, 858.010 975.475 C 859.709 971.004, 859.267 970.229, 854.750 969.767 C 849.010 969.180, 833.342 965.242, 831.500 963.924 C 829.483 962.481, 815.766 958.876, 814.353 959.418 C 813.538 959.731, 813.165 959.542, 813.507 958.989 C 814.257 957.776, 812.981 957.726, 811.134 958.896 C 810.301 959.424, 808.741 959.225, 807.134 958.387 C 805.685 957.631, 803.915 957.010, 803.200 957.006 C 802.486 957.003, 800.474 956.262, 798.730 955.360 C 796.986 954.459, 793.971 953.509, 792.030 953.249 C 790.088 952.990, 788.275 952.445, 788 952.038 C 787.725 951.631, 783.675 950.082, 779 948.595 C 774.325 947.109, 769.825 945.476, 769 944.966 C 765.485 942.795, 756.287 938.759, 750.616 936.899 C 747.252 935.796, 743.756 934.491, 742.847 933.999 C 741.937 933.506, 734.737 931.003, 726.847 928.436 C 718.956 925.868, 712.050 923.416, 711.500 922.987 C 710.950 922.557, 703.750 920.079, 695.500 917.480 C 687.250 914.880, 680.275 912.432, 680 912.040 C 679.725 911.647, 674.550 909.649, 668.500 907.599 C 662.450 905.549, 655.250 902.809, 652.500 901.510 C 649.750 900.211, 644.920 898.381, 641.767 897.443 L 636.033 895.737 638.767 892.553 C 641.708 889.128, 648.358 884.284, 654 881.458 C 655.925 880.494, 659.335 878.206, 661.577 876.374 C 667.652 871.410, 672.034 869.916, 679.599 870.229 C 684.565 870.434, 686.444 870.126, 687.330 868.963 C 687.973 868.117, 690.750 866.129, 693.500 864.544 C 696.250 862.959, 700.477 860.164, 702.894 858.331 C 705.310 856.499, 707.876 855, 708.594 855 C 709.313 855, 710.260 854.433, 710.700 853.739 C 711.140 853.046, 713.975 851.363, 717 850 C 720.025 848.636, 722.726 847.220, 723.002 846.853 C 723.278 846.486, 729.353 843.853, 736.502 841.003 C 743.651 838.152, 749.951 835.448, 750.502 834.993 C 752.006 833.753, 761.982 829.871, 766.229 828.875 C 768.279 828.393, 773.321 826.425, 777.432 824.500 C 781.544 822.575, 785.513 821, 786.254 821 C 786.994 821, 788.037 820.563, 788.571 820.029 C 789.106 819.494, 790.433 818.899, 791.521 818.705 C 792.610 818.511, 795.242 817.598, 797.372 816.676 C 799.502 815.754, 801.847 815, 802.583 815 C 803.320 815, 804.727 814.163, 805.711 813.141 C 807.237 811.555, 809.551 810.586, 814.500 809.460 C 815.050 809.335, 819.775 807.238, 825 804.800 C 830.225 802.362, 839 798.603, 844.500 796.446 C 850 794.289, 854.725 792.294, 855 792.012 C 855.275 791.730, 858.650 790.452, 862.500 789.171 C 866.350 787.890, 870.400 786.466, 871.500 786.007 C 874.685 784.678, 894.709 780, 897.220 779.999 C 898.474 779.998, 904 778.898, 909.500 777.554 C 915 776.210, 925.350 773.723, 932.500 772.027 C 939.650 770.331, 946.400 768.522, 947.500 768.006 C 948.600 767.490, 952.650 766.098, 956.500 764.912 C 964.224 762.533, 976.113 756.382, 980 752.754 C 985.313 747.795, 1007.608 736.021, 1011.754 735.985 C 1013.230 735.972, 1013.270 735.824, 1012.016 735.031 C 1010.852 734.295, 1011.390 733.739, 1014.516 732.447 C 1016.707 731.542, 1019.175 730.203, 1020 729.472 C 1020.825 728.741, 1021.841 728.130, 1022.258 728.115 C 1022.675 728.100, 1024.559 727.798, 1026.443 727.445 C 1028.328 727.091, 1030.365 727.107, 1030.969 727.481 C 1032.906 728.678, 1027.454 731.961, 1017.775 735.427 C 1012.674 737.254, 1007.150 739.477, 1005.500 740.369 C 1003.850 741.260, 1001.092 742.257, 999.370 742.583 C 997.334 742.970, 995.838 744.061, 995.089 745.705 C 993.984 748.130, 994.047 748.205, 996.651 747.551 C 998.144 747.177, 1000.668 745.774, 1002.260 744.435 C 1003.851 743.096, 1005.944 742, 1006.910 742 C 1007.876 742, 1009.004 741.663, 1009.417 741.250 C 1009.829 740.837, 1010.467 740.461, 1010.833 740.414 C 1011.200 740.366, 1012.175 740.045, 1013 739.701 C 1016.675 738.165, 1047.852 727.767, 1051 727.027 C 1052.925 726.574, 1058.724 724.020, 1063.886 721.352 C 1071.049 717.649, 1073.995 715.491, 1076.324 712.238 C 1078.609 709.045, 1079.089 707.689, 1078.234 706.834 C 1077.399 705.999, 1077.387 705.146, 1078.190 703.645 C 1079.002 702.128, 1078.983 701.494, 1078.118 701.206 C 1077.326 700.942, 1077.612 699.746, 1079.008 697.488 C 1081.247 693.864, 1080.454 692.404, 1076.866 693.543 C 1075.254 694.054, 1074.940 693.890, 1075.547 692.857 C 1075.985 692.111, 1075.366 692.357, 1074.172 693.405 C 1071.727 695.549, 1071.397 694.994, 1073.250 691.856 C 1074.250 690.162, 1074.250 689.648, 1073.250 689.286 C 1072.447 688.995, 1072 686.773, 1072 683.073 C 1072 677.404, 1072.078 677.248, 1076.908 673.175 C 1080.150 670.441, 1082.861 666.891, 1084.895 662.715 C 1087.670 657.020, 1087.855 656.075, 1086.761 653.177 C 1086.093 651.408, 1085.018 650.163, 1084.372 650.411 C 1083.726 650.659, 1082.961 649.959, 1082.673 648.857 C 1082.384 647.754, 1081.215 646.607, 1080.074 646.309 C 1078.933 646.011, 1078 645.089, 1078 644.261 C 1078 643.095, 1077.689 643.013, 1076.622 643.899 C 1075.540 644.797, 1075.131 644.609, 1074.716 643.022 C 1074.425 641.911, 1074.614 640.739, 1075.135 640.417 C 1075.655 640.095, 1075.808 638.970, 1075.473 637.916 C 1075.030 636.519, 1075.358 635.981, 1076.683 635.930 C 1078.304 635.867, 1078.285 635.774, 1076.500 635.068 C 1075.400 634.633, 1073.857 634.519, 1073.071 634.814 C 1072.071 635.190, 1072.221 634.557, 1073.571 632.706 L 1075.500 630.060 1077.250 632.141 C 1079.706 635.061, 1079.601 632.040, 1077.137 628.885 C 1075.399 626.660, 1074.924 621.864, 1076.061 618.011 C 1076.394 616.881, 1075.777 616.600, 1073.500 616.847 C 1071.071 617.110, 1070.738 616.927, 1071.750 615.886 C 1073.130 614.466, 1073.466 612.594, 1072.200 613.377 C 1071.760 613.649, 1071.409 611.313, 1071.421 608.186 C 1071.440 603.076, 1071.242 602.534, 1069.471 602.834 C 1067.882 603.102, 1067.742 602.918, 1068.750 601.884 C 1070.352 600.239, 1070.430 596.616, 1068.842 597.597 C 1068.054 598.084, 1067.860 597.645, 1068.232 596.221 C 1068.566 594.944, 1068.238 593.922, 1067.389 593.596 C 1066.623 593.302, 1066 591.693, 1066 590.007 C 1066 587.648, 1065.416 586.728, 1063.440 585.977 C 1062.032 585.442, 1061.163 584.546, 1061.509 583.986 C 1061.855 583.426, 1062.557 583.226, 1063.069 583.543 C 1063.581 583.859, 1064 583.254, 1064 582.198 C 1064 580.689, 1063.465 580.380, 1061.500 580.755 C 1058.574 581.315, 1058.302 579.995, 1060.615 576.465 C 1062.132 574.149, 1062.117 573.999, 1060.365 573.985 C 1059.107 573.974, 1058.895 573.719, 1059.712 573.199 C 1061.031 572.361, 1060.336 568, 1058.883 568 C 1058.398 568, 1057.975 567.212, 1057.945 566.250 C 1057.914 565.288, 1056.578 563.464, 1054.975 562.199 C 1052.661 560.372, 1051.656 560.114, 1050.099 560.947 C 1048.652 561.722, 1047.791 561.649, 1046.811 560.668 C 1046.080 559.937, 1044.924 559.525, 1044.241 559.753 C 1043.558 559.981, 1043 559.679, 1043 559.083 C 1043 558.487, 1043.675 558, 1044.500 558 C 1045.325 558, 1046 557.550, 1046 557 C 1046 556.450, 1045.325 556, 1044.500 556 C 1043.417 556, 1043 554.889, 1043 552 C 1043 549.800, 1043.394 548, 1043.875 548 C 1045.313 548, 1044.864 542.885, 1043.375 542.314 C 1042.468 541.965, 1042 540.122, 1042 536.893 C 1042 534.202, 1041.550 532, 1041 532 C 1040.450 532, 1040 531.190, 1040 530.200 C 1040 529.210, 1039.464 527.864, 1038.809 527.209 C 1037.416 525.816, 1037.336 516.052, 1038.709 515.129 C 1041.025 513.574, 1040.877 510.643, 1038.233 505.679 C 1035.801 501.114, 1035.060 500.466, 1031.987 500.216 C 1030.069 500.059, 1028.350 499.497, 1028.167 498.966 C 1027.983 498.435, 1027.212 498, 1026.452 498 C 1024.964 498, 1022.482 494.184, 1023.384 493.283 C 1023.684 492.983, 1023.503 491.941, 1022.982 490.967 C 1021.776 488.713, 1023.651 483, 1025.598 483 C 1027.223 483, 1027.470 481.409, 1025.988 480.492 C 1025.349 480.098, 1025.315 479.259, 1025.895 478.223 C 1026.505 477.133, 1026.291 475.269, 1025.259 472.690 C 1023.953 469.426, 1023.923 468.665, 1025.073 467.955 C 1025.826 467.490, 1026.230 466.972, 1025.971 466.804 C 1025.712 466.637, 1024.600 466.002, 1023.500 465.393 C 1021.045 464.034, 1020.332 461.071, 1022.152 459.794 C 1023.208 459.053, 1023.228 458.737, 1022.244 458.338 C 1020.300 457.550, 1021.834 456, 1024.559 456 C 1025.902 456, 1027 455.550, 1027 455 C 1027 454.450, 1025.650 454, 1024 454 C 1021.536 454, 1021 453.589, 1021 451.700 C 1021 450.435, 1021.438 448.962, 1021.974 448.426 C 1023.301 447.099, 1023.435 438.443, 1022.208 433.230 C 1020.784 427.178, 1018.347 423.755, 1015.994 424.502 C 1014.952 424.832, 1012.753 424.407, 1011.107 423.555 C 1008.948 422.439, 1007.918 422.323, 1007.413 423.140 M 853 452.842 C 853 453.305, 851.087 454.300, 848.750 455.053 C 844.869 456.304, 844.735 456.454, 847.201 456.773 C 848.686 456.966, 850.936 456.550, 852.201 455.849 C 853.465 455.148, 854.837 454.671, 855.250 454.788 C 855.663 454.904, 856 454.325, 856 453.500 C 856 452.675, 855.325 452, 854.500 452 C 853.675 452, 853 452.379, 853 452.842 M 834.664 461.040 C 832.653 462.118, 830.143 463, 829.087 463 C 828.031 463, 827.017 463.337, 826.833 463.750 C 826.650 464.163, 824.757 465.307, 822.626 466.293 C 820.496 467.279, 818.988 468.321, 819.275 468.609 C 820.112 469.445, 827.272 467.214, 829.970 465.275 C 831.329 464.299, 834.212 462.783, 836.378 461.906 C 838.543 461.030, 839.866 460.035, 839.318 459.697 C 838.769 459.358, 836.675 459.962, 834.664 461.040 M 828 474 C 827.207 474.490, 826.783 475.116, 827.058 475.391 C 827.333 475.666, 828.207 475.490, 829 475 C 829.793 474.510, 830.217 473.884, 829.942 473.609 C 829.667 473.334, 828.793 473.510, 828 474 M 783.500 483 C 783.160 483.550, 783.332 484, 783.882 484 C 784.432 484, 785.160 483.550, 785.500 483 C 785.840 482.450, 785.668 482, 785.118 482 C 784.568 482, 783.840 482.450, 783.500 483 M 678.443 528.418 C 677.376 529.198, 676.816 530.150, 677.199 530.532 C 677.582 530.915, 679.104 530.277, 680.582 529.114 C 683.588 526.750, 681.606 526.105, 678.443 528.418 M 607.560 569.131 C 600.218 572.216, 599.377 572.710, 600.150 573.484 C 600.768 574.102, 613.749 568.651, 615.262 567.138 C 616.943 565.457, 615.282 565.887, 607.560 569.131 M 611 574 C 611 574.550, 611.675 575, 612.500 575 C 613.325 575, 614 574.550, 614 574 C 614 573.450, 613.325 573, 612.500 573 C 611.675 573, 611 573.450, 611 574 M 605 576.842 C 605 577.305, 602.300 578.501, 599 579.500 C 592.343 581.516, 590.792 583.618, 596.750 582.551 C 603.068 581.419, 606.836 579.737, 607.336 577.825 C 607.630 576.697, 607.275 576, 606.406 576 C 605.633 576, 605 576.379, 605 576.842 M 565 588.670 C 557.832 591.363, 554.522 593.619, 559.500 592.418 C 562.667 591.654, 573 587.035, 573 586.383 C 573 585.766, 571.869 586.089, 565 588.670 M 585.500 587 C 585.160 587.550, 585.359 588, 585.941 588 C 586.523 588, 587 587.550, 587 587 C 587 586.450, 586.802 586, 586.559 586 C 586.316 586, 585.840 586.450, 585.500 587 M 1063.822 589.500 C 1063.177 592.496, 1063.489 593.844, 1064.575 592.758 C 1064.892 592.442, 1064.997 590.904, 1064.809 589.341 L 1064.467 586.500 1063.822 589.500 M 551.500 595.170 C 546.704 597.665, 546.499 597.832, 547.268 598.601 C 548.003 599.337, 556 594.955, 556 593.816 C 556 592.782, 556.212 592.718, 551.500 595.170 M 1071.015 621.559 C 1071.038 622.941, 1072.814 625.520, 1073.364 624.969 C 1073.624 624.710, 1073.198 623.624, 1072.418 622.557 C 1071.638 621.491, 1071.007 621.041, 1071.015 621.559 M 1077.441 648.418 C 1079.694 650.254, 1080.641 650.390, 1081.500 649 C 1081.840 648.450, 1081.453 648, 1080.641 648 C 1079.828 648, 1078.339 647.738, 1077.332 647.418 C 1075.656 646.886, 1075.665 646.971, 1077.441 648.418 M 1058.500 725.923 C 1055.200 727.489, 1047.896 730.931, 1042.269 733.571 C 1036.641 736.211, 1032.217 738.550, 1032.436 738.770 C 1032.920 739.253, 1046.163 735.282, 1050.908 733.230 C 1055.601 731.200, 1067.705 722.991, 1065.936 723.037 C 1065.146 723.058, 1061.800 724.356, 1058.500 725.923 M 1028.813 739.683 C 1029.534 739.972, 1030.397 739.936, 1030.729 739.604 C 1031.061 739.272, 1030.471 739.036, 1029.417 739.079 C 1028.252 739.127, 1028.015 739.364, 1028.813 739.683 M 1025 741 C 1025 741.550, 1025.450 742, 1026 742 C 1026.550 742, 1027 741.550, 1027 741 C 1027 740.450, 1026.550 740, 1026 740 C 1025.450 740, 1025 740.450, 1025 741 M 847.750 797.162 C 846.237 797.715, 845 798.579, 845 799.083 C 845 800.641, 847.661 800.098, 850.139 798.033 C 852.723 795.881, 851.990 795.614, 847.750 797.162 M 808 806.631 C 798.865 810.769, 789.327 814.504, 780.296 817.480 C 773.034 819.873, 767.679 823, 770.843 823 C 772.485 823, 780.989 820.022, 785.438 817.888 C 787.604 816.850, 789.934 816, 790.616 816 C 791.299 816, 792.452 815.419, 793.179 814.709 C 793.905 813.999, 798.325 811.945, 803 810.145 C 807.675 808.345, 812.400 806.481, 813.500 806.004 L 815.500 805.135 813.500 805.090 C 812.400 805.066, 809.925 805.759, 808 806.631 M 741.610 832.823 C 741.285 833.348, 739.777 834.088, 738.259 834.467 C 736.742 834.846, 734.825 835.761, 734 836.502 C 733.175 837.242, 729.881 838.826, 726.681 840.021 C 723.481 841.217, 721.028 842.361, 721.231 842.564 C 721.434 842.767, 725.422 841.486, 730.094 839.717 C 738.740 836.442, 743.852 833.519, 742.790 832.456 C 742.466 832.132, 741.934 832.297, 741.610 832.823 M 717 844 C 716.175 844.533, 715.950 844.969, 716.500 844.969 C 717.050 844.969, 718.175 844.533, 719 844 C 719.825 843.467, 720.050 843.031, 719.500 843.031 C 718.950 843.031, 717.825 843.467, 717 844 M 669 863 C 668.175 863.533, 667.950 863.969, 668.500 863.969 C 669.050 863.969, 670.175 863.533, 671 863 C 671.825 862.467, 672.050 862.031, 671.500 862.031 C 670.950 862.031, 669.825 862.467, 669 863 M 106.646 923.688 C 106.199 924.134, 105.421 924.556, 104.917 924.625 C 104.412 924.694, 103.550 924.806, 103 924.875 C 102.450 924.944, 102 925.675, 102 926.500 C 102 927.325, 101.523 928, 100.941 928 C 100.359 928, 100.177 928.477, 100.537 929.060 C 100.953 929.733, 101.652 929.491, 102.454 928.394 C 103.638 926.774, 103.783 926.786, 104.827 928.584 C 105.891 930.417, 105.940 930.407, 105.970 928.333 C 105.986 927.142, 106.517 925.994, 107.150 925.783 C 107.782 925.572, 108.111 924.832, 107.879 924.138 C 107.648 923.443, 107.093 923.241, 106.646 923.688 M 109 924.500 C 109 925.325, 109.177 926, 109.393 926 C 109.609 926, 110.045 925.325, 110.362 924.500 C 110.678 923.675, 110.501 923, 109.969 923 C 109.436 923, 109 923.675, 109 924.500 M 97.500 925 C 97.160 925.550, 97.359 926, 97.941 926 C 98.523 926, 99 925.550, 99 925 C 99 924.450, 98.802 924, 98.559 924 C 98.316 924, 97.840 924.450, 97.500 925 M 98.583 933.866 C 98.152 934.563, 98.070 935.403, 98.400 935.733 C 99.295 936.628, 100.271 935.312, 99.787 933.862 C 99.449 932.846, 99.213 932.846, 98.583 933.866 M 102 935 C 102 936.506, 101.333 937, 99.300 937 C 97.304 937, 96.893 937.293, 97.722 938.122 C 98.339 938.739, 98.623 939.818, 98.354 940.521 C 97.747 942.101, 99.625 943.415, 100.490 942.016 C 101.432 940.491, 103 940.793, 103 942.500 C 103 943.412, 103.882 943.969, 105.250 943.921 C 106.487 943.878, 106.938 943.615, 106.250 943.338 C 104.437 942.606, 104.716 941.198, 106.642 941.361 C 109.058 941.565, 109.308 939.662, 107.187 937.216 C 105.773 935.585, 105.049 935.351, 104.164 936.236 C 103.279 937.121, 103 937.113, 103 936.200 C 103 935.540, 103.450 935, 104 935 C 104.550 935, 105 934.550, 105 934 C 105 933.450, 104.325 933, 103.500 933 C 102.667 933, 102 933.889, 102 935 M 106.500 934 C 106.840 934.550, 107.879 934.993, 108.809 934.985 C 110.266 934.971, 110.293 934.835, 109 934 C 107.042 932.734, 105.718 932.734, 106.500 934 M 116.079 938.583 C 116.127 939.748, 116.364 939.985, 116.683 939.188 C 116.972 938.466, 116.936 937.603, 116.604 937.271 C 116.272 936.939, 116.036 937.529, 116.079 938.583 M 102 939.059 C 102 939.641, 102.450 939.840, 103 939.500 C 103.550 939.160, 104 938.684, 104 938.441 C 104 938.198, 103.550 938, 103 938 C 102.450 938, 102 938.477, 102 939.059 M 110.079 939.583 C 110.127 940.748, 110.364 940.985, 110.683 940.188 C 110.972 939.466, 110.936 938.603, 110.604 938.271 C 110.272 937.939, 110.036 938.529, 110.079 939.583 M 100.667 945.667 C 99.566 946.767, 99.916 948.170, 101.107 947.434 C 101.845 946.978, 101.998 947.430, 101.566 948.791 C 101.210 949.913, 101.339 951.091, 101.853 951.409 C 102.942 952.082, 104.342 947.363, 103.472 945.954 C 102.784 944.841, 101.612 944.721, 100.667 945.667 M 117.760 953.191 C 118.184 954.812, 117.990 955.112, 116.937 954.461 C 115.630 953.654, 109 953.075, 109 953.769 C 109 954.929, 115.710 956.690, 117.164 955.912 C 118.094 955.415, 119.563 955.279, 120.428 955.611 C 122.290 956.325, 122.425 955.100, 120.715 953 C 118.811 950.663, 117.127 950.772, 117.760 953.191 M 138.500 961 C 138.160 961.550, 138.359 962, 138.941 962 C 139.523 962, 140 961.550, 140 961 C 140 960.450, 139.802 960, 139.559 960 C 139.316 960, 138.840 960.450, 138.500 961 M 816 961.059 C 816 961.641, 816.450 961.840, 817 961.500 C 817.550 961.160, 818 960.684, 818 960.441 C 818 960.198, 817.550 960, 817 960 C 816.450 960, 816 960.477, 816 961.059 M 121.500 962 C 121.840 962.550, 122.316 963, 122.559 963 C 122.802 963, 123 962.550, 123 962 C 123 961.450, 122.523 961, 121.941 961 C 121.359 961, 121.160 961.450, 121.500 962 M 123.459 964.067 C 122.383 965.808, 123.608 966.177, 124.980 964.524 C 125.769 963.574, 125.845 963, 125.181 963 C 124.597 963, 123.821 963.480, 123.459 964.067 M 117.627 965.471 C 117.948 966.306, 118.612 966.740, 119.105 966.435 C 119.597 966.131, 120 966.616, 120 967.512 C 120 969.421, 117.521 972.187, 116.619 971.286 C 116.279 970.945, 116 971.192, 116 971.833 C 116 972.475, 116.563 973, 117.250 973.001 C 117.938 973.001, 118.565 974.126, 118.644 975.501 C 118.750 977.338, 118.286 978, 116.894 978 C 115.852 978, 115 977.550, 115 977 C 115 976.450, 114.438 976.002, 113.750 976.005 C 113.063 976.007, 113.938 977.357, 115.696 979.005 C 119.482 982.553, 119.615 982.582, 120.290 980 C 120.635 978.681, 121.654 978, 123.284 978 C 125.701 978, 128.504 975.838, 127.452 974.785 C 127.160 974.493, 127.864 974.007, 129.017 973.706 C 130.756 973.251, 130.909 973.404, 129.915 974.603 C 128.266 976.590, 129.387 977.398, 131.914 976.046 C 134.185 974.831, 134.765 972.009, 132.750 971.985 C 131.976 971.975, 131.881 971.690, 132.500 971.235 C 133.050 970.831, 133.631 969.600, 133.792 968.500 C 133.955 967.382, 133.734 966.941, 133.292 967.500 C 132.027 969.098, 124.880 972.482, 122.332 972.690 C 119.865 972.891, 119.244 971.156, 121.113 969.287 C 122.422 967.978, 121.643 966.415, 118.967 964.982 C 117.415 964.152, 117.157 964.246, 117.627 965.471 M 139.270 968.931 C 139.350 969.993, 139.752 970.653, 140.164 970.399 C 140.576 970.144, 140.659 969.275, 140.349 968.468 C 139.568 966.432, 139.097 966.634, 139.270 968.931 M 135 972 C 135 972.550, 135.450 973, 136 973 C 136.550 973, 137 972.550, 137 972 C 137 971.450, 136.550 971, 136 971 C 135.450 971, 135 971.450, 135 972 M 145 976.559 C 145 977.416, 145.450 977.840, 146 977.500 C 146.550 977.160, 147 976.459, 147 975.941 C 147 975.423, 146.550 975, 146 975 C 145.450 975, 145 975.702, 145 976.559 M 143.500 981 C 143.160 981.550, 143.326 982, 143.870 982 C 144.413 982, 145.605 982.748, 146.519 983.662 C 147.924 985.067, 148.320 985.106, 149.075 983.912 C 150.728 981.302, 150.056 980, 147.059 980 C 145.441 980, 143.840 980.450, 143.500 981 M 123.585 1001.863 C 123.258 1002.391, 121.872 1002.700, 120.503 1002.550 C 119.135 1002.400, 117.550 1002.838, 116.981 1003.523 C 116.209 1004.453, 116.650 1004.946, 118.713 1005.464 C 120.235 1005.846, 121.831 1006.685, 122.259 1007.329 C 122.818 1008.169, 123.428 1007.990, 124.418 1006.697 C 125.451 1005.347, 125.929 1005.221, 126.320 1006.197 C 126.607 1006.914, 126.878 1006.543, 126.921 1005.372 C 127.010 1002.968, 124.520 1000.349, 123.585 1001.863 M 934.500 1004 C 934.840 1004.550, 935.316 1005, 935.559 1005 C 935.802 1005, 936 1004.550, 936 1004 C 936 1003.450, 935.523 1003, 934.941 1003 C 934.359 1003, 934.160 1003.450, 934.500 1004 M 914.500 1007 C 914.840 1007.550, 915.541 1008, 916.059 1008 C 916.577 1008, 917 1007.550, 917 1007 C 917 1006.450, 916.298 1006, 915.441 1006 C 914.584 1006, 914.160 1006.450, 914.500 1007 M 147.079 1019.583 C 147.127 1020.748, 147.364 1020.985, 147.683 1020.188 C 147.972 1019.466, 147.936 1018.603, 147.604 1018.271 C 147.272 1017.939, 147.036 1018.529, 147.079 1019.583 M 149.500 1020 C 149.840 1020.550, 150.316 1021, 150.559 1021 C 150.802 1021, 151 1020.550, 151 1020 C 151 1019.450, 150.523 1019, 149.941 1019 C 149.359 1019, 149.160 1019.450, 149.500 1020 M 1033.987 1025.448 C 1035.356 1026.205, 1036.866 1026.583, 1037.344 1026.287 C 1038.545 1025.545, 1035.935 1024.026, 1033.500 1024.051 C 1031.729 1024.069, 1031.785 1024.229, 1033.987 1025.448 M 139 1025.965 C 139 1027.070, 142.257 1029, 144.123 1029 C 144.831 1029, 144.443 1028.129, 143.230 1027 C 140.935 1024.862, 139 1024.388, 139 1025.965 M 159 1045 C 159 1045.550, 159.477 1046, 160.059 1046 C 160.641 1046, 160.840 1045.550, 160.500 1045 C 160.160 1044.450, 159.684 1044, 159.441 1044 C 159.198 1044, 159 1044.450, 159 1045 M 221 1059 C 221 1059.550, 221.477 1060, 222.059 1060 C 222.641 1060, 222.840 1059.550, 222.500 1059 C 222.160 1058.450, 221.684 1058, 221.441 1058 C 221.198 1058, 221 1058.450, 221 1059 M 218.510 1062.016 C 218.856 1062.575, 219.557 1062.774, 220.069 1062.457 C 221.456 1061.600, 221.198 1061, 219.441 1061 C 218.584 1061, 218.165 1061.457, 218.510 1062.016 M 225.195 1063.500 C 225.215 1065.150, 225.439 1065.704, 225.693 1064.731 C 225.947 1063.758, 225.930 1062.408, 225.656 1061.731 C 225.382 1061.054, 225.175 1061.850, 225.195 1063.500 M 229 1063.360 C 229 1065.249, 229.404 1065.782, 230.511 1065.357 C 231.642 1064.923, 231.857 1065.246, 231.364 1066.639 C 230.845 1068.106, 230.974 1068.252, 231.975 1067.328 C 233.320 1066.086, 236 1066.604, 236 1068.107 C 236 1068.598, 235.213 1069.033, 234.250 1069.074 C 233.287 1069.114, 234.396 1069.876, 236.713 1070.767 C 239.883 1071.985, 241.074 1073.061, 241.524 1075.110 C 241.853 1076.607, 242.834 1078.106, 243.704 1078.440 C 246.182 1079.391, 246.503 1078.217, 244.411 1075.861 C 242.503 1073.712, 242.504 1073.710, 245.250 1074.216 C 246.762 1074.495, 248 1074.335, 248 1073.861 C 248 1072.166, 250.197 1073.038, 250.692 1074.931 C 251.360 1077.484, 253.975 1078.478, 254.079 1076.219 C 254.127 1075.175, 254.356 1074.991, 254.662 1075.750 C 255.425 1077.641, 256.701 1077.250, 257.306 1074.939 C 257.957 1072.448, 255.273 1071.041, 253.805 1073.104 C 253.011 1074.219, 252.918 1074.165, 253.342 1072.834 C 253.716 1071.661, 252.873 1070.693, 250.495 1069.564 C 248.636 1068.683, 246.528 1068.082, 245.808 1068.231 C 245.089 1068.379, 244.599 1067.977, 244.721 1067.338 C 244.948 1066.140, 239.073 1063.593, 238.169 1064.498 C 237.890 1064.776, 236.951 1064.363, 236.081 1063.580 C 235.212 1062.797, 233.262 1061.847, 231.750 1061.470 C 229.284 1060.854, 229 1061.049, 229 1063.360 M 213.030 1065.857 C 213.014 1066.603, 212.406 1066.986, 211.681 1066.708 C 210.760 1066.354, 210.402 1067.073, 210.496 1069.083 C 210.639 1072.148, 212 1074.485, 212 1071.667 C 212 1070.750, 212.408 1070, 212.906 1070 C 213.405 1070, 213.591 1071.013, 213.320 1072.250 C 212.960 1073.891, 213.088 1074.131, 213.792 1073.137 C 214.608 1071.986, 214.844 1071.986, 215.311 1073.137 C 215.616 1073.887, 215.608 1072.925, 215.295 1071 C 214.662 1067.113, 213.083 1063.526, 213.030 1065.857 M 216.557 1068.250 C 217.364 1070.875, 217.824 1071.509, 218.460 1070.873 C 219.224 1070.109, 217.838 1066, 216.816 1066 C 216.292 1066, 216.175 1067.009, 216.557 1068.250 M 243 1072 C 243 1072.550, 243.450 1073, 244 1073 C 244.550 1073, 245 1072.550, 245 1072 C 245 1071.450, 244.550 1071, 244 1071 C 243.450 1071, 243 1071.450, 243 1072 M 228 1077 C 228 1077.550, 227.325 1078, 226.500 1078 C 225.675 1078, 225 1078.450, 225 1079 C 225 1080.267, 225.647 1080.259, 228.066 1078.965 C 230.105 1077.873, 230.696 1076, 229 1076 C 228.450 1076, 228 1076.450, 228 1077 M 270.020 1079.476 C 269.231 1080.426, 269.155 1081, 269.819 1081 C 271.027 1081, 272.436 1079.103, 271.743 1078.409 C 271.491 1078.158, 270.716 1078.638, 270.020 1079.476 M 240.500 1082 C 240.160 1082.550, 240.359 1083, 240.941 1083 C 241.523 1083, 242 1082.550, 242 1082 C 242 1081.450, 241.802 1081, 241.559 1081 C 241.316 1081, 240.840 1081.450, 240.500 1082 M 249 1082.594 C 249 1083.470, 249.900 1084.423, 251 1084.710 C 252.100 1084.998, 253 1085.631, 253 1086.117 C 253 1086.602, 253.483 1087, 254.073 1087 C 254.664 1087, 254.985 1086.213, 254.787 1085.250 C 254.582 1084.251, 253.699 1083.625, 252.730 1083.790 C 251.558 1083.990, 251.215 1083.603, 251.623 1082.540 C 252.004 1081.547, 251.643 1081, 250.607 1081 C 249.723 1081, 249 1081.717, 249 1082.594 M 243.500 1083 C 243.160 1083.550, 243.359 1084, 243.941 1084 C 244.523 1084, 245 1083.550, 245 1083 C 245 1082.450, 244.802 1082, 244.559 1082 C 244.316 1082, 243.840 1082.450, 243.500 1083 M 256.667 1084.667 C 256.300 1085.033, 256 1085.798, 256 1086.367 C 256 1086.993, 256.466 1086.934, 257.183 1086.217 C 257.834 1085.566, 258.134 1084.801, 257.850 1084.517 C 257.566 1084.233, 257.033 1084.300, 256.667 1084.667 M 265.500 1088 C 265.840 1088.550, 266.568 1089, 267.118 1089 C 267.668 1089, 267.840 1088.550, 267.500 1088 C 267.160 1087.450, 266.432 1087, 265.882 1087 C 265.332 1087, 265.160 1087.450, 265.500 1088 M 264.029 1092.961 C 263.220 1093.473, 262.861 1094.194, 263.231 1094.565 C 263.602 1094.935, 264.633 1094.510, 265.524 1093.619 C 267.283 1091.860, 266.391 1091.467, 264.029 1092.961 M 390.924 1139.916 C 394.158 1142.391, 400.023 1144.224, 399.385 1142.562 C 399.131 1141.899, 396.578 1140.616, 393.712 1139.709 C 388.597 1138.092, 388.545 1138.096, 390.924 1139.916 M 403 1145.500 C 406.272 1147.370, 408.045 1147.348, 405.559 1145.468 C 404.491 1144.661, 402.916 1144.016, 402.059 1144.035 C 401.060 1144.058, 401.398 1144.584, 403 1145.500 M 419.047 1151.185 C 420.249 1152.385, 426.196 1155, 427.721 1155 C 427.953 1155, 427.439 1154.296, 426.579 1153.436 C 425.719 1152.576, 424.600 1152.129, 424.093 1152.442 C 423.586 1152.756, 423.020 1152.619, 422.835 1152.138 C 422.651 1151.658, 421.396 1150.921, 420.047 1150.500 C 417.903 1149.833, 417.777 1149.919, 419.047 1151.185 M 436 1157.393 C 436 1157.609, 436.698 1158.054, 437.552 1158.382 C 438.442 1158.723, 438.843 1158.555, 438.493 1157.989 C 437.906 1157.038, 436 1156.583, 436 1157.393 M 482 1175 C 482 1175.550, 482.477 1176, 483.059 1176 C 483.641 1176, 483.840 1175.550, 483.500 1175 C 483.160 1174.450, 482.684 1174, 482.441 1174 C 482.198 1174, 482 1174.450, 482 1175 M 486 1177 C 487.958 1178.266, 489.282 1178.266, 488.500 1177 C 488.160 1176.450, 487.121 1176.007, 486.191 1176.015 C 484.734 1176.029, 484.707 1176.165, 486 1177 M 550.500 1199 C 550.840 1199.550, 551.568 1200, 552.118 1200 C 552.668 1200, 552.840 1199.550, 552.500 1199 C 552.160 1198.450, 551.432 1198, 550.882 1198 C 550.332 1198, 550.160 1198.450, 550.500 1199 M 570.229 1205.187 C 570.727 1206.682, 573 1207.505, 573 1206.190 C 573 1205.653, 572.287 1204.941, 571.416 1204.606 C 570.443 1204.233, 569.985 1204.456, 570.229 1205.187 M 594 1214 C 593.099 1214.582, 592.975 1214.975, 593.691 1214.985 C 594.346 1214.993, 595.160 1214.550, 595.500 1214 C 596.267 1212.758, 595.921 1212.758, 594 1214 M 606.500 1219 C 606.160 1219.550, 606.584 1220, 607.441 1220 C 608.298 1220, 609 1219.550, 609 1219 C 609 1218.450, 608.577 1218, 608.059 1218 C 607.541 1218, 606.840 1218.450, 606.500 1219 M 620.813 1223.683 C 621.534 1223.972, 622.397 1223.936, 622.729 1223.604 C 623.061 1223.272, 622.471 1223.036, 621.417 1223.079 C 620.252 1223.127, 620.015 1223.364, 620.813 1223.683 M 701 1229 C 701 1229.550, 702.125 1230, 703.500 1230 C 704.875 1230, 706 1229.550, 706 1229 C 706 1228.450, 704.875 1228, 703.500 1228 C 702.125 1228, 701 1228.450, 701 1229 M 665 1238.893 C 665 1239.907, 668.046 1241.288, 668.743 1240.590 C 668.995 1240.339, 668.904 1239.653, 668.541 1239.067 C 667.743 1237.776, 665 1237.641, 665 1238.893 M 675 1242.393 C 675 1242.609, 675.698 1243.054, 676.552 1243.382 C 677.442 1243.723, 677.843 1243.555, 677.493 1242.989 C 676.906 1242.038, 675 1241.583, 675 1242.393 M 757 1260.883 C 757 1261.898, 761.153 1263.181, 761.927 1262.406 C 762.574 1261.759, 759.923 1260.036, 758.250 1260.015 C 757.563 1260.007, 757 1260.398, 757 1260.883 M 816 1280.022 C 816 1280.432, 817.013 1281.038, 818.250 1281.370 C 821.375 1282.207, 822.207 1282.144, 821.574 1281.119 C 820.878 1279.993, 816 1279.033, 816 1280.022 M 829.813 1285.683 C 830.534 1285.972, 831.397 1285.936, 831.729 1285.604 C 832.061 1285.272, 831.471 1285.036, 830.417 1285.079 C 829.252 1285.127, 829.015 1285.364, 829.813 1285.683 M 912.169 1309.297 C 911.373 1310.255, 911.593 1310.571, 913.055 1310.571 C 915.083 1310.571, 915.641 1309.514, 914.113 1308.570 C 913.626 1308.269, 912.751 1308.596, 912.169 1309.297" stroke="none" fill="black" fill-rule="evenodd"/>
</svg>