<svg xmlns="http://www.w3.org/2000/svg" width="1240" height="1753" viewBox="0 0 1240 1753" version="1.1">
	<path d="M 192.911 398.838 C 189.837 399.624, 179.076 409.235, 176.495 413.500 C 175.497 415.150, 173.651 418.075, 172.395 420 C 169.757 424.041, 165.667 438.894, 163.997 450.500 C 163.364 454.900, 161.477 463.900, 159.804 470.500 C 158.130 477.100, 156.199 485.007, 155.511 488.071 C 154.824 491.135, 153.757 494.586, 153.140 495.739 C 152.522 496.893, 151.299 500.461, 150.422 503.668 C 149.545 506.876, 148.387 511.075, 147.850 513 C 146.059 519.425, 142.874 534.446, 142.338 539 C 142.047 541.475, 140.777 546.650, 139.514 550.500 C 135.740 562.014, 133.057 571.285, 132.423 575 C 132.095 576.925, 131.567 579.175, 131.250 580 C 130.932 580.825, 130.595 581.725, 130.500 582 C 130.405 582.275, 130.080 583.175, 129.778 584 C 128.484 587.536, 125.863 598.374, 123.490 610 C 122.088 616.875, 120.503 623.882, 119.970 625.571 C 118.198 631.181, 118.849 640.216, 121.591 648.075 C 123.226 652.763, 124.333 658.413, 124.594 663.401 C 125.036 671.883, 125.691 673.272, 130.390 675.702 C 132.060 676.565, 134.235 678.300, 135.224 679.558 C 137.171 682.033, 149.265 686.572, 151.020 685.488 C 151.607 685.125, 152.743 685.372, 153.544 686.036 C 154.345 686.701, 155 686.996, 155 686.692 C 155 685.826, 159.379 687.381, 175 693.791 C 182.975 697.064, 190.850 700.033, 192.500 700.388 C 194.150 700.743, 196.400 701.211, 197.500 701.428 C 198.600 701.645, 200.767 702.313, 202.316 702.912 C 203.866 703.511, 208.297 704.661, 212.164 705.467 C 219.193 706.933, 233 712.623, 233 714.054 C 233 714.472, 232.100 714.577, 231 714.290 C 229.860 713.992, 229 714.259, 229 714.911 C 229 715.641, 230.359 715.906, 232.750 715.641 C 235.343 715.354, 237.889 715.939, 241 717.537 C 249.608 721.959, 251.401 722.204, 274.500 722.119 C 278.900 722.103, 282.950 722.060, 283.500 722.025 C 284.050 721.990, 289.487 722.118, 295.582 722.310 C 304.563 722.593, 307.549 723.087, 311.329 724.917 C 315.184 726.784, 315.904 727.551, 315.473 729.338 C 315.030 731.177, 315.813 731.889, 320.726 734.104 C 333.450 739.842, 343.803 743.140, 348.109 742.827 C 350.769 742.634, 367.155 747.287, 373.740 750.106 C 377.706 751.803, 377.916 752.089, 376.990 754.525 C 375.291 758.996, 375.733 759.771, 380.250 760.233 C 385.990 760.820, 401.658 764.758, 403.500 766.076 C 405.517 767.519, 419.234 771.124, 420.647 770.582 C 421.462 770.269, 421.835 770.458, 421.493 771.011 C 420.743 772.224, 422.019 772.274, 423.866 771.104 C 424.699 770.576, 426.259 770.775, 427.866 771.613 C 429.315 772.369, 431.085 772.990, 431.800 772.994 C 432.514 772.997, 434.526 773.738, 436.270 774.640 C 438.014 775.541, 441.029 776.491, 442.970 776.751 C 444.912 777.010, 446.725 777.555, 447 777.962 C 447.275 778.369, 451.325 779.918, 456 781.405 C 460.675 782.891, 465.175 784.524, 466 785.034 C 469.515 787.205, 478.713 791.241, 484.384 793.101 C 487.748 794.204, 491.244 795.509, 492.153 796.001 C 493.063 796.494, 500.263 798.997, 508.153 801.564 C 516.044 804.132, 522.950 806.584, 523.500 807.013 C 524.050 807.443, 531.250 809.921, 539.500 812.520 C 547.750 815.120, 554.725 817.568, 555 817.960 C 555.275 818.353, 560.450 820.351, 566.500 822.401 C 572.550 824.451, 579.750 827.191, 582.500 828.490 C 585.250 829.789, 590.080 831.619, 593.233 832.557 L 598.967 834.263 596.233 837.447 C 593.292 840.872, 586.642 845.716, 581 848.542 C 579.075 849.506, 575.665 851.794, 573.423 853.626 C 567.348 858.590, 562.966 860.084, 555.401 859.771 C 550.435 859.566, 548.556 859.874, 547.670 861.037 C 547.027 861.883, 544.250 863.871, 541.500 865.456 C 538.750 867.041, 534.523 869.836, 532.106 871.669 C 529.690 873.501, 527.124 875, 526.406 875 C 525.687 875, 524.740 875.567, 524.300 876.261 C 523.860 876.954, 521.025 878.637, 518 880 C 514.975 881.364, 512.274 882.780, 511.998 883.147 C 511.722 883.514, 505.647 886.147, 498.498 888.997 C 491.349 891.848, 485.049 894.552, 484.498 895.007 C 482.994 896.247, 473.018 900.129, 468.771 901.125 C 466.721 901.607, 461.679 903.575, 457.568 905.500 C 453.456 907.425, 449.487 909, 448.746 909 C 448.006 909, 446.963 909.437, 446.429 909.971 C 445.894 910.506, 444.567 911.101, 443.479 911.295 C 442.390 911.489, 439.758 912.402, 437.628 913.324 C 435.498 914.246, 433.153 915, 432.417 915 C 431.680 915, 430.273 915.837, 429.289 916.859 C 427.763 918.445, 425.449 919.414, 420.500 920.540 C 419.950 920.665, 415.225 922.762, 410 925.200 C 404.775 927.638, 396 931.397, 390.500 933.554 C 385 935.711, 380.275 937.706, 380 937.988 C 379.725 938.270, 376.350 939.548, 372.500 940.829 C 368.650 942.110, 364.600 943.534, 363.500 943.993 C 360.315 945.322, 340.291 950, 337.780 950.001 C 336.526 950.002, 331 951.102, 325.500 952.446 C 320 953.790, 309.650 956.277, 302.500 957.973 C 295.350 959.669, 288.600 961.478, 287.500 961.994 C 286.400 962.510, 282.350 963.902, 278.500 965.088 C 270.776 967.467, 258.887 973.618, 255 977.246 C 249.687 982.205, 227.392 993.979, 223.246 994.015 C 221.770 994.028, 221.730 994.176, 222.984 994.969 C 224.148 995.705, 223.610 996.261, 220.484 997.553 C 218.293 998.458, 215.825 999.797, 215 1000.528 C 214.175 1001.259, 213.050 1001.890, 212.500 1001.930 C 211.950 1001.970, 210.067 1002.272, 208.315 1002.601 C 206.563 1002.929, 204.635 1002.893, 204.031 1002.519 C 202.094 1001.322, 207.546 998.039, 217.225 994.573 C 222.326 992.746, 227.850 990.523, 229.500 989.631 C 231.150 988.740, 233.908 987.743, 235.630 987.417 C 237.666 987.030, 239.162 985.939, 239.911 984.295 C 241.016 981.870, 240.953 981.795, 238.349 982.449 C 236.856 982.823, 234.332 984.226, 232.740 985.565 C 231.149 986.904, 229.056 988, 228.090 988 C 227.124 988, 225.996 988.337, 225.583 988.750 C 225.171 989.163, 224.533 989.539, 224.167 989.586 C 223.800 989.634, 222.825 989.955, 222 990.299 C 218.325 991.835, 187.148 1002.233, 184 1002.973 C 182.075 1003.426, 176.276 1005.980, 171.114 1008.648 C 163.951 1012.351, 161.005 1014.509, 158.676 1017.762 C 156.391 1020.955, 155.911 1022.311, 156.766 1023.166 C 157.601 1024.001, 157.613 1024.854, 156.810 1026.355 C 155.998 1027.872, 156.017 1028.506, 156.882 1028.794 C 157.674 1029.058, 157.388 1030.254, 155.992 1032.512 C 153.753 1036.136, 154.546 1037.596, 158.134 1036.457 C 159.746 1035.946, 160.060 1036.110, 159.453 1037.143 C 159.015 1037.889, 159.634 1037.643, 160.828 1036.595 C 163.273 1034.451, 163.603 1035.006, 161.750 1038.144 C 160.750 1039.838, 160.750 1040.352, 161.750 1040.714 C 162.553 1041.005, 163 1043.227, 163 1046.927 C 163 1052.596, 162.922 1052.752, 158.092 1056.825 C 154.850 1059.559, 152.139 1063.109, 150.105 1067.285 C 147.330 1072.980, 147.145 1073.925, 148.239 1076.823 C 148.907 1078.592, 149.982 1079.837, 150.628 1079.589 C 151.274 1079.341, 152.039 1080.041, 152.327 1081.143 C 152.616 1082.246, 153.785 1083.393, 154.926 1083.691 C 156.067 1083.989, 157 1084.911, 157 1085.739 C 157 1086.905, 157.311 1086.987, 158.378 1086.101 C 159.460 1085.203, 159.869 1085.391, 160.284 1086.978 C 160.575 1088.089, 160.386 1089.261, 159.865 1089.583 C 159.345 1089.905, 159.192 1091.030, 159.527 1092.084 C 159.970 1093.481, 159.642 1094.019, 158.317 1094.070 C 156.696 1094.133, 156.715 1094.226, 158.500 1094.932 C 159.600 1095.367, 161.143 1095.481, 161.929 1095.186 C 162.929 1094.810, 162.779 1095.443, 161.429 1097.294 L 159.500 1099.940 157.750 1097.859 C 155.294 1094.939, 155.399 1097.960, 157.863 1101.115 C 159.601 1103.340, 160.076 1108.136, 158.939 1111.989 C 158.606 1113.119, 159.223 1113.400, 161.500 1113.153 C 163.929 1112.890, 164.262 1113.073, 163.250 1114.114 C 161.870 1115.534, 161.534 1117.406, 162.800 1116.623 C 163.240 1116.351, 163.591 1118.687, 163.579 1121.814 C 163.560 1126.924, 163.758 1127.466, 165.529 1127.166 C 167.118 1126.898, 167.258 1127.082, 166.250 1128.116 C 164.648 1129.761, 164.570 1133.384, 166.158 1132.403 C 166.946 1131.916, 167.140 1132.355, 166.768 1133.779 C 166.434 1135.056, 166.762 1136.078, 167.611 1136.404 C 168.377 1136.698, 169 1138.307, 169 1139.993 C 169 1142.352, 169.584 1143.272, 171.560 1144.023 C 172.968 1144.558, 173.837 1145.454, 173.491 1146.014 C 173.145 1146.574, 172.443 1146.774, 171.931 1146.457 C 171.419 1146.141, 171 1146.746, 171 1147.802 C 171 1149.311, 171.535 1149.620, 173.500 1149.245 C 176.426 1148.685, 176.698 1150.005, 174.385 1153.535 C 172.868 1155.851, 172.883 1156.001, 174.635 1156.015 C 175.893 1156.026, 176.105 1156.281, 175.288 1156.801 C 173.969 1157.639, 174.664 1162, 176.117 1162 C 176.602 1162, 177.025 1162.787, 177.055 1163.750 C 177.086 1164.713, 178.422 1166.536, 180.025 1167.801 C 182.339 1169.628, 183.344 1169.886, 184.901 1169.053 C 186.348 1168.278, 187.209 1168.351, 188.189 1169.332 C 188.920 1170.063, 190.076 1170.475, 190.759 1170.247 C 191.442 1170.019, 192 1170.321, 192 1170.917 C 192 1171.513, 191.325 1172, 190.500 1172 C 189.675 1172, 189 1172.450, 189 1173 C 189 1173.550, 189.675 1174, 190.500 1174 C 191.583 1174, 192 1175.111, 192 1178 C 192 1180.200, 191.606 1182, 191.125 1182 C 189.687 1182, 190.136 1187.115, 191.625 1187.686 C 192.532 1188.035, 193 1189.878, 193 1193.107 C 193 1195.798, 193.450 1198, 194 1198 C 194.550 1198, 195 1198.810, 195 1199.800 C 195 1200.790, 195.536 1202.136, 196.191 1202.791 C 197.584 1204.184, 197.664 1213.948, 196.291 1214.871 C 193.975 1216.426, 194.123 1219.357, 196.767 1224.321 C 199.199 1228.886, 199.940 1229.534, 203.013 1229.784 C 204.931 1229.941, 206.650 1230.503, 206.833 1231.034 C 207.017 1231.565, 207.788 1232, 208.548 1232 C 210.036 1232, 212.518 1235.816, 211.616 1236.717 C 211.316 1237.017, 211.497 1238.059, 212.018 1239.033 C 213.224 1241.287, 211.349 1247, 209.402 1247 C 207.777 1247, 207.530 1248.591, 209.012 1249.508 C 209.651 1249.902, 209.685 1250.741, 209.105 1251.777 C 208.495 1252.867, 208.709 1254.731, 209.741 1257.310 C 211.047 1260.574, 211.077 1261.335, 209.927 1262.045 C 209.174 1262.510, 208.770 1263.028, 209.029 1263.196 C 209.288 1263.363, 210.400 1263.998, 211.500 1264.607 C 213.955 1265.966, 214.668 1268.929, 212.848 1270.206 C 211.792 1270.947, 211.772 1271.263, 212.756 1271.662 C 214.700 1272.450, 213.166 1274, 210.441 1274 C 209.098 1274, 208 1274.450, 208 1275 C 208 1275.550, 209.350 1276, 211 1276 C 213.464 1276, 214 1276.411, 214 1278.300 C 214 1279.565, 213.562 1281.038, 213.026 1281.574 C 211.699 1282.901, 211.565 1291.557, 212.792 1296.770 C 214.216 1302.822, 216.653 1306.245, 219.006 1305.498 C 220.048 1305.168, 222.247 1305.593, 223.893 1306.445 C 226.052 1307.561, 227.082 1307.677, 227.587 1306.860 C 228.071 1306.075, 230.877 1305.926, 236.709 1306.374 C 241.378 1306.733, 244.893 1306.636, 244.597 1306.157 C 243.775 1304.826, 248.643 1303, 253.012 1303 C 255.167 1303, 258.858 1302.390, 261.215 1301.644 C 263.572 1300.898, 267.525 1299.692, 270 1298.964 C 272.475 1298.236, 275.009 1297.260, 275.631 1296.796 C 276.253 1296.332, 279.403 1295.282, 282.631 1294.464 C 285.859 1293.645, 289.400 1292.563, 290.500 1292.059 C 291.600 1291.556, 294.300 1290.845, 296.500 1290.480 C 298.700 1290.115, 301.625 1289.193, 303 1288.430 C 304.375 1287.668, 307.975 1286.199, 311 1285.167 C 314.025 1284.134, 320.325 1281.847, 325 1280.084 C 342.604 1273.444, 341 1273.849, 341 1276.044 C 341 1278.651, 343.854 1278.581, 349.805 1275.828 C 355.528 1273.180, 360.768 1272.962, 362.477 1275.300 C 363.897 1277.241, 365.281 1277.426, 367.764 1276.007 C 368.719 1275.461, 371.300 1274.375, 373.500 1273.593 C 389.110 1268.044, 394.748 1265.415, 393.567 1264.233 C 393.302 1263.968, 394.078 1262.946, 395.293 1261.962 C 396.507 1260.978, 397.275 1259.958, 397 1259.696 C 396.448 1259.170, 380.241 1264.023, 378.250 1265.310 C 377.528 1265.777, 377 1265.671, 377 1265.059 C 377 1264.477, 377.113 1263.998, 377.250 1263.997 C 377.387 1263.995, 380.875 1262.601, 385 1260.899 C 389.125 1259.197, 395.650 1256.916, 399.500 1255.830 C 403.350 1254.744, 407.850 1253.257, 409.500 1252.527 C 414.949 1250.113, 418.467 1249.338, 421 1249.993 C 422.375 1250.349, 424.288 1250.162, 425.250 1249.579 C 427.975 1247.928, 427.308 1246.933, 424.250 1248.088 C 422.228 1248.851, 421.792 1248.831, 422.602 1248.010 C 423.209 1247.397, 424.784 1246.751, 426.102 1246.575 C 428.420 1246.266, 434.887 1243.841, 438.033 1242.102 C 438.876 1241.636, 441.095 1240.918, 442.965 1240.508 C 444.835 1240.097, 447.745 1238.987, 449.432 1238.041 C 451.120 1237.095, 454.975 1235.515, 458 1234.528 C 461.025 1233.542, 463.950 1232.405, 464.500 1232.001 C 465.050 1231.597, 468.650 1230.255, 472.500 1229.019 C 476.350 1227.783, 480.400 1226.226, 481.500 1225.558 C 482.600 1224.891, 485.966 1223.549, 488.980 1222.577 C 491.993 1221.605, 495.818 1219.857, 497.480 1218.694 C 499.681 1217.151, 500.128 1217.042, 499.128 1218.289 C 497.666 1220.111, 498.597 1220.541, 500.878 1219.096 C 501.636 1218.616, 501.979 1217.775, 501.641 1217.227 C 501.295 1216.668, 503.078 1215.714, 505.706 1215.053 C 512.242 1213.407, 517.518 1210.843, 524.500 1205.921 C 527.800 1203.595, 531.850 1201.350, 533.500 1200.933 C 536.826 1200.093, 542.173 1198.275, 546 1196.683 C 548.717 1195.552, 549.478 1195.315, 551 1195.125 C 551.550 1195.056, 552 1194.355, 552 1193.567 C 552 1192.779, 553.013 1191.829, 554.250 1191.456 C 555.487 1191.083, 557.850 1190.197, 559.500 1189.487 C 561.150 1188.777, 565.763 1186.956, 569.750 1185.440 C 573.779 1183.908, 577 1182.088, 577 1181.342 C 577 1180.604, 577.418 1180, 577.929 1180 C 578.439 1180, 579.489 1179.368, 580.262 1178.596 C 581.034 1177.823, 586.354 1175.267, 592.083 1172.916 C 597.812 1170.565, 603.388 1168.047, 604.473 1167.320 C 607.729 1165.141, 609.889 1165.738, 607 1168.019 L 604.500 1169.993 607.688 1168.920 C 609.442 1168.330, 612.592 1166.939, 614.688 1165.828 L 618.500 1163.809 614.500 1164.493 C 609.265 1165.390, 610.032 1164.808, 618.500 1161.461 C 622.350 1159.939, 627.067 1157.637, 628.982 1156.347 C 630.897 1155.056, 632.783 1154, 633.173 1154 C 634.814 1154, 650.784 1145.965, 651.961 1144.547 C 652.667 1143.696, 653.842 1143, 654.573 1143 C 655.303 1143, 656.260 1142.391, 656.700 1141.646 C 657.832 1139.729, 661.442 1138, 664.312 1138 C 665.656 1138, 667.315 1137.325, 668 1136.500 C 668.685 1135.675, 670.090 1135, 671.122 1135 C 672.155 1135, 673 1134.643, 673 1134.207 C 673 1133.770, 674.688 1132.893, 676.750 1132.256 C 683.394 1130.206, 699.516 1124.417, 700.813 1123.615 C 701.505 1123.188, 707.236 1121.085, 713.547 1118.942 C 719.859 1116.799, 726.706 1114.140, 728.762 1113.032 C 730.818 1111.924, 737.450 1109.153, 743.500 1106.875 C 749.550 1104.596, 755.175 1102.150, 756 1101.438 C 757.621 1100.040, 761.527 1098.643, 775.500 1094.461 C 780.450 1092.979, 785.013 1091.355, 785.640 1090.852 C 786.267 1090.349, 791.936 1088.205, 798.236 1086.089 C 804.537 1083.972, 811.224 1081.533, 813.096 1080.668 C 817.965 1078.420, 838.060 1071.006, 839.386 1070.969 C 839.999 1070.951, 843.152 1069.619, 846.393 1068.008 C 849.635 1066.398, 854.247 1064.786, 856.643 1064.426 C 859.040 1064.067, 861 1063.419, 861 1062.987 C 861 1062.555, 862.913 1061.982, 865.250 1061.715 C 870.027 1061.168, 878.238 1058.988, 879 1058.064 C 879.275 1057.731, 886.025 1055.486, 894 1053.075 C 901.975 1050.665, 909.400 1048.158, 910.500 1047.505 C 911.600 1046.851, 917.837 1044.641, 924.359 1042.595 C 930.882 1040.548, 938.532 1037.852, 941.359 1036.604 C 944.187 1035.356, 948.300 1033.847, 950.500 1033.252 C 952.700 1032.656, 956.289 1031.692, 958.475 1031.109 C 960.821 1030.484, 962.817 1030.417, 963.347 1030.947 C 964.559 1032.159, 967 1031.121, 967 1029.393 C 967 1028.627, 967.436 1028, 967.969 1028 C 968.501 1028, 968.662 1028.717, 968.326 1029.593 C 967.820 1030.911, 968.424 1030.824, 971.817 1029.093 C 974.074 1027.942, 976.550 1027, 977.319 1027 C 978.089 1027, 981.257 1025.645, 984.359 1023.990 C 987.462 1022.334, 990.014 1021.322, 990.032 1021.740 C 990.049 1022.158, 990.612 1021.825, 991.282 1021 C 991.952 1020.175, 994.010 1019.450, 995.856 1019.388 C 997.701 1019.327, 999.501 1018.873, 999.856 1018.380 C 1000.210 1017.887, 1002.975 1016.633, 1006 1015.594 C 1009.025 1014.555, 1012.400 1013.227, 1013.500 1012.643 C 1014.600 1012.058, 1016.024 1011.686, 1016.663 1011.814 C 1017.847 1012.052, 1029.041 1008.126, 1034.500 1005.558 C 1036.150 1004.782, 1038.963 1003.610, 1040.750 1002.952 C 1042.537 1002.295, 1044 1001.411, 1044 1000.988 C 1044 1000.565, 1045.463 999.985, 1047.250 999.699 C 1049.037 999.413, 1051.400 998.948, 1052.500 998.666 C 1053.600 998.384, 1054.725 998.112, 1055 998.061 C 1055.275 998.011, 1054.825 997.533, 1054 997 C 1052.750 996.192, 1052.833 996.010, 1054.500 995.909 C 1055.600 995.843, 1057.646 995.860, 1059.046 995.948 C 1060.447 996.036, 1062.736 995.209, 1064.134 994.109 C 1065.531 993.010, 1068.773 991.582, 1071.337 990.937 C 1073.902 990.291, 1076 989.380, 1076 988.913 C 1076 988.445, 1076.624 988.302, 1077.386 988.594 C 1078.148 988.887, 1082.207 987.973, 1086.407 986.563 C 1090.606 985.153, 1094.560 984, 1095.192 984 C 1095.825 984, 1097.053 983.383, 1097.921 982.629 C 1098.790 981.875, 1102.200 980.338, 1105.500 979.215 C 1113.671 976.433, 1121.515 973.328, 1127.500 970.508 C 1130.250 969.212, 1136.090 966.516, 1140.477 964.517 C 1144.865 962.518, 1148.690 960.542, 1148.977 960.125 C 1149.867 958.836, 1158.389 953.309, 1160.509 952.646 C 1163.179 951.812, 1168.724 940.179, 1170.112 932.500 C 1170.772 928.846, 1170.976 920.245, 1170.633 910.500 C 1170.324 901.700, 1170.061 892.925, 1170.049 891 C 1170.038 889.075, 1169.519 885.925, 1168.897 884 C 1168.275 882.075, 1167.409 878.250, 1166.973 875.500 C 1165.356 865.294, 1157.701 841.023, 1153.654 833.267 C 1152.726 831.489, 1151.686 827.989, 1151.344 825.490 C 1151.001 822.990, 1150.334 820.706, 1149.860 820.414 C 1149.387 820.121, 1148.985 818.671, 1148.967 817.191 C 1148.923 813.518, 1145.494 803.842, 1144.562 804.760 C 1144.148 805.167, 1143.906 804.825, 1144.023 804 C 1144.413 801.266, 1144.013 799.874, 1143.015 800.491 C 1142.408 800.866, 1142.255 799.976, 1142.616 798.171 C 1142.956 796.471, 1142.733 794.953, 1142.084 794.552 C 1141.470 794.172, 1141.257 793.393, 1141.612 792.819 C 1141.966 792.246, 1141.668 791.413, 1140.948 790.968 C 1140.229 790.524, 1139.523 789.561, 1139.378 788.830 C 1139.234 788.098, 1138.720 785.475, 1138.236 783 C 1137.752 780.525, 1136.889 778.591, 1136.318 778.703 C 1135.677 778.829, 1135.399 776.919, 1135.591 773.703 C 1135.761 770.841, 1136.330 768.598, 1136.854 768.718 C 1137.977 768.974, 1139.658 747.936, 1139.146 740.043 C 1138.682 732.902, 1135.262 725.559, 1129.856 720.102 C 1124.728 714.924, 1120.332 712.752, 1117.764 714.126 C 1116.643 714.726, 1116 714.717, 1116 714.103 C 1116 713.570, 1116.880 712.856, 1117.955 712.514 C 1119.619 711.986, 1118.414 710.378, 1109.851 701.697 C 1104.319 696.089, 1098.647 690.019, 1097.246 688.208 C 1095.845 686.398, 1092.067 683.070, 1088.850 680.813 C 1085.632 678.557, 1083 676.356, 1083 675.922 C 1083 675.489, 1081.993 674.815, 1080.763 674.425 C 1079.533 674.034, 1076.945 672.693, 1075.013 671.445 C 1073.081 670.196, 1069.025 668.390, 1066 667.431 C 1062.975 666.472, 1059.600 665.361, 1058.500 664.962 C 1057.400 664.563, 1052.732 663.742, 1048.126 663.138 C 1043.520 662.533, 1039.133 661.525, 1038.376 660.897 C 1037.619 660.269, 1037 660.047, 1037 660.403 C 1037 660.760, 1035.672 660.365, 1034.050 659.526 C 1030.319 657.597, 1028.905 657.588, 1029.638 659.500 C 1029.955 660.325, 1029.689 661, 1029.048 661 C 1028.407 661, 1028.110 660.630, 1028.390 660.178 C 1029.666 658.113, 1018.479 653, 1012.685 653 C 1009.445 653, 1007.053 655.700, 1009.471 656.627 C 1010.820 657.145, 1010.894 657.452, 1009.834 658.124 C 1008.835 658.757, 1008.814 658.973, 1009.750 658.985 C 1010.438 658.993, 1011 659.450, 1011 660 C 1011 660.550, 1010.073 661, 1008.941 661 C 1007.809 661, 1007.158 660.553, 1007.496 660.007 C 1007.841 659.448, 1007.101 659.068, 1005.805 659.138 C 1002.225 659.331, 995.731 656.142, 996.361 654.501 C 996.718 653.572, 996.400 653.293, 995.416 653.671 C 994.175 654.147, 994.119 653.833, 995.072 651.741 C 995.859 650.015, 996.785 649.393, 998.070 649.728 C 999.092 649.996, 999.832 650.504, 999.714 650.857 C 999.415 651.755, 1000.604 651.916, 1002.967 651.298 C 1004.890 650.796, 1004.867 650.683, 1002.461 648.790 C 1001.075 647.700, 999.256 647.072, 998.419 647.393 C 997.581 647.714, 997.141 647.582, 997.439 647.098 C 997.738 646.615, 996.425 645.927, 994.521 645.570 C 992.617 645.213, 989.808 643.873, 988.279 642.592 C 986.751 641.311, 983.250 639.298, 980.500 638.118 C 977.750 636.939, 974.263 635.325, 972.750 634.533 C 971.237 633.741, 970 633.522, 970 634.047 C 970 634.571, 969.523 635, 968.941 635 C 968.359 635, 968.160 634.550, 968.500 634 C 968.840 633.450, 968.641 633, 968.059 633 C 967.477 633, 967 633.450, 967 634 C 967 634.550, 966.564 635, 966.031 635 C 965.499 635, 965.300 634.383, 965.589 633.629 C 965.878 632.875, 965.350 631.964, 964.414 631.606 C 962.214 630.761, 961.121 631.839, 963 633 C 963.793 633.490, 964.139 634.194, 963.769 634.565 C 963.097 635.237, 960 632.719, 960 631.500 C 960 629.341, 950.026 624.308, 948.590 625.743 C 948.266 626.068, 948 625.880, 948 625.326 C 948 624.773, 945.519 623.724, 942.487 622.997 C 939.455 622.270, 936.475 621.073, 935.865 620.337 C 935.255 619.602, 934 619, 933.078 619 C 932.155 619, 930.972 618.576, 930.450 618.057 C 929.927 617.539, 927.700 616.669, 925.500 616.123 C 913.339 613.109, 905.561 610.890, 904.593 610.159 C 901.751 608.010, 885.340 603.697, 875.500 602.513 C 870.564 601.919, 864.973 600.205, 864 598.988 C 863.111 597.875, 854.413 593.998, 852.934 594.056 C 852.145 594.087, 853.504 594.924, 855.954 595.918 C 858.404 596.911, 860.579 598.236, 860.787 598.862 C 861.245 600.236, 858.782 600.379, 857.450 599.055 C 856.927 598.536, 852.675 597.210, 848 596.108 C 837.662 593.673, 826.620 590.001, 826.167 588.848 C 825.983 588.381, 824.948 588, 823.867 588 C 822.786 588, 820.667 587.362, 819.158 586.582 C 817.650 585.802, 813.804 584.246, 810.612 583.124 C 807.419 582.002, 804.063 580.254, 803.154 579.240 C 800.841 576.663, 795.463 573.535, 789 571.007 C 782.266 568.374, 779.787 566.308, 785.986 568.495 C 790.352 570.036, 790.408 570.029, 788.459 568.213 C 785.655 565.601, 782.265 564.867, 781.554 566.719 C 781.049 568.035, 780.708 568.040, 778.740 566.763 C 775.252 564.499, 760.146 559.759, 755.596 559.500 C 750.588 559.215, 748 558.199, 748 556.516 C 748 555.313, 739.403 551, 737.006 551 C 736.388 551, 736.134 550.592, 736.442 550.093 C 736.751 549.595, 736.032 549.440, 734.845 549.751 C 733.462 550.112, 732.924 549.933, 733.345 549.251 C 733.764 548.573, 733.185 548.366, 731.751 548.680 C 729.891 549.088, 729.761 548.973, 731 548.021 C 732.222 547.083, 732.072 546.990, 730.192 547.520 C 728.530 547.989, 727.365 547.574, 726.031 546.036 C 724.892 544.723, 723.930 544.305, 723.531 544.950 C 722.748 546.217, 719 546.361, 719 545.125 C 719 544.644, 717.538 543.955, 715.750 543.595 C 713.485 543.139, 712.903 542.689, 713.830 542.111 C 714.743 541.543, 713.585 540.767, 710.142 539.641 C 703.490 537.465, 702.396 537.649, 708 540 C 714.142 542.577, 710.379 542.514, 703.823 539.930 C 699.186 538.102, 698.059 538.004, 694.191 539.086 C 691.372 539.876, 689.578 539.963, 689.156 539.331 C 688.795 538.791, 686.925 537.483, 685 536.425 C 683.075 535.366, 681.275 534.253, 681 533.951 C 679.804 532.637, 669.304 529.986, 661.251 528.966 C 656.438 528.356, 651.073 527.210, 649.330 526.419 C 647.586 525.629, 644.774 524.705, 643.080 524.366 C 641.386 524.027, 640 523.409, 640 522.991 C 640 522.574, 637.124 521.925, 633.608 521.549 C 630.093 521.172, 625.677 520.039, 623.794 519.030 C 621.912 518.021, 617.138 516.232, 613.186 515.055 C 609.234 513.878, 606 512.484, 606 511.958 C 606 511.431, 605.299 511, 604.441 511 C 602.499 511, 574.684 501.762, 574 500.889 C 573.222 499.897, 556.157 496.048, 549.756 495.420 C 545.167 494.971, 543.422 494.269, 541.083 491.929 C 538.124 488.970, 536 488.164, 536 490 C 536 490.550, 536.675 491, 537.500 491 C 538.325 491, 539 491.637, 539 492.417 C 539 493.196, 539.563 494.060, 540.250 494.338 C 540.938 494.615, 540.375 494.875, 539 494.915 C 535.570 495.016, 529.812 493.327, 527.454 491.528 C 525.764 490.239, 525.702 489.903, 527 489.034 C 528.221 488.217, 528.076 488.028, 526.218 488.015 C 522.690 487.992, 517 485.273, 517 483.610 C 517 481.329, 515.125 480.575, 507.500 479.786 C 497.520 478.754, 488.429 477.431, 481.500 476.001 C 478.200 475.320, 474.488 474.769, 473.250 474.776 C 472.012 474.783, 471 474.400, 471 473.925 C 471 473.450, 469.536 473.116, 467.746 473.183 C 465.956 473.251, 462.989 472.529, 461.153 471.579 C 459.317 470.629, 457.593 470.074, 457.322 470.345 C 456.769 470.897, 450.775 469.016, 450 468.047 C 449.725 467.703, 446.575 466.188, 443 464.681 C 436.510 461.946, 434.913 461.157, 425.500 456.033 C 422.750 454.537, 418.035 452.497, 415.023 451.500 C 412.010 450.504, 408.941 449.083, 408.201 448.344 C 407.462 447.605, 405.946 447, 404.833 447 C 403.720 447, 401.614 446.162, 400.154 445.139 C 398.694 444.115, 395.852 442.743, 393.838 442.090 C 391.825 441.437, 389.926 440.250, 389.620 439.452 C 389.291 438.595, 387.719 437.995, 385.781 437.989 C 382.691 437.978, 373.205 435.327, 356 429.666 C 351.875 428.309, 345.125 426.452, 341 425.539 C 336.875 424.626, 332.488 423.221, 331.250 422.417 C 330.012 421.612, 329 421.244, 329 421.599 C 329 421.954, 328.325 421.685, 327.500 421 C 326.391 420.080, 326 420.062, 326 420.930 C 326 421.576, 327.349 422.574, 328.999 423.149 C 330.648 423.724, 331.746 424.602, 331.438 425.100 C 331.106 425.637, 330.170 425.626, 329.135 425.072 C 328.177 424.559, 326.798 424.507, 326.073 424.955 C 325.347 425.404, 323.346 425.401, 321.627 424.949 C 319.907 424.498, 316.648 423.648, 314.385 423.062 C 310.870 422.151, 306.776 419.628, 301.227 414.951 C 299.246 413.282, 279.368 408.601, 269.625 407.510 C 266.944 407.209, 264.446 406.776, 264.074 406.546 C 263.701 406.315, 259.370 405.624, 254.448 405.008 C 249.527 404.393, 244.600 403.501, 243.500 403.026 C 237.450 400.416, 199.145 397.245, 192.911 398.838 M 320 420.155 C 320 421.601, 321.798 421.949, 322.831 420.703 C 323.627 419.745, 323.407 419.429, 321.945 419.429 C 320.875 419.429, 320 419.756, 320 420.155 M 403.813 444.683 C 404.534 444.972, 405.397 444.936, 405.729 444.604 C 406.061 444.272, 405.471 444.036, 404.417 444.079 C 403.252 444.127, 403.015 444.364, 403.813 444.683 M 413.426 448.881 C 414.122 450.007, 419 450.967, 419 449.978 C 419 449.568, 417.988 448.962, 416.750 448.630 C 413.625 447.793, 412.793 447.856, 413.426 448.881 M 473 467.865 C 473 469.041, 476.880 470.453, 477.742 469.591 C 478.511 468.822, 477.994 468.400, 475.250 467.557 C 473.956 467.159, 473 467.290, 473 467.865 M 557.733 487.124 C 558.412 487.808, 559.219 488.115, 559.526 487.807 C 559.834 487.499, 559.279 486.940, 558.293 486.564 C 556.868 486.022, 556.753 486.136, 557.733 487.124 M 566 490.031 C 566 491.320, 568.849 492.484, 569.764 491.569 C 570.137 491.196, 569.780 490.473, 568.971 489.961 C 567.035 488.737, 566 488.761, 566 490.031 M 529 501 C 529 501.550, 530.125 502, 531.500 502 C 532.875 502, 534 501.550, 534 501 C 534 500.450, 532.875 500, 531.500 500 C 530.125 500, 529 500.450, 529 501 M 612.813 506.683 C 613.534 506.972, 614.397 506.936, 614.729 506.604 C 615.061 506.272, 614.471 506.036, 613.417 506.079 C 612.252 506.127, 612.015 506.364, 612.813 506.683 M 626 511 C 626 511.550, 626.423 512, 626.941 512 C 627.459 512, 628.160 511.550, 628.500 511 C 628.840 510.450, 628.416 510, 627.559 510 C 626.702 510, 626 510.450, 626 511 M 639.507 515.989 C 639.157 516.555, 639.558 516.723, 640.448 516.382 C 642.180 515.717, 642.497 515, 641.059 515 C 640.541 515, 639.843 515.445, 639.507 515.989 M 662 523.810 C 662 524.347, 662.713 525.059, 663.584 525.394 C 664.557 525.767, 665.015 525.544, 664.771 524.813 C 664.273 523.318, 662 522.495, 662 523.810 M 682.500 531 C 682.840 531.550, 683.568 532, 684.118 532 C 684.668 532, 684.840 531.550, 684.500 531 C 684.160 530.450, 683.432 530, 682.882 530 C 682.332 530, 682.160 530.450, 682.500 531 M 746.500 553 C 746.840 553.550, 747.879 553.993, 748.809 553.985 C 750.266 553.971, 750.293 553.835, 749 553 C 747.042 551.734, 745.718 551.734, 746.500 553 M 751.500 555 C 751.840 555.550, 752.316 556, 752.559 556 C 752.802 556, 753 555.550, 753 555 C 753 554.450, 752.523 554, 751.941 554 C 751.359 554, 751.160 554.450, 751.500 555 M 796.733 572.124 C 797.412 572.808, 798.219 573.115, 798.526 572.807 C 798.834 572.499, 798.279 571.940, 797.293 571.564 C 795.868 571.022, 795.753 571.136, 796.733 572.124 M 808.421 576.564 C 809.281 577.424, 810.400 577.871, 810.907 577.558 C 811.414 577.244, 811.980 577.381, 812.165 577.862 C 812.349 578.342, 813.604 579.079, 814.953 579.500 C 817.097 580.167, 817.223 580.081, 815.953 578.815 C 814.751 577.615, 808.804 575, 807.279 575 C 807.047 575, 807.561 575.704, 808.421 576.564 M 829.441 584.532 C 830.509 585.339, 832.084 585.984, 832.941 585.965 C 833.940 585.942, 833.602 585.416, 832 584.500 C 828.728 582.630, 826.955 582.652, 829.441 584.532 M 835.615 587.438 C 835.869 588.101, 838.422 589.384, 841.288 590.291 C 846.403 591.908, 846.455 591.904, 844.076 590.084 C 840.842 587.609, 834.977 585.776, 835.615 587.438 M 969.033 636.728 C 967.722 638.204, 967.758 638.307, 969.365 637.690 C 970.354 637.311, 971.352 637, 971.582 637 C 971.812 637, 972 636.550, 972 636 C 972 634.529, 970.703 634.847, 969.033 636.728 M 967.500 642 C 967.840 642.550, 968.568 643, 969.118 643 C 969.668 643, 969.840 642.550, 969.500 642 C 969.160 641.450, 968.432 641, 967.882 641 C 967.332 641, 967.160 641.450, 967.500 642 M 977.667 643.667 C 977.300 644.033, 977 644.798, 977 645.367 C 977 645.993, 977.466 645.934, 978.183 645.217 C 978.834 644.566, 979.134 643.801, 978.850 643.517 C 978.566 643.232, 978.033 643.300, 977.667 643.667 M 980.213 644.750 C 980.418 645.749, 981.301 646.375, 982.270 646.210 C 983.442 646.010, 983.785 646.397, 983.377 647.460 C 982.996 648.453, 983.357 649, 984.393 649 C 986.705 649, 986.377 645.911, 984 645.290 C 982.900 645.002, 982 644.369, 982 643.883 C 982 643.398, 981.517 643, 980.927 643 C 980.336 643, 980.015 643.788, 980.213 644.750 M 990 647.059 C 990 647.641, 990.450 647.840, 991 647.500 C 991.550 647.160, 992 646.684, 992 646.441 C 992 646.198, 991.550 646, 991 646 C 990.450 646, 990 646.477, 990 647.059 M 993 648.059 C 993 648.641, 993.450 648.840, 994 648.500 C 994.550 648.160, 995 647.684, 995 647.441 C 995 647.198, 994.550 647, 994 647 C 993.450 647, 993 647.477, 993 648.059 M 963.459 650.067 C 962.383 651.808, 963.608 652.177, 964.980 650.524 C 965.769 649.574, 965.845 649, 965.181 649 C 964.597 649, 963.821 649.480, 963.459 650.067 M 1006.443 651.418 C 1005.346 652.220, 1004.888 653.198, 1005.388 653.668 C 1005.875 654.126, 1006.475 653.938, 1006.720 653.250 C 1006.966 652.563, 1007.804 652, 1008.583 652 C 1009.362 652, 1010 651.550, 1010 651 C 1010 649.603, 1008.719 649.754, 1006.443 651.418 M 989 651.671 C 989 652.040, 989.788 653.231, 990.750 654.317 C 992.450 656.234, 992.421 656.276, 989.750 655.784 C 988.237 655.505, 987 655.665, 987 656.139 C 987 657.834, 984.803 656.962, 984.308 655.069 C 983.640 652.516, 981.025 651.522, 980.921 653.781 C 980.873 654.825, 980.644 655.009, 980.338 654.250 C 979.575 652.359, 978.299 652.750, 977.694 655.061 C 977.043 657.552, 979.727 658.959, 981.195 656.896 C 981.989 655.781, 982.082 655.835, 981.658 657.166 C 981.284 658.339, 982.127 659.307, 984.505 660.436 C 986.364 661.317, 988.472 661.918, 989.192 661.769 C 989.911 661.621, 990.401 662.023, 990.279 662.662 C 990.052 663.860, 995.927 666.407, 996.831 665.502 C 997.110 665.224, 998.049 665.637, 998.919 666.420 C 999.788 667.203, 1001.737 668.153, 1003.250 668.530 C 1005.716 669.146, 1006 668.951, 1006 666.640 C 1006 664.751, 1005.596 664.218, 1004.489 664.643 C 1003.358 665.077, 1003.143 664.754, 1003.636 663.361 C 1004.155 661.894, 1004.026 661.748, 1003.025 662.672 C 1001.680 663.914, 999 663.396, 999 661.893 C 999 661.402, 999.788 660.967, 1000.750 660.926 C 1001.712 660.886, 1000.616 660.128, 998.312 659.242 C 995.325 658.094, 993.940 656.899, 993.483 655.076 C 992.874 652.651, 991.402 651.049, 989.750 651.015 C 989.337 651.007, 989 651.302, 989 651.671 M 1019.705 659 C 1020.338 662.887, 1021.917 666.474, 1021.970 664.143 C 1021.986 663.397, 1022.594 663.014, 1023.319 663.292 C 1024.240 663.646, 1024.598 662.927, 1024.504 660.917 C 1024.361 657.852, 1023 655.515, 1023 658.333 C 1023 659.250, 1022.592 660, 1022.094 660 C 1021.595 660, 1021.409 658.987, 1021.680 657.750 C 1022.040 656.109, 1021.912 655.869, 1021.208 656.863 C 1020.392 658.014, 1020.156 658.014, 1019.689 656.863 C 1019.384 656.113, 1019.392 657.075, 1019.705 659 M 990 658 C 990 658.550, 990.450 659, 991 659 C 991.550 659, 992 658.550, 992 658 C 992 657.450, 991.550 657, 991 657 C 990.450 657, 990 657.450, 990 658 M 1016.557 661.250 C 1017.364 663.875, 1017.824 664.509, 1018.460 663.873 C 1019.224 663.109, 1017.838 659, 1016.816 659 C 1016.292 659, 1016.175 660.009, 1016.557 661.250 M 1009.195 666.500 C 1009.215 668.150, 1009.439 668.704, 1009.693 667.731 C 1009.947 666.758, 1009.930 665.408, 1009.656 664.731 C 1009.382 664.054, 1009.175 664.850, 1009.195 666.500 M 1014.500 668 C 1014.160 668.550, 1014.610 669, 1015.500 669 C 1016.390 669, 1016.840 668.550, 1016.500 668 C 1016.160 667.450, 1015.710 667, 1015.500 667 C 1015.290 667, 1014.840 667.450, 1014.500 668 M 1012.500 671 C 1012.840 671.550, 1013.316 672, 1013.559 672 C 1013.802 672, 1014 671.550, 1014 671 C 1014 670.450, 1013.523 670, 1012.941 670 C 1012.359 670, 1012.160 670.450, 1012.500 671 M 1074.500 685 C 1074.840 685.550, 1075.316 686, 1075.559 686 C 1075.802 686, 1076 685.550, 1076 685 C 1076 684.450, 1075.523 684, 1074.941 684 C 1074.359 684, 1074.160 684.450, 1074.500 685 M 1091.770 703 C 1094.065 705.138, 1096 705.612, 1096 704.035 C 1096 702.930, 1092.743 701, 1090.877 701 C 1090.169 701, 1090.557 701.871, 1091.770 703 M 197.495 704.008 C 197.178 704.522, 198.083 705.234, 199.506 705.591 C 202.973 706.461, 203.613 705.600, 200.540 704.200 C 199.053 703.523, 197.842 703.447, 197.495 704.008 M 1084 710 C 1084 710.550, 1084.477 711, 1085.059 711 C 1085.641 711, 1085.840 710.550, 1085.500 710 C 1085.160 709.450, 1084.684 709, 1084.441 709 C 1084.198 709, 1084 709.450, 1084 710 M 1087.079 710.583 C 1087.127 711.748, 1087.364 711.985, 1087.683 711.188 C 1087.972 710.466, 1087.936 709.603, 1087.604 709.271 C 1087.272 708.939, 1087.036 709.529, 1087.079 710.583 M 318 723 C 318 723.550, 318.702 724, 319.559 724 C 320.416 724, 320.840 723.550, 320.500 723 C 320.160 722.450, 319.459 722, 318.941 722 C 318.423 722, 318 722.450, 318 723 M 1110.329 723.584 C 1109.840 724.859, 1109.557 724.908, 1108.876 723.834 C 1108.261 722.864, 1108.026 723.081, 1108.015 724.628 C 1107.998 727.055, 1110.493 729.630, 1111.415 728.137 C 1111.742 727.609, 1113.128 727.300, 1114.497 727.450 C 1115.865 727.600, 1117.460 727.151, 1118.040 726.452 C 1118.843 725.484, 1118.367 725.020, 1116.048 724.510 C 1114.372 724.142, 1113 723.427, 1113 722.921 C 1113 721.388, 1110.980 721.890, 1110.329 723.584 M 299 726 C 299 726.550, 299.477 727, 300.059 727 C 300.641 727, 300.840 726.550, 300.500 726 C 300.160 725.450, 299.684 725, 299.441 725 C 299.198 725, 299 725.450, 299 726 M 1085.607 746.582 C 1084.529 749.391, 1084.945 750, 1087.941 750 C 1091.488 750, 1092.821 748.395, 1090.015 747.505 C 1088.907 747.153, 1088 746.446, 1088 745.933 C 1088 744.404, 1086.262 744.875, 1085.607 746.582 M 1114.710 750 C 1114.365 751.319, 1113.346 752, 1111.716 752 C 1109.299 752, 1106.496 754.162, 1107.548 755.215 C 1107.840 755.507, 1107.136 755.993, 1105.983 756.294 C 1104.244 756.749, 1104.091 756.596, 1105.085 755.397 C 1106.734 753.410, 1105.613 752.602, 1103.086 753.954 C 1100.815 755.169, 1100.235 757.991, 1102.250 758.015 C 1103.024 758.025, 1103.119 758.310, 1102.500 758.765 C 1101.950 759.169, 1101.369 760.400, 1101.208 761.500 C 1101.045 762.618, 1101.266 763.059, 1101.708 762.500 C 1102.973 760.902, 1110.120 757.518, 1112.668 757.310 C 1115.135 757.109, 1115.756 758.844, 1113.887 760.713 C 1112.578 762.022, 1113.357 763.585, 1116.033 765.018 C 1117.585 765.848, 1117.843 765.754, 1117.373 764.529 C 1117.052 763.694, 1116.388 763.260, 1115.895 763.565 C 1115.403 763.869, 1115 763.384, 1115 762.488 C 1115 760.579, 1117.479 757.813, 1118.381 758.714 C 1118.721 759.055, 1119 758.808, 1119 758.167 C 1119 757.525, 1118.438 757, 1117.750 756.999 C 1117.063 756.999, 1116.435 755.874, 1116.356 754.499 C 1116.250 752.662, 1116.714 752, 1118.106 752 C 1119.148 752, 1120 752.450, 1120 753 C 1120 753.550, 1120.563 753.998, 1121.250 753.995 C 1121.938 753.993, 1121.062 752.643, 1119.304 750.995 C 1115.518 747.447, 1115.385 747.418, 1114.710 750 M 1088.583 752.866 C 1088.152 753.563, 1088.070 754.403, 1088.400 754.733 C 1089.295 755.628, 1090.271 754.312, 1089.787 752.862 C 1089.449 751.846, 1089.213 751.846, 1088.583 752.866 M 1098 758 C 1098 758.550, 1098.450 759, 1099 759 C 1099.550 759, 1100 758.550, 1100 758 C 1100 757.450, 1099.550 757, 1099 757 C 1098.450 757, 1098 757.450, 1098 758 M 1094.625 759.798 C 1094.354 760.237, 1094.532 761.243, 1095.022 762.035 C 1095.693 763.121, 1095.870 762.924, 1095.743 761.237 C 1095.560 758.810, 1095.379 758.577, 1094.625 759.798 M 1110.020 765.476 C 1109.231 766.426, 1109.155 767, 1109.819 767 C 1111.027 767, 1112.436 765.103, 1111.743 764.409 C 1111.491 764.158, 1110.716 764.638, 1110.020 765.476 M 1112 768 C 1112 768.550, 1112.477 769, 1113.059 769 C 1113.641 769, 1113.840 768.550, 1113.500 768 C 1113.160 767.450, 1112.684 767, 1112.441 767 C 1112.198 767, 1112 767.450, 1112 768 M 417.500 769 C 417.160 769.550, 417.359 770, 417.941 770 C 418.523 770, 419 769.550, 419 769 C 419 768.450, 418.802 768, 418.559 768 C 418.316 768, 417.840 768.450, 417.500 769 M 1095 769.059 C 1095 769.641, 1095.450 769.840, 1096 769.500 C 1096.550 769.160, 1097 768.684, 1097 768.441 C 1097 768.198, 1096.550 768, 1096 768 C 1095.450 768, 1095 768.477, 1095 769.059 M 1117.894 774.079 C 1117.127 774.561, 1115.713 774.709, 1114.750 774.410 C 1112.725 773.780, 1112.533 774.849, 1114.285 777 C 1116.189 779.337, 1117.873 779.228, 1117.240 776.809 C 1116.816 775.188, 1117.010 774.888, 1118.063 775.539 C 1119.710 776.557, 1126.023 776.846, 1125.423 775.875 C 1124.564 774.485, 1119.262 773.220, 1117.894 774.079 M 1131.551 780.652 C 1131.187 782.102, 1131.325 783.725, 1131.858 784.258 C 1132.936 785.336, 1135 784.433, 1135 782.882 C 1135 782.332, 1134.502 782.190, 1133.893 782.566 C 1133.155 783.022, 1133.002 782.570, 1133.434 781.209 C 1133.790 780.087, 1133.661 778.909, 1133.147 778.591 C 1132.634 778.274, 1131.915 779.201, 1131.551 780.652 M 1128.750 786.662 C 1130.563 787.394, 1130.284 788.802, 1128.358 788.639 C 1125.942 788.435, 1125.692 790.338, 1127.813 792.784 C 1129.227 794.415, 1129.951 794.649, 1130.836 793.764 C 1131.721 792.879, 1132 792.887, 1132 793.800 C 1132 794.460, 1131.550 795, 1131 795 C 1130.450 795, 1130 795.450, 1130 796 C 1130 796.550, 1130.675 797, 1131.500 797 C 1132.333 797, 1133 796.111, 1133 795 C 1133 793.494, 1133.667 793, 1135.700 793 C 1137.696 793, 1138.107 792.707, 1137.278 791.878 C 1136.661 791.261, 1136.377 790.182, 1136.646 789.479 C 1137.253 787.899, 1135.375 786.585, 1134.510 787.984 C 1133.568 789.509, 1132 789.207, 1132 787.500 C 1132 786.588, 1131.118 786.031, 1129.750 786.079 C 1128.513 786.122, 1128.063 786.385, 1128.750 786.662 M 1124.079 790.583 C 1124.127 791.748, 1124.364 791.985, 1124.683 791.188 C 1124.972 790.466, 1124.936 789.603, 1124.604 789.271 C 1124.272 788.939, 1124.036 789.529, 1124.079 790.583 M 1118.079 791.583 C 1118.127 792.748, 1118.364 792.985, 1118.683 792.188 C 1118.972 791.466, 1118.936 790.603, 1118.604 790.271 C 1118.272 789.939, 1118.036 790.529, 1118.079 791.583 M 1131.500 791 C 1131.160 791.550, 1131.359 792, 1131.941 792 C 1132.523 792, 1133 791.550, 1133 791 C 1133 790.450, 1132.802 790, 1132.559 790 C 1132.316 790, 1131.840 790.450, 1131.500 791 M 1135 795.559 C 1135 796.416, 1135.450 796.840, 1136 796.500 C 1136.550 796.160, 1137 795.459, 1137 794.941 C 1137 794.423, 1136.550 794, 1136 794 C 1135.450 794, 1135 794.702, 1135 795.559 M 1126 796 C 1127.958 797.266, 1129.282 797.266, 1128.500 796 C 1128.160 795.450, 1127.121 795.007, 1126.191 795.015 C 1124.734 795.029, 1124.707 795.165, 1126 796 M 1129.030 801.750 C 1129.014 802.987, 1128.550 804, 1128 804 C 1127.450 804, 1127 804.730, 1127 805.622 C 1127 807.018, 1127.231 807.053, 1128.654 805.872 C 1129.563 805.118, 1130.463 804.612, 1130.654 804.750 C 1131.693 805.500, 1133 804.804, 1133 803.500 C 1133 802.675, 1133.477 802, 1134.059 802 C 1134.641 802, 1134.823 801.523, 1134.463 800.940 C 1134.047 800.267, 1133.348 800.509, 1132.546 801.606 C 1131.362 803.226, 1131.217 803.214, 1130.173 801.416 C 1129.118 799.598, 1129.059 799.615, 1129.030 801.750 M 1124.638 805.500 C 1124.322 806.325, 1124.499 807, 1125.031 807 C 1125.564 807, 1126 806.325, 1126 805.500 C 1126 804.675, 1125.823 804, 1125.607 804 C 1125.391 804, 1124.955 804.675, 1124.638 805.500 M 1136 805.059 C 1136 805.641, 1136.450 805.840, 1137 805.500 C 1137.550 805.160, 1138 804.684, 1138 804.441 C 1138 804.198, 1137.550 804, 1137 804 C 1136.450 804, 1136 804.477, 1136 805.059 M 564 867 C 563.175 867.533, 562.950 867.969, 563.500 867.969 C 564.050 867.969, 565.175 867.533, 566 867 C 566.825 866.467, 567.050 866.031, 566.500 866.031 C 565.950 866.031, 564.825 866.467, 564 867 M 516 886 C 515.175 886.533, 514.950 886.969, 515.500 886.969 C 516.050 886.969, 517.175 886.533, 518 886 C 518.825 885.467, 519.050 885.031, 518.500 885.031 C 517.950 885.031, 516.825 885.467, 516 886 M 504.500 890.352 C 496.367 893.552, 492 895.932, 492 897.164 C 492 897.838, 497.091 895.772, 500 893.916 C 500.825 893.390, 503.075 892.281, 505 891.451 C 516.887 886.325, 516.560 885.606, 504.500 890.352 M 457.259 908.958 C 454.376 909.996, 450.594 911.555, 448.855 912.422 C 447.116 913.290, 445.119 914, 444.418 914 C 443.717 914, 442.548 914.581, 441.821 915.291 C 441.095 916.001, 436.675 918.055, 432 919.855 C 419.432 924.694, 419.105 924.850, 421.349 924.932 C 422.366 924.970, 424.841 924.279, 426.849 923.398 C 438.073 918.473, 445.833 915.443, 454.704 912.520 C 459.216 911.033, 463.433 909.183, 464.076 908.408 C 465.702 906.449, 463.805 906.602, 457.259 908.958 M 384.861 931.967 C 383.562 933.048, 382.770 933.948, 383.101 933.967 C 384.691 934.055, 390 931.697, 390 930.902 C 390 929.357, 387.329 929.910, 384.861 931.967 M 208 989 C 208 989.550, 208.450 990, 209 990 C 209.550 990, 210 989.550, 210 989 C 210 988.450, 209.550 988, 209 988 C 208.450 988, 208 988.450, 208 989 M 204.813 990.683 C 205.534 990.972, 206.397 990.936, 206.729 990.604 C 207.061 990.272, 206.471 990.036, 205.417 990.079 C 204.252 990.127, 204.015 990.364, 204.813 990.683 M 194 993.238 C 190.425 994.367, 185.966 995.956, 184.092 996.768 C 179.648 998.693, 167.267 1007, 168.842 1007 C 170.142 1007, 179.928 1002.614, 194.500 995.501 C 204.285 990.724, 204.133 990.036, 194 993.238 M 153.500 1081 C 153.160 1081.550, 153.547 1082, 154.359 1082 C 155.172 1082, 156.661 1082.262, 157.668 1082.582 C 159.344 1083.114, 159.335 1083.029, 157.559 1081.582 C 155.306 1079.746, 154.359 1079.610, 153.500 1081 M 162.204 1106.955 C 162.875 1108.030, 163.564 1108.769, 163.736 1108.598 C 164.328 1108.005, 162.782 1105, 161.885 1105 C 161.389 1105, 161.532 1105.880, 162.204 1106.955 M 682.750 1133.220 C 677.499 1136.263, 678.058 1137.432, 683.500 1134.788 C 685.975 1133.585, 688 1132.241, 688 1131.801 C 688 1130.549, 686.797 1130.874, 682.750 1133.220 M 170 1140.167 C 170 1143.808, 170.437 1143.676, 171.378 1139.750 C 171.770 1138.117, 171.624 1137, 171.019 1137 C 170.459 1137, 170 1138.425, 170 1140.167 M 674 1137.947 C 670.537 1139.021, 661.852 1143.185, 662.248 1143.582 C 662.737 1144.070, 676.355 1139.011, 677.450 1137.935 C 678.572 1136.831, 677.589 1136.834, 674 1137.947 M 648 1143.059 C 648 1143.641, 648.450 1143.840, 649 1143.500 C 649.550 1143.160, 650 1142.684, 650 1142.441 C 650 1142.198, 649.550 1142, 649 1142 C 648.450 1142, 648 1142.477, 648 1143.059 M 637.500 1147.458 C 636.950 1147.622, 634.624 1148.322, 632.332 1149.012 C 628.271 1150.234, 625.449 1154, 628.594 1154 C 629.367 1154, 630 1153.621, 630 1153.158 C 630 1152.695, 632.700 1151.499, 636 1150.500 C 639.300 1149.501, 642 1148.305, 642 1147.842 C 642 1147.034, 639.597 1146.829, 637.500 1147.458 M 621 1156 C 621 1156.550, 621.675 1157, 622.500 1157 C 623.325 1157, 624 1156.550, 624 1156 C 624 1155.450, 623.325 1155, 622.500 1155 C 621.675 1155, 621 1155.450, 621 1156 M 627.205 1158.946 C 623.742 1160.455, 620.367 1162.266, 619.705 1162.970 C 619.042 1163.674, 618.955 1164.081, 619.512 1163.875 C 628.765 1160.445, 635 1157.642, 635 1156.913 C 635 1155.655, 634.385 1155.815, 627.205 1158.946 M 554.139 1201.033 C 552.841 1202.115, 552.308 1203, 552.955 1203 C 554.756 1203, 558 1201.048, 558 1199.965 C 558 1198.508, 556.758 1198.852, 554.139 1201.033 M 449.500 1247 C 449.160 1247.550, 449.332 1248, 449.882 1248 C 450.432 1248, 451.160 1247.550, 451.500 1247 C 451.840 1246.450, 451.668 1246, 451.118 1246 C 450.568 1246, 449.840 1246.450, 449.500 1247 M 406 1255 C 405.207 1255.490, 404.783 1256.116, 405.058 1256.391 C 405.333 1256.666, 406.207 1256.490, 407 1256 C 407.793 1255.510, 408.217 1254.884, 407.942 1254.609 C 407.667 1254.334, 406.793 1254.510, 406 1255 M 409.741 1262.429 C 407.673 1263.167, 405.249 1264.385, 404.354 1265.135 C 403.460 1265.886, 400.918 1267.217, 398.706 1268.094 C 396.495 1268.970, 395.134 1269.965, 395.682 1270.303 C 396.231 1270.642, 398.325 1270.038, 400.336 1268.960 C 402.347 1267.882, 404.894 1267, 405.996 1267 C 407.098 1267, 408 1266.599, 408 1266.108 C 408 1265.618, 409.012 1264.963, 410.250 1264.652 C 411.488 1264.341, 413.400 1263.407, 414.500 1262.575 C 417.074 1260.630, 414.964 1260.565, 409.741 1262.429 M 382.354 1274.465 C 381.204 1275.270, 379.979 1275.645, 379.631 1275.298 C 379.284 1274.951, 379 1275.417, 379 1276.333 C 379 1277.250, 379.675 1278, 380.500 1278 C 381.325 1278, 382 1277.550, 382 1277 C 382 1276.450, 382.563 1275.980, 383.250 1275.955 C 383.938 1275.930, 385.850 1275.292, 387.500 1274.536 L 390.500 1273.162 387.473 1273.081 C 385.807 1273.037, 383.504 1273.659, 382.354 1274.465" stroke="none" fill="black" fill-rule="evenodd"/>
</svg>