<svg xmlns="http://www.w3.org/2000/svg" width="1240" height="1753" viewBox="0 0 1240 1753" version="1.1">
	<path d="M 428.643 960.988 C 427.071 961.481, 425.046 962.477, 424.143 963.201 C 423.239 963.925, 420.745 965.408, 418.600 966.497 C 414.632 968.511, 402.294 981.426, 402.750 983.088 C 402.887 983.590, 402.587 984, 402.082 984 C 401.576 984, 400.138 985.688, 398.884 987.750 C 397.631 989.813, 396.305 991.725, 395.937 992 C 395.569 992.275, 394.308 994.300, 393.135 996.500 C 391.961 998.700, 388.977 1003.200, 386.505 1006.500 C 384.032 1009.800, 381.561 1013.531, 381.014 1014.791 C 380.466 1016.051, 377.764 1020.596, 375.009 1024.891 C 372.254 1029.186, 370 1033.217, 370 1033.850 C 370 1034.482, 369.550 1035, 369 1035 C 368.450 1035, 368 1035.535, 368 1036.190 C 368 1036.844, 366.087 1040.480, 363.750 1044.269 C 361.413 1048.058, 358.563 1052.810, 357.418 1054.829 C 352.325 1063.809, 349.602 1068.643, 348.590 1070.500 C 347.990 1071.600, 347.224 1072.725, 346.887 1073 C 346.550 1073.275, 344.765 1076.425, 342.920 1080 C 338.141 1089.262, 332.418 1097.857, 323.211 1109.598 C 320.853 1112.605, 319.235 1115.571, 319.616 1116.188 C 319.997 1116.804, 319.902 1117.059, 319.405 1116.752 C 318.907 1116.446, 317.461 1117.614, 316.191 1119.348 C 314.921 1121.082, 312.098 1124.923, 309.916 1127.884 C 307.113 1131.689, 306.123 1133.888, 306.541 1135.384 C 307.011 1137.070, 306.918 1137.195, 306.081 1136 C 305.503 1135.175, 304.972 1134.950, 304.900 1135.500 C 304.828 1136.050, 304.665 1136.950, 304.537 1137.500 C 304.409 1138.050, 304.236 1139.138, 304.152 1139.917 C 304.069 1140.696, 303.688 1141.021, 303.306 1140.639 C 302.925 1140.258, 299.405 1146.374, 295.484 1154.231 C 291.564 1162.088, 284.789 1174.481, 280.428 1181.772 C 276.068 1189.062, 272.050 1195.825, 271.500 1196.800 C 270.950 1197.774, 269.503 1199.636, 268.285 1200.937 C 267.066 1202.238, 266.286 1203.654, 266.551 1204.082 C 266.816 1204.511, 266.506 1205.187, 265.862 1205.585 C 265.092 1206.061, 264.928 1205.828, 265.383 1204.905 C 265.763 1204.132, 265.495 1204.348, 264.787 1205.384 C 264.079 1206.420, 262.375 1208.650, 261 1210.339 C 259.625 1212.029, 259.175 1213.012, 260 1212.525 C 260.825 1212.038, 260.038 1213.026, 258.250 1214.721 C 255.279 1217.538, 254.512 1219.053, 254.906 1221.324 C 254.985 1221.778, 254.588 1221.864, 254.025 1221.515 C 253.461 1221.167, 253 1221.584, 253 1222.441 C 253 1223.298, 252.600 1224, 252.111 1224 C 251.622 1224, 251.243 1224.563, 251.269 1225.250 C 251.392 1228.572, 250.838 1229.809, 249.012 1230.287 C 247.919 1230.573, 246.560 1232.028, 245.992 1233.521 C 245.424 1235.014, 244.069 1237.368, 242.980 1238.753 C 241.891 1240.137, 241 1242.061, 241 1243.028 C 241 1243.995, 240.373 1245.027, 239.606 1245.321 C 238.840 1245.615, 237.152 1248.026, 235.857 1250.678 C 234.562 1253.330, 233.200 1255.730, 232.830 1256.010 C 232.461 1256.291, 231.844 1257.774, 231.459 1259.307 C 231.075 1260.839, 230.505 1261.838, 230.194 1261.527 C 229.555 1260.888, 225.081 1268.622, 219.218 1280.500 C 215.349 1288.340, 213.749 1293.788, 213.723 1299.219 C 213.716 1300.715, 213.438 1301.770, 213.105 1301.565 C 212.292 1301.062, 212.070 1305.535, 212.650 1310.750 C 213.028 1314.152, 213.516 1315, 215.093 1315 C 216.176 1315, 217.322 1315.675, 217.638 1316.500 C 218.351 1318.357, 220 1318.476, 220 1316.671 C 220 1315.938, 221.002 1315.377, 222.230 1315.421 C 224.184 1315.490, 224.471 1314.977, 224.551 1311.262 C 224.643 1306.999, 226 1303.788, 226 1307.833 C 226 1309.770, 227 1310.474, 229.250 1310.118 C 230.385 1309.939, 230.210 1310.326, 227.494 1314.008 C 226.116 1315.876, 223.753 1317.991, 222.244 1318.708 L 219.500 1320.011 222.405 1319.448 C 224.243 1319.091, 225.605 1319.361, 226.114 1320.184 C 226.753 1321.219, 227.170 1321.230, 228.158 1320.242 C 229.147 1319.253, 229.105 1318.994, 227.950 1318.970 C 226.891 1318.947, 226.984 1318.658, 228.294 1317.895 C 229.393 1317.256, 229.872 1316.171, 229.530 1315.094 C 229.196 1314.042, 229.788 1312.597, 231.002 1311.498 C 232.974 1309.714, 233.074 1309.716, 234.488 1311.581 C 235.289 1312.636, 235.758 1314.031, 235.530 1314.679 C 233.909 1319.307, 233.961 1322.651, 235.680 1324.140 C 238.157 1326.287, 241.352 1326.942, 243.495 1325.743 C 244.723 1325.056, 245.072 1325.075, 244.621 1325.804 C 244.261 1326.386, 244.394 1327.125, 244.915 1327.447 C 245.436 1327.769, 246.167 1327.539, 246.540 1326.935 C 246.913 1326.332, 248.199 1326.084, 249.399 1326.385 C 251.098 1326.812, 251.615 1326.465, 251.739 1324.817 C 252.088 1320.179, 253.499 1321.430, 253.408 1326.298 C 253.331 1330.489, 253.768 1331.964, 255.656 1333.886 C 256.945 1335.199, 258 1337.082, 258 1338.071 C 258 1339.060, 258.523 1341.137, 259.161 1342.685 C 259.800 1344.233, 260.250 1345.838, 260.161 1346.250 C 260.073 1346.662, 260.900 1347, 262 1347 C 263.100 1347, 264 1347.450, 264 1348 C 264 1349.691, 270.003 1349.156, 270.675 1347.405 C 271.254 1345.895, 267.506 1341.712, 264.654 1340.688 C 263.165 1340.154, 263.903 1339.432, 266.875 1338.517 C 268.647 1337.971, 269.054 1338.104, 268.476 1339.039 C 267.903 1339.966, 268.347 1340.130, 270.186 1339.668 C 271.939 1339.228, 273.327 1339.656, 274.900 1341.122 C 276.217 1342.348, 277.923 1342.992, 279.065 1342.693 C 280.479 1342.324, 281 1342.701, 281 1344.094 C 281 1345.142, 281.477 1346, 282.059 1346 C 282.641 1346, 282.859 1346.419, 282.543 1346.931 C 282.226 1347.443, 282.425 1348.144, 282.984 1348.490 C 283.543 1348.835, 284.007 1348.529, 284.015 1347.809 C 284.027 1346.831, 284.263 1346.867, 284.949 1347.952 C 285.455 1348.751, 285.636 1349.780, 285.352 1350.239 C 285.069 1350.698, 286.385 1350.969, 288.278 1350.842 C 290.875 1350.667, 292.736 1351.415, 295.860 1353.889 C 298.261 1355.791, 300 1356.619, 300 1355.862 C 300 1355.143, 300.713 1355.573, 301.585 1356.818 C 302.723 1358.443, 303.780 1358.910, 305.335 1358.475 C 307.103 1357.980, 307.225 1358.075, 306 1358.995 C 304.824 1359.878, 305.179 1359.988, 307.648 1359.504 C 310.239 1358.995, 310.771 1359.194, 310.648 1360.624 C 310.556 1361.703, 311.448 1362.611, 313 1363.019 C 314.375 1363.381, 315.369 1364.255, 315.209 1364.961 C 315.023 1365.785, 315.511 1366.018, 316.570 1365.611 C 317.773 1365.150, 318.062 1365.395, 317.634 1366.512 C 317.158 1367.753, 317.411 1367.851, 318.957 1367.023 C 321.667 1365.573, 322.448 1365.755, 321 1367.500 C 319.977 1368.732, 320.055 1369, 321.437 1369 C 322.466 1369, 322.838 1369.454, 322.395 1370.170 C 321.918 1370.942, 322.205 1371.135, 323.239 1370.739 C 324.101 1370.408, 325.618 1370.731, 326.611 1371.457 C 327.604 1372.183, 328.963 1372.568, 329.631 1372.311 C 330.300 1372.055, 331.347 1372.780, 331.958 1373.922 C 333.192 1376.227, 335.588 1376.686, 336.280 1374.750 C 336.525 1374.063, 337.108 1373.858, 337.575 1374.295 C 338.042 1374.733, 337.846 1376.018, 337.138 1377.150 C 336.431 1378.283, 336.270 1378.951, 336.780 1378.636 C 337.290 1378.321, 339.159 1378.611, 340.934 1379.281 C 343.733 1380.338, 344.332 1380.267, 345.441 1378.750 C 346.145 1377.787, 347.008 1377, 347.360 1377 C 348.459 1377, 348.058 1379.814, 346.905 1380.198 C 345.485 1380.672, 349.584 1387.707, 352.048 1389.026 C 353.049 1389.562, 354.784 1390, 355.903 1390 C 357.300 1390, 357.757 1390.470, 357.362 1391.500 C 357.045 1392.325, 357.284 1393, 357.893 1393 C 358.502 1393, 359.032 1392.438, 359.070 1391.750 C 359.109 1391.063, 359.498 1391.400, 359.934 1392.500 C 360.416 1393.717, 360.291 1394.788, 359.614 1395.235 C 358.967 1395.661, 359.444 1395.976, 360.750 1395.985 C 362.011 1395.993, 362.890 1396.550, 362.750 1397.250 C 362.599 1398.007, 363.555 1398.487, 365.175 1398.466 C 366.647 1398.448, 367.675 1398.717, 367.461 1399.064 C 366.439 1400.717, 378.471 1409.417, 380.633 1408.587 C 381.442 1408.277, 381.851 1408.431, 381.543 1408.931 C 380.905 1409.963, 387.516 1412.422, 390.410 1412.228 C 391.461 1412.158, 392.707 1411.515, 393.180 1410.800 C 393.844 1409.797, 394.472 1410.013, 395.931 1411.750 C 396.970 1412.987, 398.203 1414, 398.671 1414 C 399.139 1414, 400.589 1415.292, 401.894 1416.872 C 403.379 1418.669, 404.927 1419.570, 406.034 1419.281 C 407.356 1418.935, 407.973 1419.599, 408.482 1421.918 C 408.856 1423.623, 409.583 1424.757, 410.098 1424.440 C 410.612 1424.122, 410.774 1423.443, 410.457 1422.931 C 410.141 1422.419, 410.359 1422, 410.941 1422 C 411.523 1422, 412 1422.482, 412 1423.071 C 412 1423.661, 412.759 1423.384, 413.686 1422.457 C 415.267 1420.876, 415.420 1420.903, 416.153 1422.886 C 416.584 1424.049, 417.412 1425, 417.993 1425 C 418.621 1425, 418.400 1426.259, 417.452 1428.093 C 415.472 1431.921, 416.160 1432.780, 419.469 1430.612 C 420.861 1429.700, 422 1429.377, 422 1429.894 C 422 1430.410, 421.516 1430.995, 420.925 1431.192 C 419.791 1431.570, 420.680 1437.001, 421.850 1436.848 C 424.509 1436.500, 426.667 1437.240, 426.667 1438.500 C 426.667 1439.325, 426.292 1440, 425.833 1440 C 425.375 1440, 425 1439.550, 425 1439 C 425 1438.450, 424.540 1438, 423.977 1438 C 423.414 1438, 423.688 1439.121, 424.586 1440.491 C 425.484 1441.862, 426.620 1442.735, 427.109 1442.432 C 427.599 1442.130, 428 1442.857, 428 1444.049 C 428 1445.866, 428.408 1446.115, 430.517 1445.585 C 432.309 1445.135, 433.676 1445.553, 435.267 1447.038 C 437.330 1448.964, 437.347 1449.073, 435.500 1448.467 C 433.922 1447.950, 433.811 1448.031, 434.974 1448.853 C 436.075 1449.631, 436.909 1449.401, 438.263 1447.948 C 440.672 1445.362, 441.336 1445.483, 439.913 1448.250 C 438.992 1450.039, 439.010 1450.260, 439.999 1449.328 C 440.684 1448.684, 441.925 1448.418, 442.758 1448.737 C 443.748 1449.117, 444.114 1448.843, 443.815 1447.946 C 443.564 1447.191, 444.443 1445.567, 445.770 1444.338 C 447.096 1443.108, 447.889 1441.629, 447.532 1441.051 C 447.174 1440.473, 447.610 1440, 448.500 1440 C 449.390 1440, 449.838 1439.547, 449.496 1438.993 C 449.153 1438.439, 449.577 1437.716, 450.437 1437.386 C 451.296 1437.056, 452 1436.145, 452 1435.362 C 452 1434.578, 452.648 1433.689, 453.439 1433.385 C 454.230 1433.081, 455.173 1431.490, 455.533 1429.849 C 455.894 1428.208, 456.847 1426.612, 457.652 1426.303 C 458.457 1425.995, 458.869 1425.102, 458.569 1424.319 C 458.269 1423.536, 458.450 1423.160, 458.972 1423.482 C 459.493 1423.805, 461.259 1421.691, 462.894 1418.784 C 464.530 1415.878, 466.312 1412.995, 466.854 1412.378 C 467.397 1411.760, 469.849 1407.260, 472.304 1402.378 C 474.759 1397.495, 477.492 1392.150, 478.377 1390.500 C 479.263 1388.850, 479.990 1386.938, 479.994 1386.250 C 479.997 1385.563, 480.419 1385, 480.931 1385 C 481.943 1385, 494.904 1358.979, 498.049 1350.636 C 499.114 1347.811, 501.336 1343.475, 502.988 1341 C 504.640 1338.525, 505.993 1336.194, 505.996 1335.821 C 506.001 1335.045, 512.904 1324.752, 515.935 1321 C 517.046 1319.625, 517.966 1318.145, 517.978 1317.712 C 517.990 1317.278, 520.587 1312.989, 523.750 1308.180 C 531.440 1296.487, 531.587 1296.247, 534.626 1290.500 C 536.079 1287.750, 538.483 1283.700, 539.967 1281.500 C 541.451 1279.300, 543.528 1275.345, 544.582 1272.712 C 545.637 1270.078, 548.199 1265.666, 550.276 1262.907 C 552.352 1260.149, 553.812 1257.505, 553.519 1257.031 C 553.227 1256.558, 553.328 1256.020, 553.744 1255.835 C 555.034 1255.263, 558.517 1247.717, 558.183 1246.219 C 558.009 1245.438, 558.299 1245.067, 558.828 1245.394 C 559.964 1246.096, 561.266 1243.240, 560.429 1241.885 C 560.111 1241.371, 560.361 1241.074, 560.983 1241.225 C 561.606 1241.376, 563.585 1238.771, 565.382 1235.436 C 567.178 1232.101, 570.184 1227.151, 572.061 1224.436 C 573.938 1221.721, 575.368 1219.162, 575.237 1218.750 C 575.107 1218.338, 575.410 1218, 575.911 1218 C 576.811 1218, 581.274 1209.642, 581.006 1208.458 C 580.930 1208.122, 582.116 1206.774, 583.641 1205.463 C 585.166 1204.153, 586.108 1202.775, 585.735 1202.402 C 585.361 1202.028, 586.171 1200.397, 587.535 1198.777 C 588.898 1197.156, 589.713 1195.306, 589.346 1194.665 C 588.980 1194.024, 589.042 1193.828, 589.486 1194.229 C 590.286 1194.953, 599 1181.042, 599 1179.042 C 599 1178.469, 599.487 1178, 600.083 1178 C 600.679 1178, 600.977 1177.438, 600.746 1176.750 C 600.514 1176.063, 600.901 1175.050, 601.607 1174.500 C 602.312 1173.950, 604.534 1170.350, 606.544 1166.500 C 608.555 1162.650, 611.092 1158.037, 612.182 1156.250 C 613.271 1154.463, 613.789 1152.993, 613.332 1152.985 C 612.874 1152.976, 612.989 1152.639, 613.587 1152.235 C 615.352 1151.041, 620.055 1142.389, 619.332 1141.665 C 618.966 1141.299, 619.089 1141, 619.606 1141 C 620.123 1141, 621.435 1139.313, 622.523 1137.250 C 623.610 1135.188, 626.151 1131.292, 628.168 1128.594 C 632.489 1122.814, 634.512 1116.341, 632.697 1114.097 C 631.724 1112.893, 631.780 1112.760, 633 1113.384 C 633.825 1113.807, 633.438 1113.218, 632.139 1112.076 C 630.841 1110.934, 629.153 1110, 628.389 1110 C 627.625 1110, 627 1109.550, 627 1109 C 627 1108.450, 626.190 1108, 625.200 1108 C 624.210 1108, 622.908 1107.508, 622.307 1106.907 C 621.517 1106.117, 620.631 1106.127, 619.107 1106.943 C 617.948 1107.563, 617 1107.653, 617 1107.142 C 617 1105.481, 614.094 1105.049, 612.648 1106.495 C 611.873 1107.270, 610.960 1107.626, 610.619 1107.286 C 610.279 1106.945, 610 1107.443, 610 1108.392 C 610 1109.341, 609.567 1109.851, 609.038 1109.524 C 608.426 1109.145, 608.440 1107.974, 609.077 1106.298 C 609.806 1104.381, 609.745 1103.460, 608.853 1102.909 C 607.982 1102.371, 607.932 1101.769, 608.679 1100.826 C 609.256 1100.097, 609.538 1098.150, 609.304 1096.500 C 608.798 1092.933, 604.359 1085, 602.868 1085 C 601.545 1085, 598.078 1080.901, 598.033 1079.285 C 598.015 1078.617, 597.093 1077.585, 595.985 1076.992 C 594.876 1076.399, 593.064 1073.987, 591.958 1071.633 C 590.851 1069.279, 587.473 1064.686, 584.451 1061.426 C 581.428 1058.167, 578.006 1054.273, 576.846 1052.773 C 575.685 1051.273, 574.350 1050.284, 573.879 1050.575 C 573.408 1050.866, 573.269 1050.464, 573.569 1049.681 C 573.869 1048.898, 573.527 1047.630, 572.808 1046.864 C 572.088 1046.097, 570.692 1043.901, 569.705 1041.985 C 567.827 1038.338, 560.003 1029.217, 559.995 1030.664 C 559.993 1031.124, 558.441 1029.813, 556.546 1027.750 C 554.652 1025.688, 552.639 1024, 552.072 1024 C 550.825 1024, 541 1014.213, 541 1012.971 C 541 1012.487, 539.340 1011.779, 537.312 1011.399 C 533.860 1010.751, 531.236 1008.513, 527.077 1002.668 C 525.847 1000.939, 525.847 1000.779, 527.077 1001.489 C 527.860 1001.940, 527.328 1001.002, 525.897 999.405 C 524.465 997.807, 523.026 995.739, 522.700 994.808 C 522.374 993.878, 521.071 992.427, 519.804 991.584 C 518.537 990.741, 514.381 987.098, 510.570 983.488 C 506.566 979.697, 503.060 977.147, 502.268 977.451 C 501.513 977.740, 501.132 977.595, 501.421 977.128 C 501.709 976.661, 500.045 975.441, 497.723 974.417 C 495.400 973.393, 493.213 972.148, 492.862 971.649 C 492.511 971.151, 491.611 971.099, 490.862 971.532 C 490.113 971.966, 489.823 971.963, 490.218 971.525 C 491.236 970.398, 474.312 962.641, 470.500 962.487 C 469.950 962.465, 468.825 962.009, 468 961.474 C 466.071 960.222, 432.410 959.806, 428.643 960.988 M 457.500 1019 C 456.647 1020.650, 456.174 1022, 456.449 1022 C 456.724 1022, 457.647 1020.650, 458.500 1019 C 459.353 1017.350, 459.826 1016, 459.551 1016 C 459.276 1016, 458.353 1017.350, 457.500 1019 M 437 1019 C 437 1019.550, 437.450 1020, 438 1020 C 438.550 1020, 439 1019.550, 439 1019 C 439 1018.450, 438.550 1018, 438 1018 C 437.450 1018, 437 1018.450, 437 1019 M 446.667 1025.667 C 446.300 1026.033, 446 1026.798, 446 1027.367 C 446 1027.993, 446.466 1027.934, 447.183 1027.217 C 447.834 1026.566, 448.134 1025.801, 447.850 1025.517 C 447.566 1025.233, 447.033 1025.300, 446.667 1025.667 M 450.095 1031 C 448.403 1033.750, 447.393 1036, 447.850 1036 C 448.308 1036, 449.907 1033.750, 451.403 1031 C 452.900 1028.250, 453.910 1026, 453.648 1026 C 453.386 1026, 451.787 1028.250, 450.095 1031 M 441.810 1033.107 C 440.880 1034.973, 438.741 1038.849, 437.057 1041.720 C 435.041 1045.156, 434.511 1046.741, 435.506 1046.359 C 436.337 1046.040, 437.287 1044.704, 437.617 1043.390 C 437.947 1042.075, 438.535 1041, 438.924 1041 C 440.135 1041, 444.159 1033.064, 443.821 1031.345 C 443.603 1030.238, 442.957 1030.803, 441.810 1033.107 M 444.079 1041.583 C 444.127 1042.748, 444.364 1042.985, 444.683 1042.188 C 444.972 1041.466, 444.936 1040.603, 444.604 1040.271 C 444.272 1039.939, 444.036 1040.529, 444.079 1041.583 M 462 1042 C 462 1042.550, 462.450 1043, 463 1043 C 463.550 1043, 464 1042.550, 464 1042 C 464 1041.450, 463.550 1041, 463 1041 C 462.450 1041, 462 1041.450, 462 1042 M 440.624 1047.539 C 439.659 1050.053, 439.943 1050.702, 441.122 1048.675 C 441.706 1047.671, 441.973 1046.639, 441.715 1046.382 C 441.458 1046.124, 440.966 1046.645, 440.624 1047.539 M 430.386 1052.500 C 429.349 1054.700, 428.163 1056.650, 427.750 1056.833 C 427.337 1057.017, 427 1057.859, 427 1058.706 C 427 1059.916, 427.301 1059.995, 428.408 1059.076 C 430.347 1057.467, 433.232 1051.175, 432.705 1049.705 C 432.467 1049.042, 431.424 1050.300, 430.386 1052.500 M 434.964 1058.164 C 433.819 1060.397, 433.846 1060.424, 435.574 1058.774 C 436.568 1057.824, 437.107 1056.773, 436.771 1056.438 C 436.436 1056.103, 435.623 1056.880, 434.964 1058.164 M 425.459 1062.067 C 425.096 1062.653, 425.014 1063.348, 425.276 1063.610 C 425.538 1063.872, 426.019 1063.392, 426.345 1062.543 C 427.021 1060.781, 426.445 1060.471, 425.459 1062.067 M 426.276 1073.224 C 424.503 1076.613, 423.211 1079.544, 423.405 1079.738 C 423.968 1080.302, 430.143 1068.927, 429.806 1067.948 C 429.638 1067.461, 428.049 1069.835, 426.276 1073.224 M 447.459 1071.067 C 447.096 1071.653, 447.014 1072.348, 447.276 1072.610 C 447.538 1072.872, 448.019 1072.392, 448.345 1071.543 C 449.021 1069.781, 448.445 1069.471, 447.459 1071.067 M 405.695 1074.057 C 405.254 1075.745, 405.412 1075.903, 406.579 1074.935 C 408.170 1073.614, 408.465 1072, 407.117 1072 C 406.631 1072, 405.991 1072.926, 405.695 1074.057 M 464 1091 C 464 1091.550, 464.450 1092, 465 1092 C 465.550 1092, 466 1091.550, 466 1091 C 466 1090.450, 465.550 1090, 465 1090 C 464.450 1090, 464 1090.450, 464 1091 M 497.602 1094.158 C 496.721 1095.416, 496 1096.787, 496 1097.205 C 496 1097.623, 494.146 1101.010, 491.881 1104.732 C 486.995 1112.761, 486.282 1114.190, 488.504 1111.500 C 491.138 1108.311, 500.146 1092.813, 499.652 1092.319 C 499.406 1092.072, 498.483 1092.900, 497.602 1094.158 M 405 1095.559 C 405 1096.416, 405.450 1096.840, 406 1096.500 C 406.550 1096.160, 407 1095.459, 407 1094.941 C 407 1094.423, 406.550 1094, 406 1094 C 405.450 1094, 405 1094.702, 405 1095.559 M 412.183 1095.217 C 411.533 1095.868, 411 1097.085, 411 1097.923 C 411 1098.968, 411.502 1098.728, 412.602 1097.158 C 414.357 1094.653, 414.071 1093.329, 412.183 1095.217 M 460.079 1099.583 C 460.127 1100.748, 460.364 1100.985, 460.683 1100.188 C 460.972 1099.466, 460.936 1098.603, 460.604 1098.271 C 460.272 1097.939, 460.036 1098.529, 460.079 1099.583 M 406.354 1105.524 C 403.667 1111.131, 404.859 1111.442, 407.814 1105.905 C 410.225 1101.389, 410.343 1100.989, 409.250 1101.024 C 408.837 1101.037, 407.534 1103.062, 406.354 1105.524 M 463.564 1106.707 C 463.022 1108.132, 463.136 1108.247, 464.124 1107.267 C 464.808 1106.588, 465.115 1105.781, 464.807 1105.474 C 464.499 1105.166, 463.940 1105.721, 463.564 1106.707 M 607.079 1105.668 C 607.036 1106.311, 606.741 1107.661, 606.424 1108.668 C 605.877 1110.409, 605.906 1110.412, 606.995 1108.712 C 607.626 1107.729, 607.920 1106.379, 607.650 1105.712 C 607.295 1104.837, 607.136 1104.825, 607.079 1105.668 M 399 1107.059 C 399 1107.641, 399.450 1107.840, 400 1107.500 C 400.550 1107.160, 401 1106.684, 401 1106.441 C 401 1106.198, 400.550 1106, 400 1106 C 399.450 1106, 399 1106.477, 399 1107.059 M 486.100 1109.295 C 484.835 1111.402, 484.857 1111.423, 486.579 1109.774 C 487.570 1108.824, 488.166 1107.832, 487.903 1107.569 C 487.640 1107.306, 486.829 1108.083, 486.100 1109.295 M 453 1108.941 C 453 1109.459, 453.450 1110.160, 454 1110.500 C 454.550 1110.840, 455 1110.416, 455 1109.559 C 455 1108.702, 454.550 1108, 454 1108 C 453.450 1108, 453 1108.423, 453 1108.941 M 366.100 1114.295 C 364.835 1116.402, 364.857 1116.423, 366.579 1114.774 C 367.570 1113.824, 368.166 1112.832, 367.903 1112.569 C 367.640 1112.306, 366.829 1113.083, 366.100 1114.295 M 422 1113.059 C 422 1113.641, 422.450 1113.840, 423 1113.500 C 423.550 1113.160, 424 1112.684, 424 1112.441 C 424 1112.198, 423.550 1112, 423 1112 C 422.450 1112, 422 1112.477, 422 1113.059 M 379.211 1116.601 C 378.501 1117.370, 378.362 1118, 378.902 1118 C 379.940 1118, 381.443 1116.098, 380.850 1115.534 C 380.658 1115.351, 379.920 1115.831, 379.211 1116.601 M 399.730 1116.925 C 399.377 1118.276, 399.640 1118.692, 400.613 1118.318 C 401.376 1118.025, 402 1117.159, 402 1116.393 C 402 1114.315, 400.309 1114.711, 399.730 1116.925 M 419.615 1117.465 C 418.727 1118.820, 417.993 1120.508, 417.985 1121.215 C 417.972 1122.256, 417.815 1122.257, 417.158 1121.222 C 416.574 1120.302, 415.971 1120.722, 415.008 1122.722 C 413.117 1126.644, 412.980 1128, 414.477 1128 C 415.193 1128, 415.757 1127.438, 415.731 1126.750 C 415.609 1123.463, 416.093 1121.939, 417.067 1122.542 C 417.655 1122.905, 418.381 1122.257, 418.684 1121.101 C 418.986 1119.945, 419.578 1119, 420 1119 C 420.422 1119, 421.002 1118.100, 421.290 1117 C 421.979 1114.364, 421.573 1114.477, 419.615 1117.465 M 392.459 1118.067 C 391.433 1119.727, 392.354 1119.957, 393.789 1118.399 C 394.499 1117.630, 394.638 1117, 394.098 1117 C 393.559 1117, 392.821 1117.480, 392.459 1118.067 M 454.624 1121.539 C 453.659 1124.053, 453.943 1124.702, 455.122 1122.675 C 455.706 1121.671, 455.973 1120.639, 455.715 1120.382 C 455.458 1120.124, 454.966 1120.645, 454.624 1121.539 M 389.583 1121.866 C 389.152 1122.563, 389.070 1123.403, 389.400 1123.733 C 390.295 1124.628, 391.271 1123.312, 390.787 1121.862 C 390.449 1120.846, 390.213 1120.846, 389.583 1121.866 M 480.183 1123.217 C 478.783 1124.617, 478.638 1126, 479.893 1126 C 480.809 1126, 482.318 1122.984, 481.707 1122.374 C 481.520 1122.186, 480.834 1122.566, 480.183 1123.217 M 393.177 1128.088 C 392.454 1129.246, 392.053 1130.387, 392.288 1130.622 C 392.982 1131.315, 395.220 1128.161, 394.841 1127.024 C 394.650 1126.450, 393.901 1126.929, 393.177 1128.088 M 409.587 1133.843 C 408.633 1135.682, 408.111 1137.444, 408.426 1137.760 C 408.742 1138.075, 409 1137.840, 409 1137.238 C 409 1136.636, 409.711 1135.432, 410.580 1134.563 C 411.450 1133.693, 411.972 1132.424, 411.742 1131.741 C 411.511 1131.058, 410.542 1132.004, 409.587 1133.843 M 357.028 1134.466 C 356.359 1135.273, 355.966 1136.383, 356.155 1136.934 C 356.345 1137.484, 357.020 1136.824, 357.656 1135.467 C 358.974 1132.654, 358.783 1132.351, 357.028 1134.466 M 386.641 1137.031 C 385.676 1138.664, 385.286 1140, 385.774 1140 C 386.833 1140, 389.542 1135.209, 388.866 1134.532 C 388.607 1134.273, 387.606 1135.398, 386.641 1137.031 M 425.638 1135.500 C 425.322 1136.325, 425.451 1137, 425.924 1137 C 426.398 1137, 427.045 1136.325, 427.362 1135.500 C 427.678 1134.675, 427.549 1134, 427.076 1134 C 426.602 1134, 425.955 1134.675, 425.638 1135.500 M 472.667 1136.667 C 472.300 1137.033, 472.014 1138.046, 472.030 1138.917 C 472.055 1140.217, 472.251 1140.174, 473.122 1138.675 C 474.199 1136.823, 473.887 1135.447, 472.667 1136.667 M 422.676 1140.130 C 422.267 1141.694, 421.639 1142.077, 420.310 1141.571 C 418.877 1141.025, 418.755 1141.139, 419.726 1142.117 C 420.699 1143.097, 421.371 1142.974, 422.976 1141.521 C 425.097 1139.602, 425.616 1138, 424.117 1138 C 423.631 1138, 422.983 1138.958, 422.676 1140.130 M 588.947 1144.639 C 588.395 1146.090, 588.182 1147.515, 588.472 1147.805 C 588.762 1148.096, 589 1147.893, 589 1147.355 C 589 1146.817, 589.918 1145.392, 591.039 1144.189 C 592.700 1142.406, 592.788 1142, 591.514 1142 C 590.654 1142, 589.499 1143.187, 588.947 1144.639 M 359.667 1145.667 C 358.711 1146.622, 358.845 1148, 359.893 1148 C 360.384 1148, 361.045 1147.325, 361.362 1146.500 C 361.947 1144.976, 360.881 1144.452, 359.667 1145.667 M 376.959 1151.058 C 374.333 1154.745, 375.332 1156.517, 378.046 1152.985 C 379.793 1150.712, 380.621 1148, 379.568 1148 C 379.331 1148, 378.156 1149.376, 376.959 1151.058 M 399.066 1149.909 C 398.305 1150.964, 396.976 1151.593, 396.095 1151.315 C 394.799 1150.906, 394.762 1150.998, 395.896 1151.805 C 396.739 1152.405, 397.023 1153.531, 396.613 1154.649 C 396.228 1155.701, 397.012 1155.205, 398.431 1153.500 C 399.805 1151.850, 400.944 1149.938, 400.964 1149.250 C 401.013 1147.555, 400.679 1147.671, 399.066 1149.909 M 367.864 1152.751 C 364.677 1157.873, 364.611 1158.087, 366.416 1157.394 C 367.287 1157.059, 368 1156.301, 368 1155.707 C 368 1155.114, 368.934 1153.635, 370.075 1152.420 C 371.257 1151.162, 371.729 1149.951, 371.173 1149.607 C 370.636 1149.275, 369.146 1150.690, 367.864 1152.751 M 584.422 1149.765 C 583.277 1150.546, 579.795 1157.129, 580.275 1157.608 C 580.898 1158.231, 582.722 1156.309, 584.884 1152.750 C 587.032 1149.215, 586.860 1148.104, 584.422 1149.765 M 462.964 1155.164 C 461.819 1157.397, 461.846 1157.424, 463.574 1155.774 C 464.568 1154.824, 465.107 1153.773, 464.771 1153.438 C 464.436 1153.103, 463.623 1153.880, 462.964 1155.164 M 372.564 1157.707 C 372.022 1159.132, 372.136 1159.247, 373.124 1158.267 C 373.808 1157.588, 374.115 1156.781, 373.807 1156.474 C 373.499 1156.166, 372.940 1156.721, 372.564 1157.707 M 393.278 1158.250 C 391.407 1160.669, 390.892 1162, 391.826 1162 C 392.345 1162, 393.507 1160.875, 394.408 1159.500 C 396.055 1156.987, 395.085 1155.914, 393.278 1158.250 M 449.459 1160.067 C 449.096 1160.653, 449.014 1161.348, 449.276 1161.610 C 449.538 1161.872, 450.019 1161.392, 450.345 1160.543 C 451.021 1158.781, 450.445 1158.471, 449.459 1160.067 M 361.729 1161.604 C 361.328 1162.005, 361 1163.023, 361 1163.867 C 361 1164.992, 361.296 1165.104, 362.113 1164.287 C 362.724 1163.676, 363.053 1162.658, 362.842 1162.025 C 362.631 1161.392, 362.130 1161.203, 361.729 1161.604 M 368.980 1162.524 C 368.284 1163.362, 367.968 1164.301, 368.276 1164.610 C 368.585 1164.919, 369.340 1164.233, 369.954 1163.086 C 371.264 1160.638, 370.778 1160.358, 368.980 1162.524 M 392.241 1170.006 C 389.359 1174.409, 387 1178.265, 387 1178.576 C 387 1178.886, 385.731 1181.021, 384.180 1183.320 C 380.972 1188.075, 378.473 1193.806, 379.263 1194.596 C 379.555 1194.889, 381.201 1192.287, 382.919 1188.814 C 387.232 1180.098, 389.877 1175.529, 394.826 1168.250 C 397.163 1164.813, 398.716 1162, 398.279 1162 C 397.841 1162, 395.124 1165.603, 392.241 1170.006 M 419.500 1164 C 419.160 1164.550, 419.359 1165, 419.941 1165 C 420.523 1165, 421 1164.550, 421 1164 C 421 1163.450, 420.802 1163, 420.559 1163 C 420.316 1163, 419.840 1163.450, 419.500 1164 M 365.421 1168.459 C 365.081 1169.811, 364.173 1171.442, 363.402 1172.081 C 361.786 1173.422, 361.522 1176, 363 1176 C 363.550 1176, 364 1175.357, 364 1174.571 C 364 1173.786, 364.594 1172.548, 365.319 1171.821 C 366.969 1170.169, 368.119 1166, 366.925 1166 C 366.437 1166, 365.760 1167.107, 365.421 1168.459 M 417 1167.059 C 417 1167.641, 417.450 1167.840, 418 1167.500 C 418.550 1167.160, 419 1166.684, 419 1166.441 C 419 1166.198, 418.550 1166, 418 1166 C 417.450 1166, 417 1166.477, 417 1167.059 M 453.716 1168.904 C 452.772 1170.502, 452.002 1172.189, 452.005 1172.654 C 452.011 1173.666, 456.912 1167.831, 456.964 1166.750 C 457.046 1165.045, 455.318 1166.191, 453.716 1168.904 M 414 1171.500 C 414 1172.325, 413.523 1173, 412.941 1173 C 412.359 1173, 412.177 1173.477, 412.537 1174.060 C 412.951 1174.730, 413.697 1174.454, 414.564 1173.310 C 416.208 1171.142, 416.358 1170, 415 1170 C 414.450 1170, 414 1170.675, 414 1171.500 M 422.507 1172.750 C 421.441 1174.537, 420.216 1176, 419.784 1176 C 419.353 1176, 419 1176.450, 419 1177 C 419 1178.921, 420.689 1177.979, 421.863 1175.402 C 422.613 1173.756, 423.582 1173.009, 424.508 1173.365 C 425.393 1173.704, 426.391 1173.053, 427.040 1171.713 C 428.034 1169.658, 428.005 1169.630, 426.642 1171.322 C 425.222 1173.084, 425.162 1173.084, 424.810 1171.322 C 424.515 1169.853, 424.069 1170.131, 422.507 1172.750 M 355.500 1172 C 355.160 1172.550, 355.610 1173, 356.500 1173 C 357.390 1173, 357.840 1172.550, 357.500 1172 C 357.160 1171.450, 356.710 1171, 356.500 1171 C 356.290 1171, 355.840 1171.450, 355.500 1172 M 401.564 1177.707 C 401.022 1179.132, 401.136 1179.247, 402.124 1178.267 C 402.808 1177.588, 403.115 1176.781, 402.807 1176.474 C 402.499 1176.166, 401.940 1176.721, 401.564 1177.707 M 378 1180 C 378 1180.550, 378.450 1181, 379 1181 C 379.550 1181, 380 1180.550, 380 1180 C 380 1179.450, 379.550 1179, 379 1179 C 378.450 1179, 378 1179.450, 378 1180 M 420.500 1180 C 420.160 1180.550, 420.332 1181, 420.882 1181 C 421.432 1181, 422.160 1180.550, 422.500 1180 C 422.840 1179.450, 422.668 1179, 422.118 1179 C 421.568 1179, 420.840 1179.450, 420.500 1180 M 415.500 1182 C 415.160 1182.550, 415.332 1183, 415.882 1183 C 416.432 1183, 417.160 1182.550, 417.500 1182 C 417.840 1181.450, 417.668 1181, 417.118 1181 C 416.568 1181, 415.840 1181.450, 415.500 1182 M 443.100 1185.295 C 441.835 1187.402, 441.857 1187.423, 443.579 1185.774 C 444.570 1184.824, 445.166 1183.832, 444.903 1183.569 C 444.640 1183.306, 443.829 1184.083, 443.100 1185.295 M 356.345 1186.543 C 355.445 1188.889, 356.417 1189.164, 357.796 1186.955 C 358.569 1185.717, 358.635 1185, 357.977 1185 C 357.405 1185, 356.671 1185.694, 356.345 1186.543 M 396.200 1186.200 C 394.789 1187.611, 394.632 1189, 395.883 1189 C 396.369 1189, 397.002 1188.100, 397.290 1187 C 397.900 1184.666, 397.804 1184.596, 396.200 1186.200 M 577.500 1187 C 577.840 1187.550, 578.316 1188, 578.559 1188 C 578.802 1188, 579 1187.550, 579 1187 C 579 1186.450, 578.523 1186, 577.941 1186 C 577.359 1186, 577.160 1186.450, 577.500 1187 M 388.710 1192 C 388.423 1193.100, 388.354 1194, 388.558 1194 C 388.763 1194, 389.411 1193.100, 390 1192 C 390.591 1190.895, 390.659 1190, 390.152 1190 C 389.647 1190, 388.998 1190.900, 388.710 1192 M 393 1191 C 393 1191.550, 393.450 1192, 394 1192 C 394.550 1192, 395 1191.550, 395 1191 C 395 1190.450, 394.550 1190, 394 1190 C 393.450 1190, 393 1190.450, 393 1191 M 390 1197 C 390 1197.550, 390.450 1198, 391 1198 C 391.550 1198, 392 1197.550, 392 1197 C 392 1196.450, 391.550 1196, 391 1196 C 390.450 1196, 390 1196.450, 390 1197 M 386.400 1197.765 C 384.911 1198.760, 382.732 1203.002, 383.715 1202.994 C 384.147 1202.990, 385.267 1201.640, 386.203 1199.994 C 388.044 1196.759, 388.053 1196.662, 386.400 1197.765 M 349.374 1199.467 C 348.321 1202.211, 349.570 1203.239, 350.766 1200.613 C 351.514 1198.973, 351.581 1198, 350.947 1198 C 350.392 1198, 349.684 1198.660, 349.374 1199.467 M 369 1199 C 369 1199.550, 369.450 1200, 370 1200 C 370.550 1200, 371 1199.550, 371 1199 C 371 1198.450, 370.550 1198, 370 1198 C 369.450 1198, 369 1198.450, 369 1199 M 375.500 1200 C 375.125 1201.183, 375.042 1202.376, 375.317 1202.651 C 375.592 1202.926, 376.125 1202.183, 376.500 1201 C 376.875 1199.817, 376.958 1198.624, 376.683 1198.349 C 376.408 1198.074, 375.875 1198.817, 375.500 1200 M 367.079 1201.583 C 367.127 1202.748, 367.364 1202.985, 367.683 1202.188 C 367.972 1201.466, 367.936 1200.603, 367.604 1200.271 C 367.272 1199.939, 367.036 1200.529, 367.079 1201.583 M 550 1205.500 C 549.306 1206.337, 549.197 1207, 549.755 1207 C 550.305 1207, 551.315 1206.325, 552 1205.500 C 552.694 1204.663, 552.803 1204, 552.245 1204 C 551.695 1204, 550.685 1204.675, 550 1205.500 M 372.292 1206.750 C 371.937 1207.713, 370.601 1210.179, 369.323 1212.230 C 366.673 1216.485, 366.144 1219.303, 368.434 1216.964 C 369.960 1215.406, 374.326 1205, 373.454 1205 C 373.170 1205, 372.647 1205.787, 372.292 1206.750 M 404.459 1206.067 C 403.433 1207.727, 404.354 1207.957, 405.789 1206.399 C 406.499 1205.630, 406.638 1205, 406.098 1205 C 405.559 1205, 404.821 1205.480, 404.459 1206.067 M 380.543 1207.931 C 380.226 1208.443, 380.425 1209.144, 380.984 1209.490 C 381.543 1209.835, 382 1209.416, 382 1208.559 C 382 1206.802, 381.400 1206.544, 380.543 1207.931 M 384.667 1207.667 C 384.300 1208.033, 384.014 1209.046, 384.030 1209.917 C 384.055 1211.217, 384.251 1211.174, 385.122 1209.675 C 386.199 1207.823, 385.887 1206.447, 384.667 1207.667 M 392 1210.059 C 392 1210.641, 392.450 1210.840, 393 1210.500 C 393.550 1210.160, 394 1209.684, 394 1209.441 C 394 1209.198, 393.550 1209, 393 1209 C 392.450 1209, 392 1209.477, 392 1210.059 M 547.250 1210.137 C 546.563 1210.832, 546 1211.811, 546 1212.314 C 546 1212.817, 543.975 1216.477, 541.500 1220.448 C 539.025 1224.419, 537 1228.193, 537 1228.834 C 537 1229.475, 536.601 1230, 536.114 1230 C 535.627 1230, 534.465 1231.688, 533.532 1233.750 C 530.360 1240.767, 527.505 1246, 526.850 1246 C 526.490 1246, 525.708 1247.237, 525.111 1248.750 C 523.979 1251.620, 522.189 1254.770, 517.863 1261.500 C 514.799 1266.267, 513.474 1270, 514.847 1270 C 515.386 1270, 517.554 1267.026, 519.664 1263.391 C 521.774 1259.756, 523.968 1255.979, 524.539 1254.998 C 525.111 1254.016, 526.068 1252.603, 526.667 1251.857 C 527.265 1251.110, 528.090 1249.410, 528.500 1248.077 C 528.910 1246.744, 529.646 1245.169, 530.136 1244.577 C 532.051 1242.265, 536 1235.868, 536 1235.078 C 536 1234.620, 536.670 1233.689, 537.489 1233.009 C 538.308 1232.329, 538.731 1231.374, 538.430 1230.887 C 538.129 1230.399, 538.305 1230, 538.822 1230 C 539.339 1230, 541.472 1226.513, 543.562 1222.250 C 545.652 1217.987, 547.770 1214.224, 548.268 1213.887 C 548.767 1213.550, 549.023 1212.284, 548.837 1211.074 C 548.566 1209.307, 548.254 1209.123, 547.250 1210.137 M 554.506 1211.994 C 553.507 1213.097, 553.017 1214, 553.416 1214 C 554.471 1214, 557.321 1210.988, 556.780 1210.446 C 556.527 1210.194, 555.504 1210.890, 554.506 1211.994 M 390.500 1213 C 390.160 1213.550, 390.359 1214, 390.941 1214 C 391.523 1214, 392 1213.550, 392 1213 C 392 1212.450, 391.802 1212, 391.559 1212 C 391.316 1212, 390.840 1212.450, 390.500 1213 M 333.459 1214.067 C 332.383 1215.808, 333.608 1216.177, 334.980 1214.524 C 335.769 1213.574, 335.845 1213, 335.181 1213 C 334.597 1213, 333.821 1213.480, 333.459 1214.067 M 413.938 1215.116 C 413.057 1216.762, 413.085 1217.138, 414.066 1216.811 C 414.758 1216.581, 415.437 1215.628, 415.574 1214.696 C 415.910 1212.406, 415.305 1212.561, 413.938 1215.116 M 423.966 1215.750 C 423.212 1217.263, 422.391 1218.907, 422.143 1219.405 C 421.894 1219.902, 422.182 1220.006, 422.782 1219.635 C 424.203 1218.756, 427.075 1213, 426.092 1213 C 425.677 1213, 424.721 1214.237, 423.966 1215.750 M 551.882 1215.750 C 551.816 1216.162, 551.812 1216.824, 551.872 1217.220 C 551.931 1217.616, 551.085 1218.420, 549.990 1219.005 C 548.896 1219.591, 548 1220.939, 548 1222 C 548 1223.061, 547.100 1224.411, 546 1225 C 544.900 1225.589, 544 1226.807, 544 1227.706 C 544 1228.606, 543.383 1230.053, 542.630 1230.921 C 540.585 1233.277, 535.839 1242.172, 536.352 1242.686 C 537.065 1243.399, 541.065 1238.696, 540.694 1237.582 C 540.509 1237.027, 541.303 1235.657, 542.458 1234.537 C 543.614 1233.416, 545.105 1231.375, 545.772 1230 C 547.427 1226.591, 549.330 1223.625, 550.335 1222.888 C 550.795 1222.552, 551.123 1221.984, 551.065 1221.628 C 551.007 1221.271, 551.655 1219.634, 552.505 1217.990 C 553.387 1216.285, 553.611 1215, 553.026 1215 C 552.462 1215, 551.947 1215.338, 551.882 1215.750 M 818.500 1215.802 C 814.022 1216.252, 809.858 1218.591, 806.500 1222.544 C 804.850 1224.486, 801.571 1228.132, 799.214 1230.647 C 794.245 1235.946, 787.068 1245.987, 784.126 1251.752 C 783.004 1253.953, 781.344 1256.038, 780.439 1256.385 C 779.497 1256.747, 779.035 1257.650, 779.360 1258.496 C 779.673 1259.310, 779.449 1259.869, 778.864 1259.738 C 777.853 1259.512, 771.231 1269.284, 765.812 1279 C 764.431 1281.475, 761.367 1286.650, 759.001 1290.500 C 756.635 1294.350, 753.910 1298.901, 752.944 1300.613 C 749.329 1307.022, 748.460 1308.374, 746.892 1310.024 C 744.931 1312.088, 731.667 1338.774, 731.667 1340.655 C 731.667 1341.395, 731.322 1342, 730.901 1342 C 730.479 1342, 729.826 1343.013, 729.449 1344.250 C 729.072 1345.487, 728.029 1347.335, 727.132 1348.355 C 726.234 1349.375, 725.661 1350.275, 725.858 1350.355 C 726.413 1350.579, 721.598 1360.457, 720.750 1360.833 C 720.337 1361.017, 720 1361.542, 720 1362 C 720 1362.729, 710.640 1379.964, 708.052 1384 C 707.523 1384.825, 705.720 1387.750, 704.045 1390.500 C 699.374 1398.169, 698.679 1399.255, 696.202 1402.750 C 694.935 1404.537, 694.177 1406, 694.517 1406 C 694.858 1406, 694.177 1407.347, 693.005 1408.993 C 691.833 1410.639, 691.197 1412.509, 691.591 1413.148 C 692.020 1413.842, 691.874 1414.040, 691.227 1413.640 C 690.284 1413.058, 688.293 1416.782, 688.943 1417.910 C 689.073 1418.136, 688.483 1418.710, 687.633 1419.186 C 686.782 1419.662, 685.299 1422.549, 684.337 1425.601 C 683.375 1428.653, 681.780 1431.582, 680.794 1432.110 C 679.807 1432.638, 679 1433.780, 679 1434.648 C 679 1435.516, 677.851 1437.637, 676.447 1439.363 C 673.387 1443.122, 667.961 1451.467, 664.796 1457.283 C 663.533 1459.602, 662.272 1461.725, 661.994 1462 C 660.346 1463.630, 656 1470.018, 656 1470.811 C 656 1471.330, 655.358 1472.288, 654.574 1472.939 C 652.969 1474.270, 638.467 1497.397, 636.350 1502 C 635.971 1502.825, 634.162 1505.871, 632.330 1508.769 C 630.499 1511.668, 629 1514.507, 629 1515.078 C 629 1515.650, 628.550 1515.840, 628 1515.500 C 627.450 1515.160, 626.991 1515.471, 626.980 1516.191 C 626.969 1516.911, 625.395 1520.425, 623.482 1524 C 615.920 1538.134, 612.994 1547.154, 614.835 1550.655 C 615.368 1551.670, 616.398 1554.525, 617.122 1557 C 618.696 1562.378, 619.280 1563.038, 625.933 1566.961 C 629.996 1569.356, 632.257 1570, 636.603 1570 C 640.381 1570, 641.902 1569.651, 641.434 1568.893 C 640.967 1568.137, 641.472 1568.015, 643.026 1568.508 C 644.941 1569.116, 645.192 1568.944, 644.609 1567.424 C 644.104 1566.107, 644.543 1566.279, 646.229 1568.059 C 647.501 1569.401, 650.107 1571.864, 652.021 1573.531 C 653.934 1575.198, 656.675 1578.123, 658.111 1580.031 C 661.114 1584.024, 668.117 1591, 669.120 1591 C 671.399 1591, 685.401 1601.937, 687.500 1605.356 C 688.050 1606.252, 689.506 1607.128, 690.735 1607.302 C 691.964 1607.476, 693.764 1608.392, 694.735 1609.337 C 695.706 1610.282, 698.075 1612.156, 700 1613.502 C 701.925 1614.847, 705.834 1617.579, 708.686 1619.572 C 711.538 1621.566, 714.310 1622.927, 714.845 1622.596 C 715.381 1622.264, 716.573 1622.283, 717.494 1622.636 C 718.657 1623.082, 718.812 1623.498, 718.003 1623.998 C 717.353 1624.400, 718.698 1625.016, 721.045 1625.391 C 723.360 1625.761, 727.163 1627.183, 729.496 1628.551 C 732.183 1630.125, 734.429 1630.789, 735.620 1630.359 C 736.654 1629.986, 737.182 1630.034, 736.793 1630.464 C 735.948 1631.400, 742.438 1636, 744.603 1636 C 745.505 1636, 745.825 1636.473, 745.395 1637.170 C 744.909 1637.957, 745.217 1638.131, 746.336 1637.701 C 747.251 1637.350, 748 1637.468, 748 1637.964 C 748 1638.460, 748.877 1639.144, 749.949 1639.484 C 751.072 1639.840, 751.674 1640.685, 751.370 1641.478 C 750.992 1642.463, 751.433 1642.700, 752.921 1642.310 C 754.156 1641.988, 755 1642.244, 755 1642.942 C 755 1643.589, 755.404 1643.868, 755.897 1643.563 C 757.120 1642.808, 763.078 1644.064, 762.524 1644.961 C 762.280 1645.356, 763.568 1645.735, 765.386 1645.803 C 767.301 1645.875, 770.754 1647.314, 773.596 1649.223 C 776.293 1651.035, 781.130 1653.846, 784.345 1655.470 C 788.932 1657.788, 790.542 1659.237, 791.830 1662.211 C 792.733 1664.295, 793.960 1666, 794.556 1666 C 795.152 1666, 797.481 1667.576, 799.732 1669.502 C 801.982 1671.429, 804.426 1672.853, 805.162 1672.666 C 805.898 1672.480, 806.210 1672.501, 805.856 1672.712 C 804.256 1673.666, 806.472 1676.850, 809.335 1677.712 C 811.076 1678.236, 812.393 1679.174, 812.262 1679.797 C 812.131 1680.419, 812.658 1680.685, 813.434 1680.387 C 814.209 1680.089, 815.752 1680.332, 816.863 1680.927 C 818.502 1681.804, 819.145 1681.632, 820.281 1680.010 C 821.050 1678.911, 821.912 1678.246, 822.197 1678.531 C 822.482 1678.815, 823.284 1678.362, 823.980 1677.524 C 824.676 1676.686, 825.865 1676, 826.622 1676 C 827.380 1676, 828 1675.647, 828 1675.216 C 828 1674.784, 829.237 1673.685, 830.750 1672.772 C 832.263 1671.860, 834.625 1670.071, 836 1668.798 C 837.375 1667.524, 839.777 1665.662, 841.337 1664.661 C 842.897 1663.660, 843.937 1662.604, 843.648 1662.315 C 843.360 1662.026, 844.261 1660.735, 845.652 1659.446 C 847.150 1658.059, 847.877 1656.611, 847.436 1655.897 C 846.963 1655.131, 847.113 1654.952, 847.845 1655.405 C 848.480 1655.797, 849 1655.703, 849 1655.195 C 849 1654.688, 850.094 1653.178, 851.432 1651.841 C 852.769 1650.503, 854.007 1648.809, 854.182 1648.076 C 854.357 1647.342, 855.508 1645.700, 856.740 1644.427 C 858.013 1643.110, 858.726 1641.450, 858.392 1640.579 C 858.004 1639.568, 858.688 1638.644, 860.402 1637.863 C 861.831 1637.212, 863 1636.297, 863 1635.829 C 863 1634.992, 864.095 1633.373, 875.387 1617.500 C 882.230 1607.882, 884.849 1604.453, 887.508 1601.631 C 890.329 1598.638, 904.278 1579.066, 905.942 1575.767 C 906.700 1574.264, 908.100 1572.196, 909.054 1571.173 C 910.007 1570.149, 911.472 1568.004, 912.309 1566.406 C 913.146 1564.808, 914.768 1562.506, 915.915 1561.292 C 917.062 1560.077, 918 1558.685, 918 1558.197 C 918 1557.709, 918.889 1556.506, 919.974 1555.523 C 921.060 1554.540, 922.244 1552.783, 922.606 1551.618 C 922.967 1550.453, 924.132 1548.266, 925.194 1546.757 C 926.257 1545.248, 926.801 1543.448, 926.403 1542.757 C 926.005 1542.066, 926.050 1541.836, 926.502 1542.246 C 927.298 1542.967, 934 1533.983, 934 1532.194 C 934 1531.708, 934.889 1530.505, 935.976 1529.521 C 937.063 1528.538, 937.736 1527.381, 937.470 1526.952 C 937.205 1526.522, 937.328 1526.020, 937.744 1525.835 C 939.114 1525.228, 942.899 1519.250, 943.546 1516.673 C 943.895 1515.282, 944.862 1513.883, 945.694 1513.564 C 946.565 1513.230, 946.956 1512.328, 946.615 1511.440 C 946.289 1510.591, 946.400 1510.129, 946.861 1510.414 C 947.322 1510.699, 948.318 1509.710, 949.075 1508.216 C 949.832 1506.722, 952.600 1502.258, 955.226 1498.295 C 957.852 1494.332, 960 1490.853, 960 1490.563 C 960 1490.273, 961.688 1487.201, 963.750 1483.736 C 965.813 1480.272, 967.640 1476.806, 967.812 1476.034 C 967.983 1475.262, 968.746 1474.151, 969.507 1473.565 C 970.268 1472.979, 971.027 1471.877, 971.195 1471.115 C 971.363 1470.353, 972.513 1468.600, 973.750 1467.219 C 974.987 1465.838, 976 1464.136, 976 1463.437 C 976 1462.738, 976.337 1462.017, 976.750 1461.833 C 977.163 1461.650, 978.778 1459.536, 980.340 1457.135 C 981.902 1454.735, 982.577 1453.081, 981.840 1453.459 C 981.103 1453.838, 981.374 1453.440, 982.441 1452.574 C 983.509 1451.708, 984.061 1451, 983.668 1451 C 983.275 1451, 983.691 1449.875, 984.592 1448.500 C 985.493 1447.125, 985.903 1446, 985.504 1446 C 985.105 1446, 985.747 1445.213, 986.932 1444.250 C 989.137 1442.457, 992.058 1437.953, 996.171 1430 C 997.451 1427.525, 999.061 1425.140, 999.749 1424.700 C 1000.437 1424.260, 1001 1423.454, 1001 1422.908 C 1001 1422.363, 1001.947 1420.923, 1003.105 1419.708 C 1004.262 1418.494, 1005.928 1416.375, 1006.806 1415 C 1007.685 1413.625, 1009.694 1410.820, 1011.272 1408.768 C 1012.874 1406.682, 1013.820 1404.518, 1013.415 1403.863 C 1012.971 1403.145, 1013.123 1402.958, 1013.808 1403.381 C 1014.459 1403.784, 1016.016 1402.422, 1017.545 1400.111 C 1018.987 1397.932, 1020.851 1395.888, 1021.687 1395.567 C 1022.523 1395.246, 1022.963 1394.345, 1022.663 1393.565 C 1022.364 1392.785, 1022.767 1391.608, 1023.559 1390.951 C 1024.352 1390.293, 1025.001 1390.148, 1025.001 1390.628 C 1025.002 1391.107, 1026.239 1390.293, 1027.751 1388.818 C 1035.219 1381.533, 1038.161 1379, 1039.156 1379 C 1039.829 1379, 1039.720 1378.359, 1038.872 1377.323 C 1037.652 1375.831, 1037.705 1375.759, 1039.356 1376.672 C 1040.816 1377.479, 1041.700 1377.209, 1043.503 1375.406 C 1044.764 1374.145, 1046.031 1372.526, 1046.319 1371.807 C 1046.749 1370.733, 1046.856 1370.733, 1046.921 1371.809 C 1046.964 1372.529, 1047.430 1372.852, 1047.956 1372.527 C 1048.482 1372.202, 1048.659 1371.275, 1048.349 1370.468 C 1048.040 1369.661, 1048.302 1369, 1048.932 1369 C 1049.755 1369, 1049.776 1368.647, 1049.005 1367.750 C 1048.415 1367.063, 1047.239 1365.600, 1046.392 1364.500 C 1045.545 1363.400, 1045.143 1363.175, 1045.500 1364 C 1045.933 1365.001, 1045.675 1364.923, 1044.725 1363.766 C 1043.943 1362.812, 1043.009 1362.324, 1042.651 1362.682 C 1042.293 1363.040, 1042 1362.631, 1042 1361.774 C 1042 1360.916, 1041.277 1359.937, 1040.394 1359.598 C 1039.251 1359.159, 1038.968 1358.264, 1039.413 1356.491 C 1039.784 1355.011, 1039.608 1354, 1038.980 1354 C 1038.346 1354, 1038.438 1353.443, 1039.211 1352.611 C 1040.002 1351.757, 1040.740 1351.604, 1041.122 1352.212 C 1041.464 1352.757, 1041.945 1351.831, 1042.191 1350.154 C 1042.437 1348.477, 1042.317 1347.304, 1041.925 1347.546 C 1041.533 1347.789, 1040.516 1346.248, 1039.666 1344.124 C 1038.252 1340.588, 1035 1337.737, 1035 1340.031 C 1035 1340.564, 1034.475 1341, 1033.833 1341 C 1033.192 1341, 1032.953 1340.713, 1033.304 1340.363 C 1033.654 1340.012, 1033.084 1338.523, 1032.037 1337.052 C 1030.990 1335.581, 1029.829 1333.168, 1029.458 1331.690 C 1029.087 1330.211, 1027.715 1327.989, 1026.409 1326.751 C 1025.103 1325.513, 1024.027 1324.012, 1024.017 1323.417 C 1023.992 1321.812, 1016.862 1314.967, 1015.861 1315.586 C 1015.387 1315.879, 1015 1315.751, 1015 1315.303 C 1015 1313.848, 1009.103 1311.832, 1006.896 1312.533 C 1005.522 1312.969, 1004.980 1312.841, 1005.391 1312.176 C 1005.744 1311.605, 1005.568 1310.851, 1005 1310.500 C 1004.432 1310.149, 1004.207 1309.474, 1004.500 1309 C 1005.633 1307.166, 1002.766 1306.899, 1000.765 1308.652 C 999.605 1309.668, 998.963 1309.974, 999.337 1309.331 C 999.767 1308.593, 998.723 1307.734, 996.509 1307.003 C 994.579 1306.366, 993 1305.430, 993 1304.922 C 993 1304.415, 992.100 1304, 991 1304 C 989.900 1304, 989 1303.360, 989 1302.578 C 989 1301.795, 987.431 1300.637, 985.514 1300.005 C 983.597 1299.372, 981.727 1298.367, 981.359 1297.773 C 980.933 1297.083, 981.165 1296.984, 982 1297.500 C 982.883 1298.045, 983.068 1297.919, 982.569 1297.112 C 982.163 1296.454, 980.103 1295.225, 977.992 1294.380 C 975.881 1293.536, 973.925 1292.247, 973.645 1291.517 C 972.632 1288.877, 964.223 1284, 960.685 1284 C 958.087 1284, 956.816 1283.369, 955.563 1281.455 C 954.646 1280.056, 952.906 1278.482, 951.698 1277.958 C 948.385 1276.521, 945.882 1274.792, 942.712 1271.750 C 941.136 1270.237, 939.131 1269, 938.256 1269 C 937.382 1269, 936.952 1268.715, 937.301 1268.366 C 938.022 1267.645, 929.685 1261, 928.060 1261 C 927.477 1261, 926.110 1260.110, 925.023 1259.023 C 923.813 1257.813, 922.391 1257.297, 921.359 1257.693 C 920.220 1258.130, 919.907 1257.960, 920.395 1257.170 C 920.857 1256.423, 920.381 1256, 919.079 1256 C 914.024 1256, 907.707 1252.242, 899.590 1244.408 C 898.968 1243.807, 897.421 1242.760, 896.152 1242.081 C 894.883 1241.402, 894.074 1240.250, 894.354 1239.521 C 895.078 1237.632, 893.921 1236.821, 892.355 1238.120 C 890.281 1239.842, 885.688 1238.303, 886.268 1236.081 C 886.630 1234.698, 886.299 1234.370, 884.907 1234.735 C 883.895 1234.999, 880.915 1234.717, 878.284 1234.108 C 875.653 1233.499, 869.306 1232.542, 864.179 1231.982 C 856.681 1231.163, 853.907 1231.247, 849.992 1232.410 C 845.776 1233.662, 844.966 1233.664, 843.940 1232.428 C 843.288 1231.642, 842.328 1231, 841.806 1231 C 841.284 1231, 840.243 1230.386, 839.493 1229.636 C 838.452 1228.595, 838.406 1227.994, 839.297 1227.103 C 840.188 1226.212, 839.929 1225.794, 838.205 1225.343 C 836.546 1224.910, 836.103 1224.252, 836.539 1222.876 C 836.949 1221.586, 836.645 1221, 835.567 1221 C 834.705 1221, 834 1220.325, 834 1219.500 C 834 1218.675, 833.362 1218, 832.583 1218 C 831.804 1218, 831.003 1217.508, 830.802 1216.906 C 830.436 1215.807, 824.099 1215.239, 818.500 1215.802 M 399 1217.059 C 399 1217.641, 399.450 1217.840, 400 1217.500 C 400.550 1217.160, 401 1216.684, 401 1216.441 C 401 1216.198, 400.550 1216, 400 1216 C 399.450 1216, 399 1216.477, 399 1217.059 M 328.500 1221 C 328.160 1221.550, 328.359 1222, 328.941 1222 C 329.523 1222, 330 1221.550, 330 1221 C 330 1220.450, 329.802 1220, 329.559 1220 C 329.316 1220, 328.840 1220.450, 328.500 1221 M 418.747 1226.081 C 415.882 1231.213, 415.446 1232.460, 416.814 1231.615 C 417.936 1230.922, 422.418 1222.085, 421.907 1221.574 C 421.680 1221.347, 420.258 1223.375, 418.747 1226.081 M 314.079 1223.583 C 314.127 1224.748, 314.364 1224.985, 314.683 1224.188 C 314.972 1223.466, 314.936 1222.603, 314.604 1222.271 C 314.272 1221.939, 314.036 1222.529, 314.079 1223.583 M 326 1224 C 326 1224.550, 326.675 1225, 327.500 1225 C 328.325 1225, 329 1224.550, 329 1224 C 329 1223.450, 328.325 1223, 327.500 1223 C 326.675 1223, 326 1223.450, 326 1224 M 374.646 1226.958 C 373.191 1229.158, 372 1231.224, 372 1231.550 C 372 1232.612, 375.410 1228.764, 376.739 1226.201 C 378.842 1222.149, 377.510 1222.631, 374.646 1226.958 M 361.200 1225.200 C 359.754 1226.646, 359.640 1228, 360.965 1228 C 361.495 1228, 362.411 1227.100, 363 1226 C 364.179 1223.797, 363.088 1223.312, 361.200 1225.200 M 382 1228.500 C 382 1229.325, 382.177 1230, 382.393 1230 C 382.609 1230, 383.045 1229.325, 383.362 1228.500 C 383.678 1227.675, 383.501 1227, 382.969 1227 C 382.436 1227, 382 1227.675, 382 1228.500 M 846.250 1228.220 C 845.013 1228.817, 844 1229.697, 844 1230.176 C 844 1230.865, 847.056 1229.381, 849.917 1227.303 C 850.915 1226.577, 848.300 1227.232, 846.250 1228.220 M 413 1230.059 C 413 1230.641, 413.450 1230.840, 414 1230.500 C 414.550 1230.160, 415 1229.684, 415 1229.441 C 415 1229.198, 414.550 1229, 414 1229 C 413.450 1229, 413 1229.477, 413 1230.059 M 368 1236 C 368 1236.550, 368.450 1237, 369 1237 C 369.550 1237, 370 1236.550, 370 1236 C 370 1235.450, 369.550 1235, 369 1235 C 368.450 1235, 368 1235.450, 368 1236 M 412.564 1237.707 C 412.022 1239.132, 412.136 1239.247, 413.124 1238.267 C 413.808 1237.588, 414.115 1236.781, 413.807 1236.474 C 413.499 1236.166, 412.940 1236.721, 412.564 1237.707 M 375 1238.500 C 374.282 1239.365, 374.185 1240, 374.771 1240 C 375.329 1240, 376.045 1239.325, 376.362 1238.500 C 376.678 1237.675, 376.781 1237, 376.591 1237 C 376.401 1237, 375.685 1237.675, 375 1238.500 M 312.119 1242.478 C 309.816 1245.892, 309.561 1246.667, 311.049 1245.738 C 312.122 1245.067, 313 1244.094, 313 1243.574 C 313 1243.054, 313.978 1241.587, 315.174 1240.314 C 316.370 1239.042, 316.852 1238, 316.245 1238 C 315.638 1238, 313.782 1240.015, 312.119 1242.478 M 360 1248 C 360 1248.550, 360.450 1249, 361 1249 C 361.550 1249, 362 1248.550, 362 1248 C 362 1247.450, 361.550 1247, 361 1247 C 360.450 1247, 360 1247.450, 360 1248 M 531 1250 C 531 1250.550, 531.450 1251, 532 1251 C 532.550 1251, 533 1250.550, 533 1250 C 533 1249.450, 532.550 1249, 532 1249 C 531.450 1249, 531 1249.450, 531 1250 M 527.500 1255 C 527.160 1255.550, 527.359 1256, 527.941 1256 C 528.523 1256, 529 1255.550, 529 1255 C 529 1254.450, 528.802 1254, 528.559 1254 C 528.316 1254, 527.840 1254.450, 527.500 1255 M 442 1257.559 C 442 1258.416, 442.450 1258.840, 443 1258.500 C 443.550 1258.160, 444 1257.459, 444 1256.941 C 444 1256.423, 443.550 1256, 443 1256 C 442.450 1256, 442 1256.702, 442 1257.559 M 285 1276.059 C 285 1276.641, 285.450 1276.840, 286 1276.500 C 286.550 1276.160, 287 1275.684, 287 1275.441 C 287 1275.198, 286.550 1275, 286 1275 C 285.450 1275, 285 1275.477, 285 1276.059 M 341.541 1281.250 C 340.501 1283.037, 339.167 1284.831, 338.575 1285.235 C 337.814 1285.755, 337.819 1285.974, 338.595 1285.985 C 339.880 1286.003, 342.261 1283.431, 343.907 1280.250 C 345.723 1276.737, 343.658 1277.611, 341.541 1281.250 M 382 1289.059 C 382 1289.641, 382.450 1289.840, 383 1289.500 C 383.550 1289.160, 384 1288.684, 384 1288.441 C 384 1288.198, 383.550 1288, 383 1288 C 382.450 1288, 382 1288.477, 382 1289.059 M 356.564 1292.707 C 356.022 1294.132, 356.136 1294.247, 357.124 1293.267 C 357.808 1292.588, 358.115 1291.781, 357.807 1291.474 C 357.499 1291.166, 356.940 1291.721, 356.564 1292.707 M 376 1295 C 376 1295.550, 376.450 1296, 377 1296 C 377.550 1296, 378 1295.550, 378 1295 C 378 1294.450, 377.550 1294, 377 1294 C 376.450 1294, 376 1294.450, 376 1295 M 325 1308 C 324.411 1309.100, 324.155 1310, 324.430 1310 C 324.705 1310, 325.411 1309.100, 326 1308 C 326.589 1306.900, 326.845 1306, 326.570 1306 C 326.295 1306, 325.589 1306.900, 325 1308 M 390.500 1315 C 390.160 1315.550, 390.359 1316, 390.941 1316 C 391.523 1316, 392 1315.550, 392 1315 C 392 1314.450, 391.802 1314, 391.559 1314 C 391.316 1314, 390.840 1314.450, 390.500 1315 M 241.068 1317.872 C 239.886 1320.082, 240.603 1325, 242.108 1325 C 243.366 1325, 243.215 1323.615, 241.804 1322.204 C 240.875 1321.275, 241.043 1320.686, 242.554 1319.571 C 244.032 1318.480, 244.221 1317.852, 243.343 1316.960 C 242.459 1316.063, 241.921 1316.279, 241.068 1317.872 M 248 1328 C 248 1328.550, 248.450 1329, 249 1329 C 249.550 1329, 250 1328.550, 250 1328 C 250 1327.450, 249.550 1327, 249 1327 C 248.450 1327, 248 1327.450, 248 1328 M 443.583 1332.866 C 443.152 1333.563, 443.070 1334.403, 443.400 1334.733 C 444.295 1335.628, 445.271 1334.312, 444.787 1332.862 C 444.449 1331.846, 444.213 1331.846, 443.583 1332.866 M 271.507 1336.989 C 271.157 1337.555, 271.558 1337.723, 272.448 1337.382 C 274.180 1336.717, 274.497 1336, 273.059 1336 C 272.541 1336, 271.843 1336.445, 271.507 1336.989 M 440.097 1340.150 C 438.596 1344.456, 438.695 1344.658, 441 1342 C 443.200 1339.463, 443.462 1338.404, 442.097 1337.560 C 441.601 1337.253, 440.701 1338.419, 440.097 1340.150 M 347.667 1340.667 C 347.300 1341.033, 347 1341.798, 347 1342.367 C 347 1342.993, 347.466 1342.934, 348.183 1342.217 C 348.834 1341.566, 349.134 1340.801, 348.850 1340.517 C 348.566 1340.233, 348.033 1340.300, 347.667 1340.667 M 925.583 1343.643 C 924.665 1346.037, 925.381 1346.221, 926.796 1343.955 C 927.468 1342.880, 927.611 1342, 927.115 1342 C 926.620 1342, 925.930 1342.739, 925.583 1343.643 M 852.500 1347 C 852.125 1348.183, 852.042 1349.376, 852.317 1349.651 C 852.592 1349.926, 853.125 1349.183, 853.500 1348 C 853.875 1346.817, 853.958 1345.624, 853.683 1345.349 C 853.408 1345.074, 852.875 1345.817, 852.500 1347 M 436.028 1348.426 C 434.542 1352.335, 434.836 1352.950, 436.618 1349.662 C 437.464 1348.100, 437.909 1346.576, 437.606 1346.273 C 437.304 1345.970, 436.593 1346.939, 436.028 1348.426 M 343.731 1348.920 C 343.296 1350.583, 343.426 1350.974, 344.168 1350.232 C 344.750 1349.650, 345.028 1348.585, 344.788 1347.863 C 344.538 1347.114, 344.085 1347.568, 343.731 1348.920 M 1038.658 1349.449 C 1038.287 1350.416, 1038.582 1350.714, 1039.545 1350.344 C 1040.339 1350.040, 1040.740 1349.388, 1040.435 1348.895 C 1039.669 1347.655, 1039.303 1347.769, 1038.658 1349.449 M 921.048 1352.442 C 920.368 1353.262, 920.003 1354.509, 920.238 1355.214 C 920.508 1356.024, 921.123 1355.638, 921.913 1354.162 C 923.384 1351.415, 922.824 1350.303, 921.048 1352.442 M 286.553 1352.915 C 286.231 1353.436, 286.394 1354.125, 286.915 1354.447 C 287.436 1354.769, 288.125 1354.606, 288.447 1354.085 C 288.769 1353.564, 288.606 1352.875, 288.085 1352.553 C 287.564 1352.231, 286.875 1352.394, 286.553 1352.915 M 339.638 1357.500 C 339.322 1358.325, 339.499 1359, 340.031 1359 C 340.564 1359, 341 1358.325, 341 1357.500 C 341 1356.675, 340.823 1356, 340.607 1356 C 340.391 1356, 339.955 1356.675, 339.638 1357.500 M 430.500 1360 C 430.160 1360.550, 430.359 1361, 430.941 1361 C 431.523 1361, 432 1360.550, 432 1360 C 432 1359.450, 431.802 1359, 431.559 1359 C 431.316 1359, 430.840 1359.450, 430.500 1360 M 337 1361.559 C 337 1362.416, 337.450 1362.840, 338 1362.500 C 338.550 1362.160, 339 1361.459, 339 1360.941 C 339 1360.423, 338.550 1360, 338 1360 C 337.450 1360, 337 1360.702, 337 1361.559 M 915.797 1363.006 C 914.860 1364.653, 914.489 1366, 914.973 1366 C 915.457 1366, 916.527 1364.650, 917.350 1363 C 919.294 1359.102, 918.015 1359.108, 915.797 1363.006 M 314.510 1362.016 C 314.856 1362.575, 315.557 1362.774, 316.069 1362.457 C 317.456 1361.600, 317.198 1361, 315.441 1361 C 314.584 1361, 314.165 1361.457, 314.510 1362.016 M 844.564 1363.707 C 844.022 1365.132, 844.136 1365.247, 845.124 1364.267 C 845.808 1363.588, 846.115 1362.781, 845.807 1362.474 C 845.499 1362.166, 844.940 1362.721, 844.564 1363.707 M 919.459 1365.067 C 918.383 1366.808, 919.608 1367.177, 920.980 1365.524 C 921.769 1364.574, 921.845 1364, 921.181 1364 C 920.597 1364, 919.821 1364.480, 919.459 1365.067 M 842.667 1366.667 C 842.300 1367.033, 842 1367.798, 842 1368.367 C 842 1368.993, 842.466 1368.934, 843.183 1368.217 C 843.834 1367.566, 844.134 1366.801, 843.850 1366.517 C 843.566 1366.233, 843.033 1366.300, 842.667 1366.667 M 913.079 1369.583 C 913.127 1370.748, 913.364 1370.985, 913.683 1370.188 C 913.972 1369.466, 913.936 1368.603, 913.604 1368.271 C 913.272 1367.939, 913.036 1368.529, 913.079 1369.583 M 837.987 1375.032 C 837.296 1376.700, 837.016 1378.350, 837.365 1378.699 C 837.714 1379.048, 838 1378.638, 838 1377.789 C 838 1376.940, 838.675 1375.685, 839.500 1375 C 841.155 1373.626, 841.492 1372, 840.121 1372 C 839.638 1372, 838.677 1373.364, 837.987 1375.032 M 985.583 1381.643 C 984.631 1384.126, 985.681 1384.465, 986.954 1382.086 C 987.568 1380.938, 987.653 1380, 987.142 1380 C 986.632 1380, 985.930 1380.739, 985.583 1381.643 M 849.583 1381.866 C 849.152 1382.563, 849.070 1383.403, 849.400 1383.733 C 850.295 1384.628, 851.271 1383.312, 850.787 1381.862 C 850.449 1380.846, 850.213 1380.846, 849.583 1381.866 M 911 1383 C 911 1383.550, 911.450 1384, 912 1384 C 912.550 1384, 913 1383.550, 913 1383 C 913 1382.450, 912.550 1382, 912 1382 C 911.450 1382, 911 1382.450, 911 1383 M 345 1383.893 C 345 1384.384, 345.652 1385.036, 346.449 1385.342 C 347.418 1385.714, 347.714 1385.418, 347.342 1384.449 C 346.735 1382.867, 345 1382.455, 345 1383.893 M 828.583 1391.643 C 827.665 1394.037, 828.381 1394.221, 829.796 1391.955 C 830.468 1390.880, 830.611 1390, 830.115 1390 C 829.620 1390, 828.930 1390.739, 828.583 1391.643 M 1023.500 1392 C 1023.160 1392.550, 1023.359 1393, 1023.941 1393 C 1024.523 1393, 1025 1392.550, 1025 1392 C 1025 1391.450, 1024.802 1391, 1024.559 1391 C 1024.316 1391, 1023.840 1391.450, 1023.500 1392 M 902 1399.500 C 902 1400.325, 902.450 1401, 903 1401 C 903.550 1401, 904 1400.325, 904 1399.500 C 904 1398.675, 903.550 1398, 903 1398 C 902.450 1398, 902 1398.675, 902 1399.500 M 970.667 1399.667 C 970.300 1400.033, 970 1400.798, 970 1401.367 C 970 1401.993, 970.466 1401.934, 971.183 1401.217 C 971.834 1400.566, 972.134 1399.801, 971.850 1399.517 C 971.566 1399.233, 971.033 1399.300, 970.667 1399.667 M 859 1401.500 C 859 1402.325, 859.177 1403, 859.393 1403 C 859.609 1403, 860.045 1402.325, 860.362 1401.500 C 860.678 1400.675, 860.501 1400, 859.969 1400 C 859.436 1400, 859 1400.675, 859 1401.500 M 957.703 1403.598 C 956.715 1404.919, 956.269 1406, 956.713 1406 C 957.585 1406, 960.345 1402.002, 959.819 1401.501 C 959.644 1401.333, 958.691 1402.277, 957.703 1403.598 M 967 1404.059 C 967 1404.641, 967.450 1404.840, 968 1404.500 C 968.550 1404.160, 969 1403.684, 969 1403.441 C 969 1403.198, 968.550 1403, 968 1403 C 967.450 1403, 967 1403.477, 967 1404.059 M 848.388 1420.531 C 847.475 1421.923, 846.982 1423.315, 847.291 1423.624 C 847.600 1423.933, 848.572 1422.794, 849.452 1421.093 C 851.380 1417.364, 850.698 1417.004, 848.388 1420.531 M 892.184 1420.496 C 891.556 1421.873, 891.431 1423, 891.905 1423 C 892.735 1423, 894.231 1418.898, 893.623 1418.289 C 893.459 1418.126, 892.811 1419.118, 892.184 1420.496 M 845 1425.559 C 845 1426.416, 845.457 1426.835, 846.016 1426.490 C 846.575 1426.144, 846.774 1425.443, 846.457 1424.931 C 845.600 1423.544, 845 1423.802, 845 1425.559 M 888 1428 C 888 1428.550, 888.477 1429, 889.059 1429 C 889.641 1429, 889.840 1428.550, 889.500 1428 C 889.160 1427.450, 888.684 1427, 888.441 1427 C 888.198 1427, 888 1427.450, 888 1428 M 860 1462.396 C 860 1463.383, 858.990 1465.609, 857.756 1467.343 C 856.522 1469.076, 855.653 1471.108, 855.826 1471.859 C 855.998 1472.609, 855.296 1474.185, 854.265 1475.362 C 853.234 1476.538, 851.130 1479.475, 849.590 1481.888 C 847.466 1485.216, 846.576 1485.941, 845.910 1484.888 C 844.884 1483.268, 844.677 1484.995, 845.607 1487.418 C 846.582 1489.959, 847.909 1489.267, 849.766 1485.250 C 850.720 1483.188, 852.063 1481.140, 852.750 1480.700 C 853.438 1480.260, 854 1479.268, 854 1478.495 C 854 1477.721, 855.154 1475.388, 856.564 1473.310 C 860.905 1466.913, 862.438 1463.038, 861.142 1461.742 C 860.286 1460.886, 860 1461.050, 860 1462.396 M 844.071 1491.415 C 843.325 1492.313, 843.012 1493.345, 843.374 1493.707 C 844.308 1494.641, 846.306 1492.417, 845.826 1490.978 C 845.550 1490.150, 845.008 1490.285, 844.071 1491.415 M 623.543 1544.931 C 623.226 1545.443, 623.425 1546.144, 623.984 1546.490 C 624.543 1546.835, 625 1546.416, 625 1545.559 C 625 1543.802, 624.400 1543.544, 623.543 1544.931 M 728 1571 C 728 1571.550, 728.450 1572, 729 1572 C 729.550 1572, 730 1571.550, 730 1571 C 730 1570.450, 729.550 1570, 729 1570 C 728.450 1570, 728 1570.450, 728 1571 M 704.500 1616 C 704.840 1616.550, 705.316 1617, 705.559 1617 C 705.802 1617, 706 1616.550, 706 1616 C 706 1615.450, 705.523 1615, 704.941 1615 C 704.359 1615, 704.160 1615.450, 704.500 1616 M 838 1618 C 838 1618.550, 838.450 1619, 839 1619 C 839.550 1619, 840 1618.550, 840 1618 C 840 1617.450, 839.550 1617, 839 1617 C 838.450 1617, 838 1617.450, 838 1618 M 834 1624 C 832.217 1626.251, 830.528 1627.861, 830.245 1627.578 C 829.962 1627.295, 828.426 1628.705, 826.832 1630.711 C 825.238 1632.717, 823.049 1634.978, 821.967 1635.736 C 820.885 1636.493, 820 1637.539, 820 1638.059 C 820 1638.580, 818.219 1640.614, 816.043 1642.580 C 813.866 1644.547, 811.837 1646.938, 811.533 1647.895 C 811.230 1648.851, 809.435 1650.241, 807.546 1650.982 C 805.656 1651.723, 804.139 1652.593, 804.173 1652.915 C 804.208 1653.237, 804.184 1654.793, 804.118 1656.372 C 804.017 1658.843, 803.784 1659.066, 802.458 1657.965 C 801.344 1657.041, 800.612 1656.988, 799.825 1657.775 C 798.119 1659.481, 799.696 1662.313, 802.014 1661.707 C 803.108 1661.421, 803.782 1661.544, 803.512 1661.980 C 802.714 1663.272, 805.609 1665.087, 807.382 1664.407 C 808.281 1664.062, 809.279 1662.737, 809.599 1661.462 C 809.919 1660.188, 810.815 1658.901, 811.590 1658.604 C 812.366 1658.306, 813 1657.391, 813 1656.570 C 813 1655.750, 813.948 1654.195, 815.106 1653.116 C 816.265 1652.036, 816.913 1650.669, 816.547 1650.077 C 816.181 1649.484, 816.535 1649, 817.334 1649 C 818.940 1649, 820.426 1646.330, 820.116 1644 C 819.953 1642.777, 820.086 1642.751, 820.835 1643.859 C 821.535 1644.896, 822.468 1644.185, 824.765 1640.859 C 826.421 1638.462, 828.961 1635.229, 830.409 1633.676 C 833.209 1630.673, 838.437 1621.104, 837.688 1620.354 C 837.442 1620.109, 835.783 1621.749, 834 1624 M 791.237 1648.163 C 789.446 1649.954, 789.716 1651, 791.969 1651 C 793.200 1651, 793.745 1651.500, 793.425 1652.335 C 793.143 1653.070, 793.817 1654.757, 794.923 1656.085 L 796.933 1658.500 796.967 1655.403 C 796.991 1653.188, 797.641 1652.007, 799.250 1651.256 L 801.500 1650.207 799 1649.208 C 797.598 1648.648, 796.098 1648.587, 795.585 1649.070 C 795.063 1649.561, 794.198 1649.285, 793.571 1648.429 C 792.699 1647.236, 792.219 1647.181, 791.237 1648.163 M 805.625 1654.798 C 804.901 1655.969, 806.757 1658.577, 807.667 1657.667 C 808.093 1657.240, 807.842 1656.520, 807.108 1656.067 C 806.001 1655.383, 806.006 1655.150, 807.137 1654.700 C 807.997 1654.358, 808.061 1654.129, 807.309 1654.079 C 806.654 1654.036, 805.896 1654.359, 805.625 1654.798" stroke="none" fill="black" fill-rule="evenodd"/>
</svg>