<svg xmlns="http://www.w3.org/2000/svg" width="1240" height="1753" viewBox="0 0 1240 1753" version="1.1">
	<path d="M 629.902 31.980 C 628.562 32.776, 608.144 33.114, 571.500 32.948 C 548.668 32.844, 516.937 33.891, 513.500 34.860 C 511.300 35.481, 507.903 35.991, 505.950 35.994 C 503.998 35.997, 501.899 36.501, 501.287 37.113 C 500.631 37.769, 499.626 37.877, 498.837 37.377 C 497.041 36.236, 492.664 36.273, 491.826 37.436 C 491.424 37.994, 490.555 37.876, 489.673 37.144 C 488.500 36.170, 488.087 36.183, 487.673 37.208 C 487.320 38.084, 486.886 38.161, 486.326 37.449 C 485.210 36.029, 475.254 35.794, 472.760 37.129 C 471.161 37.984, 470.922 37.928, 471.571 36.850 C 472.237 35.745, 472.077 35.749, 470.692 36.872 C 469.761 37.627, 469 37.802, 469 37.260 C 469 36.718, 467.762 36.470, 466.250 36.709 C 464.738 36.947, 458.775 37.355, 453 37.615 C 447.225 37.875, 437.117 38.760, 430.538 39.582 C 420.804 40.798, 417.684 40.847, 413.788 39.849 C 411.154 39.174, 409 38.252, 409 37.799 C 409 37.347, 407.313 37.222, 405.250 37.523 C 398.022 38.576, 393.041 38.624, 392.715 37.645 C 392.237 36.211, 390.003 36.090, 363.553 36.069 C 343.416 36.053, 339.120 36.307, 336.553 37.664 C 334.602 38.696, 330.360 39.387, 324.800 39.579 C 320.015 39.745, 313.490 40.385, 310.300 41.002 C 298.769 43.233, 292.354 44.106, 284.364 44.531 C 279.889 44.768, 275.109 45.388, 273.743 45.908 C 272.376 46.427, 269.986 46.713, 268.430 46.542 C 266.875 46.371, 264.871 46.688, 263.977 47.246 C 261.758 48.632, 236.753 47.208, 237.656 45.747 C 238.101 45.028, 236.914 44.948, 233.903 45.493 C 231.481 45.931, 224.860 46.402, 219.189 46.540 C 213.517 46.677, 208.605 47.062, 208.272 47.395 C 207.316 48.351, 201.179 48.099, 200.548 47.077 C 200.234 46.570, 196.270 46.126, 191.739 46.091 C 187.207 46.055, 182.825 45.962, 182 45.883 C 181.175 45.804, 174.313 46.084, 166.750 46.505 C 157.960 46.994, 153 46.918, 153 46.295 C 153 45.758, 150.412 44.685, 147.250 43.910 C 138.062 41.657, 90.271 42.700, 87.235 45.220 C 86.529 45.806, 85.696 46.029, 85.384 45.717 C 85.071 45.405, 83.550 46.276, 82.004 47.654 C 79.455 49.925, 78.317 52.944, 77.465 59.693 C 77.313 60.899, 76.822 62.474, 76.373 63.193 C 75.924 63.912, 75.476 66.750, 75.377 69.500 C 75.279 72.250, 74.487 76.560, 73.618 79.077 C 72.434 82.507, 71.915 89.274, 71.549 106.077 C 71.280 118.410, 70.359 133.225, 69.503 139 C 68.647 144.775, 67.522 152.650, 67.002 156.500 C 66.483 160.350, 66.093 176.325, 66.135 192 C 66.178 207.675, 66.182 223.425, 66.145 227 C 66.108 230.575, 66.323 232.938, 66.622 232.250 C 67.966 229.163, 68.514 231.802, 68.698 242.256 C 68.806 248.440, 69.149 255.075, 69.459 257 C 69.768 258.925, 70.308 267.147, 70.657 275.271 C 71.006 283.395, 71.564 289.770, 71.896 289.437 C 72.520 288.813, 72.587 288.528, 72.990 284.750 C 73.302 281.823, 74.805 288.927, 75.105 294.750 C 75.226 297.087, 75.681 299, 76.117 299 C 76.980 299, 77.676 295.501, 78.492 287.075 C 78.780 284.092, 79.198 281.469, 79.420 281.247 C 79.779 280.887, 80.859 290.699, 80.961 295.250 C 81.052 299.307, 81.198 300.579, 81.737 302 C 82.050 302.825, 82.198 306.270, 82.067 309.655 C 81.823 315.942, 83.144 320.169, 85.220 319.740 C 87.145 319.342, 87.354 323.268, 85.482 324.637 C 84.378 325.444, 83.476 328.018, 83.004 331.703 C 82.409 336.351, 82.209 336.806, 81.995 334 C 81.810 331.578, 81.596 331.176, 81.302 332.695 C 81.067 333.902, 81.335 336.552, 81.896 338.585 C 82.694 341.475, 82.598 342.735, 81.458 344.363 C 80.656 345.508, 80 347.192, 80 348.106 C 80 349.840, 76.850 351.213, 75.361 350.127 C 74.887 349.782, 74.456 347.250, 74.401 344.500 C 74.347 341.750, 73.836 337.250, 73.266 334.500 C 72.130 329.028, 71.990 331.796, 71.641 366.500 C 71.563 374.200, 71.221 380.950, 70.879 381.500 C 70.538 382.050, 70.386 388.125, 70.542 395 C 70.714 402.577, 70.418 407.992, 69.790 408.750 C 68.814 409.929, 69.838 410.499, 72.250 410.118 C 73.535 409.915, 73.072 411.695, 71.500 413 C 70.675 413.685, 70.007 414.977, 70.015 415.872 C 70.028 417.233, 70.179 417.265, 70.937 416.068 C 72.614 413.418, 71.299 426.375, 69.550 429.737 C 68.624 431.518, 68.192 433.502, 68.591 434.147 C 68.989 434.792, 69.249 437.023, 69.167 439.106 C 69.085 441.189, 69.445 443.157, 69.966 443.479 C 70.486 443.801, 70.745 444.612, 70.540 445.282 C 70.335 445.952, 69.881 448.525, 69.532 451 C 69.069 454.281, 69.196 455.201, 70.001 454.398 C 70.608 453.791, 71.247 452.216, 71.420 450.898 C 71.594 449.579, 71.998 447.825, 72.319 447 C 72.639 446.175, 73.095 444.375, 73.332 443 C 73.568 441.625, 73.776 447.413, 73.793 455.862 C 73.823 470.682, 73.148 473.390, 71.265 466 C 70.129 461.541, 68.679 461.843, 67.867 466.706 C 67.229 470.528, 67.298 472.430, 68.482 483.627 C 68.942 487.986, 68.710 490.759, 67.676 493.233 C 65.811 497.696, 66.600 501.677, 70.010 505.009 C 72.612 507.554, 72.736 508.153, 73.216 520.578 C 73.490 527.685, 73.360 534.737, 72.927 536.250 C 72.330 538.335, 72.485 539, 73.570 539 C 74.356 539, 75 539.480, 75 540.067 C 75 540.655, 74.159 540.868, 73.129 540.541 C 71.374 539.984, 71.215 540.927, 70.555 555.724 C 70.169 564.401, 69.882 574.200, 69.919 577.500 C 70.029 587.552, 70.002 587.881, 68.985 588.509 C 68.422 588.857, 68 587.832, 68 586.118 C 68 584.468, 67.601 582.872, 67.114 582.570 C 65.921 581.833, 65.030 585.481, 65.014 591.167 C 65.005 593.993, 64.509 595.997, 63.754 596.249 C 62.224 596.759, 61.554 635.436, 63.031 637.923 C 63.830 639.268, 64.061 639.170, 64.598 637.261 C 64.944 636.030, 65.584 635.243, 66.020 635.513 C 66.457 635.782, 66.579 635.107, 66.293 634.013 C 66.007 632.918, 65.374 632.269, 64.886 632.570 C 64.399 632.872, 64 632.165, 64 631 C 64 629.835, 64.422 629.143, 64.939 629.462 C 65.455 629.781, 66.320 629.251, 66.860 628.285 C 67.736 626.719, 67.903 626.799, 68.395 629.014 C 69.537 634.163, 69.971 649, 68.980 649 C 68.352 649, 68.149 653.585, 68.428 661.482 C 68.681 668.659, 68.471 674.209, 67.934 674.541 C 67.420 674.858, 66.923 673.404, 66.829 671.309 C 66.671 667.802, 66.517 665.740, 66.142 662.143 C 66.055 661.318, 65.361 661.031, 64.369 661.412 C 62.969 661.949, 62.829 661.469, 63.381 658.019 C 63.776 655.552, 63.633 654, 63.012 654 C 62.455 654, 62 654.825, 62 655.833 C 62 656.842, 61.764 657.902, 61.477 658.190 C 60.606 659.061, 60.438 722.771, 61.304 723.638 C 61.747 724.080, 62.422 724.005, 62.804 723.471 C 63.187 722.937, 64.287 722.368, 65.250 722.206 C 66.805 721.945, 67 722.882, 67 730.623 C 67 735.414, 66.703 739.036, 66.340 738.673 C 65.650 737.983, 64.939 733.113, 64.963 729.250 C 64.974 727.628, 64.393 727, 62.882 727 C 61.495 727, 60.968 727.474, 61.324 728.402 C 61.620 729.173, 61.644 730.023, 61.377 730.289 C 61.110 730.556, 60.804 738.695, 60.696 748.377 C 60.548 761.684, 60.805 766.096, 61.750 766.458 C 62.438 766.722, 63 767.449, 63 768.076 C 63 768.702, 62.392 768.981, 61.650 768.696 C 60.695 768.330, 60.329 769.031, 60.400 771.089 C 60.455 772.690, 60.950 774, 61.500 774 C 62.050 774, 62.500 773.588, 62.500 773.083 C 62.500 772.579, 62.837 771.829, 63.250 771.417 C 63.663 771.004, 64 771.192, 64 771.833 C 64 772.475, 64.563 772.888, 65.250 772.750 C 65.972 772.606, 66.643 773.760, 66.839 775.486 C 67.169 778.385, 67.122 778.421, 65.233 776.710 C 63.469 775.115, 63.164 775.097, 61.979 776.525 C 60.779 777.971, 60.541 781.901, 59.862 811.500 C 59.734 817.073, 60.772 835.693, 61.284 837 C 61.607 837.825, 62.143 846.375, 62.475 856 C 63.135 875.151, 63.431 879.750, 64.535 888 C 64.940 891.025, 65.211 894.175, 65.136 895 C 65.061 895.825, 64.722 916.075, 64.382 940 C 63.499 1002.182, 63.554 1007.866, 65 1004.500 C 65.660 1002.964, 65.876 1003.519, 65.930 1006.890 C 65.978 1009.924, 65.476 1011.663, 64.304 1012.520 C 62.732 1013.669, 62.697 1015.474, 63.819 1037.130 C 64.484 1049.983, 65.025 1063.425, 65.021 1067 C 65.016 1070.677, 65.627 1074.678, 66.428 1076.213 C 67.607 1078.473, 68.110 1084.412, 68.145 1096.500 C 68.147 1097.050, 67.709 1099.975, 67.172 1103 C 66.077 1109.173, 67.401 1126.286, 69.016 1126.833 C 69.557 1127.017, 70.032 1129.492, 70.070 1132.333 C 70.122 1136.142, 70.366 1136.974, 71 1135.500 C 71.820 1133.592, 71.863 1133.603, 71.930 1135.750 C 71.968 1136.987, 71.550 1138, 71 1138 C 70.450 1138, 70 1139.152, 70 1140.559 C 70 1142.010, 69.567 1142.851, 69 1142.500 C 68.450 1142.160, 67.985 1142.246, 67.967 1142.691 C 67.660 1150.196, 66.615 1160.616, 66.130 1161 C 65.152 1161.776, 65.013 1170, 65.978 1170 C 68.585 1170, 70.392 1199.369, 67.837 1200.221 C 66.223 1200.759, 65.856 1204.269, 67.305 1205.301 C 68.223 1205.955, 68.209 1206.270, 67.244 1206.662 C 66.553 1206.942, 66.283 1207.649, 66.644 1208.233 C 67.005 1208.817, 67.392 1213.324, 67.504 1218.248 C 67.624 1223.529, 68.164 1227.483, 68.820 1227.889 C 69.432 1228.267, 70.090 1230.360, 70.281 1232.538 C 70.491 1234.925, 71.100 1236.401, 71.814 1236.250 C 72.467 1236.112, 73 1236.450, 73 1237 C 73 1237.550, 72.460 1238, 71.800 1238 C 70.867 1238, 70.867 1238.267, 71.800 1239.200 C 73.247 1240.647, 73.413 1243.373, 72 1242.500 C 71.403 1242.131, 71 1243.347, 71 1245.512 C 71 1248.466, 71.235 1248.897, 72.262 1247.821 C 75.630 1244.294, 76.460 1235.647, 73.612 1233.765 C 72.882 1233.283, 73.015 1233.020, 74 1233 C 75.333 1232.973, 75.333 1232.852, 74 1231.909 C 72.871 1231.110, 72.809 1230.722, 73.750 1230.341 C 74.438 1230.062, 75.056 1229.083, 75.125 1228.167 C 75.404 1224.454, 76.853 1235.953, 76.868 1242 C 76.883 1247.657, 75.428 1258.651, 75.115 1255.250 C 75.052 1254.563, 74.363 1254, 73.583 1254 C 72.804 1254, 71.940 1253.437, 71.662 1252.750 C 71.385 1252.063, 71.129 1252.625, 71.094 1254 C 71.059 1255.375, 71.503 1257.175, 72.081 1258 C 72.889 1259.155, 72.986 1258.925, 72.500 1257 C 72.014 1255.075, 72.111 1254.845, 72.919 1256 C 73.497 1256.825, 73.976 1258.423, 73.985 1259.550 C 73.993 1260.678, 74.489 1262.089, 75.087 1262.687 C 76.473 1264.073, 77.371 1336.910, 76.043 1340.218 C 75.172 1342.388, 75.124 1342.397, 75.063 1340.417 C 75.029 1339.271, 74.705 1338.038, 74.344 1337.677 C 73.983 1337.316, 73.630 1334.788, 73.559 1332.059 C 73.419 1326.637, 72.080 1323.882, 71.870 1328.583 C 71.597 1334.700, 72.190 1347.499, 72.792 1348.472 C 73.137 1349.031, 73.464 1351.222, 73.517 1353.341 C 73.600 1356.636, 73.435 1356.947, 72.375 1355.499 C 71.695 1354.568, 71.403 1353.113, 71.728 1352.266 C 72.125 1351.233, 71.856 1350.889, 70.909 1351.221 C 70.134 1351.493, 69.603 1352.567, 69.728 1353.608 C 69.853 1354.648, 70.160 1361.575, 70.410 1369 C 70.659 1376.425, 71.098 1386.550, 71.385 1391.500 C 71.671 1396.450, 72.225 1406.575, 72.615 1414 C 73.005 1421.425, 73.448 1429.075, 73.599 1431 C 74.075 1437.042, 74.367 1496.967, 73.923 1497.411 C 73.690 1497.644, 73.663 1508.109, 73.862 1520.667 C 74.062 1533.225, 74.259 1549.013, 74.301 1555.750 C 74.343 1562.487, 74.743 1568, 75.189 1568 C 75.635 1568, 76 1568.900, 76 1570 C 76 1571.111, 75.333 1572, 74.500 1572 C 73.675 1572, 73 1572.675, 73 1573.500 C 73 1574.325, 73.675 1575, 74.500 1575 C 75.325 1575, 76 1575.402, 76 1575.893 C 76 1576.384, 75.325 1577.045, 74.500 1577.362 C 72.442 1578.151, 72.570 1581.164, 74.646 1580.794 C 77.115 1580.353, 77.422 1582.704, 75.061 1583.967 C 72.629 1585.269, 72.343 1587, 74.559 1587 C 75.416 1587, 75.840 1586.550, 75.500 1586 C 75.160 1585.450, 75.359 1585, 75.941 1585 C 77.598 1585, 77.182 1588.147, 75.347 1589.488 C 74.245 1590.294, 73.988 1591.163, 74.576 1592.098 C 75.061 1592.869, 75.585 1596.401, 75.739 1599.947 C 75.902 1603.691, 76.540 1606.731, 77.260 1607.197 C 78.231 1607.826, 78.206 1608.190, 77.143 1608.875 C 76.175 1609.499, 75.999 1610.718, 76.529 1613.125 C 76.938 1614.981, 77.209 1619.200, 77.131 1622.500 C 77.053 1625.800, 77.970 1635.861, 79.168 1644.857 C 80.625 1655.792, 81.029 1661.759, 80.388 1662.857 C 78.532 1666.037, 79.665 1676.208, 82.412 1681.014 C 83.822 1683.481, 84.981 1686.761, 84.988 1688.303 C 85 1691.152, 88.677 1697.382, 90.500 1697.643 C 101.814 1699.264, 102 1699.256, 102 1697.160 C 102 1694.935, 105.858 1693.892, 109.500 1695.132 C 112.614 1696.192, 148.929 1701.636, 158.256 1702.440 C 159.771 1702.571, 161.325 1702.992, 161.708 1703.375 C 162.091 1703.758, 166.139 1703.769, 170.702 1703.398 C 176.479 1702.929, 179 1703.059, 179 1703.825 C 179 1704.544, 180.994 1704.788, 184.750 1704.530 C 187.912 1704.312, 201.075 1703.942, 214 1703.707 C 226.925 1703.472, 234.237 1703.461, 230.250 1703.682 C 226.262 1703.903, 223 1704.411, 223 1704.811 C 223 1705.935, 261.637 1705.335, 269.317 1704.092 C 273.066 1703.486, 278.241 1702.009, 280.817 1700.810 C 284.905 1698.908, 287.088 1698.648, 298 1698.762 C 305.509 1698.840, 313.295 1699.539, 317.500 1700.512 C 327.927 1702.926, 329.116 1703.066, 333.807 1702.438 C 337.261 1701.975, 338.502 1701.230, 340.070 1698.680 C 341.928 1695.660, 341.995 1694.143, 341.407 1668.465 C 340.845 1643.953, 340.975 1640.452, 342.795 1630.965 C 347.475 1606.576, 348.460 1585.280, 345.991 1561.916 C 345.106 1553.537, 345.114 1548.427, 346.026 1540.168 C 346.682 1534.230, 346.937 1526.926, 346.593 1523.936 C 346.250 1520.946, 345.711 1514.450, 345.395 1509.500 C 345.080 1504.550, 344.412 1500.072, 343.911 1499.550 C 343.410 1499.027, 342.989 1495.652, 342.976 1492.050 C 342.962 1488.447, 342.541 1483.700, 342.040 1481.500 C 341.539 1479.300, 340.868 1473.069, 340.548 1467.653 C 340.228 1462.238, 339.561 1457.049, 339.066 1456.124 C 337.910 1453.963, 337.528 1444.053, 338.510 1441.686 C 338.924 1440.689, 338.777 1438.806, 338.183 1437.502 C 337.570 1436.158, 337.495 1434.996, 338.009 1434.816 C 338.542 1434.630, 338.584 1430.243, 338.110 1424.161 C 337.645 1418.186, 337.699 1411.659, 338.237 1408.696 C 338.750 1405.876, 339.007 1401.875, 338.810 1399.805 C 338.580 1397.394, 338.909 1395.865, 339.726 1395.552 C 341.453 1394.889, 341.517 1375.917, 339.798 1374.198 C 338.950 1373.350, 338.638 1368.361, 338.741 1357.282 C 338.822 1348.640, 338.489 1341.089, 338.001 1340.501 C 337.513 1339.914, 337.464 1338.868, 337.890 1338.178 C 338.317 1337.487, 338.272 1334.319, 337.791 1331.138 C 336.879 1325.117, 338.083 1319.315, 339.998 1320.499 C 341.201 1321.242, 341.231 1316.175, 340.057 1310.500 C 339.478 1307.697, 339.191 1307.248, 339.100 1309 C 338.866 1313.482, 337.032 1308.973, 337.015 1303.875 C 336.993 1297.076, 338.034 1292.799, 339.569 1293.388 C 341.329 1294.063, 341.889 1290.347, 341.587 1280 C 341.341 1271.564, 340.570 1268.118, 338.643 1266.830 C 337.164 1265.842, 337.128 1262, 338.598 1262 C 339.292 1262, 340.056 1263.013, 340.294 1264.250 C 340.581 1265.737, 340.769 1265.313, 340.849 1263 C 341.007 1258.410, 339.633 1256.046, 338.247 1258.523 C 337.489 1259.878, 337.326 1259.384, 337.543 1256.393 C 337.698 1254.252, 338.143 1251.150, 338.531 1249.500 C 339.163 1246.817, 339.092 1246.688, 337.861 1248.279 C 336.664 1249.827, 336.467 1248.773, 336.348 1240.161 C 336.262 1233.905, 335.713 1229.388, 334.856 1227.882 C 334.110 1226.572, 333.447 1223.475, 333.382 1221 C 333.134 1211.543, 332.939 1210.307, 332.037 1212.500 C 331.274 1214.355, 331.162 1214.371, 330.491 1212.724 C 329.968 1211.443, 329.420 1211.236, 328.523 1211.981 C 327.569 1212.773, 327.133 1211.790, 326.649 1207.756 C 325.734 1200.141, 325.858 1196, 327 1196 C 327.550 1196, 328 1194.838, 328 1193.417 C 328 1189.266, 325.541 1191.152, 325.183 1195.577 C 325.009 1197.735, 324.446 1199.927, 323.933 1200.450 C 322.725 1201.680, 322.671 1188.756, 323.879 1187.450 C 324.362 1186.927, 325.232 1183.193, 325.812 1179.150 C 326.997 1170.887, 327.603 1169.736, 329.442 1172.252 C 331.471 1175.026, 331.989 1174.358, 332.160 1168.750 C 332.282 1164.738, 332.417 1164.325, 332.731 1167 C 333.208 1171.054, 335 1173.582, 335 1170.200 C 335 1166.741, 336.708 1167.631, 337.427 1171.465 C 337.785 1173.371, 338.449 1175.159, 338.903 1175.440 C 339.884 1176.046, 341.257 1164.048, 340.581 1160.775 C 340.323 1159.524, 339.864 1155.214, 339.562 1151.198 C 338.720 1140.017, 338.317 1138.987, 335.047 1139.641 C 332.573 1140.135, 332.221 1139.857, 331.637 1136.936 C 331.071 1134.104, 331.509 1131.680, 333.796 1125 C 334.184 1123.868, 334.409 1123.991, 334.713 1125.500 C 335.673 1130.252, 336.185 1130.426, 337.646 1126.500 C 339.834 1120.614, 339.634 1096.617, 337.367 1093.157 C 335.801 1090.766, 335.666 1090.737, 334.374 1092.504 C 333.116 1094.224, 332.976 1094.130, 332.385 1091.177 C 332.036 1089.430, 331.167 1088, 330.454 1088 C 329.102 1088, 327.368 1082.299, 328.405 1081.262 C 328.732 1080.934, 329.045 1081.754, 329.100 1083.083 C 329.177 1084.916, 329.397 1084.654, 330.013 1082 C 331.173 1076.997, 333.050 1054.553, 332.880 1047.716 C 332.800 1044.534, 333.020 1041.647, 333.368 1041.299 C 333.715 1040.951, 334 1042.542, 334 1044.833 C 334 1047.682, 334.431 1049, 335.361 1049 C 336.292 1049, 336.564 1049.832, 336.220 1051.631 C 335.854 1053.546, 336.086 1054.138, 337.073 1053.809 C 337.917 1053.528, 338.530 1051.495, 338.695 1048.428 C 338.924 1044.179, 339.255 1040.418, 339.855 1035.250 C 339.935 1034.562, 340.562 1034.112, 341.250 1034.250 C 342.141 1034.428, 342.494 1032.776, 342.478 1028.500 C 342.451 1020.848, 341.552 1018.297, 339.488 1020.010 C 338.283 1021.010, 338 1020.960, 338 1019.747 C 338 1017.842, 341.855 1017.092, 349.500 1017.510 C 354.774 1017.799, 386.506 1016.558, 397.500 1015.634 C 408.826 1014.682, 424 1012.486, 424 1011.799 C 424 1010.599, 454.784 1011.157, 458.353 1012.421 C 461.750 1013.625, 465.232 1016.855, 471.465 1024.584 C 473.645 1027.288, 475.987 1029.848, 476.669 1030.274 C 478.936 1031.690, 487.459 1041.091, 490.314 1045.326 C 491.862 1047.622, 494.221 1050.164, 495.556 1050.977 C 496.891 1051.789, 497.916 1052.914, 497.834 1053.477 C 497.609 1055.019, 498.955 1057.731, 502.752 1063.386 C 506.212 1068.539, 509 1071.052, 509 1069.018 C 509 1068.424, 508.328 1067.679, 507.506 1067.364 C 506.684 1067.048, 506.274 1066.366, 506.595 1065.847 C 507.469 1064.432, 509.700 1066.667, 510.468 1069.729 C 510.834 1071.185, 511.890 1072.968, 512.816 1073.691 C 514.348 1074.886, 514.324 1074.943, 512.551 1074.319 C 510.717 1073.674, 510.732 1073.815, 512.801 1076.721 C 514.011 1078.419, 515 1080.318, 515 1080.940 C 515 1083.992, 523.383 1093.364, 525.490 1092.668 C 527.035 1092.156, 530.076 1096.638, 529.393 1098.419 C 528.499 1100.748, 531.313 1104.446, 535.486 1106.426 C 539.284 1108.229, 543.343 1113.599, 542.533 1115.750 C 542.275 1116.438, 542.688 1117, 543.452 1117 C 544.216 1117, 545.125 1118.293, 545.472 1119.874 C 545.820 1121.455, 547.205 1123.784, 548.552 1125.049 C 549.898 1126.314, 551 1127.945, 551 1128.674 C 551 1129.403, 551.450 1130, 552 1130 C 552.550 1130, 553 1130.830, 553 1131.845 C 553 1132.860, 553.885 1134.491, 554.966 1135.470 C 557.027 1137.335, 564 1150.850, 564 1152.980 C 564 1153.659, 564.620 1153.976, 565.378 1153.685 C 567.090 1153.028, 569 1154.833, 569 1157.108 C 569 1159.456, 574.322 1169.533, 574.802 1168.093 C 575.015 1167.455, 574.641 1166.273, 573.972 1165.466 C 573.083 1164.395, 573.066 1164, 573.909 1164 C 575.698 1164, 576.444 1167.059, 575.158 1169.119 C 573.618 1171.584, 573.658 1171.747, 576.127 1173.068 C 577.652 1173.884, 578.445 1173.898, 578.927 1173.118 C 579.297 1172.519, 579.600 1173.569, 579.600 1175.451 C 579.600 1177.835, 580.419 1179.691, 582.300 1181.573 C 585.227 1184.500, 585.615 1185.628, 583.890 1186.203 C 583.226 1186.425, 583.501 1187.160, 584.578 1188.037 C 586.185 1189.346, 586.307 1189.321, 585.738 1187.801 C 584.845 1185.417, 587.187 1186.468, 588.908 1189.224 C 589.880 1190.781, 589.946 1191.518, 589.136 1191.788 C 588.511 1191.996, 588 1192.609, 588 1193.151 C 588 1193.692, 588.902 1193.848, 590.005 1193.498 C 591.415 1193.051, 592.202 1193.401, 592.657 1194.681 C 593.013 1195.681, 593.957 1197.261, 594.755 1198.192 C 595.552 1199.123, 596.007 1200.473, 595.764 1201.192 C 595.502 1201.969, 594.663 1201.230, 593.698 1199.371 C 592.219 1196.522, 588.990 1194.051, 589.007 1195.781 C 589.011 1196.177, 591.708 1199.875, 595 1204 C 598.292 1208.125, 600.989 1212.111, 600.993 1212.858 C 600.998 1213.783, 601.748 1214.029, 603.345 1213.628 C 605.275 1213.144, 606.248 1213.817, 608.845 1217.433 C 610.580 1219.850, 612 1222.290, 612 1222.857 C 612 1223.423, 612.806 1224.475, 613.791 1225.193 C 616.355 1227.064, 620.343 1233, 619.037 1233 C 618.432 1233, 617.678 1232.325, 617.362 1231.500 C 617.045 1230.675, 616.159 1230, 615.393 1230 C 614.627 1230, 614.112 1229.611, 614.250 1229.137 C 614.553 1228.090, 606.809 1217.052, 605.750 1217.022 C 604.286 1216.979, 605.034 1218.684, 607.496 1220.996 C 608.869 1222.286, 609.787 1223.547, 609.536 1223.798 C 609.017 1224.317, 613.810 1231.446, 616.783 1234.577 C 617.868 1235.719, 619.070 1237.646, 619.455 1238.859 C 620.322 1241.589, 625.144 1246.580, 626.500 1246.150 C 627.050 1245.976, 627.177 1246.156, 626.783 1246.551 C 626.388 1246.945, 626.959 1248.403, 628.050 1249.791 C 629.142 1251.179, 629.792 1253.080, 629.495 1254.016 C 629.198 1254.952, 629.640 1256.286, 630.477 1256.981 C 631.315 1257.676, 632 1258.842, 632 1259.573 C 632 1260.303, 632.598 1261.260, 633.328 1261.700 C 634.059 1262.140, 635.521 1264.033, 636.578 1265.906 C 637.635 1267.780, 639.737 1270.692, 641.250 1272.379 C 642.763 1274.066, 644 1275.990, 644 1276.655 C 644 1277.321, 644.788 1278.119, 645.750 1278.430 C 647.343 1278.944, 648.346 1280.267, 653.007 1288 C 653.836 1289.375, 657.709 1295, 661.615 1300.500 C 665.521 1306, 671.128 1314.325, 674.076 1319 C 677.025 1323.675, 682.601 1331.729, 686.468 1336.897 C 693.257 1345.970, 704.802 1362.541, 713.268 1375.366 C 713.946 1376.392, 715.288 1378.263, 716.250 1379.523 C 717.212 1380.784, 718 1382.013, 718 1382.255 C 718 1383.613, 729.479 1399.637, 730.956 1400.340 C 731.926 1400.802, 733.183 1402.690, 733.749 1404.535 C 734.316 1406.380, 737.416 1411.990, 740.639 1417.002 C 743.863 1422.014, 747.175 1427.191, 748 1428.505 C 749.875 1431.493, 759.820 1445.733, 766.700 1455.282 C 769.561 1459.252, 775.959 1468.350, 780.919 1475.500 C 785.880 1482.650, 792.090 1491.529, 794.719 1495.230 C 797.349 1498.932, 801.281 1504.557, 803.457 1507.730 C 805.633 1510.904, 808.108 1514.209, 808.957 1515.075 C 809.806 1515.941, 812.525 1519.498, 815 1522.978 C 817.475 1526.459, 821.300 1531.405, 823.500 1533.969 C 825.700 1536.533, 829.300 1541.226, 831.500 1544.397 C 833.700 1547.569, 836.433 1551.365, 837.572 1552.832 C 839.929 1555.867, 847.696 1567.413, 860.469 1586.874 C 865.297 1594.229, 869.903 1600.979, 870.704 1601.874 C 871.505 1602.768, 873.882 1605.887, 875.986 1608.805 C 882.774 1618.216, 894.413 1630.958, 897.616 1632.483 C 900.454 1633.834, 908 1641.865, 908 1643.534 C 908 1643.918, 909.688 1646.524, 911.750 1649.326 C 913.813 1652.128, 915.950 1655.191, 916.500 1656.134 C 917.050 1657.076, 920.200 1661.547, 923.500 1666.070 C 926.800 1670.593, 930.233 1675.465, 931.130 1676.896 C 932.026 1678.328, 933.264 1679.388, 933.880 1679.250 C 934.496 1679.113, 935 1679.675, 935 1680.500 C 935 1681.325, 935.379 1682, 935.843 1682 C 936.306 1682, 937.517 1683.545, 938.534 1685.433 C 939.551 1687.322, 941.242 1689.092, 942.292 1689.366 C 943.342 1689.641, 943.904 1690.346, 943.542 1690.933 C 943.179 1691.520, 943.359 1692, 943.941 1692 C 944.523 1692, 945.036 1692.787, 945.079 1693.750 C 945.129 1694.860, 945.347 1695.028, 945.676 1694.210 C 946.001 1693.399, 947.506 1694.605, 949.730 1697.460 C 953.367 1702.128, 955.377 1703.338, 954.362 1700.250 C 954.046 1699.287, 954.967 1699.930, 956.409 1701.678 C 957.852 1703.425, 960.522 1705.347, 962.343 1705.948 C 964.631 1706.703, 966.388 1708.349, 968.025 1711.271 C 969.328 1713.597, 971.433 1716.322, 972.703 1717.327 C 973.972 1718.332, 975.651 1719.794, 976.434 1720.577 C 977.217 1721.360, 978.677 1721.998, 979.679 1721.996 C 981.877 1721.992, 988 1718.398, 988 1717.113 C 988 1716.608, 989.350 1715.725, 991 1715.150 C 994.254 1714.015, 994.879 1712.551, 992.500 1711.638 C 989.541 1710.503, 990.943 1709.123, 994.128 1710.037 C 998.339 1711.244, 1001.732 1709.591, 999.815 1707.267 C 998.645 1705.849, 998.742 1705.801, 1000.684 1706.836 C 1003.364 1708.264, 1004.315 1708.319, 1003.500 1707 C 1003.160 1706.450, 1003.385 1706, 1004 1706 C 1004.615 1706, 1004.850 1705.566, 1004.523 1705.036 C 1004.195 1704.507, 1004.731 1703.232, 1005.714 1702.203 C 1006.696 1701.175, 1007.625 1699.772, 1007.777 1699.086 C 1007.929 1698.399, 1009.445 1696.567, 1011.145 1695.015 C 1013.009 1693.313, 1013.941 1691.714, 1013.493 1690.989 C 1012.978 1690.155, 1013.325 1689.967, 1014.625 1690.376 C 1018.808 1691.691, 1030 1686.626, 1030 1683.417 C 1030 1682.689, 1032.362 1681.615, 1035.516 1680.909 C 1040.425 1679.810, 1040.959 1679.446, 1040.372 1677.595 C 1039.773 1675.710, 1039.875 1675.651, 1041.464 1676.970 C 1043.009 1678.253, 1043.363 1678.224, 1044.457 1676.728 C 1045.139 1675.795, 1046.063 1675.362, 1046.509 1675.766 C 1047.539 1676.698, 1046.234 1674.312, 1043.760 1670.738 C 1042.708 1669.219, 1041.437 1668.230, 1040.935 1668.540 C 1040.433 1668.850, 1040.301 1668.380, 1040.640 1667.496 C 1041.127 1666.226, 1042.204 1666.898, 1045.771 1670.694 C 1048.512 1673.613, 1049.777 1674.518, 1048.993 1673 C 1048.282 1671.625, 1047.218 1670.187, 1046.629 1669.804 C 1046.040 1669.422, 1045.872 1668.795, 1046.255 1668.412 C 1046.638 1668.029, 1047.686 1668.325, 1048.584 1669.070 C 1049.975 1670.224, 1050.402 1670.171, 1051.468 1668.712 C 1052.157 1667.771, 1053.233 1667, 1053.860 1667 C 1054.487 1667, 1055.032 1666.213, 1055.070 1665.250 C 1055.128 1663.818, 1055.264 1663.772, 1055.820 1665 C 1056.564 1666.641, 1060 1667.343, 1060 1665.854 C 1060 1665.345, 1059.273 1663.820, 1058.385 1662.465 C 1057.497 1661.109, 1057.224 1660, 1057.778 1660 C 1058.332 1660, 1059.074 1660.750, 1059.426 1661.667 C 1059.898 1662.898, 1060.359 1663.041, 1061.186 1662.214 C 1061.951 1661.449, 1062.892 1661.407, 1064.153 1662.082 C 1065.396 1662.747, 1066 1662.732, 1066 1662.035 C 1066 1660.847, 1069.984 1656.611, 1070.030 1657.750 C 1070.047 1658.163, 1070.531 1657.693, 1071.105 1656.706 C 1071.790 1655.528, 1072.809 1655.122, 1074.074 1655.524 C 1076.130 1656.176, 1076.896 1653.672, 1075 1652.500 C 1073.759 1651.733, 1073.684 1650, 1074.892 1650 C 1075.382 1650, 1076.066 1651.125, 1076.411 1652.500 C 1077.147 1655.433, 1079 1655.858, 1079 1653.094 C 1079 1651.699, 1079.521 1651.323, 1080.942 1651.695 C 1082.301 1652.050, 1083.853 1651.098, 1086.118 1648.518 C 1088.533 1645.768, 1089.941 1644.947, 1091.676 1645.278 C 1092.954 1645.523, 1094 1645.349, 1094 1644.893 C 1094 1644.436, 1094.616 1644.299, 1095.369 1644.588 C 1096.191 1644.904, 1096.961 1644.257, 1097.298 1642.967 C 1097.726 1641.331, 1098.351 1640.977, 1099.930 1641.478 C 1101.422 1641.951, 1102 1641.697, 1102 1640.567 C 1102 1639.667, 1102.851 1639, 1104 1639 C 1105.100 1639, 1106 1638.570, 1106 1638.045 C 1106 1637.520, 1107.575 1636.795, 1109.500 1636.434 C 1112.668 1635.840, 1113.482 1635.005, 1113.111 1632.729 C 1113.043 1632.305, 1114.110 1632.162, 1115.484 1632.411 C 1117.249 1632.731, 1118.439 1632.224, 1119.540 1630.682 C 1121.016 1628.616, 1121.170 1628.595, 1122.431 1630.279 C 1123.628 1631.878, 1123.826 1631.895, 1124.382 1630.448 C 1124.722 1629.561, 1125 1627.973, 1125 1626.918 C 1125 1624.877, 1126.472 1624.336, 1127.500 1626 C 1128.552 1627.702, 1130 1627.103, 1130 1624.966 C 1130 1622.113, 1135.418 1617.035, 1137.798 1617.658 C 1139.089 1617.995, 1140.588 1617.092, 1142.496 1614.827 C 1144.038 1612.997, 1145.794 1611.439, 1146.399 1611.365 C 1147.005 1611.291, 1148.100 1611.179, 1148.833 1611.115 C 1149.567 1611.052, 1149.965 1610.437, 1149.718 1609.750 C 1149.005 1607.760, 1150.875 1605.015, 1152.515 1605.644 C 1154.226 1606.301, 1154.547 1604.456, 1152.899 1603.438 C 1152.285 1603.058, 1152.045 1601.524, 1152.356 1599.969 C 1152.739 1598.056, 1152.456 1597.005, 1151.457 1596.622 C 1150.656 1596.314, 1150 1595.233, 1150 1594.218 C 1150 1592.129, 1155.623 1586.289, 1156.648 1587.314 C 1157.015 1587.682, 1157.928 1587.475, 1158.676 1586.854 C 1159.424 1586.233, 1161.027 1585.675, 1162.239 1585.613 C 1163.466 1585.550, 1164.952 1584.476, 1165.595 1583.187 C 1166.229 1581.915, 1167.142 1580.790, 1167.624 1580.687 C 1168.106 1580.584, 1168.393 1580.179, 1168.262 1579.786 C 1168.131 1579.393, 1168.648 1579.311, 1169.411 1579.604 C 1170.174 1579.897, 1171.108 1579.634, 1171.488 1579.020 C 1171.992 1578.204, 1172.558 1578.218, 1173.589 1579.074 C 1174.725 1580.017, 1175 1579.848, 1175 1578.204 C 1175 1575.109, 1176.056 1573, 1177.607 1573 C 1179.513 1573, 1179.361 1571.755, 1176.877 1566.988 C 1175.709 1564.747, 1175.034 1562.633, 1175.377 1562.290 C 1175.719 1561.947, 1176 1562.150, 1176 1562.740 C 1176 1563.330, 1176.909 1563.575, 1178.021 1563.284 C 1179.339 1562.939, 1179.738 1562.364, 1179.166 1561.628 C 1177.523 1559.512, 1176.044 1554, 1177.119 1554 C 1177.678 1554, 1177.861 1553.138, 1177.527 1552.084 C 1177.192 1551.030, 1177.456 1549.836, 1178.114 1549.430 C 1178.869 1548.963, 1179.046 1549.116, 1178.595 1549.845 C 1178.203 1550.480, 1178.385 1551, 1179 1551 C 1179.615 1551, 1179.840 1551.450, 1179.500 1552 C 1179.160 1552.550, 1179.407 1553, 1180.049 1553 C 1181.876 1553, 1180.237 1548.062, 1177.182 1544.357 C 1175.707 1542.569, 1173.150 1539.302, 1171.500 1537.099 C 1169.850 1534.895, 1168.130 1533.072, 1167.679 1533.046 C 1166.614 1532.986, 1164.978 1531.274, 1162.168 1527.277 C 1160.922 1525.505, 1158.237 1522.202, 1156.201 1519.938 C 1154.166 1517.674, 1150.025 1512.283, 1147 1507.959 C 1137.989 1495.077, 1130.904 1486, 1129.861 1486 C 1129.322 1486, 1129.160 1485.550, 1129.500 1485 C 1129.840 1484.450, 1129.400 1484, 1128.522 1484 C 1127.338 1484, 1127.991 1485.569, 1131.052 1490.077 C 1133.322 1493.419, 1134.880 1496.453, 1134.515 1496.819 C 1134.149 1497.184, 1133.462 1496.790, 1132.988 1495.943 C 1132.514 1495.096, 1130.073 1491.759, 1127.563 1488.527 C 1125.053 1485.295, 1123 1481.829, 1123 1480.825 C 1123 1479.821, 1122.570 1479, 1122.045 1479 C 1120.890 1479, 1116 1474.234, 1116 1473.107 C 1116 1472.665, 1113.607 1469.873, 1110.683 1466.902 C 1107.759 1463.931, 1103.252 1458.800, 1100.667 1455.500 C 1092.018 1444.456, 1087.845 1439.565, 1078.348 1429.339 C 1073.158 1423.750, 1067.640 1417.450, 1066.086 1415.339 C 1064.533 1413.227, 1061.403 1409.513, 1059.131 1407.084 C 1056.859 1404.655, 1055 1402.340, 1055 1401.941 C 1055 1401.541, 1054.325 1400.955, 1053.500 1400.638 C 1052.675 1400.322, 1052 1399.399, 1052 1398.588 C 1052 1397.777, 1051.209 1396.525, 1050.242 1395.807 C 1049.275 1395.088, 1046.469 1392.025, 1044.006 1389 C 1041.543 1385.975, 1039.275 1383.275, 1038.966 1383 C 1038.657 1382.725, 1037.326 1380.925, 1036.008 1379 C 1034.691 1377.075, 1032.354 1374.182, 1030.817 1372.571 C 1029.279 1370.960, 1027.734 1368.710, 1027.384 1367.571 C 1026.791 1365.644, 1020.374 1356.120, 1018.914 1355 C 1018.555 1354.725, 1016.766 1352.025, 1014.938 1349 C 1013.110 1345.975, 1010.464 1341.962, 1009.059 1340.081 C 1007.655 1338.201, 1006.641 1335.863, 1006.806 1334.885 C 1006.998 1333.753, 1006.041 1332.556, 1004.171 1331.588 C 1002.556 1330.753, 1000.969 1329.042, 1000.644 1327.785 C 999.985 1325.238, 993.621 1317.712, 992.810 1318.523 C 992.155 1319.179, 988.047 1312.924, 985.137 1306.839 C 983.911 1304.276, 982.299 1301.945, 981.554 1301.659 C 980.809 1301.373, 978.536 1298.633, 976.502 1295.570 C 974.469 1292.506, 972.430 1290, 971.970 1290 C 971.511 1290, 970.844 1289.085, 970.489 1287.966 C 970.134 1286.848, 969.053 1285.160, 968.086 1284.216 C 965.150 1281.350, 954.983 1267.078, 953.827 1264.200 C 950.115 1254.959, 948.402 1252, 946.764 1252 C 945.794 1252, 945 1251.530, 945 1250.955 C 945 1250.380, 943.987 1248.893, 942.750 1247.652 C 941.513 1246.410, 938.700 1242.771, 936.500 1239.563 C 934.300 1236.356, 930.892 1231.880, 928.926 1229.616 C 926.961 1227.352, 925.065 1224.720, 924.714 1223.767 C 924.294 1222.625, 923.491 1222.258, 922.364 1222.690 C 921.027 1223.204, 920.802 1222.958, 921.337 1221.565 C 921.797 1220.366, 920.774 1217.937, 918.209 1214.141 C 907.283 1197.968, 898.268 1184.955, 894.839 1180.408 C 892.728 1177.607, 891 1174.988, 891 1174.588 C 891 1173.756, 885.192 1165.109, 883.417 1163.298 C 882.768 1162.636, 881.960 1162.374, 881.619 1162.714 C 881.279 1163.055, 881 1162.536, 881 1161.561 C 881 1160.586, 879.987 1158.494, 878.750 1156.911 C 872.844 1149.357, 872 1148.085, 872 1146.741 C 872 1145.947, 870.875 1143.182, 869.500 1140.596 C 868.125 1138.010, 867 1135.243, 867 1134.447 C 867 1133.651, 866.651 1133, 866.224 1133 C 865.797 1133, 864.560 1130.979, 863.474 1128.509 C 862.388 1126.040, 861.231 1124.015, 860.902 1124.009 C 860.573 1124.004, 859.492 1122.200, 858.500 1120 C 857.508 1117.800, 856.359 1116, 855.946 1116 C 855.533 1116, 854.746 1114.763, 854.196 1113.250 C 853.646 1111.737, 852.460 1109.600, 851.559 1108.500 C 849.384 1105.844, 839.617 1090.677, 839.551 1089.854 C 839.502 1089.229, 834.636 1081.823, 827.494 1071.500 C 820.590 1061.522, 817.774 1057.308, 810.950 1046.750 C 807.128 1040.838, 803.600 1036, 803.109 1036 C 802.618 1036, 801.949 1034.987, 801.621 1033.750 C 801.294 1032.513, 799.220 1029.511, 797.013 1027.080 C 794.806 1024.649, 793 1022.287, 793 1021.830 C 793 1021.374, 792.325 1021, 791.500 1021 C 790.675 1021, 790 1020.165, 790 1019.144 C 790 1018.123, 788.493 1015.310, 786.651 1012.894 C 784.808 1010.477, 782.597 1007.150, 781.735 1005.500 C 780.874 1003.850, 779.336 1001.600, 778.318 1000.500 C 777.299 999.400, 774.704 995.800, 772.551 992.500 C 769.051 987.136, 762.441 978.321, 760.927 977 C 760.612 976.725, 760.064 975.712, 759.708 974.750 C 759.353 973.788, 758.469 973, 757.744 973 C 757.019 973, 756.357 972.089, 756.273 970.975 C 756.189 969.861, 754.109 965.924, 751.651 962.225 C 749.193 958.526, 746.588 954.150, 745.861 952.500 C 745.135 950.850, 744.095 949.187, 743.549 948.804 C 743.004 948.422, 742.810 947.856, 743.119 947.548 C 743.427 947.239, 745.417 948.674, 747.540 950.736 C 749.663 952.798, 751.119 953.752, 750.775 952.856 C 750.300 951.617, 750.611 951.347, 752.075 951.730 C 753.520 952.108, 754 951.714, 754 950.152 C 754 949.007, 755.013 947.537, 756.250 946.885 C 757.488 946.234, 758.725 945.409, 759 945.052 C 759.275 944.695, 761.525 943.824, 764 943.116 C 767.841 942.018, 774.481 939.224, 781.236 935.864 C 782.190 935.389, 787.140 933.886, 792.236 932.524 C 797.331 931.161, 806.439 928.690, 812.476 927.031 C 818.513 925.373, 823.913 924.091, 824.476 924.183 C 825.039 924.275, 828.143 923.147, 831.374 921.675 C 834.605 920.204, 837.533 919, 837.881 919 C 839.916 919, 857.159 911.460, 865.599 906.879 C 871.049 903.920, 877.307 900.621, 879.504 899.547 C 884.824 896.946, 897.753 889.254, 901.500 886.460 C 903.150 885.230, 911.025 881.057, 919 877.187 C 933.762 870.024, 936.821 867.875, 953.210 853.158 C 973.737 834.726, 979 829.534, 979 827.715 C 979 826.651, 979.543 826.017, 980.250 826.256 C 981.704 826.747, 1003.877 807.071, 1016.271 794.290 C 1020.960 789.456, 1028.779 780.823, 1033.648 775.107 C 1038.517 769.390, 1045.200 761.731, 1048.500 758.085 C 1051.800 754.440, 1055.580 750.004, 1056.900 748.229 C 1058.219 746.453, 1059.703 745, 1060.198 745 C 1061.267 745, 1065.923 739.872, 1065.968 738.644 C 1065.986 738.174, 1067.132 736.374, 1068.515 734.644 C 1069.898 732.915, 1071.377 731.050, 1071.801 730.500 C 1072.224 729.950, 1073.568 727.475, 1074.787 725 C 1077.139 720.222, 1080.942 713.386, 1085.355 706 C 1086.834 703.525, 1089.624 698.358, 1091.555 694.517 C 1093.486 690.676, 1095.501 687.099, 1096.033 686.567 C 1096.565 686.035, 1097 685.007, 1097 684.283 C 1097 683.558, 1099.250 678.974, 1102 674.096 C 1104.750 669.217, 1107 664.275, 1107 663.113 C 1107 661.951, 1107.388 661, 1107.863 661 C 1108.886 661, 1112.461 650.128, 1111.691 649.358 C 1111.400 649.066, 1112.519 645.829, 1114.178 642.164 C 1118.255 633.161, 1122.204 620.973, 1121.575 619.335 C 1121.293 618.601, 1121.555 618, 1122.156 618 C 1122.838 618, 1123.024 616.870, 1122.650 615 C 1122.279 613.145, 1122.463 612, 1123.132 612 C 1123.727 612, 1123.955 611.325, 1123.638 610.500 C 1123.322 609.675, 1123.457 609, 1123.938 609 C 1124.419 609, 1124.592 608.155, 1124.322 607.121 C 1124.051 606.088, 1125.047 602.601, 1126.533 599.371 C 1129.594 592.722, 1132.424 584.950, 1134.586 577.254 C 1136.593 570.111, 1138.884 553.046, 1137.916 552.448 C 1136.614 551.644, 1139.312 535.011, 1141.674 529.282 C 1142.403 527.512, 1143 524.340, 1143 522.232 C 1143 520.124, 1143.540 517.860, 1144.200 517.200 C 1145.133 516.267, 1145.133 516, 1144.200 516 C 1143.540 516, 1143 515.270, 1143 514.378 C 1143 513.113, 1143.304 513.007, 1144.378 513.899 C 1145.467 514.803, 1145.883 514.567, 1146.364 512.771 C 1147.295 509.296, 1147.129 504.248, 1146.136 505.815 C 1145.677 506.538, 1145.523 508.284, 1145.793 509.695 C 1146.154 511.586, 1145.917 512.133, 1144.892 511.776 C 1143.365 511.243, 1143.489 506.159, 1145.068 504.550 C 1145.581 504.027, 1145.968 502.902, 1145.930 502.050 C 1145.880 500.950, 1145.608 501.080, 1144.994 502.500 C 1144.435 503.792, 1144.219 501.670, 1144.384 496.500 C 1144.524 492.100, 1144.231 486.873, 1143.732 484.885 C 1143.209 482.801, 1143.180 477.719, 1143.663 472.885 C 1144.123 468.273, 1144.223 461.350, 1143.884 457.500 C 1143.546 453.650, 1142.970 445.325, 1142.606 439 C 1141.622 421.948, 1140.987 417.863, 1138.717 414 C 1137.586 412.075, 1136.301 408.475, 1135.862 406 C 1134.548 398.606, 1130.280 376.868, 1129.088 371.500 C 1128.478 368.750, 1127.699 365.038, 1127.358 363.250 C 1127.017 361.463, 1126.206 360, 1125.554 360 C 1121.699 360, 1113.858 330.752, 1114.769 319.769 C 1115.124 315.489, 1114.563 312.575, 1112.009 305.448 C 1108.137 294.644, 1104.969 285.105, 1104.491 282.815 C 1104.298 281.888, 1103.548 280.088, 1102.825 278.815 C 1102.101 277.542, 1101.466 276.050, 1101.413 275.500 C 1101.359 274.950, 1100.379 272.406, 1099.235 269.846 C 1094.150 258.476, 1090.845 252.304, 1088.473 249.750 C 1087.068 248.237, 1086.199 247, 1086.541 247 C 1086.883 247, 1086.226 245.484, 1085.082 243.632 C 1083.937 241.780, 1083 239.733, 1083 239.084 C 1083 237.180, 1076.584 227.698, 1072.120 223.006 C 1069.854 220.623, 1068 218.448, 1068 218.171 C 1068 217.894, 1067.347 216.955, 1066.550 216.084 C 1065.752 215.213, 1063.791 213.037, 1062.192 211.250 C 1060.592 209.463, 1058.657 207.993, 1057.892 207.985 C 1056.872 207.973, 1056.820 207.766, 1057.697 207.208 C 1059.229 206.235, 1057.976 204.171, 1054.931 202.653 C 1053.644 202.011, 1051.108 199.542, 1049.296 197.166 C 1047.483 194.789, 1046 193.166, 1046 193.560 C 1046 193.953, 1044.646 192.571, 1042.990 190.488 C 1036.246 182.001, 1023.769 171.406, 1021.889 172.569 C 1021.131 173.037, 1020.953 172.885, 1021.405 172.155 C 1021.835 171.458, 1021.457 171, 1020.452 171 C 1019.442 171, 1018.996 170.454, 1019.318 169.613 C 1019.692 168.638, 1019.275 168.377, 1017.910 168.734 C 1016.540 169.092, 1016.128 168.831, 1016.506 167.844 C 1016.813 167.044, 1015.325 164.770, 1013.021 162.521 C 1010.810 160.361, 1009 157.797, 1009 156.823 C 1009 155.848, 1007.650 154.353, 1006 153.500 C 1004.350 152.647, 1003 151.522, 1003 151 C 1003 150.478, 1001.560 149.306, 999.799 148.396 C 998.038 147.486, 995.971 146.114, 995.204 145.347 C 994.438 144.581, 992.392 143.220, 990.658 142.323 C 987.506 140.693, 978.571 134.897, 976.292 133.003 C 975.628 132.452, 973.940 132, 972.542 132 C 970.653 132, 970 131.478, 970 129.966 C 970 128.702, 968.676 127.151, 966.500 125.867 C 964.575 124.732, 963 123.397, 963 122.901 C 963 122.406, 961.953 122, 960.674 122 C 959.395 122, 957.351 120.938, 956.132 119.640 C 954.912 118.342, 952.139 116.430, 949.969 115.390 C 947.799 114.351, 946.018 113.162, 946.011 112.750 C 946.005 112.338, 945.325 112, 944.500 112 C 943.675 112, 943 111.498, 943 110.883 C 943 110.232, 941.959 109.966, 940.500 110.245 C 938.961 110.539, 938 110.263, 938 109.528 C 938 107.660, 927.652 101, 924.750 101 C 923.162 101, 922.021 100.375, 921.823 99.396 C 921.530 97.940, 911.173 90.777, 905 87.762 C 903.625 87.090, 902.275 86.281, 902 85.964 C 901.725 85.646, 900.038 84.795, 898.250 84.072 C 896.462 83.349, 895 82.362, 895 81.879 C 895 81.395, 894.487 81, 893.861 81 C 893.234 81, 890.632 79.715, 888.079 78.144 C 885.526 76.573, 881.651 74.675, 879.469 73.927 C 877.286 73.179, 874.612 71.989, 873.527 71.283 C 872.443 70.577, 870.755 70, 869.777 70 C 868.800 70, 868 69.646, 868 69.214 C 868 68.781, 864.850 67.335, 861 66 C 857.150 64.665, 854 63.270, 854 62.900 C 854 62.267, 852.769 61.930, 844.750 60.366 C 842.962 60.017, 840.306 58.892, 838.846 57.866 C 837.021 56.583, 834.442 56, 830.596 56 C 827.518 56, 825 55.602, 825 55.117 C 825 54.631, 823.987 53.982, 822.750 53.674 C 811.533 50.889, 806.012 49.978, 796.750 49.386 C 790.837 49.008, 786 48.338, 786 47.897 C 786 46.387, 778.505 45.011, 770.250 45.006 C 763.583 45.001, 761.648 44.648, 760.164 43.164 C 758.048 41.048, 749.027 39.388, 731.963 37.973 C 725.659 37.450, 718.806 36.742, 716.736 36.400 C 714.429 36.019, 712.424 36.233, 711.556 36.954 C 710.430 37.888, 709.913 37.706, 709.035 36.065 C 708.133 34.380, 706.961 34, 702.665 34 C 699.769 34, 696.972 33.605, 696.450 33.123 C 695.103 31.878, 631.900 30.794, 629.902 31.980 M 856.143 40.907 C 855.137 41.532, 855.090 41.937, 855.960 42.475 C 857.332 43.323, 858.362 42.572, 857.854 41.095 C 857.646 40.489, 856.940 40.412, 856.143 40.907 M 177.500 48 C 177.840 48.550, 179.415 49, 181 49 C 182.585 49, 184.160 48.550, 184.500 48 C 184.874 47.395, 183.491 47, 181 47 C 178.509 47, 177.126 47.395, 177.500 48 M 260.750 50.662 C 261.438 50.940, 262.563 50.940, 263.250 50.662 C 263.938 50.385, 263.375 50.158, 262 50.158 C 260.625 50.158, 260.063 50.385, 260.750 50.662 M 968.950 152.177 C 970.066 153.375, 971.284 154.050, 971.656 153.677 C 972.029 153.305, 971.808 153, 971.167 153 C 970.525 153, 970 152.325, 970 151.500 C 970 150.675, 969.307 150, 968.461 150 C 967.226 150, 967.322 150.429, 968.950 152.177 M 980.900 160.750 C 983.308 162.813, 988.337 167.487, 992.075 171.138 C 995.813 174.789, 1000.256 178.388, 1001.948 179.137 C 1003.639 179.886, 1005.274 181.286, 1005.579 182.249 C 1005.885 183.212, 1007.004 184, 1008.067 184 C 1010.601 184, 1010.518 183.611, 1007.250 180.190 C 1005.737 178.606, 1003.519 176.228, 1002.320 174.905 C 1001.121 173.582, 997.821 170.925, 994.986 169 C 992.151 167.075, 987.316 163.588, 984.241 161.250 C 977.333 155.998, 974.932 155.639, 980.900 160.750 M 989 174.096 C 989 175.987, 993.868 179.988, 998.076 181.555 C 998.944 181.878, 1000.433 183.463, 1001.386 185.076 C 1003.013 187.831, 1008.653 191.681, 1009.630 190.704 C 1010.303 190.031, 999.596 179, 998.270 179 C 997.634 179, 996.498 178.121, 995.745 177.047 C 994.123 174.731, 989 172.490, 989 174.096 M 76 302.500 C 76 303.325, 76.450 304, 77 304 C 77.550 304, 78 303.325, 78 302.500 C 78 301.675, 77.550 301, 77 301 C 76.450 301, 76 301.675, 76 302.500 M 419.500 304.625 C 414 305.368, 408.156 306.531, 406.513 307.208 C 404.858 307.890, 398.397 308.520, 392.013 308.622 C 378.443 308.839, 371.199 309.835, 373.171 311.213 C 374.070 311.841, 373.449 312.013, 371.250 311.744 C 369.462 311.525, 368 311.626, 368 311.967 C 368 312.703, 358.664 314.663, 351.211 315.492 C 344.087 316.283, 341 317.578, 341 319.775 C 341 320.779, 340.530 322.070, 339.956 322.644 C 339.280 323.320, 338.821 335.851, 338.657 358.094 C 338.518 377.017, 338.532 390.250, 338.690 387.500 C 339.375 375.525, 340.209 370, 341.330 370.010 C 342.090 370.016, 342.577 372.470, 342.721 377.010 C 342.848 381.031, 342.528 384, 341.967 384 C 341.376 384, 341.164 387.441, 341.427 392.750 C 341.665 397.563, 342.137 408.925, 342.474 418 C 342.811 427.075, 343.552 436.975, 344.121 440 C 344.834 443.797, 344.833 446.341, 344.115 448.216 C 343.288 450.376, 343.408 451.265, 344.700 452.557 C 345.924 453.781, 346.024 454.367, 345.107 454.934 C 343.889 455.687, 344.038 459, 345.435 462.202 C 345.843 463.138, 345.841 464.448, 345.431 465.112 C 344.304 466.936, 344.907 488.511, 346.582 506.318 C 347.401 515.018, 347.993 524.018, 347.898 526.318 C 347.545 534.845, 349.145 573.604, 349.969 576.500 C 350.854 579.609, 351.311 588.156, 351.142 598.455 C 351.089 601.730, 351.500 604.691, 352.057 605.035 C 353.216 605.752, 353.228 606.149, 353.112 638.682 C 353.065 651.982, 353.481 665.257, 354.038 668.182 C 354.594 671.107, 355.487 681.375, 356.021 691 C 356.556 700.625, 357.325 711.650, 357.730 715.500 C 358.136 719.350, 358.351 723.479, 358.208 724.675 C 358.065 725.871, 358.345 727.095, 358.831 727.395 C 359.316 727.695, 369.483 727.995, 381.423 728.061 C 397.397 728.150, 403.255 728.502, 403.597 729.392 C 403.950 730.311, 405.920 730.371, 411.781 729.640 C 417.385 728.941, 422.376 729.043, 430 730.012 C 451.006 732.682, 465.781 732.205, 472.500 728.641 C 473.600 728.058, 475.029 727.687, 475.675 727.817 C 476.321 727.947, 477.135 727.591, 477.484 727.027 C 478.372 725.589, 481.730 725.744, 482.338 727.250 C 482.741 728.250, 482.858 728.250, 482.921 727.250 C 482.977 726.367, 485.223 726, 490.571 726 C 495.762 726, 498.587 725.556, 499.556 724.587 C 501.552 722.591, 528.111 720.454, 531.093 722.050 C 534.080 723.649, 560.678 723.324, 569.500 721.581 C 573.900 720.712, 581.832 720, 587.128 720 C 594.289 720, 597.061 719.631, 597.951 718.559 C 598.608 717.767, 599.794 717.367, 600.586 717.671 C 601.378 717.975, 602.695 717.668, 603.513 716.989 C 604.331 716.311, 605 716.090, 605 716.500 C 605 716.910, 605.569 716.773, 606.265 716.195 C 606.960 715.618, 611.573 714.376, 616.515 713.436 C 621.457 712.495, 626.400 711.380, 627.500 710.957 C 631.125 709.563, 641.593 707, 643.662 707 C 644.779 707, 647.224 706.222, 649.096 705.271 C 651.179 704.213, 655.595 703.392, 660.475 703.155 C 665.226 702.924, 668.864 702.260, 669.475 701.512 C 670.748 699.952, 675 698.860, 675 700.094 C 675 700.592, 676.125 701, 677.500 701 C 678.875 701, 680 700.597, 680 700.105 C 680 699.613, 681.688 698.972, 683.750 698.682 C 695.103 697.082, 697.062 696.591, 698.891 694.887 C 699.993 693.860, 703.056 692.508, 705.697 691.882 C 711.445 690.518, 717.973 687.793, 717.989 686.750 C 717.995 686.337, 719.088 686, 720.417 686 C 721.746 686, 722.983 685.663, 723.167 685.250 C 723.501 684.499, 726.306 683.072, 744 674.652 C 751.981 670.854, 754.885 668.762, 762.159 661.566 C 766.922 656.855, 771.210 653, 771.688 653 C 772.167 653, 773.207 652.100, 774 651 C 774.793 649.900, 776.017 649, 776.721 649 C 777.424 649, 778.012 648.663, 778.027 648.250 C 778.042 647.837, 779.842 646.397, 782.027 645.049 C 784.212 643.701, 786 642.238, 786 641.799 C 786 641.360, 786.792 641, 787.759 641 C 788.727 641, 790.081 640.100, 790.768 639 C 791.455 637.900, 792.651 637, 793.425 637 C 794.200 637, 794.984 636.548, 795.168 635.995 C 795.353 635.442, 797.812 633.304, 800.633 631.245 C 803.454 629.185, 807.925 625.925, 810.568 624 C 813.210 622.075, 817.741 618.307, 820.635 615.627 C 823.530 612.947, 827.496 609.668, 829.449 608.341 C 831.402 607.014, 833 605.494, 833 604.964 C 833 604.434, 833.900 604, 835 604 C 836.129 604, 837 603.333, 837 602.469 C 837 600.301, 846.210 588.152, 847.917 588.069 C 848.696 588.031, 849.051 587.718, 848.707 587.373 C 847.990 586.657, 850.582 581.276, 852.630 579.227 C 853.383 578.474, 854 577.428, 854 576.904 C 854 576.380, 855.605 573.619, 857.566 570.768 C 861.701 564.756, 865.239 557.374, 868.716 547.500 C 870.072 543.650, 871.538 540.050, 871.974 539.500 C 872.410 538.950, 873.282 536.056, 873.911 533.069 C 874.541 530.083, 876.223 523.783, 877.649 519.069 C 885.597 492.803, 887.063 482.986, 884.455 473.498 C 883.549 470.199, 882.449 465.925, 882.012 464 C 881.199 460.417, 878.477 452.622, 875.553 445.500 C 874.649 443.300, 873.546 440.600, 873.100 439.500 C 871.163 434.718, 862.545 417.366, 861.429 416 C 859.810 414.019, 856.364 407.905, 852.692 400.500 C 851.056 397.200, 849.527 395.038, 849.294 395.695 C 849.061 396.352, 849.434 397.927, 850.124 399.195 C 851.589 401.889, 852.029 405.136, 850.829 404.395 C 850.373 404.113, 850 403.177, 850 402.315 C 850 401.453, 847.293 395.673, 843.984 389.469 C 838.070 378.384, 832.372 371.334, 825.584 366.710 C 815.702 359.978, 813 357.529, 813 355.307 C 813 354.038, 812.550 353, 812 353 C 811.450 353, 811 353.702, 811 354.559 C 811 355.416, 810.543 355.835, 809.984 355.490 C 809.425 355.144, 809.226 354.443, 809.543 353.931 C 809.859 353.419, 809.641 353, 809.059 353 C 808.477 353, 808 352.100, 808 351 C 808 349.889, 807.333 349, 806.500 349 C 805.675 349, 805 349.858, 805 350.906 C 805 352.320, 804.483 352.678, 803 352.290 C 801.900 352.002, 800.988 351.257, 800.972 350.633 C 800.957 350.010, 799.351 348.375, 797.404 347 C 795.456 345.625, 792.589 343.486, 791.033 342.247 C 789.476 341.007, 786.359 339.168, 784.106 338.159 C 781.853 337.150, 780.344 335.989, 780.754 335.579 C 781.164 335.169, 781.050 334.976, 780.500 335.151 C 779.447 335.485, 771.675 332.535, 761.330 327.875 C 751.857 323.609, 726.029 317.501, 712.890 316.422 C 708.925 316.096, 704.516 315.336, 703.091 314.733 C 701.666 314.130, 699.787 313.558, 698.916 313.463 C 698.044 313.367, 694.444 312.773, 690.916 312.143 C 687.387 311.513, 680.900 310.551, 676.500 310.005 C 661.017 308.084, 653.492 306.844, 652.709 306.085 C 652.274 305.663, 646.311 305.530, 639.459 305.790 C 630.634 306.124, 627 305.934, 627 305.139 C 627 303.779, 557.698 304.775, 557.167 306.143 C 556.983 306.614, 553.518 307, 549.466 307 C 545.414 307, 539.931 307.465, 537.282 308.033 C 528.635 309.887, 521.351 309.773, 473 307.024 C 464.475 306.539, 455.025 305.441, 452 304.583 C 445.419 302.717, 433.492 302.732, 419.500 304.625 M 76.720 310.332 C 75.606 313.165, 75.788 314.612, 77.094 313.306 C 77.695 312.705, 78.020 311.377, 77.814 310.356 C 77.454 308.566, 77.415 308.565, 76.720 310.332 M 761.813 318.683 C 762.534 318.972, 763.397 318.936, 763.729 318.604 C 764.061 318.272, 763.471 318.036, 762.417 318.079 C 761.252 318.127, 761.015 318.364, 761.813 318.683 M 81.500 321 C 81.160 321.550, 81.359 322, 81.941 322 C 82.523 322, 83 321.550, 83 321 C 83 320.450, 82.802 320, 82.559 320 C 82.316 320, 81.840 320.450, 81.500 321 M 77.019 323.500 C 76.292 325.625, 76.543 333.846, 77.310 333.084 C 77.756 332.641, 77.950 330.079, 77.741 327.390 C 77.532 324.700, 77.207 322.950, 77.019 323.500 M 85.158 330 C 85.158 331.375, 85.385 331.938, 85.662 331.250 C 85.940 330.563, 85.940 329.438, 85.662 328.750 C 85.385 328.063, 85.158 328.625, 85.158 330 M 84 339.441 C 84 340.298, 84.450 341, 85 341 C 85.550 341, 86 340.577, 86 340.059 C 86 339.541, 85.550 338.840, 85 338.500 C 84.450 338.160, 84 338.584, 84 339.441 M 83.484 350.818 C 83.751 351.084, 83.343 351.797, 82.578 352.401 C 81.813 353.006, 80.913 355.075, 80.577 357 C 80.043 360.063, 80.125 360.261, 81.234 358.588 C 81.930 357.536, 83.287 355.849, 84.250 354.838 C 86.396 352.584, 86.521 350.333, 84.500 350.333 C 83.675 350.333, 83.218 350.551, 83.484 350.818 M 791 350.640 C 791 351.829, 794.486 353.936, 796.500 353.964 C 798.058 353.986, 797.777 353.552, 795.226 351.996 C 791.726 349.862, 791 349.629, 791 350.640 M 75.251 382.885 C 75.186 398.222, 75.475 412.959, 75.893 415.635 C 76.648 420.470, 76.657 420.447, 77.400 412 C 77.812 407.325, 77.911 400.595, 77.621 397.045 C 77.274 392.779, 77.503 390.086, 78.298 389.103 C 79.237 387.941, 79.234 387.776, 78.284 388.346 C 77.080 389.069, 77.112 386.142, 78.479 370.778 C 78.710 368.181, 78.449 365.777, 77.898 365.437 C 77.347 365.096, 76.988 363.621, 77.099 362.159 C 77.426 357.866, 77.060 355, 76.184 355 C 75.735 355, 75.315 367.548, 75.251 382.885 M 798.550 355.890 C 800.904 358.095, 811.243 363.230, 810.829 361.988 C 810.579 361.238, 809.053 360.189, 807.438 359.656 C 805.822 359.123, 803.772 357.857, 802.883 356.843 C 801.993 355.830, 800.441 355, 799.433 355 C 798.317 355, 797.972 355.348, 798.550 355.890 M 84.158 359 C 84.158 360.375, 84.385 360.938, 84.662 360.250 C 84.940 359.563, 84.940 358.438, 84.662 357.750 C 84.385 357.063, 84.158 357.625, 84.158 359 M 339.771 362.079 C 339.234 365.706, 339.707 368, 340.993 368 C 342.346 368, 342.718 361.997, 341.471 360.291 C 340.445 358.887, 340.206 359.138, 339.771 362.079 M 84.158 365 C 84.158 366.375, 84.385 366.938, 84.662 366.250 C 84.940 365.563, 84.940 364.438, 84.662 363.750 C 84.385 363.063, 84.158 363.625, 84.158 365 M 813.536 364.941 C 813.211 365.468, 813.969 366.427, 815.222 367.072 C 816.475 367.717, 818.737 369.399, 820.250 370.809 C 821.763 372.220, 823 373.083, 823 372.726 C 823 371.869, 830.912 379.732, 833.653 383.312 C 835.122 385.233, 836.038 385.748, 836.540 384.936 C 836.993 384.202, 835.025 381.649, 831.387 378.253 C 822.802 370.241, 814.218 363.839, 813.536 364.941 M 81 367.500 C 80.930 368.050, 80.726 369.991, 80.547 371.814 C 80.245 374.893, 80.320 374.987, 81.610 373.147 C 82.593 371.743, 82.725 370.487, 82.062 368.833 C 81.548 367.550, 81.070 366.950, 81 367.500 M 967 370.941 C 967 371.459, 967.445 372.157, 967.989 372.493 C 968.555 372.843, 968.723 372.442, 968.382 371.552 C 967.717 369.820, 967 369.503, 967 370.941 M 82.500 376 C 82.840 376.550, 83.316 377, 83.559 377 C 83.802 377, 84 376.550, 84 376 C 84 375.450, 83.523 375, 82.941 375 C 82.359 375, 82.160 375.450, 82.500 376 M 1037.079 377.583 C 1037.127 378.748, 1037.364 378.985, 1037.683 378.188 C 1037.972 377.466, 1037.936 376.603, 1037.604 376.271 C 1037.272 375.939, 1037.036 376.529, 1037.079 377.583 M 970.079 380.583 C 970.127 381.748, 970.364 381.985, 970.683 381.188 C 970.972 380.466, 970.936 379.603, 970.604 379.271 C 970.272 378.939, 970.036 379.529, 970.079 380.583 M 80 380.941 C 80 381.459, 80.450 382.160, 81 382.500 C 81.550 382.840, 82 382.416, 82 381.559 C 82 380.702, 81.550 380, 81 380 C 80.450 380, 80 380.423, 80 380.941 M 1045.079 383.583 C 1045.127 384.748, 1045.364 384.985, 1045.683 384.188 C 1045.972 383.466, 1045.936 382.603, 1045.604 382.271 C 1045.272 381.939, 1045.036 382.529, 1045.079 383.583 M 836.643 386.489 C 836.101 387.900, 840.452 397.925, 842.078 399.010 C 842.498 399.291, 843.152 400.757, 843.531 402.269 C 844.420 405.809, 846.004 406.803, 845.985 403.809 C 845.959 399.551, 839.846 385, 838.084 385 C 837.605 385, 836.957 385.670, 836.643 386.489 M 1040.086 387 C 1040.055 387.825, 1040.467 389.175, 1041 390 C 1042.181 391.828, 1042.181 390.249, 1041 387.500 C 1040.433 386.181, 1040.122 386.011, 1040.086 387 M 83.195 406.500 C 83.215 408.150, 83.439 408.704, 83.693 407.731 C 83.947 406.758, 83.930 405.408, 83.656 404.731 C 83.382 404.054, 83.175 404.850, 83.195 406.500 M 883.071 421.500 C 883.071 422.050, 883.714 423.625, 884.500 425 C 885.286 426.375, 885.929 427.050, 885.929 426.500 C 885.929 425.950, 885.286 424.375, 884.500 423 C 883.714 421.625, 883.071 420.950, 883.071 421.500 M 76.195 425.500 C 76.215 427.150, 76.439 427.704, 76.693 426.731 C 76.947 425.758, 76.930 424.408, 76.656 423.731 C 76.382 423.054, 76.175 423.850, 76.195 425.500 M 913.079 431.583 C 913.127 432.748, 913.364 432.985, 913.683 432.188 C 913.972 431.466, 913.936 430.603, 913.604 430.271 C 913.272 429.939, 913.036 430.529, 913.079 431.583 M 1057.158 437 C 1057.158 438.375, 1057.385 438.938, 1057.662 438.250 C 1057.940 437.563, 1057.940 436.438, 1057.662 435.750 C 1057.385 435.063, 1057.158 435.625, 1057.158 437 M 930.079 440.583 C 930.127 441.748, 930.364 441.985, 930.683 441.188 C 930.972 440.466, 930.936 439.603, 930.604 439.271 C 930.272 438.939, 930.036 439.529, 930.079 440.583 M 1058.158 443 C 1058.158 444.375, 1058.385 444.938, 1058.662 444.250 C 1058.940 443.563, 1058.940 442.438, 1058.662 441.750 C 1058.385 441.063, 1058.158 441.625, 1058.158 443 M 1059.158 452 C 1059.158 453.375, 1059.385 453.938, 1059.662 453.250 C 1059.940 452.563, 1059.940 451.438, 1059.662 450.750 C 1059.385 450.063, 1059.158 450.625, 1059.158 452 M 927.195 459.500 C 927.215 461.150, 927.439 461.704, 927.693 460.731 C 927.947 459.758, 927.930 458.408, 927.656 457.731 C 927.382 457.054, 927.175 457.850, 927.195 459.500 M 346 469 C 346 469.550, 346.477 470, 347.059 470 C 347.641 470, 347.840 469.550, 347.500 469 C 347.160 468.450, 346.684 468, 346.441 468 C 346.198 468, 346 468.450, 346 469 M 73.195 475.500 C 73.215 477.150, 73.439 477.704, 73.693 476.731 C 73.947 475.758, 73.930 474.408, 73.656 473.731 C 73.382 473.054, 73.175 473.850, 73.195 475.500 M 1138.972 478.500 C 1138.667 481.655, 1138.690 485.845, 1139.048 492.500 L 1139.263 496.500 1140.272 491.250 C 1140.951 487.718, 1140.951 484.282, 1140.272 480.750 C 1139.451 476.479, 1139.209 476.060, 1138.972 478.500 M 72.158 486 C 72.158 487.375, 72.385 487.938, 72.662 487.250 C 72.940 486.563, 72.940 485.438, 72.662 484.750 C 72.385 484.063, 72.158 484.625, 72.158 486 M 906.158 489 C 906.158 490.375, 906.385 490.938, 906.662 490.250 C 906.940 489.563, 906.940 488.438, 906.662 487.750 C 906.385 487.063, 906.158 487.625, 906.158 489 M 970.079 494.583 C 970.127 495.748, 970.364 495.985, 970.683 495.188 C 970.972 494.466, 970.936 493.603, 970.604 493.271 C 970.272 492.939, 970.036 493.529, 970.079 494.583 M 71.015 497.750 C 71.007 499.538, 71.450 501, 72 501 C 73.270 501, 73.270 497.965, 72 496 C 71.264 494.862, 71.027 495.284, 71.015 497.750 M 986.079 500.583 C 986.127 501.748, 986.364 501.985, 986.683 501.188 C 986.972 500.466, 986.936 499.603, 986.604 499.271 C 986.272 498.939, 986.036 499.529, 986.079 500.583 M 923.079 501.583 C 923.127 502.748, 923.364 502.985, 923.683 502.188 C 923.972 501.466, 923.936 500.603, 923.604 500.271 C 923.272 499.939, 923.036 500.529, 923.079 501.583 M 969.079 502.583 C 969.127 503.748, 969.364 503.985, 969.683 503.188 C 969.972 502.466, 969.936 501.603, 969.604 501.271 C 969.272 500.939, 969.036 501.529, 969.079 502.583 M 902.556 506.556 C 902.179 508.562, 902.071 510.404, 902.315 510.649 C 902.560 510.893, 903.068 509.451, 903.444 507.444 C 903.821 505.438, 903.929 503.596, 903.685 503.351 C 903.440 503.107, 902.932 504.549, 902.556 506.556 M 986.079 504.583 C 986.127 505.748, 986.364 505.985, 986.683 505.188 C 986.972 504.466, 986.936 503.603, 986.604 503.271 C 986.272 502.939, 986.036 503.529, 986.079 504.583 M 922.079 506.583 C 922.127 507.748, 922.364 507.985, 922.683 507.188 C 922.972 506.466, 922.936 505.603, 922.604 505.271 C 922.272 504.939, 922.036 505.529, 922.079 506.583 M 979.079 509.583 C 979.127 510.748, 979.364 510.985, 979.683 510.188 C 979.972 509.466, 979.936 508.603, 979.604 508.271 C 979.272 507.939, 979.036 508.529, 979.079 509.583 M 951.079 510.583 C 951.127 511.748, 951.364 511.985, 951.683 511.188 C 951.972 510.466, 951.936 509.603, 951.604 509.271 C 951.272 508.939, 951.036 509.529, 951.079 510.583 M 1064.252 513.500 C 1064.263 515.700, 1064.468 516.482, 1064.707 515.238 C 1064.946 513.994, 1064.937 512.194, 1064.687 511.238 C 1064.437 510.282, 1064.241 511.300, 1064.252 513.500 M 234.158 514 C 234.158 515.375, 234.385 515.938, 234.662 515.250 C 234.940 514.563, 234.940 513.438, 234.662 512.750 C 234.385 512.063, 234.158 512.625, 234.158 514 M 234.195 519.500 C 234.215 521.150, 234.439 521.704, 234.693 520.731 C 234.947 519.758, 234.930 518.408, 234.656 517.731 C 234.382 517.054, 234.175 517.850, 234.195 519.500 M 1047.667 519.667 C 1047.300 520.033, 1047 521.458, 1047 522.833 C 1047 525.898, 1047.917 525.188, 1048.564 521.623 C 1049.050 518.941, 1048.843 518.490, 1047.667 519.667 M 76.891 525.583 C 76.308 530.461, 76.705 547.932, 77.393 547.702 C 78.377 547.374, 78.579 526.246, 77.607 525.274 C 77.273 524.940, 76.951 525.079, 76.891 525.583 M 963 527 C 963 527.550, 963.477 528, 964.059 528 C 964.641 528, 964.840 527.550, 964.500 527 C 964.160 526.450, 963.684 526, 963.441 526 C 963.198 526, 963 526.450, 963 527 M 88.079 528.583 C 88.127 529.748, 88.364 529.985, 88.683 529.188 C 88.972 528.466, 88.936 527.603, 88.604 527.271 C 88.272 526.939, 88.036 527.529, 88.079 528.583 M 984.079 528.583 C 984.127 529.748, 984.364 529.985, 984.683 529.188 C 984.972 528.466, 984.936 527.603, 984.604 527.271 C 984.272 526.939, 984.036 527.529, 984.079 528.583 M 87 532.500 C 87 533.325, 87.450 534, 88 534 C 88.550 534, 89 533.325, 89 532.500 C 89 531.675, 88.550 531, 88 531 C 87.450 531, 87 531.675, 87 532.500 M 234 533 C 234 533.550, 234.477 534, 235.059 534 C 235.641 534, 235.840 533.550, 235.500 533 C 235.160 532.450, 234.684 532, 234.441 532 C 234.198 532, 234 532.450, 234 533 M 204.158 538 C 204.158 539.375, 204.385 539.938, 204.662 539.250 C 204.940 538.563, 204.940 537.438, 204.662 536.750 C 204.385 536.063, 204.158 536.625, 204.158 538 M 87 544.500 C 87 548.808, 87.268 552.066, 87.595 551.738 C 88.433 550.900, 88.510 538.177, 87.682 537.349 C 87.307 536.974, 87 540.192, 87 544.500 M 235.741 553.615 C 236.030 556.302, 236.431 558.688, 236.633 558.917 C 237.430 559.822, 236.914 551.412, 236.092 550.115 C 235.556 549.268, 235.419 550.629, 235.741 553.615 M 76.667 552.667 C 76.300 553.033, 76 553.798, 76 554.367 C 76 554.993, 76.466 554.934, 77.183 554.217 C 77.834 553.566, 78.134 552.801, 77.850 552.517 C 77.566 552.232, 77.033 552.300, 76.667 552.667 M 87.158 556 C 87.158 557.375, 87.385 557.938, 87.662 557.250 C 87.940 556.563, 87.940 555.438, 87.662 554.750 C 87.385 554.063, 87.158 554.625, 87.158 556 M 87.079 560.583 C 87.127 561.748, 87.364 561.985, 87.683 561.188 C 87.972 560.466, 87.936 559.603, 87.604 559.271 C 87.272 558.939, 87.036 559.529, 87.079 560.583 M 960.015 562.250 C 960.007 564.313, 960.173 566, 960.383 566 C 961.250 566, 961.636 561.032, 960.864 559.815 C 960.333 558.977, 960.025 559.860, 960.015 562.250 M 1127.079 562.583 C 1127.127 563.748, 1127.364 563.985, 1127.683 563.188 C 1127.972 562.466, 1127.936 561.603, 1127.604 561.271 C 1127.272 560.939, 1127.036 561.529, 1127.079 562.583 M 77.079 565.583 C 77.127 566.748, 77.364 566.985, 77.683 566.188 C 77.972 565.466, 77.936 564.603, 77.604 564.271 C 77.272 563.939, 77.036 564.529, 77.079 565.583 M 981.079 565.583 C 981.127 566.748, 981.364 566.985, 981.683 566.188 C 981.972 565.466, 981.936 564.603, 981.604 564.271 C 981.272 563.939, 981.036 564.529, 981.079 565.583 M 86.932 565.191 C 86.298 568.067, 86.304 574, 86.942 574 C 88.037 574, 88.817 566.005, 87.784 565.366 C 87.353 565.100, 86.969 565.021, 86.932 565.191 M 236.414 568.487 C 236.071 569.854, 236.490 580.092, 237.345 591.237 L 238.899 611.500 238.309 591.500 C 237.984 580.500, 237.763 570.263, 237.819 568.750 C 237.944 565.325, 237.241 565.194, 236.414 568.487 M 884.624 567.539 C 883.659 570.053, 883.943 570.702, 885.122 568.675 C 885.706 567.671, 885.973 566.639, 885.715 566.382 C 885.458 566.124, 884.966 566.645, 884.624 567.539 M 1125.963 566 C 1125.855 566.275, 1125.654 568.750, 1125.515 571.500 C 1125.151 578.727, 1119.972 594.453, 1111.825 613.073 C 1110.427 616.267, 1109.824 619.836, 1109.824 624.902 C 1109.824 628.892, 1110.033 632.366, 1110.288 632.622 C 1110.818 633.151, 1115.696 621.337, 1116.400 617.820 C 1116.655 616.544, 1118.071 611.675, 1119.547 607 C 1121.023 602.325, 1122.836 595.800, 1123.577 592.500 C 1124.318 589.200, 1125.937 582.761, 1127.175 578.191 C 1128.706 572.542, 1129.087 569.661, 1128.363 569.191 C 1127.778 568.811, 1127.043 567.825, 1126.729 567 C 1126.415 566.175, 1126.070 565.725, 1125.963 566 M 110 569.559 C 110 570.416, 110.450 570.840, 111 570.500 C 111.550 570.160, 112 569.459, 112 568.941 C 112 568.423, 111.550 568, 111 568 C 110.450 568, 110 568.702, 110 569.559 M 958.625 575.125 C 958.274 576.882, 958.171 578.505, 958.398 578.731 C 958.624 578.958, 959.120 577.729, 959.500 576 C 959.880 574.271, 959.982 572.649, 959.727 572.394 C 959.472 572.139, 958.976 573.368, 958.625 575.125 M 75.672 583 C 74.933 589.861, 75.299 601.632, 76.281 602.615 C 77.081 603.414, 77.633 584.298, 76.936 579.987 C 76.447 576.965, 76.278 577.368, 75.672 583 M 86 580 C 86 580.550, 86.675 581, 87.500 581 C 88.325 581, 89 580.550, 89 580 C 89 579.450, 88.325 579, 87.500 579 C 86.675 579, 86 579.450, 86 580 M 86.272 588 C 86.272 590.475, 86.467 591.487, 86.706 590.250 C 86.944 589.013, 86.944 586.987, 86.706 585.750 C 86.467 584.513, 86.272 585.525, 86.272 588 M 67.627 597.250 C 68.519 603.074, 69 603.220, 69 597.667 C 69 595.100, 68.545 593, 67.988 593 C 67.362 593, 67.225 594.621, 67.627 597.250 M 86.079 596.583 C 86.127 597.748, 86.364 597.985, 86.683 597.188 C 86.972 596.466, 86.936 595.603, 86.604 595.271 C 86.272 594.939, 86.036 595.529, 86.079 596.583 M 86.079 601.583 C 86.127 602.748, 86.364 602.985, 86.683 602.188 C 86.972 601.466, 86.936 600.603, 86.604 600.271 C 86.272 599.939, 86.036 600.529, 86.079 601.583 M 74.721 615.250 C 74.442 617.038, 74.616 618.928, 75.107 619.450 C 75.640 620.017, 76 618.706, 76 616.200 C 76 611.185, 75.421 610.755, 74.721 615.250 M 238.100 616.750 C 238.045 619.650, 238.448 622, 239 622 C 240.161 622, 240.161 617.624, 239 614 C 238.370 612.033, 238.178 612.619, 238.100 616.750 M 110 617.559 C 110 618.416, 110.450 618.840, 111 618.500 C 111.550 618.160, 112 617.459, 112 616.941 C 112 616.423, 111.550 616, 111 616 C 110.450 616, 110 616.702, 110 617.559 M 86.079 620.583 C 86.127 621.748, 86.364 621.985, 86.683 621.188 C 86.972 620.466, 86.936 619.603, 86.604 619.271 C 86.272 618.939, 86.036 619.529, 86.079 620.583 M 86.195 627.500 C 86.215 629.150, 86.439 629.704, 86.693 628.731 C 86.947 627.758, 86.930 626.408, 86.656 625.731 C 86.382 625.054, 86.175 625.850, 86.195 627.500 M 1104.976 634.726 C 1103.799 637.352, 1102.150 641.300, 1101.311 643.500 C 1100.471 645.700, 1098.656 649.975, 1097.278 653 C 1094.037 660.109, 1091.994 666.851, 1092.127 670 C 1092.213 672.059, 1092.318 672.147, 1092.719 670.500 C 1092.987 669.400, 1093.782 667.825, 1094.485 667 C 1095.188 666.175, 1096.065 664.375, 1096.433 663 C 1097.413 659.343, 1101.342 650.599, 1102.325 649.888 C 1102.790 649.552, 1103.204 648.877, 1103.244 648.388 C 1103.476 645.595, 1104.427 643.998, 1105.867 643.985 C 1107.118 643.973, 1107.194 643.775, 1106.192 643.140 C 1104.744 642.222, 1105.341 638.367, 1107.637 633.807 C 1108.439 632.214, 1108.609 630.876, 1108.054 630.533 C 1107.537 630.214, 1106.152 632.101, 1104.976 634.726 M 86 633.559 C 86 634.416, 86.457 634.835, 87.016 634.490 C 87.575 634.144, 87.774 633.443, 87.457 632.931 C 86.600 631.544, 86 631.802, 86 633.559 M 240.079 638.583 C 240.127 639.748, 240.364 639.985, 240.683 639.188 C 240.972 638.466, 240.936 637.603, 240.604 637.271 C 240.272 636.939, 240.036 637.529, 240.079 638.583 M 109 641.115 C 109 642.254, 109.528 642.991, 110.188 642.771 C 112.039 642.154, 112.249 640.310, 110.542 639.655 C 109.461 639.240, 109 639.677, 109 641.115 M 62.125 646.162 C 62.253 650.465, 62.619 651.700, 63.647 651.305 C 65.100 650.748, 65.522 649, 64.204 649 C 62.936 649, 63.374 643.708, 64.678 643.274 C 65.341 643.053, 66.040 644.110, 66.278 645.691 C 66.594 647.791, 66.738 647.455, 66.850 644.356 C 66.989 640.518, 66.813 640.222, 64.478 640.356 C 62.074 640.493, 61.964 640.766, 62.125 646.162 M 80.079 644.583 C 80.127 645.748, 80.364 645.985, 80.683 645.188 C 80.972 644.466, 80.936 643.603, 80.604 643.271 C 80.272 642.939, 80.036 643.529, 80.079 644.583 M 74.195 646.500 C 74.215 648.150, 74.439 648.704, 74.693 647.731 C 74.947 646.758, 74.930 645.408, 74.656 644.731 C 74.382 644.054, 74.175 644.850, 74.195 646.500 M 85.158 654 C 85.158 655.375, 85.385 655.938, 85.662 655.250 C 85.940 654.563, 85.940 653.438, 85.662 652.750 C 85.385 652.063, 85.158 652.625, 85.158 654 M 241.158 667 C 241.158 668.375, 241.385 668.938, 241.662 668.250 C 241.940 667.563, 241.940 666.438, 241.662 665.750 C 241.385 665.063, 241.158 665.625, 241.158 667 M 85.079 668.583 C 85.127 669.748, 85.364 669.985, 85.683 669.188 C 85.972 668.466, 85.936 667.603, 85.604 667.271 C 85.272 666.939, 85.036 667.529, 85.079 668.583 M 79 668.941 C 79 669.459, 79.450 670.160, 80 670.500 C 80.550 670.840, 81 670.416, 81 669.559 C 81 668.702, 80.550 668, 80 668 C 79.450 668, 79 668.423, 79 668.941 M 72.851 674.250 C 72.390 679.836, 72.906 684, 74.060 684 C 74.570 684, 74.823 682.987, 74.621 681.750 C 74.420 680.513, 74.649 678.740, 75.130 677.811 C 75.625 676.856, 75.628 675.888, 75.137 675.585 C 74.659 675.289, 74.485 673.912, 74.751 672.524 C 75.016 671.136, 74.776 670, 74.217 670 C 73.659 670, 73.044 671.913, 72.851 674.250 M 242.595 688.500 C 242.904 696.200, 243.545 704.300, 244.018 706.500 C 244.553 708.986, 244.660 704.655, 244.302 695.060 C 243.985 686.569, 243.344 678.469, 242.879 677.060 C 242.385 675.567, 242.266 680.337, 242.595 688.500 M 1085.345 682.543 C 1085.019 683.392, 1084.976 684.310, 1085.249 684.583 C 1085.523 684.856, 1085.986 684.161, 1086.279 683.040 C 1086.903 680.657, 1086.210 680.289, 1085.345 682.543 M 73.500 686 C 73.160 686.550, 73.359 687, 73.941 687 C 74.523 687, 75 686.550, 75 686 C 75 685.450, 74.802 685, 74.559 685 C 74.316 685, 73.840 685.450, 73.500 686 M 109.015 692.250 C 109.007 693.763, 109.450 695, 110 695 C 111.264 695, 111.264 692.957, 110 691 C 109.245 689.831, 109.027 690.107, 109.015 692.250 M 114.015 694.191 C 114.007 695.121, 114.450 696.160, 115 696.500 C 116.266 697.282, 116.266 695.958, 115 694 C 114.165 692.707, 114.029 692.734, 114.015 694.191 M 244 715 C 244 716.867, 244.267 717.133, 245.200 716.200 C 246.133 715.267, 246.133 714.733, 245.200 713.800 C 244.267 712.867, 244 713.133, 244 715 M 609 717 C 607.718 717.828, 607.754 717.972, 609.250 717.985 C 610.212 717.993, 611 717.550, 611 717 C 611 715.780, 610.887 715.780, 609 717 M 84.195 721.500 C 84.215 723.150, 84.439 723.704, 84.693 722.731 C 84.947 721.758, 84.930 720.408, 84.656 719.731 C 84.382 719.054, 84.175 719.850, 84.195 721.500 M 72.468 727.365 C 72.031 730.276, 72.150 732.550, 72.771 733.171 C 74.194 734.594, 75.456 726.637, 74.172 724.342 C 73.376 722.921, 73.047 723.505, 72.468 727.365 M 83.974 727.500 C 83.340 729.909, 84.278 737.921, 85.027 736.500 C 85.317 735.950, 85.317 733.250, 85.027 730.500 C 84.711 727.500, 84.290 726.300, 83.974 727.500 M 88.079 729.583 C 88.127 730.748, 88.364 730.985, 88.683 730.188 C 88.972 729.466, 88.936 728.603, 88.604 728.271 C 88.272 727.939, 88.036 728.529, 88.079 729.583 M 78.607 730.582 C 77.719 732.897, 77.866 737.799, 78.843 738.403 C 79.306 738.689, 79.765 736.691, 79.861 733.962 C 80.042 728.848, 79.664 727.828, 78.607 730.582 M 109.500 730 C 109.160 730.550, 109.359 731, 109.941 731 C 110.523 731, 111 730.550, 111 730 C 111 729.450, 110.802 729, 110.559 729 C 110.316 729, 109.840 729.450, 109.500 730 M 431.500 736 C 429.290 736.562, 430.526 736.795, 436.191 736.882 C 440.421 736.947, 444.160 736.550, 444.500 736 C 445.222 734.831, 436.093 734.831, 431.500 736 M 72.607 737.582 C 71.711 739.917, 71.870 746.801, 72.833 747.397 C 73.292 747.680, 73.667 745.232, 73.667 741.956 C 73.667 735.586, 73.553 735.117, 72.607 737.582 M 115.328 742.500 C 115.333 746.350, 115.513 747.802, 115.730 745.728 C 115.946 743.653, 115.943 740.503, 115.722 738.728 C 115.501 736.952, 115.324 738.650, 115.328 742.500 M 84 739.441 C 84 740.298, 84.450 741, 85 741 C 85.550 741, 86 740.577, 86 740.059 C 86 739.541, 85.550 738.840, 85 738.500 C 84.450 738.160, 84 738.584, 84 739.441 M 66 742.941 C 66 745.356, 66.556 745.599, 67.349 743.532 C 67.659 742.725, 67.482 741.798, 66.956 741.473 C 66.430 741.148, 66 741.809, 66 742.941 M 66.079 747.583 C 66.127 748.748, 66.364 748.985, 66.683 748.188 C 66.972 747.466, 66.936 746.603, 66.604 746.271 C 66.272 745.939, 66.036 746.529, 66.079 747.583 M 83.756 749.209 C 83.497 750.974, 83.632 753.562, 84.057 754.959 C 84.636 756.867, 84.850 756.068, 84.914 751.750 C 85.009 745.402, 84.484 744.250, 83.756 749.209 M 88.079 751.583 C 88.127 752.748, 88.364 752.985, 88.683 752.188 C 88.972 751.466, 88.936 750.603, 88.604 750.271 C 88.272 749.939, 88.036 750.529, 88.079 751.583 M 72.624 752.539 C 71.659 755.053, 71.943 755.702, 73.122 753.675 C 73.706 752.671, 73.973 751.639, 73.715 751.382 C 73.458 751.124, 72.966 751.645, 72.624 752.539 M 78.079 756.583 C 78.127 757.748, 78.364 757.985, 78.683 757.188 C 78.972 756.466, 78.936 755.603, 78.604 755.271 C 78.272 754.939, 78.036 755.529, 78.079 756.583 M 115.158 767 C 115.158 768.375, 115.385 768.938, 115.662 768.250 C 115.940 767.563, 115.940 766.438, 115.662 765.750 C 115.385 765.063, 115.158 765.625, 115.158 767 M 83 768 C 83 768.550, 83.450 769, 84 769 C 84.550 769, 85 768.550, 85 768 C 85 767.450, 84.550 767, 84 767 C 83.450 767, 83 767.450, 83 768 M 72.015 773.050 C 72.024 774.947, 72.467 777.175, 73 778 C 74.081 779.673, 74.302 778.916, 74.022 774.500 C 73.744 770.119, 71.997 768.856, 72.015 773.050 M 87.759 776.250 C 88.313 785.215, 88.829 785.660, 88.921 777.250 C 88.964 773.263, 88.634 770, 88.186 770 C 87.739 770, 87.546 772.813, 87.759 776.250 M 83.232 774 C 83.232 775.925, 83.438 776.712, 83.689 775.750 C 83.941 774.788, 83.941 773.212, 83.689 772.250 C 83.438 771.288, 83.232 772.075, 83.232 774 M 115.079 772.583 C 115.127 773.748, 115.364 773.985, 115.683 773.188 C 115.972 772.466, 115.936 771.603, 115.604 771.271 C 115.272 770.939, 115.036 771.529, 115.079 772.583 M 77.692 773.360 C 77.002 775.158, 77.940 779, 79.069 779 C 79.885 779, 79.548 773.215, 78.683 772.349 C 78.443 772.110, 77.997 772.565, 77.692 773.360 M 85.079 839.583 C 85.127 840.748, 85.364 840.985, 85.683 840.188 C 85.972 839.466, 85.936 838.603, 85.604 838.271 C 85.272 837.939, 85.036 838.529, 85.079 839.583 M 818.889 926.444 C 818.412 926.922, 798.866 932.403, 790.265 934.472 C 787.385 935.164, 784.460 936.179, 783.765 936.727 C 783.069 937.276, 781.263 938.020, 779.750 938.381 C 778.237 938.742, 777 939.535, 777 940.141 C 777 940.902, 777.389 940.928, 778.250 940.224 C 778.938 939.663, 784.450 938.022, 790.500 936.578 C 809.874 931.954, 814.395 930.667, 819.500 928.319 C 823.536 926.463, 824.002 926.018, 821.917 926.010 C 820.496 926.004, 819.134 926.200, 818.889 926.444 M 66.158 979 C 66.158 980.375, 66.385 980.938, 66.662 980.250 C 66.940 979.563, 66.940 978.438, 66.662 977.750 C 66.385 977.063, 66.158 977.625, 66.158 979 M 658 989.437 C 658 990.278, 662.927 998, 663.464 998 C 664.326 998, 660.092 989.531, 659.057 989.186 C 658.476 988.992, 658 989.105, 658 989.437 M 664.500 1000 C 664.160 1000.550, 664.332 1001, 664.882 1001 C 665.432 1001, 666.160 1000.550, 666.500 1000 C 666.840 999.450, 666.668 999, 666.118 999 C 665.568 999, 664.840 999.450, 664.500 1000 M 668 1004.441 C 668 1005.298, 668.450 1006, 669 1006 C 669.550 1006, 670 1005.577, 670 1005.059 C 670 1004.541, 669.550 1003.840, 669 1003.500 C 668.450 1003.160, 668 1003.584, 668 1004.441 M 671.079 1008.583 C 671.127 1009.748, 671.364 1009.985, 671.683 1009.188 C 671.972 1008.466, 671.936 1007.603, 671.604 1007.271 C 671.272 1006.939, 671.036 1007.529, 671.079 1008.583 M 674.086 1012 C 674.055 1012.825, 674.467 1014.175, 675 1015 C 676.181 1016.828, 676.181 1015.249, 675 1012.500 C 674.433 1011.181, 674.122 1011.011, 674.086 1012 M 662 1015.882 C 662 1016.432, 662.450 1017.160, 663 1017.500 C 663.550 1017.840, 664 1017.668, 664 1017.118 C 664 1016.568, 663.550 1015.840, 663 1015.500 C 662.450 1015.160, 662 1015.332, 662 1015.882 M 344 1032.441 C 344 1033.298, 344.450 1034, 345 1034 C 345.550 1034, 346 1033.577, 346 1033.059 C 346 1032.541, 345.550 1031.840, 345 1031.500 C 344.450 1031.160, 344 1031.584, 344 1032.441 M 688.532 1034 C 689.388 1036.987, 689.801 1037.532, 690.602 1036.731 C 690.933 1036.400, 690.441 1035.088, 689.509 1033.815 L 687.815 1031.500 688.532 1034 M 697 1049.059 C 697 1049.641, 697.450 1049.840, 698 1049.500 C 698.550 1049.160, 699 1048.684, 699 1048.441 C 699 1048.198, 698.550 1048, 698 1048 C 697.450 1048, 697 1048.477, 697 1049.059 M 95.079 1050.583 C 95.127 1051.748, 95.364 1051.985, 95.683 1051.188 C 95.972 1050.466, 95.936 1049.603, 95.604 1049.271 C 95.272 1048.939, 95.036 1049.529, 95.079 1050.583 M 701 1053.882 C 701 1054.432, 701.450 1055.160, 702 1055.500 C 702.550 1055.840, 703 1055.668, 703 1055.118 C 703 1054.568, 702.550 1053.840, 702 1053.500 C 701.450 1053.160, 701 1053.332, 701 1053.882 M 95 1056.500 C 95 1057.991, 95.431 1058.852, 96 1058.500 C 96.550 1058.160, 97 1057.260, 97 1056.500 C 97 1055.740, 96.550 1054.840, 96 1054.500 C 95.431 1054.148, 95 1055.009, 95 1056.500 M 328.232 1059 C 328.232 1060.925, 328.438 1061.713, 328.689 1060.750 C 328.941 1059.787, 328.941 1058.213, 328.689 1057.250 C 328.438 1056.287, 328.232 1057.075, 328.232 1059 M 335.656 1056.747 C 335.277 1057.360, 335.378 1058.116, 335.880 1058.426 C 336.422 1058.761, 336.434 1060.512, 335.909 1062.745 C 335.099 1066.191, 335.734 1078.600, 336.672 1077.661 C 336.896 1077.438, 337.223 1073.260, 337.400 1068.377 C 337.722 1059.480, 336.989 1054.591, 335.656 1056.747 M 705 1059.882 C 705 1060.432, 705.450 1061.160, 706 1061.500 C 706.550 1061.840, 707 1061.668, 707 1061.118 C 707 1060.568, 706.550 1059.840, 706 1059.500 C 705.450 1059.160, 705 1059.332, 705 1059.882 M 94.697 1064.393 C 94.288 1065.434, 94.189 1066.522, 94.476 1066.810 C 95.389 1067.722, 96.191 1066.227, 95.809 1064.328 C 95.459 1062.588, 95.405 1062.591, 94.697 1064.393 M 70.191 1083.710 C 70.379 1095.136, 71.861 1097.341, 71.937 1086.309 C 71.971 1081.254, 71.564 1076.849, 71.032 1076.520 C 70.435 1076.151, 70.112 1078.910, 70.191 1083.710 M 514 1077 C 514 1077.550, 514.477 1078, 515.059 1078 C 515.641 1078, 515.840 1077.550, 515.500 1077 C 515.160 1076.450, 514.684 1076, 514.441 1076 C 514.198 1076, 514 1076.450, 514 1077 M 723.273 1088.978 C 723.357 1090.090, 723.780 1091, 724.213 1091 C 725.319 1091, 725.197 1088.240, 724.061 1087.537 C 723.544 1087.218, 723.190 1087.866, 723.273 1088.978 M 531.070 1098.139 C 531.032 1099.041, 531.830 1100.804, 532.845 1102.057 L 534.691 1104.336 534.512 1101.918 C 534.414 1100.588, 533.939 1099.646, 533.456 1099.824 C 532.973 1100.002, 532.255 1099.327, 531.859 1098.324 C 531.258 1096.798, 531.129 1096.768, 531.070 1098.139 M 729 1097.819 C 729 1099.027, 730.897 1100.436, 731.591 1099.743 C 731.842 1099.491, 731.362 1098.716, 730.524 1098.020 C 729.574 1097.231, 729 1097.155, 729 1097.819 M 734 1104.500 C 734 1105.325, 734.436 1106, 734.969 1106 C 735.501 1106, 735.678 1105.325, 735.362 1104.500 C 735.045 1103.675, 734.609 1103, 734.393 1103 C 734.177 1103, 734 1103.675, 734 1104.500 M 736.564 1108.293 C 736.940 1109.279, 737.499 1109.834, 737.807 1109.526 C 738.115 1109.219, 737.808 1108.412, 737.124 1107.733 C 736.136 1106.753, 736.022 1106.868, 736.564 1108.293 M 326 1110.500 C 326 1111.991, 326.431 1112.852, 327 1112.500 C 327.550 1112.160, 328 1111.260, 328 1110.500 C 328 1109.740, 327.550 1108.840, 327 1108.500 C 326.431 1108.148, 326 1109.009, 326 1110.500 M 536 1109 C 536 1109.550, 536.450 1110, 537 1110 C 537.550 1110, 538 1109.550, 538 1109 C 538 1108.450, 537.550 1108, 537 1108 C 536.450 1108, 536 1108.450, 536 1109 M 726.638 1114.500 C 726.955 1115.325, 727.391 1116, 727.607 1116 C 727.823 1116, 728 1115.325, 728 1114.500 C 728 1113.675, 727.564 1113, 727.031 1113 C 726.499 1113, 726.322 1113.675, 726.638 1114.500 M 746.192 1122.935 C 746.856 1124, 747.764 1124.646, 748.208 1124.372 C 748.652 1124.097, 748.369 1123.226, 747.579 1122.436 C 745.531 1120.388, 744.772 1120.661, 746.192 1122.935 M 750 1128.642 C 750 1129.179, 750.700 1130.491, 751.555 1131.559 C 753.022 1133.389, 753.042 1133.357, 751.920 1131 C 750.462 1127.939, 750 1127.372, 750 1128.642 M 75 1131 C 75 1132.867, 75.267 1133.133, 76.200 1132.200 C 77.133 1131.267, 77.133 1130.733, 76.200 1129.800 C 75.267 1128.867, 75 1129.133, 75 1131 M 67 1132.559 C 67 1133.416, 67.457 1133.835, 68.016 1133.490 C 68.575 1133.144, 68.774 1132.443, 68.457 1131.931 C 67.600 1130.544, 67 1130.802, 67 1132.559 M 80.158 1135 C 80.158 1136.375, 80.385 1136.938, 80.662 1136.250 C 80.940 1135.563, 80.940 1134.438, 80.662 1133.750 C 80.385 1133.063, 80.158 1133.625, 80.158 1135 M 739 1133.393 C 739 1133.609, 739.698 1134.054, 740.552 1134.382 C 741.442 1134.723, 741.843 1134.555, 741.493 1133.989 C 740.906 1133.038, 739 1132.583, 739 1133.393 M 753.543 1133.931 C 753.226 1134.443, 753.350 1135.098, 753.817 1135.387 C 754.284 1135.676, 754.667 1135.257, 754.667 1134.456 C 754.667 1132.770, 754.351 1132.623, 753.543 1133.931 M 327.136 1140.050 C 327.061 1142.553, 326.656 1145.027, 326.236 1145.550 C 325.817 1146.072, 325.714 1151.675, 326.008 1158 C 326.303 1164.325, 326.834 1168.825, 327.188 1168 C 328.061 1165.970, 329.276 1160.894, 329.399 1158.763 C 329.568 1155.859, 331.462 1156.421, 332.077 1159.557 C 332.532 1161.873, 332.745 1161.303, 333.077 1156.879 C 333.310 1153.787, 333.353 1150.519, 333.174 1149.616 C 332.641 1146.931, 331.008 1148.865, 330.900 1152.309 C 330.807 1155.304, 330.756 1155.347, 330.077 1153 C 328.948 1149.101, 329.327 1144.465, 330.750 1144.750 C 332.807 1145.161, 332.161 1141.186, 330.063 1140.520 C 328.998 1140.182, 327.934 1138.914, 327.700 1137.703 C 327.465 1136.491, 327.211 1137.547, 327.136 1140.050 M 73.079 1138.583 C 73.127 1139.748, 73.364 1139.985, 73.683 1139.188 C 73.972 1138.466, 73.936 1137.603, 73.604 1137.271 C 73.272 1136.939, 73.036 1137.529, 73.079 1138.583 M 744 1139.878 C 744 1140.360, 744.749 1141.373, 745.664 1142.128 C 747.172 1143.372, 747.216 1143.290, 746.129 1141.250 C 744.889 1138.923, 744 1138.350, 744 1139.878 M 344 1150.500 C 344 1151.325, 344.436 1152, 344.969 1152 C 345.501 1152, 345.678 1151.325, 345.362 1150.500 C 345.045 1149.675, 344.609 1149, 344.393 1149 C 344.177 1149, 344 1149.675, 344 1150.500 M 767 1155 C 767 1155.550, 767.477 1156, 768.059 1156 C 768.641 1156, 768.840 1155.550, 768.500 1155 C 768.160 1154.450, 767.684 1154, 767.441 1154 C 767.198 1154, 767 1154.450, 767 1155 M 60 1162 C 60 1163.650, 60.457 1165, 61.016 1165 C 61.575 1165, 61.929 1163.650, 61.803 1162 C 61.677 1160.350, 61.220 1159, 60.787 1159 C 60.354 1159, 60 1160.350, 60 1162 M 771 1161.378 C 771 1161.585, 771.685 1162.324, 772.523 1163.019 C 773.796 1164.076, 773.943 1164.014, 773.416 1162.641 C 772.878 1161.240, 771 1160.257, 771 1161.378 M 775.001 1167.094 C 774.999 1168.078, 779.887 1173.450, 780.334 1172.957 C 780.562 1172.706, 779.456 1171.150, 777.876 1169.500 C 776.295 1167.850, 775.002 1166.768, 775.001 1167.094 M 764 1171.893 C 764 1172.384, 764.739 1173.069, 765.641 1173.416 C 767.014 1173.943, 767.076 1173.796, 766.019 1172.523 C 764.579 1170.788, 764 1170.607, 764 1171.893 M 781 1176.941 C 781 1177.459, 781.445 1178.157, 781.989 1178.493 C 782.555 1178.843, 782.723 1178.442, 782.382 1177.552 C 781.717 1175.820, 781 1175.503, 781 1176.941 M 582 1178 C 582 1178.550, 582.702 1179, 583.559 1179 C 584.416 1179, 584.840 1178.550, 584.500 1178 C 584.160 1177.450, 583.459 1177, 582.941 1177 C 582.423 1177, 582 1177.450, 582 1178 M 330.927 1181.583 C 330.859 1184.280, 331.133 1196.299, 331.390 1201.905 C 331.460 1203.428, 332.177 1204.409, 333.347 1204.581 C 334.822 1204.797, 335.059 1204.412, 334.523 1202.676 C 334.153 1201.479, 333.413 1195.791, 332.877 1190.035 C 331.911 1179.645, 331.067 1175.990, 330.927 1181.583 M 585 1181 C 585 1181.550, 585.477 1182, 586.059 1182 C 586.641 1182, 586.840 1181.550, 586.500 1181 C 586.160 1180.450, 585.684 1180, 585.441 1180 C 585.198 1180, 585 1180.450, 585 1181 M 783.606 1181.416 C 783.941 1182.287, 784.653 1183, 785.190 1183 C 786.505 1183, 785.682 1180.727, 784.187 1180.229 C 783.456 1179.985, 783.233 1180.443, 783.606 1181.416 M 343.079 1184.583 C 343.127 1185.748, 343.364 1185.985, 343.683 1185.188 C 343.972 1184.466, 343.936 1183.603, 343.604 1183.271 C 343.272 1182.939, 343.036 1183.529, 343.079 1184.583 M 80.086 1192.750 C 80.039 1197.287, 80.340 1201, 80.756 1201 C 81.899 1201, 82.155 1190.917, 81.099 1187.500 C 80.352 1185.084, 80.155 1186.107, 80.086 1192.750 M 75 1187.969 C 75 1189.220, 74.503 1189.747, 73.637 1189.414 C 72.675 1189.045, 72.079 1190.105, 71.615 1193.006 C 70.936 1197.253, 71.489 1199.434, 73.008 1198.495 C 73.486 1198.200, 74.341 1198.755, 74.908 1199.729 C 75.750 1201.175, 75.970 1200.766, 76.109 1197.500 C 76.203 1195.300, 76.377 1191.813, 76.496 1189.750 C 76.615 1187.688, 76.327 1186, 75.856 1186 C 75.385 1186, 75 1186.886, 75 1187.969 M 337.598 1191 C 336.566 1197.548, 338.157 1214.225, 339.868 1214.792 C 340.995 1215.165, 341.122 1213.330, 340.591 1204.373 C 340.237 1198.393, 339.578 1191.925, 339.127 1190 L 338.307 1186.500 337.598 1191 M 94.500 1193 C 94.840 1193.550, 95.316 1194, 95.559 1194 C 95.802 1194, 96 1193.550, 96 1193 C 96 1192.450, 95.523 1192, 94.941 1192 C 94.359 1192, 94.160 1192.450, 94.500 1193 M 795 1200 C 795 1200.550, 795.450 1201, 796 1201 C 796.550 1201, 797 1200.550, 797 1200 C 797 1199.450, 796.550 1199, 796 1199 C 795.450 1199, 795 1199.450, 795 1200 M 597 1202.315 C 597 1203.204, 598.350 1205.312, 600 1207 C 601.650 1208.688, 603 1209.825, 603 1209.526 C 603 1209.227, 601.650 1207.119, 600 1204.841 C 598.280 1202.467, 597 1201.389, 597 1202.315 M 75.252 1205.500 C 75.263 1207.700, 75.468 1208.482, 75.707 1207.238 C 75.946 1205.994, 75.937 1204.194, 75.687 1203.238 C 75.437 1202.282, 75.241 1203.300, 75.252 1205.500 M 70.780 1207.044 C 70.535 1208.718, 70.708 1210.320, 71.167 1210.603 C 71.625 1210.886, 72 1209.516, 72 1207.559 C 72 1203.198, 71.383 1202.937, 70.780 1207.044 M 910.100 1207.705 C 910.829 1208.917, 911.640 1209.694, 911.903 1209.431 C 912.166 1209.168, 911.570 1208.176, 910.579 1207.226 C 908.857 1205.577, 908.835 1205.598, 910.100 1207.705 M 912.609 1212.423 C 912.909 1213.205, 913.882 1214.125, 914.771 1214.466 C 916.099 1214.975, 916.058 1214.721, 914.539 1213.043 C 912.361 1210.636, 911.862 1210.476, 912.609 1212.423 M 339.630 1221.790 C 339.350 1222.242, 339.324 1225.287, 339.571 1228.556 C 339.818 1231.825, 340.033 1236.862, 340.048 1239.750 C 340.063 1242.638, 340.475 1245, 340.964 1245 C 341.453 1245, 341.800 1239.798, 341.735 1233.441 C 341.628 1222.923, 341.018 1219.544, 339.630 1221.790 M 922 1225.500 C 922 1226.325, 922.450 1227, 923 1227 C 923.550 1227, 924 1226.325, 924 1225.500 C 924 1224.675, 923.550 1224, 923 1224 C 922.450 1224, 922 1224.675, 922 1225.500 M 82.735 1233.606 C 82.221 1236.296, 82.938 1251.177, 83.617 1251.917 C 83.828 1252.146, 84 1247.533, 84 1241.667 C 84 1230.949, 83.659 1228.774, 82.735 1233.606 M 323.781 1235.447 C 323.086 1239.262, 323.391 1240.942, 324.566 1239.767 C 324.878 1239.455, 324.990 1237.468, 324.816 1235.350 L 324.500 1231.500 323.781 1235.447 M 331.015 1234.250 C 331.028 1236.069, 331.216 1236.213, 332 1235 C 333.253 1233.061, 333.253 1232, 332 1232 C 331.450 1232, 331.007 1233.013, 331.015 1234.250 M 622 1238 C 622 1238.550, 622.477 1239, 623.059 1239 C 623.641 1239, 623.840 1238.550, 623.500 1238 C 623.160 1237.450, 622.684 1237, 622.441 1237 C 622.198 1237, 622 1237.450, 622 1238 M 820 1237.755 C 820 1238.305, 820.675 1239.315, 821.500 1240 C 822.337 1240.694, 823 1240.803, 823 1240.245 C 823 1239.695, 822.325 1238.685, 821.500 1238 C 820.663 1237.306, 820 1237.197, 820 1237.755 M 324.272 1246 C 324.272 1248.475, 324.467 1249.487, 324.706 1248.250 C 324.944 1247.013, 324.944 1244.987, 324.706 1243.750 C 324.467 1242.513, 324.272 1243.525, 324.272 1246 M 823.733 1243.124 C 824.412 1243.808, 825.219 1244.115, 825.526 1243.807 C 825.834 1243.499, 825.279 1242.940, 824.293 1242.564 C 822.868 1242.022, 822.753 1242.136, 823.733 1243.124 M 330.814 1253.500 C 329.890 1263.875, 329.930 1290.608, 330.867 1289 C 331.953 1287.137, 332.955 1253.424, 332.026 1250 C 331.516 1248.120, 331.216 1248.988, 330.814 1253.500 M 830.079 1251.583 C 830.127 1252.748, 830.364 1252.985, 830.683 1252.188 C 830.972 1251.466, 830.936 1250.603, 830.604 1250.271 C 830.272 1249.939, 830.036 1250.529, 830.079 1251.583 M 82.750 1264.897 C 81.659 1274.204, 81.775 1279.625, 83.040 1278.360 C 83.656 1277.744, 83.961 1273.490, 83.790 1267.910 L 83.500 1258.500 82.750 1264.897 M 70.070 1266.750 C 70.121 1270.887, 70.382 1271.939, 71 1270.500 C 72.205 1267.696, 72.205 1261, 71 1261 C 70.441 1261, 70.031 1263.536, 70.070 1266.750 M 323.015 1268.691 C 323.026 1272.165, 323.300 1273.083, 324 1272 C 325.272 1270.032, 325.272 1265.286, 324 1264.500 C 323.386 1264.120, 323.006 1265.736, 323.015 1268.691 M 74.158 1267 C 74.158 1268.375, 74.385 1268.938, 74.662 1268.250 C 74.940 1267.563, 74.940 1266.438, 74.662 1265.750 C 74.385 1265.063, 74.158 1265.625, 74.158 1267 M 78.812 1269.250 C 78.581 1270.487, 78.708 1272.625, 79.096 1274 C 79.637 1275.918, 79.824 1275.394, 79.900 1271.750 C 80.006 1266.693, 79.506 1265.543, 78.812 1269.250 M 90.079 1274.583 C 90.127 1275.748, 90.364 1275.985, 90.683 1275.188 C 90.972 1274.466, 90.936 1273.603, 90.604 1273.271 C 90.272 1272.939, 90.036 1273.529, 90.079 1274.583 M 338.232 1276 C 338.232 1277.925, 338.438 1278.713, 338.689 1277.750 C 338.941 1276.787, 338.941 1275.213, 338.689 1274.250 C 338.438 1273.287, 338.232 1274.075, 338.232 1276 M 82 1281.441 C 82 1282.234, 82.423 1283.143, 82.939 1283.463 C 83.456 1283.782, 83.810 1283.134, 83.727 1282.022 C 83.555 1279.738, 82 1279.215, 82 1281.441 M 82.003 1298.250 C 82.118 1313.613, 81.968 1315.781, 81.118 1311.079 C 80.778 1309.198, 80.002 1307.495, 79.393 1307.294 C 78.249 1306.916, 78.383 1310.847, 79.965 1324 L 80.747 1330.500 80.999 1323 C 81.221 1316.375, 81.331 1315.994, 81.940 1319.731 C 83.439 1328.933, 84.055 1324.497, 83.958 1305.197 C 83.896 1292.793, 83.480 1285, 82.880 1285 C 82.289 1285, 81.943 1290.229, 82.003 1298.250 M 71.551 1292.643 C 72.478 1299.025, 73 1299.415, 73 1293.726 C 73 1291.191, 72.515 1288.818, 71.923 1288.452 C 71.174 1287.990, 71.061 1289.270, 71.551 1292.643 M 858 1290 C 858 1290.550, 858.438 1291, 858.974 1291 C 859.510 1291, 860.647 1292.350, 861.500 1294 C 862.353 1295.650, 863.486 1297, 864.016 1297 C 864.547 1297, 863.748 1295.217, 862.240 1293.038 C 859.544 1289.139, 858 1288.033, 858 1290 M 72.158 1304 C 72.158 1305.375, 72.385 1305.938, 72.662 1305.250 C 72.940 1304.563, 72.940 1303.438, 72.662 1302.750 C 72.385 1302.063, 72.158 1302.625, 72.158 1304 M 869 1304.633 C 869 1305.652, 873.271 1309.063, 873.838 1308.496 C 874.122 1308.211, 873.394 1307.084, 872.219 1305.989 C 870.030 1303.950, 869 1303.516, 869 1304.633 M 874 1310.845 C 874 1311.310, 874.900 1312.505, 876 1313.500 C 877.134 1314.526, 878 1314.810, 878 1314.155 C 878 1313.520, 877.550 1313, 877 1313 C 876.450 1313, 876 1312.325, 876 1311.500 C 876 1310.675, 875.550 1310, 875 1310 C 874.450 1310, 874 1310.380, 874 1310.845 M 889.500 1314 C 889.840 1314.550, 890.316 1315, 890.559 1315 C 890.802 1315, 891 1314.550, 891 1314 C 891 1313.450, 890.523 1313, 889.941 1313 C 889.359 1313, 889.160 1313.450, 889.500 1314 M 71.622 1315.825 C 71.179 1317.104, 71.083 1318.417, 71.409 1318.742 C 72.445 1319.779, 73.174 1318.250, 72.794 1315.836 L 72.426 1313.500 71.622 1315.825 M 885 1325.711 C 885 1326.285, 885.788 1327.373, 886.750 1328.128 C 888.369 1329.397, 888.390 1329.350, 887.033 1327.500 C 886.226 1326.400, 885.439 1325.313, 885.283 1325.083 C 885.127 1324.854, 885 1325.137, 885 1325.711 M 1009.289 1347.333 C 1009.895 1348.617, 1010.986 1349.667, 1011.713 1349.667 C 1012.561 1349.667, 1012.249 1348.830, 1010.843 1347.333 C 1009.638 1346.050, 1008.547 1345, 1008.420 1345 C 1008.292 1345, 1008.684 1346.050, 1009.289 1347.333 M 72.539 1358.938 C 71.679 1360.328, 73.039 1365.094, 74.107 1364.434 C 75.285 1363.706, 75.257 1359.277, 74.069 1358.543 C 73.557 1358.226, 72.868 1358.404, 72.539 1358.938 M 911 1359 C 911 1359.550, 911.477 1360, 912.059 1360 C 912.641 1360, 912.840 1359.550, 912.500 1359 C 912.160 1358.450, 911.684 1358, 911.441 1358 C 911.198 1358, 911 1358.450, 911 1359 M 914.733 1363.124 C 915.412 1363.808, 916.219 1364.115, 916.526 1363.807 C 916.834 1363.499, 916.279 1362.940, 915.293 1362.564 C 913.868 1362.022, 913.753 1362.136, 914.733 1363.124 M 918 1367 C 918 1367.550, 918.477 1368, 919.059 1368 C 919.641 1368, 919.840 1367.550, 919.500 1367 C 919.160 1366.450, 918.684 1366, 918.441 1366 C 918.198 1366, 918 1366.450, 918 1367 M 1068.638 1468.500 C 1068.955 1469.325, 1069.671 1470, 1070.229 1470 C 1070.815 1470, 1070.718 1469.365, 1070 1468.500 C 1069.315 1467.675, 1068.599 1467, 1068.409 1467 C 1068.219 1467, 1068.322 1467.675, 1068.638 1468.500 M 992.022 1475.615 C 992.052 1476.781, 995.949 1481.750, 995.978 1480.658 C 995.990 1480.194, 995.100 1478.671, 994 1477.273 C 992.900 1475.874, 992.010 1475.128, 992.022 1475.615 M 1113 1475.941 C 1113 1476.459, 1113.445 1477.157, 1113.989 1477.493 C 1114.555 1477.843, 1114.723 1477.442, 1114.382 1476.552 C 1113.717 1474.820, 1113 1474.503, 1113 1475.941 M 1121 1477.031 C 1121 1477.564, 1121.675 1478, 1122.500 1478 C 1123.325 1478, 1124 1477.823, 1124 1477.607 C 1124 1477.391, 1123.325 1476.955, 1122.500 1476.638 C 1121.675 1476.322, 1121 1476.499, 1121 1477.031 M 1104 1479 C 1104 1479.550, 1104.477 1480, 1105.059 1480 C 1105.641 1480, 1105.840 1479.550, 1105.500 1479 C 1105.160 1478.450, 1104.684 1478, 1104.441 1478 C 1104.198 1478, 1104 1478.450, 1104 1479 M 1124 1479.878 C 1124 1480.360, 1124.749 1481.373, 1125.664 1482.128 C 1127.172 1483.372, 1127.216 1483.290, 1126.129 1481.250 C 1124.889 1478.923, 1124 1478.350, 1124 1479.878 M 940 1499.882 C 940 1500.432, 940.450 1501.160, 941 1501.500 C 941.550 1501.840, 942 1501.668, 942 1501.118 C 942 1500.568, 941.550 1499.840, 941 1499.500 C 940.450 1499.160, 940 1499.332, 940 1499.882 M 954.500 1501 C 955.495 1502.100, 956.535 1503, 956.810 1503 C 957.085 1503, 956.495 1502.100, 955.500 1501 C 954.505 1499.900, 953.465 1499, 953.190 1499 C 952.915 1499, 953.505 1499.900, 954.500 1501 M 959 1506.500 C 960.292 1507.875, 961.574 1509, 961.849 1509 C 962.124 1509, 961.292 1507.875, 960 1506.500 C 958.708 1505.125, 957.426 1504, 957.151 1504 C 956.876 1504, 957.708 1505.125, 959 1506.500 M 963.115 1511.500 C 965.696 1515.359, 969 1519.144, 969 1518.243 C 969 1517.743, 967.375 1515.571, 965.388 1513.417 C 963.402 1511.262, 962.379 1510.400, 963.115 1511.500 M 956.500 1520 C 956.840 1520.550, 957.316 1521, 957.559 1521 C 957.802 1521, 958 1520.550, 958 1520 C 958 1519.450, 957.523 1519, 956.941 1519 C 956.359 1519, 956.160 1519.450, 956.500 1520 M 981.500 1534 C 982.495 1535.100, 983.535 1536, 983.810 1536 C 984.085 1536, 983.495 1535.100, 982.500 1534 C 981.505 1532.900, 980.465 1532, 980.190 1532 C 979.915 1532, 980.505 1532.900, 981.500 1534 M 864.032 1537.559 C 864.049 1538.076, 864.724 1539.374, 865.532 1540.441 C 866.339 1541.509, 866.986 1541.959, 866.968 1541.441 C 866.951 1540.924, 866.276 1539.626, 865.468 1538.559 C 864.661 1537.491, 864.014 1537.041, 864.032 1537.559 M 1070 1538.941 C 1070 1539.459, 1070.445 1540.157, 1070.989 1540.493 C 1071.555 1540.843, 1071.723 1540.442, 1071.382 1539.552 C 1070.717 1537.820, 1070 1537.503, 1070 1538.941 M 1074 1545.941 C 1074 1546.459, 1074.445 1547.157, 1074.989 1547.493 C 1075.555 1547.843, 1075.723 1547.442, 1075.382 1546.552 C 1074.717 1544.820, 1074 1544.503, 1074 1545.941 M 869 1547.882 C 869 1548.432, 869.450 1549.160, 870 1549.500 C 870.550 1549.840, 871 1549.668, 871 1549.118 C 871 1548.568, 870.550 1547.840, 870 1547.500 C 869.450 1547.160, 869 1547.332, 869 1547.882 M 873 1553.711 C 873 1554.285, 873.788 1555.373, 874.750 1556.128 C 876.369 1557.397, 876.390 1557.350, 875.033 1555.500 C 874.226 1554.400, 873.439 1553.313, 873.283 1553.083 C 873.127 1552.854, 873 1553.137, 873 1553.711 M 1038.047 1555.500 C 1038.023 1556.986, 1039.808 1559.526, 1040.435 1558.898 C 1040.735 1558.599, 1040.323 1557.487, 1039.521 1556.427 C 1038.720 1555.367, 1038.056 1554.950, 1038.047 1555.500 M 1177.564 1565.707 C 1177.022 1567.132, 1177.136 1567.247, 1178.124 1566.267 C 1178.808 1565.588, 1179.115 1564.781, 1178.807 1564.474 C 1178.499 1564.166, 1177.940 1564.721, 1177.564 1565.707 M 1179.543 1568.931 C 1179.226 1569.443, 1179.425 1570.144, 1179.984 1570.490 C 1180.543 1570.835, 1181 1570.416, 1181 1569.559 C 1181 1567.802, 1180.400 1567.544, 1179.543 1568.931 M 1184 1571.941 C 1184 1572.459, 1184.445 1573.157, 1184.989 1573.493 C 1185.555 1573.843, 1185.723 1573.442, 1185.382 1572.552 C 1184.717 1570.820, 1184 1570.503, 1184 1571.941 M 1061.564 1602.293 C 1061.940 1603.279, 1062.499 1603.834, 1062.807 1603.526 C 1063.115 1603.219, 1062.808 1602.412, 1062.124 1601.733 C 1061.136 1600.753, 1061.022 1600.868, 1061.564 1602.293 M 882 1613.059 C 882 1613.641, 882.450 1613.840, 883 1613.500 C 883.550 1613.160, 884 1612.684, 884 1612.441 C 884 1612.198, 883.550 1612, 883 1612 C 882.450 1612, 882 1612.477, 882 1613.059 M 81.015 1670.250 C 81.026 1672.460, 81.307 1673.064, 81.893 1672.139 C 82.679 1670.898, 82.293 1667, 81.383 1667 C 81.173 1667, 81.007 1668.463, 81.015 1670.250 M 1037 1672.941 C 1037 1673.459, 1037.445 1674.157, 1037.989 1674.493 C 1038.555 1674.843, 1038.723 1674.442, 1038.382 1673.552 C 1037.717 1671.820, 1037 1671.503, 1037 1672.941 M 937 1679.882 C 937 1680.432, 937.450 1681.160, 938 1681.500 C 938.550 1681.840, 939 1681.668, 939 1681.118 C 939 1680.568, 938.550 1679.840, 938 1679.500 C 937.450 1679.160, 937 1679.332, 937 1679.882 M 86 1685.441 C 86 1686.298, 86.450 1687, 87 1687 C 87.550 1687, 88 1686.577, 88 1686.059 C 88 1685.541, 87.550 1684.840, 87 1684.500 C 86.450 1684.160, 86 1684.584, 86 1685.441 M 145.333 1697.500 C 145.333 1698.325, 145.708 1699, 146.167 1699 C 146.625 1699, 147 1698.325, 147 1697.500 C 147 1696.675, 146.625 1696, 146.167 1696 C 145.708 1696, 145.333 1696.675, 145.333 1697.500 M 989 1697.601 C 989 1698.897, 995.810 1705.523, 996.467 1704.867 C 996.740 1704.594, 995.172 1702.620, 992.982 1700.482 C 990.792 1698.344, 989 1697.047, 989 1697.601 M 239.750 1703.662 C 240.438 1703.940, 241.563 1703.940, 242.250 1703.662 C 242.938 1703.385, 242.375 1703.158, 241 1703.158 C 239.625 1703.158, 239.063 1703.385, 239.750 1703.662" stroke="none" fill="black" fill-rule="evenodd"/>
</svg>