<svg xmlns="http://www.w3.org/2000/svg" width="1240" height="1753" viewBox="0 0 1240 1753" version="1.1">
	<path d="M 437.250 80.723 C 435.462 80.945, 434 81.596, 434 82.170 C 434 82.744, 433.321 82.953, 432.491 82.635 C 431.662 82.317, 429.749 82.564, 428.241 83.184 C 426.734 83.805, 424.649 84.203, 423.610 84.070 C 422.199 83.888, 421.886 84.259, 422.374 85.533 C 422.926 86.970, 422.593 87.134, 420.264 86.577 C 413.931 85.060, 409.169 84.209, 403.604 83.597 L 397.708 82.948 398.377 131.224 C 400.460 281.629, 400.968 338.908, 400.052 320 C 399.666 312.025, 399.232 289.075, 399.088 269 C 398.944 248.925, 398.695 230.250, 398.536 227.500 C 398.377 224.750, 397.919 191.225, 397.520 153 C 397.121 114.775, 396.686 83.383, 396.554 83.240 C 396.247 82.908, 384.293 82.952, 381 83.297 C 379.625 83.441, 377.938 83.910, 377.250 84.339 C 376.563 84.767, 376 84.873, 376 84.573 C 376 83.873, 364.807 87.964, 363.550 89.123 C 363.028 89.606, 361.790 90, 360.800 90 C 359.810 90, 359 90.398, 359 90.883 C 359 92.431, 353.889 92.874, 353.314 91.376 C 352.711 89.805, 349 89.481, 349 91 C 349 91.550, 347.988 92.007, 346.750 92.015 C 343.775 92.036, 341.573 93.500, 342.431 94.888 C 343.421 96.490, 341.461 96.260, 340.094 94.613 C 339.460 93.849, 335.928 92.908, 332.222 92.515 C 328.525 92.124, 324.929 91.336, 324.232 90.764 C 323.534 90.192, 321.059 89.297, 318.732 88.774 C 313.029 87.493, 296.841 86.898, 295.542 87.922 C 294.479 88.760, 291.242 88.575, 290.289 87.623 C 289.999 87.333, 289.126 87.731, 288.349 88.508 C 287.572 89.286, 285.263 90.229, 283.218 90.606 C 281.173 90.982, 278.410 92.137, 277.079 93.174 C 275.419 94.464, 274.334 94.734, 273.629 94.029 C 273.063 93.463, 271.592 93, 270.359 93 C 269.126 93, 267.813 92.507, 267.441 91.904 C 267.040 91.255, 265.485 91.061, 263.632 91.427 C 261.909 91.768, 258.832 92.019, 256.793 91.986 C 252.332 91.912, 241.557 95.300, 239.403 97.454 C 238.553 98.304, 237.102 99.037, 236.179 99.083 C 235.255 99.129, 233.600 99.322, 232.500 99.512 C 231.400 99.702, 228.722 100.130, 226.549 100.463 C 224.376 100.796, 222.441 101.226, 222.249 101.418 C 222.057 101.610, 220.292 101.404, 218.327 100.961 C 216.191 100.479, 213.849 100.567, 212.503 101.180 C 210.909 101.907, 209.609 101.861, 208.043 101.023 C 206.275 100.077, 205.501 100.132, 204.167 101.298 C 203.250 102.100, 201.037 102.958, 199.250 103.205 C 196.606 103.570, 196 103.313, 196 101.827 C 196 100.822, 195.550 100, 195 100 C 194.450 100, 194 100.900, 194 102 C 194 103.100, 193.550 104, 193 104 C 192.450 104, 192 103.310, 192 102.468 C 192 100.918, 188.133 98.862, 186.750 99.676 C 186.338 99.919, 186 100.991, 186 102.059 C 186 103.127, 185.550 104, 185 104 C 184.450 104, 184 102.618, 184 100.929 C 184 97.644, 180.997 93.508, 180.247 95.759 C 180.019 96.442, 179.156 97, 178.329 97 C 177.141 97, 176.959 97.799, 177.465 100.795 C 178.249 105.434, 176.721 109.855, 174.297 109.962 C 156.377 110.757, 156.588 110.679, 154.413 117.298 C 152.938 121.789, 152.643 128.510, 152.256 166.500 C 151.824 208.991, 152.618 233.890, 155.159 257.500 C 155.777 263.246, 156.364 295.574, 156.538 333.500 C 156.808 392.265, 157.275 408.165, 159.737 442.500 C 160.621 454.831, 160.530 462.585, 159.430 468.500 C 158.913 471.279, 158.833 477.719, 159.251 483 C 160.144 494.302, 160.088 550.182, 159.159 575.284 C 158.796 585.065, 158.746 594.065, 159.047 595.284 C 159.348 596.503, 159.274 603.125, 158.883 610 C 158.491 616.875, 158.059 629.025, 157.922 637 C 157.785 644.975, 157.182 658.088, 156.581 666.140 C 155.381 682.225, 155.381 723.049, 156.581 755 C 157.705 784.955, 157.269 950.352, 156.031 963.500 C 154.453 980.252, 153.852 1027.475, 154.982 1046 C 155.535 1055.075, 156.431 1069.475, 156.972 1078 C 157.514 1086.525, 158.208 1100.250, 158.515 1108.500 C 159.059 1123.151, 159.676 1132.529, 161.905 1160 C 162.507 1167.425, 163.424 1183.773, 163.943 1196.328 C 164.461 1208.884, 165.300 1219.684, 165.806 1220.328 C 166.313 1220.973, 166.783 1222.175, 166.850 1223 C 166.917 1223.825, 167.390 1229, 167.901 1234.500 C 168.829 1244.493, 169.497 1323.573, 169.299 1400 C 169.203 1436.795, 168.006 1469.564, 166.677 1471.713 C 166.392 1472.174, 165.647 1480.475, 165.022 1490.160 C 164.397 1499.844, 163.279 1513.281, 162.537 1520.020 C 160.790 1535.909, 160.207 1561.260, 160.859 1593 C 160.955 1597.675, 161.691 1605.550, 162.495 1610.500 C 163.299 1615.450, 164.422 1626.925, 164.992 1636 C 166.722 1663.567, 167.269 1665.278, 176.186 1671.042 C 179.554 1673.219, 183.119 1675, 184.108 1675 C 186.377 1675, 191.050 1677.045, 192.955 1678.872 C 193.969 1679.845, 194.526 1679.922, 194.791 1679.128 C 195 1678.501, 195.684 1678.305, 196.312 1678.693 C 196.940 1679.081, 199.187 1679.560, 201.305 1679.757 C 204.557 1680.060, 205.244 1679.783, 205.716 1677.977 C 206.118 1676.441, 206.830 1675.984, 208.245 1676.354 C 209.328 1676.637, 211.404 1676.376, 212.857 1675.773 C 214.311 1675.170, 215.888 1674.767, 216.362 1674.876 C 216.837 1674.985, 217.784 1674.310, 218.468 1673.375 C 219.982 1671.305, 222.975 1672.189, 223.689 1674.917 C 224.172 1676.767, 224.259 1676.762, 226.560 1674.761 C 227.864 1673.627, 228.705 1672.332, 228.429 1671.885 C 228.152 1671.437, 229.405 1671.674, 231.213 1672.410 C 236.401 1674.524, 259.985 1673.485, 260.006 1671.142 C 260.009 1670.789, 262.818 1670.397, 266.249 1670.270 C 269.680 1670.144, 272.639 1669.582, 272.826 1669.022 C 273.038 1668.385, 273.864 1668.492, 275.028 1669.307 C 276.855 1670.587, 284.381 1670.425, 283.576 1669.123 C 282.935 1668.087, 291.354 1669.107, 292.750 1670.235 C 293.438 1670.790, 294 1670.836, 294 1670.335 C 294 1669.356, 298.931 1668.587, 303 1668.930 C 304.375 1669.046, 307.188 1669.213, 309.250 1669.301 C 311.313 1669.389, 313 1669.808, 313 1670.231 C 313 1670.654, 314.098 1671, 315.441 1671 C 316.784 1671, 318.160 1671.450, 318.500 1672 C 319.424 1673.495, 322.113 1673.208, 324.108 1671.402 C 325.181 1670.431, 326.389 1670.125, 327.187 1670.623 C 329.667 1672.170, 332.261 1672.025, 333.598 1670.264 C 334.886 1668.567, 335.185 1668.841, 335.407 1671.918 C 335.563 1674.100, 337.911 1674.392, 338.751 1672.334 C 339.540 1670.401, 346 1669.357, 346 1671.162 C 346 1671.688, 346.470 1671.828, 347.044 1671.473 C 348.518 1670.562, 351 1672.878, 351 1675.166 C 351 1676.890, 351.532 1677.027, 356.172 1676.497 C 359.017 1676.171, 361.662 1675.709, 362.051 1675.468 C 362.440 1675.228, 363.928 1676.201, 365.358 1677.631 C 366.788 1679.060, 368.605 1679.982, 369.396 1679.678 C 370.187 1679.375, 371.094 1679.801, 371.410 1680.627 C 371.727 1681.452, 372.439 1681.847, 372.993 1681.504 C 373.547 1681.162, 374 1681.268, 374 1681.740 C 374 1683.058, 381.087 1685.321, 384.781 1685.182 C 389.266 1685.013, 394.444 1682.407, 395.974 1679.549 C 397.365 1676.949, 401.881 1675.527, 402.622 1677.456 C 403.098 1678.697, 401.858 1684.938, 400.428 1688.500 C 399.710 1690.289, 399.806 1690.353, 401.336 1689.109 C 402.818 1687.903, 402.967 1687.922, 402.456 1689.255 C 401.769 1691.044, 405.180 1693.806, 407.776 1693.563 C 410.354 1693.322, 415.986 1689.681, 415.994 1688.250 C 415.997 1687.563, 416.420 1687, 416.933 1687 C 417.446 1687, 418.159 1686.074, 418.518 1684.943 C 419.147 1682.963, 422.341 1681.105, 426.466 1680.320 C 427.548 1680.115, 429.444 1679.284, 430.681 1678.473 C 431.918 1677.663, 433.539 1677, 434.284 1677 C 435.927 1677, 440.092 1672.438, 441.588 1669 L 442.676 1666.500 443.165 1669.750 C 443.496 1671.955, 443.249 1673, 442.394 1673 C 440.797 1673, 439.616 1676.578, 440.664 1678.241 C 441.196 1679.085, 441.676 1678.511, 442.120 1676.500 C 442.745 1673.671, 442.824 1673.628, 443.507 1675.744 L 444.230 1677.988 446.598 1675.744 C 447.900 1674.510, 448.973 1673.166, 448.983 1672.758 C 448.999 1672.059, 451.884 1668.406, 454.814 1665.375 C 455.536 1664.627, 455.879 1663.613, 455.575 1663.121 C 454.744 1661.777, 457.521 1659.879, 459.312 1660.566 C 460.235 1660.920, 461.609 1660.312, 462.661 1659.083 C 463.642 1657.938, 465.357 1656.992, 466.472 1656.983 C 467.588 1656.973, 469.560 1655.848, 470.855 1654.483 C 472.150 1653.117, 473.661 1652, 474.212 1652 C 474.763 1652, 474.955 1651.325, 474.638 1650.500 C 474.322 1649.675, 474.478 1649, 474.986 1649 C 475.494 1649, 476.213 1647.313, 476.585 1645.250 C 476.957 1643.188, 477.603 1641.050, 478.021 1640.500 C 478.438 1639.950, 478.769 1637.925, 478.756 1636 C 478.742 1634.075, 479.069 1631.702, 479.482 1630.726 C 480.700 1627.846, 480.378 1613.619, 478.712 1596.726 C 477.857 1588.051, 477.404 1579.276, 477.707 1577.226 C 478.174 1574.069, 478.153 1536.381, 477.677 1522 C 477.468 1515.681, 478.940 1480.127, 479.516 1477.593 C 480.938 1471.340, 481.222 1463.738, 481.522 1424 C 481.702 1400.075, 482.125 1371.163, 482.462 1359.750 C 482.878 1345.689, 482.741 1339, 482.038 1339 C 481.467 1339, 481 1340.505, 481 1342.345 C 481 1345.596, 477.737 1350.071, 476.367 1348.700 C 475.636 1347.970, 475.799 1334.649, 476.576 1331.553 C 476.870 1330.381, 476.568 1328.089, 475.905 1326.461 C 474.640 1323.356, 474.364 1316.558, 475.399 1314 C 475.733 1313.175, 476.117 1308.900, 476.253 1304.500 C 476.437 1298.531, 476.183 1296.563, 475.250 1296.750 C 474.358 1296.928, 474 1295.227, 474 1290.800 C 474 1284.911, 475.129 1283.784, 476.305 1288.500 C 476.579 1289.600, 476.650 1287.640, 476.463 1284.145 C 476.276 1280.649, 475.870 1277.537, 475.561 1277.228 C 475.253 1276.919, 475 1277.192, 475 1277.833 C 475 1278.475, 474.550 1279, 474 1279 C 473.450 1279, 473 1276.750, 473 1274 C 473 1271.088, 472.549 1269, 471.921 1269 C 471.241 1269, 471.085 1267.887, 471.500 1266 C 471.869 1264.319, 471.744 1263, 471.214 1263 C 470.694 1263, 470.366 1265.925, 470.483 1269.500 C 470.653 1274.651, 470.392 1276, 469.226 1276 C 468.119 1276, 468.027 1275.673, 468.854 1274.676 C 469.497 1273.901, 469.584 1272.969, 469.064 1272.426 C 468.575 1271.917, 467.868 1268.559, 467.494 1264.964 C 466.861 1258.888, 466.952 1258.429, 468.793 1258.429 C 469.908 1258.429, 470.574 1258.946, 470.318 1259.613 C 470.068 1260.265, 470.344 1261.095, 470.932 1261.458 C 472.443 1262.392, 472.202 1258.137, 470.536 1254.500 C 469.179 1251.537, 469.160 1251.531, 468.995 1254 C 468.833 1256.422, 468.801 1256.409, 467.955 1253.581 C 466.864 1249.931, 466.780 1227, 467.858 1227 C 468.294 1227, 468.686 1229.588, 468.729 1232.750 C 468.773 1235.912, 468.851 1241.387, 468.904 1244.917 C 469.091 1257.441, 470.319 1249.774, 470.628 1234.151 C 470.801 1225.424, 471.388 1217.111, 471.933 1215.677 C 472.565 1214.015, 472.575 1212.855, 471.962 1212.476 C 471.433 1212.149, 471.007 1210.896, 471.015 1209.691 C 471.027 1208.087, 471.260 1207.862, 471.887 1208.852 C 472.882 1210.421, 474.427 1200.301, 473.551 1197.953 C 473.253 1197.154, 473.419 1195.150, 473.919 1193.500 C 474.794 1190.611, 474.836 1190.667, 475.032 1195 C 475.218 1199.093, 475.301 1199.229, 475.943 1196.500 C 476.922 1192.344, 475.945 1177.653, 474.633 1176.805 C 473.876 1176.315, 473.924 1175.100, 474.794 1172.692 C 475.881 1169.687, 476.417 1162.382, 475.872 1158 C 475.470 1154.772, 476.040 1151.514, 476.797 1152.706 C 477.945 1154.511, 478.423 1124.871, 477.371 1117.200 C 476.936 1114.031, 477.200 1112.436, 478.377 1111.136 C 479.638 1109.742, 479.715 1109.115, 478.745 1108.145 C 477.884 1107.284, 477.840 1106.705, 478.597 1106.208 C 479.218 1105.802, 479.610 1102.732, 479.518 1099 C 479.430 1095.425, 479.605 1092.050, 479.907 1091.500 C 480.637 1090.170, 480.759 1085.445, 480.906 1053 C 481.013 1029.265, 480.371 1014.523, 478.596 1000 C 478.360 998.075, 477.905 993.575, 477.583 990 C 477.261 986.425, 476.534 978.775, 475.967 973 C 471.037 922.758, 469.570 895.604, 468.539 835.500 C 467.972 802.406, 467.264 764.194, 466.826 743 C 466.752 739.425, 467.003 731.325, 467.382 725 C 467.762 718.675, 468.287 705.850, 468.548 696.500 C 468.809 687.150, 469.498 671.850, 470.078 662.500 C 472.402 625.066, 472.743 592.715, 471.362 540.500 C 470.455 506.172, 470.451 500.637, 471.296 445 C 472.616 358.058, 473.213 328.507, 473.668 327.750 C 473.915 327.337, 473.586 327, 472.937 327 C 472.131 327, 472.070 326.602, 472.742 325.750 C 473.637 324.617, 474.556 302.107, 475.601 255.697 C 475.829 245.611, 475.612 239.122, 475.059 239.464 C 474.553 239.777, 473.856 239.575, 473.510 239.016 C 473.165 238.457, 473.613 238, 474.507 238 C 475.952 238, 476.067 236.591, 475.549 225.250 C 475.229 218.237, 474.759 201.300, 474.505 187.611 C 474.091 165.272, 473.837 162.296, 472.029 158.560 C 470.921 156.270, 469.631 152.346, 469.162 149.839 C 468.694 147.333, 467.566 144.218, 466.655 142.918 C 465.745 141.619, 465 139.504, 465 138.218 C 465 136.915, 464.558 136.155, 464 136.500 C 463.450 136.840, 463 136.402, 463 135.528 C 463 134.653, 463.675 133.678, 464.500 133.362 C 466.676 132.527, 466.347 131.479, 463.500 130.182 C 461.995 129.496, 461 128.212, 461 126.955 C 461 125.806, 459.875 123.392, 458.500 121.589 C 457.125 119.786, 456 117.515, 456 116.542 C 456 114.849, 453.212 102.229, 450.851 93.234 C 449.295 87.305, 444.475 79.961, 442.272 80.160 C 441.297 80.248, 439.038 80.502, 437.250 80.723 M 387.079 156.583 C 387.127 157.748, 387.364 157.985, 387.683 157.188 C 387.972 156.466, 387.936 155.603, 387.604 155.271 C 387.272 154.939, 387.036 155.529, 387.079 156.583 M 424.882 206.691 C 424.816 207.136, 424.864 207.950, 424.987 208.500 C 425.110 209.050, 425.176 211.525, 425.134 214 C 425.092 216.475, 425.488 219.175, 426.014 220 C 426.672 221.034, 426.974 219.265, 426.985 214.309 C 426.993 210.354, 426.550 206.840, 426 206.500 C 425.450 206.160, 424.947 206.246, 424.882 206.691 M 325.030 216.450 C 325.008 218.601, 325.299 219.101, 326.104 218.296 C 326.895 217.505, 326.903 216.670, 326.134 215.346 C 325.193 213.728, 325.057 213.864, 325.030 216.450 M 325.209 225.511 C 325.401 232.800, 327 233.788, 327 226.618 C 327 223.593, 326.564 220.849, 326.031 220.519 C 325.444 220.156, 325.120 222.122, 325.209 225.511 M 325.732 239.730 C 325.136 246.904, 325.718 252.293, 327.001 251.499 C 327.790 251.012, 327.546 234.212, 326.738 233.405 C 326.494 233.160, 326.041 236.007, 325.732 239.730 M 326.948 255.500 C 326.515 258.289, 328.459 276.707, 328.954 274.500 C 329.307 272.922, 328.899 265.057, 328.124 258.500 C 327.579 253.891, 327.306 253.196, 326.948 255.500 M 212.079 269.583 C 212.127 270.748, 212.364 270.985, 212.683 270.188 C 212.972 269.466, 212.936 268.603, 212.604 268.271 C 212.272 267.939, 212.036 268.529, 212.079 269.583 M 328.486 284.750 C 328.629 289.563, 328.803 296.313, 328.873 299.750 C 328.950 303.556, 329.431 306, 330.101 306 C 330.844 306, 331.023 303.966, 330.652 299.750 C 330.349 296.313, 330.078 289.563, 330.051 284.750 C 330.023 279.938, 329.601 276, 329.113 276 C 328.626 276, 328.343 279.938, 328.486 284.750 M 330 319.833 C 330 326.401, 330.380 330, 331.072 330 C 332.220 330, 331.803 311.470, 330.629 310.296 C 330.283 309.950, 330 314.242, 330 319.833 M 215.079 314.583 C 215.127 315.748, 215.364 315.985, 215.683 315.188 C 215.972 314.466, 215.936 313.603, 215.604 313.271 C 215.272 312.939, 215.036 313.529, 215.079 314.583 M 283.992 323.295 L 284.485 332.500 284.785 324.093 C 284.951 319.469, 284.729 315.327, 284.293 314.888 C 283.857 314.450, 283.722 318.233, 283.992 323.295 M 215.232 321 C 215.232 322.925, 215.438 323.712, 215.689 322.750 C 215.941 321.788, 215.941 320.212, 215.689 319.250 C 215.438 318.288, 215.232 319.075, 215.232 321 M 216.195 330.500 C 216.215 332.150, 216.439 332.704, 216.693 331.731 C 216.947 330.758, 216.930 329.408, 216.656 328.731 C 216.382 328.054, 216.175 328.850, 216.195 330.500 M 284.587 335.859 C 284.295 336.332, 284.444 338.694, 284.919 341.109 L 285.781 345.500 285.890 340.250 C 285.997 335.148, 285.682 334.087, 284.587 335.859 M 303.252 345.500 C 303.263 347.700, 303.468 348.482, 303.707 347.238 C 303.946 345.994, 303.937 344.194, 303.687 343.238 C 303.437 342.282, 303.241 343.300, 303.252 345.500 M 331.158 344 C 331.158 345.375, 331.385 345.938, 331.662 345.250 C 331.940 344.563, 331.940 343.438, 331.662 342.750 C 331.385 342.063, 331.158 342.625, 331.158 344 M 217 351.833 C 217 354.125, 217.422 356, 217.937 356 C 218.456 356, 218.616 354.327, 218.296 352.250 C 217.494 347.057, 217 346.898, 217 351.833 M 311.079 355.583 C 311.127 356.748, 311.364 356.985, 311.683 356.188 C 311.972 355.466, 311.936 354.603, 311.604 354.271 C 311.272 353.939, 311.036 354.529, 311.079 355.583 M 332 360.774 C 332 364.134, 332.467 367.171, 333.037 367.523 C 333.738 367.956, 333.861 366.106, 333.418 361.832 C 332.561 353.569, 332 353.151, 332 360.774 M 304.079 360.583 C 304.127 361.748, 304.364 361.985, 304.683 361.188 C 304.972 360.466, 304.936 359.603, 304.604 359.271 C 304.272 358.939, 304.036 359.529, 304.079 360.583 M 277.015 364.250 C 277.024 364.938, 277.467 366.175, 278 367 C 278.755 368.169, 278.973 367.893, 278.985 365.750 C 278.993 364.238, 278.550 363, 278 363 C 277.450 363, 277.007 363.563, 277.015 364.250 M 219 366.559 C 219 367.966, 219.408 368.866, 219.906 368.558 C 220.404 368.250, 220.577 367.098, 220.289 365.999 C 219.570 363.247, 219 363.495, 219 366.559 M 312.232 367 C 312.232 368.925, 312.438 369.712, 312.689 368.750 C 312.941 367.788, 312.941 366.212, 312.689 365.250 C 312.438 364.288, 312.232 365.075, 312.232 367 M 287 371.882 C 287 372.432, 287.450 373.160, 288 373.500 C 288.550 373.840, 289 373.668, 289 373.118 C 289 372.568, 288.550 371.840, 288 371.500 C 287.450 371.160, 287 371.332, 287 371.882 M 288 377.441 C 288 378.784, 288.450 380.160, 289 380.500 C 289.583 380.861, 290 379.844, 290 378.059 C 290 376.377, 289.550 375, 289 375 C 288.450 375, 288 376.098, 288 377.441 M 313.275 382 C 313.358 383.100, 313.780 384, 314.213 384 C 314.646 384, 315 383.100, 315 382 C 315 380.900, 314.578 380, 314.062 380 C 313.546 380, 313.192 380.900, 313.275 382 M 308.340 398 C 308.677 401.575, 309.434 411.700, 310.021 420.500 C 311.253 438.956, 311.726 442.148, 311.872 433 C 311.998 425.117, 309.223 392.868, 308.350 392.070 C 308.007 391.757, 308.002 394.425, 308.340 398 M 362.272 410 C 362.272 412.475, 362.467 413.488, 362.706 412.250 C 362.944 411.012, 362.944 408.988, 362.706 407.750 C 362.467 406.512, 362.272 407.525, 362.272 410 M 292.079 411.583 C 292.127 412.748, 292.364 412.985, 292.683 412.188 C 292.972 411.466, 292.936 410.603, 292.604 410.271 C 292.272 409.939, 292.036 410.529, 292.079 411.583 M 220.158 416 C 220.158 417.375, 220.385 417.938, 220.662 417.250 C 220.940 416.563, 220.940 415.438, 220.662 414.750 C 220.385 414.063, 220.158 414.625, 220.158 416 M 431 424.024 C 431 431.482, 431.153 432.173, 432.417 430.444 C 433.197 429.378, 433.473 428.054, 433.032 427.503 C 432.590 426.951, 432.193 424.303, 432.148 421.617 C 432.104 418.932, 431.827 416.494, 431.534 416.200 C 431.240 415.907, 431 419.428, 431 424.024 M 452 446.059 C 452 446.641, 452.450 446.840, 453 446.500 C 453.550 446.160, 454 445.684, 454 445.441 C 454 445.198, 453.550 445, 453 445 C 452.450 445, 452 445.477, 452 446.059 M 363 450 C 363 450.550, 363.450 451, 364 451 C 364.550 451, 365 450.550, 365 450 C 365 449.450, 364.550 449, 364 449 C 363.450 449, 363 449.450, 363 450 M 440.364 458.953 C 440.721 468.266, 442 469.260, 442 460.226 C 442 456.316, 441.571 452.853, 441.047 452.529 C 440.469 452.172, 440.200 454.697, 440.364 458.953 M 452.079 454.583 C 452.127 455.748, 452.364 455.985, 452.683 455.188 C 452.972 454.466, 452.936 453.603, 452.604 453.271 C 452.272 452.939, 452.036 453.529, 452.079 454.583 M 309.158 460 C 309.158 461.375, 309.385 461.938, 309.662 461.250 C 309.940 460.563, 309.940 459.438, 309.662 458.750 C 309.385 458.063, 309.158 458.625, 309.158 460 M 249 460.941 C 249 462.009, 249.450 463.160, 250 463.500 C 250.567 463.851, 251 463.010, 251 461.559 C 251 460.152, 250.550 459, 250 459 C 249.450 459, 249 459.873, 249 460.941 M 371.158 477 C 371.158 478.375, 371.385 478.938, 371.662 478.250 C 371.940 477.563, 371.940 476.438, 371.662 475.750 C 371.385 475.063, 371.158 475.625, 371.158 477 M 320.232 483 C 320.232 484.925, 320.438 485.712, 320.689 484.750 C 320.941 483.788, 320.941 482.212, 320.689 481.250 C 320.438 480.288, 320.232 481.075, 320.232 483 M 346 484.559 C 346 485.416, 346.457 485.835, 347.016 485.490 C 347.575 485.144, 347.774 484.443, 347.457 483.931 C 346.600 482.544, 346 482.802, 346 484.559 M 250.252 487.500 C 250.263 489.700, 250.468 490.482, 250.707 489.238 C 250.946 487.994, 250.937 486.194, 250.687 485.238 C 250.437 484.282, 250.241 485.300, 250.252 487.500 M 336.543 490.931 C 336.226 491.443, 336.425 492.144, 336.984 492.490 C 337.543 492.835, 338 492.416, 338 491.559 C 338 489.802, 337.400 489.544, 336.543 490.931 M 309.158 494 C 309.158 495.375, 309.385 495.938, 309.662 495.250 C 309.940 494.563, 309.940 493.438, 309.662 492.750 C 309.385 492.063, 309.158 492.625, 309.158 494 M 354.195 501.500 C 354.215 503.150, 354.439 503.704, 354.693 502.731 C 354.947 501.758, 354.930 500.408, 354.656 499.731 C 354.382 499.054, 354.175 499.850, 354.195 501.500 M 250.252 503.500 C 250.263 505.700, 250.468 506.482, 250.707 505.238 C 250.946 503.994, 250.937 502.194, 250.687 501.238 C 250.437 500.282, 250.241 501.300, 250.252 503.500 M 346.158 509 C 346.158 510.375, 346.385 510.938, 346.662 510.250 C 346.940 509.563, 346.940 508.438, 346.662 507.750 C 346.385 507.063, 346.158 507.625, 346.158 509 M 393.195 511.500 C 393.215 513.150, 393.439 513.704, 393.693 512.731 C 393.947 511.758, 393.930 510.408, 393.656 509.731 C 393.382 509.054, 393.175 509.850, 393.195 511.500 M 354.158 512 C 354.158 513.375, 354.385 513.938, 354.662 513.250 C 354.940 512.563, 354.940 511.438, 354.662 510.750 C 354.385 510.063, 354.158 510.625, 354.158 512 M 364.158 516 C 364.158 517.375, 364.385 517.938, 364.662 517.250 C 364.940 516.563, 364.940 515.438, 364.662 514.750 C 364.385 514.063, 364.158 514.625, 364.158 516 M 371.079 517.583 C 371.127 518.748, 371.364 518.985, 371.683 518.188 C 371.972 517.466, 371.936 516.603, 371.604 516.271 C 371.272 515.939, 371.036 516.529, 371.079 517.583 M 364.070 530.250 C 364.032 531.763, 364.450 533, 365 533 C 366.174 533, 366.174 532.231, 365 529.500 C 364.238 527.728, 364.133 527.813, 364.070 530.250 M 310 531 C 310 532.100, 310.408 533, 310.906 533 C 311.405 533, 311.577 532.100, 311.290 531 C 311.002 529.900, 310.594 529, 310.383 529 C 310.173 529, 310 529.900, 310 531 M 453 539 C 453 540.650, 453.372 542, 453.827 542 C 454.282 542, 454.455 540.650, 454.213 539 C 453.971 537.350, 453.599 536, 453.387 536 C 453.174 536, 453 537.350, 453 539 M 261.252 550.500 C 261.263 552.700, 261.468 553.482, 261.707 552.238 C 261.946 550.994, 261.937 549.194, 261.687 548.238 C 261.437 547.282, 261.241 548.300, 261.252 550.500 M 453.272 551 C 453.272 553.475, 453.467 554.487, 453.706 553.250 C 453.944 552.013, 453.944 549.987, 453.706 548.750 C 453.467 547.513, 453.272 548.525, 453.272 551 M 338.079 555.583 C 338.127 556.748, 338.364 556.985, 338.683 556.188 C 338.972 555.466, 338.936 554.603, 338.604 554.271 C 338.272 553.939, 338.036 554.529, 338.079 555.583 M 453.099 589.798 C 453.193 608.609, 453.651 624, 454.118 624 C 455.152 624, 454.710 557.376, 453.668 556.335 C 453.262 555.928, 453.005 570.986, 453.099 589.798 M 322.079 568.583 C 322.127 569.748, 322.364 569.985, 322.683 569.188 C 322.972 568.466, 322.936 567.603, 322.604 567.271 C 322.272 566.939, 322.036 567.529, 322.079 568.583 M 311.232 577 C 311.232 578.925, 311.438 579.712, 311.689 578.750 C 311.941 577.788, 311.941 576.212, 311.689 575.250 C 311.438 574.288, 311.232 575.075, 311.232 577 M 395.158 578 C 395.158 579.375, 395.385 579.938, 395.662 579.250 C 395.940 578.563, 395.940 577.438, 395.662 576.750 C 395.385 576.063, 395.158 576.625, 395.158 578 M 382.158 580 C 382.158 581.375, 382.385 581.938, 382.662 581.250 C 382.940 580.563, 382.940 579.438, 382.662 578.750 C 382.385 578.063, 382.158 578.625, 382.158 580 M 395.195 585.500 C 395.215 587.150, 395.439 587.704, 395.693 586.731 C 395.947 585.758, 395.930 584.408, 395.656 583.731 C 395.382 583.054, 395.175 583.850, 395.195 585.500 M 324.651 610.468 C 324.341 611.275, 324.518 612.202, 325.044 612.527 C 325.570 612.852, 326 612.191, 326 611.059 C 326 608.644, 325.444 608.401, 324.651 610.468 M 366.917 612.750 C 366.871 613.163, 366.720 614.532, 366.581 615.792 C 366.442 617.053, 366.704 618.317, 367.164 618.601 C 367.624 618.886, 368 617.516, 368 615.559 C 368 613.602, 367.775 612, 367.500 612 C 367.225 612, 366.962 612.337, 366.917 612.750 M 244 615 C 244 615.550, 244.450 616, 245 616 C 245.550 616, 246 615.550, 246 615 C 246 614.450, 245.550 614, 245 614 C 244.450 614, 244 614.450, 244 615 M 324.583 614.866 C 324.152 615.563, 324.070 616.403, 324.400 616.733 C 325.295 617.628, 326.271 616.312, 325.787 614.862 C 325.449 613.846, 325.213 613.846, 324.583 614.866 M 366.297 624.498 C 366.243 626.422, 366.604 627.745, 367.099 627.439 C 368.214 626.750, 368.303 621, 367.198 621 C 366.757 621, 366.352 622.574, 366.297 624.498 M 324.320 632 C 324.320 635.575, 324.502 637.038, 324.723 635.250 C 324.945 633.462, 324.945 630.538, 324.723 628.750 C 324.502 626.962, 324.320 628.425, 324.320 632 M 256.079 628.583 C 256.127 629.748, 256.364 629.985, 256.683 629.188 C 256.972 628.466, 256.936 627.603, 256.604 627.271 C 256.272 626.939, 256.036 627.529, 256.079 628.583 M 285.015 630.250 C 285.028 632.069, 285.216 632.213, 286 631 C 287.253 629.061, 287.253 628, 286 628 C 285.450 628, 285.007 629.013, 285.015 630.250 M 452.982 630.583 C 452.971 631.087, 452.750 635.749, 452.489 640.942 C 452.172 647.270, 452.347 650.053, 453.020 649.380 C 454.116 648.284, 454.659 631.326, 453.632 630.298 C 453.284 629.951, 452.992 630.079, 452.982 630.583 M 320.079 638.583 C 320.127 639.748, 320.364 639.985, 320.683 639.188 C 320.972 638.466, 320.936 637.603, 320.604 637.271 C 320.272 636.939, 320.036 637.529, 320.079 638.583 M 392 645.441 C 392 648.434, 392.453 651.162, 393.007 651.505 C 393.651 651.903, 393.922 649.943, 393.757 646.072 C 393.437 638.541, 392 638.025, 392 645.441 M 323.195 649.500 C 323.215 651.150, 323.439 651.704, 323.693 650.731 C 323.947 649.758, 323.930 648.408, 323.656 647.731 C 323.382 647.054, 323.175 647.850, 323.195 649.500 M 254.079 652.583 C 254.127 653.748, 254.364 653.985, 254.683 653.188 C 254.972 652.466, 254.936 651.603, 254.604 651.271 C 254.272 650.939, 254.036 651.529, 254.079 652.583 M 259.310 656.500 C 259.315 659.800, 259.502 661.029, 259.725 659.232 C 259.947 657.435, 259.943 654.735, 259.715 653.232 C 259.486 651.729, 259.304 653.200, 259.310 656.500 M 333.252 654.500 C 333.263 656.700, 333.468 657.482, 333.707 656.238 C 333.946 654.994, 333.937 653.194, 333.687 652.238 C 333.437 651.282, 333.241 652.300, 333.252 654.500 M 452 654 C 452 655.100, 452.450 656, 453 656 C 453.550 656, 454 655.100, 454 654 C 454 652.900, 453.550 652, 453 652 C 452.450 652, 452 652.900, 452 654 M 322.202 657 C 322.072 658.375, 321.695 664.900, 321.363 671.500 C 320.910 680.524, 321.045 683.232, 321.910 682.420 C 322.698 681.680, 322.962 677.112, 322.749 667.920 C 322.577 660.539, 322.331 655.625, 322.202 657 M 452 658 C 452 658.550, 452.477 659, 453.059 659 C 453.641 659, 453.840 658.550, 453.500 658 C 453.160 657.450, 452.684 657, 452.441 657 C 452.198 657, 452 657.450, 452 658 M 254.079 659.583 C 254.127 660.748, 254.364 660.985, 254.683 660.188 C 254.972 659.466, 254.936 658.603, 254.604 658.271 C 254.272 657.939, 254.036 658.529, 254.079 659.583 M 364.195 664.500 C 364.215 666.150, 364.439 666.704, 364.693 665.731 C 364.947 664.758, 364.930 663.408, 364.656 662.731 C 364.382 662.054, 364.175 662.850, 364.195 664.500 M 381.079 663.583 C 381.127 664.748, 381.364 664.985, 381.683 664.188 C 381.972 663.466, 381.936 662.603, 381.604 662.271 C 381.272 661.939, 381.036 662.529, 381.079 663.583 M 258.232 668 C 258.232 669.925, 258.438 670.712, 258.689 669.750 C 258.941 668.788, 258.941 667.212, 258.689 666.250 C 258.438 665.288, 258.232 666.075, 258.232 668 M 332.272 670 C 332.272 672.475, 332.467 673.487, 332.706 672.250 C 332.944 671.013, 332.944 668.987, 332.706 667.750 C 332.467 666.513, 332.272 667.525, 332.272 670 M 258.286 678.500 C 258.294 681.250, 258.488 682.256, 258.718 680.736 C 258.947 679.216, 258.941 676.966, 258.704 675.736 C 258.467 674.506, 258.279 675.750, 258.286 678.500 M 253.158 677 C 253.158 678.375, 253.385 678.938, 253.662 678.250 C 253.940 677.563, 253.940 676.438, 253.662 675.750 C 253.385 675.063, 253.158 675.625, 253.158 677 M 357.252 679.500 C 357.263 681.700, 357.468 682.482, 357.707 681.238 C 357.946 679.994, 357.937 678.194, 357.687 677.238 C 357.437 676.282, 357.241 677.300, 357.252 679.500 M 320.829 688.342 C 320.604 690.269, 320.713 692.668, 321.071 693.673 C 321.507 694.895, 321.885 694.010, 322.212 691 C 322.481 688.525, 322.372 686.126, 321.969 685.669 C 321.567 685.212, 321.054 686.414, 320.829 688.342 M 252.750 691.571 C 252.338 691.990, 252.045 695.071, 252.100 698.417 C 252.200 704.458, 252.207 704.472, 253.141 700.500 C 254.179 696.085, 253.929 690.373, 252.750 691.571 M 362.739 696.889 C 362.467 697.928, 362.633 699.391, 363.107 700.139 C 363.693 701.064, 363.974 700.460, 363.985 698.250 C 364.002 694.612, 363.483 694.045, 362.739 696.889 M 320 699 C 320 699.550, 320.450 700, 321 700 C 321.550 700, 322 699.550, 322 699 C 322 698.450, 321.550 698, 321 698 C 320.450 698, 320 698.450, 320 699 M 270.158 702 C 270.158 703.375, 270.385 703.938, 270.662 703.250 C 270.940 702.563, 270.940 701.438, 270.662 700.750 C 270.385 700.063, 270.158 700.625, 270.158 702 M 331.195 702.500 C 331.215 704.150, 331.439 704.704, 331.693 703.731 C 331.947 702.758, 331.930 701.408, 331.656 700.731 C 331.382 700.054, 331.175 700.850, 331.195 702.500 M 319.652 714.656 C 318.837 727.981, 318.822 734.512, 319.608 733.725 C 319.943 733.390, 320.399 727.803, 320.622 721.308 C 320.844 714.814, 321.234 708.263, 321.488 706.750 C 321.742 705.237, 321.580 704, 321.127 704 C 320.674 704, 320.011 708.795, 319.652 714.656 M 362 706 C 362 706.550, 362.477 707, 363.059 707 C 363.641 707, 363.840 706.550, 363.500 706 C 363.160 705.450, 362.684 705, 362.441 705 C 362.198 705, 362 705.450, 362 706 M 252.310 711.500 C 252.315 714.800, 252.502 716.029, 252.725 714.232 C 252.947 712.435, 252.943 709.735, 252.715 708.232 C 252.486 706.729, 252.304 708.200, 252.310 711.500 M 407.079 710.583 C 407.127 711.748, 407.364 711.985, 407.683 711.188 C 407.972 710.466, 407.936 709.603, 407.604 709.271 C 407.272 708.939, 407.036 709.529, 407.079 710.583 M 362.232 717 C 362.232 718.925, 362.438 719.712, 362.689 718.750 C 362.941 717.788, 362.941 716.212, 362.689 715.250 C 362.438 714.288, 362.232 715.075, 362.232 717 M 251 738.500 C 251 746.658, 251.273 753.061, 251.606 752.728 C 252.292 752.042, 252.143 724.810, 251.449 724.116 C 251.202 723.869, 251 730.342, 251 738.500 M 319 749.059 C 319 751.580, 319.389 752.878, 320.026 752.484 C 321.205 751.755, 320.997 745, 319.796 745 C 319.358 745, 319 746.827, 319 749.059 M 360.657 758.726 C 360.324 760.776, 360.491 762.891, 361.026 763.426 C 361.658 764.058, 362 762.749, 362 759.700 C 362 754.043, 361.478 753.664, 360.657 758.726 M 360.446 766.087 C 360.077 766.685, 360.275 767.675, 360.887 768.287 C 361.704 769.104, 362 768.815, 362 767.200 C 362 764.785, 361.481 764.413, 360.446 766.087 M 319 770.941 C 319 772.073, 319.450 773, 320 773 C 320.550 773, 321 772.352, 321 771.559 C 321 770.766, 320.550 769.840, 320 769.500 C 319.450 769.160, 319 769.809, 319 770.941 M 361.098 773.500 C 361.131 776.990, 361.268 777.226, 362.175 775.353 C 362.900 773.853, 362.889 772.646, 362.137 771.353 C 361.242 769.811, 361.067 770.172, 361.098 773.500 M 360.782 789.235 C 360.583 790.481, 360.767 792.818, 361.192 794.429 C 361.616 796.041, 361.734 799.269, 361.454 801.603 C 361.166 804.003, 361.391 806.124, 361.972 806.483 C 362.648 806.901, 363 803.868, 363 797.618 C 363 792.393, 362.582 787.860, 362.071 787.544 C 361.561 787.229, 360.980 787.990, 360.782 789.235 M 299.079 789.583 C 299.127 790.748, 299.364 790.985, 299.683 790.188 C 299.972 789.466, 299.936 788.603, 299.604 788.271 C 299.272 787.939, 299.036 788.529, 299.079 789.583 M 282.336 797 C 282.336 801.125, 282.513 802.813, 282.728 800.750 C 282.944 798.688, 282.944 795.313, 282.728 793.250 C 282.513 791.188, 282.336 792.875, 282.336 797 M 252.031 799.500 C 252.031 803.093, 252.303 804.078, 253 803 C 253.533 802.175, 253.969 800.600, 253.969 799.500 C 253.969 798.400, 253.533 796.825, 253 796 C 252.303 794.922, 252.031 795.907, 252.031 799.500 M 320.195 804.500 C 320.215 806.150, 320.439 806.704, 320.693 805.731 C 320.947 804.758, 320.930 803.408, 320.656 802.731 C 320.382 802.054, 320.175 802.850, 320.195 804.500 M 253.195 812.500 C 253.215 814.150, 253.439 814.704, 253.693 813.731 C 253.947 812.758, 253.930 811.408, 253.656 810.731 C 253.382 810.054, 253.175 810.850, 253.195 812.500 M 340 811 C 340 811.550, 340.450 812, 341 812 C 341.550 812, 342 811.550, 342 811 C 342 810.450, 341.550 810, 341 810 C 340.450 810, 340 810.450, 340 811 M 362.079 823.583 C 362.127 824.748, 362.364 824.985, 362.683 824.188 C 362.972 823.466, 362.936 822.603, 362.604 822.271 C 362.272 821.939, 362.036 822.529, 362.079 823.583 M 346.651 824.468 C 346.341 825.275, 346.518 826.202, 347.044 826.527 C 347.570 826.852, 348 826.191, 348 825.059 C 348 822.644, 347.444 822.401, 346.651 824.468 M 321 832 C 321 833.867, 321.267 834.133, 322.200 833.200 C 323.133 832.267, 323.133 831.733, 322.200 830.800 C 321.267 829.867, 321 830.133, 321 832 M 302.310 866.500 C 302.315 869.800, 302.502 871.029, 302.725 869.232 C 302.947 867.435, 302.943 864.735, 302.715 863.232 C 302.486 861.729, 302.304 863.200, 302.310 866.500 M 347 863.500 C 347 864.325, 347.450 865, 348 865 C 348.550 865, 349 864.325, 349 863.500 C 349 862.675, 348.550 862, 348 862 C 347.450 862, 347 862.675, 347 863.500 M 363.769 871.250 C 364.266 882.003, 364.753 882.658, 364.884 872.750 C 364.948 867.938, 364.648 864, 364.217 864 C 363.787 864, 363.585 867.263, 363.769 871.250 M 323.195 871.500 C 323.215 873.150, 323.439 873.704, 323.693 872.731 C 323.947 871.758, 323.930 870.408, 323.656 869.731 C 323.382 869.054, 323.175 869.850, 323.195 871.500 M 243.100 874.191 C 243.045 876.221, 243.450 878.160, 244 878.500 C 245.157 879.215, 245.157 876.612, 244 873 C 243.281 870.754, 243.189 870.876, 243.100 874.191 M 383.158 879 C 383.158 880.375, 383.385 880.938, 383.662 880.250 C 383.940 879.563, 383.940 878.438, 383.662 877.750 C 383.385 877.063, 383.158 877.625, 383.158 879 M 272 885.559 C 272 886.416, 272.457 886.835, 273.016 886.490 C 273.575 886.144, 273.774 885.443, 273.457 884.931 C 272.600 883.544, 272 883.802, 272 885.559 M 286.195 892.500 C 286.215 894.150, 286.439 894.704, 286.693 893.731 C 286.947 892.758, 286.930 891.408, 286.656 890.731 C 286.382 890.054, 286.175 890.850, 286.195 892.500 M 356.310 895.500 C 356.315 898.800, 356.502 900.029, 356.725 898.232 C 356.947 896.435, 356.943 893.735, 356.715 892.232 C 356.486 890.729, 356.304 892.200, 356.310 895.500 M 344.030 893.550 C 344.057 896.136, 344.193 896.272, 345.134 894.654 C 345.903 893.330, 345.895 892.495, 345.104 891.704 C 344.299 890.899, 344.008 891.399, 344.030 893.550 M 244.079 897.583 C 244.127 898.748, 244.364 898.985, 244.683 898.188 C 244.972 897.466, 244.936 896.603, 244.604 896.271 C 244.272 895.939, 244.036 896.529, 244.079 897.583 M 356 905 C 356 905.550, 356.450 906, 357 906 C 357.550 906, 358 905.550, 358 905 C 358 904.450, 357.550 904, 357 904 C 356.450 904, 356 904.450, 356 905 M 297.079 907.583 C 297.127 908.748, 297.364 908.985, 297.683 908.188 C 297.972 907.466, 297.936 906.603, 297.604 906.271 C 297.272 905.939, 297.036 906.529, 297.079 907.583 M 452.015 908.191 C 452.007 909.671, 452.450 911.160, 453 911.500 C 454.277 912.289, 454.277 908.976, 453 907 C 452.242 905.827, 452.027 906.086, 452.015 908.191 M 275 908 C 275 908.550, 275.477 909, 276.059 909 C 276.641 909, 276.840 908.550, 276.500 908 C 276.160 907.450, 275.684 907, 275.441 907 C 275.198 907, 275 907.450, 275 908 M 357.015 912.250 C 357.007 913.763, 357.450 915, 358 915 C 359.264 915, 359.264 912.957, 358 911 C 357.245 909.831, 357.027 910.107, 357.015 912.250 M 297 913 C 297 914.100, 297.408 915, 297.906 915 C 298.405 915, 298.577 914.100, 298.290 913 C 298.002 911.900, 297.594 911, 297.383 911 C 297.173 911, 297 911.900, 297 913 M 346 915 C 346 915.550, 346.477 916, 347.059 916 C 347.641 916, 347.840 915.550, 347.500 915 C 347.160 914.450, 346.684 914, 346.441 914 C 346.198 914, 346 914.450, 346 915 M 346 918.559 C 346 919.416, 346.457 919.835, 347.016 919.490 C 347.575 919.144, 347.774 918.443, 347.457 917.931 C 346.600 916.544, 346 916.802, 346 918.559 M 358.079 919.583 C 358.127 920.748, 358.364 920.985, 358.683 920.188 C 358.972 919.466, 358.936 918.603, 358.604 918.271 C 358.272 917.939, 358.036 918.529, 358.079 919.583 M 258.500 921 C 258.840 921.550, 259.316 922, 259.559 922 C 259.802 922, 260 921.550, 260 921 C 260 920.450, 259.523 920, 258.941 920 C 258.359 920, 258.160 920.450, 258.500 921 M 275.195 929.500 C 275.215 931.150, 275.439 931.704, 275.693 930.731 C 275.947 929.758, 275.930 928.408, 275.656 927.731 C 275.382 927.054, 275.175 927.850, 275.195 929.500 M 368.058 931.191 C 368.089 933.011, 368.488 936.300, 368.943 938.500 C 369.712 942.217, 369.778 942.027, 369.885 935.809 C 369.948 932.129, 369.550 928.840, 369 928.500 C 368.407 928.133, 368.023 929.228, 368.058 931.191 M 259.755 933.500 C 260.018 934.875, 260.406 936, 260.617 936 C 260.827 936, 261 934.875, 261 933.500 C 261 932.125, 260.612 931, 260.139 931 C 259.665 931, 259.492 932.125, 259.755 933.500 M 307.158 933 C 307.158 934.375, 307.385 934.938, 307.662 934.250 C 307.940 933.563, 307.940 932.438, 307.662 931.750 C 307.385 931.063, 307.158 931.625, 307.158 933 M 359.195 933.500 C 359.215 935.150, 359.439 935.704, 359.693 934.731 C 359.947 933.758, 359.930 932.408, 359.656 931.731 C 359.382 931.054, 359.175 931.850, 359.195 933.500 M 375.500 934 C 375.840 934.550, 376.316 935, 376.559 935 C 376.802 935, 377 934.550, 377 934 C 377 933.450, 376.523 933, 375.941 933 C 375.359 933, 375.160 933.450, 375.500 934 M 405 935 C 405 936.100, 405.408 937, 405.906 937 C 406.405 937, 406.577 936.100, 406.290 935 C 406.002 933.900, 405.594 933, 405.383 933 C 405.173 933, 405 933.900, 405 935 M 326 935 C 326 935.550, 326.450 936, 327 936 C 327.550 936, 328 935.550, 328 935 C 328 934.450, 327.550 934, 327 934 C 326.450 934, 326 934.450, 326 935 M 285.079 937.583 C 285.127 938.748, 285.364 938.985, 285.683 938.188 C 285.972 937.466, 285.936 936.603, 285.604 936.271 C 285.272 935.939, 285.036 936.529, 285.079 937.583 M 307.079 939.583 C 307.127 940.748, 307.364 940.985, 307.683 940.188 C 307.972 939.466, 307.936 938.603, 307.604 938.271 C 307.272 937.939, 307.036 938.529, 307.079 939.583 M 315 940.441 C 315 941.848, 315.450 943, 316 943 C 316.550 943, 317 942.127, 317 941.059 C 317 939.991, 316.550 938.840, 316 938.500 C 315.433 938.149, 315 938.990, 315 940.441 M 276.158 941 C 276.158 942.375, 276.385 942.938, 276.662 942.250 C 276.940 941.563, 276.940 940.438, 276.662 939.750 C 276.385 939.063, 276.158 939.625, 276.158 941 M 331.158 944 C 331.158 945.375, 331.385 945.938, 331.662 945.250 C 331.940 944.563, 331.940 943.438, 331.662 942.750 C 331.385 942.063, 331.158 942.625, 331.158 944 M 261.158 946 C 261.158 947.375, 261.385 947.938, 261.662 947.250 C 261.940 946.563, 261.940 945.438, 261.662 944.750 C 261.385 944.063, 261.158 944.625, 261.158 946 M 308.252 947.500 C 308.263 949.700, 308.468 950.482, 308.707 949.238 C 308.946 947.994, 308.937 946.194, 308.687 945.238 C 308.437 944.282, 308.241 945.300, 308.252 947.500 M 286.158 948 C 286.158 949.375, 286.385 949.938, 286.662 949.250 C 286.940 948.563, 286.940 947.438, 286.662 946.750 C 286.385 946.063, 286.158 946.625, 286.158 948 M 316 949.559 C 316 950.966, 316.408 951.866, 316.906 951.558 C 317.404 951.250, 317.577 950.098, 317.289 948.999 C 316.570 946.247, 316 946.495, 316 949.559 M 370.195 950.500 C 370.215 952.150, 370.439 952.704, 370.693 951.731 C 370.947 950.758, 370.930 949.408, 370.656 948.731 C 370.382 948.054, 370.175 948.850, 370.195 950.500 M 277.390 961 C 278.231 975.726, 278.979 981, 280.227 981 C 280.859 981, 280.950 979.251, 280.475 976.250 C 280.062 973.638, 279.599 969.925, 279.446 968 C 277.901 948.502, 276.381 943.328, 277.390 961 M 407.252 953.500 C 407.263 955.700, 407.468 956.482, 407.707 955.238 C 407.946 953.994, 407.937 952.194, 407.687 951.238 C 407.437 950.282, 407.241 951.300, 407.252 953.500 M 301.079 952.583 C 301.127 953.748, 301.364 953.985, 301.683 953.188 C 301.972 952.466, 301.936 951.603, 301.604 951.271 C 301.272 950.939, 301.036 951.529, 301.079 952.583 M 261.651 955.468 C 261.341 956.275, 261.518 957.202, 262.044 957.527 C 262.570 957.852, 263 957.191, 263 956.059 C 263 953.644, 262.444 953.401, 261.651 955.468 M 309.158 957 C 309.158 958.375, 309.385 958.938, 309.662 958.250 C 309.940 957.563, 309.940 956.438, 309.662 955.750 C 309.385 955.063, 309.158 955.625, 309.158 957 M 250.252 961.500 C 250.263 963.700, 250.468 964.482, 250.707 963.238 C 250.946 961.994, 250.937 960.194, 250.687 959.238 C 250.437 958.282, 250.241 959.300, 250.252 961.500 M 371 964.441 C 371 965.784, 371.450 967.160, 372 967.500 C 372.583 967.861, 373 966.844, 373 965.059 C 373 963.377, 372.550 962, 372 962 C 371.450 962, 371 963.098, 371 964.441 M 287.079 965.583 C 287.127 966.748, 287.364 966.985, 287.683 966.188 C 287.972 965.466, 287.936 964.603, 287.604 964.271 C 287.272 963.939, 287.036 964.529, 287.079 965.583 M 262.638 968.500 C 262.955 969.325, 263.391 970, 263.607 970 C 263.823 970, 264 969.325, 264 968.500 C 264 967.675, 263.564 967, 263.031 967 C 262.499 967, 262.322 967.675, 262.638 968.500 M 302.079 968.583 C 302.127 969.748, 302.364 969.985, 302.683 969.188 C 302.972 968.466, 302.936 967.603, 302.604 967.271 C 302.272 966.939, 302.036 967.529, 302.079 968.583 M 345.079 970.583 C 345.127 971.748, 345.364 971.985, 345.683 971.188 C 345.972 970.466, 345.936 969.603, 345.604 969.271 C 345.272 968.939, 345.036 969.529, 345.079 970.583 M 357.079 975.583 C 357.127 976.748, 357.364 976.985, 357.683 976.188 C 357.972 975.466, 357.936 974.603, 357.604 974.271 C 357.272 973.939, 357.036 974.529, 357.079 975.583 M 263.079 976.583 C 263.127 977.748, 263.364 977.985, 263.683 977.188 C 263.972 976.466, 263.936 975.603, 263.604 975.271 C 263.272 974.939, 263.036 975.529, 263.079 976.583 M 345 979.382 C 345 980.757, 345.450 982.160, 346 982.500 C 346.565 982.849, 347 982.030, 347 980.618 C 347 979.243, 346.550 977.840, 346 977.500 C 345.435 977.151, 345 977.970, 345 979.382 M 339.667 978.667 C 339.300 979.033, 339 979.798, 339 980.367 C 339 980.993, 339.466 980.934, 340.183 980.217 C 340.834 979.566, 341.134 978.801, 340.850 978.517 C 340.566 978.232, 340.033 978.300, 339.667 978.667 M 364.079 979.583 C 364.127 980.748, 364.364 980.985, 364.683 980.188 C 364.972 979.466, 364.936 978.603, 364.604 978.271 C 364.272 977.939, 364.036 978.529, 364.079 979.583 M 288.392 980.466 C 288.706 982.608, 290 983.621, 290 981.726 C 290 980.841, 289.590 979.864, 289.088 979.554 C 288.586 979.244, 288.273 979.655, 288.392 980.466 M 373.058 982.250 C 373.178 986.956, 374.677 992.536, 375.387 990.922 C 375.769 990.055, 375.643 988.191, 375.106 986.780 C 374.570 985.369, 374.379 983.266, 374.682 982.107 C 375 980.893, 374.760 980, 374.117 980 C 373.502 980, 373.026 981.013, 373.058 982.250 M 285.079 982.583 C 285.127 983.748, 285.364 983.985, 285.683 983.188 C 285.972 982.466, 285.936 981.603, 285.604 981.271 C 285.272 980.939, 285.036 981.529, 285.079 982.583 M 311.636 983.507 C 311.250 984.512, 311.392 985.792, 311.951 986.351 C 313.479 987.879, 314.154 986.591, 313.190 983.985 C 312.417 981.894, 312.272 981.850, 311.636 983.507 M 352 985 C 352 985.550, 352.477 986, 353.059 986 C 353.641 986, 353.840 985.550, 353.500 985 C 353.160 984.450, 352.684 984, 352.441 984 C 352.198 984, 352 984.450, 352 985 M 288.710 987 C 288.998 988.100, 289.406 989, 289.617 989 C 289.827 989, 290 988.100, 290 987 C 290 985.900, 289.592 985, 289.094 985 C 288.595 985, 288.423 985.900, 288.710 987 M 346 988 C 346 989.100, 346.450 990, 347 990 C 347.550 990, 348 989.100, 348 988 C 348 986.900, 347.550 986, 347 986 C 346.450 986, 346 986.900, 346 988 M 365.252 989.500 C 365.263 991.700, 365.468 992.482, 365.707 991.238 C 365.946 989.994, 365.937 988.194, 365.687 987.238 C 365.437 986.282, 365.241 987.300, 365.252 989.500 M 397 987.441 C 397 988.298, 397.450 989, 398 989 C 398.550 989, 399 988.577, 399 988.059 C 399 987.541, 398.550 986.840, 398 986.500 C 397.450 986.160, 397 986.584, 397 987.441 M 280.100 988.191 C 280.155 988.911, 280.560 990.625, 281 992 C 281.765 994.387, 281.805 994.356, 281.900 991.309 C 281.955 989.554, 281.550 987.840, 281 987.500 C 280.450 987.160, 280.045 987.471, 280.100 988.191 M 381.543 990.931 C 381.226 991.443, 381.425 992.144, 381.984 992.490 C 382.543 992.835, 383 992.416, 383 991.559 C 383 989.802, 382.400 989.544, 381.543 990.931 M 374 994.941 C 374 995.459, 374.450 996.160, 375 996.500 C 375.550 996.840, 376 996.416, 376 995.559 C 376 994.702, 375.550 994, 375 994 C 374.450 994, 374 994.423, 374 994.941 M 382.158 996 C 382.158 997.375, 382.385 997.938, 382.662 997.250 C 382.940 996.563, 382.940 995.438, 382.662 994.750 C 382.385 994.063, 382.158 994.625, 382.158 996 M 402.564 998.293 C 402.940 999.279, 403.499 999.834, 403.807 999.526 C 404.115 999.219, 403.808 998.412, 403.124 997.733 C 402.136 996.753, 402.022 996.868, 402.564 998.293 M 281.714 1004.750 C 282.400 1009.946, 283 1010.141, 283 1005.167 C 283 1002.875, 282.599 1001, 282.110 1001 C 281.620 1001, 281.442 1002.688, 281.714 1004.750 M 336.583 1001.866 C 336.152 1002.563, 336.070 1003.403, 336.400 1003.733 C 337.295 1004.628, 338.271 1003.312, 337.787 1001.862 C 337.449 1000.846, 337.213 1000.846, 336.583 1001.866 M 375.297 1004.502 C 375.243 1006.428, 375.603 1008.255, 376.099 1008.561 C 376.595 1008.867, 377 1007.291, 377 1005.059 C 377 1000.105, 375.436 999.594, 375.297 1004.502 M 358 1002.945 C 358 1003.663, 357.239 1003.893, 356.083 1003.526 C 354.576 1003.048, 354.270 1003.315, 354.652 1004.776 C 355.022 1006.192, 355.835 1006.531, 358.069 1006.203 C 361.338 1005.723, 361.728 1004.849, 359.500 1003 C 358.371 1002.063, 358 1002.050, 358 1002.945 M 313.739 1005.889 C 313.467 1006.928, 313.633 1008.391, 314.107 1009.139 C 314.693 1010.064, 314.974 1009.460, 314.985 1007.250 C 315.002 1003.612, 314.483 1003.045, 313.739 1005.889 M 403.529 1013.498 C 404.234 1016.836, 404.722 1017.611, 405.578 1016.755 C 405.896 1016.437, 405.423 1014.900, 404.526 1013.338 L 402.896 1010.500 403.529 1013.498 M 283.232 1018 C 283.232 1019.925, 283.438 1020.712, 283.689 1019.750 C 283.941 1018.788, 283.941 1017.212, 283.689 1016.250 C 283.438 1015.288, 283.232 1016.075, 283.232 1018 M 315.252 1019.500 C 315.263 1021.700, 315.468 1022.482, 315.707 1021.238 C 315.946 1019.994, 315.937 1018.194, 315.687 1017.238 C 315.437 1016.282, 315.241 1017.300, 315.252 1019.500 M 405 1023.892 C 405 1026.766, 405.352 1028.900, 405.783 1028.634 C 406.636 1028.107, 406.437 1020.104, 405.548 1019.215 C 405.247 1018.913, 405 1021.018, 405 1023.892 M 361.158 1023 C 361.158 1024.375, 361.385 1024.938, 361.662 1024.250 C 361.940 1023.563, 361.940 1022.438, 361.662 1021.750 C 361.385 1021.063, 361.158 1021.625, 361.158 1023 M 283.079 1023.583 C 283.127 1024.748, 283.364 1024.985, 283.683 1024.188 C 283.972 1023.466, 283.936 1022.603, 283.604 1022.271 C 283.272 1021.939, 283.036 1022.529, 283.079 1023.583 M 344.195 1027.500 C 344.215 1029.150, 344.439 1029.704, 344.693 1028.731 C 344.947 1027.758, 344.930 1026.408, 344.656 1025.731 C 344.382 1025.054, 344.175 1025.850, 344.195 1027.500 M 377.079 1026.583 C 377.127 1027.748, 377.364 1027.985, 377.683 1027.188 C 377.972 1026.466, 377.936 1025.603, 377.604 1025.271 C 377.272 1024.939, 377.036 1025.529, 377.079 1026.583 M 459 1028.882 C 459 1029.432, 459.450 1030.160, 460 1030.500 C 460.550 1030.840, 461 1030.668, 461 1030.118 C 461 1029.568, 460.550 1028.840, 460 1028.500 C 459.450 1028.160, 459 1028.332, 459 1028.882 M 284.079 1034.583 C 284.127 1035.748, 284.364 1035.985, 284.683 1035.188 C 284.972 1034.466, 284.936 1033.603, 284.604 1033.271 C 284.272 1032.939, 284.036 1033.529, 284.079 1034.583 M 406.252 1037.500 C 406.263 1039.700, 406.468 1040.482, 406.707 1039.238 C 406.946 1037.994, 406.937 1036.194, 406.687 1035.238 C 406.437 1034.282, 406.241 1035.300, 406.252 1037.500 M 316.232 1041 C 316.232 1042.925, 316.438 1043.713, 316.689 1042.750 C 316.941 1041.787, 316.941 1040.213, 316.689 1039.250 C 316.438 1038.287, 316.232 1039.075, 316.232 1041 M 406.252 1052.500 C 406.263 1054.700, 406.468 1055.482, 406.707 1054.238 C 406.946 1052.994, 406.937 1051.194, 406.687 1050.238 C 406.437 1049.282, 406.241 1050.300, 406.252 1052.500 M 316 1053.333 C 316 1054.800, 316.447 1056, 316.994 1056 C 317.540 1056, 317.852 1055.112, 317.686 1054.026 C 317.208 1050.894, 316 1050.398, 316 1053.333 M 406.638 1065.500 C 406.955 1066.325, 407.391 1067, 407.607 1067 C 407.823 1067, 408 1066.325, 408 1065.500 C 408 1064.675, 407.564 1064, 407.031 1064 C 406.499 1064, 406.322 1064.675, 406.638 1065.500 M 465.030 1071.550 C 465.057 1074.136, 465.193 1074.272, 466.134 1072.654 C 466.903 1071.330, 466.895 1070.495, 466.104 1069.704 C 465.299 1068.899, 465.008 1069.399, 465.030 1071.550 M 294 1073.441 C 294 1074.234, 294.408 1075.134, 294.907 1075.442 C 295.405 1075.751, 295.578 1075.102, 295.290 1074.001 C 294.679 1071.666, 294 1071.371, 294 1073.441 M 295.232 1085 C 295.232 1086.925, 295.438 1087.713, 295.689 1086.750 C 295.941 1085.787, 295.941 1084.213, 295.689 1083.250 C 295.438 1082.287, 295.232 1083.075, 295.232 1085 M 161 1084.500 C 161 1085.325, 161.450 1086, 162 1086 C 162.550 1086, 163 1085.325, 163 1084.500 C 163 1083.675, 162.550 1083, 162 1083 C 161.450 1083, 161 1083.675, 161 1084.500 M 286.232 1087 C 286.232 1088.925, 286.438 1089.713, 286.689 1088.750 C 286.941 1087.787, 286.941 1086.213, 286.689 1085.250 C 286.438 1084.287, 286.232 1085.075, 286.232 1087 M 466.079 1086.583 C 466.127 1087.748, 466.364 1087.985, 466.683 1087.188 C 466.972 1086.466, 466.936 1085.603, 466.604 1085.271 C 466.272 1084.939, 466.036 1085.529, 466.079 1086.583 M 380.079 1092.583 C 380.127 1093.748, 380.364 1093.985, 380.683 1093.188 C 380.972 1092.466, 380.936 1091.603, 380.604 1091.271 C 380.272 1090.939, 380.036 1091.529, 380.079 1092.583 M 286.583 1093.866 C 286.152 1094.563, 286.070 1095.403, 286.400 1095.733 C 287.295 1096.628, 288.271 1095.312, 287.787 1093.862 C 287.449 1092.846, 287.213 1092.846, 286.583 1093.866 M 406.229 1097.188 C 406.447 1097.841, 407.160 1098.553, 407.813 1098.771 C 408.544 1099.015, 408.767 1098.557, 408.394 1097.584 C 407.696 1095.766, 405.629 1095.388, 406.229 1097.188 M 466.062 1110.420 C 466.008 1123.500, 466.822 1128.513, 468.352 1124.526 C 468.660 1123.722, 468.529 1122.827, 468.059 1122.537 C 467.590 1122.246, 467.362 1116.395, 467.553 1109.533 C 467.745 1102.671, 467.501 1096.809, 467.011 1096.507 C 466.507 1096.195, 466.095 1102.237, 466.062 1110.420 M 407 1101.382 C 407 1102.207, 407.450 1103.160, 408 1103.500 C 408.550 1103.840, 409 1103.443, 409 1102.618 C 409 1101.793, 408.550 1100.840, 408 1100.500 C 407.450 1100.160, 407 1100.557, 407 1101.382 M 370.775 1102.250 C 370.533 1102.938, 370.665 1104.625, 371.068 1106 C 371.705 1108.175, 371.814 1108.013, 371.900 1104.750 C 372.002 1100.942, 371.571 1099.985, 370.775 1102.250 M 387.158 1104 C 387.158 1105.375, 387.385 1105.938, 387.662 1105.250 C 387.940 1104.563, 387.940 1103.438, 387.662 1102.750 C 387.385 1102.063, 387.158 1102.625, 387.158 1104 M 318 1107.559 C 318 1108.416, 318.450 1108.840, 319 1108.500 C 319.550 1108.160, 320 1107.459, 320 1106.941 C 320 1106.423, 319.550 1106, 319 1106 C 318.450 1106, 318 1106.702, 318 1107.559 M 407 1107 C 407 1107.550, 407.450 1108, 408 1108 C 408.550 1108, 409 1107.550, 409 1107 C 409 1106.450, 408.550 1106, 408 1106 C 407.450 1106, 407 1106.450, 407 1107 M 359.079 1109.583 C 359.127 1110.748, 359.364 1110.985, 359.683 1110.188 C 359.972 1109.466, 359.936 1108.603, 359.604 1108.271 C 359.272 1107.939, 359.036 1108.529, 359.079 1109.583 M 287.079 1111.583 C 287.127 1112.748, 287.364 1112.985, 287.683 1112.188 C 287.972 1111.466, 287.936 1110.603, 287.604 1110.271 C 287.272 1109.939, 287.036 1110.529, 287.079 1111.583 M 457 1114.833 C 457 1117.734, 457.455 1120, 458.037 1120 C 458.686 1120, 458.863 1118.243, 458.511 1115.307 C 457.736 1108.849, 457 1108.619, 457 1114.833 M 319.286 1116.500 C 319.294 1119.250, 319.488 1120.256, 319.718 1118.736 C 319.947 1117.216, 319.941 1114.966, 319.704 1113.736 C 319.467 1112.506, 319.279 1113.750, 319.286 1116.500 M 347.286 1117.500 C 347.294 1120.250, 347.488 1121.256, 347.718 1119.736 C 347.947 1118.216, 347.941 1115.966, 347.704 1114.736 C 347.467 1113.506, 347.279 1114.750, 347.286 1117.500 M 372.079 1116.583 C 372.127 1117.748, 372.364 1117.985, 372.683 1117.188 C 372.972 1116.466, 372.936 1115.603, 372.604 1115.271 C 372.272 1114.939, 372.036 1115.529, 372.079 1116.583 M 342 1120.941 C 342 1122.073, 342.450 1123, 343 1123 C 343.550 1123, 344 1122.352, 344 1121.559 C 344 1120.766, 343.550 1119.840, 343 1119.500 C 342.450 1119.160, 342 1119.809, 342 1120.941 M 456.623 1121.802 C 455.912 1122.952, 457.138 1134.195, 457.892 1133.442 C 458.839 1132.496, 458.909 1122.062, 457.973 1121.483 C 457.514 1121.199, 456.906 1121.343, 456.623 1121.802 M 372.252 1130.500 C 372.263 1132.700, 372.468 1133.482, 372.707 1132.238 C 372.946 1130.994, 372.937 1129.194, 372.687 1128.238 C 372.437 1127.282, 372.241 1128.300, 372.252 1130.500 M 319.158 1133 C 319.158 1134.375, 319.385 1134.938, 319.662 1134.250 C 319.940 1133.563, 319.940 1132.438, 319.662 1131.750 C 319.385 1131.063, 319.158 1131.625, 319.158 1133 M 457.511 1164.111 C 457.706 1181.005, 458.244 1193.581, 458.780 1193.760 C 460.103 1194.201, 459.534 1137.134, 458.202 1135.802 C 457.496 1135.096, 457.279 1144.001, 457.511 1164.111 M 319 1137 C 319 1137.550, 319.477 1138, 320.059 1138 C 320.641 1138, 320.840 1137.550, 320.500 1137 C 320.160 1136.450, 319.684 1136, 319.441 1136 C 319.198 1136, 319 1136.450, 319 1137 M 372.068 1139.050 C 372.131 1142.290, 372.202 1142.361, 373.235 1140.217 C 374.048 1138.530, 374.031 1137.631, 373.167 1136.767 C 372.278 1135.878, 372.016 1136.420, 372.068 1139.050 M 466.720 1141.687 C 466.033 1145.280, 466.858 1147.363, 468.446 1146.045 C 469.718 1144.989, 469.341 1139, 468.003 1139 C 467.580 1139, 467.002 1140.209, 466.720 1141.687 M 461 1145 C 461 1145.550, 461.450 1146, 462 1146 C 462.550 1146, 463 1145.550, 463 1145 C 463 1144.450, 462.550 1144, 462 1144 C 461.450 1144, 461 1144.450, 461 1145 M 472.079 1147.583 C 472.127 1148.748, 472.364 1148.985, 472.683 1148.188 C 472.972 1147.466, 472.936 1146.603, 472.604 1146.271 C 472.272 1145.939, 472.036 1146.529, 472.079 1147.583 M 319.500 1148 C 319.840 1148.550, 320.316 1149, 320.559 1149 C 320.802 1149, 321 1148.550, 321 1148 C 321 1147.450, 320.523 1147, 319.941 1147 C 319.359 1147, 319.160 1147.450, 319.500 1148 M 407.473 1147.956 C 407.798 1148.482, 408.725 1148.659, 409.532 1148.349 C 411.599 1147.556, 411.356 1147, 408.941 1147 C 407.809 1147, 407.148 1147.430, 407.473 1147.956 M 404 1151 C 404 1151.550, 404.450 1152, 405 1152 C 405.550 1152, 406 1151.550, 406 1151 C 406 1150.450, 405.550 1150, 405 1150 C 404.450 1150, 404 1150.450, 404 1151 M 462 1156.382 C 462 1157.757, 462.450 1159.160, 463 1159.500 C 463.565 1159.849, 464 1159.030, 464 1157.618 C 464 1156.243, 463.550 1154.840, 463 1154.500 C 462.435 1154.151, 462 1154.970, 462 1156.382 M 466.448 1185.250 C 466.480 1202.438, 466.128 1217.043, 465.666 1217.707 C 465.165 1218.427, 465.467 1219.829, 466.413 1221.180 C 467.953 1223.379, 468 1223.299, 468.006 1218.473 C 468.009 1215.738, 468.268 1206.750, 468.581 1198.500 C 469.231 1181.393, 469.186 1176.284, 468.365 1173.625 C 467.989 1172.406, 468.172 1171.989, 468.890 1172.432 C 469.678 1172.919, 469.716 1172.383, 469.022 1170.557 C 468.487 1169.151, 468.376 1168.001, 468.775 1168.002 C 469.174 1168.003, 469.351 1164.853, 469.168 1161.002 C 468.947 1156.333, 468.429 1154, 467.614 1154 C 466.675 1154, 466.405 1161.263, 466.448 1185.250 M 320.158 1158 C 320.158 1159.375, 320.385 1159.938, 320.662 1159.250 C 320.940 1158.563, 320.940 1157.438, 320.662 1156.750 C 320.385 1156.063, 320.158 1156.625, 320.158 1158 M 349.158 1160 C 349.158 1161.375, 349.385 1161.938, 349.662 1161.250 C 349.940 1160.563, 349.940 1159.438, 349.662 1158.750 C 349.385 1158.063, 349.158 1158.625, 349.158 1160 M 349.158 1167 C 349.158 1168.375, 349.385 1168.938, 349.662 1168.250 C 349.940 1167.563, 349.940 1166.438, 349.662 1165.750 C 349.385 1165.063, 349.158 1165.625, 349.158 1167 M 320.158 1169 C 320.158 1170.375, 320.385 1170.938, 320.662 1170.250 C 320.940 1169.563, 320.940 1168.438, 320.662 1167.750 C 320.385 1167.063, 320.158 1167.625, 320.158 1169 M 373.158 1169 C 373.158 1170.375, 373.385 1170.938, 373.662 1170.250 C 373.940 1169.563, 373.940 1168.438, 373.662 1167.750 C 373.385 1167.063, 373.158 1167.625, 373.158 1169 M 362 1170.059 C 362 1170.641, 362.450 1170.840, 363 1170.500 C 363.550 1170.160, 364 1169.684, 364 1169.441 C 364 1169.198, 363.550 1169, 363 1169 C 362.450 1169, 362 1169.477, 362 1170.059 M 405.272 1173 C 405.272 1175.475, 405.467 1176.487, 405.706 1175.250 C 405.944 1174.013, 405.944 1171.987, 405.706 1170.750 C 405.467 1169.513, 405.272 1170.525, 405.272 1173 M 388 1171.559 C 388 1172.416, 388.450 1172.840, 389 1172.500 C 389.550 1172.160, 390 1171.459, 390 1170.941 C 390 1170.423, 389.550 1170, 389 1170 C 388.450 1170, 388 1170.702, 388 1171.559 M 462 1172.918 C 462 1173.973, 461.749 1175.490, 461.443 1176.289 C 461.136 1177.088, 461.563 1178.002, 462.392 1178.320 C 463.380 1178.699, 463.720 1178.435, 463.381 1177.550 C 463.096 1176.809, 463.302 1175.931, 463.838 1175.600 C 464.982 1174.893, 464.174 1171, 462.883 1171 C 462.398 1171, 462 1171.863, 462 1172.918 M 373.195 1175.500 C 373.215 1177.150, 373.439 1177.704, 373.693 1176.731 C 373.947 1175.758, 373.930 1174.408, 373.656 1173.731 C 373.382 1173.054, 373.175 1173.850, 373.195 1175.500 M 343.158 1177 C 343.158 1178.375, 343.385 1178.938, 343.662 1178.250 C 343.940 1177.563, 343.940 1176.438, 343.662 1175.750 C 343.385 1175.063, 343.158 1175.625, 343.158 1177 M 320.195 1180.500 C 320.215 1182.150, 320.439 1182.704, 320.693 1181.731 C 320.947 1180.758, 320.930 1179.408, 320.656 1178.731 C 320.382 1178.054, 320.175 1178.850, 320.195 1180.500 M 452.015 1179.750 C 452.024 1180.713, 452.467 1182.175, 453 1183 C 453.736 1184.138, 453.973 1183.716, 453.985 1181.250 C 453.993 1179.463, 453.550 1178, 453 1178 C 452.450 1178, 452.007 1178.787, 452.015 1179.750 M 373.195 1181.500 C 373.215 1183.150, 373.439 1183.704, 373.693 1182.731 C 373.947 1181.758, 373.930 1180.408, 373.656 1179.731 C 373.382 1179.054, 373.175 1179.850, 373.195 1181.500 M 392.079 1180.583 C 392.127 1181.748, 392.364 1181.985, 392.683 1181.188 C 392.972 1180.466, 392.936 1179.603, 392.604 1179.271 C 392.272 1178.939, 392.036 1179.529, 392.079 1180.583 M 258.079 1181.583 C 258.127 1182.748, 258.364 1182.985, 258.683 1182.188 C 258.972 1181.466, 258.936 1180.603, 258.604 1180.271 C 258.272 1179.939, 258.036 1180.529, 258.079 1181.583 M 462 1183.711 C 462 1184.787, 462.675 1185.667, 463.500 1185.667 C 464.325 1185.667, 465 1185.347, 465 1184.956 C 465 1184.565, 464.325 1183.685, 463.500 1183 C 462.254 1181.966, 462 1182.086, 462 1183.711 M 388.158 1186 C 388.158 1187.375, 388.385 1187.938, 388.662 1187.250 C 388.940 1186.563, 388.940 1185.438, 388.662 1184.750 C 388.385 1184.063, 388.158 1184.625, 388.158 1186 M 452.764 1186.750 C 452.570 1187.162, 452.677 1189.300, 453.002 1191.500 L 453.594 1195.500 454.054 1190.750 C 454.458 1186.580, 453.803 1184.548, 452.764 1186.750 M 289.158 1190 C 289.158 1191.375, 289.385 1191.938, 289.662 1191.250 C 289.940 1190.563, 289.940 1189.438, 289.662 1188.750 C 289.385 1188.063, 289.158 1188.625, 289.158 1190 M 462.667 1188.667 C 461.629 1189.704, 461.883 1193, 463 1193 C 463.550 1193, 464 1191.875, 464 1190.500 C 464 1187.882, 463.769 1187.564, 462.667 1188.667 M 362 1196.059 C 362 1197.191, 362.430 1197.852, 362.956 1197.527 C 363.482 1197.202, 363.659 1196.275, 363.349 1195.468 C 362.556 1193.401, 362 1193.644, 362 1196.059 M 462.750 1196.572 C 462.337 1196.991, 462 1198.473, 462 1199.867 C 462 1201.687, 462.305 1202.095, 463.085 1201.315 C 463.681 1200.719, 464.019 1199.236, 463.835 1198.020 C 463.651 1196.805, 463.163 1196.153, 462.750 1196.572 M 457.939 1197.083 C 457.384 1200.893, 457.185 1214.008, 457.660 1215.500 C 458.257 1217.378, 458.335 1217.388, 458.939 1215.671 C 459.735 1213.407, 459.469 1198.136, 458.619 1197.286 C 458.279 1196.945, 457.973 1196.854, 457.939 1197.083 M 419 1200.441 C 419 1203.505, 419.570 1203.753, 420.289 1201.001 C 420.577 1199.902, 420.404 1198.750, 419.906 1198.442 C 419.408 1198.134, 419 1199.034, 419 1200.441 M 362.079 1200.583 C 362.127 1201.748, 362.364 1201.985, 362.683 1201.188 C 362.972 1200.466, 362.936 1199.603, 362.604 1199.271 C 362.272 1198.939, 362.036 1199.529, 362.079 1200.583 M 452.926 1199.191 C 452.026 1202.932, 452.159 1203.876, 453.512 1203.357 C 455.206 1202.707, 455.495 1200.424, 454 1199.500 C 453.450 1199.160, 452.967 1199.021, 452.926 1199.191 M 392.079 1205.583 C 392.127 1206.748, 392.364 1206.985, 392.683 1206.188 C 392.972 1205.466, 392.936 1204.603, 392.604 1204.271 C 392.272 1203.939, 392.036 1204.529, 392.079 1205.583 M 418.574 1206.667 C 418.222 1207.584, 418.399 1208.799, 418.967 1209.367 C 419.678 1210.078, 420 1209.557, 420 1207.700 C 420 1204.615, 419.501 1204.253, 418.574 1206.667 M 387.764 1206.750 C 387.570 1207.162, 387.704 1209.300, 388.063 1211.500 L 388.716 1215.500 388.858 1210.750 C 388.990 1206.331, 388.613 1204.951, 387.764 1206.750 M 451 1207.213 C 451 1207.646, 451.450 1208, 452 1208 C 452.550 1208, 453 1209.350, 453 1211 C 453 1212.650, 453.450 1214, 454 1214 C 454.550 1214, 455 1212.228, 455 1210.062 C 455 1206.741, 454.687 1206.148, 453 1206.275 C 451.900 1206.358, 451 1206.780, 451 1207.213 M 403.500 1208 C 403.840 1208.550, 404.568 1209, 405.118 1209 C 405.668 1209, 405.840 1208.550, 405.500 1208 C 405.160 1207.450, 404.432 1207, 403.882 1207 C 403.332 1207, 403.160 1207.450, 403.500 1208 M 392.090 1212.950 C 392.026 1216.095, 392.312 1217.088, 393.064 1216.336 C 393.788 1215.612, 393.817 1214.191, 393.154 1211.886 L 392.180 1208.500 392.090 1212.950 M 461 1212.500 C 461 1214.425, 461.423 1216, 461.941 1216 C 463.328 1216, 464.180 1214.229, 463.110 1213.568 C 462.603 1213.255, 462.423 1212.098, 462.711 1210.999 C 463.003 1209.882, 462.741 1209, 462.117 1209 C 461.502 1209, 461 1210.575, 461 1212.500 M 373.232 1213 C 373.232 1214.925, 373.438 1215.713, 373.689 1214.750 C 373.941 1213.787, 373.941 1212.213, 373.689 1211.250 C 373.438 1210.287, 373.232 1211.075, 373.232 1213 M 382.195 1212.500 C 382.215 1214.150, 382.439 1214.704, 382.693 1213.731 C 382.947 1212.758, 382.930 1211.408, 382.656 1210.731 C 382.382 1210.054, 382.175 1210.850, 382.195 1212.500 M 362.015 1213.750 C 362.007 1214.987, 362.450 1216, 363 1216 C 364.253 1216, 364.253 1214.939, 363 1213 C 362.216 1211.787, 362.028 1211.931, 362.015 1213.750 M 453.667 1215.667 C 452.722 1216.611, 452.836 1222, 453.800 1222 C 454.240 1222, 454.600 1220.425, 454.600 1218.500 C 454.600 1214.659, 454.618 1214.715, 453.667 1215.667 M 419 1218.059 C 419 1218.641, 419.450 1218.840, 420 1218.500 C 420.550 1218.160, 421 1217.684, 421 1217.441 C 421 1217.198, 420.550 1217, 420 1217 C 419.450 1217, 419 1217.477, 419 1218.059 M 457 1220.500 C 457 1221.417, 457.484 1222.005, 458.075 1221.808 C 458.666 1221.611, 459.150 1221.023, 459.150 1220.500 C 459.150 1219.977, 458.666 1219.389, 458.075 1219.192 C 457.484 1218.995, 457 1219.583, 457 1220.500 M 349.079 1226.583 C 349.127 1227.748, 349.364 1227.985, 349.683 1227.188 C 349.972 1226.466, 349.936 1225.603, 349.604 1225.271 C 349.272 1224.939, 349.036 1225.529, 349.079 1226.583 M 457.726 1229.004 C 457.161 1233.215, 457.741 1237, 458.950 1237 C 459.344 1237, 459.667 1234.300, 459.667 1231 C 459.667 1224.179, 458.530 1223.010, 457.726 1229.004 M 419.822 1231.500 C 419.177 1234.496, 419.489 1235.844, 420.575 1234.758 C 420.892 1234.442, 420.997 1232.904, 420.809 1231.341 L 420.467 1228.500 419.822 1231.500 M 462.232 1235 C 462.232 1236.925, 462.438 1237.713, 462.689 1236.750 C 462.941 1235.787, 462.941 1234.213, 462.689 1233.250 C 462.438 1232.287, 462.232 1233.075, 462.232 1235 M 340 1237.500 C 340 1238.325, 340.450 1239, 341 1239 C 341.550 1239, 342 1238.325, 342 1237.500 C 342 1236.675, 341.550 1236, 341 1236 C 340.450 1236, 340 1236.675, 340 1237.500 M 350.195 1238.500 C 350.215 1240.150, 350.439 1240.704, 350.693 1239.731 C 350.947 1238.758, 350.930 1237.408, 350.656 1236.731 C 350.382 1236.054, 350.175 1236.850, 350.195 1238.500 M 374.079 1238.583 C 374.127 1239.748, 374.364 1239.985, 374.683 1239.188 C 374.972 1238.466, 374.936 1237.603, 374.604 1237.271 C 374.272 1236.939, 374.036 1237.529, 374.079 1238.583 M 453.709 1244 C 453.123 1246.668, 452.723 1247.150, 452.024 1246.029 C 451.521 1245.220, 450.857 1244.810, 450.548 1245.118 C 450.240 1245.427, 450.881 1246.487, 451.973 1247.476 C 453.719 1249.056, 454.030 1249.085, 454.554 1247.721 C 454.881 1246.867, 454.998 1244.893, 454.814 1243.334 C 454.484 1240.552, 454.464 1240.565, 453.709 1244 M 363.829 1246 C 364.038 1248.200, 364.388 1250, 364.605 1250 C 364.822 1250, 365 1248.200, 365 1246 C 365 1243.800, 364.651 1242, 364.224 1242 C 363.797 1242, 363.619 1243.800, 363.829 1246 M 458.015 1244.750 C 458.007 1246.537, 458.450 1248, 459 1248 C 460.270 1248, 460.270 1244.965, 459 1243 C 458.264 1241.862, 458.027 1242.284, 458.015 1244.750 M 374.079 1244.583 C 374.127 1245.748, 374.364 1245.985, 374.683 1245.188 C 374.972 1244.466, 374.936 1243.603, 374.604 1243.271 C 374.272 1242.939, 374.036 1243.529, 374.079 1244.583 M 402.286 1248.500 C 402.294 1251.250, 402.488 1252.256, 402.718 1250.736 C 402.947 1249.216, 402.941 1246.966, 402.704 1245.736 C 402.467 1244.506, 402.279 1245.750, 402.286 1248.500 M 367 1246.559 C 367 1247.416, 367.457 1247.835, 368.016 1247.490 C 368.575 1247.144, 368.774 1246.443, 368.457 1245.931 C 367.600 1244.544, 367 1244.802, 367 1246.559 M 406.015 1246.750 C 406.007 1247.987, 406.450 1249, 407 1249 C 408.253 1249, 408.253 1247.939, 407 1246 C 406.216 1244.787, 406.028 1244.931, 406.015 1246.750 M 420.195 1247.500 C 420.215 1249.150, 420.439 1249.704, 420.693 1248.731 C 420.947 1247.758, 420.930 1246.408, 420.656 1245.731 C 420.382 1245.054, 420.175 1245.850, 420.195 1247.500 M 461 1246.441 C 461 1247.234, 461.450 1248.160, 462 1248.500 C 462.550 1248.840, 463 1248.191, 463 1247.059 C 463 1245.927, 462.550 1245, 462 1245 C 461.450 1245, 461 1245.648, 461 1246.441 M 390.239 1252 C 390.284 1255.575, 390.502 1257.029, 390.725 1255.231 C 390.977 1253.191, 391.540 1252.216, 392.222 1252.637 C 392.952 1253.088, 393.113 1252.513, 392.707 1250.906 C 392.113 1248.552, 392.134 1248.543, 393.684 1250.500 C 395.074 1252.254, 395.191 1252.275, 394.635 1250.668 C 394.286 1249.661, 394 1248.648, 394 1248.418 C 394 1248.188, 393.363 1248, 392.583 1248 C 391.804 1248, 390.940 1247.438, 390.662 1246.750 C 390.385 1246.063, 390.194 1248.425, 390.239 1252 M 261.079 1248.583 C 261.127 1249.748, 261.364 1249.985, 261.683 1249.188 C 261.972 1248.466, 261.936 1247.603, 261.604 1247.271 C 261.272 1246.939, 261.036 1247.529, 261.079 1248.583 M 406 1253.500 C 406 1254.991, 406.431 1255.852, 407 1255.500 C 407.550 1255.160, 408 1254.260, 408 1253.500 C 408 1252.740, 407.550 1251.840, 407 1251.500 C 406.431 1251.148, 406 1252.009, 406 1253.500 M 364.543 1253.931 C 364.226 1254.443, 364.425 1255.144, 364.984 1255.490 C 365.543 1255.835, 366 1255.416, 366 1254.559 C 366 1252.802, 365.400 1252.544, 364.543 1253.931 M 459.053 1253.500 C 458.208 1257.350, 458.505 1258.899, 460.172 1259.335 C 461.388 1259.653, 462.013 1260.764, 462.039 1262.656 L 462.078 1265.500 463.548 1262.113 C 465.132 1258.464, 464.082 1255.647, 461.506 1256.636 C 460.671 1256.956, 459.991 1256.268, 459.716 1254.826 C 459.472 1253.547, 459.174 1252.950, 459.053 1253.500 M 394.195 1257.500 C 394.215 1259.150, 394.439 1259.704, 394.693 1258.731 C 394.947 1257.758, 394.930 1256.408, 394.656 1255.731 C 394.382 1255.054, 394.175 1255.850, 394.195 1257.500 M 402.602 1255.836 C 402.317 1256.295, 402.477 1257.983, 402.957 1259.586 C 403.823 1262.481, 403.829 1262.476, 403.914 1258.750 C 403.999 1255.053, 403.614 1254.198, 402.602 1255.836 M 346.300 1262 C 346.300 1265.025, 346.487 1266.263, 346.716 1264.750 C 346.945 1263.237, 346.945 1260.763, 346.716 1259.250 C 346.487 1257.737, 346.300 1258.975, 346.300 1262 M 455.100 1260.691 C 455.045 1262.446, 455.450 1264.160, 456 1264.500 C 457.150 1265.211, 457.150 1263.591, 456 1260 C 455.235 1257.613, 455.195 1257.644, 455.100 1260.691 M 391 1261.946 C 391 1262.397, 391.900 1263.002, 393 1263.290 C 394.175 1263.597, 395 1263.320, 395 1262.619 C 395 1261.963, 394.100 1261.358, 393 1261.275 C 391.900 1261.192, 391 1261.494, 391 1261.946 M 407 1263.059 C 407 1263.641, 407.450 1263.840, 408 1263.500 C 408.550 1263.160, 409 1262.684, 409 1262.441 C 409 1262.198, 408.550 1262, 408 1262 C 407.450 1262, 407 1262.477, 407 1263.059 M 451 1263.059 C 451 1263.641, 451.450 1263.840, 452 1263.500 C 452.550 1263.160, 453 1262.684, 453 1262.441 C 453 1262.198, 452.550 1262, 452 1262 C 451.450 1262, 451 1262.477, 451 1263.059 M 462.625 1270.125 C 461.791 1274.293, 462.599 1275.101, 463.500 1271 C 463.880 1269.271, 463.982 1267.649, 463.727 1267.394 C 463.472 1267.139, 462.976 1268.368, 462.625 1270.125 M 385.158 1271 C 385.158 1272.375, 385.385 1272.938, 385.662 1272.250 C 385.940 1271.563, 385.940 1270.438, 385.662 1269.750 C 385.385 1269.063, 385.158 1269.625, 385.158 1271 M 452 1272 C 452 1272.550, 452.450 1273, 453 1273 C 453.550 1273, 454 1272.550, 454 1272 C 454 1271.450, 453.550 1271, 453 1271 C 452.450 1271, 452 1271.450, 452 1272 M 456.272 1277 C 456.272 1279.475, 456.467 1280.487, 456.706 1279.250 C 456.944 1278.013, 456.944 1275.987, 456.706 1274.750 C 456.467 1273.513, 456.272 1274.525, 456.272 1277 M 392.500 1275 C 392.160 1275.550, 392.359 1276, 392.941 1276 C 393.523 1276, 394 1275.550, 394 1275 C 394 1274.450, 393.802 1274, 393.559 1274 C 393.316 1274, 392.840 1274.450, 392.500 1275 M 267.158 1277 C 267.158 1278.375, 267.385 1278.938, 267.662 1278.250 C 267.940 1277.563, 267.940 1276.438, 267.662 1275.750 C 267.385 1275.063, 267.158 1275.625, 267.158 1277 M 404.015 1283.250 C 404.028 1285.069, 404.216 1285.213, 405 1284 C 406.253 1282.061, 406.253 1281, 405 1281 C 404.450 1281, 404.007 1282.013, 404.015 1283.250 M 453.079 1282.583 C 453.127 1283.748, 453.364 1283.985, 453.683 1283.188 C 453.972 1282.466, 453.936 1281.603, 453.604 1281.271 C 453.272 1280.939, 453.036 1281.529, 453.079 1282.583 M 394.015 1283.691 C 394.024 1284.686, 394.467 1286.175, 395 1287 C 395.758 1288.173, 395.973 1287.914, 395.985 1285.809 C 395.993 1284.329, 395.550 1282.840, 395 1282.500 C 394.450 1282.160, 394.007 1282.696, 394.015 1283.691 M 408 1292.941 C 408 1294.073, 408.450 1295, 409 1295 C 409.550 1295, 410 1294.352, 410 1293.559 C 410 1292.766, 409.550 1291.840, 409 1291.500 C 408.450 1291.160, 408 1291.809, 408 1292.941 M 463 1295.500 C 463 1296.991, 463.431 1297.852, 464 1297.500 C 464.550 1297.160, 465 1296.260, 465 1295.500 C 465 1294.740, 464.550 1293.840, 464 1293.500 C 463.431 1293.148, 463 1294.009, 463 1295.500 M 353 1306.941 C 353 1307.459, 353.450 1308.160, 354 1308.500 C 354.550 1308.840, 355 1308.416, 355 1307.559 C 355 1306.702, 354.550 1306, 354 1306 C 353.450 1306, 353 1306.423, 353 1306.941 M 463.046 1324.120 C 462.114 1336.972, 462.047 1342.447, 462.814 1343.214 C 463.942 1344.342, 465.009 1341.541, 464.991 1337.500 C 464.986 1336.400, 465.103 1329.048, 465.252 1321.161 C 465.400 1313.275, 465.259 1306.660, 464.938 1306.461 C 464.616 1306.263, 463.765 1314.209, 463.046 1324.120 M 367.079 1313.583 C 367.127 1314.748, 367.364 1314.985, 367.683 1314.188 C 367.972 1313.466, 367.936 1312.603, 367.604 1312.271 C 367.272 1311.939, 367.036 1312.529, 367.079 1313.583 M 454.158 1320 C 454.158 1321.375, 454.385 1321.938, 454.662 1321.250 C 454.940 1320.563, 454.940 1319.438, 454.662 1318.750 C 454.385 1318.063, 454.158 1318.625, 454.158 1320 M 394.667 1319.667 C 393.449 1320.885, 393.978 1323, 395.500 1323 C 396.333 1323, 397 1322.111, 397 1321 C 397 1319.008, 395.934 1318.399, 394.667 1319.667 M 402 1322.559 C 402 1323.416, 402.450 1323.840, 403 1323.500 C 403.550 1323.160, 404 1322.459, 404 1321.941 C 404 1321.423, 403.550 1321, 403 1321 C 402.450 1321, 402 1321.702, 402 1322.559 M 471.158 1323 C 471.158 1324.375, 471.385 1324.938, 471.662 1324.250 C 471.940 1323.563, 471.940 1322.438, 471.662 1321.750 C 471.385 1321.063, 471.158 1321.625, 471.158 1323 M 453.697 1324.393 C 453.288 1325.434, 453.189 1326.522, 453.476 1326.810 C 454.389 1327.722, 455.191 1326.227, 454.809 1324.328 C 454.459 1322.588, 454.405 1322.591, 453.697 1324.393 M 444.609 1325.576 C 443.764 1327.779, 444.692 1328.708, 446.217 1327.183 C 447.055 1326.345, 447.089 1325.689, 446.333 1324.933 C 445.576 1324.176, 445.074 1324.364, 444.609 1325.576 M 452.794 1331.948 C 452.314 1335.218, 453.607 1338.361, 455.061 1337.462 C 455.578 1337.143, 456 1335.109, 456 1332.941 C 456 1328.192, 453.461 1327.405, 452.794 1331.948 M 328 1331 C 328 1331.550, 328.450 1332, 329 1332 C 329.550 1332, 330 1331.550, 330 1331 C 330 1330.450, 329.550 1330, 329 1330 C 328.450 1330, 328 1330.450, 328 1331 M 316.500 1334 C 316.840 1334.550, 317.793 1335, 318.618 1335 C 319.443 1335, 319.840 1334.550, 319.500 1334 C 319.160 1333.450, 318.207 1333, 317.382 1333 C 316.557 1333, 316.160 1333.450, 316.500 1334 M 406.500 1337 C 406.840 1337.550, 407.316 1338, 407.559 1338 C 407.802 1338, 408 1337.550, 408 1337 C 408 1336.450, 407.523 1336, 406.941 1336 C 406.359 1336, 406.160 1336.450, 406.500 1337 M 319 1338.383 C 319 1338.594, 319.901 1339.002, 321.001 1339.290 C 322.102 1339.578, 322.751 1339.405, 322.442 1338.907 C 321.904 1338.036, 319 1337.594, 319 1338.383 M 412.252 1341.500 C 412.263 1343.700, 412.468 1344.482, 412.707 1343.238 C 412.946 1341.994, 412.937 1340.194, 412.687 1339.238 C 412.437 1338.282, 412.241 1339.300, 412.252 1341.500 M 404.116 1343.731 C 404.187 1345.422, 404.410 1345.819, 404.689 1344.750 C 404.977 1343.651, 406.111 1343, 407.740 1343 C 410.840 1343, 410.496 1342.520, 406.750 1341.622 C 404.237 1341.019, 404.010 1341.200, 404.116 1343.731 M 438.521 1355.232 C 438.110 1358.384, 438.128 1362.209, 438.559 1363.732 C 439.262 1366.208, 439.443 1365.901, 440.277 1360.813 C 440.868 1357.206, 440.853 1354.096, 440.238 1352.313 C 439.335 1349.697, 439.215 1349.901, 438.521 1355.232 M 267 1353.500 C 267 1354.325, 267.450 1355, 268 1355 C 268.550 1355, 269 1354.325, 269 1353.500 C 269 1352.675, 268.550 1352, 268 1352 C 267.450 1352, 267 1352.675, 267 1353.500 M 443.079 1362.583 C 443.127 1363.748, 443.364 1363.985, 443.683 1363.188 C 443.972 1362.466, 443.936 1361.603, 443.604 1361.271 C 443.272 1360.939, 443.036 1361.529, 443.079 1362.583 M 460.482 1377.949 C 461.004 1388.681, 461.915 1391.075, 462.183 1382.417 C 462.434 1374.289, 462.097 1370.697, 460.979 1369.579 C 460.379 1368.979, 460.196 1372.065, 460.482 1377.949 M 267.634 1372.822 C 267.181 1374.648, 267.078 1376.411, 267.405 1376.738 C 268.535 1377.868, 269.140 1376.181, 268.800 1372.846 L 268.459 1369.500 267.634 1372.822 M 392.015 1370.781 C 392.024 1371.177, 392.411 1372.100, 392.876 1372.834 C 393.564 1373.919, 393.829 1373.888, 394.298 1372.667 C 394.615 1371.841, 394.227 1370.917, 393.437 1370.614 C 392.647 1370.311, 392.007 1370.386, 392.015 1370.781 M 438.191 1376.753 C 437.990 1380.499, 438.222 1382.152, 438.858 1381.500 C 439.999 1380.330, 440.281 1378.708, 440.118 1374.250 C 439.920 1368.812, 438.520 1370.630, 438.191 1376.753 M 365 1375 C 365 1375.550, 365.450 1376, 366 1376 C 366.550 1376, 367 1375.550, 367 1375 C 367 1374.450, 366.550 1374, 366 1374 C 365.450 1374, 365 1374.450, 365 1375 M 406 1377.882 C 406 1378.432, 406.450 1379.160, 407 1379.500 C 407.550 1379.840, 408 1379.668, 408 1379.118 C 408 1378.568, 407.550 1377.840, 407 1377.500 C 406.450 1377.160, 406 1377.332, 406 1377.882 M 268.086 1391.550 C 268.171 1395.454, 268.182 1395.465, 269.060 1392.524 C 269.609 1390.684, 269.576 1389.176, 268.974 1388.574 C 268.342 1387.942, 268.030 1388.987, 268.086 1391.550 M 352 1390.441 C 352 1391.234, 352.450 1392.160, 353 1392.500 C 353.550 1392.840, 354 1392.191, 354 1391.059 C 354 1389.927, 353.550 1389, 353 1389 C 352.450 1389, 352 1389.648, 352 1390.441 M 403.232 1397 C 403.232 1398.925, 403.438 1399.713, 403.689 1398.750 C 403.941 1397.787, 403.941 1396.213, 403.689 1395.250 C 403.438 1394.287, 403.232 1395.075, 403.232 1397 M 352 1395.941 C 352 1396.459, 352.450 1397.160, 353 1397.500 C 353.550 1397.840, 354 1397.416, 354 1396.559 C 354 1395.702, 353.550 1395, 353 1395 C 352.450 1395, 352 1395.423, 352 1395.941 M 410 1400 C 410 1400.550, 410.450 1401, 411 1401 C 411.550 1401, 412 1400.550, 412 1400 C 412 1399.450, 411.550 1399, 411 1399 C 410.450 1399, 410 1399.450, 410 1400 M 352.393 1403.471 C 352.755 1405.937, 354 1406.476, 354 1404.167 C 354 1402.975, 353.590 1402, 353.088 1402 C 352.587 1402, 352.274 1402.662, 352.393 1403.471 M 369.015 1402.750 C 369.024 1403.162, 369.467 1404.175, 370 1405 C 370.784 1406.213, 370.972 1406.069, 370.985 1404.250 C 370.993 1403.013, 370.550 1402, 370 1402 C 369.450 1402, 369.007 1402.338, 369.015 1402.750 M 373.158 1405 C 373.158 1406.375, 373.385 1406.938, 373.662 1406.250 C 373.940 1405.563, 373.940 1404.438, 373.662 1403.750 C 373.385 1403.063, 373.158 1403.625, 373.158 1405 M 381.272 1410 C 381.272 1412.475, 381.467 1413.487, 381.706 1412.250 C 381.944 1411.013, 381.944 1408.987, 381.706 1407.750 C 381.467 1406.513, 381.272 1407.525, 381.272 1410 M 328.079 1413.583 C 328.127 1414.748, 328.364 1414.985, 328.683 1414.188 C 328.972 1413.466, 328.936 1412.603, 328.604 1412.271 C 328.272 1411.939, 328.036 1412.529, 328.079 1413.583 M 370.195 1414.500 C 370.215 1416.150, 370.439 1416.704, 370.693 1415.731 C 370.947 1414.758, 370.930 1413.408, 370.656 1412.731 C 370.382 1412.054, 370.175 1412.850, 370.195 1414.500 M 459 1420 C 459 1421.100, 459.450 1422, 460 1422 C 460.550 1422, 461 1421.100, 461 1420 C 461 1418.900, 460.550 1418, 460 1418 C 459.450 1418, 459 1418.900, 459 1420 M 365.232 1423 C 365.232 1424.925, 365.438 1425.713, 365.689 1424.750 C 365.941 1423.787, 365.941 1422.213, 365.689 1421.250 C 365.438 1420.287, 365.232 1421.075, 365.232 1423 M 294.500 1432 C 294.160 1432.550, 294.359 1433, 294.941 1433 C 295.523 1433, 296 1432.550, 296 1432 C 296 1431.450, 295.802 1431, 295.559 1431 C 295.316 1431, 294.840 1431.450, 294.500 1432 M 402.079 1438.583 C 402.127 1439.748, 402.364 1439.985, 402.683 1439.188 C 402.972 1438.466, 402.936 1437.603, 402.604 1437.271 C 402.272 1436.939, 402.036 1437.529, 402.079 1438.583 M 365.500 1440 C 365.840 1440.550, 366.316 1441, 366.559 1441 C 366.802 1441, 367 1440.550, 367 1440 C 367 1439.450, 366.523 1439, 365.941 1439 C 365.359 1439, 365.160 1439.450, 365.500 1440 M 391.667 1440.667 C 391.300 1441.033, 391 1441.798, 391 1442.367 C 391 1442.993, 391.466 1442.934, 392.183 1442.217 C 392.834 1441.566, 393.134 1440.801, 392.850 1440.517 C 392.566 1440.233, 392.033 1440.300, 391.667 1440.667 M 402.079 1442.583 C 402.127 1443.748, 402.364 1443.985, 402.683 1443.188 C 402.972 1442.466, 402.936 1441.603, 402.604 1441.271 C 402.272 1440.939, 402.036 1441.529, 402.079 1442.583 M 375.079 1485.583 C 375.127 1486.748, 375.364 1486.985, 375.683 1486.188 C 375.972 1485.466, 375.936 1484.603, 375.604 1484.271 C 375.272 1483.939, 375.036 1484.529, 375.079 1485.583 M 352.079 1492.583 C 352.127 1493.748, 352.364 1493.985, 352.683 1493.188 C 352.972 1492.466, 352.936 1491.603, 352.604 1491.271 C 352.272 1490.939, 352.036 1491.529, 352.079 1492.583 M 384 1500.500 C 384 1502.657, 384.404 1503.869, 385 1503.500 C 385.550 1503.160, 386 1501.810, 386 1500.500 C 386 1499.190, 385.550 1497.840, 385 1497.500 C 384.404 1497.131, 384 1498.343, 384 1500.500 M 389.638 1503.500 C 389.322 1504.325, 389.499 1505, 390.031 1505 C 390.564 1505, 391 1504.325, 391 1503.500 C 391 1502.675, 390.823 1502, 390.607 1502 C 390.391 1502, 389.955 1502.675, 389.638 1503.500 M 352.015 1507.250 C 352.007 1508.763, 352.450 1510, 353 1510 C 354.264 1510, 354.264 1507.957, 353 1506 C 352.245 1504.831, 352.027 1505.107, 352.015 1507.250 M 335.079 1510.583 C 335.127 1511.748, 335.364 1511.985, 335.683 1511.188 C 335.972 1510.466, 335.936 1509.603, 335.604 1509.271 C 335.272 1508.939, 335.036 1509.529, 335.079 1510.583 M 376.079 1516.583 C 376.127 1517.748, 376.364 1517.985, 376.683 1517.188 C 376.972 1516.466, 376.936 1515.603, 376.604 1515.271 C 376.272 1514.939, 376.036 1515.529, 376.079 1516.583 M 369 1518.559 C 369 1520.010, 369.433 1520.851, 370 1520.500 C 370.550 1520.160, 371 1519.009, 371 1517.941 C 371 1516.873, 370.550 1516, 370 1516 C 369.450 1516, 369 1517.152, 369 1518.559 M 376.207 1522.595 C 375.196 1524.401, 375.804 1529, 377.054 1529 C 377.505 1529, 377.850 1527.200, 377.819 1525 C 377.759 1520.586, 377.526 1520.238, 376.207 1522.595 M 383.032 1522.281 C 383.076 1523.986, 385.851 1527.482, 386.581 1526.752 C 387.537 1525.796, 386.068 1522.240, 384.462 1521.624 C 383.658 1521.315, 383.014 1521.611, 383.032 1522.281 M 370 1525.941 C 370 1528.173, 370.361 1530, 370.802 1530 C 371.917 1530, 372.008 1523.123, 370.901 1522.439 C 370.405 1522.133, 370 1523.709, 370 1525.941 M 377.015 1542.250 C 377.007 1544.313, 377.450 1546, 378 1546 C 379.274 1546, 379.274 1541.971, 378 1540 C 377.279 1538.884, 377.027 1539.461, 377.015 1542.250 M 372 1549.059 C 372 1550.191, 372.450 1550.840, 373 1550.500 C 373.550 1550.160, 374 1549.234, 374 1548.441 C 374 1547.648, 373.550 1547, 373 1547 C 372.450 1547, 372 1547.927, 372 1549.059 M 338.446 1549.087 C 338.077 1549.685, 338.275 1550.675, 338.887 1551.287 C 339.704 1552.104, 340 1551.815, 340 1550.200 C 340 1547.785, 339.481 1547.413, 338.446 1549.087 M 378 1551 C 378 1551.550, 378.450 1552, 379 1552 C 379.550 1552, 380 1551.550, 380 1551 C 380 1550.450, 379.550 1550, 379 1550 C 378.450 1550, 378 1550.450, 378 1551 M 373.079 1555.583 C 373.127 1556.748, 373.364 1556.985, 373.683 1556.188 C 373.972 1555.466, 373.936 1554.603, 373.604 1554.271 C 373.272 1553.939, 373.036 1554.529, 373.079 1555.583 M 357.158 1560 C 357.158 1561.375, 357.385 1561.938, 357.662 1561.250 C 357.940 1560.563, 357.940 1559.438, 357.662 1558.750 C 357.385 1558.063, 357.158 1558.625, 357.158 1560 M 308.079 1564.583 C 308.127 1565.748, 308.364 1565.985, 308.683 1565.188 C 308.972 1564.466, 308.936 1563.603, 308.604 1563.271 C 308.272 1562.939, 308.036 1563.529, 308.079 1564.583 M 374 1566.941 C 374 1568.009, 374.450 1569.160, 375 1569.500 C 375.567 1569.851, 376 1569.010, 376 1567.559 C 376 1566.152, 375.550 1565, 375 1565 C 374.450 1565, 374 1565.873, 374 1566.941 M 380 1567.382 C 380 1568.207, 380.450 1569.160, 381 1569.500 C 381.550 1569.840, 382 1569.443, 382 1568.618 C 382 1567.793, 381.550 1566.840, 381 1566.500 C 380.450 1566.160, 380 1566.557, 380 1567.382 M 395 1573 C 395 1573.550, 395.927 1574, 397.059 1574 C 398.191 1574, 398.840 1573.550, 398.500 1573 C 398.160 1572.450, 397.234 1572, 396.441 1572 C 395.648 1572, 395 1572.450, 395 1573 M 359.195 1575.500 C 359.215 1577.150, 359.439 1577.704, 359.693 1576.731 C 359.947 1575.758, 359.930 1574.408, 359.656 1573.731 C 359.382 1573.054, 359.175 1573.850, 359.195 1575.500 M 377.077 1585.191 C 377.035 1587.771, 377.403 1590.131, 377.895 1590.435 C 379.458 1591.401, 379.695 1588.636, 378.403 1584.500 L 377.154 1580.500 377.077 1585.191 M 378.500 1593 C 378.840 1593.550, 379.316 1594, 379.559 1594 C 379.802 1594, 380 1593.550, 380 1593 C 380 1592.450, 379.523 1592, 378.941 1592 C 378.359 1592, 378.160 1592.450, 378.500 1593 M 467.638 1614.500 C 467.955 1615.325, 468.616 1616, 469.107 1616 C 469.598 1616, 470 1615.325, 470 1614.500 C 470 1613.675, 469.339 1613, 468.531 1613 C 467.637 1613, 467.288 1613.586, 467.638 1614.500 M 313.500 1618 C 313.840 1618.550, 314.316 1619, 314.559 1619 C 314.802 1619, 315 1618.550, 315 1618 C 315 1617.450, 314.523 1617, 313.941 1617 C 313.359 1617, 313.160 1617.450, 313.500 1618 M 382.852 1625.741 C 383.067 1629.999, 383.591 1634.387, 384.016 1635.491 C 384.521 1636.806, 384.697 1635.945, 384.523 1633 C 384.377 1630.525, 384.200 1626.138, 384.129 1623.250 C 384.058 1620.362, 383.654 1618, 383.231 1618 C 382.807 1618, 382.637 1621.484, 382.852 1625.741 M 368.079 1625.583 C 368.127 1626.748, 368.364 1626.985, 368.683 1626.188 C 368.972 1625.466, 368.936 1624.603, 368.604 1624.271 C 368.272 1623.939, 368.036 1624.529, 368.079 1625.583 M 476 1629 C 476 1629.550, 476.477 1630, 477.059 1630 C 477.641 1630, 477.840 1629.550, 477.500 1629 C 477.160 1628.450, 476.684 1628, 476.441 1628 C 476.198 1628, 476 1628.450, 476 1629 M 412.079 1651.583 C 412.127 1652.748, 412.364 1652.985, 412.683 1652.188 C 412.972 1651.466, 412.936 1650.603, 412.604 1650.271 C 412.272 1649.939, 412.036 1650.529, 412.079 1651.583 M 418.505 1654.250 C 418.145 1656.037, 416.904 1659.857, 415.746 1662.738 C 413.698 1667.836, 413.764 1669.882, 415.933 1668.541 C 416.520 1668.179, 417.003 1667.121, 417.006 1666.191 C 417.010 1665.261, 417.589 1663.375, 418.294 1662 C 419.561 1659.529, 420.617 1651, 419.656 1651 C 419.383 1651, 418.865 1652.463, 418.505 1654.250 M 438.454 1656.260 C 438.117 1657.137, 438.016 1658.900, 438.230 1660.177 C 438.612 1662.470, 438.635 1662.464, 439.981 1659.723 C 441.003 1657.644, 441.059 1656.659, 440.206 1655.806 C 439.352 1654.952, 438.912 1655.066, 438.454 1656.260 M 419.459 1664.067 C 419.096 1664.653, 419.014 1665.348, 419.276 1665.610 C 419.538 1665.872, 420.019 1665.392, 420.345 1664.543 C 421.021 1662.781, 420.445 1662.471, 419.459 1664.067" stroke="none" fill="black" fill-rule="evenodd"/>
</svg>