<svg xmlns="http://www.w3.org/2000/svg" width="1240" height="1753" viewBox="0 0 1240 1753" version="1.1">
	<path d="M 1075.817 20.516 C 1075.507 20.827, 1055.058 21.263, 1030.376 21.485 C 1005.694 21.708, 982.350 22.104, 978.500 22.366 C 969.572 22.973, 936.254 24.160, 920 24.450 C 913.125 24.572, 896.250 24.978, 882.500 25.352 C 851.480 26.195, 726.384 28.052, 676 28.417 C 655.375 28.567, 630.400 29.217, 620.500 29.862 C 582.625 32.331, 516.259 34.021, 486.500 33.274 C 481.550 33.150, 470.750 33.267, 462.500 33.535 C 454.250 33.802, 427.250 34.492, 402.500 35.067 C 377.750 35.642, 350.075 36.753, 341 37.537 C 331.925 38.320, 315.725 39.404, 305 39.945 C 283.424 41.033, 278.533 41.452, 262.590 43.579 C 256.589 44.380, 244.664 45.280, 236.090 45.580 C 227.515 45.880, 216.912 46.547, 212.526 47.063 C 208.141 47.578, 197.898 48, 189.765 48 C 175.328 48, 132.525 52.541, 124.102 54.967 C 122.234 55.505, 117.059 56.436, 112.602 57.037 C 108.146 57.637, 100.225 59.188, 95 60.484 C 89.775 61.779, 81 63.581, 75.500 64.489 C 59.256 67.170, 58.564 68.962, 60.022 104.533 C 60.818 123.947, 60.737 129.336, 59.566 134.824 C 56.516 149.119, 56.840 155.964, 61.467 175 C 65.666 192.278, 65.866 195.647, 65.090 236 C 64.718 255.327, 65.529 266.352, 67.550 269.435 C 68.474 270.846, 68.761 272, 68.187 272 C 67.613 272, 66.834 274.587, 66.456 277.750 C 66.009 281.478, 65.023 284.313, 63.651 285.812 C 61.669 287.978, 61.634 288.297, 63.101 290.853 C 64.615 293.491, 64.091 296.311, 61.763 298.051 C 61.357 298.354, 61.431 300.017, 61.927 301.746 C 62.503 303.754, 62.470 305.010, 61.835 305.222 C 61.289 305.404, 60.589 309.236, 60.281 313.738 C 59.592 323.788, 60.758 326.034, 68.427 329.425 C 81.353 335.142, 97.249 336.354, 120.030 333.362 C 135.855 331.283, 213.126 331.161, 259.500 333.142 C 298.804 334.820, 325.236 334.817, 340.500 333.131 C 358.898 331.098, 376.910 328.908, 383 327.963 C 388.176 327.159, 394.359 326.545, 423.500 323.936 C 430.100 323.345, 442.197 321.956, 450.382 320.849 C 466.820 318.626, 507.222 317.827, 529.500 319.285 C 537.975 319.840, 541.059 319.762, 540 319.019 C 538.864 318.222, 539.532 318.018, 542.750 318.179 C 545.088 318.296, 547 318.753, 547 319.196 C 547 319.638, 547.675 320, 548.500 320 C 549.325 320, 550 319.633, 550 319.184 C 550 317.883, 575.222 317.741, 576.024 319.038 C 576.502 319.813, 578.240 319.865, 581.825 319.214 C 584.640 318.702, 586.704 318.670, 586.412 319.142 C 586.121 319.614, 586.584 320, 587.441 320 C 588.298 320, 589 319.663, 589 319.250 C 589 318.837, 619.488 318.421, 656.750 318.324 C 720.763 318.157, 728.928 317.866, 749 315.027 C 758.396 313.699, 791.411 311.067, 808.142 310.312 C 820.404 309.759, 820.804 309.806, 821.459 311.871 C 822.307 314.543, 821.413 317.402, 818.137 322.500 C 814.719 327.819, 812.513 331.574, 809.618 337 C 808.298 339.475, 803.794 347.017, 799.609 353.760 C 795.424 360.503, 792 366.151, 792 366.311 C 792 366.470, 788.944 372.203, 785.208 379.051 C 781.473 385.898, 777.342 393.750, 776.029 396.500 C 774.716 399.250, 772.597 402.892, 771.321 404.594 C 770.044 406.296, 769 408.021, 769 408.426 C 769 408.832, 767.370 411.939, 765.379 415.332 C 763.387 418.724, 757.359 429.600, 751.983 439.500 C 746.607 449.400, 739.574 462.097, 736.354 467.715 C 733.134 473.333, 727.406 483.354, 723.625 489.983 C 719.844 496.612, 716.356 502.280, 715.875 502.577 C 715.394 502.875, 715 503.727, 715 504.472 C 715 506.479, 696.435 536.116, 691.759 541.574 C 690.781 542.715, 687.398 547.894, 684.241 553.083 C 677.016 564.957, 665.370 581.796, 657.250 592.112 C 653.813 596.478, 651 600.715, 651 601.526 C 651 602.336, 650.606 603, 650.125 603 C 649.644 603, 646.970 606.298, 644.183 610.329 C 641.396 614.360, 638.415 618.240, 637.558 618.952 C 636.701 619.663, 636 620.683, 636 621.219 C 636 621.755, 633.612 625.862, 630.692 630.347 C 627.773 634.831, 624.064 640.975, 622.450 644 C 620.836 647.025, 619.260 649.725, 618.948 650 C 618.636 650.275, 616.194 654.100, 613.522 658.500 C 610.850 662.900, 606.800 669.425, 604.524 673 C 602.247 676.575, 598.878 682.200, 597.038 685.500 C 595.198 688.800, 592.791 693.075, 591.690 695 C 590.588 696.925, 589.133 699.539, 588.456 700.809 C 587.780 702.079, 586.838 703.161, 586.363 703.214 C 585.573 703.302, 579 713.458, 579 714.591 C 579 714.860, 578.165 716.300, 577.143 717.790 C 576.122 719.281, 574.435 721.805, 573.393 723.399 C 572.352 724.994, 570.825 727.286, 570 728.493 C 569.175 729.700, 567.187 732.670, 565.583 735.094 C 563.979 737.517, 560.941 742.047, 558.833 745.159 C 556.725 748.271, 555 751.230, 555 751.734 C 555 752.238, 553.001 755.225, 550.558 758.371 C 546.925 763.049, 532.478 784.944, 528.500 791.800 C 527.950 792.748, 523.946 798.918, 519.602 805.512 C 515.258 812.105, 510.729 819.075, 509.538 821 C 508.348 822.925, 505.319 827.650, 502.809 831.500 C 500.298 835.350, 496.116 842.100, 493.514 846.500 C 487.451 856.755, 484.313 861.870, 480.131 868.311 C 478.278 871.165, 474.533 877.775, 471.808 883 C 469.083 888.225, 466.310 893.175, 465.645 894 C 464.980 894.825, 463.375 897.525, 462.079 900 C 460.782 902.475, 458.272 906.750, 456.502 909.500 C 447.158 924.016, 447.026 924.230, 440.250 935.785 C 437.363 940.709, 435 945.298, 435 945.983 C 435 948.055, 430.703 955.281, 427.259 959 C 425.476 960.925, 424.013 962.869, 424.009 963.320 C 424.004 963.771, 422.706 966.021, 421.124 968.320 C 419.542 970.619, 418.224 972.725, 418.194 973 C 418.165 973.275, 417.659 974.767, 417.070 976.315 C 416.482 977.863, 416 979.523, 416 980.003 C 416 980.484, 414.637 982.367, 412.971 984.188 C 411.305 986.010, 409.016 989.410, 407.884 991.744 C 406.753 994.079, 405.385 996.262, 404.845 996.596 C 404.305 996.929, 404.114 997.855, 404.420 998.653 C 404.727 999.451, 404.641 999.896, 404.230 999.642 C 403.818 999.388, 402.626 1000.939, 401.580 1003.090 C 400.534 1005.240, 399.301 1007, 398.839 1007 C 398.378 1007, 398 1007.458, 398 1008.017 C 398 1008.576, 395.975 1012.370, 393.500 1016.447 C 391.025 1020.524, 389 1024.103, 389 1024.401 C 389 1024.698, 387.692 1026.867, 386.093 1029.221 C 381.726 1035.647, 374.524 1048.397, 374.777 1049.250 C 374.900 1049.662, 374.550 1050, 374 1050 C 373.450 1050, 373 1050.675, 373 1051.500 C 373 1052.325, 372.580 1053, 372.067 1053 C 371.554 1053, 370.828 1054.012, 370.452 1055.250 C 370.077 1056.487, 368.978 1058.400, 368.009 1059.500 C 367.041 1060.600, 365.442 1063.300, 364.457 1065.500 C 363.471 1067.700, 362.122 1070.175, 361.459 1071 C 360.796 1071.825, 359.689 1074.300, 359 1076.500 C 358.311 1078.700, 357.197 1081.175, 356.526 1082 C 355.854 1082.825, 355.009 1084.400, 354.650 1085.500 L 353.995 1087.500 355.554 1085.500 C 357.045 1083.586, 357.085 1083.629, 356.482 1086.500 C 356.135 1088.150, 355.810 1090.043, 355.759 1090.706 C 355.708 1091.369, 355.280 1091.673, 354.807 1091.381 C 353.937 1090.843, 351.361 1096.806, 351.807 1098.324 C 351.940 1098.778, 351.639 1098.895, 351.138 1098.585 C 350.027 1097.898, 347.756 1100.423, 348.666 1101.333 C 349.023 1101.690, 348.007 1103.307, 346.408 1104.926 C 342.825 1108.552, 341 1110.751, 341 1111.440 C 341 1111.729, 339.200 1114.906, 337 1118.500 C 334.800 1122.094, 333 1125.286, 333 1125.593 C 333 1125.899, 330.975 1129.280, 328.500 1133.106 C 326.025 1136.932, 324 1140.635, 324 1141.335 C 324 1142.036, 322.701 1144.657, 321.113 1147.161 C 319.525 1149.665, 317.920 1152.678, 317.545 1153.857 C 317.171 1155.036, 316.476 1156, 316 1156 C 315.524 1156, 314.829 1156.964, 314.455 1158.143 C 313.611 1160.801, 305.493 1173.616, 302.510 1177 C 301.297 1178.375, 298.681 1182.200, 296.696 1185.500 C 294.710 1188.800, 292.054 1192.690, 290.793 1194.145 C 287.038 1198.475, 280.193 1207.969, 274.675 1216.500 C 271.829 1220.900, 266.984 1227.875, 263.909 1232 C 255.931 1242.702, 238.072 1269.492, 232.548 1279.042 C 229.096 1285.012, 220.705 1297.872, 216.750 1303.256 C 214.687 1306.064, 213 1308.955, 213 1309.681 C 213 1310.406, 212.550 1311, 212 1311 C 211.450 1311, 211 1311.489, 211 1312.087 C 211 1312.684, 209.600 1315.122, 207.890 1317.504 C 206.035 1320.087, 205.088 1322.334, 205.544 1323.072 C 206.071 1323.925, 205.897 1324.055, 204.985 1323.490 C 204.015 1322.891, 203.836 1323.132, 204.319 1324.388 C 204.691 1325.357, 204.569 1325.852, 204.039 1325.524 C 203.523 1325.205, 202.560 1325.969, 201.900 1327.222 C 201.241 1328.475, 200.426 1329.725, 200.091 1330 C 198.997 1330.897, 194.431 1338.412, 192.648 1342.250 C 191.690 1344.312, 190.268 1346, 189.488 1346 C 187.709 1346, 185.664 1349.683, 186.392 1351.578 C 186.708 1352.403, 186.330 1353, 185.492 1353 C 183.998 1353, 181.377 1356.365, 180.818 1359 C 180.643 1359.825, 179.682 1361.109, 178.683 1361.854 C 177.683 1362.598, 177.107 1363.836, 177.401 1364.604 C 177.696 1365.372, 177.501 1366, 176.969 1366 C 176.436 1366, 176 1366.689, 176 1367.531 C 176 1368.374, 175.369 1369.305, 174.599 1369.601 C 173.434 1370.047, 172.535 1371.684, 171.633 1375 C 171.558 1375.275, 170.546 1376.850, 169.383 1378.500 C 168.220 1380.150, 166.476 1383.075, 165.507 1385 C 164.538 1386.925, 161.553 1390.690, 158.873 1393.366 C 156.193 1396.042, 154 1398.630, 154 1399.116 C 154 1399.602, 153.433 1400, 152.739 1400 C 152.045 1400, 150.358 1401.403, 148.989 1403.119 C 147.620 1404.834, 145.488 1407.289, 144.250 1408.573 C 143.012 1409.858, 142 1411.380, 142 1411.955 C 142 1412.530, 141.550 1413, 141 1413 C 140.450 1413, 140 1412.550, 140 1412 C 140 1411.450, 139.520 1411, 138.933 1411 C 138.320 1411, 138.136 1411.853, 138.500 1413 C 138.936 1414.373, 138.680 1415, 137.684 1415 C 136.886 1415, 135.945 1415.788, 135.592 1416.750 C 134.069 1420.903, 131.702 1424.103, 129.191 1425.401 C 124.216 1427.974, 120.250 1434, 123.533 1434 C 124.519 1434, 124.757 1435.022, 124.403 1437.750 C 123.300 1446.277, 122.469 1448.355, 119.502 1449.999 C 117.884 1450.896, 116.254 1452.726, 115.879 1454.065 C 115.405 1455.762, 115.169 1455.952, 115.100 1454.691 C 115.045 1453.696, 114.532 1453.171, 113.959 1453.525 C 113.387 1453.879, 113.192 1455.030, 113.527 1456.084 C 113.990 1457.544, 113.650 1458, 112.099 1458 C 110.700 1458, 110.243 1458.469, 110.638 1459.500 C 110.959 1460.334, 110.666 1461, 109.979 1461 C 109.076 1461, 108.945 1462.141, 109.492 1465.250 C 109.902 1467.588, 110.346 1470.175, 110.478 1471 C 110.609 1471.825, 111.172 1473.625, 111.728 1475 C 112.931 1477.976, 114.202 1486.833, 114.269 1492.711 C 114.296 1495.027, 114.665 1496.707, 115.090 1496.445 C 115.514 1496.182, 116.144 1496.425, 116.490 1496.984 C 116.835 1497.543, 116.364 1498, 115.442 1498 C 114.190 1498, 113.889 1498.638, 114.249 1500.524 C 114.515 1501.912, 114.400 1503.253, 113.995 1503.503 C 113.589 1503.754, 113.451 1507.768, 113.688 1512.424 C 114.032 1519.179, 113.781 1521.405, 112.444 1523.444 C 111.432 1524.989, 111.211 1526, 111.885 1526 C 112.498 1526, 113 1526.873, 113 1527.941 C 113 1529.009, 113.421 1530.142, 113.936 1530.461 C 114.916 1531.066, 114.943 1531.276, 115.137 1539.750 C 115.203 1542.638, 115.650 1545, 116.129 1545 C 116.608 1545, 117.036 1545.787, 117.079 1546.750 C 117.132 1547.936, 117.330 1548.068, 117.692 1547.161 C 118.063 1546.230, 118.590 1546.535, 119.416 1548.161 C 120.503 1550.298, 120.341 1550.602, 117.553 1551.674 L 114.500 1552.848 118.250 1552.924 C 122.034 1553.001, 123.302 1554.563, 120.464 1555.652 C 119.092 1556.179, 119.099 1556.502, 120.531 1558.688 C 121.702 1560.475, 121.843 1561.484, 121.055 1562.434 C 118.549 1565.454, 126.309 1566.812, 135.506 1564.963 C 136.053 1564.853, 137.748 1564.816, 139.273 1564.882 C 142.002 1564.998, 142.020 1565.040, 140.397 1567.517 C 139.401 1569.037, 138.302 1569.725, 137.624 1569.253 C 134.923 1567.372, 122 1569.689, 122 1572.054 C 122 1572.500, 122.973 1573.174, 124.163 1573.552 C 126.079 1574.160, 126.136 1574.344, 124.663 1575.169 C 122.719 1576.257, 122.432 1578.969, 124.250 1579.068 C 124.938 1579.105, 124.480 1579.627, 123.233 1580.228 C 121.873 1580.883, 121.146 1581.956, 121.415 1582.910 C 122.936 1588.315, 124.060 1596.378, 123.653 1598.966 C 123.390 1600.629, 123.608 1602.258, 124.137 1602.584 C 124.721 1602.945, 124.619 1603.755, 123.876 1604.650 C 123.204 1605.459, 122.532 1607.782, 122.382 1609.811 C 122.114 1613.461, 121.316 1618.500, 121.007 1618.500 C 120.373 1618.500, 120.090 1623.096, 120.555 1625.834 C 120.947 1628.135, 121.552 1629.002, 122.511 1628.634 C 123.591 1628.220, 123.855 1629.148, 123.700 1632.801 C 123.590 1635.385, 123.161 1637.753, 122.746 1638.062 C 121.482 1639.002, 121.668 1656.115, 123.010 1662.500 C 123.704 1665.800, 124.378 1669.400, 124.508 1670.500 C 124.638 1671.600, 124.802 1672.783, 124.872 1673.129 C 125.058 1674.041, 130.014 1675.938, 133.500 1676.430 C 135.150 1676.663, 139.425 1677.380, 143 1678.024 C 150.619 1679.395, 173.800 1678.735, 199.500 1676.414 C 212.300 1675.259, 217.982 1675.138, 222.500 1675.925 C 245.953 1680.011, 248.712 1680.133, 327 1680.538 C 369.075 1680.756, 412.275 1681.229, 423 1681.591 C 434.206 1681.968, 452.071 1681.755, 465 1681.090 C 477.375 1680.453, 498.300 1679.734, 511.500 1679.492 C 524.700 1679.249, 550.575 1678.747, 569 1678.377 C 587.425 1678.006, 608.350 1677.596, 615.500 1677.467 C 622.650 1677.337, 641.550 1676.920, 657.500 1676.539 C 674.498 1676.134, 699.329 1676.311, 717.500 1676.967 C 734.550 1677.582, 758.175 1678.244, 770 1678.437 C 781.825 1678.630, 793.075 1679.252, 795 1679.819 C 799.832 1681.242, 807.918 1681.804, 833.500 1682.498 C 845.600 1682.827, 860 1683.507, 865.500 1684.010 C 875.819 1684.955, 914.275 1685.431, 924 1684.735 C 934.981 1683.949, 942.532 1682.705, 944 1681.440 C 944.825 1680.729, 947.300 1679.965, 949.500 1679.742 C 952.466 1679.441, 951.690 1679.247, 946.500 1678.990 C 942.650 1678.799, 938.712 1678.647, 937.750 1678.651 C 936.788 1678.655, 936 1678.286, 936 1677.829 C 936 1677.373, 939.263 1676.980, 943.250 1676.956 C 947.237 1676.932, 966.925 1676.719, 987 1676.483 C 1010.481 1676.206, 1022.965 1676.395, 1022 1677.011 C 1020.935 1677.692, 1022.239 1678.030, 1026.500 1678.179 C 1029.800 1678.295, 1033.625 1678.456, 1035 1678.537 C 1036.375 1678.618, 1044.925 1679.026, 1054 1679.445 C 1063.075 1679.863, 1071.850 1680.378, 1073.500 1680.589 C 1087.867 1682.429, 1094.826 1682.807, 1098.908 1681.969 C 1101.446 1681.449, 1113.789 1681.250, 1126.500 1681.525 C 1139.150 1681.798, 1157.935 1682.202, 1168.245 1682.423 C 1178.555 1682.644, 1187.204 1682.479, 1187.465 1682.056 C 1187.726 1681.634, 1190.269 1681.512, 1193.116 1681.785 C 1196.894 1682.148, 1198.099 1681.969, 1197.574 1681.120 C 1197.122 1680.388, 1198.177 1679.406, 1200.428 1678.466 C 1204.339 1676.831, 1204.776 1675.889, 1202.500 1674 C 1201.464 1673.140, 1201 1673.102, 1201 1673.878 C 1201 1674.495, 1200.213 1674.993, 1199.250 1674.985 C 1197.754 1674.972, 1197.718 1674.828, 1199 1674 C 1200.266 1673.182, 1200.213 1673.028, 1198.658 1673.015 C 1197.644 1673.007, 1195.671 1672.100, 1194.273 1671 C 1192.874 1669.900, 1191.116 1669, 1190.365 1669 C 1189.078 1669, 1188.577 1667.431, 1188.769 1664 C 1188.830 1662.902, 1188.470 1663.021, 1187.426 1664.441 C 1186.642 1665.509, 1186 1666.971, 1186 1667.691 C 1186 1668.411, 1185.536 1669, 1184.969 1669 C 1183.313 1669, 1182.669 1666.104, 1183.974 1664.531 C 1184.633 1663.737, 1184.901 1662.649, 1184.570 1662.113 C 1184.238 1661.577, 1184.432 1660.851, 1185 1660.500 C 1185.568 1660.149, 1185.688 1659.330, 1185.266 1658.681 C 1184.845 1658.031, 1184.455 1656.375, 1184.399 1655 C 1184.344 1653.625, 1183.925 1651.627, 1183.469 1650.560 C 1182.943 1649.328, 1183.050 1648.483, 1183.764 1648.245 C 1184.382 1648.039, 1184.661 1647.280, 1184.384 1646.558 C 1183.959 1645.451, 1188.381 1644.168, 1194 1643.767 C 1194.275 1643.747, 1195.093 1642.884, 1195.818 1641.849 C 1197.559 1639.363, 1199 1640.391, 1199 1644.118 C 1199 1646.154, 1199.376 1646.886, 1200.170 1646.395 C 1200.939 1645.919, 1201.136 1646.203, 1200.745 1647.223 C 1200.300 1648.381, 1200.644 1648.644, 1202.103 1648.263 C 1203.529 1647.890, 1203.885 1647.212, 1203.421 1645.751 C 1202.999 1644.423, 1203.158 1643.980, 1203.893 1644.434 C 1205.293 1645.299, 1205.293 1644.139, 1203.893 1640.124 C 1202.707 1636.719, 1203.471 1630, 1205.045 1630 C 1205.570 1630, 1206 1631.650, 1206 1633.667 C 1206 1635.683, 1206.338 1636.996, 1206.750 1636.583 C 1207.649 1635.684, 1207.715 1635.273, 1207.875 1629.500 C 1207.944 1627.025, 1208.450 1625, 1209 1625 C 1209.550 1625, 1210 1625.675, 1210 1626.500 C 1210 1627.325, 1210.450 1628, 1211 1628 C 1211.550 1628, 1212.032 1625.412, 1212.070 1622.250 C 1212.167 1614.368, 1213.796 1618.286, 1214.046 1627 C 1214.148 1630.575, 1214.450 1632.647, 1214.717 1631.605 C 1215.083 1630.178, 1215.402 1630.032, 1216.009 1631.015 C 1216.923 1632.494, 1217.698 1626.397, 1218.386 1612.309 C 1218.633 1607.254, 1219.308 1602.304, 1219.887 1601.309 C 1221.148 1599.140, 1221.029 1598.021, 1221.508 1616.500 C 1221.693 1623.650, 1222.291 1630.850, 1222.837 1632.500 L 1223.828 1635.500 1224.092 1632.500 C 1224.238 1630.850, 1224.355 1628.730, 1224.353 1627.790 C 1224.351 1626.849, 1224.946 1625.851, 1225.675 1625.571 C 1226.555 1625.234, 1227 1625.893, 1227 1627.531 C 1227 1628.889, 1227.441 1630, 1227.981 1630 C 1228.568 1630, 1228.715 1628.198, 1228.347 1625.514 C 1227.950 1622.621, 1228.163 1620.509, 1228.945 1619.567 C 1230.190 1618.066, 1229.719 1609.975, 1227.995 1603.250 C 1227.536 1601.461, 1227.547 1600, 1228.019 1600 C 1228.864 1600, 1228.291 1586.721, 1227.139 1579.643 C 1227.063 1579.172, 1226.339 1579.040, 1225.532 1579.349 C 1223.208 1580.241, 1222.723 1578.219, 1224.972 1577.015 C 1226.338 1576.284, 1227 1576.268, 1227 1576.965 C 1227 1577.534, 1227.466 1578, 1228.035 1578 C 1228.699 1578, 1228.639 1577.194, 1227.868 1575.753 C 1227.126 1574.368, 1226.505 1573.984, 1226.249 1574.753 C 1225.695 1576.415, 1224.469 1576.326, 1222.635 1574.492 C 1221.701 1573.558, 1220.891 1573.368, 1220.505 1573.992 C 1220.162 1574.547, 1220.385 1575, 1221 1575 C 1221.615 1575, 1221.843 1575.445, 1221.507 1575.989 C 1221.171 1576.533, 1220.839 1579.795, 1220.770 1583.239 C 1220.701 1586.682, 1220.459 1588.414, 1220.232 1587.088 C 1220.004 1585.761, 1219.292 1584.149, 1218.648 1583.505 C 1217.890 1582.747, 1217.531 1578.844, 1217.627 1572.418 C 1217.830 1558.868, 1217.756 1559.297, 1219.995 1558.711 C 1221.684 1558.270, 1221.898 1558.559, 1221.387 1560.595 C 1221.021 1562.052, 1221.220 1563, 1221.892 1563 C 1222.501 1563, 1223.014 1562.213, 1223.032 1561.250 C 1223.061 1559.667, 1223.203 1559.685, 1224.532 1561.441 C 1225.869 1563.209, 1226 1562.774, 1226 1556.569 C 1226 1550.626, 1226.192 1549.914, 1227.500 1551 C 1229.745 1552.863, 1229.308 1551.308, 1226.913 1548.913 C 1225.396 1547.396, 1225.003 1546.126, 1225.471 1544.258 C 1225.882 1542.622, 1225.641 1541.383, 1224.808 1540.845 C 1223.738 1540.154, 1223.747 1539.841, 1224.861 1539.123 C 1225.865 1538.475, 1226.062 1536.838, 1225.614 1532.873 C 1225.281 1529.918, 1225.365 1528.331, 1225.801 1529.347 C 1226.509 1530.995, 1226.732 1531.027, 1227.876 1529.649 C 1228.807 1528.528, 1228.871 1527.611, 1228.109 1526.302 C 1227.533 1525.311, 1227.047 1524.987, 1227.030 1525.583 C 1227.014 1526.179, 1226.335 1526.667, 1225.523 1526.667 C 1224.503 1526.667, 1224.215 1525.990, 1224.594 1524.482 C 1224.895 1523.280, 1224.387 1519.699, 1223.464 1516.524 C 1222.065 1511.711, 1222.011 1510.608, 1223.143 1509.897 C 1224.128 1509.277, 1224.745 1509.859, 1225.395 1512.022 C 1226.420 1515.436, 1228 1515.993, 1228 1512.941 C 1228 1511.809, 1227.561 1511.153, 1227.025 1511.485 C 1226.427 1511.854, 1226.058 1509.458, 1226.072 1505.294 C 1226.106 1495.303, 1225.113 1486.065, 1223.746 1483.635 C 1223.085 1482.461, 1222.484 1480.375, 1222.411 1479 C 1222.119 1473.526, 1221.942 1473, 1220.393 1473 C 1219.509 1473, 1218.997 1473.563, 1219.255 1474.250 C 1219.512 1474.938, 1219.367 1476.400, 1218.932 1477.500 C 1218.287 1479.129, 1218.128 1478.897, 1218.070 1476.250 C 1218.032 1474.463, 1217.550 1473, 1217 1473 C 1216.450 1473, 1216.007 1472.213, 1216.015 1471.250 C 1216.028 1469.754, 1216.172 1469.718, 1217 1471 C 1217.828 1472.282, 1217.972 1472.246, 1217.985 1470.750 C 1217.993 1469.787, 1217.580 1469, 1217.067 1469 C 1216.554 1469, 1216.242 1466.102, 1216.373 1462.561 C 1216.508 1458.908, 1216.220 1456.364, 1215.706 1456.682 C 1215.208 1456.989, 1215.319 1456.272, 1215.953 1455.088 C 1216.638 1453.808, 1216.899 1450.615, 1216.598 1447.217 C 1216.318 1444.073, 1216.008 1437.340, 1215.907 1432.255 C 1215.665 1419.983, 1214.244 1413.703, 1211.851 1414.329 C 1209.651 1414.904, 1208.900 1412.812, 1208.846 1405.967 C 1208.811 1401.427, 1208.516 1400.742, 1206.154 1399.705 C 1204.694 1399.065, 1203.275 1398.286, 1203 1397.976 C 1201.913 1396.747, 1194.808 1393, 1193.565 1393 C 1192.839 1393, 1191.689 1392.330, 1191.009 1391.511 C 1190.329 1390.692, 1189.374 1390.269, 1188.887 1390.570 C 1188.399 1390.871, 1188 1390.390, 1188 1389.500 C 1188 1388.610, 1187.550 1388.160, 1187 1388.500 C 1186.450 1388.840, 1186 1388.641, 1186 1388.059 C 1186 1387.477, 1185.325 1387, 1184.500 1387 C 1183.675 1387, 1183 1387.502, 1183 1388.117 C 1183 1388.763, 1181.966 1389.036, 1180.545 1388.764 C 1178.886 1388.447, 1177.994 1388.784, 1177.795 1389.803 C 1177.600 1390.801, 1175.978 1391.450, 1173 1391.723 C 1170.525 1391.949, 1168.350 1392.554, 1168.167 1393.067 C 1167.728 1394.295, 1165.259 1394.269, 1164.833 1393.033 C 1164.650 1392.501, 1161.688 1391.956, 1158.250 1391.822 C 1154.813 1391.688, 1152 1391.169, 1152 1390.667 C 1152 1390.165, 1151.316 1390.323, 1150.480 1391.017 C 1148.369 1392.769, 1128.566 1392.964, 1126.851 1391.250 C 1125.295 1389.695, 1122 1389.609, 1122 1391.122 C 1122 1391.897, 1121.535 1391.859, 1120.498 1390.999 C 1119.550 1390.212, 1114.850 1389.643, 1107.748 1389.456 C 1096.750 1389.167, 1084.621 1388.462, 1072.417 1387.404 C 1068.131 1387.032, 1066.333 1386.464, 1066.333 1385.481 C 1066.333 1384.714, 1066.910 1383.865, 1067.616 1383.594 C 1068.417 1383.286, 1068.690 1383.645, 1068.342 1384.551 C 1067.615 1386.446, 1068.744 1386.398, 1070.690 1384.452 C 1072.715 1382.428, 1071.979 1381.837, 1066.790 1381.318 C 1064.344 1381.074, 1063.015 1381.247, 1063.697 1381.721 C 1064.358 1382.180, 1064.548 1383.113, 1064.122 1383.802 C 1063.554 1384.721, 1060.775 1384.919, 1053.622 1384.552 C 1048.271 1384.277, 1043.403 1383.749, 1042.803 1383.378 C 1042.204 1383.008, 1029.740 1382.549, 1015.107 1382.358 C 1000.473 1382.167, 981.975 1381.922, 974 1381.813 C 966.025 1381.703, 950.275 1381.718, 939 1381.845 C 912.132 1382.147, 914.075 1382.258, 916.336 1380.545 C 917.522 1379.646, 919.436 1379.359, 921.742 1379.733 C 923.978 1380.096, 925.083 1379.943, 924.700 1379.323 C 924.028 1378.236, 890.931 1378.498, 885 1379.637 C 883.075 1380.007, 878.800 1380.421, 875.500 1380.558 C 864.723 1381.004, 857.604 1381.895, 851.500 1383.561 C 847.288 1384.710, 840.136 1385.300, 827.500 1385.539 C 817.600 1385.727, 802.008 1386.019, 792.851 1386.190 C 783.694 1386.360, 776.374 1386.782, 776.584 1387.126 C 776.793 1387.471, 775.285 1387.153, 773.232 1386.420 C 768.909 1384.877, 744.831 1384.485, 742.160 1385.914 C 741.220 1386.417, 728.990 1387.128, 714.981 1387.493 C 700.972 1387.858, 689.361 1388.305, 689.180 1388.487 C 688.998 1388.669, 687.619 1388.464, 686.115 1388.033 C 684.281 1387.507, 682.760 1387.702, 681.499 1388.624 C 679.328 1390.212, 671.550 1390.537, 672.500 1389 C 672.840 1388.450, 672.627 1388, 672.028 1388 C 671.428 1388, 670.678 1388.675, 670.362 1389.500 C 669.709 1391.200, 665 1391.575, 665 1389.927 C 665 1388.710, 657.497 1389.018, 632.523 1391.260 C 623.736 1392.049, 615.804 1392.500, 614.897 1392.263 C 613.990 1392.026, 608.130 1392.401, 601.874 1393.098 C 584.908 1394.986, 581.016 1394.984, 580.921 1393.084 C 580.854 1391.729, 580.759 1391.717, 580.271 1393 C 579.957 1393.825, 579.268 1394.782, 578.739 1395.127 C 577.491 1395.943, 574 1395.026, 574 1393.883 C 574 1392.241, 571.150 1392.987, 570.689 1394.750 C 570.264 1396.377, 570.224 1396.373, 570.116 1394.702 C 570.012 1393.092, 569.131 1392.945, 561.668 1393.289 C 557.086 1393.501, 552.791 1394.011, 552.125 1394.423 C 551.458 1394.835, 550.370 1394.730, 549.706 1394.189 C 547.839 1392.666, 534.744 1392.731, 535.253 1394.261 C 535.479 1394.942, 536.978 1395.750, 538.582 1396.055 C 541.111 1396.536, 541.233 1396.699, 539.500 1397.277 C 538.400 1397.644, 535.700 1397.922, 533.500 1397.895 C 531.300 1397.869, 528.600 1398.048, 527.500 1398.294 C 523.417 1399.207, 523.771 1397.603, 527.880 1396.571 C 530.227 1395.982, 532.114 1395.050, 532.074 1394.500 C 532.033 1393.950, 531.587 1393.500, 531.083 1393.500 C 530.579 1393.500, 529.845 1393.178, 529.452 1392.785 C 529.059 1392.392, 527.887 1392.525, 526.848 1393.081 C 525.809 1393.638, 524.527 1393.826, 524 1393.500 C 523.473 1393.174, 522.159 1393.380, 521.081 1393.956 C 519.706 1394.693, 518.925 1394.687, 518.461 1393.938 C 518.019 1393.222, 517.257 1393.361, 516.151 1394.359 C 514.718 1395.651, 514.244 1395.660, 512.559 1394.424 C 509.988 1392.538, 509.003 1392.628, 508.985 1394.750 C 508.972 1396.209, 508.816 1396.257, 508.046 1395.040 C 507.255 1393.790, 506.825 1393.848, 505.061 1395.445 C 503.405 1396.943, 503 1397.018, 503 1395.822 C 503 1393.847, 499.820 1393.909, 498.282 1395.913 C 497.185 1397.342, 497.060 1397.324, 497.032 1395.731 C 497.007 1394.328, 496.461 1394.097, 494.393 1394.616 C 492.667 1395.049, 491.489 1394.802, 490.908 1393.885 C 490.263 1392.867, 490.006 1393.163, 489.936 1395 C 489.879 1396.533, 489.619 1396.933, 489.266 1396.035 C 488.949 1395.229, 487.747 1393.732, 486.595 1392.709 C 485.443 1391.685, 484.988 1391.087, 485.584 1391.380 C 486.193 1391.679, 487.702 1389.411, 489.026 1386.206 C 490.322 1383.068, 491.972 1379.905, 492.692 1379.179 C 493.411 1378.452, 494 1377.524, 494 1377.117 C 494 1376.710, 494.920 1375.390, 496.044 1374.183 C 497.168 1372.976, 500.318 1368.279, 503.043 1363.744 C 505.768 1359.210, 509.112 1354.267, 510.473 1352.760 C 511.835 1351.253, 513.926 1348.103, 515.120 1345.760 C 518.340 1339.440, 525.172 1328.839, 525.690 1329.357 C 526.533 1330.199, 530.790 1327.403, 533.168 1324.446 C 534.470 1322.826, 538.371 1315.875, 541.837 1309 C 548.505 1295.770, 550.634 1292.301, 551.532 1293.199 C 552.007 1293.674, 541.112 1315.686, 539.008 1318.500 C 538.597 1319.050, 537.975 1321.075, 537.625 1323 C 537.275 1324.925, 536.319 1327.784, 535.500 1329.354 C 534.681 1330.924, 534.260 1332.611, 534.564 1333.104 C 535.966 1335.372, 537.861 1333.399, 541.251 1326.141 C 543.551 1321.217, 545.963 1317.600, 547.711 1316.457 C 549.245 1315.454, 550.950 1314.153, 551.500 1313.567 C 553.379 1311.562, 558 1305.135, 558 1304.525 C 558 1304.190, 558.898 1302.953, 559.995 1301.775 C 561.092 1300.598, 563.817 1296.454, 566.050 1292.567 C 568.283 1288.680, 570.527 1284.825, 571.037 1284 C 571.546 1283.175, 573.135 1280.250, 574.568 1277.500 C 578.751 1269.468, 579.610 1268.050, 581.703 1265.713 C 582.793 1264.496, 587.608 1255.458, 592.402 1245.629 C 597.196 1235.800, 601.939 1226.575, 602.942 1225.129 C 606.960 1219.335, 615.966 1205.164, 619.136 1199.646 C 623.111 1192.729, 624.545 1190.126, 637.396 1166.500 C 642.781 1156.600, 648.853 1145.575, 650.889 1142 C 652.925 1138.425, 656.045 1132.863, 657.822 1129.639 C 661.803 1122.419, 676.154 1098.288, 680.503 1091.500 C 682.265 1088.750, 685.864 1082.450, 688.501 1077.500 C 697.174 1061.220, 699.204 1057.512, 699.994 1056.500 C 701.207 1054.947, 721.376 1017.012, 724.506 1010.397 C 726.040 1007.153, 728.387 1001.379, 729.720 997.564 C 731.895 991.339, 736.964 982.606, 739.436 980.826 C 739.983 980.432, 739.776 979.421, 738.936 978.389 C 737.673 976.838, 737.689 976.696, 739.072 977.213 C 740.009 977.563, 741.122 977.034, 741.830 975.900 C 742.483 974.855, 742.601 974, 742.092 974 C 741.583 974, 740.966 974.562, 740.720 975.250 C 740.475 975.938, 739.956 976.206, 739.567 975.847 C 739.178 975.488, 739.788 973.376, 740.921 971.155 C 742.054 968.933, 742.722 966.438, 742.404 965.610 C 742.086 964.781, 742.491 962.843, 743.305 961.302 C 744.119 959.761, 745.529 956.700, 746.439 954.500 C 747.349 952.300, 749.011 949.375, 750.132 948 C 752.122 945.559, 752.159 945.553, 751.679 947.750 C 750.830 951.634, 752.408 950.204, 754.715 944.999 C 755.934 942.249, 757.366 940, 757.898 940 C 759.077 940, 760.475 936.133, 760.138 933.804 C 760.003 932.871, 760.654 930.636, 761.585 928.836 C 763.580 924.978, 780.145 900.569, 782.983 897.304 C 784.061 896.064, 786.030 893.351, 787.358 891.275 C 790.003 887.141, 796.013 881.066, 795.978 882.563 C 795.966 883.078, 795.076 884.625, 794 886 C 792.924 887.375, 792.034 889.063, 792.022 889.750 C 791.977 892.288, 793.561 890.780, 795.710 886.238 C 797.376 882.717, 797.622 881.365, 796.710 880.742 C 795.919 880.203, 796.193 880.018, 797.500 880.208 C 798.931 880.417, 799.416 880.002, 799.206 878.750 C 799.045 877.788, 799.370 877, 799.930 877 C 800.490 877, 801.698 875.538, 802.614 873.750 C 803.530 871.962, 804.554 870.275, 804.890 870 C 805.565 869.447, 807.651 865.918, 809.705 861.855 C 810.440 860.401, 811.707 858.658, 812.521 857.983 C 813.334 857.308, 814 856.353, 814 855.862 C 814 855.370, 816.025 852.186, 818.500 848.784 C 820.975 845.383, 823 843.010, 823 843.511 C 823 844.013, 823.900 842.658, 825 840.500 C 826.100 838.342, 827 835.728, 827 834.689 C 827 832.543, 832.846 822.471, 837.557 816.500 C 839.293 814.300, 841.738 810.475, 842.991 808 C 844.244 805.525, 846.932 801.475, 848.966 799 C 853.267 793.764, 858.751 785.921, 871.692 766.500 C 882.100 750.879, 882.898 749.611, 888.997 739 C 891.368 734.875, 894.750 729.250, 896.512 726.500 C 904.257 714.411, 920.044 688.864, 924.013 682 C 926.397 677.875, 930.682 670.900, 933.535 666.500 C 942.377 652.862, 952.237 635.200, 958.100 622.500 C 959.369 619.750, 963.466 612.171, 967.204 605.657 C 970.942 599.144, 974 593.236, 974 592.530 C 974 591.823, 974.747 590.627, 975.661 589.872 C 976.575 589.118, 979.127 584.675, 981.332 580 C 986.992 568.004, 996.890 549.883, 999.120 547.436 C 1000.154 546.300, 1001 544.870, 1001 544.257 C 1001 543.644, 1001.640 542.503, 1002.422 541.721 C 1003.203 540.939, 1004.666 538.735, 1005.672 536.822 C 1006.677 534.909, 1010.200 529.383, 1013.500 524.541 C 1016.800 519.699, 1020.343 514.334, 1021.374 512.619 C 1022.405 510.903, 1024.617 507.250, 1026.290 504.500 C 1027.964 501.750, 1032.570 493.650, 1036.526 486.500 C 1048.545 464.777, 1049.219 463.595, 1051.214 460.746 C 1052.274 459.231, 1053.537 456.756, 1054.021 455.246 C 1054.504 453.736, 1056.078 449.350, 1057.517 445.500 C 1058.957 441.650, 1060.507 437.317, 1060.963 435.872 C 1062.261 431.750, 1065.194 425.667, 1066.789 423.787 C 1067.588 422.845, 1067.966 421.354, 1067.628 420.473 C 1066.823 418.375, 1070.959 411.244, 1073.342 410.621 C 1074.365 410.353, 1074.945 409.720, 1074.632 409.214 C 1074.319 408.707, 1075.441 406.119, 1077.126 403.462 C 1078.811 400.805, 1080.590 397.579, 1081.079 396.293 C 1081.568 395.006, 1083.633 391.377, 1085.668 388.227 C 1089.185 382.783, 1097.277 367.306, 1111.669 338.500 C 1115.241 331.350, 1118.809 324.782, 1119.597 323.904 C 1120.386 323.027, 1125.275 313.961, 1130.462 303.758 C 1138.770 287.416, 1145.460 275.673, 1148.264 272.512 C 1148.757 271.955, 1150.362 269.646, 1151.830 267.380 C 1153.299 265.114, 1156.411 260.389, 1158.748 256.880 C 1161.084 253.371, 1163.438 249.825, 1163.979 249 C 1164.520 248.175, 1166.097 245.793, 1167.482 243.706 C 1168.867 241.619, 1170 239.623, 1170 239.270 C 1170 238.917, 1170.838 237.700, 1171.863 236.564 C 1172.888 235.429, 1175.086 232.025, 1176.747 229 C 1178.408 225.975, 1181.656 220.125, 1183.964 216 C 1190.845 203.701, 1193.996 196.309, 1194.070 192.292 C 1194.120 189.586, 1194.352 189.038, 1194.878 190.377 C 1195.439 191.804, 1196.368 190.245, 1198.753 183.877 C 1200.478 179.270, 1202.405 173.700, 1203.035 171.500 C 1203.665 169.300, 1204.598 166.096, 1205.108 164.379 C 1205.619 162.662, 1205.755 160.525, 1205.411 159.629 C 1205.054 158.699, 1205.285 158, 1205.948 158 C 1206.801 158, 1206.997 153.758, 1206.683 142.090 L 1206.254 126.180 1202.496 119.993 L 1198.738 113.807 1200.004 104.972 C 1201.215 96.523, 1201.132 90.341, 1199.443 63 C 1198.949 55.017, 1196.986 47, 1195.525 47 C 1195.315 47, 1195.101 67.560, 1195.049 92.689 C 1194.997 117.818, 1194.740 138.593, 1194.477 138.856 C 1194.055 139.279, 1193.518 48.384, 1193.925 45.250 C 1194.015 44.563, 1193.591 44, 1192.985 44 C 1192.378 44, 1192.172 43.530, 1192.527 42.956 C 1193.422 41.508, 1190.975 38.796, 1189.340 39.423 C 1188.595 39.709, 1188 39.285, 1188 38.469 C 1188 37.661, 1187.100 37, 1186 37 C 1183.902 37, 1183.306 38.453, 1184.980 39.487 C 1185.597 39.869, 1185.513 40.807, 1184.751 42.027 C 1183.342 44.284, 1180.915 45.474, 1181.262 43.738 C 1181.393 43.083, 1180.393 42.381, 1179.039 42.177 C 1177.686 41.973, 1175.965 41.062, 1175.215 40.153 C 1174.465 39.244, 1174.137 39.063, 1174.485 39.750 C 1174.863 40.497, 1174.464 41, 1173.492 41 C 1172.377 41, 1172.046 41.570, 1172.440 42.811 C 1172.874 44.177, 1172.205 44.939, 1169.712 45.917 C 1167.622 46.737, 1166.354 47.949, 1166.258 49.219 C 1166.175 50.323, 1165.889 51.444, 1165.622 51.711 C 1164.708 52.625, 1160.063 48.502, 1160.031 46.750 C 1160.014 45.788, 1159.550 45, 1159 45 C 1158.450 45, 1158 43.736, 1158 42.191 C 1158 38.654, 1156.740 37.103, 1150.500 32.955 C 1147.750 31.127, 1145.275 29.377, 1144.999 29.066 C 1143.759 27.665, 1137.732 25.048, 1136.911 25.555 C 1136.410 25.865, 1136 25.693, 1136 25.173 C 1136 24.202, 1134.524 23.796, 1125 22.145 C 1118.707 21.054, 1076.671 19.662, 1075.817 20.516 M 1152 42.819 C 1152 44.027, 1153.897 45.436, 1154.591 44.743 C 1154.842 44.491, 1154.362 43.716, 1153.524 43.020 C 1152.574 42.231, 1152 42.155, 1152 42.819 M 1156.079 46.583 C 1156.127 47.748, 1156.364 47.985, 1156.683 47.188 C 1156.972 46.466, 1156.936 45.603, 1156.604 45.271 C 1156.272 44.939, 1156.036 45.529, 1156.079 46.583 M 1138 47.393 C 1138 47.609, 1138.698 48.054, 1139.552 48.382 C 1140.442 48.723, 1140.843 48.555, 1140.493 47.989 C 1139.906 47.038, 1138 46.583, 1138 47.393 M 1147.500 49 C 1147.840 49.550, 1148.316 50, 1148.559 50 C 1148.802 50, 1149 49.550, 1149 49 C 1149 48.450, 1148.523 48, 1147.941 48 C 1147.359 48, 1147.160 48.450, 1147.500 49 M 1155 53 C 1155 53.550, 1155.450 54, 1156 54 C 1156.550 54, 1157 53.550, 1157 53 C 1157 52.450, 1156.550 52, 1156 52 C 1155.450 52, 1155 52.450, 1155 53 M 1010.813 62.683 C 1011.534 62.972, 1012.397 62.936, 1012.729 62.604 C 1013.061 62.272, 1012.471 62.036, 1011.417 62.079 C 1010.252 62.127, 1010.015 62.364, 1010.813 62.683 M 1162.218 69.500 C 1162.228 71.150, 1162.580 73.850, 1163 75.500 L 1163.763 78.500 1163.782 75 C 1163.792 73.075, 1163.440 70.375, 1163 69 C 1162.223 66.574, 1162.200 66.589, 1162.218 69.500 M 1167.430 73.421 C 1167.096 74.752, 1166.975 76.628, 1167.161 77.589 C 1167.352 78.574, 1167.985 77.518, 1168.611 75.168 C 1169.222 72.876, 1169.343 71, 1168.880 71 C 1168.417 71, 1167.765 72.089, 1167.430 73.421 M 1163.079 80.583 C 1163.127 81.748, 1163.364 81.985, 1163.683 81.188 C 1163.972 80.466, 1163.936 79.603, 1163.604 79.271 C 1163.272 78.939, 1163.036 79.529, 1163.079 80.583 M 1170 80 C 1170 80.550, 1170.477 81, 1171.059 81 C 1171.641 81, 1171.840 80.550, 1171.500 80 C 1171.160 79.450, 1170.684 79, 1170.441 79 C 1170.198 79, 1170 79.450, 1170 80 M 1164.158 86 C 1164.158 87.375, 1164.385 87.938, 1164.662 87.250 C 1164.940 86.563, 1164.940 85.438, 1164.662 84.750 C 1164.385 84.063, 1164.158 84.625, 1164.158 86 M 919.573 123.951 C 917.879 124.566, 917.845 124.727, 919.291 125.281 C 920.196 125.629, 921.220 125.452, 921.568 124.890 C 922.461 123.446, 921.809 123.139, 919.573 123.951 M 829 136 C 827.758 136.803, 827.844 136.969, 829.500 136.969 C 830.600 136.969, 832.175 136.533, 833 136 C 834.242 135.197, 834.156 135.031, 832.500 135.031 C 831.400 135.031, 829.825 135.467, 829 136 M 844.750 135.662 C 845.438 135.940, 846.563 135.940, 847.250 135.662 C 847.938 135.385, 847.375 135.158, 846 135.158 C 844.625 135.158, 844.063 135.385, 844.750 135.662 M 793.143 136.907 C 792.137 137.532, 792.090 137.937, 792.960 138.475 C 794.332 139.323, 795.362 138.572, 794.854 137.095 C 794.646 136.489, 793.940 136.412, 793.143 136.907 M 820.750 136.706 C 821.987 136.944, 824.013 136.944, 825.250 136.706 C 826.487 136.467, 825.475 136.272, 823 136.272 C 820.525 136.272, 819.513 136.467, 820.750 136.706 M 842.750 140.662 C 843.438 140.940, 844.563 140.940, 845.250 140.662 C 845.938 140.385, 845.375 140.158, 844 140.158 C 842.625 140.158, 842.063 140.385, 842.750 140.662 M 785.750 141.786 C 781.409 142.333, 782.549 143.596, 787 143.171 C 789.200 142.962, 791 142.660, 791 142.502 C 791 141.832, 788.303 141.464, 785.750 141.786 M 792 142.204 C 792 143.162, 793.632 143.087, 797 141.976 C 799.163 141.262, 798.994 141.168, 795.750 141.280 C 793.688 141.351, 792 141.767, 792 142.204 M 852.813 141.683 C 853.534 141.972, 854.397 141.936, 854.729 141.604 C 855.061 141.272, 854.471 141.036, 853.417 141.079 C 852.252 141.127, 852.015 141.364, 852.813 141.683 M 919 141.941 C 919 142.459, 919.445 143.157, 919.989 143.493 C 920.555 143.843, 920.723 143.442, 920.382 142.552 C 919.717 140.820, 919 140.503, 919 141.941 M 915 143.059 C 915 143.641, 915.450 143.840, 916 143.500 C 916.550 143.160, 917 142.684, 917 142.441 C 917 142.198, 916.550 142, 916 142 C 915.450 142, 915 142.477, 915 143.059 M 744 146 C 744 146.550, 744.477 147, 745.059 147 C 745.641 147, 745.840 146.550, 745.500 146 C 745.160 145.450, 744.684 145, 744.441 145 C 744.198 145, 744 145.450, 744 146 M 911.276 148.947 C 911.606 150.209, 911.207 151.048, 910.143 151.331 C 909.239 151.572, 909.737 151.820, 911.250 151.884 C 912.763 151.948, 914 151.550, 914 151 C 914 150.450, 913.502 150, 912.893 150 C 912.284 150, 912.045 149.325, 912.362 148.500 C 912.678 147.675, 912.449 147, 911.852 147 C 911.255 147, 910.996 147.876, 911.276 148.947 M 819.813 151.683 C 820.534 151.972, 821.397 151.936, 821.729 151.604 C 822.061 151.272, 821.471 151.036, 820.417 151.079 C 819.252 151.127, 819.015 151.364, 819.813 151.683 M 856.813 151.683 C 857.534 151.972, 858.397 151.936, 858.729 151.604 C 859.061 151.272, 858.471 151.036, 857.417 151.079 C 856.252 151.127, 856.015 151.364, 856.813 151.683 M 876.813 151.683 C 877.534 151.972, 878.397 151.936, 878.729 151.604 C 879.061 151.272, 878.471 151.036, 877.417 151.079 C 876.252 151.127, 876.015 151.364, 876.813 151.683 M 905.813 156.683 C 906.534 156.972, 907.397 156.936, 907.729 156.604 C 908.061 156.272, 907.471 156.036, 906.417 156.079 C 905.252 156.127, 905.015 156.364, 905.813 156.683 M 840.813 158.683 C 841.534 158.972, 842.397 158.936, 842.729 158.604 C 843.061 158.272, 842.471 158.036, 841.417 158.079 C 840.252 158.127, 840.015 158.364, 840.813 158.683 M 1194.272 164 C 1194.272 166.475, 1194.467 167.488, 1194.706 166.250 C 1194.944 165.012, 1194.944 162.988, 1194.706 161.750 C 1194.467 160.512, 1194.272 161.525, 1194.272 164 M 901.500 176 C 901.160 176.550, 901.584 177, 902.441 177 C 903.298 177, 904 177.525, 904 178.167 C 904 178.808, 904.236 179.098, 904.524 178.810 C 905.248 178.085, 903.975 175, 902.952 175 C 902.493 175, 901.840 175.450, 901.500 176 M 1130.667 175.667 C 1130.300 176.033, 1130 176.798, 1130 177.367 C 1130 177.993, 1130.466 177.934, 1131.183 177.217 C 1131.834 176.566, 1132.134 175.801, 1131.850 175.517 C 1131.566 175.232, 1131.033 175.300, 1130.667 175.667 M 868.607 178.582 C 867.740 180.840, 867.823 181.005, 869.500 180.362 C 870.325 180.045, 871 179.159, 871 178.393 C 871 176.498, 869.357 176.628, 868.607 178.582 M 890.813 179.683 C 891.534 179.972, 892.397 179.936, 892.729 179.604 C 893.061 179.272, 892.471 179.036, 891.417 179.079 C 890.252 179.127, 890.015 179.364, 890.813 179.683 M 839 181.059 C 839 181.641, 839.450 181.840, 840 181.500 C 840.550 181.160, 841 180.684, 841 180.441 C 841 180.198, 840.550 180, 840 180 C 839.450 180, 839 180.477, 839 181.059 M 878.813 180.683 C 879.534 180.972, 880.397 180.936, 880.729 180.604 C 881.061 180.272, 880.471 180.036, 879.417 180.079 C 878.252 180.127, 878.015 180.364, 878.813 180.683 M 827.813 181.683 C 828.534 181.972, 829.397 181.936, 829.729 181.604 C 830.061 181.272, 829.471 181.036, 828.417 181.079 C 827.252 181.127, 827.015 181.364, 827.813 181.683 M 1194.158 186 C 1194.158 187.375, 1194.385 187.938, 1194.662 187.250 C 1194.940 186.563, 1194.940 185.438, 1194.662 184.750 C 1194.385 184.063, 1194.158 184.625, 1194.158 186 M 900.500 187 C 900.840 187.550, 901.316 188, 901.559 188 C 901.802 188, 902 187.550, 902 187 C 902 186.450, 901.523 186, 900.941 186 C 900.359 186, 900.160 186.450, 900.500 187 M 851 196 C 851 196.550, 851.450 197, 852 197 C 852.550 197, 853 196.550, 853 196 C 853 195.450, 852.550 195, 852 195 C 851.450 195, 851 195.450, 851 196 M 858.500 196 C 858.160 196.550, 858.557 197, 859.382 197 C 860.207 197, 861.160 196.550, 861.500 196 C 861.840 195.450, 861.443 195, 860.618 195 C 859.793 195, 858.840 195.450, 858.500 196 M 871.500 196 C 871.840 196.550, 872.316 197, 872.559 197 C 872.802 197, 873 196.550, 873 196 C 873 195.450, 872.523 195, 871.941 195 C 871.359 195, 871.160 195.450, 871.500 196 M 874.750 195.662 C 875.438 195.940, 876.563 195.940, 877.250 195.662 C 877.938 195.385, 877.375 195.158, 876 195.158 C 874.625 195.158, 874.063 195.385, 874.750 195.662 M 828.500 197 C 828.160 197.550, 828.610 198, 829.500 198 C 830.390 198, 830.840 197.550, 830.500 197 C 830.160 196.450, 829.710 196, 829.500 196 C 829.290 196, 828.840 196.450, 828.500 197 M 838.813 196.683 C 839.534 196.972, 840.397 196.936, 840.729 196.604 C 841.061 196.272, 840.471 196.036, 839.417 196.079 C 838.252 196.127, 838.015 196.364, 838.813 196.683 M 821.813 197.683 C 822.534 197.972, 823.397 197.936, 823.729 197.604 C 824.061 197.272, 823.471 197.036, 822.417 197.079 C 821.252 197.127, 821.015 197.364, 821.813 197.683 M 783.558 199.907 C 783.249 200.405, 783.898 200.578, 784.999 200.290 C 787.334 199.679, 787.629 199, 785.559 199 C 784.766 199, 783.866 199.408, 783.558 199.907 M 839.269 204.693 C 840.242 204.947, 841.592 204.930, 842.269 204.656 C 842.946 204.382, 842.150 204.175, 840.500 204.195 C 838.850 204.215, 838.296 204.439, 839.269 204.693 M 863.750 207.662 C 864.438 207.940, 865.563 207.940, 866.250 207.662 C 866.938 207.385, 866.375 207.158, 865 207.158 C 863.625 207.158, 863.063 207.385, 863.750 207.662 M 857.813 213.683 C 858.534 213.972, 859.397 213.936, 859.729 213.604 C 860.061 213.272, 859.471 213.036, 858.417 213.079 C 857.252 213.127, 857.015 213.364, 857.813 213.683 M 1108.564 214.707 C 1108.022 216.132, 1108.136 216.247, 1109.124 215.267 C 1109.808 214.588, 1110.115 213.781, 1109.807 213.474 C 1109.499 213.166, 1108.940 213.721, 1108.564 214.707 M 840 216 C 840 216.550, 840.477 217, 841.059 217 C 841.641 217, 841.840 216.550, 841.500 216 C 841.160 215.450, 840.684 215, 840.441 215 C 840.198 215, 840 215.450, 840 216 M 821 217 C 821 217.550, 821.450 218, 822 218 C 822.550 218, 823 217.550, 823 217 C 823 216.450, 822.550 216, 822 216 C 821.450 216, 821 216.450, 821 217 M 804.500 218 L 800.500 218.716 804 218.758 C 805.925 218.782, 808.625 218.440, 810 218 C 813.213 216.971, 810.247 216.971, 804.500 218 M 813.813 217.683 C 814.534 217.972, 815.397 217.936, 815.729 217.604 C 816.061 217.272, 815.471 217.036, 814.417 217.079 C 813.252 217.127, 813.015 217.364, 813.813 217.683 M 1106 219 C 1105.411 220.100, 1105.155 221, 1105.430 221 C 1105.705 221, 1106.411 220.100, 1107 219 C 1107.589 217.900, 1107.845 217, 1107.570 217 C 1107.295 217, 1106.589 217.900, 1106 219 M 785 219 C 782.859 219.686, 783.074 219.802, 786.500 219.813 C 788.700 219.819, 792.750 219.474, 795.500 219.046 L 800.500 218.267 794 218.233 C 790.425 218.215, 786.375 218.560, 785 219 M 779.510 220.016 C 779.856 220.575, 780.557 220.774, 781.069 220.457 C 782.456 219.600, 782.198 219, 780.441 219 C 779.584 219, 779.165 219.457, 779.510 220.016 M 763.813 220.683 C 764.534 220.972, 765.397 220.936, 765.729 220.604 C 766.061 220.272, 765.471 220.036, 764.417 220.079 C 763.252 220.127, 763.015 220.364, 763.813 220.683 M 861.813 220.683 C 862.534 220.972, 863.397 220.936, 863.729 220.604 C 864.061 220.272, 863.471 220.036, 862.417 220.079 C 861.252 220.127, 861.015 220.364, 861.813 220.683 M 814 223 C 814 223.550, 814.477 224, 815.059 224 C 815.641 224, 815.840 223.550, 815.500 223 C 815.160 222.450, 814.684 222, 814.441 222 C 814.198 222, 814 222.450, 814 223 M 856.762 222.707 C 858.006 222.946, 859.806 222.937, 860.762 222.687 C 861.718 222.437, 860.700 222.241, 858.500 222.252 C 856.300 222.263, 855.518 222.468, 856.762 222.707 M 1101.500 224 C 1101.160 224.550, 1101.359 225, 1101.941 225 C 1102.523 225, 1103 224.550, 1103 224 C 1103 223.450, 1102.802 223, 1102.559 223 C 1102.316 223, 1101.840 223.450, 1101.500 224 M 533.813 225.683 C 534.534 225.972, 535.397 225.936, 535.729 225.604 C 536.061 225.272, 535.471 225.036, 534.417 225.079 C 533.252 225.127, 533.015 225.364, 533.813 225.683 M 745 226.500 C 745.685 227.325, 746.672 228, 747.194 228 C 747.716 228, 747.468 227.325, 746.643 226.500 C 745.818 225.675, 744.831 225, 744.449 225 C 744.067 225, 744.315 225.675, 745 226.500 M 732.269 236.693 C 733.242 236.947, 734.592 236.930, 735.269 236.656 C 735.946 236.382, 735.150 236.175, 733.500 236.195 C 731.850 236.215, 731.296 236.439, 732.269 236.693 M 698.750 237.662 C 699.438 237.940, 700.563 237.940, 701.250 237.662 C 701.938 237.385, 701.375 237.158, 700 237.158 C 698.625 237.158, 698.063 237.385, 698.750 237.662 M 705.264 237.718 C 706.784 237.947, 709.034 237.941, 710.264 237.704 C 711.494 237.467, 710.250 237.279, 707.500 237.286 C 704.750 237.294, 703.744 237.488, 705.264 237.718 M 804.750 313.662 C 805.438 313.940, 806.563 313.940, 807.250 313.662 C 807.938 313.385, 807.375 313.158, 806 313.158 C 804.625 313.158, 804.063 313.385, 804.750 313.662 M 906.500 542 C 906.160 542.550, 906.359 543, 906.941 543 C 907.523 543, 908 542.550, 908 542 C 908 541.450, 907.802 541, 907.559 541 C 907.316 541, 906.840 541.450, 906.500 542 M 843 601.583 C 840.641 602.892, 840.621 602.971, 842.643 602.985 C 843.822 602.993, 845.045 602.325, 845.362 601.500 C 845.678 600.675, 845.839 600.044, 845.719 600.098 C 845.598 600.152, 844.375 600.820, 843 601.583 M 839 605.941 C 839 606.459, 839.445 607.157, 839.989 607.493 C 840.555 607.843, 840.723 607.442, 840.382 606.552 C 839.717 604.820, 839 604.503, 839 605.941 M 820.624 636.539 C 819.659 639.053, 819.943 639.702, 821.122 637.675 C 821.706 636.671, 821.973 635.639, 821.715 635.382 C 821.458 635.124, 820.966 635.645, 820.624 636.539 M 813.500 647 C 813.160 647.550, 813.359 648, 813.941 648 C 814.523 648, 815 647.550, 815 647 C 815 646.450, 814.802 646, 814.559 646 C 814.316 646, 813.840 646.450, 813.500 647 M 625.872 670.750 C 624.629 672.336, 624.664 672.371, 626.250 671.128 C 627.916 669.821, 628.445 669, 627.622 669 C 627.415 669, 626.627 669.788, 625.872 670.750 M 771 700 C 771 700.550, 771.450 701, 772 701 C 772.550 701, 773 700.550, 773 700 C 773 699.450, 772.550 699, 772 699 C 771.450 699, 771 699.450, 771 700 M 762.500 715 C 762.160 715.550, 762.359 716, 762.941 716 C 763.523 716, 764 715.550, 764 715 C 764 714.450, 763.802 714, 763.559 714 C 763.316 714, 762.840 714.450, 762.500 715 M 595 719.500 C 594.293 720.352, 593.940 721.273, 594.215 721.548 C 594.490 721.823, 595.293 721.352, 596 720.500 C 596.707 719.648, 597.060 718.727, 596.785 718.452 C 596.510 718.177, 595.707 718.648, 595 719.500 M 556.100 780.295 C 554.835 782.402, 554.857 782.423, 556.579 780.774 C 557.570 779.824, 558.166 778.832, 557.903 778.569 C 557.640 778.306, 556.829 779.083, 556.100 780.295 M 547.495 792.792 C 544.748 796.991, 541.444 802.244, 540.153 804.464 L 537.806 808.500 541.339 804.500 C 543.283 802.300, 545.457 799.375, 546.172 798 C 546.886 796.625, 548.767 793.340, 550.352 790.700 C 554.996 782.963, 552.938 784.470, 547.495 792.792 M 754.564 789.707 C 754.022 791.132, 754.136 791.247, 755.124 790.267 C 755.808 789.588, 756.115 788.781, 755.807 788.474 C 755.499 788.166, 754.940 788.721, 754.564 789.707 M 750 799 C 750 799.550, 750.450 800, 751 800 C 751.550 800, 752 799.550, 752 799 C 752 798.450, 751.550 798, 751 798 C 750.450 798, 750 798.450, 750 799 M 745.189 809.549 C 742.176 815.749, 742.512 816.617, 745.615 810.652 C 747.003 807.986, 747.967 805.633, 747.757 805.424 C 747.548 805.215, 746.392 807.071, 745.189 809.549 M 754.624 811.539 C 753.659 814.053, 753.943 814.702, 755.122 812.675 C 755.706 811.671, 755.973 810.639, 755.715 810.382 C 755.458 810.124, 754.966 810.645, 754.624 811.539 M 531.427 817.750 C 529.907 820.362, 525.927 826.418, 522.582 831.208 C 519.237 835.997, 514.868 842.522, 512.873 845.708 C 506.612 855.704, 491.424 880.300, 488.609 885 C 484.641 891.626, 483.817 892.940, 480.314 898.229 C 478.561 900.875, 476.337 904.830, 475.371 907.020 C 474.405 909.209, 473.300 911, 472.916 911 C 472.531 911, 471.932 912.136, 471.583 913.525 C 471.234 914.914, 470.249 916.827, 469.394 917.775 C 466.977 920.457, 459.726 931.910, 456.591 938 C 455.033 941.025, 452.463 945.435, 450.879 947.800 C 449.296 950.165, 448 952.663, 448 953.350 C 448 954.038, 447.498 955.102, 446.884 955.716 C 445.629 956.971, 444.679 958.536, 440.789 965.750 C 439.298 968.516, 437.498 971.399, 436.789 972.157 C 436.080 972.915, 434.375 975.778, 433 978.518 C 431.625 981.258, 430.251 983.725, 429.947 984 C 428.352 985.443, 425.003 991.986, 425.026 993.618 C 425.042 994.799, 426.346 993.468, 428.526 990.046 C 430.437 987.047, 432 984.163, 432 983.637 C 432 983.112, 433.800 980.298, 436 977.384 C 438.200 974.470, 440 971.662, 440 971.143 C 440 970.625, 441.575 967.861, 443.500 965 C 445.425 962.139, 447 959.612, 447 959.384 C 447 958.605, 454.498 947.501, 455.250 947.167 C 455.663 946.983, 456 946.370, 456 945.803 C 456 945.236, 458.025 941.523, 460.500 937.552 C 462.975 933.581, 465 930.046, 465 929.695 C 465 929.345, 466.283 927.133, 467.852 924.779 C 471.675 919.043, 480 905.082, 480 904.406 C 480 904.109, 481.079 902.434, 482.398 900.683 C 483.716 898.932, 486.432 894.350, 488.433 890.500 C 492.916 881.875, 494.227 879.695, 495.471 878.804 C 496.005 878.422, 496.181 877.847, 495.861 877.528 C 495.541 877.208, 496.400 875.721, 497.769 874.223 C 499.139 872.725, 501.888 868.721, 503.880 865.325 C 508.838 856.869, 522.586 834.703, 527.030 828 C 532.977 819.029, 536.257 813, 535.190 813 C 534.640 813, 532.947 815.138, 531.427 817.750 M 693.459 873.067 C 693.096 873.653, 693.014 874.348, 693.276 874.610 C 693.538 874.872, 694.019 874.392, 694.345 873.543 C 695.021 871.781, 694.445 871.471, 693.459 873.067 M 675.459 904.067 C 675.096 904.653, 675.014 905.348, 675.276 905.610 C 675.538 905.872, 676.019 905.392, 676.345 904.543 C 677.021 902.781, 676.445 902.471, 675.459 904.067 M 455.407 923.735 C 454.358 925.789, 452.935 928.074, 452.243 928.813 C 451.552 929.551, 450.496 931.073, 449.896 932.194 C 449.037 933.799, 449.092 934.138, 450.153 933.791 C 451.644 933.303, 459.286 920, 458.075 920 C 457.657 920, 456.457 921.681, 455.407 923.735 M 683.624 923.539 C 682.659 926.053, 682.943 926.702, 684.122 924.675 C 684.706 923.671, 684.973 922.639, 684.715 922.382 C 684.458 922.124, 683.966 922.645, 683.624 923.539 M 439.260 950.548 C 438.472 951.403, 438.383 952.119, 439.017 952.511 C 439.565 952.849, 440.292 952.404, 440.631 951.520 C 441.457 949.367, 440.786 948.891, 439.260 950.548 M 668.624 950.539 C 667.659 953.053, 667.943 953.702, 669.122 951.675 C 669.706 950.671, 669.973 949.639, 669.715 949.382 C 669.458 949.124, 668.966 949.645, 668.624 950.539 M 728.998 954.505 C 728.416 956.036, 727.702 957.673, 727.411 958.144 C 727.120 958.615, 727.122 959, 727.415 959 C 728.288 959, 731.194 952.861, 730.602 952.268 C 730.302 951.968, 729.580 952.975, 728.998 954.505 M 746.079 957.583 C 746.127 958.748, 746.364 958.985, 746.683 958.188 C 746.972 957.466, 746.936 956.603, 746.604 956.271 C 746.272 955.939, 746.036 956.529, 746.079 957.583 M 434.584 959.641 C 434.057 961.014, 434.204 961.076, 435.477 960.019 C 437.212 958.579, 437.393 958, 436.107 958 C 435.616 958, 434.931 958.739, 434.584 959.641 M 454.500 961 C 454.840 961.550, 455.316 962, 455.559 962 C 455.802 962, 456 961.550, 456 961 C 456 960.450, 455.523 960, 454.941 960 C 454.359 960, 454.160 960.450, 454.500 961 M 725 961.500 C 725 962.325, 725.177 963, 725.393 963 C 725.609 963, 726.045 962.325, 726.362 961.500 C 726.678 960.675, 726.501 960, 725.969 960 C 725.436 960, 725 960.675, 725 961.500 M 748 963 C 747.411 964.100, 747.155 965, 747.430 965 C 747.705 965, 748.411 964.100, 749 963 C 749.589 961.900, 749.845 961, 749.570 961 C 749.295 961, 748.589 961.900, 748 963 M 430 966.500 C 428.775 968.483, 427.992 970.326, 428.262 970.595 C 428.532 970.865, 429.726 969.434, 430.917 967.417 C 433.740 962.632, 432.906 961.798, 430 966.500 M 746.079 967.583 C 746.127 968.748, 746.364 968.985, 746.683 968.188 C 746.972 967.466, 746.936 966.603, 746.604 966.271 C 746.272 965.939, 746.036 966.529, 746.079 967.583 M 743.720 969.332 C 742.606 972.165, 742.788 973.612, 744.094 972.306 C 744.695 971.705, 745.020 970.377, 744.814 969.356 C 744.454 967.566, 744.415 967.565, 743.720 969.332 M 425.583 973.643 C 424.665 976.037, 425.381 976.221, 426.796 973.955 C 427.468 972.880, 427.611 972, 427.115 972 C 426.620 972, 425.930 972.739, 425.583 973.643 M 636.079 974.583 C 636.127 975.748, 636.364 975.985, 636.683 975.188 C 636.972 974.466, 636.936 973.603, 636.604 973.271 C 636.272 972.939, 636.036 973.529, 636.079 974.583 M 419.500 994.830 C 418.400 996.279, 416.946 998.597, 416.269 999.982 C 414.523 1003.552, 412.664 1006.379, 411.500 1007.235 C 410.833 1007.724, 410.833 1007.969, 411.500 1007.969 C 413.423 1007.969, 414.700 1006.449, 418.451 999.698 C 422.415 992.564, 422.888 990.368, 419.500 994.830 M 622.459 998.067 C 622.096 998.653, 622.014 999.348, 622.276 999.610 C 622.538 999.872, 623.019 999.392, 623.345 998.543 C 624.021 996.781, 623.445 996.471, 622.459 998.067 M 419.500 1002 C 419.160 1002.550, 419.359 1003, 419.941 1003 C 420.523 1003, 421 1002.550, 421 1002 C 421 1001.450, 420.802 1001, 420.559 1001 C 420.316 1001, 419.840 1001.450, 419.500 1002 M 613 1013.059 C 613 1013.641, 613.450 1013.840, 614 1013.500 C 614.550 1013.160, 615 1012.684, 615 1012.441 C 615 1012.198, 614.550 1012, 614 1012 C 613.450 1012, 613 1012.477, 613 1013.059 M 586.667 1018.667 C 586.300 1019.033, 586 1019.798, 586 1020.367 C 586 1020.993, 586.466 1020.934, 587.183 1020.217 C 587.834 1019.566, 588.134 1018.801, 587.850 1018.517 C 587.566 1018.232, 587.033 1018.300, 586.667 1018.667 M 404.459 1020.067 C 404.096 1020.653, 404.014 1021.348, 404.276 1021.610 C 404.538 1021.872, 405.019 1021.392, 405.345 1020.543 C 406.021 1018.781, 405.445 1018.471, 404.459 1020.067 M 628.603 1020.833 C 628.320 1021.292, 628.723 1021.667, 629.500 1021.667 C 630.277 1021.667, 630.680 1021.292, 630.397 1020.833 C 630.114 1020.375, 629.710 1020, 629.500 1020 C 629.290 1020, 628.886 1020.375, 628.603 1020.833 M 397 1032 C 397 1032.550, 397.450 1033, 398 1033 C 398.550 1033, 399 1032.550, 399 1032 C 399 1031.450, 398.550 1031, 398 1031 C 397.450 1031, 397 1031.450, 397 1032 M 598.564 1038.707 C 598.022 1040.132, 598.136 1040.247, 599.124 1039.267 C 599.808 1038.588, 600.115 1037.781, 599.807 1037.474 C 599.499 1037.166, 598.940 1037.721, 598.564 1038.707 M 618.564 1038.707 C 618.022 1040.132, 618.136 1040.247, 619.124 1039.267 C 619.808 1038.588, 620.115 1037.781, 619.807 1037.474 C 619.499 1037.166, 618.940 1037.721, 618.564 1038.707 M 611.947 1050.639 C 611.395 1052.090, 611.130 1053.463, 611.356 1053.690 C 611.583 1053.917, 612.247 1052.729, 612.832 1051.051 C 614.133 1047.321, 613.348 1046.955, 611.947 1050.639 M 535.500 1079 C 535.160 1079.550, 535.359 1080, 535.941 1080 C 536.523 1080, 537 1079.550, 537 1079 C 537 1078.450, 536.802 1078, 536.559 1078 C 536.316 1078, 535.840 1078.450, 535.500 1079 M 350.564 1090.707 C 350.022 1092.132, 350.136 1092.247, 351.124 1091.267 C 351.808 1090.588, 352.115 1089.781, 351.807 1089.474 C 351.499 1089.166, 350.940 1089.721, 350.564 1090.707 M 346.459 1096.067 C 346.096 1096.653, 346.014 1097.348, 346.276 1097.610 C 346.538 1097.872, 347.019 1097.392, 347.345 1096.543 C 348.021 1094.781, 347.445 1094.471, 346.459 1096.067 M 570.500 1122 C 569.647 1123.650, 569.174 1125, 569.449 1125 C 569.724 1125, 570.647 1123.650, 571.500 1122 C 572.353 1120.350, 572.826 1119, 572.551 1119 C 572.276 1119, 571.353 1120.350, 570.500 1122 M 518.564 1223.707 C 518.022 1225.132, 518.136 1225.247, 519.124 1224.267 C 519.808 1223.588, 520.115 1222.781, 519.807 1222.474 C 519.499 1222.166, 518.940 1222.721, 518.564 1223.707 M 514.564 1231.707 C 514.022 1233.132, 514.136 1233.247, 515.124 1232.267 C 515.808 1231.588, 516.115 1230.781, 515.807 1230.474 C 515.499 1230.166, 514.940 1230.721, 514.564 1231.707 M 572.459 1245.067 C 572.096 1245.653, 572.014 1246.348, 572.276 1246.610 C 572.538 1246.872, 573.019 1246.392, 573.345 1245.543 C 574.021 1243.781, 573.445 1243.471, 572.459 1245.067 M 567.954 1255.086 C 567.340 1256.233, 567.026 1257.360, 567.257 1257.590 C 567.487 1257.820, 568.189 1256.882, 568.816 1255.504 C 570.194 1252.480, 569.523 1252.154, 567.954 1255.086 M 495.624 1273.539 C 494.659 1276.053, 494.943 1276.702, 496.122 1274.675 C 496.706 1273.671, 496.973 1272.639, 496.715 1272.382 C 496.458 1272.124, 495.966 1272.645, 495.624 1273.539 M 558.624 1275.539 C 557.659 1278.053, 557.943 1278.702, 559.122 1276.675 C 559.706 1275.671, 559.973 1274.639, 559.715 1274.382 C 559.458 1274.124, 558.966 1274.645, 558.624 1275.539 M 555.954 1281.086 C 555.340 1282.233, 555.026 1283.360, 555.257 1283.590 C 555.487 1283.820, 556.189 1282.882, 556.816 1281.504 C 558.194 1278.480, 557.523 1278.154, 555.954 1281.086 M 490.459 1284.067 C 490.096 1284.653, 490.014 1285.348, 490.276 1285.610 C 490.538 1285.872, 491.019 1285.392, 491.345 1284.543 C 492.021 1282.781, 491.445 1282.471, 490.459 1284.067 M 543.564 1294.707 C 543.022 1296.132, 543.136 1296.247, 544.124 1295.267 C 544.808 1294.588, 545.115 1293.781, 544.807 1293.474 C 544.499 1293.166, 543.940 1293.721, 543.564 1294.707 M 232.459 1332.067 C 232.096 1332.653, 232.014 1333.348, 232.276 1333.610 C 232.538 1333.872, 233.019 1333.392, 233.345 1332.543 C 234.021 1330.781, 233.445 1330.471, 232.459 1332.067 M 491.564 1371.707 C 491.022 1373.132, 491.136 1373.247, 492.124 1372.267 C 492.808 1371.588, 493.115 1370.781, 492.807 1370.474 C 492.499 1370.166, 491.940 1370.721, 491.564 1371.707 M 928.813 1378.683 C 929.534 1378.972, 930.397 1378.936, 930.729 1378.604 C 931.061 1378.272, 930.471 1378.036, 929.417 1378.079 C 928.252 1378.127, 928.015 1378.364, 928.813 1378.683 M 1073 1384 C 1073 1384.550, 1074.237 1384.968, 1075.750 1384.930 C 1078.187 1384.867, 1078.272 1384.762, 1076.500 1384 C 1073.769 1382.826, 1073 1382.826, 1073 1384 M 677.813 1388.683 C 678.534 1388.972, 679.397 1388.936, 679.729 1388.604 C 680.061 1388.272, 679.471 1388.036, 678.417 1388.079 C 677.252 1388.127, 677.015 1388.364, 677.813 1388.683 M 728.861 1390.893 C 730.102 1391.679, 734 1391.293, 734 1390.383 C 734 1390.173, 732.538 1390.007, 730.750 1390.015 C 728.540 1390.026, 727.936 1390.307, 728.861 1390.893 M 764.269 1390.693 C 765.242 1390.947, 766.592 1390.930, 767.269 1390.656 C 767.946 1390.382, 767.150 1390.175, 765.500 1390.195 C 763.850 1390.215, 763.296 1390.439, 764.269 1390.693 M 716.264 1391.718 C 717.784 1391.947, 720.034 1391.941, 721.264 1391.704 C 722.494 1391.467, 721.250 1391.279, 718.500 1391.286 C 715.750 1391.294, 714.744 1391.488, 716.264 1391.718 M 208.079 1397.583 C 208.127 1398.748, 208.364 1398.985, 208.683 1398.188 C 208.972 1397.466, 208.936 1396.603, 208.604 1396.271 C 208.272 1395.939, 208.036 1396.529, 208.079 1397.583 M 546.250 1396.716 C 547.763 1396.945, 550.237 1396.945, 551.750 1396.716 C 553.263 1396.487, 552.025 1396.300, 549 1396.300 C 545.975 1396.300, 544.737 1396.487, 546.250 1396.716 M 555.813 1396.683 C 556.534 1396.972, 557.397 1396.936, 557.729 1396.604 C 558.061 1396.272, 557.471 1396.036, 556.417 1396.079 C 555.252 1396.127, 555.015 1396.364, 555.813 1396.683 M 520.500 1398 C 520.160 1398.550, 520.584 1399, 521.441 1399 C 522.298 1399, 523 1398.550, 523 1398 C 523 1397.450, 522.577 1397, 522.059 1397 C 521.541 1397, 520.840 1397.450, 520.500 1398 M 179.580 1409.190 C 178.008 1411.433, 178.126 1412.658, 179.813 1411.616 C 180.726 1411.052, 182.174 1407, 181.463 1407 C 181.271 1407, 180.423 1407.985, 179.580 1409.190 M 490.345 1409.543 C 490.019 1410.392, 489.976 1411.310, 490.249 1411.583 C 490.523 1411.856, 490.986 1411.161, 491.279 1410.040 C 491.903 1407.657, 491.210 1407.289, 490.345 1409.543 M 437.964 1412.164 C 436.819 1414.397, 436.846 1414.424, 438.574 1412.774 C 439.568 1411.824, 440.107 1410.773, 439.771 1410.438 C 439.436 1410.103, 438.623 1410.880, 437.964 1412.164 M 430 1413.941 C 430 1414.459, 430.445 1415.157, 430.989 1415.493 C 431.555 1415.843, 431.723 1415.442, 431.382 1414.552 C 430.717 1412.820, 430 1412.503, 430 1413.941 M 487.635 1415.434 C 486.736 1416.806, 486.002 1418.508, 486.004 1419.215 C 486.006 1419.922, 486.930 1418.987, 488.058 1417.137 C 490.439 1413.231, 490.066 1411.724, 487.635 1415.434 M 173.500 1418 C 171.962 1420.220, 170.928 1422.261, 171.203 1422.536 C 171.478 1422.811, 172.962 1421.220, 174.500 1419 C 176.038 1416.780, 177.072 1414.739, 176.797 1414.464 C 176.522 1414.189, 175.038 1415.780, 173.500 1418 M 346.564 1420.707 C 346.022 1422.132, 346.136 1422.247, 347.124 1421.267 C 347.808 1420.588, 348.115 1419.781, 347.807 1419.474 C 347.499 1419.166, 346.940 1419.721, 346.564 1420.707 M 483.459 1423.067 C 483.096 1423.653, 483.014 1424.348, 483.276 1424.610 C 483.538 1424.872, 484.019 1424.392, 484.345 1423.543 C 485.021 1421.781, 484.445 1421.471, 483.459 1423.067 M 1070.500 1424 C 1070.160 1424.550, 1069.009 1425, 1067.941 1425 C 1066.873 1425, 1066 1425.498, 1066 1426.107 C 1066 1426.716, 1066.712 1426.941, 1067.582 1426.607 C 1068.452 1426.273, 1070.589 1425.939, 1072.332 1425.864 C 1074.710 1425.762, 1074.935 1425.619, 1073.235 1425.292 C 1071.990 1425.053, 1071.229 1424.439, 1071.544 1423.929 C 1071.860 1423.418, 1071.893 1423, 1071.618 1423 C 1071.343 1423, 1070.840 1423.450, 1070.500 1424 M 1076 1425.035 C 1076 1426.397, 1077.490 1426.933, 1078.882 1426.073 C 1079.821 1425.493, 1079.604 1425.130, 1078.085 1424.732 C 1076.938 1424.433, 1076 1424.569, 1076 1425.035 M 252.195 1429.849 C 248.873 1434.976, 247.435 1438, 248.321 1438 C 249.128 1438, 256.283 1425.949, 255.776 1425.442 C 255.534 1425.200, 253.922 1427.183, 252.195 1429.849 M 1040.500 1426 C 1040.840 1426.550, 1041.541 1427, 1042.059 1427 C 1042.577 1427, 1043 1426.550, 1043 1426 C 1043 1425.450, 1042.298 1425, 1041.441 1425 C 1040.584 1425, 1040.160 1425.450, 1040.500 1426 M 1084.269 1425.693 C 1085.242 1425.947, 1086.592 1425.930, 1087.269 1425.656 C 1087.946 1425.382, 1087.150 1425.175, 1085.500 1425.195 C 1083.850 1425.215, 1083.296 1425.439, 1084.269 1425.693 M 481.667 1426.667 C 481.300 1427.033, 481 1427.798, 481 1428.367 C 481 1428.993, 481.466 1428.934, 482.183 1428.217 C 482.834 1427.566, 483.134 1426.801, 482.850 1426.517 C 482.566 1426.233, 482.033 1426.300, 481.667 1426.667 M 342 1428.059 C 342 1428.641, 342.450 1428.840, 343 1428.500 C 343.550 1428.160, 344 1427.684, 344 1427.441 C 344 1427.198, 343.550 1427, 343 1427 C 342.450 1427, 342 1427.477, 342 1428.059 M 991 1428.787 C 991 1429.220, 991.910 1429.643, 993.022 1429.727 C 994.134 1429.810, 994.782 1429.456, 994.463 1428.939 C 993.760 1427.803, 991 1427.681, 991 1428.787 M 1013.359 1428.692 C 1014.502 1429.835, 1018 1430.062, 1018 1428.994 C 1018 1428.447, 1016.800 1428, 1015.333 1428 C 1013.867 1428, 1012.978 1428.312, 1013.359 1428.692 M 1021 1429 C 1021 1430.264, 1023.043 1430.264, 1025 1429 C 1026.169 1428.245, 1025.893 1428.027, 1023.750 1428.015 C 1022.237 1428.007, 1021 1428.450, 1021 1429 M 1040.232 1428.566 C 1041.229 1429.563, 1047.984 1429.834, 1048.561 1428.901 C 1048.868 1428.405, 1046.991 1428, 1044.392 1428 C 1041.793 1428, 1039.921 1428.255, 1040.232 1428.566 M 1053.813 1428.683 C 1054.534 1428.972, 1055.397 1428.936, 1055.729 1428.604 C 1056.061 1428.272, 1055.471 1428.036, 1054.417 1428.079 C 1053.252 1428.127, 1053.015 1428.364, 1053.813 1428.683 M 1063 1429 C 1063 1429.550, 1063.900 1430, 1065 1430 C 1066.100 1430, 1067 1429.550, 1067 1429 C 1067 1428.450, 1066.100 1428, 1065 1428 C 1063.900 1428, 1063 1428.450, 1063 1429 M 1002.762 1429.707 C 1004.006 1429.946, 1005.806 1429.937, 1006.762 1429.687 C 1007.718 1429.437, 1006.700 1429.241, 1004.500 1429.252 C 1002.300 1429.263, 1001.518 1429.468, 1002.762 1429.707 M 1074.813 1429.683 C 1075.534 1429.972, 1076.397 1429.936, 1076.729 1429.604 C 1077.061 1429.272, 1076.471 1429.036, 1075.417 1429.079 C 1074.252 1429.127, 1074.015 1429.364, 1074.813 1429.683 M 705.762 1430.707 C 707.006 1430.946, 708.806 1430.937, 709.762 1430.687 C 710.718 1430.437, 709.700 1430.241, 707.500 1430.252 C 705.300 1430.263, 704.518 1430.468, 705.762 1430.707 M 260.500 1432 C 260.160 1432.550, 260.359 1433, 260.941 1433 C 261.523 1433, 262 1432.550, 262 1432 C 262 1431.450, 261.802 1431, 261.559 1431 C 261.316 1431, 260.840 1431.450, 260.500 1432 M 417.624 1432.539 C 416.659 1435.053, 416.943 1435.702, 418.122 1433.675 C 418.706 1432.671, 418.973 1431.639, 418.715 1431.382 C 418.458 1431.124, 417.966 1431.645, 417.624 1432.539 M 730.269 1431.693 C 731.242 1431.947, 732.592 1431.930, 733.269 1431.656 C 733.946 1431.382, 733.150 1431.175, 731.500 1431.195 C 729.850 1431.215, 729.296 1431.439, 730.269 1431.693 M 1015.813 1436.683 C 1016.534 1436.972, 1017.397 1436.936, 1017.729 1436.604 C 1018.061 1436.272, 1017.471 1436.036, 1016.417 1436.079 C 1015.252 1436.127, 1015.015 1436.364, 1015.813 1436.683 M 1031.638 1437.500 C 1031.322 1438.325, 1031.499 1439, 1032.031 1439 C 1032.564 1439, 1033 1438.583, 1033 1438.073 C 1033 1437.564, 1033.787 1436.941, 1034.750 1436.689 C 1036.130 1436.329, 1036.047 1436.208, 1034.357 1436.116 C 1033.178 1436.052, 1031.955 1436.675, 1031.638 1437.500 M 1047.015 1437.191 C 1047.007 1438.121, 1047.450 1439.160, 1048 1439.500 C 1049.266 1440.282, 1049.266 1438.958, 1048 1437 C 1047.165 1435.707, 1047.029 1435.734, 1047.015 1437.191 M 1036.553 1437.915 C 1036.242 1438.418, 1036.553 1439.057, 1037.244 1439.336 C 1037.935 1439.614, 1037.289 1439.878, 1035.809 1439.921 C 1033.091 1440.001, 1030.767 1441.924, 1033.191 1442.089 C 1037.516 1442.382, 1044.639 1441.715, 1045.433 1440.942 C 1046.784 1439.627, 1045.287 1438.526, 1043.774 1439.721 C 1041.711 1441.350, 1039 1440.846, 1039 1438.833 C 1039 1436.909, 1037.518 1436.353, 1036.553 1437.915 M 1040.597 1437.844 C 1040.251 1438.404, 1040.455 1439.163, 1041.050 1439.531 C 1042.588 1440.481, 1043.580 1439.180, 1042.296 1437.896 C 1041.578 1437.178, 1041.019 1437.161, 1040.597 1437.844 M 1065.500 1439 C 1065.160 1439.550, 1065.359 1440, 1065.941 1440 C 1066.523 1440, 1067 1439.550, 1067 1439 C 1067 1438.450, 1066.802 1438, 1066.559 1438 C 1066.316 1438, 1065.840 1438.450, 1065.500 1439 M 1002.269 1440.693 C 1003.242 1440.947, 1004.592 1440.930, 1005.269 1440.656 C 1005.946 1440.382, 1005.150 1440.175, 1003.500 1440.195 C 1001.850 1440.215, 1001.296 1440.439, 1002.269 1440.693 M 1068 1441 C 1068 1441.550, 1069.125 1442, 1070.500 1442 C 1071.875 1442, 1073 1441.550, 1073 1441 C 1073 1440.450, 1071.875 1440, 1070.500 1440 C 1069.125 1440, 1068 1440.450, 1068 1441 M 1085 1441 C 1085 1441.550, 1085.450 1442, 1086 1442 C 1086.550 1442, 1087 1441.550, 1087 1441 C 1087 1440.450, 1086.550 1440, 1086 1440 C 1085.450 1440, 1085 1440.450, 1085 1441 M 965.813 1441.683 C 966.534 1441.972, 967.397 1441.936, 967.729 1441.604 C 968.061 1441.272, 967.471 1441.036, 966.417 1441.079 C 965.252 1441.127, 965.015 1441.364, 965.813 1441.683 M 974.813 1441.683 C 975.534 1441.972, 976.397 1441.936, 976.729 1441.604 C 977.061 1441.272, 976.471 1441.036, 975.417 1441.079 C 974.252 1441.127, 974.015 1441.364, 974.813 1441.683 M 1080.813 1441.683 C 1081.534 1441.972, 1082.397 1441.936, 1082.729 1441.604 C 1083.061 1441.272, 1082.471 1441.036, 1081.417 1441.079 C 1080.252 1441.127, 1080.015 1441.364, 1080.813 1441.683 M 820.750 1442.662 C 821.438 1442.940, 822.563 1442.940, 823.250 1442.662 C 823.938 1442.385, 823.375 1442.158, 822 1442.158 C 820.625 1442.158, 820.063 1442.385, 820.750 1442.662 M 384.314 1445.750 C 383.972 1446.713, 383.503 1447.950, 383.272 1448.500 C 383.041 1449.050, 383.560 1448.626, 384.426 1447.559 C 385.998 1445.620, 386.473 1444, 385.469 1444 C 385.176 1444, 384.657 1444.787, 384.314 1445.750 M 1017.510 1445.016 C 1017.856 1445.575, 1018.557 1445.774, 1019.069 1445.457 C 1020.456 1444.600, 1020.198 1444, 1018.441 1444 C 1017.584 1444, 1017.165 1444.457, 1017.510 1445.016 M 1024.250 1444.737 C 1023.563 1444.973, 1023 1445.977, 1023 1446.967 C 1023 1448.367, 1022.309 1448.713, 1019.895 1448.523 C 1018.188 1448.389, 1016.394 1447.654, 1015.911 1446.889 C 1015.209 1445.782, 1015.028 1445.855, 1015.015 1447.250 C 1014.997 1449.290, 1012.986 1449.544, 1011.053 1447.750 C 1010.080 1446.847, 1009.895 1446.835, 1010.386 1447.707 C 1010.893 1448.609, 1009.829 1448.767, 1006.167 1448.333 C 1003.031 1447.962, 1001.021 1448.157, 1000.576 1448.877 C 1000.077 1449.684, 1003.252 1450, 1011.858 1450 C 1020.503 1450, 1023.974 1450.348, 1024.338 1451.250 C 1024.741 1452.250, 1024.858 1452.250, 1024.921 1451.250 C 1025.037 1449.419, 1029.019 1449.726, 1031.404 1451.750 C 1033.097 1453.187, 1033.239 1453.206, 1032.198 1451.856 C 1031.157 1450.505, 1031.217 1449.925, 1032.537 1448.606 C 1034.012 1447.131, 1033.816 1447, 1030.145 1447 C 1027.620 1447, 1026.027 1446.504, 1025.823 1445.653 C 1025.645 1444.913, 1024.938 1444.500, 1024.250 1444.737 M 471.162 1447.543 C 469.487 1451.220, 469.807 1452.005, 471.618 1448.662 C 472.464 1447.100, 472.969 1445.636, 472.741 1445.407 C 472.512 1445.179, 471.802 1446.140, 471.162 1447.543 M 1040.450 1447.929 C 1039.928 1448.439, 1037.925 1449.042, 1036 1449.269 C 1032.953 1449.627, 1033.101 1449.701, 1037.143 1449.840 C 1040.457 1449.954, 1041.951 1449.571, 1042.362 1448.500 C 1043.004 1446.827, 1041.911 1446.500, 1040.450 1447.929 M 1044.393 1448.173 C 1043.338 1449.880, 1047.272 1450.231, 1050.337 1448.703 L 1053.500 1447.125 1049.207 1447.228 C 1046.845 1447.285, 1044.679 1447.710, 1044.393 1448.173 M 1077.737 1447.826 C 1074.394 1448.444, 1077.130 1450, 1081.559 1450 C 1084.579 1450, 1086 1449.576, 1086 1448.675 C 1086 1447.412, 1082.129 1447.014, 1077.737 1447.826 M 357.079 1449.583 C 357.127 1450.748, 357.364 1450.985, 357.683 1450.188 C 357.972 1449.466, 357.936 1448.603, 357.604 1448.271 C 357.272 1447.939, 357.036 1448.529, 357.079 1449.583 M 1059.800 1449.200 C 1060.733 1450.133, 1061.267 1450.133, 1062.200 1449.200 C 1063.133 1448.267, 1062.867 1448, 1061 1448 C 1059.133 1448, 1058.867 1448.267, 1059.800 1449.200 M 1070 1449 C 1070 1449.550, 1070.423 1450, 1070.941 1450 C 1071.459 1450, 1072.160 1449.550, 1072.500 1449 C 1072.840 1448.450, 1072.416 1448, 1071.559 1448 C 1070.702 1448, 1070 1448.450, 1070 1449 M 991.750 1449.706 C 992.987 1449.944, 995.013 1449.944, 996.250 1449.706 C 997.487 1449.467, 996.475 1449.272, 994 1449.272 C 991.525 1449.272, 990.513 1449.467, 991.750 1449.706 M 1011.813 1451.683 C 1012.534 1451.972, 1013.397 1451.936, 1013.729 1451.604 C 1014.061 1451.272, 1013.471 1451.036, 1012.417 1451.079 C 1011.252 1451.127, 1011.015 1451.364, 1011.813 1451.683 M 1019.813 1451.683 C 1020.534 1451.972, 1021.397 1451.936, 1021.729 1451.604 C 1022.061 1451.272, 1021.471 1451.036, 1020.417 1451.079 C 1019.252 1451.127, 1019.015 1451.364, 1019.813 1451.683 M 1035 1452 C 1035 1452.550, 1035.450 1453, 1036 1453 C 1036.550 1453, 1037 1452.550, 1037 1452 C 1037 1451.450, 1036.550 1451, 1036 1451 C 1035.450 1451, 1035 1451.450, 1035 1452 M 1044 1452.082 C 1040.852 1452.671, 1041.027 1452.750, 1045.750 1452.868 C 1048.638 1452.941, 1051 1452.827, 1051 1452.617 C 1051 1451.753, 1047.279 1451.469, 1044 1452.082 M 1217.031 1454.500 C 1217.031 1455.050, 1217.467 1456.175, 1218 1457 C 1218.533 1457.825, 1218.969 1458.050, 1218.969 1457.500 C 1218.969 1456.950, 1218.533 1455.825, 1218 1455 C 1217.467 1454.175, 1217.031 1453.950, 1217.031 1454.500 M 1218.079 1464.583 C 1218.127 1465.748, 1218.364 1465.985, 1218.683 1465.188 C 1218.972 1464.466, 1218.936 1463.603, 1218.604 1463.271 C 1218.272 1462.939, 1218.036 1463.529, 1218.079 1464.583 M 1219.651 1469.466 C 1218.889 1471.453, 1219.350 1472.409, 1220.803 1471.854 C 1221.314 1471.659, 1221.421 1470.633, 1221.041 1469.573 C 1220.384 1467.742, 1220.315 1467.737, 1219.651 1469.466 M 1199.404 1487.679 C 1198.646 1487.945, 1198.578 1489.671, 1199.184 1493.282 C 1199.665 1496.152, 1200.268 1500.720, 1200.523 1503.432 C 1200.940 1507.868, 1200.845 1508.170, 1199.575 1506.434 C 1198.799 1505.372, 1197.875 1504.792, 1197.521 1505.145 C 1196.320 1506.347, 1196.870 1523.478, 1198.293 1529.194 C 1199.289 1533.191, 1199.397 1535.203, 1198.656 1535.944 C 1197.915 1536.685, 1197.919 1537, 1198.671 1537 C 1199.260 1537, 1200.059 1539.813, 1200.447 1543.250 C 1201.506 1552.624, 1202.123 1555, 1203.501 1555 C 1204.298 1555, 1204.921 1557.029, 1205.216 1560.592 C 1205.471 1563.668, 1206.089 1566.480, 1206.590 1566.842 C 1207.090 1567.204, 1207.655 1568.400, 1207.845 1569.500 C 1208.283 1572.040, 1208.612 1572.358, 1209.950 1571.531 C 1210.545 1571.163, 1210.769 1570.435, 1210.447 1569.914 C 1210.124 1569.392, 1209.687 1565.486, 1209.476 1561.233 C 1208.937 1550.400, 1208.081 1540.500, 1206.434 1526.075 C 1205.654 1519.242, 1205.186 1513.480, 1205.394 1513.272 C 1205.602 1513.064, 1205.149 1510.822, 1204.386 1508.288 C 1203.624 1505.755, 1202.984 1500.941, 1202.965 1497.591 C 1202.928 1491.359, 1201.359 1486.991, 1199.404 1487.679 M 1197 1502 C 1197 1503.867, 1197.267 1504.133, 1198.200 1503.200 C 1199.133 1502.267, 1199.133 1501.733, 1198.200 1500.800 C 1197.267 1499.867, 1197 1500.133, 1197 1502 M 116 1502 C 116 1502.550, 116.450 1503, 117 1503 C 117.550 1503, 118 1502.550, 118 1502 C 118 1501.450, 117.550 1501, 117 1501 C 116.450 1501, 116 1501.450, 116 1502 M 683.813 1506.683 C 684.534 1506.972, 685.397 1506.936, 685.729 1506.604 C 686.061 1506.272, 685.471 1506.036, 684.417 1506.079 C 683.252 1506.127, 683.015 1506.364, 683.813 1506.683 M 643.813 1507.683 C 644.534 1507.972, 645.397 1507.936, 645.729 1507.604 C 646.061 1507.272, 645.471 1507.036, 644.417 1507.079 C 643.252 1507.127, 643.015 1507.364, 643.813 1507.683 M 147.659 1514.824 C 144.763 1521.277, 144.580 1522, 145.840 1522 C 146.302 1522, 147.294 1520.140, 148.044 1517.868 C 148.794 1515.595, 149.950 1513.193, 150.613 1512.530 C 151.276 1511.867, 151.481 1510.778, 151.069 1510.111 C 150.598 1509.350, 149.328 1511.106, 147.659 1514.824 M 795.750 1509.723 C 797.538 1509.945, 800.462 1509.945, 802.250 1509.723 C 804.038 1509.502, 802.575 1509.320, 799 1509.320 C 795.425 1509.320, 793.962 1509.502, 795.750 1509.723 M 1199.015 1509.559 C 1199.038 1510.941, 1200.814 1513.520, 1201.364 1512.969 C 1201.624 1512.710, 1201.198 1511.624, 1200.418 1510.557 C 1199.638 1509.491, 1199.007 1509.041, 1199.015 1509.559 M 814.269 1510.693 C 815.242 1510.947, 816.592 1510.930, 817.269 1510.656 C 817.946 1510.382, 817.150 1510.175, 815.500 1510.195 C 813.850 1510.215, 813.296 1510.439, 814.269 1510.693 M 143.408 1515.566 C 141.701 1518.480, 140.385 1519.785, 139.774 1519.174 C 139.162 1518.562, 139.230 1517.361, 139.963 1515.857 C 141.055 1513.614, 141.035 1513.594, 139.555 1515.441 C 137.616 1517.862, 137.615 1518.435, 139.544 1520.037 C 140.850 1521.120, 141.539 1520.792, 144.004 1517.909 C 146.513 1514.974, 147.973 1511, 146.542 1511 C 146.290 1511, 144.880 1513.055, 143.408 1515.566 M 460.750 1512.662 C 461.438 1512.940, 462.563 1512.940, 463.250 1512.662 C 463.938 1512.385, 463.375 1512.158, 462 1512.158 C 460.625 1512.158, 460.063 1512.385, 460.750 1512.662 M 445.813 1513.683 C 446.534 1513.972, 447.397 1513.936, 447.729 1513.604 C 448.061 1513.272, 447.471 1513.036, 446.417 1513.079 C 445.252 1513.127, 445.015 1513.364, 445.813 1513.683 M 843.750 1513.662 C 844.438 1513.940, 845.563 1513.940, 846.250 1513.662 C 846.938 1513.385, 846.375 1513.158, 845 1513.158 C 843.625 1513.158, 843.063 1513.385, 843.750 1513.662 M 854.750 1514.662 C 855.438 1514.940, 856.563 1514.940, 857.250 1514.662 C 857.938 1514.385, 857.375 1514.158, 856 1514.158 C 854.625 1514.158, 854.063 1514.385, 854.750 1514.662 M 871.750 1515.662 C 872.438 1515.940, 873.563 1515.940, 874.250 1515.662 C 874.938 1515.385, 874.375 1515.158, 873 1515.158 C 871.625 1515.158, 871.063 1515.385, 871.750 1515.662 M 879.269 1516.693 C 880.242 1516.947, 881.592 1516.930, 882.269 1516.656 C 882.946 1516.382, 882.150 1516.175, 880.500 1516.195 C 878.850 1516.215, 878.296 1516.439, 879.269 1516.693 M 1226.079 1517.583 C 1226.127 1518.748, 1226.364 1518.985, 1226.683 1518.188 C 1226.972 1517.466, 1226.936 1516.603, 1226.604 1516.271 C 1226.272 1515.939, 1226.036 1516.529, 1226.079 1517.583 M 900.813 1517.683 C 901.534 1517.972, 902.397 1517.936, 902.729 1517.604 C 903.061 1517.272, 902.471 1517.036, 901.417 1517.079 C 900.252 1517.127, 900.015 1517.364, 900.813 1517.683 M 921.813 1518.683 C 922.534 1518.972, 923.397 1518.936, 923.729 1518.604 C 924.061 1518.272, 923.471 1518.036, 922.417 1518.079 C 921.252 1518.127, 921.015 1518.364, 921.813 1518.683 M 151.136 1523.250 C 151.229 1526.132, 151.430 1526.695, 151.761 1525 C 152.217 1522.667, 152.303 1522.633, 153.054 1524.500 C 153.682 1526.059, 153.875 1525.673, 153.930 1522.750 C 153.980 1520.052, 153.579 1519, 152.500 1519 C 151.381 1519, 151.035 1520.078, 151.136 1523.250 M 1215.195 1522.500 C 1215.215 1524.150, 1215.439 1524.704, 1215.693 1523.731 C 1215.947 1522.758, 1215.930 1521.408, 1215.656 1520.731 C 1215.382 1520.054, 1215.175 1520.850, 1215.195 1522.500 M 1226.015 1520.750 C 1226.024 1521.162, 1226.467 1522.175, 1227 1523 C 1227.784 1524.213, 1227.972 1524.069, 1227.985 1522.250 C 1227.993 1521.013, 1227.550 1520, 1227 1520 C 1226.450 1520, 1226.007 1520.338, 1226.015 1520.750 M 138.500 1524 C 138.151 1525.100, 137.446 1526, 136.933 1526 C 136.420 1526, 136 1526.558, 136 1527.240 C 136 1527.922, 137.125 1527.266, 138.500 1525.783 C 141.178 1522.895, 141.549 1522, 140.067 1522 C 139.554 1522, 138.849 1522.900, 138.500 1524 M 142.211 1525.538 C 141.501 1526.342, 141.334 1527, 141.838 1527 C 142.342 1527, 143.315 1526.325, 144 1525.500 C 145.604 1523.568, 143.917 1523.603, 142.211 1525.538 M 139.190 1529.560 C 138.470 1530.376, 137.409 1530.753, 136.833 1530.397 C 136.181 1529.994, 136.006 1530.458, 136.370 1531.625 C 136.691 1532.656, 136.522 1534.175, 135.992 1535 C 135.463 1535.825, 135.024 1536.145, 135.015 1535.711 C 134.993 1534.587, 131.716 1537.995, 129.654 1541.284 C 128.688 1542.825, 126.683 1544.313, 125.161 1544.618 C 122.212 1545.208, 120.879 1549, 123.621 1549 C 124.444 1549, 124.840 1549.450, 124.500 1550 C 124.160 1550.550, 124.359 1551, 124.941 1551 C 125.523 1551, 126 1550.298, 126 1549.441 C 126 1548.584, 126.385 1548.120, 126.855 1548.410 C 127.324 1548.701, 129.206 1547.602, 131.035 1545.969 C 132.864 1544.336, 134.028 1543, 133.622 1543 C 132.482 1543, 138.277 1532.683, 140.250 1531.201 C 142.023 1529.869, 142.624 1527.968, 141.250 1528.038 C 140.838 1528.059, 139.911 1528.744, 139.190 1529.560 M 1193.015 1532.250 C 1193.024 1534.037, 1193.448 1536.160, 1193.958 1536.966 C 1194.533 1537.875, 1194.520 1538.873, 1193.926 1539.590 C 1192.909 1540.815, 1193.678 1544, 1194.990 1544 C 1196.183 1544, 1196.757 1539.576, 1195.875 1537.191 C 1195.442 1536.021, 1195.476 1534.824, 1195.950 1534.531 C 1196.903 1533.942, 1194.943 1529.020, 1193.750 1529.008 C 1193.338 1529.004, 1193.007 1530.463, 1193.015 1532.250 M 143.583 1531.643 C 142.692 1533.965, 143.205 1534.029, 145.425 1531.871 C 147.017 1530.324, 147.079 1530, 145.782 1530 C 144.920 1530, 143.930 1530.739, 143.583 1531.643 M 1227 1536.500 C 1227 1537.325, 1227.177 1538, 1227.393 1538 C 1227.609 1538, 1228.045 1537.325, 1228.362 1536.500 C 1228.678 1535.675, 1228.501 1535, 1227.969 1535 C 1227.436 1535, 1227 1535.675, 1227 1536.500 M 139 1540 C 137.825 1541.650, 137.260 1543, 137.744 1543 C 138.228 1543, 139.622 1541.650, 140.842 1540 C 142.062 1538.350, 142.627 1537, 142.098 1537 C 141.569 1537, 140.175 1538.350, 139 1540 M 805.813 1537.683 C 806.534 1537.972, 807.397 1537.936, 807.729 1537.604 C 808.061 1537.272, 807.471 1537.036, 806.417 1537.079 C 805.252 1537.127, 805.015 1537.364, 805.813 1537.683 M 142.624 1540.539 C 141.659 1543.053, 141.943 1543.702, 143.122 1541.675 C 143.706 1540.671, 143.973 1539.639, 143.715 1539.382 C 143.458 1539.124, 142.966 1539.645, 142.624 1540.539 M 129.667 1543.667 C 129.300 1544.033, 129 1544.798, 129 1545.367 C 129 1545.993, 129.466 1545.934, 130.183 1545.217 C 130.834 1544.566, 131.134 1543.801, 130.850 1543.517 C 130.566 1543.233, 130.033 1543.300, 129.667 1543.667 M 151.813 1544.683 C 152.534 1544.972, 153.397 1544.936, 153.729 1544.604 C 154.061 1544.272, 153.471 1544.036, 152.417 1544.079 C 151.252 1544.127, 151.015 1544.364, 151.813 1544.683 M 1217.063 1549.050 C 1217.123 1552.292, 1217.185 1552.354, 1218.094 1550.080 C 1218.734 1548.478, 1218.713 1547.313, 1218.030 1546.630 C 1217.323 1545.923, 1217.020 1546.682, 1217.063 1549.050 M 129 1550 C 127.625 1551.076, 127.013 1551.966, 127.639 1551.978 C 128.266 1551.990, 129.841 1551.115, 131.139 1550.033 C 134.211 1547.474, 132.268 1547.444, 129 1550 M 133.568 1552.110 C 133.799 1552.484, 133.316 1553.048, 132.494 1553.364 C 130.634 1554.078, 130.525 1556, 132.345 1556 C 133.573 1556, 137 1552.971, 137 1551.886 C 137 1551.634, 136.133 1551.429, 135.073 1551.429 C 134.014 1551.429, 133.336 1551.735, 133.568 1552.110 M 240 1552 C 240 1552.550, 240.702 1553, 241.559 1553 C 242.416 1553, 242.840 1552.550, 242.500 1552 C 242.160 1551.450, 241.459 1551, 240.941 1551 C 240.423 1551, 240 1551.450, 240 1552 M 260.750 1551.662 C 261.438 1551.940, 262.563 1551.940, 263.250 1551.662 C 263.938 1551.385, 263.375 1551.158, 262 1551.158 C 260.625 1551.158, 260.063 1551.385, 260.750 1551.662 M 234.813 1552.683 C 235.534 1552.972, 236.397 1552.936, 236.729 1552.604 C 237.061 1552.272, 236.471 1552.036, 235.417 1552.079 C 234.252 1552.127, 234.015 1552.364, 234.813 1552.683 M 124.510 1554.016 C 124.856 1554.575, 125.557 1554.774, 126.069 1554.457 C 127.456 1553.600, 127.198 1553, 125.441 1553 C 124.584 1553, 124.165 1553.457, 124.510 1554.016 M 145.500 1554 C 145.840 1554.550, 146.316 1555, 146.559 1555 C 146.802 1555, 147 1554.550, 147 1554 C 147 1553.450, 146.523 1553, 145.941 1553 C 145.359 1553, 145.160 1553.450, 145.500 1554 M 140.500 1555 C 140.160 1555.550, 140.359 1556, 140.941 1556 C 141.523 1556, 142 1555.550, 142 1555 C 142 1554.450, 141.802 1554, 141.559 1554 C 141.316 1554, 140.840 1554.450, 140.500 1555 M 125.500 1560 C 123.592 1560.820, 123.603 1560.863, 125.750 1560.930 C 126.987 1560.968, 128 1560.550, 128 1560 C 128 1559.450, 127.888 1559.032, 127.750 1559.070 C 127.612 1559.109, 126.600 1559.527, 125.500 1560 M 1223 1565.892 C 1223 1566.566, 1222.550 1566.840, 1222 1566.500 C 1221.450 1566.160, 1221 1566.557, 1221 1567.382 C 1221 1569.851, 1222.729 1570.146, 1223.347 1567.782 C 1223.662 1566.575, 1223.714 1565.380, 1223.460 1565.127 C 1223.207 1564.874, 1223 1565.218, 1223 1565.892 M 1166.079 1567.583 C 1166.127 1568.748, 1166.364 1568.985, 1166.683 1568.188 C 1166.972 1567.466, 1166.936 1566.603, 1166.604 1566.271 C 1166.272 1565.939, 1166.036 1566.529, 1166.079 1567.583 M 132.813 1567.683 C 133.534 1567.972, 134.397 1567.936, 134.729 1567.604 C 135.061 1567.272, 134.471 1567.036, 133.417 1567.079 C 132.252 1567.127, 132.015 1567.364, 132.813 1567.683 M 142 1568 C 141.099 1568.582, 140.975 1568.975, 141.691 1568.985 C 142.346 1568.993, 143.160 1568.550, 143.500 1568 C 144.267 1566.758, 143.921 1566.758, 142 1568 M 150.459 1568.067 C 150.096 1568.653, 150.014 1569.348, 150.276 1569.610 C 150.538 1569.872, 151.019 1569.392, 151.345 1568.543 C 152.021 1566.781, 151.445 1566.471, 150.459 1568.067 M 141.607 1572.582 C 140.801 1574.681, 140.838 1575, 141.883 1575 C 142.369 1575, 143.002 1574.100, 143.290 1573 C 143.907 1570.638, 142.488 1570.286, 141.607 1572.582 M 1166.079 1573.583 C 1166.127 1574.748, 1166.364 1574.985, 1166.683 1574.188 C 1166.972 1573.466, 1166.936 1572.603, 1166.604 1572.271 C 1166.272 1571.939, 1166.036 1572.529, 1166.079 1573.583 M 1207.636 1574.494 C 1207.952 1575.316, 1208.620 1575.735, 1209.121 1575.425 C 1210.170 1574.777, 1209.328 1573, 1207.972 1573 C 1207.472 1573, 1207.321 1573.672, 1207.636 1574.494 M 1166.158 1580 C 1166.158 1581.375, 1166.385 1581.938, 1166.662 1581.250 C 1166.940 1580.563, 1166.940 1579.438, 1166.662 1578.750 C 1166.385 1578.063, 1166.158 1578.625, 1166.158 1580 M 1192.252 1581.500 C 1192.263 1583.700, 1192.468 1584.482, 1192.707 1583.238 C 1192.946 1581.994, 1192.937 1580.194, 1192.687 1579.238 C 1192.437 1578.282, 1192.241 1579.300, 1192.252 1581.500 M 666.813 1579.683 C 667.534 1579.972, 668.397 1579.936, 668.729 1579.604 C 669.061 1579.272, 668.471 1579.036, 667.417 1579.079 C 666.252 1579.127, 666.015 1579.364, 666.813 1579.683 M 675.813 1579.683 C 676.534 1579.972, 677.397 1579.936, 677.729 1579.604 C 678.061 1579.272, 677.471 1579.036, 676.417 1579.079 C 675.252 1579.127, 675.015 1579.364, 675.813 1579.683 M 702.813 1579.683 C 703.534 1579.972, 704.397 1579.936, 704.729 1579.604 C 705.061 1579.272, 704.471 1579.036, 703.417 1579.079 C 702.252 1579.127, 702.015 1579.364, 702.813 1579.683 M 723.813 1580.683 C 724.534 1580.972, 725.397 1580.936, 725.729 1580.604 C 726.061 1580.272, 725.471 1580.036, 724.417 1580.079 C 723.252 1580.127, 723.015 1580.364, 723.813 1580.683 M 729.750 1580.662 C 730.438 1580.940, 731.563 1580.940, 732.250 1580.662 C 732.938 1580.385, 732.375 1580.158, 731 1580.158 C 729.625 1580.158, 729.063 1580.385, 729.750 1580.662 M 564.813 1581.683 C 565.534 1581.972, 566.397 1581.936, 566.729 1581.604 C 567.061 1581.272, 566.471 1581.036, 565.417 1581.079 C 564.252 1581.127, 564.015 1581.364, 564.813 1581.683 M 773.813 1581.683 C 774.534 1581.972, 775.397 1581.936, 775.729 1581.604 C 776.061 1581.272, 775.471 1581.036, 774.417 1581.079 C 773.252 1581.127, 773.015 1581.364, 773.813 1581.683 M 534.269 1582.693 C 535.242 1582.947, 536.592 1582.930, 537.269 1582.656 C 537.946 1582.382, 537.150 1582.175, 535.500 1582.195 C 533.850 1582.215, 533.296 1582.439, 534.269 1582.693 M 1224.500 1583.348 C 1223.950 1583.982, 1223.352 1585.355, 1223.172 1586.400 C 1222.867 1588.165, 1222.960 1588.183, 1224.495 1586.648 C 1225.403 1585.740, 1226.001 1584.367, 1225.823 1583.597 C 1225.583 1582.558, 1225.242 1582.494, 1224.500 1583.348 M 913.750 1584.662 C 914.438 1584.940, 915.563 1584.940, 916.250 1584.662 C 916.938 1584.385, 916.375 1584.158, 915 1584.158 C 913.625 1584.158, 913.063 1584.385, 913.750 1584.662 M 1192.195 1589.500 C 1192.215 1591.150, 1192.439 1591.704, 1192.693 1590.731 C 1192.947 1589.758, 1192.930 1588.408, 1192.656 1587.731 C 1192.382 1587.054, 1192.175 1587.850, 1192.195 1589.500 M 135.500 1591 C 135.160 1591.550, 135.359 1592, 135.941 1592 C 136.523 1592, 137 1591.550, 137 1591 C 137 1590.450, 136.802 1590, 136.559 1590 C 136.316 1590, 135.840 1590.450, 135.500 1591 M 150.515 1592.719 L 148.759 1595.500 151.074 1593.278 C 152.347 1592.056, 153.137 1590.804, 152.830 1590.497 C 152.522 1590.189, 151.481 1591.189, 150.515 1592.719 M 587.750 1591.662 C 588.438 1591.940, 589.563 1591.940, 590.250 1591.662 C 590.938 1591.385, 590.375 1591.158, 589 1591.158 C 587.625 1591.158, 587.063 1591.385, 587.750 1591.662 M 1192.079 1595.583 C 1192.127 1596.748, 1192.364 1596.985, 1192.683 1596.188 C 1192.972 1595.466, 1192.936 1594.603, 1192.604 1594.271 C 1192.272 1593.939, 1192.036 1594.529, 1192.079 1595.583 M 133.500 1597 L 130.500 1597.763 133.191 1597.882 C 134.671 1597.947, 136.160 1597.550, 136.500 1597 C 136.840 1596.450, 136.979 1596.053, 136.809 1596.118 C 136.639 1596.183, 135.150 1596.580, 133.500 1597 M 140.510 1602.990 C 138.935 1604.634, 137.886 1606.220, 138.180 1606.514 C 138.474 1606.808, 139.284 1606.362, 139.980 1605.524 C 140.676 1604.686, 141.695 1604, 142.245 1604 C 142.803 1604, 142.694 1604.663, 142 1605.500 C 141.315 1606.325, 141.152 1607, 141.637 1607 C 142.122 1607, 143.110 1606.053, 143.833 1604.895 C 144.556 1603.738, 144.664 1603.089, 144.074 1603.454 C 142.616 1604.355, 142.710 1602.690, 144.200 1601.200 C 144.887 1600.513, 144.967 1600, 144.387 1600 C 143.830 1600, 142.085 1601.345, 140.510 1602.990 M 1178 1602 C 1178 1602.550, 1178.477 1603, 1179.059 1603 C 1179.641 1603, 1179.840 1602.550, 1179.500 1602 C 1179.160 1601.450, 1178.684 1601, 1178.441 1601 C 1178.198 1601, 1178 1601.450, 1178 1602 M 132.750 1603.662 C 133.438 1603.940, 134.563 1603.940, 135.250 1603.662 C 135.938 1603.385, 135.375 1603.158, 134 1603.158 C 132.625 1603.158, 132.063 1603.385, 132.750 1603.662 M 796 1604 C 796 1604.550, 796.702 1605, 797.559 1605 C 798.416 1605, 798.840 1604.550, 798.500 1604 C 798.160 1603.450, 797.459 1603, 796.941 1603 C 796.423 1603, 796 1603.450, 796 1604 M 1175.500 1604 C 1175.160 1604.550, 1175.359 1605, 1175.941 1605 C 1176.523 1605, 1177 1604.550, 1177 1604 C 1177 1603.450, 1176.802 1603, 1176.559 1603 C 1176.316 1603, 1175.840 1603.450, 1175.500 1604 M 884.500 1608 C 884.840 1608.550, 885.568 1609, 886.118 1609 C 886.668 1609, 886.840 1608.550, 886.500 1608 C 886.160 1607.450, 885.432 1607, 884.882 1607 C 884.332 1607, 884.160 1607.450, 884.500 1608 M 908.813 1607.683 C 909.534 1607.972, 910.397 1607.936, 910.729 1607.604 C 911.061 1607.272, 910.471 1607.036, 909.417 1607.079 C 908.252 1607.127, 908.015 1607.364, 908.813 1607.683 M 135.500 1610 C 135.160 1610.550, 135.584 1611, 136.441 1611 C 137.298 1611, 138 1610.550, 138 1610 C 138 1609.450, 137.577 1609, 137.059 1609 C 136.541 1609, 135.840 1609.450, 135.500 1610 M 146.459 1611.067 C 145.383 1612.808, 146.608 1613.177, 147.980 1611.524 C 148.769 1610.574, 148.845 1610, 148.181 1610 C 147.597 1610, 146.821 1610.480, 146.459 1611.067 M 1178.079 1613.583 C 1178.127 1614.748, 1178.364 1614.985, 1178.683 1614.188 C 1178.972 1613.466, 1178.936 1612.603, 1178.604 1612.271 C 1178.272 1611.939, 1178.036 1612.529, 1178.079 1613.583 M 464.813 1613.683 C 465.534 1613.972, 466.397 1613.936, 466.729 1613.604 C 467.061 1613.272, 466.471 1613.036, 465.417 1613.079 C 464.252 1613.127, 464.015 1613.364, 464.813 1613.683 M 890.750 1617.662 C 891.438 1617.940, 892.563 1617.940, 893.250 1617.662 C 893.938 1617.385, 893.375 1617.158, 892 1617.158 C 890.625 1617.158, 890.063 1617.385, 890.750 1617.662 M 844.750 1634.662 C 845.438 1634.940, 846.563 1634.940, 847.250 1634.662 C 847.938 1634.385, 847.375 1634.158, 846 1634.158 C 844.625 1634.158, 844.063 1634.385, 844.750 1634.662 M 130 1638.869 C 130 1639.491, 130.675 1640, 131.500 1640 C 132.325 1640, 133 1640.702, 133 1641.559 C 133 1642.571, 133.439 1642.834, 134.250 1642.309 C 134.938 1641.864, 137.075 1641.452, 139 1641.393 C 147.333 1641.139, 148.537 1640.711, 143 1639.972 C 139.975 1639.569, 135.813 1638.901, 133.750 1638.489 C 131.185 1637.975, 130 1638.096, 130 1638.869 M 1205 1640.500 C 1205 1641.325, 1205.450 1642, 1206 1642 C 1206.550 1642, 1207 1641.325, 1207 1640.500 C 1207 1639.675, 1206.550 1639, 1206 1639 C 1205.450 1639, 1205 1639.675, 1205 1640.500 M 1217 1640 C 1217 1640.550, 1217.477 1641, 1218.059 1641 C 1218.641 1641, 1218.840 1640.550, 1218.500 1640 C 1218.160 1639.450, 1217.684 1639, 1217.441 1639 C 1217.198 1639, 1217 1639.450, 1217 1640 M 151.750 1640.662 C 152.438 1640.940, 153.563 1640.940, 154.250 1640.662 C 154.938 1640.385, 154.375 1640.158, 153 1640.158 C 151.625 1640.158, 151.063 1640.385, 151.750 1640.662 M 216.813 1642.683 C 217.534 1642.972, 218.397 1642.936, 218.729 1642.604 C 219.061 1642.272, 218.471 1642.036, 217.417 1642.079 C 216.252 1642.127, 216.015 1642.364, 216.813 1642.683 M 1216 1643 C 1216 1643.550, 1216.450 1644, 1217 1644 C 1217.550 1644, 1218 1643.550, 1218 1643 C 1218 1642.450, 1217.550 1642, 1217 1642 C 1216.450 1642, 1216 1642.450, 1216 1643 M 942 1645 C 939.673 1645.745, 939.651 1645.808, 941.691 1645.900 C 942.896 1645.955, 944.160 1645.550, 944.500 1645 C 944.840 1644.450, 944.979 1644.045, 944.809 1644.100 C 944.639 1644.155, 943.375 1644.560, 942 1645 M 948.750 1644.662 C 949.438 1644.940, 950.563 1644.940, 951.250 1644.662 C 951.938 1644.385, 951.375 1644.158, 950 1644.158 C 948.625 1644.158, 948.063 1644.385, 948.750 1644.662 M 924.813 1645.683 C 925.534 1645.972, 926.397 1645.936, 926.729 1645.604 C 927.061 1645.272, 926.471 1645.036, 925.417 1645.079 C 924.252 1645.127, 924.015 1645.364, 924.813 1645.683 M 1217.100 1646.250 C 1217.155 1646.938, 1217.560 1648.625, 1218 1650 C 1218.715 1652.231, 1218.811 1652.097, 1218.900 1648.750 C 1218.955 1646.688, 1218.550 1645, 1218 1645 C 1217.450 1645, 1217.045 1645.563, 1217.100 1646.250 M 894.813 1646.683 C 895.534 1646.972, 896.397 1646.936, 896.729 1646.604 C 897.061 1646.272, 896.471 1646.036, 895.417 1646.079 C 894.252 1646.127, 894.015 1646.364, 894.813 1646.683 M 908.750 1646.662 C 909.438 1646.940, 910.563 1646.940, 911.250 1646.662 C 911.938 1646.385, 911.375 1646.158, 910 1646.158 C 908.625 1646.158, 908.063 1646.385, 908.750 1646.662 M 1206.787 1649 C 1206.545 1650.650, 1206.718 1652, 1207.173 1652 C 1207.628 1652, 1208 1650.650, 1208 1649 C 1208 1647.350, 1207.826 1646, 1207.613 1646 C 1207.401 1646, 1207.029 1647.350, 1206.787 1649 M 1222.500 1648 C 1222.840 1648.550, 1223.316 1649, 1223.559 1649 C 1223.802 1649, 1224 1648.550, 1224 1648 C 1224 1647.450, 1223.523 1647, 1222.941 1647 C 1222.359 1647, 1222.160 1647.450, 1222.500 1648 M 1177.269 1649.693 C 1178.242 1649.947, 1179.592 1649.930, 1180.269 1649.656 C 1180.946 1649.382, 1180.150 1649.175, 1178.500 1649.195 C 1176.850 1649.215, 1176.296 1649.439, 1177.269 1649.693 M 1213.583 1649.866 C 1213.152 1650.563, 1213.070 1651.403, 1213.400 1651.733 C 1214.295 1652.628, 1215.271 1651.312, 1214.787 1649.862 C 1214.449 1648.846, 1214.213 1648.846, 1213.583 1649.866 M 1177 1652.059 C 1177 1652.641, 1177.450 1652.840, 1178 1652.500 C 1178.550 1652.160, 1179 1651.684, 1179 1651.441 C 1179 1651.198, 1178.550 1651, 1178 1651 C 1177.450 1651, 1177 1651.477, 1177 1652.059 M 1205.500 1654 C 1205.160 1654.550, 1205.610 1655, 1206.500 1655 C 1207.390 1655, 1207.840 1654.550, 1207.500 1654 C 1207.160 1653.450, 1206.710 1653, 1206.500 1653 C 1206.290 1653, 1205.840 1653.450, 1205.500 1654 M 1207.079 1657.583 C 1207.127 1658.748, 1207.364 1658.985, 1207.683 1658.188 C 1207.972 1657.466, 1207.936 1656.603, 1207.604 1656.271 C 1207.272 1655.939, 1207.036 1656.529, 1207.079 1657.583 M 1179 1661 C 1179 1661.550, 1179.450 1662, 1180 1662 C 1180.550 1662, 1181 1661.550, 1181 1661 C 1181 1660.450, 1180.550 1660, 1180 1660 C 1179.450 1660, 1179 1660.450, 1179 1661 M 1202 1663.941 C 1202 1664.459, 1202.450 1665.160, 1203 1665.500 C 1203.550 1665.840, 1204 1665.416, 1204 1664.559 C 1204 1663.702, 1203.550 1663, 1203 1663 C 1202.450 1663, 1202 1663.423, 1202 1663.941 M 640 1669 C 640 1669.583, 643.333 1670, 648 1670 C 652.667 1670, 656 1669.583, 656 1669 C 656 1668.417, 652.667 1668, 648 1668 C 643.333 1668, 640 1668.417, 640 1669 M 876.043 1675.344 C 876.341 1675.660, 881.741 1676.215, 888.043 1676.576 C 894.344 1676.938, 899.172 1676.891, 898.771 1676.471 C 898.370 1676.052, 892.970 1675.498, 886.771 1675.239 C 880.572 1674.980, 875.744 1675.028, 876.043 1675.344 M 940.813 1680.683 C 941.534 1680.972, 942.397 1680.936, 942.729 1680.604 C 943.061 1680.272, 942.471 1680.036, 941.417 1680.079 C 940.252 1680.127, 940.015 1680.364, 940.813 1680.683" stroke="none" fill="black" fill-rule="evenodd"/>
</svg>