<svg xmlns="http://www.w3.org/2000/svg" width="1240" height="1753" viewBox="0 0 1240 1753" version="1.1">
	<path d="M 858 61.033 C 845.267 61.657, 821.719 64.437, 819.962 65.523 C 819.617 65.737, 813.746 66.848, 806.917 67.992 C 793.450 70.248, 767.085 76.705, 765.550 78.122 C 765.027 78.605, 763.820 79, 762.867 79 C 760.849 79, 742.324 84.655, 739.764 86.052 C 738.809 86.574, 737.232 87, 736.259 87 C 733.820 87, 721.229 91.627, 711 96.282 C 699.849 101.356, 691.316 104.730, 684.176 106.889 C 677.145 109.014, 663.765 115.189, 650 122.662 C 634.926 130.846, 624.039 137.127, 623.546 137.926 C 623.255 138.397, 620.721 139.982, 617.915 141.449 C 615.109 142.917, 610.493 145.755, 607.656 147.757 C 604.820 149.759, 599.575 153.396, 596 155.839 C 589.993 159.944, 583.130 165.048, 580.339 167.486 C 579.700 168.044, 577.330 170.075, 575.073 172 C 572.816 173.925, 569.855 176.488, 568.494 177.695 C 567.133 178.902, 562.753 182.678, 558.760 186.087 C 554.767 189.495, 550.375 193.315, 549 194.574 C 547.625 195.834, 541.823 201.057, 536.107 206.182 C 530.391 211.307, 525.216 216.084, 524.607 216.797 C 523.998 217.510, 521.715 219.760, 519.534 221.797 C 512.496 228.367, 489.723 252.632, 486.522 256.970 C 485.391 258.503, 482.561 261.720, 480.233 264.118 C 477.905 266.517, 476 268.813, 476 269.220 C 476 269.627, 472.850 273.416, 469 277.640 C 465.150 281.863, 462 285.734, 462 286.241 C 462 286.748, 460.496 289.039, 458.658 291.332 C 456.820 293.624, 453.880 297.975, 452.125 301 C 447.924 308.241, 446.604 310.396, 446 311 C 444.053 312.947, 434.287 332.135, 431.919 338.668 C 428.372 348.451, 427.619 350.226, 424.250 356.742 C 422.462 360.200, 420.985 363.585, 420.966 364.264 C 420.947 364.944, 420.063 367.300, 419 369.500 C 417.937 371.700, 417.053 374.025, 417.034 374.667 C 417.015 375.309, 416.104 377.926, 415.008 380.482 C 413.004 385.156, 412.728 386.099, 411.177 393.577 C 410.712 395.819, 409.963 398.251, 409.511 398.982 C 408.991 399.824, 409.079 400.069, 409.752 399.653 C 410.419 399.241, 410.619 399.741, 410.290 400.999 C 410.002 402.099, 409.418 403, 408.992 403 C 407.604 403, 406.806 408.262, 408.074 409.046 C 408.878 409.542, 408.588 409.996, 407.183 410.442 C 405.849 410.865, 405.311 411.647, 405.684 412.619 C 406.004 413.453, 405.795 415.117, 405.219 416.317 C 401.589 423.885, 398.908 433.937, 399.242 438.728 C 399.445 441.646, 399.208 443.628, 398.693 443.310 C 398.194 443.002, 398.049 443.593, 398.370 444.625 C 398.691 445.656, 398.540 447.160, 398.034 447.966 C 397.455 448.890, 397.509 449.908, 398.180 450.716 C 398.968 451.667, 398.845 452, 397.706 452 C 396.859 452, 395.901 451.437, 395.577 450.750 C 395.253 450.063, 395.225 450.741, 395.515 452.257 C 395.879 454.163, 395.649 454.935, 394.771 454.757 C 393.975 454.596, 393.476 455.639, 393.435 457.546 C 393.400 459.221, 393.061 461.093, 392.682 461.706 C 392.303 462.318, 392.262 463.518, 392.589 464.372 C 393.178 465.905, 387.709 484.414, 386.066 486.449 C 384.732 488.102, 381.729 502.851, 382.381 504.550 C 382.704 505.391, 382.573 506.849, 382.090 507.790 C 380.592 510.711, 378.800 519.867, 379.503 521.006 C 379.871 521.601, 379.676 522.686, 379.069 523.417 C 378.462 524.148, 378.232 525.442, 378.559 526.292 C 378.885 527.143, 378.409 528.972, 377.502 530.357 C 376.313 532.171, 375.884 534.920, 375.968 540.188 C 376.246 557.651, 375.186 586.837, 374.136 590.620 C 373.507 592.886, 372.973 599.861, 372.949 606.120 C 372.925 612.379, 372.480 622.450, 371.959 628.500 C 371.438 634.550, 370.572 649.400, 370.035 661.500 C 369.020 684.384, 366.777 704.628, 364.495 711.500 C 361.370 720.915, 351.732 739.199, 342.094 754 C 337.087 761.690, 325.869 776, 324.849 776 C 324.382 776, 324 776.653, 324 777.450 C 324 778.248, 323.300 779.292, 322.445 779.771 C 321.589 780.250, 318.400 783.534, 315.357 787.071 C 312.314 790.607, 298.944 804.750, 285.646 818.500 C 252.190 853.094, 249.187 856.321, 241.252 866.211 L 234.263 874.923 233.631 884.711 C 232.227 906.462, 232.617 909.654, 236.961 911.979 C 238.014 912.543, 238.826 913.790, 238.765 914.752 C 238.622 917.001, 244.577 926.624, 246.589 927.396 C 247.435 927.720, 247.824 928.476, 247.454 929.074 C 247.084 929.673, 247.917 931.363, 249.305 932.831 C 250.693 934.299, 253.633 937.975, 255.839 941 C 263.581 951.620, 265.049 953.569, 271.498 961.776 C 275.074 966.327, 278 970.327, 278 970.665 C 278 972.277, 290.294 986.094, 304.991 1001 C 313.939 1010.075, 321.959 1018.559, 322.812 1019.852 C 323.666 1021.146, 326.042 1023.264, 328.093 1024.559 C 330.144 1025.854, 334.301 1030.195, 337.331 1034.206 C 340.361 1038.218, 343.782 1042.501, 344.935 1043.724 C 346.087 1044.948, 347.472 1046.973, 348.013 1048.224 C 348.553 1049.476, 349.440 1051.175, 349.984 1052 C 353.739 1057.696, 362.473 1083.271, 365.865 1098.500 C 366.967 1103.450, 368.609 1110.650, 369.514 1114.500 C 375.175 1138.595, 376.316 1144.064, 376.706 1148.973 C 377.113 1154.108, 378.652 1162.086, 382.384 1178.417 C 383.254 1182.222, 384.392 1191.393, 384.914 1198.799 C 385.436 1206.204, 386.231 1212.629, 386.681 1213.077 C 387.132 1213.524, 389.637 1214.028, 392.249 1214.195 C 394.861 1214.363, 396.999 1214.785, 396.999 1215.133 C 397 1215.973, 393.158 1216.969, 389.857 1216.986 C 388.403 1216.994, 386.976 1217.620, 386.686 1218.377 C 385.878 1220.482, 387.141 1228.239, 388.678 1230.609 C 389.430 1231.769, 389.779 1233.411, 389.455 1234.258 C 389.130 1235.105, 389.352 1236.099, 389.948 1236.468 C 390.545 1236.837, 390.743 1237.607, 390.388 1238.181 C 390.034 1238.754, 390.364 1239.616, 391.122 1240.096 C 392.220 1240.792, 392.153 1240.972, 390.794 1240.985 C 389.235 1240.999, 389.210 1241.345, 390.505 1245.014 C 391.968 1249.161, 392 1249.290, 392 1251.059 C 392 1251.641, 392.450 1251.840, 393 1251.500 C 393.550 1251.160, 394 1251.584, 394 1252.441 C 394 1253.298, 393.403 1254, 392.673 1254 C 390.848 1254, 392.190 1261.244, 396.740 1275.948 C 399.198 1283.894, 400.315 1289.476, 400.391 1294.197 C 400.451 1297.938, 400.868 1300.999, 401.317 1300.999 C 401.767 1301, 401.870 1301.835, 401.546 1302.855 C 401.222 1303.875, 401.388 1305.788, 401.915 1307.105 C 402.442 1308.422, 402.902 1308.938, 402.937 1308.250 C 402.971 1307.563, 403.765 1307, 404.700 1307 C 405.894 1307, 406.085 1307.315, 405.344 1308.056 C 403.662 1309.738, 405.126 1336, 406.902 1336 C 407.929 1336, 410.307 1346.695, 409.552 1347.916 C 409.230 1348.437, 409.906 1349.521, 411.053 1350.325 C 412.534 1351.362, 412.757 1351.915, 411.820 1352.230 C 410.736 1352.594, 410.752 1353.372, 411.911 1356.587 C 412.686 1358.739, 413.469 1362.075, 413.650 1364 C 413.996 1367.673, 415.175 1372.481, 417.574 1380 C 418.364 1382.475, 419.008 1385.179, 419.005 1386.008 C 419.002 1386.837, 420.061 1389.537, 421.357 1392.008 C 422.654 1394.479, 424.033 1397.823, 424.424 1399.439 C 424.814 1401.055, 425.940 1403.530, 426.926 1404.939 C 427.912 1406.348, 429.497 1409.975, 430.448 1413 C 431.400 1416.025, 433.038 1420.408, 434.089 1422.739 C 435.140 1425.071, 436.008 1427.321, 436.019 1427.739 C 436.047 1428.906, 442.670 1441.724, 444.826 1444.786 C 445.878 1446.279, 447.052 1448.513, 447.436 1449.750 C 447.820 1450.987, 448.554 1452, 449.067 1452 C 449.580 1452, 449.887 1452.347, 449.750 1452.770 C 449.612 1453.194, 450.072 1454.206, 450.770 1455.020 C 451.469 1455.834, 453.929 1459.425, 456.236 1463 C 460.563 1469.704, 460.990 1470.360, 464.696 1476.006 C 465.904 1477.846, 468.859 1481.410, 471.264 1483.926 C 473.669 1486.442, 476.377 1489.590, 477.282 1490.921 C 479.374 1493.998, 488.323 1504.113, 498.105 1514.458 C 502.288 1518.881, 507.913 1524.923, 510.605 1527.885 C 519.810 1538.012, 537.315 1554.640, 545.750 1561.270 C 549.188 1563.972, 552 1566.513, 552 1566.917 C 552 1567.320, 554.812 1569.962, 558.250 1572.787 C 561.688 1575.613, 566.373 1579.629, 568.663 1581.712 C 582.106 1593.944, 598.785 1606.834, 611.088 1614.500 C 611.971 1615.050, 614.900 1616.954, 617.597 1618.731 C 620.293 1620.508, 623.063 1621.971, 623.750 1621.981 C 624.438 1621.991, 625 1622.399, 625 1622.886 C 625 1623.373, 626.462 1624.518, 628.250 1625.431 C 630.038 1626.343, 632.850 1627.958, 634.500 1629.019 C 636.150 1630.080, 640.074 1632.310, 643.220 1633.973 C 646.365 1635.637, 652.215 1638.926, 656.220 1641.282 C 663.739 1645.706, 682.466 1653.986, 689.500 1655.996 C 691.700 1656.625, 694.400 1657.519, 695.500 1657.984 C 696.600 1658.448, 701.550 1660.502, 706.500 1662.548 C 711.450 1664.594, 715.950 1666.618, 716.500 1667.045 C 717.050 1667.472, 719.525 1668.579, 722 1669.504 C 724.475 1670.429, 727.400 1671.556, 728.500 1672.009 C 729.600 1672.462, 734.438 1673.874, 739.250 1675.147 C 744.063 1676.420, 748 1677.808, 748 1678.231 C 748 1678.654, 748.756 1679, 749.679 1679 C 750.602 1679, 752.740 1679.432, 754.429 1679.961 C 756.118 1680.489, 762.669 1682.556, 768.988 1684.554 C 775.306 1686.552, 781.606 1688.339, 782.988 1688.525 C 784.369 1688.710, 785.612 1688.949, 785.750 1689.056 C 786.413 1689.571, 791.853 1690.768, 801.500 1692.524 C 806.450 1693.425, 814.191 1695.033, 818.702 1696.097 C 823.214 1697.161, 827.264 1697.935, 827.702 1697.817 C 828.141 1697.700, 830.525 1697.914, 833 1698.293 C 835.475 1698.672, 840.200 1699.256, 843.500 1699.589 C 846.800 1699.922, 849.792 1700.375, 850.150 1700.594 C 850.507 1700.814, 858.157 1700.954, 867.150 1700.905 C 876.142 1700.856, 892.416 1700.905, 903.313 1701.013 C 921.586 1701.195, 923.231 1701.066, 924.481 1699.355 C 925.668 1697.731, 927.248 1697.507, 937.168 1697.553 C 943.401 1697.583, 955.121 1697.975, 963.214 1698.424 C 971.307 1698.874, 978.732 1698.897, 979.714 1698.475 C 980.696 1698.054, 982.850 1697.724, 984.500 1697.743 C 986.150 1697.761, 988.015 1697.361, 988.645 1696.853 C 989.274 1696.345, 990.174 1696.024, 990.645 1696.139 C 993.157 1696.755, 1002 1690.775, 1002 1688.461 C 1002 1687.806, 1002.943 1686.071, 1004.096 1684.605 C 1005.248 1683.140, 1005.950 1681.312, 1005.655 1680.544 C 1005.360 1679.775, 1005.767 1678.608, 1006.559 1677.951 C 1007.352 1677.293, 1008 1677.073, 1008 1677.462 C 1008 1678.209, 1015.342 1672.773, 1018.174 1669.929 C 1019.412 1668.684, 1019.555 1667.955, 1018.724 1667.124 C 1017.892 1666.292, 1017.912 1666, 1018.800 1666 C 1019.460 1666, 1020 1665.550, 1020 1665 C 1020 1663.622, 1018.411 1663.747, 1016.821 1665.250 C 1015.105 1666.874, 1012 1667.385, 1012 1666.044 C 1012 1665.470, 1012.538 1665, 1013.195 1665 C 1015.060 1665, 1020 1659.825, 1020 1657.872 C 1020 1656.907, 1020.438 1655.847, 1020.973 1655.517 C 1021.508 1655.186, 1022.412 1653.185, 1022.981 1651.070 C 1023.629 1648.665, 1025.250 1646.284, 1027.312 1644.711 C 1029.124 1643.329, 1031.464 1640.298, 1032.511 1637.976 L 1034.415 1633.754 1032.068 1631.854 C 1030.777 1630.809, 1028.996 1630.156, 1028.111 1630.402 C 1022.075 1632.083, 1019.979 1632.110, 1019.367 1630.514 C 1018.961 1629.455, 1019.810 1627.733, 1021.748 1625.684 C 1025.497 1621.721, 1027 1618.849, 1027 1615.648 C 1027 1612.422, 1026.005 1609.879, 1024.988 1610.507 C 1024.547 1610.780, 1024.422 1610.102, 1024.710 1609.001 C 1024.998 1607.901, 1024.767 1607, 1024.196 1607 C 1023.626 1607, 1022.839 1605.544, 1022.448 1603.764 C 1022.057 1601.985, 1021.042 1600.020, 1020.192 1599.399 C 1019.060 1598.571, 1018.708 1596.760, 1018.875 1592.629 C 1019.086 1587.409, 1018.914 1586.918, 1016.552 1586.020 C 1015.148 1585.486, 1013.948 1584.251, 1013.885 1583.275 C 1013.681 1580.140, 1014.149 1577.525, 1015.086 1576.550 C 1016.506 1575.074, 1016.163 1573, 1014.500 1573 C 1013.675 1573, 1013 1572.550, 1013 1572 C 1013 1571.450, 1013.459 1571, 1014.020 1571 C 1015.009 1571, 1014.706 1566.952, 1013.580 1565.130 C 1013.273 1564.633, 1013.692 1563.671, 1014.511 1562.991 C 1016.066 1561.700, 1016.582 1558, 1015.207 1558 C 1012.252 1558, 1011.358 1523.669, 1013.983 1511 C 1015.776 1502.342, 1016.688 1486.836, 1015.583 1483.800 C 1014.790 1481.624, 1014.974 1480.687, 1016.529 1478.968 C 1018.337 1476.970, 1018.350 1476.775, 1016.729 1475.868 C 1014.993 1474.897, 1014.275 1471, 1015.832 1471 C 1017.109 1471, 1018.884 1464.274, 1018.249 1461.844 C 1017.894 1460.485, 1018.071 1459.926, 1018.729 1460.333 C 1019.303 1460.688, 1020.292 1460.353, 1020.926 1459.589 C 1022.251 1457.993, 1020.481 1449.044, 1018.588 1447.765 C 1017.990 1447.361, 1017.810 1447.024, 1018.189 1447.015 C 1019.327 1446.990, 1015.850 1437.779, 1013.157 1433.685 C 1009.209 1427.682, 1005.846 1426.438, 991 1425.489 C 985.775 1425.155, 974.075 1424.198, 965 1423.362 C 955.925 1422.526, 942.200 1421.784, 934.500 1421.714 C 921.775 1421.597, 920.045 1421.798, 915.500 1423.918 C 911.571 1425.752, 908.182 1426.360, 899.681 1426.757 C 893.731 1427.035, 888.458 1426.858, 887.963 1426.363 C 887.126 1425.526, 875.836 1425.958, 861.500 1427.375 C 850.701 1428.443, 841.605 1428.227, 835.500 1426.759 C 820.585 1423.171, 794.253 1414.125, 784.533 1409.251 C 776.416 1405.179, 759.873 1394.434, 755.413 1390.336 C 753.715 1388.776, 750.003 1385.406, 747.163 1382.847 C 744.323 1380.288, 742 1377.691, 742 1377.076 C 742 1376.461, 740.875 1375.445, 739.500 1374.818 C 738.125 1374.192, 737 1373.401, 737 1373.062 C 737 1372.723, 735.763 1371.040, 734.250 1369.322 C 732.737 1367.604, 730.375 1364.721, 729 1362.914 C 727.625 1361.108, 725.800 1358.926, 724.945 1358.065 C 722.655 1355.760, 717 1348.310, 717 1347.597 C 717 1347.259, 715.763 1345.610, 714.250 1343.933 C 711.544 1340.932, 703.170 1327.893, 700.805 1323 C 700.141 1321.625, 698.860 1319.375, 697.960 1318 C 693.136 1310.637, 677.202 1252.021, 673.631 1228.500 C 672.795 1223, 671.841 1216.700, 671.510 1214.500 C 671.180 1212.300, 670.300 1204.650, 669.555 1197.500 C 668.304 1185.496, 662.299 1145.129, 660.034 1133.500 C 659.498 1130.750, 658.350 1124.450, 657.483 1119.500 C 656.616 1114.550, 655.063 1108.700, 654.031 1106.500 C 652.999 1104.300, 651.418 1098.450, 650.517 1093.500 C 649.616 1088.550, 647.831 1078.650, 646.550 1071.500 C 645.270 1064.350, 643.541 1055.350, 642.708 1051.500 C 641.875 1047.650, 640.874 1041.181, 640.483 1037.125 C 640.069 1032.833, 638.112 1024.890, 635.802 1018.125 C 633.619 1011.731, 631.035 1003.800, 630.060 1000.500 C 626.476 988.368, 615.486 963.422, 606.768 947.633 C 594.239 924.940, 589.571 900.836, 594.443 884 C 596.148 878.111, 607.795 856.386, 617.284 841.395 C 627.963 824.527, 637.298 804.603, 639.492 794 C 639.890 792.075, 641.023 789.150, 642.011 787.500 C 646.692 779.676, 650.944 757.015, 651.994 734.295 C 652.482 723.732, 653.346 714.222, 653.914 713.162 C 655.717 709.792, 656.913 698.085, 657.505 678 C 658.191 654.764, 658.807 644.036, 659.574 642 C 661.010 638.183, 662.192 629.314, 663.037 616 C 663.543 608.025, 664.435 597, 665.018 591.500 C 665.601 586, 666.325 578.575, 666.629 575 C 666.932 571.425, 667.356 567.150, 667.571 565.500 C 667.786 563.850, 668.216 558.225, 668.526 553 C 668.836 547.775, 669.290 542.912, 669.535 542.192 C 669.781 541.473, 670.885 534.498, 671.990 526.692 C 673.095 518.887, 674.854 509.350, 675.899 505.500 C 677.864 498.260, 680.606 487.367, 681.563 483 C 682.839 477.177, 690.239 452.988, 692.577 447 C 696.067 438.062, 703.417 425.589, 710.500 416.584 C 712.700 413.788, 715.845 409.699, 717.490 407.500 C 719.134 405.300, 721.834 402.062, 723.490 400.305 C 725.145 398.548, 728.525 394.640, 731 391.621 C 733.475 388.602, 736.732 385.600, 738.237 384.950 C 739.743 384.300, 740.751 383.406, 740.478 382.965 C 739.909 382.044, 741.035 380.827, 746.757 376.184 C 749.004 374.360, 752.116 371.755, 753.672 370.395 C 763.496 361.804, 785.348 349.979, 802 344.240 C 834.039 333.199, 845.403 331.268, 861.500 334.127 C 864.800 334.713, 876.725 335.285, 888 335.397 C 907.507 335.591, 908.742 335.720, 913.500 338.049 C 918.074 340.288, 919.736 340.504, 933 340.578 C 940.975 340.623, 952 340.302, 957.500 339.865 C 963 339.428, 975.049 338.606, 984.277 338.038 C 993.800 337.451, 1002.467 336.414, 1004.323 335.638 C 1008.940 333.709, 1014.840 326.270, 1015.537 321.500 C 1015.961 318.598, 1017.311 315, 1017.976 315 C 1018.393 315, 1019.183 312.733, 1019.731 309.961 C 1020.628 305.428, 1020.528 304.783, 1018.738 303.529 C 1017.338 302.548, 1016.655 300.752, 1016.436 297.473 C 1016.236 294.481, 1015.503 292.357, 1014.390 291.543 C 1012.766 290.356, 1012.792 290.158, 1014.802 288.438 C 1016.780 286.744, 1016.823 286.462, 1015.351 284.835 C 1014.257 283.627, 1013.965 282.192, 1014.423 280.285 C 1015.257 276.815, 1015.315 260.319, 1014.498 258.998 C 1014.167 258.462, 1013.665 255.880, 1013.382 253.261 C 1013.100 250.643, 1012.475 247.272, 1011.994 245.772 C 1011.468 244.132, 1011.494 242.812, 1012.060 242.463 C 1012.577 242.143, 1012.993 241.346, 1012.985 240.691 C 1012.975 239.975, 1012.582 240.099, 1012 241 C 1011.467 241.825, 1011.024 242.156, 1011.015 241.736 C 1011.007 241.316, 1011.529 240.126, 1012.176 239.091 C 1013.122 237.575, 1013.025 236.882, 1011.676 235.533 C 1009.823 233.680, 1009.443 232.538, 1011 233.500 C 1011.832 234.014, 1012.563 229.657, 1012.128 226.777 C 1011.507 222.674, 1012.346 210, 1013.239 210 C 1013.657 210, 1014 208.875, 1014 207.500 C 1014 206.125, 1014.450 205, 1015 205 C 1016.509 205, 1016.201 202.879, 1014.402 200.892 C 1013.428 199.815, 1013.125 198.614, 1013.627 197.813 C 1015.229 195.256, 1015.144 192, 1013.475 192 C 1012.599 192, 1012.179 191.519, 1012.542 190.932 C 1012.905 190.344, 1013.817 190.100, 1014.569 190.388 C 1016.956 191.304, 1017.124 189.200, 1014.794 187.568 C 1013.563 186.706, 1013.094 186, 1013.753 186 C 1014.617 186, 1014.686 185.304, 1014 183.500 C 1013.330 181.738, 1013.387 181, 1014.191 181 C 1014.819 181, 1015.037 180.704, 1014.675 180.342 C 1013.654 179.321, 1016.030 177, 1018.097 177 C 1019.987 177, 1020.016 176.200, 1018.415 168.250 C 1018.166 167.012, 1018.447 166, 1019.040 166 C 1019.633 166, 1019.840 165.550, 1019.500 165 C 1019.160 164.450, 1019.584 164, 1020.441 164 C 1021.318 164, 1022 163.150, 1022 162.059 C 1022 160.991, 1022.430 159.852, 1022.956 159.527 C 1023.482 159.202, 1023.631 158.202, 1023.286 157.304 C 1022.834 156.124, 1023.028 155.899, 1023.988 156.492 C 1024.983 157.108, 1025.174 156.774, 1024.751 155.155 C 1024.440 153.968, 1024.547 153.220, 1024.988 153.493 C 1026.081 154.168, 1027.001 151.500, 1026.996 147.668 C 1026.992 144.175, 1023.834 138.257, 1021.494 137.359 C 1020.672 137.044, 1020 135.709, 1020 134.393 C 1020 132.398, 1020.502 132, 1023.014 132 C 1024.671 132, 1026.914 132.554, 1027.997 133.230 C 1030.498 134.792, 1032.491 132.970, 1033.488 128.211 C 1034.118 125.198, 1033.746 124.505, 1029.065 119.969 C 1025.989 116.989, 1023.712 113.810, 1023.347 111.987 C 1023.014 110.321, 1022.350 108.716, 1021.871 108.420 C 1021.392 108.124, 1020.986 107.121, 1020.968 106.191 C 1020.933 104.280, 1017.323 99.860, 1014.425 98.178 C 1012.593 97.115, 1012.609 97.059, 1014.750 97.030 C 1015.987 97.014, 1017 97.450, 1017 98 C 1017 98.550, 1018.237 98.948, 1019.750 98.884 C 1021.442 98.813, 1021.827 98.592, 1020.750 98.311 C 1018.761 97.791, 1018.426 96.358, 1020.159 95.780 C 1020.796 95.568, 1019.109 93.618, 1016.409 91.447 C 1013.709 89.276, 1011.275 87.215, 1011 86.866 C 1010.725 86.517, 1009.600 86.048, 1008.500 85.825 C 1007.110 85.542, 1006.575 84.730, 1006.746 83.163 C 1006.882 81.923, 1006.094 79.944, 1004.996 78.766 C 1003.898 77.587, 1003 76.215, 1003 75.716 C 1003 73.271, 998.712 69.231, 994.810 68 C 992.439 67.252, 990.050 66.321, 989.500 65.932 C 988.950 65.542, 987.150 65.239, 985.500 65.257 C 983.850 65.276, 981.702 64.948, 980.727 64.530 C 979.159 63.856, 954.196 64.573, 943.500 65.599 C 941.300 65.809, 936.407 65.710, 932.627 65.377 C 926.951 64.878, 925.665 64.434, 925.245 62.830 C 924.758 60.968, 923.794 60.900, 901.619 61.179 C 888.903 61.338, 877.150 61.211, 875.500 60.895 C 873.850 60.580, 865.975 60.642, 858 61.033 M 965 74 C 965 74.550, 965.675 75, 966.500 75 C 967.325 75, 968 74.550, 968 74 C 968 73.450, 967.325 73, 966.500 73 C 965.675 73, 965 73.450, 965 74 M 1002 99.594 C 1002 100.436, 1003.027 101, 1004.559 101 C 1007.442 101, 1007.089 99.518, 1004.016 98.714 C 1002.700 98.370, 1002 98.676, 1002 99.594 M 773.750 115.662 C 774.438 115.940, 775.563 115.940, 776.250 115.662 C 776.938 115.385, 776.375 115.158, 775 115.158 C 773.625 115.158, 773.063 115.385, 773.750 115.662 M 999.007 116.884 C 999.011 117.223, 1001.599 118.347, 1004.757 119.383 C 1007.916 120.418, 1011.124 121.502, 1011.886 121.792 C 1012.742 122.117, 1013.100 121.800, 1012.821 120.964 C 1012.573 120.219, 1011.049 119.210, 1009.435 118.723 C 1004.355 117.188, 999 116.244, 999.007 116.884 M 945.500 118 C 945.160 118.550, 945.359 119, 945.941 119 C 946.523 119, 947 118.550, 947 118 C 947 117.450, 946.802 117, 946.559 117 C 946.316 117, 945.840 117.450, 945.500 118 M 862 122 C 862 122.550, 862.477 123, 863.059 123 C 863.641 123, 863.840 122.550, 863.500 122 C 863.160 121.450, 862.684 121, 862.441 121 C 862.198 121, 862 121.450, 862 122 M 997.500 123 C 997.160 123.550, 997.359 124, 997.941 124 C 998.523 124, 999 123.550, 999 123 C 999 122.450, 998.802 122, 998.559 122 C 998.316 122, 997.840 122.450, 997.500 123 M 929.500 136 C 929.840 136.550, 930.316 137, 930.559 137 C 930.802 137, 931 136.550, 931 136 C 931 135.450, 930.523 135, 929.941 135 C 929.359 135, 929.160 135.450, 929.500 136 M 934.500 136 C 934.160 136.550, 934.359 137, 934.941 137 C 935.523 137, 936 136.550, 936 136 C 936 135.450, 935.802 135, 935.559 135 C 935.316 135, 934.840 135.450, 934.500 136 M 971.500 148 L 967.500 148.716 971.691 148.858 C 973.996 148.936, 976.160 148.550, 976.500 148 C 976.840 147.450, 976.754 147.064, 976.309 147.142 C 975.864 147.220, 973.700 147.606, 971.500 148 M 978 148 C 978 148.550, 978.675 149, 979.500 149 C 980.325 149, 981 148.550, 981 148 C 981 147.450, 980.325 147, 979.500 147 C 978.675 147, 978 147.450, 978 148 M 938.750 151.716 C 934.245 152.399, 935.633 153.544, 940.497 153.157 C 942.970 152.960, 944.744 152.394, 944.438 151.900 C 943.874 150.986, 943.622 150.978, 938.750 151.716 M 778.813 163.683 C 779.534 163.972, 780.397 163.936, 780.729 163.604 C 781.061 163.272, 780.471 163.036, 779.417 163.079 C 778.252 163.127, 778.015 163.364, 778.813 163.683 M 930.813 168.683 C 931.534 168.972, 932.397 168.936, 932.729 168.604 C 933.061 168.272, 932.471 168.036, 931.417 168.079 C 930.252 168.127, 930.015 168.364, 930.813 168.683 M 753.250 169.706 C 752.013 169.944, 751 170.588, 751 171.137 C 751 172.229, 754.902 171.334, 756.450 169.888 C 757.449 168.954, 757.220 168.941, 753.250 169.706 M 638.775 172.558 C 637.889 173.444, 639.131 177.037, 640.114 176.430 C 641.237 175.736, 641.282 172, 640.167 172 C 639.708 172, 639.082 172.251, 638.775 172.558 M 737 175.059 C 737 175.641, 737.450 175.840, 738 175.500 C 738.550 175.160, 739 174.684, 739 174.441 C 739 174.198, 738.550 174, 738 174 C 737.450 174, 737 174.477, 737 175.059 M 615.750 191.572 C 612.890 193.124, 612.296 194.447, 613.991 195.494 C 615.235 196.263, 619.926 192.932, 619.969 191.250 C 620.009 189.656, 619.162 189.721, 615.750 191.572 M 625 198.500 C 625 199.325, 625.661 200, 626.469 200 C 627.363 200, 627.712 199.414, 627.362 198.500 C 627.045 197.675, 626.384 197, 625.893 197 C 625.402 197, 625 197.675, 625 198.500 M 603.750 202.573 C 601.688 203.924, 600 205.405, 600 205.863 C 600 206.322, 596.203 209.276, 591.563 212.428 C 583.714 217.760, 580 221.465, 580 223.965 C 580 225.847, 581.708 225.047, 585.799 221.250 C 597.900 210.019, 604.331 204.370, 606.534 203.033 C 608.884 201.607, 609.849 199.933, 608.250 200.059 C 607.837 200.091, 605.813 201.223, 603.750 202.573 M 618.029 201.972 C 617.220 202.478, 616.770 203.028, 617.029 203.196 C 621.139 205.852, 625 205.964, 625 203.427 C 625 201.788, 623.416 201.518, 622.500 203 C 621.594 204.467, 620.195 204.219, 619.823 202.526 C 619.598 201.498, 619.056 201.330, 618.029 201.972 M 581.580 209.581 C 573.269 217.370, 572.742 219.473, 580.606 213.471 C 584.700 210.346, 590.606 203.273, 589.797 202.464 C 589.631 202.298, 585.934 205.501, 581.580 209.581 M 621 215 C 621 215.550, 621.423 216, 621.941 216 C 622.459 216, 623.160 215.550, 623.500 215 C 623.840 214.450, 623.416 214, 622.559 214 C 621.702 214, 621 214.450, 621 215 M 649 222.059 C 649 222.641, 649.450 222.840, 650 222.500 C 650.550 222.160, 651 221.684, 651 221.441 C 651 221.198, 650.550 221, 650 221 C 649.450 221, 649 221.477, 649 222.059 M 592 224 C 591.099 224.582, 590.975 224.975, 591.691 224.985 C 592.346 224.993, 593.160 224.550, 593.500 224 C 594.267 222.758, 593.921 222.758, 592 224 M 576 226.500 C 575.306 227.337, 575.197 228, 575.755 228 C 576.305 228, 577.315 227.325, 578 226.500 C 578.694 225.663, 578.803 225, 578.245 225 C 577.695 225, 576.685 225.675, 576 226.500 M 651.813 233.683 C 652.534 233.972, 653.397 233.936, 653.729 233.604 C 654.061 233.272, 653.471 233.036, 652.417 233.079 C 651.252 233.127, 651.015 233.364, 651.813 233.683 M 646.800 235.200 C 647.733 236.133, 648.267 236.133, 649.200 235.200 C 650.133 234.267, 649.867 234, 648 234 C 646.133 234, 645.867 234.267, 646.800 235.200 M 558 241.969 C 558 242.501, 558.675 242.678, 559.500 242.362 C 560.325 242.045, 561 241.609, 561 241.393 C 561 241.177, 560.325 241, 559.500 241 C 558.675 241, 558 241.436, 558 241.969 M 652.552 263.726 C 652.207 264.624, 653.215 265, 655.972 265 C 661.210 265, 662.024 263.308, 657.015 262.830 C 654.420 262.583, 652.871 262.893, 652.552 263.726 M 706.500 274 C 706.160 274.550, 706.359 275, 706.941 275 C 707.523 275, 708 274.550, 708 274 C 708 273.450, 707.802 273, 707.559 273 C 707.316 273, 706.840 273.450, 706.500 274 M 701 276 C 699.781 276.788, 699.910 276.972, 701.691 276.985 C 702.896 276.993, 704.160 276.550, 704.500 276 C 705.287 274.727, 702.970 274.727, 701 276 M 729 280 C 729 280.550, 729.450 281, 730 281 C 730.550 281, 731 280.550, 731 280 C 731 279.450, 730.550 279, 730 279 C 729.450 279, 729 279.450, 729 280 M 670.708 282.210 C 667.049 283.990, 666.281 286.553, 669.782 285.296 C 671.568 284.656, 675.464 281.057, 674.851 280.616 C 674.658 280.477, 672.794 281.194, 670.708 282.210 M 682.500 281.233 C 680.300 281.772, 677.600 282.585, 676.500 283.039 C 674.845 283.722, 675.058 283.876, 677.736 283.932 C 681.682 284.015, 690 281.885, 690 280.793 C 690 279.817, 687.733 279.950, 682.500 281.233 M 696 284.059 C 696 284.641, 696.450 284.840, 697 284.500 C 697.550 284.160, 698 283.684, 698 283.441 C 698 283.198, 697.550 283, 697 283 C 696.450 283, 696 283.477, 696 284.059 M 688.250 285.426 C 687.013 286.002, 686 286.848, 686 287.305 C 686 288.216, 690 287.238, 691.337 286 C 692.740 284.702, 690.642 284.311, 688.250 285.426 M 724.813 285.683 C 725.534 285.972, 726.397 285.936, 726.729 285.604 C 727.061 285.272, 726.471 285.036, 725.417 285.079 C 724.252 285.127, 724.015 285.364, 724.813 285.683 M 674.980 287.524 C 674.284 288.362, 673.966 289.299, 674.272 289.605 C 675.164 290.497, 679.116 287.997, 678.469 286.950 C 677.623 285.581, 676.429 285.778, 674.980 287.524 M 670 292 C 668.707 292.835, 668.734 292.971, 670.191 292.985 C 671.121 292.993, 672.160 292.550, 672.500 292 C 673.282 290.734, 671.958 290.734, 670 292 M 676 292.059 C 676 292.641, 676.450 292.840, 677 292.500 C 677.550 292.160, 678 291.684, 678 291.441 C 678 291.198, 677.550 291, 677 291 C 676.450 291, 676 291.477, 676 292.059 M 706 296.124 C 704.075 296.629, 701.600 297.205, 700.500 297.404 C 697.297 297.981, 695 299.138, 695 300.174 C 695 300.703, 694.078 300.842, 692.952 300.485 C 691.826 300.127, 690.363 300.284, 689.702 300.832 C 689.041 301.381, 688.275 301.764, 688 301.683 C 687.725 301.602, 686.387 302.316, 685.027 303.268 C 683.300 304.479, 683.033 305, 684.143 305 C 685.016 305, 686.874 304.100, 688.273 303 C 690.936 300.905, 693.560 300.284, 692.500 302 C 692.160 302.550, 692.809 303, 693.941 303 C 695.073 303, 696 302.550, 696 302 C 696 301.450, 697.433 301, 699.184 301 C 702.630 301, 711 297.395, 711 295.911 C 711 294.866, 710.748 294.877, 706 296.124 M 659.625 296.798 C 659.354 297.237, 659.487 298.170, 659.921 298.871 C 660.533 299.863, 661.466 299.686, 664.105 298.077 L 667.500 296.007 663.809 296.004 C 661.779 296.002, 659.896 296.359, 659.625 296.798 M 677 297 C 677 297.550, 677.702 298, 678.559 298 C 679.416 298, 679.840 297.550, 679.500 297 C 679.160 296.450, 678.459 296, 677.941 296 C 677.423 296, 677 296.450, 677 297 M 689.500 298 C 689.160 298.550, 689.557 299, 690.382 299 C 691.207 299, 692.160 298.550, 692.500 298 C 692.840 297.450, 692.443 297, 691.618 297 C 690.793 297, 689.840 297.450, 689.500 298 M 671 302 C 671 302.550, 671.423 303, 671.941 303 C 672.459 303, 673.160 302.550, 673.500 302 C 673.840 301.450, 673.416 301, 672.559 301 C 671.702 301, 671 301.450, 671 302 M 679.564 304.707 C 679.022 306.132, 679.136 306.247, 680.124 305.267 C 680.808 304.588, 681.115 303.781, 680.807 303.474 C 680.499 303.166, 679.940 303.721, 679.564 304.707 M 678.500 319 C 677.718 320.266, 679.042 320.266, 681 319 C 682.293 318.165, 682.266 318.029, 680.809 318.015 C 679.879 318.007, 678.840 318.450, 678.500 319 M 580 347 C 580 347.550, 580.450 348, 581 348 C 581.550 348, 582 347.550, 582 347 C 582 346.450, 581.550 346, 581 346 C 580.450 346, 580 346.450, 580 347 M 573.667 356.667 C 573.300 357.033, 573 357.798, 573 358.367 C 573 358.993, 573.466 358.934, 574.183 358.217 C 574.834 357.566, 575.134 356.801, 574.850 356.517 C 574.566 356.233, 574.033 356.300, 573.667 356.667 M 418 376 C 418 376.550, 418.675 377, 419.500 377 C 420.325 377, 421 376.550, 421 376 C 421 375.450, 420.325 375, 419.500 375 C 418.675 375, 418 375.450, 418 376 M 435.079 469.583 C 435.127 470.748, 435.364 470.985, 435.683 470.188 C 435.972 469.466, 435.936 468.603, 435.604 468.271 C 435.272 467.939, 435.036 468.529, 435.079 469.583 M 380.031 503.500 C 380.031 504.050, 380.467 505.175, 381 506 C 381.533 506.825, 381.969 507.050, 381.969 506.500 C 381.969 505.950, 381.533 504.825, 381 504 C 380.467 503.175, 380.031 502.950, 380.031 503.500 M 384 660.559 C 384 661.416, 384.450 661.840, 385 661.500 C 385.550 661.160, 386 660.459, 386 659.941 C 386 659.423, 385.550 659, 385 659 C 384.450 659, 384 659.702, 384 660.559 M 371.565 669.895 C 371.260 670.388, 371.669 671.043, 372.474 671.352 C 374.036 671.951, 375.371 670.704, 374.306 669.639 C 373.402 668.735, 372.213 668.846, 371.565 669.895 M 594.079 784.583 C 594.127 785.748, 594.364 785.985, 594.683 785.188 C 594.972 784.466, 594.936 783.603, 594.604 783.271 C 594.272 782.939, 594.036 783.529, 594.079 784.583 M 536.667 879.667 C 536.300 880.033, 536 880.798, 536 881.367 C 536 881.993, 536.466 881.934, 537.183 881.217 C 537.834 880.566, 538.134 879.801, 537.850 879.517 C 537.566 879.232, 537.033 879.300, 536.667 879.667 M 366.639 1089.694 C 365.513 1090.820, 365.954 1092, 367.500 1092 C 368.325 1092, 369 1091.577, 369 1091.059 C 369 1089.798, 367.438 1088.895, 366.639 1089.694 M 563 1171 C 563 1171.550, 563.450 1172, 564 1172 C 564.550 1172, 565 1171.550, 565 1171 C 565 1170.450, 564.550 1170, 564 1170 C 563.450 1170, 563 1170.450, 563 1171 M 433.079 1214.583 C 433.127 1215.748, 433.364 1215.985, 433.683 1215.188 C 433.972 1214.466, 433.936 1213.603, 433.604 1213.271 C 433.272 1212.939, 433.036 1213.529, 433.079 1214.583 M 517.158 1215 C 517.158 1216.375, 517.385 1216.938, 517.662 1216.250 C 517.940 1215.563, 517.940 1214.438, 517.662 1213.750 C 517.385 1213.063, 517.158 1213.625, 517.158 1215 M 526.079 1215.583 C 526.127 1216.748, 526.364 1216.985, 526.683 1216.188 C 526.972 1215.466, 526.936 1214.603, 526.604 1214.271 C 526.272 1213.939, 526.036 1214.529, 526.079 1215.583 M 442.079 1289.583 C 442.127 1290.748, 442.364 1290.985, 442.683 1290.188 C 442.972 1289.466, 442.936 1288.603, 442.604 1288.271 C 442.272 1287.939, 442.036 1288.529, 442.079 1289.583 M 421 1385.500 C 421 1386.417, 421.484 1387.005, 422.075 1386.808 C 422.666 1386.611, 423.150 1386.023, 423.150 1385.500 C 423.150 1384.977, 422.666 1384.389, 422.075 1384.192 C 421.484 1383.995, 421 1384.583, 421 1385.500 M 576 1402 C 576 1402.550, 576.477 1403, 577.059 1403 C 577.641 1403, 577.840 1402.550, 577.500 1402 C 577.160 1401.450, 576.684 1401, 576.441 1401 C 576.198 1401, 576 1401.450, 576 1402 M 655 1403 C 655 1403.550, 655.477 1404, 656.059 1404 C 656.641 1404, 656.840 1403.550, 656.500 1403 C 656.160 1402.450, 655.684 1402, 655.441 1402 C 655.198 1402, 655 1402.450, 655 1403 M 680 1441.393 C 680 1441.609, 680.675 1442.045, 681.500 1442.362 C 682.325 1442.678, 683 1442.501, 683 1441.969 C 683 1441.436, 682.325 1441, 681.500 1441 C 680.675 1441, 680 1441.177, 680 1441.393 M 688 1447.393 C 688 1447.609, 688.698 1448.054, 689.552 1448.382 C 690.442 1448.723, 690.843 1448.555, 690.493 1447.989 C 689.906 1447.038, 688 1446.583, 688 1447.393 M 677 1455.139 C 677 1455.612, 678.125 1456, 679.500 1456 C 680.875 1456, 682 1455.827, 682 1455.617 C 682 1455.406, 680.875 1455.018, 679.500 1454.755 C 678.125 1454.492, 677 1454.665, 677 1455.139 M 685 1456.726 C 685.825 1457.038, 686.865 1457.912, 687.311 1458.668 C 687.758 1459.424, 688.494 1459.813, 688.948 1459.532 C 689.402 1459.252, 690.329 1459.692, 691.009 1460.511 C 691.689 1461.330, 692.702 1462, 693.260 1462 C 693.818 1462, 692.576 1460.650, 690.500 1459 C 688.424 1457.350, 685.999 1456.036, 685.112 1456.079 C 683.752 1456.146, 683.734 1456.247, 685 1456.726 M 672.597 1457.844 C 672.251 1458.404, 672.455 1459.163, 673.050 1459.531 C 674.588 1460.481, 675.580 1459.180, 674.296 1457.896 C 673.578 1457.178, 673.019 1457.161, 672.597 1457.844 M 695.188 1460.643 C 697.338 1462.793, 706.372 1465.764, 711.372 1465.965 C 713.142 1466.036, 709.836 1463.176, 707.459 1462.579 C 706.107 1462.240, 705 1461.481, 705 1460.893 C 705 1460.200, 703.593 1460.062, 701 1460.500 C 698.615 1460.903, 697 1460.784, 697 1460.205 C 697 1459.670, 696.019 1458.977, 694.819 1458.663 C 692.743 1458.120, 692.760 1458.215, 695.188 1460.643 M 661.015 1461.973 C 660.115 1463.654, 660.323 1464.043, 662.399 1464.564 C 663.742 1464.901, 665.594 1465.025, 666.513 1464.839 C 667.819 1464.574, 667.516 1464.007, 665.129 1462.247 C 662.115 1460.025, 662.059 1460.022, 661.015 1461.973 M 690 1462.987 C 690 1463.678, 692.352 1465, 693.582 1465 C 694.946 1465, 693.665 1463.146, 692 1462.710 C 690.900 1462.423, 690 1462.547, 690 1462.987 M 678 1464 C 678 1464.550, 678.423 1465, 678.941 1465 C 679.459 1465, 680.160 1464.550, 680.500 1464 C 680.840 1463.450, 680.416 1463, 679.559 1463 C 678.702 1463, 678 1463.450, 678 1464 M 670 1468.383 C 670 1468.594, 670.901 1469.002, 672.001 1469.290 C 673.102 1469.578, 673.751 1469.405, 673.442 1468.907 C 672.904 1468.036, 670 1467.594, 670 1468.383 M 677 1469 C 677 1469.550, 677.477 1470, 678.059 1470 C 678.641 1470, 678.840 1469.550, 678.500 1469 C 678.160 1468.450, 677.684 1468, 677.441 1468 C 677.198 1468, 677 1468.450, 677 1469 M 675 1471.759 C 675 1472.917, 679.105 1475.228, 679.846 1474.488 C 680.204 1474.129, 679.624 1473.198, 678.557 1472.418 C 676.418 1470.854, 675 1470.591, 675 1471.759 M 687.500 1474.858 C 688.050 1475.408, 689.850 1476.173, 691.500 1476.558 C 693.500 1477.025, 694.167 1476.925, 693.500 1476.258 C 692.950 1475.708, 691.150 1474.943, 689.500 1474.558 C 687.500 1474.092, 686.833 1474.192, 687.500 1474.858 M 669 1475.933 C 669 1476.411, 670.575 1477.732, 672.500 1478.867 C 676.170 1481.033, 677.246 1480.380, 674.250 1477.807 C 672.007 1475.880, 669 1474.807, 669 1475.933 M 724.813 1476.683 C 725.534 1476.972, 726.397 1476.936, 726.729 1476.604 C 727.061 1476.272, 726.471 1476.036, 725.417 1476.079 C 724.252 1476.127, 724.015 1476.364, 724.813 1476.683 M 678 1477.933 C 678 1478.520, 678.845 1479, 679.878 1479 C 680.911 1479, 683.371 1479.675, 685.346 1480.500 C 689.433 1482.208, 691 1482.382, 691 1481.130 C 691 1480.651, 688.862 1479.703, 686.250 1479.023 C 683.638 1478.343, 680.712 1477.579, 679.750 1477.326 C 678.788 1477.072, 678 1477.346, 678 1477.933 M 696.813 1477.683 C 697.534 1477.972, 698.397 1477.936, 698.729 1477.604 C 699.061 1477.272, 698.471 1477.036, 697.417 1477.079 C 696.252 1477.127, 696.015 1477.364, 696.813 1477.683 M 729 1482 C 729 1482.550, 729.702 1483, 730.559 1483 C 731.416 1483, 731.840 1482.550, 731.500 1482 C 731.160 1481.450, 730.459 1481, 729.941 1481 C 729.423 1481, 729 1481.450, 729 1482 M 701.497 1485.004 C 700.773 1486.176, 703.335 1487.388, 705.214 1486.762 C 706.043 1486.486, 705.723 1485.922, 704.308 1485.165 C 702.867 1484.393, 701.909 1484.339, 701.497 1485.004 M 707 1488 C 707 1488.550, 707.477 1489, 708.059 1489 C 708.641 1489, 708.840 1488.550, 708.500 1488 C 708.160 1487.450, 707.684 1487, 707.441 1487 C 707.198 1487, 707 1487.450, 707 1488 M 654.192 1497.075 C 654.389 1497.666, 654.876 1498.116, 655.275 1498.075 C 655.674 1498.034, 657.462 1497.968, 659.250 1497.930 C 661.974 1497.871, 662.176 1497.720, 660.500 1497 C 657.629 1495.766, 653.771 1495.812, 654.192 1497.075 M 560 1518.409 C 560 1518.599, 560.675 1519.315, 561.500 1520 C 562.365 1520.718, 563 1520.815, 563 1520.229 C 563 1519.671, 562.325 1518.955, 561.500 1518.638 C 560.675 1518.322, 560 1518.219, 560 1518.409 M 648.500 1526 C 648.160 1526.550, 648.610 1527, 649.500 1527 C 650.390 1527, 650.840 1526.550, 650.500 1526 C 650.160 1525.450, 649.710 1525, 649.500 1525 C 649.290 1525, 648.840 1525.450, 648.500 1526 M 572.500 1530 C 572.840 1530.550, 573.316 1531, 573.559 1531 C 573.802 1531, 574 1530.550, 574 1530 C 574 1529.450, 573.523 1529, 572.941 1529 C 572.359 1529, 572.160 1529.450, 572.500 1530 M 578 1533.755 C 578 1534.305, 578.675 1535.315, 579.500 1536 C 580.337 1536.694, 581 1536.803, 581 1536.245 C 581 1535.695, 580.325 1534.685, 579.500 1534 C 578.663 1533.306, 578 1533.197, 578 1533.755 M 582.543 1536.930 C 581.471 1538.666, 586.082 1543.817, 592.445 1547.992 C 595.775 1550.176, 600.939 1554.222, 603.920 1556.982 C 606.900 1559.742, 610.050 1561.985, 610.920 1561.967 C 612.075 1561.942, 611.828 1561.382, 610 1559.881 C 606.890 1557.327, 592.527 1544.373, 589.066 1541 C 584.670 1536.716, 583.230 1535.818, 582.543 1536.930 M 593.733 1537.124 C 594.412 1537.808, 595.219 1538.115, 595.526 1537.807 C 595.834 1537.499, 595.279 1536.940, 594.293 1536.564 C 592.868 1536.022, 592.753 1536.136, 593.733 1537.124 M 577 1544.602 C 577 1545.492, 591.359 1558.950, 592.339 1558.977 C 592.800 1558.990, 592.008 1557.537, 590.579 1555.750 C 587.220 1551.548, 587.201 1551.529, 582.500 1547.462 C 578.684 1544.161, 577 1543.285, 577 1544.602 M 624 1546.713 C 624.825 1547.019, 626.175 1547.771, 627 1548.384 C 628.303 1549.354, 628.320 1549.271, 627.128 1547.750 C 626.373 1546.787, 625.023 1546.036, 624.128 1546.079 C 622.766 1546.145, 622.745 1546.249, 624 1546.713 M 620.695 1556.700 C 618.768 1557.199, 618.842 1559.114, 620.813 1559.771 C 621.466 1559.989, 622 1559.454, 622 1558.583 C 622 1556.496, 623.614 1556.552, 624.426 1558.667 C 624.884 1559.861, 625.372 1560.028, 626.146 1559.254 C 628.500 1556.900, 625.446 1555.468, 620.695 1556.700 M 627.500 1562 C 627.160 1562.550, 627.190 1563.498, 627.566 1564.107 C 628.238 1565.194, 629.948 1563.528, 629.985 1561.750 C 630.007 1560.654, 628.221 1560.834, 627.500 1562 M 615.570 1566.887 C 614.902 1567.968, 616.721 1569.516, 619.750 1570.445 C 622.469 1571.278, 622.674 1569.920, 620.171 1567.655 C 618.148 1565.824, 616.407 1565.533, 615.570 1566.887 M 602 1568 C 602 1568.550, 602.477 1569, 603.059 1569 C 603.641 1569, 603.840 1568.550, 603.500 1568 C 603.160 1567.450, 602.684 1567, 602.441 1567 C 602.198 1567, 602 1567.450, 602 1568 M 640.676 1586.402 C 640.111 1587.874, 640.758 1589, 642.167 1589 C 642.625 1589, 643 1588.100, 643 1587 C 643 1584.707, 641.477 1584.315, 640.676 1586.402 M 737.813 1586.683 C 738.534 1586.972, 739.397 1586.936, 739.729 1586.604 C 740.061 1586.272, 739.471 1586.036, 738.417 1586.079 C 737.252 1586.127, 737.015 1586.364, 737.813 1586.683 M 754 1591.500 C 758.631 1593.283, 759.943 1593.272, 757.559 1591.468 C 756.491 1590.661, 754.466 1590.034, 753.059 1590.076 C 750.733 1590.145, 750.819 1590.275, 754 1591.500 M 767.500 1595 C 767.840 1595.550, 768.879 1595.993, 769.809 1595.985 C 771.266 1595.971, 771.293 1595.835, 770 1595 C 768.042 1593.734, 766.718 1593.734, 767.500 1595 M 778.750 1597.662 C 779.438 1597.940, 780.563 1597.940, 781.250 1597.662 C 781.938 1597.385, 781.375 1597.158, 780 1597.158 C 778.625 1597.158, 778.063 1597.385, 778.750 1597.662 M 807.813 1603.683 C 808.534 1603.972, 809.397 1603.936, 809.729 1603.604 C 810.061 1603.272, 809.471 1603.036, 808.417 1603.079 C 807.252 1603.127, 807.015 1603.364, 807.813 1603.683 M 938.882 1610.612 C 940.741 1611.437, 942.943 1611.852, 943.775 1611.533 C 945.894 1610.720, 945.164 1610.365, 940 1609.694 L 935.500 1609.110 938.882 1610.612 M 972 1615.026 C 977.419 1616.020, 984.574 1616.240, 983.719 1615.386 C 983.382 1615.048, 979.594 1614.643, 975.303 1614.486 C 968.775 1614.246, 968.235 1614.335, 972 1615.026 M 782.500 1629 C 782.840 1629.550, 783.316 1630, 783.559 1630 C 783.802 1630, 784 1629.550, 784 1629 C 784 1628.450, 783.523 1628, 782.941 1628 C 782.359 1628, 782.160 1628.450, 782.500 1629 M 861.510 1640.016 C 861.856 1640.575, 862.557 1640.774, 863.069 1640.457 C 864.456 1639.600, 864.198 1639, 862.441 1639 C 861.584 1639, 861.165 1639.457, 861.510 1640.016 M 1006.135 1643.539 C 1004.285 1644.343, 1001.949 1645, 1000.944 1645 C 999.940 1645, 998.829 1645.468, 998.475 1646.040 C 997.810 1647.117, 999.543 1646.887, 1007.776 1644.806 C 1012.246 1643.676, 1014.423 1641.972, 1011.309 1642.039 C 1010.314 1642.061, 1007.986 1642.736, 1006.135 1643.539 M 774.818 1646.218 C 775.351 1646.751, 776.623 1647.011, 777.644 1646.794 C 779.019 1646.503, 778.767 1646.251, 776.674 1645.825 C 774.849 1645.452, 774.192 1645.592, 774.818 1646.218 M 1001.667 1662.667 C 1000.550 1663.783, 1000.920 1665, 1002.378 1665 C 1003.135 1665, 1004.315 1664.325, 1005 1663.500 C 1006.034 1662.254, 1005.914 1662, 1004.289 1662 C 1003.213 1662, 1002.033 1662.300, 1001.667 1662.667 M 964 1689 C 964 1689.550, 964.675 1690, 965.500 1690 C 966.325 1690, 967 1689.550, 967 1689 C 967 1688.450, 966.325 1688, 965.500 1688 C 964.675 1688, 964 1688.450, 964 1689" stroke="none" fill="black" fill-rule="evenodd"/>
</svg>