<svg xmlns="http://www.w3.org/2000/svg" width="1240" height="1753" viewBox="0 0 1240 1753" version="1.1">
	<path d="M 392.524 60.809 C 392.220 61.114, 381.124 61.268, 367.867 61.152 C 345.768 60.958, 343.656 61.088, 342.464 62.720 C 341.345 64.251, 339.581 64.493, 329.832 64.447 C 323.599 64.417, 311.879 64.025, 303.786 63.576 C 295.693 63.126, 288.268 63.103, 287.286 63.525 C 286.304 63.946, 284.150 64.276, 282.500 64.257 C 280.850 64.239, 278.985 64.639, 278.355 65.147 C 277.726 65.655, 276.826 65.976, 276.355 65.861 C 273.843 65.245, 265 71.225, 265 73.539 C 265 74.194, 264.057 75.929, 262.904 77.395 C 261.752 78.860, 261.050 80.688, 261.345 81.456 C 261.640 82.225, 261.233 83.392, 260.441 84.049 C 259.648 84.707, 259 84.927, 259 84.538 C 259 83.791, 251.658 89.227, 248.826 92.071 C 247.588 93.316, 247.445 94.045, 248.276 94.876 C 249.108 95.708, 249.088 96, 248.200 96 C 247.540 96, 247 96.450, 247 97 C 247 98.378, 248.589 98.253, 250.179 96.750 C 251.895 95.126, 255 94.615, 255 95.956 C 255 96.530, 254.462 97, 253.805 97 C 251.940 97, 247 102.175, 247 104.128 C 247 105.093, 246.562 106.153, 246.027 106.483 C 245.492 106.814, 244.588 108.815, 244.019 110.930 C 243.371 113.335, 241.750 115.716, 239.688 117.289 C 237.876 118.671, 235.536 121.702, 234.489 124.024 L 232.585 128.246 234.932 130.146 C 236.223 131.191, 238.004 131.844, 238.889 131.598 C 244.925 129.917, 247.021 129.890, 247.633 131.486 C 248.039 132.545, 247.190 134.267, 245.252 136.316 C 241.503 140.279, 240 143.151, 240 146.352 C 240 149.578, 240.995 152.121, 242.012 151.493 C 242.453 151.220, 242.578 151.898, 242.290 152.999 C 242.002 154.099, 242.233 155, 242.804 155 C 243.374 155, 244.161 156.456, 244.552 158.236 C 244.943 160.015, 245.958 161.980, 246.808 162.601 C 247.940 163.429, 248.292 165.240, 248.125 169.371 C 247.914 174.591, 248.086 175.082, 250.448 175.980 C 251.852 176.514, 253.052 177.749, 253.115 178.725 C 253.319 181.860, 252.851 184.475, 251.914 185.450 C 250.494 186.926, 250.837 189, 252.500 189 C 253.325 189, 254 189.450, 254 190 C 254 190.550, 253.541 191, 252.980 191 C 251.991 191, 252.294 195.048, 253.420 196.870 C 253.727 197.367, 253.308 198.329, 252.489 199.009 C 250.934 200.300, 250.418 204, 251.793 204 C 254.748 204, 255.642 238.331, 253.017 251 C 251.224 259.658, 250.312 275.164, 251.417 278.200 C 252.210 280.376, 252.026 281.313, 250.471 283.032 C 248.663 285.030, 248.650 285.225, 250.271 286.132 C 252.007 287.103, 252.725 291, 251.168 291 C 249.891 291, 248.116 297.726, 248.751 300.156 C 249.106 301.515, 248.929 302.074, 248.271 301.667 C 247.697 301.312, 246.708 301.647, 246.074 302.411 C 244.749 304.007, 246.519 312.956, 248.412 314.235 C 249.010 314.639, 249.190 314.976, 248.811 314.985 C 247.673 315.010, 251.150 324.221, 253.843 328.315 C 257.791 334.318, 261.154 335.562, 276 336.511 C 281.225 336.845, 292.925 337.802, 302 338.638 C 311.075 339.474, 324.800 340.216, 332.500 340.286 C 345.225 340.403, 346.955 340.202, 351.500 338.082 C 355.429 336.248, 358.818 335.640, 367.319 335.243 C 373.269 334.965, 378.542 335.142, 379.037 335.637 C 379.874 336.474, 391.164 336.042, 405.500 334.625 C 416.299 333.557, 425.395 333.773, 431.500 335.241 C 446.415 338.829, 472.747 347.875, 482.467 352.749 C 490.584 356.821, 507.127 367.566, 511.587 371.664 C 513.285 373.224, 516.997 376.594, 519.837 379.153 C 522.677 381.712, 525 384.309, 525 384.924 C 525 385.539, 526.125 386.555, 527.500 387.182 C 528.875 387.808, 530 388.599, 530 388.938 C 530 389.277, 531.237 390.960, 532.750 392.678 C 534.263 394.396, 536.625 397.279, 538 399.086 C 539.375 400.892, 541.200 403.074, 542.055 403.935 C 544.345 406.240, 550 413.690, 550 414.403 C 550 414.741, 551.237 416.390, 552.750 418.067 C 555.456 421.068, 563.830 434.107, 566.195 439 C 566.859 440.375, 568.140 442.625, 569.040 444 C 573.864 451.363, 589.798 509.979, 593.369 533.500 C 594.205 539, 595.159 545.300, 595.490 547.500 C 595.820 549.700, 596.700 557.350, 597.445 564.500 C 598.696 576.504, 604.701 616.871, 606.966 628.500 C 607.502 631.250, 608.650 637.550, 609.517 642.500 C 610.384 647.450, 611.937 653.300, 612.969 655.500 C 614.001 657.700, 615.582 663.550, 616.483 668.500 C 617.384 673.450, 619.169 683.350, 620.450 690.500 C 621.730 697.650, 623.459 706.650, 624.292 710.500 C 625.125 714.350, 626.126 720.819, 626.517 724.875 C 626.931 729.167, 628.888 737.110, 631.198 743.875 C 633.381 750.269, 635.965 758.200, 636.940 761.500 C 640.524 773.632, 651.514 798.578, 660.232 814.367 C 672.761 837.060, 677.429 861.164, 672.557 878 C 670.852 883.889, 659.205 905.614, 649.716 920.605 C 639.037 937.473, 629.702 957.397, 627.508 968 C 627.110 969.925, 625.977 972.850, 624.989 974.500 C 620.308 982.324, 616.056 1004.985, 615.006 1027.705 C 614.518 1038.268, 613.654 1047.778, 613.086 1048.838 C 611.283 1052.208, 610.087 1063.915, 609.495 1084 C 608.809 1107.236, 608.193 1117.964, 607.426 1120 C 605.990 1123.817, 604.808 1132.686, 603.963 1146 C 603.457 1153.975, 602.565 1165, 601.982 1170.500 C 601.399 1176, 600.675 1183.425, 600.371 1187 C 600.068 1190.575, 599.644 1194.850, 599.429 1196.500 C 599.214 1198.150, 598.784 1203.775, 598.474 1209 C 598.164 1214.225, 597.710 1219.088, 597.465 1219.808 C 597.219 1220.527, 596.115 1227.502, 595.010 1235.308 C 593.905 1243.113, 592.146 1252.650, 591.101 1256.500 C 589.136 1263.740, 586.394 1274.633, 585.437 1279 C 584.161 1284.823, 576.761 1309.012, 574.423 1315 C 570.933 1323.938, 563.583 1336.411, 556.500 1345.416 C 554.300 1348.212, 551.155 1352.301, 549.510 1354.500 C 547.866 1356.700, 545.166 1359.938, 543.510 1361.695 C 541.855 1363.452, 538.475 1367.360, 536 1370.379 C 533.525 1373.398, 530.268 1376.400, 528.763 1377.050 C 527.257 1377.700, 526.249 1378.594, 526.522 1379.035 C 527.091 1379.956, 525.965 1381.173, 520.243 1385.816 C 517.996 1387.640, 514.884 1390.245, 513.328 1391.605 C 503.504 1400.196, 481.652 1412.021, 465 1417.760 C 432.961 1428.801, 421.597 1430.732, 405.500 1427.873 C 402.200 1427.287, 390.275 1426.715, 379 1426.603 C 359.493 1426.409, 358.258 1426.280, 353.500 1423.951 C 348.926 1421.712, 347.264 1421.496, 334 1421.422 C 326.025 1421.377, 315 1421.698, 309.500 1422.135 C 304 1422.572, 291.951 1423.394, 282.723 1423.962 C 273.200 1424.549, 264.533 1425.586, 262.677 1426.362 C 258.060 1428.291, 252.160 1435.730, 251.463 1440.500 C 251.039 1443.402, 249.689 1447, 249.024 1447 C 248.607 1447, 247.817 1449.267, 247.269 1452.039 C 246.372 1456.572, 246.472 1457.217, 248.262 1458.471 C 249.662 1459.452, 250.345 1461.248, 250.564 1464.527 C 250.764 1467.519, 251.497 1469.643, 252.610 1470.457 C 254.234 1471.644, 254.208 1471.842, 252.198 1473.562 C 250.220 1475.256, 250.177 1475.538, 251.649 1477.165 C 252.743 1478.373, 253.035 1479.808, 252.577 1481.715 C 251.743 1485.185, 251.685 1501.681, 252.502 1503.002 C 252.833 1503.538, 253.335 1506.120, 253.618 1508.739 C 253.900 1511.357, 254.525 1514.728, 255.006 1516.228 C 255.532 1517.868, 255.506 1519.188, 254.940 1519.537 C 254.423 1519.857, 254.007 1520.654, 254.015 1521.309 C 254.025 1522.025, 254.418 1521.901, 255 1521 C 255.533 1520.175, 255.976 1519.844, 255.985 1520.264 C 255.993 1520.684, 255.471 1521.874, 254.824 1522.909 C 253.878 1524.425, 253.975 1525.118, 255.324 1526.467 C 257.177 1528.320, 257.557 1529.462, 256 1528.500 C 255.168 1527.986, 254.437 1532.343, 254.872 1535.223 C 255.493 1539.326, 254.654 1552, 253.761 1552 C 253.343 1552, 253 1553.125, 253 1554.500 C 253 1555.875, 252.550 1557, 252 1557 C 250.491 1557, 250.799 1559.121, 252.598 1561.108 C 253.572 1562.185, 253.875 1563.386, 253.373 1564.187 C 251.771 1566.744, 251.856 1570, 253.525 1570 C 254.401 1570, 254.821 1570.481, 254.458 1571.068 C 254.095 1571.656, 253.183 1571.900, 252.431 1571.612 C 250.044 1570.696, 249.876 1572.800, 252.206 1574.432 C 253.437 1575.294, 253.906 1576, 253.247 1576 C 252.383 1576, 252.314 1576.696, 253 1578.500 C 253.670 1580.262, 253.613 1581, 252.809 1581 C 252.181 1581, 251.963 1581.296, 252.325 1581.658 C 253.346 1582.679, 250.970 1585, 248.903 1585 C 247.013 1585, 246.984 1585.800, 248.585 1593.750 C 248.834 1594.987, 248.553 1596, 247.960 1596 C 247.367 1596, 247.160 1596.450, 247.500 1597 C 247.840 1597.550, 247.416 1598, 246.559 1598 C 245.682 1598, 245 1598.850, 245 1599.941 C 245 1601.009, 244.570 1602.148, 244.044 1602.473 C 243.518 1602.798, 243.369 1603.798, 243.714 1604.696 C 244.166 1605.876, 243.972 1606.101, 243.012 1605.508 C 242.017 1604.892, 241.826 1605.226, 242.249 1606.845 C 242.560 1608.032, 242.453 1608.780, 242.012 1608.507 C 240.919 1607.832, 239.999 1610.500, 240.004 1614.332 C 240.008 1617.825, 243.166 1623.743, 245.506 1624.641 C 246.328 1624.956, 247 1626.291, 247 1627.607 C 247 1629.602, 246.498 1630, 243.986 1630 C 242.329 1630, 240.086 1629.446, 239.003 1628.770 C 236.502 1627.208, 234.509 1629.030, 233.512 1633.789 C 232.882 1636.802, 233.254 1637.495, 237.935 1642.031 C 241.011 1645.011, 243.288 1648.190, 243.653 1650.013 C 243.986 1651.679, 244.650 1653.284, 245.129 1653.580 C 245.608 1653.876, 246.014 1654.879, 246.032 1655.809 C 246.067 1657.720, 249.677 1662.140, 252.575 1663.822 C 254.407 1664.885, 254.391 1664.941, 252.250 1664.970 C 251.012 1664.986, 250 1664.550, 250 1664 C 250 1663.450, 248.762 1663.052, 247.250 1663.116 C 245.558 1663.187, 245.173 1663.408, 246.250 1663.689 C 248.239 1664.209, 248.574 1665.642, 246.841 1666.220 C 246.204 1666.432, 247.891 1668.382, 250.591 1670.553 C 253.291 1672.724, 255.725 1674.785, 256 1675.134 C 256.275 1675.483, 257.400 1675.952, 258.500 1676.175 C 259.890 1676.458, 260.425 1677.270, 260.254 1678.837 C 260.118 1680.077, 260.906 1682.056, 262.004 1683.234 C 263.102 1684.413, 264 1685.785, 264 1686.284 C 264 1688.729, 268.288 1692.769, 272.190 1694 C 274.561 1694.748, 276.950 1695.679, 277.500 1696.068 C 278.050 1696.458, 279.850 1696.761, 281.500 1696.743 C 283.150 1696.724, 285.298 1697.052, 286.273 1697.470 C 287.841 1698.144, 312.804 1697.427, 323.500 1696.401 C 325.700 1696.191, 330.593 1696.290, 334.373 1696.623 C 340.126 1697.129, 341.332 1697.554, 341.770 1699.228 C 342.275 1701.159, 343.026 1701.220, 363.396 1700.980 C 375.003 1700.843, 391.700 1700.788, 400.500 1700.858 C 411.747 1700.946, 420.940 1700.373, 431.448 1698.928 C 439.670 1697.798, 446.682 1696.696, 447.031 1696.481 C 447.380 1696.265, 453.254 1695.152, 460.083 1694.008 C 473.550 1691.752, 499.915 1685.295, 501.450 1683.878 C 501.972 1683.395, 503.180 1683, 504.133 1683 C 506.151 1683, 524.676 1677.345, 527.236 1675.948 C 528.191 1675.426, 529.768 1675, 530.741 1675 C 533.180 1675, 545.771 1670.373, 556 1665.718 C 567.151 1660.644, 575.684 1657.270, 582.824 1655.111 C 589.855 1652.986, 603.235 1646.811, 617 1639.338 C 632.074 1631.154, 642.961 1624.873, 643.454 1624.074 C 643.745 1623.603, 646.279 1622.018, 649.085 1620.551 C 651.891 1619.083, 656.507 1616.245, 659.344 1614.243 C 662.180 1612.241, 667.425 1608.604, 671 1606.161 C 677.007 1602.056, 683.870 1596.952, 686.661 1594.514 C 687.300 1593.956, 689.670 1591.925, 691.927 1590 C 694.184 1588.075, 697.145 1585.512, 698.506 1584.305 C 699.867 1583.098, 704.247 1579.322, 708.240 1575.913 C 712.233 1572.505, 716.625 1568.685, 718 1567.426 C 719.375 1566.166, 725.177 1560.943, 730.893 1555.818 C 736.609 1550.693, 741.784 1545.916, 742.393 1545.203 C 743.002 1544.490, 745.285 1542.240, 747.466 1540.203 C 754.504 1533.633, 777.277 1509.368, 780.478 1505.030 C 781.609 1503.497, 784.439 1500.280, 786.767 1497.882 C 789.095 1495.483, 791 1493.187, 791 1492.780 C 791 1492.373, 794.150 1488.584, 798 1484.360 C 801.850 1480.137, 805 1476.266, 805 1475.759 C 805 1475.252, 806.504 1472.961, 808.342 1470.668 C 810.180 1468.376, 813.120 1464.025, 814.875 1461 C 819.076 1453.759, 820.396 1451.604, 821 1451 C 822.947 1449.053, 832.713 1429.865, 835.081 1423.332 C 838.628 1413.549, 839.381 1411.774, 842.750 1405.258 C 844.538 1401.800, 846.015 1398.415, 846.034 1397.736 C 846.053 1397.056, 846.937 1394.700, 848 1392.500 C 849.063 1390.300, 849.947 1387.975, 849.966 1387.333 C 849.985 1386.691, 850.896 1384.074, 851.992 1381.518 C 853.996 1376.844, 854.272 1375.901, 855.823 1368.423 C 856.288 1366.181, 857.037 1363.749, 857.489 1363.018 C 858.009 1362.176, 857.921 1361.931, 857.248 1362.347 C 856.581 1362.759, 856.381 1362.259, 856.710 1361.001 C 856.998 1359.901, 857.582 1359, 858.008 1359 C 859.396 1359, 860.194 1353.738, 858.926 1352.954 C 858.122 1352.458, 858.412 1352.004, 859.817 1351.558 C 861.151 1351.135, 861.689 1350.353, 861.316 1349.381 C 860.996 1348.547, 861.205 1346.883, 861.781 1345.683 C 865.411 1338.115, 868.092 1328.063, 867.758 1323.272 C 867.555 1320.354, 867.792 1318.372, 868.307 1318.690 C 868.806 1318.998, 868.951 1318.407, 868.630 1317.375 C 868.309 1316.344, 868.460 1314.840, 868.966 1314.034 C 869.545 1313.110, 869.491 1312.092, 868.820 1311.284 C 868.032 1310.333, 868.155 1310, 869.294 1310 C 870.141 1310, 871.099 1310.563, 871.423 1311.250 C 871.747 1311.938, 871.775 1311.259, 871.485 1309.743 C 871.121 1307.837, 871.351 1307.065, 872.229 1307.243 C 873.025 1307.404, 873.524 1306.361, 873.565 1304.454 C 873.600 1302.779, 873.939 1300.907, 874.318 1300.294 C 874.697 1299.682, 874.738 1298.482, 874.411 1297.628 C 873.822 1296.095, 879.291 1277.586, 880.934 1275.551 C 882.268 1273.898, 885.271 1259.149, 884.619 1257.450 C 884.296 1256.609, 884.427 1255.151, 884.910 1254.210 C 886.431 1251.244, 888.112 1242.454, 887.475 1240.795 C 887.139 1239.919, 887.363 1238.894, 887.973 1238.517 C 888.582 1238.140, 888.814 1236.990, 888.488 1235.961 C 888.161 1234.933, 888.626 1232.974, 889.521 1231.608 C 890.684 1229.833, 891.115 1227.039, 891.032 1221.812 C 890.754 1204.349, 891.814 1175.163, 892.864 1171.380 C 893.493 1169.114, 894.027 1162.139, 894.051 1155.880 C 894.075 1149.621, 894.520 1139.550, 895.041 1133.500 C 895.562 1127.450, 896.428 1112.600, 896.965 1100.500 C 897.980 1077.616, 900.223 1057.372, 902.505 1050.500 C 905.630 1041.085, 915.268 1022.801, 924.906 1008 C 929.913 1000.310, 941.131 986, 942.151 986 C 942.618 986, 943 985.347, 943 984.550 C 943 983.752, 943.700 982.708, 944.555 982.229 C 945.411 981.750, 948.600 978.466, 951.643 974.929 C 954.686 971.393, 968.056 957.250, 981.354 943.500 C 1014.810 908.906, 1017.813 905.679, 1025.748 895.789 L 1032.737 887.077 1033.369 877.289 C 1034.773 855.538, 1034.383 852.346, 1030.039 850.021 C 1028.986 849.457, 1028.174 848.210, 1028.235 847.248 C 1028.378 844.999, 1022.423 835.376, 1020.411 834.604 C 1019.565 834.280, 1019.176 833.524, 1019.546 832.926 C 1019.916 832.327, 1019.083 830.637, 1017.695 829.169 C 1016.307 827.701, 1013.367 824.025, 1011.161 821 C 1003.419 810.380, 1001.951 808.431, 995.502 800.224 C 991.926 795.673, 989 791.673, 989 791.335 C 989 789.723, 976.706 775.906, 962.009 761 C 953.061 751.925, 945.041 743.441, 944.188 742.148 C 943.334 740.854, 940.958 738.736, 938.907 737.441 C 936.856 736.146, 932.699 731.805, 929.669 727.794 C 926.639 723.782, 923.218 719.499, 922.065 718.276 C 920.913 717.052, 919.528 715.027, 918.987 713.776 C 918.447 712.524, 917.560 710.825, 917.016 710 C 913.261 704.304, 904.527 678.729, 901.135 663.500 C 900.033 658.550, 898.391 651.350, 897.486 647.500 C 891.825 623.405, 890.684 617.936, 890.294 613.027 C 889.887 607.892, 888.348 599.914, 884.616 583.583 C 883.746 579.778, 882.608 570.607, 882.086 563.201 C 881.564 555.796, 880.769 549.371, 880.319 548.923 C 879.868 548.476, 877.363 547.972, 874.751 547.805 C 872.139 547.637, 870.001 547.215, 870.001 546.867 C 870 546.027, 873.842 545.031, 877.143 545.014 C 878.597 545.006, 880.024 544.380, 880.314 543.623 C 881.122 541.518, 879.859 533.761, 878.322 531.391 C 877.570 530.231, 877.221 528.589, 877.545 527.742 C 877.870 526.895, 877.648 525.901, 877.052 525.532 C 876.455 525.163, 876.257 524.393, 876.612 523.819 C 876.966 523.246, 876.636 522.384, 875.878 521.904 C 874.780 521.208, 874.847 521.028, 876.206 521.015 C 877.765 521.001, 877.790 520.655, 876.495 516.986 C 875.032 512.839, 875 512.710, 875 510.941 C 875 510.359, 874.550 510.160, 874 510.500 C 873.450 510.840, 873 510.416, 873 509.559 C 873 508.702, 873.597 508, 874.327 508 C 876.152 508, 874.810 500.756, 870.260 486.052 C 867.802 478.106, 866.685 472.524, 866.609 467.803 C 866.549 464.062, 866.132 461.001, 865.683 461.001 C 865.233 461, 865.130 460.165, 865.454 459.145 C 865.778 458.125, 865.612 456.212, 865.085 454.895 C 864.558 453.578, 864.098 453.063, 864.063 453.750 C 864.029 454.438, 863.235 455, 862.300 455 C 861.106 455, 860.915 454.685, 861.656 453.944 C 863.338 452.262, 861.874 426, 860.098 426 C 859.071 426, 856.693 415.305, 857.448 414.084 C 857.770 413.563, 857.094 412.479, 855.947 411.675 C 854.466 410.638, 854.243 410.085, 855.180 409.770 C 856.264 409.406, 856.248 408.628, 855.089 405.413 C 854.314 403.261, 853.531 399.925, 853.350 398 C 853.004 394.327, 851.825 389.519, 849.426 382 C 848.636 379.525, 847.992 376.821, 847.995 375.992 C 847.998 375.163, 846.939 372.463, 845.643 369.992 C 844.346 367.521, 842.967 364.177, 842.576 362.561 C 842.186 360.945, 841.060 358.470, 840.074 357.061 C 839.088 355.652, 837.503 352.025, 836.552 349 C 835.600 345.975, 833.962 341.592, 832.911 339.261 C 831.860 336.929, 830.992 334.679, 830.981 334.261 C 830.953 333.094, 824.330 320.276, 822.174 317.214 C 821.122 315.721, 819.948 313.488, 819.564 312.250 C 819.180 311.012, 818.446 310, 817.933 310 C 817.420 310, 817.113 309.653, 817.250 309.230 C 817.388 308.806, 816.928 307.794, 816.230 306.980 C 815.531 306.166, 813.071 302.575, 810.764 299 C 806.437 292.296, 806.010 291.640, 802.304 285.994 C 801.096 284.154, 798.141 280.590, 795.736 278.074 C 793.331 275.558, 790.623 272.410, 789.718 271.079 C 787.626 268.002, 778.677 257.887, 768.895 247.542 C 764.712 243.119, 759.087 237.077, 756.395 234.115 C 747.190 223.988, 729.685 207.360, 721.250 200.730 C 717.813 198.028, 715 195.487, 715 195.083 C 715 194.680, 712.188 192.038, 708.750 189.213 C 705.313 186.387, 700.627 182.371, 698.337 180.288 C 684.894 168.056, 668.215 155.166, 655.912 147.500 C 655.029 146.950, 652.100 145.046, 649.403 143.269 C 646.707 141.492, 643.938 140.029, 643.250 140.019 C 642.563 140.009, 642 139.601, 642 139.114 C 642 138.627, 640.538 137.482, 638.750 136.569 C 636.962 135.657, 634.150 134.042, 632.500 132.981 C 630.850 131.920, 626.926 129.690, 623.780 128.027 C 620.635 126.363, 614.785 123.074, 610.780 120.718 C 603.261 116.294, 584.534 108.014, 577.500 106.004 C 575.300 105.375, 572.600 104.481, 571.500 104.016 C 570.400 103.552, 565.450 101.498, 560.500 99.452 C 555.550 97.406, 551.050 95.382, 550.500 94.955 C 549.950 94.528, 547.475 93.421, 545 92.496 C 542.525 91.571, 539.600 90.444, 538.500 89.991 C 537.400 89.538, 532.563 88.126, 527.750 86.853 C 522.938 85.580, 519 84.192, 519 83.769 C 519 83.346, 518.244 83, 517.321 83 C 516.398 83, 514.260 82.568, 512.571 82.039 C 510.882 81.511, 504.331 79.444, 498.012 77.446 C 491.694 75.448, 485.394 73.661, 484.012 73.475 C 482.631 73.290, 481.387 73.051, 481.250 72.944 C 480.587 72.429, 475.147 71.232, 465.500 69.476 C 460.550 68.575, 452.809 66.967, 448.298 65.903 C 443.786 64.839, 439.736 64.053, 439.298 64.157 C 438.592 64.325, 434.279 63.821, 424.500 62.428 C 422.850 62.193, 417 61.763, 411.500 61.471 C 406 61.180, 399.605 60.787, 397.289 60.598 C 394.974 60.409, 392.829 60.504, 392.524 60.809 M 300 73 C 300 73.550, 300.675 74, 301.500 74 C 302.325 74, 303 73.550, 303 73 C 303 72.450, 302.325 72, 301.500 72 C 300.675 72, 300 72.450, 300 73 M 261.920 98.596 C 260.764 99.990, 260.897 100.148, 262.970 99.846 C 264.275 99.656, 265.529 98.938, 265.755 98.250 C 266.348 96.451, 263.486 96.709, 261.920 98.596 M 263.500 116.026 C 257.654 117.206, 253.097 119.218, 255.152 119.712 C 256.060 119.930, 258.478 119.409, 260.524 118.554 C 262.570 117.699, 265.063 117, 266.063 117 C 267.063 117, 268.160 116.550, 268.500 116 C 269.187 114.889, 269.136 114.889, 263.500 116.026 M 488 115.383 C 488 115.594, 489.111 115.979, 490.470 116.239 C 491.828 116.499, 492.702 116.326, 492.411 115.856 C 491.899 115.027, 488 114.610, 488 115.383 M 403.500 122 C 403.160 122.550, 403.610 123, 404.500 123 C 405.390 123, 405.840 122.550, 405.500 122 C 405.160 121.450, 404.710 121, 404.500 121 C 404.290 121, 403.840 121.450, 403.500 122 M 483 133 C 483 133.550, 483.477 134, 484.059 134 C 484.641 134, 484.840 133.550, 484.500 133 C 484.160 132.450, 483.684 132, 483.441 132 C 483.198 132, 483 132.450, 483 133 M 283.281 146.614 C 283.618 146.952, 287.406 147.357, 291.697 147.514 C 298.225 147.754, 298.765 147.665, 295 146.974 C 289.581 145.980, 282.426 145.760, 283.281 146.614 M 322.500 151 C 322.157 151.555, 322.909 152.006, 324.191 152.014 C 325.461 152.021, 327.625 152.251, 329 152.525 C 331.207 152.963, 331.148 152.850, 328.500 151.556 C 324.912 149.803, 323.330 149.656, 322.500 151 M 457.813 158.683 C 458.534 158.972, 459.397 158.936, 459.729 158.604 C 460.061 158.272, 459.471 158.036, 458.417 158.079 C 457.252 158.127, 457.015 158.364, 457.813 158.683 M 485.750 164.662 C 486.438 164.940, 487.563 164.940, 488.250 164.662 C 488.938 164.385, 488.375 164.158, 487 164.158 C 485.625 164.158, 485.063 164.385, 485.750 164.662 M 497 167 C 498.958 168.266, 500.282 168.266, 499.500 167 C 499.160 166.450, 498.121 166.007, 497.191 166.015 C 495.734 166.029, 495.707 166.165, 497 167 M 509.441 170.532 C 510.509 171.339, 512.534 171.966, 513.941 171.924 C 516.267 171.855, 516.181 171.725, 513 170.500 C 508.369 168.717, 507.057 168.728, 509.441 170.532 M 624 175 C 624 176.100, 624.402 177, 624.893 177 C 626.017 177, 627.066 174.399, 626.264 173.598 C 625.061 172.394, 624 173.051, 624 175 M 527.813 175.683 C 528.534 175.972, 529.397 175.936, 529.729 175.604 C 530.061 175.272, 529.471 175.036, 528.417 175.079 C 527.252 175.127, 527.015 175.364, 527.813 175.683 M 645 191.778 C 645 193.593, 648.926 196.243, 650.640 195.585 C 652.121 195.016, 652.160 194.741, 650.928 193.571 C 649.091 191.827, 645 190.589, 645 191.778 M 663.500 194 C 663.840 194.550, 664.316 195, 664.559 195 C 664.802 195, 665 194.550, 665 194 C 665 193.450, 664.523 193, 663.941 193 C 663.359 193, 663.160 193.450, 663.500 194 M 637.609 198.576 C 636.764 200.779, 637.692 201.708, 639.217 200.183 C 640.055 199.345, 640.089 198.689, 639.333 197.933 C 638.576 197.176, 638.074 197.364, 637.609 198.576 M 657 202.119 C 659.784 204.406, 673.084 216.436, 679.299 222.289 C 681.814 224.658, 683.675 225.725, 684.263 225.137 C 685.781 223.619, 681.202 218.369, 674.555 214.008 C 671.225 211.824, 666.061 207.778, 663.080 205.018 C 660.100 202.258, 656.950 200.015, 656.080 200.033 C 654.925 200.058, 655.172 200.618, 657 202.119 M 640.540 202.936 C 640.119 203.617, 640.231 204.631, 640.788 205.188 C 642.086 206.486, 648.230 205.190, 647.740 203.721 C 647.146 201.937, 645 201.698, 645 203.417 C 645 205.458, 644.036 205.432, 642.513 203.349 C 641.599 202.098, 641.119 201.998, 640.540 202.936 M 676.421 206.250 C 680.408 211.237, 687.790 217.998, 689.250 217.999 C 690.897 218.001, 689.699 216.511, 682.750 209.922 C 675.007 202.579, 672.169 200.933, 676.421 206.250 M 640.174 214.603 C 641.070 215.499, 642.283 216.067, 642.869 215.866 C 643.455 215.665, 642.722 214.931, 641.240 214.237 C 638.749 213.069, 638.668 213.097, 640.174 214.603 M 671 224.393 C 671 224.609, 671.698 225.054, 672.552 225.382 C 673.442 225.723, 673.843 225.555, 673.493 224.989 C 672.906 224.038, 671 223.583, 671 224.393 M 686 225.755 C 686 226.305, 686.675 227.315, 687.500 228 C 688.337 228.694, 689 228.803, 689 228.245 C 689 227.695, 688.325 226.685, 687.500 226 C 686.663 225.306, 686 225.197, 686 225.755 M 693 232 C 693 232.550, 693.477 233, 694.059 233 C 694.641 233, 694.840 232.550, 694.500 232 C 694.160 231.450, 693.684 231, 693.441 231 C 693.198 231, 693 231.450, 693 232 M 616.510 236.016 C 616.856 236.575, 617.557 236.774, 618.069 236.457 C 619.456 235.600, 619.198 235, 617.441 235 C 616.584 235, 616.165 235.457, 616.510 236.016 M 704 241.893 C 704 242.384, 704.739 243.069, 705.641 243.416 C 707.014 243.943, 707.076 243.796, 706.019 242.523 C 704.579 240.788, 704 240.607, 704 241.893 M 608 264.013 L 604.500 264.641 608.297 265.440 C 612.131 266.248, 614.151 265.631, 612.433 264.176 C 611.920 263.742, 609.925 263.668, 608 264.013 M 558.500 274 C 558.840 274.550, 559.316 275, 559.559 275 C 559.802 275, 560 274.550, 560 274 C 560 273.450, 559.523 273, 558.941 273 C 558.359 273, 558.160 273.450, 558.500 274 M 562.397 276.500 C 563.441 277.290, 564.686 277.694, 565.164 277.399 C 566.606 276.507, 565.030 274.998, 562.691 275.032 C 560.572 275.063, 560.562 275.111, 562.397 276.500 M 535.500 280 C 535.840 280.550, 536.541 281, 537.059 281 C 537.577 281, 538 280.550, 538 280 C 538 279.450, 537.298 279, 536.441 279 C 535.584 279, 535.160 279.450, 535.500 280 M 576 280.870 C 576 281.349, 578.138 282.297, 580.750 282.977 C 583.362 283.657, 586.288 284.421, 587.250 284.674 C 588.212 284.928, 589 284.654, 589 284.067 C 589 283.480, 588.155 283, 587.122 283 C 586.089 283, 583.629 282.325, 581.654 281.500 C 577.567 279.792, 576 279.618, 576 280.870 M 591 281.879 C 591 282.955, 594.057 285.539, 596.250 286.317 C 599.303 287.399, 598.138 285.279, 594.500 283.133 C 592.575 281.997, 591 281.433, 591 281.879 M 568.813 284.683 C 569.534 284.972, 570.397 284.936, 570.729 284.604 C 571.061 284.272, 570.471 284.036, 569.417 284.079 C 568.252 284.127, 568.015 284.364, 568.813 284.683 M 540.813 285.683 C 541.534 285.972, 542.397 285.936, 542.729 285.604 C 543.061 285.272, 542.471 285.036, 541.417 285.079 C 540.252 285.127, 540.015 285.364, 540.813 285.683 M 573.500 285.742 C 574.050 286.292, 575.850 287.057, 577.500 287.442 C 579.500 287.908, 580.167 287.808, 579.500 287.142 C 578.950 286.592, 577.150 285.827, 575.500 285.442 C 573.500 284.975, 572.833 285.075, 573.500 285.742 M 587 287.965 C 587 289.188, 590.972 291.361, 591.763 290.571 C 592.088 290.245, 591.487 289.323, 590.427 288.521 C 588.165 286.810, 587 286.621, 587 287.965 M 588.500 293 C 588.840 293.550, 589.316 294, 589.559 294 C 589.802 294, 590 293.550, 590 293 C 590 292.450, 589.523 292, 588.941 292 C 588.359 292, 588.160 292.450, 588.500 293 M 593.768 293.168 C 594.350 293.750, 595.415 294.028, 596.137 293.788 C 596.886 293.538, 596.432 293.085, 595.080 292.731 C 593.417 292.296, 593.026 292.426, 593.768 293.168 M 555.919 297.402 C 556.558 298.173, 558.189 299.081, 559.541 299.421 C 560.893 299.760, 562 300.519, 562 301.107 C 562 301.800, 563.407 301.938, 566 301.500 C 568.385 301.097, 570 301.216, 570 301.795 C 570 302.330, 570.981 303.023, 572.181 303.337 C 574.257 303.880, 574.240 303.785, 571.812 301.357 C 570.120 299.665, 567.112 298.346, 562.881 297.438 C 554.809 295.708, 554.511 295.706, 555.919 297.402 M 573 297.883 C 573 298.369, 573.900 299.002, 575 299.290 C 577.362 299.907, 577.714 298.488, 575.418 297.607 C 573.319 296.801, 573 296.838, 573 297.883 M 586.500 298 C 586.160 298.550, 586.584 299, 587.441 299 C 588.298 299, 589 298.550, 589 298 C 589 297.450, 588.577 297, 588.059 297 C 587.541 297, 586.840 297.450, 586.500 298 M 601.500 299.451 C 604.231 301.673, 604.612 301.746, 605.750 300.255 C 607.332 298.183, 605.823 297.035, 601.500 297.020 L 598.500 297.010 601.500 299.451 M 576.500 303 C 578.576 304.650, 581.001 305.964, 581.888 305.921 C 583.248 305.854, 583.266 305.753, 582 305.274 C 581.175 304.962, 580.135 304.088, 579.689 303.332 C 579.242 302.576, 578.506 302.187, 578.052 302.468 C 577.598 302.748, 576.671 302.308, 575.991 301.489 C 575.311 300.670, 574.298 300, 573.740 300 C 573.182 300, 574.424 301.350, 576.500 303 M 592.150 302.950 C 592.580 304.239, 593.951 304.471, 594.075 303.275 C 594.116 302.876, 593.610 302.370, 592.950 302.150 C 592.290 301.930, 591.930 302.290, 592.150 302.950 M 585 306.383 C 585 306.594, 586.125 306.982, 587.500 307.245 C 588.875 307.508, 590 307.335, 590 306.861 C 590 306.388, 588.875 306, 587.500 306 C 586.125 306, 585 306.173, 585 306.383 M 576.733 314.124 C 577.412 314.808, 578.219 315.115, 578.526 314.807 C 578.834 314.499, 578.279 313.940, 577.293 313.564 C 575.868 313.022, 575.753 313.136, 576.733 314.124 M 584 320.031 C 584 320.564, 584.675 321, 585.500 321 C 586.325 321, 587 320.823, 587 320.607 C 587 320.391, 586.325 319.955, 585.500 319.638 C 584.675 319.322, 584 319.499, 584 320.031 M 610.500 359 C 610.840 359.550, 611.316 360, 611.559 360 C 611.802 360, 612 359.550, 612 359 C 612 358.450, 611.523 358, 610.941 358 C 610.359 358, 610.160 358.450, 610.500 359 M 689.500 360 C 689.840 360.550, 690.316 361, 690.559 361 C 690.802 361, 691 360.550, 691 360 C 691 359.450, 690.523 359, 689.941 359 C 689.359 359, 689.160 359.450, 689.500 360 M 843.694 375.639 C 842.895 376.438, 843.798 378, 845.059 378 C 845.577 378, 846 377.325, 846 376.500 C 846 374.954, 844.820 374.513, 843.694 375.639 M 824.079 472.583 C 824.127 473.748, 824.364 473.985, 824.683 473.188 C 824.972 472.466, 824.936 471.603, 824.604 471.271 C 824.272 470.939, 824.036 471.529, 824.079 472.583 M 740.079 546.583 C 740.127 547.748, 740.364 547.985, 740.683 547.188 C 740.972 546.466, 740.936 545.603, 740.604 545.271 C 740.272 544.939, 740.036 545.529, 740.079 546.583 M 749.158 547 C 749.158 548.375, 749.385 548.938, 749.662 548.250 C 749.940 547.563, 749.940 546.438, 749.662 545.750 C 749.385 545.063, 749.158 545.625, 749.158 547 M 833.079 547.583 C 833.127 548.748, 833.364 548.985, 833.683 548.188 C 833.972 547.466, 833.936 546.603, 833.604 546.271 C 833.272 545.939, 833.036 546.529, 833.079 547.583 M 702 591 C 702 591.550, 702.450 592, 703 592 C 703.550 592, 704 591.550, 704 591 C 704 590.450, 703.550 590, 703 590 C 702.450 590, 702 590.450, 702 591 M 898.192 671.075 C 898.389 671.666, 898.977 672.150, 899.500 672.150 C 900.023 672.150, 900.611 671.666, 900.808 671.075 C 901.005 670.484, 900.417 670, 899.500 670 C 898.583 670, 897.995 670.484, 898.192 671.075 M 729.667 880.667 C 729.300 881.033, 729 881.798, 729 882.367 C 729 882.993, 729.466 882.934, 730.183 882.217 C 730.834 881.566, 731.134 880.801, 730.850 880.517 C 730.566 880.232, 730.033 880.300, 729.667 880.667 M 672.079 977.583 C 672.127 978.748, 672.364 978.985, 672.683 978.188 C 672.972 977.466, 672.936 976.603, 672.604 976.271 C 672.272 975.939, 672.036 976.529, 672.079 977.583 M 892.516 1090.975 C 891.708 1092.282, 894.009 1093.391, 895.154 1092.246 C 895.794 1091.606, 895.602 1091.061, 894.599 1090.676 C 893.755 1090.352, 892.817 1090.487, 892.516 1090.975 M 881.583 1100.866 C 881.152 1101.563, 881.070 1102.403, 881.400 1102.733 C 882.295 1103.628, 883.271 1102.312, 882.787 1100.862 C 882.449 1099.846, 882.213 1099.846, 881.583 1100.866 M 885.031 1255.500 C 885.031 1256.050, 885.467 1257.175, 886 1258 C 886.533 1258.825, 886.969 1259.050, 886.969 1258.500 C 886.969 1257.950, 886.533 1256.825, 886 1256 C 885.467 1255.175, 885.031 1254.950, 885.031 1255.500 M 831.079 1292.583 C 831.127 1293.748, 831.364 1293.985, 831.683 1293.188 C 831.972 1292.466, 831.936 1291.603, 831.604 1291.271 C 831.272 1290.939, 831.036 1291.529, 831.079 1292.583 M 846 1386 C 846 1386.550, 846.675 1387, 847.500 1387 C 848.325 1387, 849 1386.550, 849 1386 C 849 1385.450, 848.325 1385, 847.500 1385 C 846.675 1385, 846 1385.450, 846 1386 M 692.667 1403.667 C 692.300 1404.033, 692 1404.798, 692 1405.367 C 692 1405.993, 692.466 1405.934, 693.183 1405.217 C 693.834 1404.566, 694.134 1403.801, 693.850 1403.517 C 693.566 1403.233, 693.033 1403.300, 692.667 1403.667 M 685 1415 C 685 1415.550, 685.450 1416, 686 1416 C 686.550 1416, 687 1415.550, 687 1415 C 687 1414.450, 686.550 1414, 686 1414 C 685.450 1414, 685 1414.450, 685 1415 M 586 1443 C 584.707 1443.835, 584.734 1443.971, 586.191 1443.985 C 587.121 1443.993, 588.160 1443.550, 588.500 1443 C 589.282 1441.734, 587.958 1441.734, 586 1443 M 586.459 1457.067 C 586.096 1457.653, 586.014 1458.348, 586.276 1458.610 C 586.538 1458.872, 587.019 1458.392, 587.345 1457.543 C 588.021 1455.781, 587.445 1455.471, 586.459 1457.067 M 578.727 1459 C 576.064 1461.095, 573.440 1461.716, 574.500 1460 C 574.840 1459.450, 574.191 1459, 573.059 1459 C 571.927 1459, 571 1459.450, 571 1460 C 571 1460.550, 569.567 1461, 567.816 1461 C 564.292 1461, 556 1464.619, 556 1466.157 C 556 1466.695, 556.788 1466.921, 557.750 1466.660 C 561.496 1465.645, 565.545 1464.678, 566.500 1464.571 C 568.912 1464.301, 572 1462.782, 572 1461.865 C 572 1461.312, 572.916 1461.156, 574.048 1461.515 C 575.174 1461.873, 576.637 1461.716, 577.298 1461.168 C 577.959 1460.619, 578.950 1460.079, 579.500 1459.967 C 580.050 1459.855, 581.388 1459.141, 582.473 1458.382 C 584.044 1457.281, 584.122 1457, 582.857 1457 C 581.984 1457, 580.126 1457.900, 578.727 1459 M 593.500 1460 C 593.160 1460.550, 593.584 1461, 594.441 1461 C 595.298 1461, 596 1460.550, 596 1460 C 596 1459.450, 595.577 1459, 595.059 1459 C 594.541 1459, 593.840 1459.450, 593.500 1460 M 602.500 1464.068 L 599.500 1465.989 603.083 1465.995 C 607.144 1466.001, 608.097 1465.418, 607.324 1463.402 C 606.648 1461.639, 606.194 1461.702, 602.500 1464.068 M 574.500 1464 C 574.160 1464.550, 574.557 1465, 575.382 1465 C 576.207 1465, 577.160 1464.550, 577.500 1464 C 577.840 1463.450, 577.443 1463, 576.618 1463 C 575.793 1463, 574.840 1463.450, 574.500 1464 M 587.500 1465 C 587.840 1465.550, 588.541 1466, 589.059 1466 C 589.577 1466, 590 1465.550, 590 1465 C 590 1464.450, 589.298 1464, 588.441 1464 C 587.584 1464, 587.160 1464.450, 587.500 1465 M 589.500 1470 C 589.160 1470.550, 589.359 1471, 589.941 1471 C 590.523 1471, 591 1470.550, 591 1470 C 591 1469.450, 590.802 1469, 590.559 1469 C 590.316 1469, 589.840 1469.450, 589.500 1470 M 594.500 1470 C 593.718 1471.266, 595.042 1471.266, 597 1470 C 598.293 1469.165, 598.266 1469.029, 596.809 1469.015 C 595.879 1469.007, 594.840 1469.450, 594.500 1470 M 589.540 1473.347 C 588.213 1474.318, 588.032 1474.901, 588.892 1475.433 C 590.132 1476.200, 593 1474.416, 593 1472.878 C 593 1471.614, 591.661 1471.796, 589.540 1473.347 M 577.186 1475.055 C 575.913 1475.565, 575.126 1476.394, 575.436 1476.897 C 576.055 1477.898, 580.979 1475.995, 580.992 1474.750 C 581.002 1473.808, 580.117 1473.879, 577.186 1475.055 M 540.813 1476.683 C 541.534 1476.972, 542.397 1476.936, 542.729 1476.604 C 543.061 1476.272, 542.471 1476.036, 541.417 1476.079 C 540.252 1476.127, 540.015 1476.364, 540.813 1476.683 M 597 1476.716 C 595.492 1477.277, 592 1480.526, 592 1481.367 C 592 1481.616, 593.815 1480.941, 596.034 1479.869 C 598.253 1478.797, 599.802 1477.488, 599.475 1476.960 C 599.149 1476.432, 598.796 1476.036, 598.691 1476.079 C 598.586 1476.122, 597.825 1476.409, 597 1476.716 M 569.500 1478 C 569.160 1478.550, 569.359 1479, 569.941 1479 C 570.523 1479, 571 1478.550, 571 1478 C 571 1477.450, 570.802 1477, 570.559 1477 C 570.316 1477, 569.840 1477.450, 569.500 1478 M 580.750 1479.303 C 576.123 1480.598, 575.685 1482.545, 580.250 1481.522 C 582.038 1481.122, 585.205 1480.448, 587.290 1480.024 C 589.374 1479.601, 591.361 1478.972, 591.706 1478.627 C 592.680 1477.653, 584.935 1478.131, 580.750 1479.303 M 536 1482 C 536 1482.550, 536.450 1483, 537 1483 C 537.550 1483, 538 1482.550, 538 1482 C 538 1481.450, 537.550 1481, 537 1481 C 536.450 1481, 536 1481.450, 536 1482 M 562.500 1486 C 561.713 1487.273, 564.030 1487.273, 566 1486 C 567.219 1485.212, 567.090 1485.028, 565.309 1485.015 C 564.104 1485.007, 562.840 1485.450, 562.500 1486 M 559 1488.059 C 559 1488.641, 559.450 1488.840, 560 1488.500 C 560.550 1488.160, 561 1487.684, 561 1487.441 C 561 1487.198, 560.550 1487, 560 1487 C 559.450 1487, 559 1487.477, 559 1488.059 M 606.565 1497.895 C 606.260 1498.388, 607.799 1498.962, 609.985 1499.170 C 612.580 1499.417, 614.129 1499.107, 614.448 1498.274 C 615.021 1496.783, 607.476 1496.420, 606.565 1497.895 M 707 1520 C 705.718 1520.828, 705.754 1520.972, 707.250 1520.985 C 708.212 1520.993, 709 1520.550, 709 1520 C 709 1518.780, 708.887 1518.780, 707 1520 M 617.500 1527 C 617.160 1527.550, 617.835 1528, 619 1528 C 620.165 1528, 620.840 1527.550, 620.500 1527 C 620.160 1526.450, 619.485 1526, 619 1526 C 618.515 1526, 617.840 1526.450, 617.500 1527 M 613.813 1528.683 C 614.534 1528.972, 615.397 1528.936, 615.729 1528.604 C 616.061 1528.272, 615.471 1528.036, 614.417 1528.079 C 613.252 1528.127, 613.015 1528.364, 613.813 1528.683 M 689 1535.500 C 688.306 1536.337, 688.197 1537, 688.755 1537 C 689.305 1537, 690.315 1536.325, 691 1535.500 C 691.694 1534.663, 691.803 1534, 691.245 1534 C 690.695 1534, 689.685 1534.675, 689 1535.500 M 673.507 1537.989 C 673.157 1538.555, 673.558 1538.723, 674.448 1538.382 C 676.180 1537.717, 676.497 1537, 675.059 1537 C 674.541 1537, 673.843 1537.445, 673.507 1537.989 M 681.192 1540.750 C 669.923 1551.188, 661.190 1558.794, 659.190 1559.913 C 658.270 1560.429, 657.808 1561.141, 658.164 1561.497 C 658.926 1562.259, 667 1557.363, 667 1556.139 C 667 1555.679, 670.797 1552.724, 675.437 1549.572 C 683.286 1544.240, 687 1540.535, 687 1538.035 C 687 1536.154, 685.293 1536.952, 681.192 1540.750 M 616.500 1540 C 616.160 1540.550, 616.359 1541, 616.941 1541 C 617.523 1541, 618 1540.550, 618 1540 C 618 1539.450, 617.802 1539, 617.559 1539 C 617.316 1539, 616.840 1539.450, 616.500 1540 M 686.137 1548.604 C 682.214 1551.706, 676.439 1558.772, 677.203 1559.536 C 677.369 1559.702, 681.066 1556.499, 685.420 1552.419 C 693.520 1544.827, 693.975 1542.407, 686.137 1548.604 M 643.500 1547 C 643.160 1547.550, 643.584 1548, 644.441 1548 C 645.298 1548, 646 1547.550, 646 1547 C 646 1546.450, 645.577 1546, 645.059 1546 C 644.541 1546, 643.840 1546.450, 643.500 1547 M 643.750 1556.799 C 642.788 1556.990, 642 1557.789, 642 1558.573 C 642 1560.212, 643.584 1560.482, 644.500 1559 C 645.426 1557.501, 647 1557.796, 647 1559.469 C 647 1560.363, 647.586 1560.712, 648.500 1560.362 C 649.325 1560.045, 649.996 1559.497, 649.992 1559.143 C 649.979 1558.067, 645.614 1556.428, 643.750 1556.799 M 639.638 1563.500 C 639.955 1564.325, 640.616 1565, 641.107 1565 C 641.598 1565, 642 1564.325, 642 1563.500 C 642 1562.675, 641.339 1562, 640.531 1562 C 639.637 1562, 639.288 1562.586, 639.638 1563.500 M 649.250 1567.946 C 647.195 1569.658, 646.213 1572, 647.550 1572 C 649.260 1572, 654.069 1568.707, 653.751 1567.754 C 653.132 1565.896, 651.633 1565.960, 649.250 1567.946 M 626.719 1585.615 C 625.670 1586.663, 625.839 1590, 626.941 1590 C 628.370 1590, 628.823 1588.701, 628.094 1586.698 C 627.733 1585.707, 627.114 1585.219, 626.719 1585.615 M 528.500 1587 C 528.160 1587.550, 528.359 1588, 528.941 1588 C 529.523 1588, 530 1587.550, 530 1587 C 530 1586.450, 529.802 1586, 529.559 1586 C 529.316 1586, 528.840 1586.450, 528.500 1587 M 512.105 1591.085 C 510.787 1591.612, 509.887 1592.219, 510.105 1592.433 C 510.825 1593.144, 516 1591.784, 516 1590.883 C 516 1589.803, 515.207 1589.844, 512.105 1591.085 M 334.813 1593.683 C 335.534 1593.972, 336.397 1593.936, 336.729 1593.604 C 337.061 1593.272, 336.471 1593.036, 335.417 1593.079 C 334.252 1593.127, 334.015 1593.364, 334.813 1593.683 M 486.813 1598.683 C 487.534 1598.972, 488.397 1598.936, 488.729 1598.604 C 489.061 1598.272, 488.471 1598.036, 487.417 1598.079 C 486.252 1598.127, 486.015 1598.364, 486.813 1598.683 M 326 1608.900 C 323.525 1609.230, 321.992 1609.821, 322.594 1610.212 C 324.002 1611.130, 331 1610.012, 331 1608.869 C 331 1608.391, 330.887 1608.068, 330.750 1608.150 C 330.613 1608.233, 328.475 1608.570, 326 1608.900 M 286 1614 C 286 1614.550, 286.675 1615, 287.500 1615 C 288.325 1615, 289 1614.550, 289 1614 C 289 1613.450, 288.325 1613, 287.500 1613 C 286.675 1613, 286 1613.450, 286 1614 M 290.559 1613.905 C 290.240 1614.421, 291.825 1614.577, 294.250 1614.267 C 299.881 1613.549, 300.303 1613, 295.226 1613 C 292.966 1613, 290.866 1613.407, 290.559 1613.905 M 331 1626.059 C 331 1626.641, 331.450 1626.840, 332 1626.500 C 332.550 1626.160, 333 1625.684, 333 1625.441 C 333 1625.198, 332.550 1625, 332 1625 C 331.450 1625, 331 1625.477, 331 1626.059 M 336 1626 C 336 1626.550, 336.477 1627, 337.059 1627 C 337.641 1627, 337.840 1626.550, 337.500 1626 C 337.160 1625.450, 336.684 1625, 336.441 1625 C 336.198 1625, 336 1625.450, 336 1626 M 268 1639.059 C 268 1639.641, 268.450 1639.840, 269 1639.500 C 269.550 1639.160, 270 1638.684, 270 1638.441 C 270 1638.198, 269.550 1638, 269 1638 C 268.450 1638, 268 1638.477, 268 1639.059 M 403.500 1640 C 403.840 1640.550, 404.316 1641, 404.559 1641 C 404.802 1641, 405 1640.550, 405 1640 C 405 1639.450, 404.523 1639, 403.941 1639 C 403.359 1639, 403.160 1639.450, 403.500 1640 M 254.179 1641.036 C 254.639 1642.417, 257.549 1643.547, 264.250 1644.948 C 269.925 1646.134, 268.727 1644.743, 262.243 1642.617 C 259.084 1641.582, 255.876 1640.498, 255.114 1640.208 C 254.258 1639.883, 253.900 1640.200, 254.179 1641.036 M 320 1644.059 C 320 1644.641, 320.450 1644.840, 321 1644.500 C 321.550 1644.160, 322 1643.684, 322 1643.441 C 322 1643.198, 321.550 1643, 321 1643 C 320.450 1643, 320 1643.477, 320 1644.059 M 490.750 1646.662 C 491.438 1646.940, 492.563 1646.940, 493.250 1646.662 C 493.938 1646.385, 493.375 1646.158, 492 1646.158 C 490.625 1646.158, 490.063 1646.385, 490.750 1646.662 M 260.425 1661.879 C 261.424 1663.495, 265 1663.907, 265 1662.406 C 265 1661.564, 263.973 1661, 262.441 1661 C 261.034 1661, 260.127 1661.396, 260.425 1661.879 M 299 1688 C 299 1688.550, 299.675 1689, 300.500 1689 C 301.325 1689, 302 1688.550, 302 1688 C 302 1687.450, 301.325 1687, 300.500 1687 C 299.675 1687, 299 1687.450, 299 1688" stroke="none" fill="black" fill-rule="evenodd"/>
</svg>