<svg xmlns="http://www.w3.org/2000/svg" width="1240" height="1753" viewBox="0 0 1240 1753" version="1.1">
	<path d="M 330 674.092 C 322.025 674.489, 311.900 675.290, 307.500 675.871 C 303.100 676.452, 294.775 677.434, 289 678.052 C 283.225 678.671, 277.150 679.555, 275.500 680.017 C 273.850 680.479, 268.900 681.598, 264.500 682.505 C 260.100 683.412, 253.125 685.183, 249 686.441 C 244.875 687.699, 238.125 689.729, 234 690.953 C 229.875 692.176, 224.925 693.776, 223 694.507 C 221.075 695.238, 216.800 696.841, 213.500 698.068 C 204.869 701.277, 200.842 702.929, 198 704.425 C 196.625 705.150, 193.700 706.318, 191.500 707.021 C 187.762 708.217, 183.427 710.377, 160.508 722.467 C 155.562 725.076, 147.687 728.779, 143.008 730.697 C 138.329 732.615, 130 736.363, 124.500 739.024 C 110.290 745.901, 79.974 760.919, 72.676 764.697 C 69.279 766.456, 65.813 767.919, 64.974 767.947 C 63.192 768.009, 43.244 781.365, 41.259 783.826 C 40.516 784.747, 37.850 789.775, 35.334 795 C 30.922 804.162, 30.778 804.751, 31.286 811.535 C 31.634 816.177, 32.546 819.811, 33.968 822.222 C 35.241 824.380, 36.142 827.640, 36.170 830.187 C 36.195 832.559, 36.565 834.950, 36.992 835.500 C 37.420 836.050, 38.098 838.075, 38.501 840 C 38.904 841.925, 40.081 844.305, 41.116 845.289 C 42.152 846.273, 43 847.698, 43 848.456 C 43 849.213, 43.544 850.015, 44.208 850.236 C 44.872 850.457, 45.520 852.182, 45.646 854.069 C 46.509 866.922, 48.220 874.064, 51.354 877.903 C 51.984 878.675, 52.576 880.250, 52.668 881.403 C 52.761 882.556, 53.382 885.525, 54.049 888 C 54.716 890.475, 55.211 893.477, 55.149 894.670 C 55.086 895.864, 55.698 898.427, 56.508 900.365 C 57.318 902.303, 57.718 904.571, 57.398 905.406 C 56.576 907.548, 61.813 917.806, 64.099 918.531 C 65.605 919.009, 65.791 919.522, 64.997 921.006 C 64.440 922.046, 64.383 923.119, 64.868 923.419 C 65.349 923.715, 66.001 925.255, 66.318 926.840 C 66.635 928.424, 68.055 931.100, 69.473 932.785 C 71.022 934.626, 71.642 936.103, 71.026 936.484 C 69.058 937.701, 70.555 943.182, 75.071 951.291 C 75.619 952.276, 75.820 953.482, 75.517 953.972 C 74.592 955.469, 79.181 957.993, 81.684 957.365 C 83.330 956.951, 84 957.215, 84 958.275 C 84 959.095, 84.900 960.002, 86 960.290 C 87.100 960.577, 88 961.556, 88 962.465 C 88 963.382, 88.475 963.824, 89.067 963.458 C 89.654 963.096, 90.374 963.713, 90.666 964.830 C 90.958 965.948, 91.770 967.081, 92.470 967.350 C 93.760 967.845, 93.764 971.045, 92.477 974.269 C 91.851 975.839, 92.093 975.922, 94.636 975.013 C 97.153 974.112, 97.287 974.155, 95.739 975.363 C 94.183 976.576, 94.153 976.882, 95.482 977.985 C 96.574 978.892, 96.817 980.293, 96.368 983.101 C 95.924 985.874, 96.228 987.699, 97.440 989.549 C 98.885 991.754, 99.596 992.028, 102.315 991.431 C 104.066 991.046, 108.225 988.826, 111.557 986.497 C 117.344 982.452, 118.014 982.241, 126.557 981.759 C 131.476 981.482, 137.975 980.472, 141 979.515 C 148.398 977.175, 156.739 974.187, 161 972.351 C 164.714 970.751, 165.059 970.580, 186 959.931 C 204.094 950.729, 224.986 941, 226.651 941 C 227.393 941, 228 940.550, 228 940 C 228 939.450, 228.668 939, 229.483 939 C 230.299 939, 234.237 937.445, 238.233 935.544 C 262.839 923.841, 292.244 913.583, 305.741 911.993 C 311.109 911.361, 317.387 910.429, 319.693 909.922 C 325.067 908.740, 333.682 908.751, 345.289 909.956 C 350.355 910.481, 356.975 911.137, 360 911.413 C 370.888 912.408, 387.659 914.920, 390.423 915.971 C 391.974 916.560, 395.598 916.966, 398.475 916.872 C 401.353 916.778, 404.211 917.012, 404.827 917.393 C 405.442 917.773, 407.421 918.291, 409.223 918.544 C 418.104 919.789, 433.079 924.144, 449.767 930.334 C 454.864 932.224, 460.984 934.262, 463.368 934.863 C 465.752 935.463, 471.482 937.705, 476.101 939.845 C 480.721 941.985, 486.637 944.670, 489.250 945.812 C 491.863 946.953, 494 948.374, 494 948.969 C 494 950.497, 498.399 951.982, 504.385 952.474 C 508.516 952.814, 515.272 955.781, 539.500 967.894 C 556 976.143, 571.075 983.810, 573 984.930 C 578.942 988.389, 606.703 1001.461, 623 1008.475 C 631.525 1012.144, 639.400 1015.543, 640.500 1016.029 C 648.062 1019.371, 671.048 1028, 672.388 1028 C 673.289 1028, 674.809 1028.450, 675.764 1029 C 677.861 1030.207, 683.115 1032.268, 684.500 1032.426 C 685.050 1032.489, 687.525 1033.503, 690 1034.680 C 692.475 1035.856, 696.300 1037.127, 698.500 1037.504 C 700.700 1037.881, 705.650 1039.228, 709.500 1040.497 C 718.957 1043.615, 723.852 1044.580, 722.381 1043.036 C 721.765 1042.390, 720.640 1041.737, 719.881 1041.584 C 717.391 1041.085, 713 1039.063, 713 1038.416 C 713 1038.068, 714.195 1038.083, 715.655 1038.450 C 717.330 1038.870, 718.591 1038.661, 719.072 1037.884 C 719.644 1036.958, 721.654 1037.406, 727.166 1039.686 C 734.801 1042.843, 741.253 1044.667, 747.709 1045.493 C 749.794 1045.760, 753.027 1046.420, 754.892 1046.960 C 756.758 1047.500, 758.690 1047.691, 759.186 1047.385 C 759.682 1047.079, 760.630 1047.249, 761.294 1047.764 C 761.957 1048.279, 765.425 1049.276, 769 1049.978 C 772.575 1050.681, 777.040 1052.129, 778.921 1053.196 C 780.803 1054.262, 784.628 1055.365, 787.421 1055.646 C 790.215 1055.928, 793.400 1056.537, 794.500 1057 C 795.600 1057.464, 801.465 1058.087, 807.534 1058.386 C 813.602 1058.684, 821.597 1059.631, 825.299 1060.490 C 834.493 1062.622, 896.344 1062.976, 900.086 1060.918 C 901.414 1060.188, 904.525 1059.570, 907 1059.545 C 910.049 1059.515, 911.419 1059.097, 911.250 1058.250 C 911.082 1057.412, 912.237 1057.038, 914.750 1057.116 C 916.868 1057.182, 917.630 1057.441, 916.500 1057.713 C 915.400 1057.978, 914.050 1058.632, 913.500 1059.168 C 912.848 1059.803, 913.396 1059.921, 915.073 1059.507 C 916.488 1059.158, 919.863 1058.690, 922.573 1058.467 C 930.409 1057.824, 938.872 1056.462, 939.608 1055.725 C 939.980 1055.353, 939.700 1054.343, 938.985 1053.482 C 937.967 1052.255, 937.948 1051.653, 938.896 1050.708 C 939.844 1049.764, 940.497 1050.015, 941.891 1051.860 C 943.570 1054.082, 943.845 1054.134, 946.587 1052.747 C 948.189 1051.937, 950.125 1051.496, 950.889 1051.767 C 951.653 1052.038, 952.004 1051.816, 951.669 1051.274 C 951.305 1050.685, 952.073 1050.482, 953.578 1050.770 C 955.261 1051.092, 956.604 1050.630, 957.629 1049.376 C 958.988 1047.714, 959.100 1047.700, 958.613 1049.250 C 958.260 1050.372, 958.590 1051, 959.531 1051 C 960.339 1051, 961 1050.647, 961 1050.216 C 961 1049.784, 962.350 1048.634, 964 1047.659 C 966.623 1046.110, 967 1046.083, 967 1047.443 C 967 1049.188, 968.552 1049.533, 969.500 1048 C 969.840 1047.450, 970.991 1047, 972.059 1047 C 973.127 1047, 974 1046.325, 974 1045.500 C 974 1043.692, 975.167 1043.567, 976.800 1045.200 C 977.733 1046.133, 978 1046.107, 978 1045.083 C 978 1044.267, 978.746 1043.962, 979.963 1044.280 C 981.043 1044.563, 982.426 1044.192, 983.036 1043.456 C 983.647 1042.721, 984.794 1042.367, 985.586 1042.671 C 986.378 1042.975, 987.675 1042.685, 988.469 1042.026 C 989.263 1041.367, 990.388 1041.122, 990.969 1041.481 C 991.550 1041.840, 993.482 1041.393, 995.263 1040.488 C 997.043 1039.582, 1000.821 1037.961, 1003.657 1036.884 C 1006.494 1035.807, 1009.079 1034.236, 1009.402 1033.394 C 1009.803 1032.350, 1010.667 1032.077, 1012.114 1032.536 C 1013.282 1032.907, 1015.197 1032.761, 1016.369 1032.212 C 1017.541 1031.664, 1021.425 1029.846, 1025 1028.173 C 1029.729 1025.959, 1030.833 1025.113, 1029.050 1025.065 C 1024.765 1024.951, 1028.322 1022.885, 1033.392 1022.543 C 1040.239 1022.082, 1052.137 1015.928, 1071 1003.092 C 1103.078 981.263, 1112.857 974.481, 1114.747 972.750 C 1117.338 970.377, 1118.277 970.550, 1117.422 973.245 L 1116.710 975.489 1119.105 973.304 C 1123.280 969.495, 1134.162 960.558, 1136.524 959 C 1141.158 955.942, 1157.446 940.531, 1163.339 933.630 C 1166.688 929.708, 1172.223 923.747, 1175.641 920.381 C 1179.059 917.016, 1182.779 912.540, 1183.907 910.435 C 1186.373 905.833, 1207.496 884, 1209.482 884 C 1210.252 884, 1211.160 884.450, 1211.500 885 C 1211.840 885.550, 1212.556 886, 1213.090 886 C 1215.224 886, 1215.052 882.786, 1212.588 876.628 C 1211.165 873.070, 1210 869.205, 1210 868.039 C 1210 865.721, 1203.905 847.126, 1201.002 840.590 C 1197.834 833.455, 1194.104 823.605, 1193.395 820.500 C 1192.700 817.459, 1188.835 808.016, 1184.186 798 C 1182.781 794.975, 1180.974 790.925, 1180.169 789 C 1178.639 785.341, 1178.237 784.498, 1174.766 777.677 C 1172.603 773.425, 1167.435 765.530, 1165.348 763.290 C 1164.714 762.610, 1163.164 760.354, 1161.903 758.277 C 1160.642 756.199, 1158.910 754.081, 1158.055 753.569 C 1157.200 753.057, 1154.025 750.306, 1151 747.455 C 1147.975 744.604, 1144.491 741.746, 1143.258 741.105 C 1142.025 740.463, 1140.132 738.265, 1139.052 736.219 C 1137.880 733.999, 1137.071 733.205, 1137.044 734.250 C 1137.020 735.212, 1136.594 736, 1136.099 736 C 1135.068 736, 1130.574 729.069, 1130.512 727.383 C 1130.489 726.769, 1128.991 725.022, 1127.183 723.501 C 1123.762 720.622, 1116.622 710.215, 1113.649 703.773 C 1112.675 701.665, 1110.021 698.734, 1107.534 697.023 C 1102.561 693.602, 1101.822 693.372, 1102.638 695.500 C 1102.974 696.375, 1102.649 697.009, 1101.857 697.022 C 1101.111 697.034, 1099.375 697.974, 1098 699.109 C 1096.625 700.245, 1096.063 700.883, 1096.750 700.528 C 1098.254 699.751, 1098.445 701.607, 1096.956 702.527 C 1096.382 702.882, 1095.298 702.662, 1094.546 702.038 C 1093.455 701.133, 1093.045 701.519, 1092.510 703.952 C 1092.048 706.059, 1091.248 707, 1089.921 707 C 1088.864 707, 1088 707.374, 1088 707.831 C 1088 708.288, 1086.763 709.282, 1085.250 710.040 C 1083.737 710.797, 1081.881 711.876, 1081.124 712.436 C 1078.828 714.135, 1073 714.114, 1073 712.407 C 1073 711.290, 1072.086 711.549, 1069.268 713.464 C 1067.215 714.859, 1065.222 716, 1064.838 716 C 1063.086 716, 1049.926 722.680, 1044.674 726.234 C 1041.470 728.403, 1031.795 737.159, 1023.174 745.692 C 1014.553 754.225, 1004.125 763.924, 1000 767.245 C 995.875 770.566, 991.819 774.007, 990.987 774.892 C 990.155 775.776, 986.780 778.678, 983.487 781.339 C 980.194 784, 973.931 789.625, 969.570 793.839 C 965.208 798.053, 960.642 802.175, 959.424 803 C 958.205 803.825, 954.124 806.996, 950.354 810.047 C 946.584 813.097, 941.322 816.922, 938.660 818.547 C 935.998 820.171, 932.194 822.484, 930.206 823.686 C 926.650 825.837, 916.766 829.501, 902 834.143 C 895.428 836.208, 892.521 836.500, 878.500 836.500 C 869.700 836.500, 858.450 836.140, 853.500 835.701 C 848.550 835.261, 842.700 834.770, 840.500 834.610 C 836.625 834.328, 834.586 833.953, 817.500 830.380 C 810.806 828.980, 788.995 827.552, 778.741 827.843 C 777.223 827.886, 773.923 827.039, 771.408 825.960 C 768.892 824.882, 765.702 824, 764.318 824 C 762.934 824, 760.384 823.368, 758.651 822.596 C 753.330 820.225, 740.096 816, 737.991 816 C 736.896 816, 736 815.559, 736 815.019 C 736 814.480, 734.763 813.744, 733.250 813.385 C 731.737 813.025, 728.250 811.702, 725.500 810.445 C 722.750 809.187, 716.995 806.548, 712.712 804.579 C 708.428 802.611, 704.102 801, 703.097 801 C 702.092 801, 700.197 800.166, 698.885 799.147 C 697.573 798.128, 694.025 796.506, 691 795.541 C 687.975 794.576, 683.816 792.706, 681.757 791.384 C 679.699 790.063, 675.649 787.854, 672.757 786.477 C 669.866 785.099, 666.375 783.332, 665 782.550 C 663.625 781.768, 657.550 778.806, 651.500 775.967 C 645.450 773.128, 637.125 769.212, 633 767.264 C 624.931 763.455, 622.003 762.199, 615 759.548 C 612.525 758.611, 608.836 756.979, 606.802 755.922 C 604.768 754.865, 602.236 754, 601.174 754 C 600.113 754, 598.699 753.342, 598.032 752.539 C 597.365 751.735, 595.848 750.807, 594.660 750.476 C 593.472 750.145, 584.400 745.865, 574.500 740.964 C 558.101 732.847, 536.465 723.907, 525 720.510 C 522.525 719.777, 516.675 717.767, 512 716.044 C 507.325 714.321, 501.343 712.233, 498.707 711.404 C 496.071 710.575, 490.334 708.387, 485.957 706.541 C 481.581 704.695, 478 703.424, 478 703.715 C 478 704.006, 477.361 703.715, 476.581 703.067 C 474.722 701.524, 456.729 695.190, 429.500 686.492 C 424.490 684.892, 411.001 681.508, 403.500 679.970 C 401.300 679.519, 397.700 678.691, 395.500 678.130 C 392.167 677.280, 363.047 674.479, 348.500 673.608 C 346.300 673.477, 337.975 673.694, 330 674.092 M 1079.500 710 C 1079.160 710.550, 1079.359 711, 1079.941 711 C 1080.523 711, 1081 710.550, 1081 710 C 1081 709.450, 1080.802 709, 1080.559 709 C 1080.316 709, 1079.840 709.450, 1079.500 710 M 1105.459 713.067 C 1105.096 713.653, 1105.014 714.348, 1105.276 714.610 C 1105.538 714.872, 1106.019 714.392, 1106.345 713.543 C 1107.021 711.781, 1106.445 711.471, 1105.459 713.067 M 345.143 721.907 C 344.137 722.532, 344.090 722.937, 344.960 723.475 C 346.332 724.323, 347.362 723.572, 346.854 722.095 C 346.646 721.489, 345.940 721.412, 345.143 721.907 M 440.813 730.683 C 441.534 730.972, 442.397 730.936, 442.729 730.604 C 443.061 730.272, 442.471 730.036, 441.417 730.079 C 440.252 730.127, 440.015 730.364, 440.813 730.683 M 445.500 732 C 445.840 732.550, 446.316 733, 446.559 733 C 446.802 733, 447 732.550, 447 732 C 447 731.450, 446.523 731, 445.941 731 C 445.359 731, 445.160 731.450, 445.500 732 M 438 733 C 438 733.550, 438.477 734, 439.059 734 C 439.641 734, 439.840 733.550, 439.500 733 C 439.160 732.450, 438.684 732, 438.441 732 C 438.198 732, 438 732.450, 438 733 M 451 734 C 451.825 734.533, 452.950 734.969, 453.500 734.969 C 454.050 734.969, 453.825 734.533, 453 734 C 452.175 733.467, 451.050 733.031, 450.500 733.031 C 449.950 733.031, 450.175 733.467, 451 734 M 1084.987 750.010 C 1083.636 751.029, 1082.837 752.170, 1083.212 752.546 C 1083.588 752.921, 1085.058 752.313, 1086.481 751.194 C 1089.741 748.629, 1088.316 747.499, 1084.987 750.010 M 1096.500 755 C 1096.160 755.550, 1096.359 756, 1096.941 756 C 1097.523 756, 1098 755.550, 1098 755 C 1098 754.450, 1097.802 754, 1097.559 754 C 1097.316 754, 1096.840 754.450, 1096.500 755 M 1098.500 757 C 1098.160 757.550, 1098.359 758, 1098.941 758 C 1099.523 758, 1100 757.550, 1100 757 C 1100 756.450, 1099.802 756, 1099.559 756 C 1099.316 756, 1098.840 756.450, 1098.500 757 M 364.813 757.683 C 365.534 757.972, 366.397 757.936, 366.729 757.604 C 367.061 757.272, 366.471 757.036, 365.417 757.079 C 364.252 757.127, 364.015 757.364, 364.813 757.683 M 316.473 759.044 C 316.148 759.570, 316.809 760, 317.941 760 C 320.356 760, 320.599 759.444, 318.532 758.651 C 317.725 758.341, 316.798 758.518, 316.473 759.044 M 370.813 758.683 C 371.534 758.972, 372.397 758.936, 372.729 758.604 C 373.061 758.272, 372.471 758.036, 371.417 758.079 C 370.252 758.127, 370.015 758.364, 370.813 758.683 M 1104.105 760.085 C 1102.787 760.612, 1101.948 761.281, 1102.238 761.572 C 1102.529 761.863, 1104.282 761.440, 1106.134 760.632 C 1109.814 759.026, 1107.984 758.533, 1104.105 760.085 M 362.500 761.913 C 359.558 762.546, 359.593 762.585, 364.292 763.921 C 368.047 764.989, 369.643 765.028, 371.671 764.104 C 373.094 763.456, 374.088 762.780, 373.879 762.602 C 372.937 761.798, 365.208 761.331, 362.500 761.913 M 430 762.409 C 430 762.599, 430.675 763.315, 431.500 764 C 432.365 764.718, 433 764.815, 433 764.229 C 433 763.671, 432.325 762.955, 431.500 762.638 C 430.675 762.322, 430 762.219, 430 762.409 M 436 765 C 436 765.550, 436.477 766, 437.059 766 C 437.641 766, 437.840 765.550, 437.500 765 C 437.160 764.450, 436.684 764, 436.441 764 C 436.198 764, 436 764.450, 436 765 M 1108.029 779.961 C 1107.220 780.473, 1106.771 781.104, 1107.031 781.364 C 1107.290 781.624, 1108.376 781.198, 1109.443 780.418 C 1111.576 778.858, 1110.383 778.472, 1108.029 779.961 M 431.500 782 C 431.840 782.550, 432.541 783, 433.059 783 C 433.577 783, 434 782.550, 434 782 C 434 781.450, 433.298 781, 432.441 781 C 431.584 781, 431.160 781.450, 431.500 782 M 423.500 784 C 423.840 784.550, 424.316 785, 424.559 785 C 424.802 785, 425 784.550, 425 784 C 425 783.450, 424.523 783, 423.941 783 C 423.359 783, 423.160 783.450, 423.500 784 M 1100.500 786 C 1100.160 786.550, 1100.332 787, 1100.882 787 C 1101.432 787, 1102.160 786.550, 1102.500 786 C 1102.840 785.450, 1102.668 785, 1102.118 785 C 1101.568 785, 1100.840 785.450, 1100.500 786 M 434.566 788.898 C 433.298 789.395, 433.024 789.897, 433.770 790.358 C 435.281 791.291, 440.140 790.035, 439.434 788.893 C 438.786 787.845, 437.251 787.847, 434.566 788.898 M 435 799 C 435 799.550, 435.450 800, 436 800 C 436.550 800, 437 799.550, 437 799 C 437 798.450, 436.550 798, 436 798 C 435.450 798, 435 798.450, 435 799 M 220.500 804 C 220.160 804.550, 220.332 805, 220.882 805 C 221.432 805, 222.160 804.550, 222.500 804 C 222.840 803.450, 222.668 803, 222.118 803 C 221.568 803, 220.840 803.450, 220.500 804 M 127 811.059 C 127 811.641, 127.450 811.840, 128 811.500 C 128.550 811.160, 129 810.684, 129 810.441 C 129 810.198, 128.550 810, 128 810 C 127.450 810, 127 810.477, 127 811.059 M 77 812.059 C 77 812.641, 77.450 812.840, 78 812.500 C 78.550 812.160, 79 811.684, 79 811.441 C 79 811.198, 78.550 811, 78 811 C 77.450 811, 77 811.477, 77 812.059 M 400.500 812 C 400.840 812.550, 401.568 813, 402.118 813 C 402.668 813, 402.840 812.550, 402.500 812 C 402.160 811.450, 401.432 811, 400.882 811 C 400.332 811, 400.160 811.450, 400.500 812 M 1010 814.059 C 1010 814.641, 1010.450 814.840, 1011 814.500 C 1011.550 814.160, 1012 813.684, 1012 813.441 C 1012 813.198, 1011.550 813, 1011 813 C 1010.450 813, 1010 813.477, 1010 814.059 M 352.500 819 C 352.840 819.550, 353.568 820, 354.118 820 C 354.668 820, 354.840 819.550, 354.500 819 C 354.160 818.450, 353.432 818, 352.882 818 C 352.332 818, 352.160 818.450, 352.500 819 M 428 822.383 C 428 822.594, 428.901 823.002, 430.001 823.290 C 431.102 823.578, 431.751 823.405, 431.442 822.907 C 430.904 822.036, 428 821.594, 428 822.383 M 413.636 826.506 C 413.321 827.328, 413.472 828, 413.972 828 C 415.328 828, 416.170 826.223, 415.121 825.575 C 414.620 825.265, 413.952 825.684, 413.636 826.506 M 468 825.393 C 468 825.609, 468.698 826.054, 469.552 826.382 C 470.442 826.723, 470.843 826.555, 470.493 825.989 C 469.906 825.038, 468 824.583, 468 825.393 M 357.500 830 C 357.840 830.550, 359.104 830.968, 360.309 830.930 C 362.421 830.862, 362.428 830.829, 360.500 830 C 357.748 828.817, 356.769 828.817, 357.500 830 M 401.500 832 C 401.840 832.550, 402.568 833, 403.118 833 C 403.668 833, 403.840 832.550, 403.500 832 C 403.160 831.450, 402.432 831, 401.882 831 C 401.332 831, 401.160 831.450, 401.500 832 M 463 836.393 C 463 836.609, 463.698 837.054, 464.552 837.382 C 465.442 837.723, 465.843 837.555, 465.493 836.989 C 464.906 836.038, 463 835.583, 463 836.393 M 439.813 838.683 C 440.534 838.972, 441.397 838.936, 441.729 838.604 C 442.061 838.272, 441.471 838.036, 440.417 838.079 C 439.252 838.127, 439.015 838.364, 439.813 838.683 M 428 841.882 C 428 842.432, 428.450 843.160, 429 843.500 C 429.550 843.840, 430 843.668, 430 843.118 C 430 842.568, 429.550 841.840, 429 841.500 C 428.450 841.160, 428 841.332, 428 841.882 M 402 845.713 C 402.825 846.019, 404.175 846.771, 405 847.384 C 406.303 848.354, 406.320 848.271, 405.128 846.750 C 404.373 845.788, 403.023 845.036, 402.128 845.079 C 400.766 845.145, 400.745 845.249, 402 845.713 M 402 850 C 402 850.550, 402.702 851, 403.559 851 C 404.416 851, 404.840 850.550, 404.500 850 C 404.160 849.450, 403.459 849, 402.941 849 C 402.423 849, 402 849.450, 402 850 M 358.813 850.683 C 359.534 850.972, 360.397 850.936, 360.729 850.604 C 361.061 850.272, 360.471 850.036, 359.417 850.079 C 358.252 850.127, 358.015 850.364, 358.813 850.683 M 120.459 852.067 C 119.383 853.808, 120.608 854.177, 121.980 852.524 C 122.769 851.574, 122.845 851, 122.181 851 C 121.597 851, 120.821 851.480, 120.459 852.067 M 424.500 855 C 424.840 855.550, 425.568 856, 426.118 856 C 426.668 856, 426.840 855.550, 426.500 855 C 426.160 854.450, 425.432 854, 424.882 854 C 424.332 854, 424.160 854.450, 424.500 855 M 390.500 860 C 390.840 860.550, 391.316 861, 391.559 861 C 391.802 861, 392 860.550, 392 860 C 392 859.450, 391.523 859, 390.941 859 C 390.359 859, 390.160 859.450, 390.500 860 M 1030.507 867.989 C 1030.157 868.555, 1030.558 868.723, 1031.448 868.382 C 1033.180 867.717, 1033.497 867, 1032.059 867 C 1031.541 867, 1030.843 867.445, 1030.507 867.989 M 1091.238 870.558 C 1090.007 872.435, 1089 874.280, 1089 874.657 C 1089 875.034, 1088.255 876.165, 1087.345 877.171 C 1086.435 878.177, 1086.167 879, 1086.750 879 C 1087.788 879, 1094.448 868.114, 1093.804 867.470 C 1093.624 867.290, 1092.469 868.680, 1091.238 870.558 M 471 872.023 C 471 872.595, 471.694 873.329, 472.543 873.655 C 474.889 874.555, 475.164 873.583, 472.955 872.204 C 471.717 871.431, 471 871.365, 471 872.023 M 129.278 873.250 C 126.880 876.351, 126.911 877.287, 129.339 875.076 C 130.802 873.742, 132 872.505, 132 872.326 C 132 871.499, 130.145 872.129, 129.278 873.250 M 499.500 874 C 499.840 874.550, 500.316 875, 500.559 875 C 500.802 875, 501 874.550, 501 874 C 501 873.450, 500.523 873, 499.941 873 C 499.359 873, 499.160 873.450, 499.500 874 M 1096.655 875.829 C 1095.745 876.835, 1095 878.004, 1095 878.428 C 1095 880.025, 1087.707 890.937, 1086.952 890.470 C 1086.200 890.005, 1088.625 884.052, 1089.995 883 C 1090.832 882.357, 1092.081 879, 1091.483 879 C 1090.452 879, 1086.066 886.708, 1085.602 889.337 C 1085.326 890.897, 1084.624 892.748, 1084.042 893.450 C 1083.222 894.438, 1083.516 894.624, 1085.346 894.274 C 1086.759 894.004, 1088.674 892.220, 1090.105 889.841 C 1091.422 887.652, 1093.063 885.249, 1093.750 884.502 C 1094.438 883.754, 1095 882.767, 1095 882.307 C 1095 881.847, 1095.901 879.790, 1097.002 877.735 C 1099.223 873.592, 1099.132 873.092, 1096.655 875.829 M 172.500 877 C 172.160 877.550, 172.332 878, 172.882 878 C 173.432 878, 174.160 877.550, 174.500 877 C 174.840 876.450, 174.668 876, 174.118 876 C 173.568 876, 172.840 876.450, 172.500 877 M 521 877 C 521 877.550, 521.477 878, 522.059 878 C 522.641 878, 522.840 877.550, 522.500 877 C 522.160 876.450, 521.684 876, 521.441 876 C 521.198 876, 521 876.450, 521 877 M 151.500 881 C 151.160 881.550, 151.359 882, 151.941 882 C 152.523 882, 153 881.550, 153 881 C 153 880.450, 152.802 880, 152.559 880 C 152.316 880, 151.840 880.450, 151.500 881 M 557.500 881 C 557.840 881.550, 558.568 882, 559.118 882 C 559.668 882, 559.840 881.550, 559.500 881 C 559.160 880.450, 558.432 880, 557.882 880 C 557.332 880, 557.160 880.450, 557.500 881 M 1075.667 881.667 C 1075.300 882.033, 1075 882.798, 1075 883.367 C 1075 883.993, 1075.466 883.934, 1076.183 883.217 C 1076.834 882.566, 1077.134 881.801, 1076.850 881.517 C 1076.566 881.232, 1076.033 881.300, 1075.667 881.667 M 130.118 883.876 C 128.808 884.884, 127.908 886.169, 128.118 886.733 C 128.328 887.296, 129.766 886.462, 131.313 884.879 C 134.462 881.656, 133.765 881.072, 130.118 883.876 M 142.667 882.667 C 141.516 883.817, 141.938 885, 143.500 885 C 144.325 885, 145 885.540, 145 886.200 C 145 887.096, 145.288 887.112, 146.136 886.264 C 146.983 885.417, 146.875 884.732, 145.707 883.564 C 143.955 881.812, 143.620 881.713, 142.667 882.667 M 488.405 887.500 C 492.505 890.282, 493 890.444, 493 889 C 493 888.450, 492.380 888, 491.622 888 C 490.865 888, 489.685 887.325, 489 886.500 C 488.315 885.675, 487.072 885, 486.238 885 C 485.404 885, 486.379 886.125, 488.405 887.500 M 138.667 886.667 C 138.300 887.033, 138 887.798, 138 888.367 C 138 888.993, 138.466 888.934, 139.183 888.217 C 139.834 887.566, 140.134 886.801, 139.850 886.517 C 139.566 886.232, 139.033 886.300, 138.667 886.667 M 570.500 888 C 570.840 888.550, 571.316 889, 571.559 889 C 571.802 889, 572 888.550, 572 888 C 572 887.450, 571.523 887, 570.941 887 C 570.359 887, 570.160 887.450, 570.500 888 M 530.991 889.489 C 531.671 890.308, 532.674 890.702, 533.220 890.364 C 533.824 889.991, 533.681 889.413, 532.857 888.890 C 530.700 887.524, 529.641 887.863, 530.991 889.489 M 138.924 891.658 L 136.500 894.317 139.750 891.970 C 143.131 889.530, 143.563 889, 142.174 889 C 141.720 889, 140.258 890.196, 138.924 891.658 M 494.500 890 C 494.840 890.550, 495.316 891, 495.559 891 C 495.802 891, 496 890.550, 496 890 C 496 889.450, 495.523 889, 494.941 889 C 494.359 889, 494.160 889.450, 494.500 890 M 1092.459 892.067 C 1091.383 893.808, 1092.608 894.177, 1093.980 892.524 C 1094.769 891.574, 1094.845 891, 1094.181 891 C 1093.597 891, 1092.821 891.480, 1092.459 892.067 M 1094.947 894.639 C 1093.544 898.331, 1094.273 898.502, 1096.359 894.969 C 1097.371 893.256, 1097.656 892, 1097.032 892 C 1096.437 892, 1095.499 893.187, 1094.947 894.639 M 585.500 896 C 585.840 896.550, 586.568 897, 587.118 897 C 587.668 897, 587.840 896.550, 587.500 896 C 587.160 895.450, 586.432 895, 585.882 895 C 585.332 895, 585.160 895.450, 585.500 896 M 131.122 896.904 C 130.364 897.384, 130.024 898.230, 130.366 898.783 C 130.708 899.337, 130.316 900.048, 129.494 900.364 C 128.570 900.718, 128 900.354, 128 899.410 C 128 898.569, 127.550 898.160, 127 898.500 C 126.450 898.840, 126 900.179, 126 901.476 C 126 902.772, 125.438 904.034, 124.750 904.280 C 124.063 904.525, 123.735 904.985, 124.022 905.302 C 124.664 906.010, 135 898.067, 135 896.865 C 135 895.756, 132.900 895.777, 131.122 896.904 M 1102.363 898.723 C 1101.209 900.284, 1099.314 903.348, 1098.152 905.531 C 1095.514 910.486, 1091.012 915.942, 1091.005 914.191 C 1091.002 913.471, 1090.550 913.160, 1090 913.500 C 1088.838 914.218, 1088.645 916.056, 1089.750 915.882 C 1092.162 915.501, 1093.910 916.217, 1094.311 917.750 C 1094.641 919.013, 1094.800 918.846, 1094.884 917.151 C 1095.003 914.740, 1101.071 902.835, 1103.723 899.808 C 1104.538 898.877, 1105.038 897.614, 1104.833 897 C 1104.629 896.387, 1103.517 897.162, 1102.363 898.723 M 365.500 899.508 C 369.196 901.235, 371.291 901.372, 370.784 899.852 C 370.573 899.220, 368.623 898.569, 366.451 898.405 L 362.500 898.106 365.500 899.508 M 1078 900.500 C 1078 901.417, 1078.484 902.005, 1079.075 901.808 C 1079.666 901.611, 1080.150 901.023, 1080.150 900.500 C 1080.150 899.977, 1079.666 899.389, 1079.075 899.192 C 1078.484 898.995, 1078 899.583, 1078 900.500 M 1128.278 900.250 C 1125.880 903.351, 1125.911 904.287, 1128.339 902.076 C 1129.802 900.742, 1131 899.505, 1131 899.326 C 1131 898.499, 1129.145 899.129, 1128.278 900.250 M 596.861 902.033 C 598.159 903.115, 599.734 903.985, 600.361 903.967 C 600.987 903.948, 600.438 903.048, 599.139 901.967 C 597.841 900.885, 596.266 900.015, 595.639 900.033 C 595.013 900.052, 595.562 900.952, 596.861 902.033 M 520 903 C 520 903.550, 520.450 904, 521 904 C 521.550 904, 522 903.550, 522 903 C 522 902.450, 521.550 902, 521 902 C 520.450 902, 520 902.450, 520 903 M 1078.500 905 C 1077.505 906.100, 1077.194 907, 1077.810 907 C 1078.426 907, 1079.411 906.100, 1080 905 C 1080.589 903.900, 1080.899 903, 1080.690 903 C 1080.481 903, 1079.495 903.900, 1078.500 905 M 527 906.500 C 527 907.325, 527.436 908, 527.969 908 C 528.501 908, 528.678 907.325, 528.362 906.500 C 528.045 905.675, 527.609 905, 527.393 905 C 527.177 905, 527 905.675, 527 906.500 M 1118.876 910.118 C 1115.297 913.486, 1115.047 913.926, 1117.500 912.533 C 1120.087 911.065, 1124.873 906, 1123.673 906 C 1123.442 906, 1121.283 907.853, 1118.876 910.118 M 610.500 909 C 610.840 909.550, 611.316 910, 611.559 910 C 611.802 910, 612 909.550, 612 909 C 612 908.450, 611.523 908, 610.941 908 C 610.359 908, 610.160 908.450, 610.500 909 M 1073 909.500 C 1072.306 910.337, 1072.197 911, 1072.755 911 C 1073.305 911, 1074.315 910.325, 1075 909.500 C 1075.694 908.663, 1075.803 908, 1075.245 908 C 1074.695 908, 1073.685 908.675, 1073 909.500 M 142 913.059 C 142 913.641, 142.450 913.840, 143 913.500 C 143.550 913.160, 144 912.684, 144 912.441 C 144 912.198, 143.550 912, 143 912 C 142.450 912, 142 912.477, 142 913.059 M 1103 916.186 C 1097.471 920.640, 1090.005 928, 1091.016 928 C 1091.608 928, 1093.984 926.217, 1096.296 924.038 C 1098.608 921.859, 1101.788 918.909, 1103.361 917.482 C 1106.808 914.359, 1106.526 913.346, 1103 916.186 M 581 916 C 581.825 916.533, 582.950 916.969, 583.500 916.969 C 584.050 916.969, 583.825 916.533, 583 916 C 582.175 915.467, 581.050 915.031, 580.500 915.031 C 579.950 915.031, 580.175 915.467, 581 916 M 1112.507 915.989 C 1112.157 916.555, 1112.558 916.723, 1113.448 916.382 C 1115.180 915.717, 1115.497 915, 1114.059 915 C 1113.541 915, 1112.843 915.445, 1112.507 915.989 M 1062.980 917.524 C 1061.048 919.853, 1062.426 920.291, 1064.494 918.006 C 1065.493 916.903, 1065.845 916, 1065.277 916 C 1064.710 916, 1063.676 916.686, 1062.980 917.524 M 523 921 C 523.825 921.533, 524.950 921.969, 525.500 921.969 C 526.050 921.969, 525.825 921.533, 525 921 C 524.175 920.467, 523.050 920.031, 522.500 920.031 C 521.950 920.031, 522.175 920.467, 523 921 M 637.733 923.124 C 638.412 923.808, 639.219 924.115, 639.526 923.807 C 639.834 923.499, 639.279 922.940, 638.293 922.564 C 636.868 922.022, 636.753 922.136, 637.733 923.124 M 1103 924.500 C 1102.315 925.325, 1100.685 926, 1099.378 926 C 1096.907 926, 1096.505 926.674, 1097.781 928.681 C 1098.583 929.941, 1101.291 928.205, 1103.916 924.750 C 1105.536 922.617, 1104.742 922.401, 1103 924.500 M 1135.667 923.667 C 1135.300 924.033, 1135 924.798, 1135 925.367 C 1135 925.993, 1135.466 925.934, 1136.183 925.217 C 1136.834 924.566, 1137.134 923.801, 1136.850 923.517 C 1136.566 923.232, 1136.033 923.300, 1135.667 923.667 M 574.079 925.583 C 574.127 926.748, 574.364 926.985, 574.683 926.188 C 574.972 925.466, 574.936 924.603, 574.604 924.271 C 574.272 923.939, 574.036 924.529, 574.079 925.583 M 1044.543 926.931 C 1044.226 927.443, 1044.350 928.098, 1044.817 928.387 C 1045.284 928.676, 1045.667 928.257, 1045.667 927.456 C 1045.667 925.770, 1045.351 925.623, 1044.543 926.931 M 615.500 929 C 615.840 929.550, 616.316 930, 616.559 930 C 616.802 930, 617 929.550, 617 929 C 617 928.450, 616.523 928, 615.941 928 C 615.359 928, 615.160 928.450, 615.500 929 M 1056 929.059 C 1056 929.641, 1056.450 929.840, 1057 929.500 C 1057.550 929.160, 1058 928.684, 1058 928.441 C 1058 928.198, 1057.550 928, 1057 928 C 1056.450 928, 1056 928.477, 1056 929.059 M 653.441 930.532 C 654.509 931.339, 656.084 931.986, 656.941 931.968 C 658.187 931.943, 658.111 931.642, 656.559 930.468 C 655.491 929.661, 653.916 929.014, 653.059 929.032 C 651.813 929.057, 651.889 929.358, 653.441 930.532 M 1093.500 930 C 1093.160 930.550, 1093.359 931, 1093.941 931 C 1094.523 931, 1095 930.550, 1095 930 C 1095 929.450, 1094.802 929, 1094.559 929 C 1094.316 929, 1093.840 929.450, 1093.500 930 M 1041 931.500 C 1040.293 932.352, 1039.940 933.273, 1040.215 933.548 C 1040.490 933.823, 1041.293 933.352, 1042 932.500 C 1042.707 931.648, 1043.060 930.727, 1042.785 930.452 C 1042.510 930.177, 1041.707 930.648, 1041 931.500 M 628.500 933 C 628.840 933.550, 629.568 934, 630.118 934 C 630.668 934, 630.840 933.550, 630.500 933 C 630.160 932.450, 629.432 932, 628.882 932 C 628.332 932, 628.160 932.450, 628.500 933 M 716 933.393 C 716 933.609, 716.698 934.054, 717.552 934.382 C 718.442 934.723, 718.843 934.555, 718.493 933.989 C 717.906 933.038, 716 932.583, 716 933.393 M 1096 934.500 C 1095.293 935.352, 1094.940 936.273, 1095.215 936.548 C 1095.490 936.823, 1096.293 936.352, 1097 935.500 C 1097.707 934.648, 1098.060 933.727, 1097.785 933.452 C 1097.510 933.177, 1096.707 933.648, 1096 934.500 M 116.459 935.067 C 115.383 936.808, 116.608 937.177, 117.980 935.524 C 118.769 934.574, 118.845 934, 118.181 934 C 117.597 934, 116.821 934.480, 116.459 935.067 M 1090.559 935.532 C 1089.491 936.339, 1089.099 937, 1089.686 937 C 1090.274 937, 1091.315 936.325, 1092 935.500 C 1093.557 933.624, 1093.067 933.634, 1090.559 935.532 M 621 936 C 621 936.550, 621.477 937, 622.059 937 C 622.641 937, 622.840 936.550, 622.500 936 C 622.160 935.450, 621.684 935, 621.441 935 C 621.198 935, 621 935.450, 621 936 M 1033.872 937.750 C 1032.603 939.369, 1032.650 939.390, 1034.500 938.033 C 1035.600 937.226, 1036.688 936.439, 1036.917 936.283 C 1037.146 936.127, 1036.863 936, 1036.289 936 C 1035.715 936, 1034.627 936.788, 1033.872 937.750 M 1078.629 937.523 C 1078.153 938.766, 1078.409 938.851, 1080.023 937.988 C 1082.341 936.747, 1082.560 936, 1080.607 936 C 1079.841 936, 1078.951 936.685, 1078.629 937.523 M 1082.417 939.494 C 1080.053 941.602, 1079.293 942.717, 1080.500 942.306 C 1082.337 941.681, 1082.378 941.777, 1081 943.483 C 1080.002 944.719, 1080.922 944.402, 1083.750 942.537 C 1088.151 939.635, 1089.090 938.644, 1086.500 939.638 C 1084.702 940.328, 1084.523 938.877, 1086.200 937.200 C 1088.858 934.542, 1086.079 936.227, 1082.417 939.494 M 1092.029 937.961 C 1091.220 938.473, 1090.818 939.152, 1091.136 939.470 C 1091.455 939.788, 1092.284 939.362, 1092.980 938.524 C 1094.423 936.786, 1094.146 936.622, 1092.029 937.961 M 1043 939.059 C 1043 939.641, 1043.450 939.840, 1044 939.500 C 1044.550 939.160, 1045 938.684, 1045 938.441 C 1045 938.198, 1044.550 938, 1044 938 C 1043.450 938, 1043 938.477, 1043 939.059 M 713.500 940 C 713.840 940.550, 714.568 941, 715.118 941 C 715.668 941, 715.840 940.550, 715.500 940 C 715.160 939.450, 714.432 939, 713.882 939 C 713.332 939, 713.160 939.450, 713.500 940 M 677.500 940.775 C 678.050 941.325, 679.625 942.101, 681 942.500 C 682.667 942.983, 683.167 942.891, 682.500 942.225 C 681.950 941.675, 680.375 940.899, 679 940.500 C 677.333 940.017, 676.833 940.109, 677.500 940.775 M 1083 941 C 1082.099 941.582, 1081.975 941.975, 1082.691 941.985 C 1083.346 941.993, 1084.160 941.550, 1084.500 941 C 1085.267 939.758, 1084.921 939.758, 1083 941 M 1098.500 941 C 1098.160 941.550, 1098.332 942, 1098.882 942 C 1099.432 942, 1100.160 941.550, 1100.500 941 C 1100.840 940.450, 1100.668 940, 1100.118 940 C 1099.568 940, 1098.840 940.450, 1098.500 941 M 593.500 942 C 593.840 942.550, 594.316 943, 594.559 943 C 594.802 943, 595 942.550, 595 942 C 595 941.450, 594.523 941, 593.941 941 C 593.359 941, 593.160 941.450, 593.500 942 M 1104.500 943 C 1104.160 943.550, 1104.359 944, 1104.941 944 C 1105.523 944, 1106 943.550, 1106 943 C 1106 942.450, 1105.802 942, 1105.559 942 C 1105.316 942, 1104.840 942.450, 1104.500 943 M 608 944.393 C 608 944.609, 608.698 945.054, 609.552 945.382 C 610.442 945.723, 610.843 945.555, 610.493 944.989 C 609.906 944.038, 608 943.583, 608 944.393 M 1083.441 945.468 C 1082.374 946.276, 1082.007 946.951, 1082.628 946.968 C 1083.248 946.986, 1084.315 946.325, 1085 945.500 C 1086.581 943.595, 1085.935 943.582, 1083.441 945.468 M 1020 946.500 C 1018.404 948.423, 1020.032 948.443, 1022.559 946.532 C 1024.190 945.298, 1024.240 945.059, 1022.872 945.032 C 1021.977 945.014, 1020.685 945.675, 1020 946.500 M 1098.038 948.098 C 1096.134 949.694, 1095.009 950.998, 1095.538 950.995 C 1096.886 950.988, 1102.609 946.287, 1102 945.687 C 1101.725 945.417, 1099.942 946.501, 1098.038 948.098 M 997.028 948.549 C 992.460 951.774, 994.032 951.730, 998.785 948.500 C 1000.809 947.125, 1002.022 946.022, 1001.482 946.049 C 1000.942 946.076, 998.938 947.201, 997.028 948.549 M 1069 949.592 C 1063.850 953.680, 1060.891 957.692, 1065.604 954.196 C 1070.971 950.214, 1075.507 946.054, 1074.500 946.037 C 1073.950 946.027, 1071.475 947.627, 1069 949.592 M 1077 947 C 1076.099 947.582, 1075.975 947.975, 1076.691 947.985 C 1077.346 947.993, 1078.160 947.550, 1078.500 947 C 1079.267 945.758, 1078.921 945.758, 1077 947 M 615.559 948.468 C 616.626 949.276, 617.950 949.936, 618.500 949.936 C 619.050 949.936, 618.626 949.276, 617.559 948.468 C 616.491 947.661, 615.168 947, 614.618 947 C 614.068 947, 614.491 947.661, 615.559 948.468 M 734 948 C 734 948.550, 735.152 949, 736.559 949 C 738.010 949, 738.851 948.567, 738.500 948 C 738.160 947.450, 737.009 947, 735.941 947 C 734.873 947, 734 947.450, 734 948 M 992.872 948.750 C 991.629 950.336, 991.664 950.371, 993.250 949.128 C 994.916 947.821, 995.445 947, 994.622 947 C 994.415 947, 993.627 947.788, 992.872 948.750 M 1074.543 950.931 C 1073.541 952.552, 1075.718 953.045, 1077.009 951.489 C 1078.014 950.278, 1077.953 950, 1076.681 950 C 1075.822 950, 1074.859 950.419, 1074.543 950.931 M 613.658 952.551 C 613.964 953.348, 614.616 954, 615.107 954 C 616.545 954, 616.133 952.265, 614.551 951.658 C 613.582 951.286, 613.286 951.582, 613.658 952.551 M 709.750 952.662 C 710.438 952.940, 711.563 952.940, 712.250 952.662 C 712.938 952.385, 712.375 952.158, 711 952.158 C 709.625 952.158, 709.063 952.385, 709.750 952.662 M 618 953.703 C 618 954.857, 620.838 957.523, 621.395 956.893 C 621.586 956.677, 620.900 955.634, 619.871 954.575 C 618.842 953.516, 618 953.124, 618 953.703 M 1006 954.059 C 1006 954.641, 1006.450 954.840, 1007 954.500 C 1007.550 954.160, 1008 953.684, 1008 953.441 C 1008 953.198, 1007.550 953, 1007 953 C 1006.450 953, 1006 953.477, 1006 954.059 M 1069.892 954.942 C 1068.576 956.037, 1067.950 956.934, 1068.500 956.935 C 1069.933 956.937, 1073.456 954.123, 1072.819 953.485 C 1072.524 953.191, 1071.207 953.846, 1069.892 954.942 M 718 954.954 C 718 955.426, 720.025 956.502, 722.500 957.345 C 724.975 958.189, 727 958.553, 727 958.155 C 727 957.757, 724.975 956.681, 722.500 955.764 C 720.025 954.846, 718 954.482, 718 954.954 M 1001 956.386 C 1001 957.148, 999.388 958.537, 997.419 959.472 C 995.449 960.406, 994.061 961.394, 994.333 961.666 C 994.606 961.939, 995.880 961.608, 997.164 960.932 C 1000.936 958.945, 1003.982 956.315, 1003.299 955.633 C 1002.210 954.544, 1001 954.940, 1001 956.386 M 624.500 958 C 624.840 958.550, 625.316 959, 625.559 959 C 625.802 959, 626 958.550, 626 958 C 626 957.450, 625.523 957, 624.941 957 C 624.359 957, 624.160 957.450, 624.500 958 M 707.500 958 C 707.840 958.550, 708.793 959, 709.618 959 C 710.443 959, 710.840 958.550, 710.500 958 C 710.160 957.450, 709.207 957, 708.382 957 C 707.557 957, 707.160 957.450, 707.500 958 M 1083.570 959.477 C 1079.854 961.760, 1076.962 965.026, 1078.700 964.978 C 1079.140 964.966, 1080.580 964.125, 1081.900 963.111 C 1083.220 962.096, 1085.087 961.471, 1086.050 961.723 C 1087.407 962.078, 1087.766 961.601, 1087.650 959.591 C 1087.567 958.167, 1087.500 957.015, 1087.500 957.032 C 1087.500 957.049, 1085.732 958.149, 1083.570 959.477 M 1056.443 959.418 C 1055.376 960.198, 1054.768 961.101, 1055.091 961.424 C 1055.414 961.748, 1056.496 961.110, 1057.494 960.006 C 1059.619 957.659, 1059.183 957.415, 1056.443 959.418 M 732.750 960.662 C 733.438 960.940, 734.563 960.940, 735.250 960.662 C 735.938 960.385, 735.375 960.158, 734 960.158 C 732.625 960.158, 732.063 960.385, 732.750 960.662 M 687.500 962 C 687.840 962.550, 688.793 963, 689.618 963 C 690.443 963, 690.840 962.550, 690.500 962 C 690.160 961.450, 689.207 961, 688.382 961 C 687.557 961, 687.160 961.450, 687.500 962 M 679 962.393 C 679 962.609, 679.698 963.054, 680.552 963.382 C 681.442 963.723, 681.843 963.555, 681.493 962.989 C 680.906 962.038, 679 961.583, 679 962.393 M 742.846 963.551 C 745.237 964.425, 747.450 964.884, 747.763 964.570 C 748.686 963.648, 747.764 963.266, 743 962.595 L 738.500 961.962 742.846 963.551 M 638.638 964.500 C 638.955 965.325, 639.841 966, 640.607 966 C 642.502 966, 642.372 964.357, 640.418 963.607 C 638.160 962.740, 637.995 962.823, 638.638 964.500 M 988.500 965 C 987.505 966.100, 987.097 966.986, 987.595 966.968 C 988.758 966.927, 992 964.477, 992 963.640 C 992 962.370, 990.273 963.041, 988.500 965 M 736 965.348 C 736 966.185, 737.233 966.728, 739.250 966.780 C 742.302 966.859, 742.381 966.777, 740.559 965.432 C 738.115 963.629, 736 963.590, 736 965.348 M 753.229 965.187 C 753.727 966.682, 756 967.505, 756 966.190 C 756 965.653, 755.287 964.941, 754.416 964.606 C 753.443 964.233, 752.985 964.456, 753.229 965.187 M 687 966 C 688.970 967.273, 691.287 967.273, 690.500 966 C 690.160 965.450, 688.896 965.007, 687.691 965.015 C 685.910 965.028, 685.781 965.212, 687 966 M 1074.441 966.555 C 1072.577 968.049, 1072.589 968.067, 1074.750 967.020 C 1075.987 966.420, 1077 965.720, 1077 965.465 C 1077 964.700, 1076.481 964.921, 1074.441 966.555 M 647.262 968.690 C 648.192 969.620, 649.288 970.046, 649.697 969.636 C 650.107 969.226, 649.780 968.473, 648.971 967.961 C 646.536 966.421, 645.455 966.883, 647.262 968.690 M 757.813 967.683 C 758.534 967.972, 759.397 967.936, 759.729 967.604 C 760.061 967.272, 759.471 967.036, 758.417 967.079 C 757.252 967.127, 757.015 967.364, 757.813 967.683 M 1086 968.059 C 1086 968.641, 1086.450 968.840, 1087 968.500 C 1087.550 968.160, 1088 967.684, 1088 967.441 C 1088 967.198, 1087.550 967, 1087 967 C 1086.450 967, 1086 967.477, 1086 968.059 M 778 969 C 778 969.550, 778.702 970, 779.559 970 C 780.416 970, 780.840 969.550, 780.500 969 C 780.160 968.450, 779.459 968, 778.941 968 C 778.423 968, 778 968.450, 778 969 M 823 968.393 C 823 968.609, 823.698 969.054, 824.552 969.382 C 825.442 969.723, 825.843 969.555, 825.493 968.989 C 824.906 968.038, 823 967.583, 823 968.393 M 852 970.031 C 852 970.564, 852.675 971, 853.500 971 C 854.325 971, 855 970.823, 855 970.607 C 855 970.391, 854.325 969.955, 853.500 969.638 C 852.675 969.322, 852 969.499, 852 970.031 M 1069.872 970.750 C 1068.629 972.336, 1068.664 972.371, 1070.250 971.128 C 1071.213 970.373, 1072 969.585, 1072 969.378 C 1072 968.555, 1071.179 969.084, 1069.872 970.750 M 773.500 971 C 773.840 971.550, 774.316 972, 774.559 972 C 774.802 972, 775 971.550, 775 971 C 775 970.450, 774.523 970, 773.941 970 C 773.359 970, 773.160 970.450, 773.500 971 M 687 973.897 C 690.910 976.153, 692 976.417, 692 975.108 C 692 974.618, 690.917 973.945, 689.593 973.613 C 688.269 973.280, 686.356 972.754, 685.343 972.443 C 684.329 972.132, 685.075 972.786, 687 973.897 M 780 973 C 781.375 973.440, 783.400 973.839, 784.500 973.885 C 786.148 973.955, 786.236 973.799, 785 973 C 784.175 972.467, 782.150 972.069, 780.500 972.115 C 777.560 972.198, 777.550 972.215, 780 973 M 900.442 973.094 C 900.134 973.592, 901.034 974, 902.441 974 C 905.505 974, 905.753 973.430, 903.001 972.711 C 901.902 972.423, 900.750 972.596, 900.442 973.094 M 678 973.630 C 678 973.861, 679.237 974.538, 680.750 975.135 C 683.299 976.141, 683.354 976.276, 681.500 976.976 C 679.755 977.636, 680.009 977.954, 683.500 979.478 C 690.319 982.453, 685.289 982.434, 677.892 979.456 C 671.069 976.710, 667.838 976.697, 671.573 979.431 C 672.633 980.207, 675.210 981.407, 677.300 982.098 C 679.390 982.788, 681.326 983.719, 681.602 984.165 C 681.878 984.612, 681.293 984.673, 680.302 984.301 C 678.763 983.724, 678.687 983.856, 679.783 985.205 C 681.325 987.103, 685 988.225, 685 986.797 C 685 985.826, 687.513 986.011, 694.500 987.494 C 697.351 988.100, 697.404 988.054, 695.559 986.566 C 694.491 985.705, 692.830 985, 691.868 985 C 690.222 985, 688.371 983.296, 689.161 982.506 C 689.359 982.308, 691.979 982.977, 694.983 983.994 C 701.637 986.247, 704.062 985.377, 697.908 982.945 C 695.091 981.832, 693.598 980.662, 693.771 979.703 C 693.949 978.713, 692.418 977.625, 689.271 976.506 C 683.526 974.464, 678 973.053, 678 973.630 M 911.500 974 C 911.840 974.550, 912.541 975, 913.059 975 C 913.577 975, 914 974.550, 914 974 C 914 973.450, 913.298 973, 912.441 973 C 911.584 973, 911.160 973.450, 911.500 974 M 1063 974.785 C 1061.625 975.709, 1060.140 977.035, 1059.700 977.732 C 1059.260 978.430, 1058.461 979, 1057.924 979 C 1056.541 979, 1047 986.247, 1047 987.297 C 1047 987.776, 1048.688 986.878, 1050.750 985.300 C 1052.813 983.723, 1056.525 981.098, 1059 979.466 C 1061.475 977.835, 1063.650 976.163, 1063.833 975.750 C 1064.017 975.337, 1064.804 975, 1065.583 975 C 1066.362 975, 1067 974.550, 1067 974 C 1067 972.612, 1065.918 972.824, 1063 974.785 M 664 974.800 C 664 975.240, 664.540 976.140, 665.200 976.800 C 666.800 978.400, 668 978.318, 668 976.607 C 668 975.841, 667.288 974.941, 666.418 974.607 C 664.348 973.813, 664 973.840, 664 974.800 M 1006.667 974.667 C 1006.300 975.033, 1006 975.798, 1006 976.367 C 1006 976.993, 1006.466 976.934, 1007.183 976.217 C 1007.834 975.566, 1008.134 974.801, 1007.850 974.517 C 1007.566 974.232, 1007.033 974.300, 1006.667 974.667 M 1001.573 978.521 C 1000.513 979.323, 999.879 980.212, 1000.163 980.496 C 1000.447 980.780, 1001.720 980.110, 1002.993 979.006 C 1005.638 976.712, 1004.485 976.319, 1001.573 978.521 M 1077.427 979.479 C 1075.735 980.759, 1075.706 980.940, 1077.191 980.968 C 1078.121 980.986, 1079.179 980.520, 1079.541 979.933 C 1080.630 978.171, 1079.482 977.924, 1077.427 979.479 M 696.500 980 C 696.840 980.550, 697.316 981, 697.559 981 C 697.802 981, 698 980.550, 698 980 C 698 979.450, 697.523 979, 696.941 979 C 696.359 979, 696.160 979.450, 696.500 980 M 739.500 980 C 739.840 980.550, 740.541 981, 741.059 981 C 741.577 981, 742 980.550, 742 980 C 742 979.450, 741.298 979, 740.441 979 C 739.584 979, 739.160 979.450, 739.500 980 M 815 980 C 816.957 981.264, 819 981.264, 819 980 C 819 979.450, 817.763 979.007, 816.250 979.015 C 814.107 979.027, 813.831 979.245, 815 980 M 821.800 981.200 C 822.733 982.133, 823.267 982.133, 824.200 981.200 C 825.133 980.267, 824.867 980, 823 980 C 821.133 980, 820.867 980.267, 821.800 981.200 M 847 984 C 847 985.264, 849.043 985.264, 851 984 C 852.169 983.245, 851.893 983.027, 849.750 983.015 C 848.237 983.007, 847 983.450, 847 984 M 857.250 984.689 C 858.212 984.941, 859 985.590, 859 986.132 C 859 986.674, 859.450 986.840, 860 986.500 C 861.931 985.307, 860.972 984.001, 858.250 984.116 C 856.558 984.187, 856.173 984.408, 857.250 984.689 M 761 986 C 761.825 986.533, 763.175 986.969, 764 986.969 C 765.333 986.969, 765.333 986.862, 764 986 C 763.175 985.467, 761.825 985.031, 761 985.031 C 759.667 985.031, 759.667 985.138, 761 986 M 872 986 C 872 986.550, 872.702 987, 873.559 987 C 874.416 987, 874.840 986.550, 874.500 986 C 874.160 985.450, 873.459 985, 872.941 985 C 872.423 985, 872 985.450, 872 986 M 917.704 986.104 C 918.495 986.895, 919.330 986.903, 920.654 986.134 C 922.272 985.193, 922.136 985.057, 919.550 985.030 C 917.399 985.008, 916.899 985.299, 917.704 986.104 M 672 986.765 C 672 987.549, 680.871 991, 682.884 991 C 685.269 991, 683.830 988.827, 680.532 987.449 C 676.815 985.896, 672 985.510, 672 986.765 M 987.741 988.374 C 982.348 991.690, 981.803 992.597, 986.682 990.137 C 988.982 988.977, 991.146 987.572, 991.491 987.014 C 992.354 985.618, 992.035 985.733, 987.741 988.374 M 1067 987 C 1066.099 987.582, 1065.975 987.975, 1066.691 987.985 C 1067.346 987.993, 1068.160 987.550, 1068.500 987 C 1069.267 985.758, 1068.921 985.758, 1067 987 M 698.725 987.608 C 698.356 987.977, 698.294 988.666, 698.586 989.139 C 699.329 990.341, 704 990.221, 704 989 C 704 988.450, 703.587 988, 703.082 988 C 702.577 988, 701.541 987.761, 700.780 987.469 C 700.018 987.177, 699.094 987.240, 698.725 987.608 M 728 988 C 728.825 988.533, 729.950 988.969, 730.500 988.969 C 731.050 988.969, 730.825 988.533, 730 988 C 729.175 987.467, 728.050 987.031, 727.500 987.031 C 726.950 987.031, 727.175 987.467, 728 988 M 773.813 988.683 C 774.534 988.972, 775.397 988.936, 775.729 988.604 C 776.061 988.272, 775.471 988.036, 774.417 988.079 C 773.252 988.127, 773.015 988.364, 773.813 988.683 M 1005.500 989 C 1005.160 989.550, 1005.332 990, 1005.882 990 C 1006.432 990, 1007.160 989.550, 1007.500 989 C 1007.840 988.450, 1007.668 988, 1007.118 988 C 1006.568 988, 1005.840 988.450, 1005.500 989 M 732.750 989.662 C 733.438 989.940, 734 990.855, 734 991.697 C 734 992.952, 733.146 993.104, 729.250 992.542 C 726.638 992.165, 723.375 991.606, 722 991.299 C 717.373 990.268, 721.321 992.573, 727.250 994.365 C 730.413 995.320, 733 996.529, 733 997.051 C 733 998.402, 728.272 998.226, 725.684 996.778 C 723.725 995.681, 715.653 993.156, 713.750 993.044 C 713.337 993.020, 713.004 993.337, 713.008 993.750 C 713.017 994.588, 717.808 997, 719.464 997 C 720.050 997, 722.257 997.926, 724.369 999.058 C 726.481 1000.190, 729.224 1000.983, 730.465 1000.820 C 731.706 1000.657, 733.474 1001.149, 734.394 1001.912 C 736.697 1003.823, 745.511 1004.600, 746.512 1002.980 C 747.088 1002.049, 746.462 1001.852, 744.048 1002.206 C 741.390 1002.596, 740.624 1002.269, 739.760 1000.372 C 739.181 999.102, 738.323 998.300, 737.854 998.590 C 737.384 998.881, 737 998.641, 737 998.059 C 737 996.720, 738.682 996.677, 739.497 997.995 C 739.835 998.542, 741.628 998.880, 743.482 998.745 C 746.592 998.519, 746.733 998.368, 745.307 996.790 C 744.457 995.849, 743.478 995.115, 743.131 995.158 C 739.833 995.570, 737.860 994.630, 736.500 992 C 735.642 990.340, 734.178 989.035, 733.224 989.079 C 732.181 989.127, 731.993 989.357, 732.750 989.662 M 737.636 991.494 C 737.952 992.316, 738.612 992.740, 739.105 992.435 C 740.517 991.563, 740.149 990, 738.531 990 C 737.639 990, 737.288 990.587, 737.636 991.494 M 1038 991 C 1038 991.550, 1038.423 992, 1038.941 992 C 1039.459 992, 1040.160 991.550, 1040.500 991 C 1040.840 990.450, 1040.416 990, 1039.559 990 C 1038.702 990, 1038 990.450, 1038 991 M 1052.427 991.479 C 1050.735 992.759, 1050.706 992.940, 1052.191 992.968 C 1053.121 992.986, 1054.179 992.520, 1054.541 991.933 C 1055.630 990.171, 1054.482 989.924, 1052.427 991.479 M 970.250 995.706 C 969.013 995.944, 968 996.558, 968 997.070 C 968 998.283, 968.170 998.261, 972.135 996.539 C 975.420 995.113, 974.786 994.832, 970.250 995.706 M 1053.500 996 C 1053.160 996.550, 1053.332 997, 1053.882 997 C 1054.432 997, 1055.160 996.550, 1055.500 996 C 1055.840 995.450, 1055.668 995, 1055.118 995 C 1054.568 995, 1053.840 995.450, 1053.500 996 M 813.269 996.693 C 814.242 996.947, 815.592 996.930, 816.269 996.656 C 816.946 996.382, 816.150 996.175, 814.500 996.195 C 812.850 996.215, 812.296 996.439, 813.269 996.693 M 961 998.500 C 960.246 999.408, 960.166 1000, 960.796 1000 C 962.633 1000, 965 998.814, 965 997.893 C 965 996.462, 962.359 996.863, 961 998.500 M 684 999 C 684 999.550, 684.115 1000, 684.257 1000 C 684.398 1000, 685.973 1000.419, 687.757 1000.930 C 691.682 1002.056, 692.025 1000.983, 688.293 999.250 C 685.039 997.739, 684 997.678, 684 999 M 954.500 1000 C 954.160 1000.550, 952.585 1001, 951 1001 C 949.415 1001, 947.840 1001.450, 947.500 1002 C 947.160 1002.551, 947.868 1003, 949.075 1003 C 952.208 1003, 959 1000.839, 959 999.842 C 959 998.657, 955.248 998.789, 954.500 1000 M 996 1002 C 995.099 1002.582, 994.975 1002.975, 995.691 1002.985 C 996.346 1002.993, 997.160 1002.550, 997.500 1002 C 998.267 1000.758, 997.921 1000.758, 996 1002 M 1034.872 1002.664 C 1033.617 1004.186, 1033.713 1004.217, 1036 1003.028 C 1039.352 1001.286, 1039.605 1001, 1037.789 1001 C 1036.940 1001, 1035.627 1001.749, 1034.872 1002.664 M 673.500 1003 C 673.840 1003.550, 674.568 1004, 675.118 1004 C 675.668 1004, 675.840 1003.550, 675.500 1003 C 675.160 1002.450, 674.432 1002, 673.882 1002 C 673.332 1002, 673.160 1002.450, 673.500 1003 M 939 1003.987 C 936.871 1005.220, 933.632 1006.346, 932.750 1006.159 C 932.337 1006.071, 932 1006.480, 932 1007.067 C 932 1007.686, 932.946 1007.882, 934.250 1007.532 C 941.300 1005.645, 943.876 1004.609, 943.408 1003.851 C 942.754 1002.792, 940.967 1002.847, 939 1003.987 M 987.670 1005.666 C 985.014 1007.045, 983.072 1008.406, 983.356 1008.689 C 983.937 1009.270, 992.880 1005.003, 993.632 1003.786 C 994.431 1002.494, 992.773 1003.017, 987.670 1005.666 M 754.020 1005.524 C 754.716 1006.362, 755.491 1006.842, 755.743 1006.591 C 756.436 1005.897, 755.027 1004, 753.819 1004 C 753.155 1004, 753.231 1004.574, 754.020 1005.524 M 1027.500 1006 C 1027.160 1006.550, 1027.332 1007, 1027.882 1007 C 1028.432 1007, 1029.160 1006.550, 1029.500 1006 C 1029.840 1005.450, 1029.668 1005, 1029.118 1005 C 1028.568 1005, 1027.840 1005.450, 1027.500 1006 M 764 1008 C 764 1008.550, 764.477 1009, 765.059 1009 C 765.641 1009, 765.840 1008.550, 765.500 1008 C 765.160 1007.450, 764.684 1007, 764.441 1007 C 764.198 1007, 764 1007.450, 764 1008 M 926.441 1008.468 C 925.374 1009.276, 925.026 1009.951, 925.668 1009.968 C 927.568 1010.020, 930 1008.855, 930 1007.893 C 930 1006.582, 928.645 1006.801, 926.441 1008.468 M 1024 1008 C 1024 1008.550, 1024.450 1009, 1025 1009 C 1025.550 1009, 1026 1008.550, 1026 1008 C 1026 1007.450, 1025.550 1007, 1025 1007 C 1024.450 1007, 1024 1007.450, 1024 1008 M 811.559 1008.905 C 811.251 1009.402, 809.087 1009.647, 806.750 1009.448 L 802.500 1009.087 806.125 1010.189 C 808.989 1011.060, 809.750 1011.799, 809.750 1013.712 C 809.750 1015.791, 809.310 1016.108, 806.625 1015.965 C 801.059 1015.667, 799.529 1015.929, 800.597 1016.997 C 801.145 1017.545, 803.822 1018.243, 806.547 1018.548 C 809.271 1018.853, 813.033 1019.513, 814.906 1020.014 C 816.780 1020.515, 818.666 1020.707, 819.098 1020.440 C 819.530 1020.172, 822.399 1020.348, 825.473 1020.831 C 831.352 1021.752, 832.522 1021.344, 830.858 1018.952 C 830.229 1018.048, 829.679 1017.903, 829.401 1018.568 C 828.859 1019.864, 821.498 1018.877, 815 1016.636 L 810.500 1015.084 814.159 1015.240 C 816.171 1015.326, 818.536 1014.800, 819.414 1014.071 C 820.491 1013.178, 822.328 1012.957, 825.058 1013.393 C 827.922 1013.851, 829.739 1013.596, 831.275 1012.520 C 833.719 1010.808, 833.798 1010.833, 825.232 1010.562 C 821.784 1010.453, 818.432 1009.832, 817.782 1009.182 C 816.388 1007.788, 812.360 1007.609, 811.559 1008.905 M 821.500 1009 C 821.840 1009.550, 822.766 1010, 823.559 1010 C 824.352 1010, 825 1009.550, 825 1009 C 825 1008.450, 824.073 1008, 822.941 1008 C 821.809 1008, 821.160 1008.450, 821.500 1009 M 919.250 1009.689 C 920.212 1009.941, 921.788 1009.941, 922.750 1009.689 C 923.712 1009.438, 922.925 1009.232, 921 1009.232 C 919.075 1009.232, 918.288 1009.438, 919.250 1009.689 M 977.140 1010.147 C 975.293 1010.679, 974.023 1011.356, 974.319 1011.652 C 975.146 1012.480, 981 1010.963, 981 1009.921 C 981 1009.414, 980.888 1009.041, 980.750 1009.090 C 980.612 1009.140, 978.988 1009.615, 977.140 1010.147 M 1027.229 1010.961 C 1025.720 1012.219, 1025.336 1013.090, 1026.085 1013.553 C 1026.889 1014.049, 1026.823 1014.498, 1025.857 1015.110 C 1023.735 1016.454, 1026.256 1016.077, 1028.500 1014.715 C 1030.398 1013.562, 1031.805 1008.963, 1030.238 1009.033 C 1029.832 1009.052, 1028.478 1009.919, 1027.229 1010.961 M 906 1011 C 906 1011.550, 906.450 1012, 907 1012 C 907.550 1012, 908 1011.550, 908 1011 C 908 1010.450, 907.550 1010, 907 1010 C 906.450 1010, 906 1010.450, 906 1011 M 911.269 1010.693 C 912.242 1010.947, 913.592 1010.930, 914.269 1010.656 C 914.946 1010.382, 914.150 1010.175, 912.500 1010.195 C 910.850 1010.215, 910.296 1010.439, 911.269 1010.693 M 898.250 1011.662 C 897.563 1011.940, 897 1012.615, 897 1013.163 C 897 1014.305, 902.969 1013.289, 904.450 1011.895 C 905.454 1010.949, 900.480 1010.762, 898.250 1011.662 M 811.813 1012.683 C 812.534 1012.972, 813.397 1012.936, 813.729 1012.604 C 814.061 1012.272, 813.471 1012.036, 812.417 1012.079 C 811.252 1012.127, 811.015 1012.364, 811.813 1012.683 M 785.634 1014.374 C 787.358 1015.162, 791.183 1015.808, 794.134 1015.810 C 801.016 1015.816, 797.965 1014.500, 789 1013.597 C 782.808 1012.973, 782.648 1013.010, 785.634 1014.374 M 891 1014 C 891 1014.550, 891.648 1015, 892.441 1015 C 893.234 1015, 894.160 1014.550, 894.500 1014 C 894.840 1013.450, 894.191 1013, 893.059 1013 C 891.927 1013, 891 1013.450, 891 1014 M 967 1014 C 965.667 1014.862, 965.667 1014.969, 967 1014.969 C 967.825 1014.969, 969.175 1014.533, 970 1014 C 971.333 1013.138, 971.333 1013.031, 970 1013.031 C 969.175 1013.031, 967.825 1013.467, 967 1014 M 717.157 1015.311 C 716.312 1016.329, 716.844 1016.903, 719.528 1017.874 C 721.431 1018.562, 723.418 1018.859, 723.944 1018.535 C 724.470 1018.210, 725.388 1018.857, 725.985 1019.972 C 727.248 1022.332, 730 1022.694, 730 1020.500 C 730 1019.667, 729.111 1019, 728 1019 C 726.900 1019, 726 1018.369, 726 1017.598 C 726 1016.827, 724.583 1015.702, 722.851 1015.098 C 718.857 1013.706, 718.477 1013.720, 717.157 1015.311 M 734 1014.251 C 734.946 1015.257, 756.289 1021, 758.893 1020.948 C 761.284 1020.901, 761.210 1020.787, 758 1019.572 C 756.075 1018.843, 750.900 1017.473, 746.500 1016.529 C 742.100 1015.584, 737.375 1014.566, 736 1014.265 C 734.625 1013.965, 733.725 1013.958, 734 1014.251 M 960.813 1016.683 C 961.534 1016.972, 962.397 1016.936, 962.729 1016.604 C 963.061 1016.272, 962.471 1016.036, 961.417 1016.079 C 960.252 1016.127, 960.015 1016.364, 960.813 1016.683 M 1027.667 1016.667 C 1027.300 1017.033, 1027 1017.798, 1027 1018.367 C 1027 1018.993, 1027.466 1018.934, 1028.183 1018.217 C 1028.834 1017.566, 1029.134 1016.801, 1028.850 1016.517 C 1028.566 1016.232, 1028.033 1016.300, 1027.667 1016.667 M 950.500 1018.172 C 947.750 1018.693, 945.050 1019.590, 944.500 1020.165 C 943.810 1020.887, 944.429 1021.034, 946.500 1020.640 C 948.150 1020.325, 951.192 1019.777, 953.261 1019.421 C 955.330 1019.065, 957.269 1018.374, 957.570 1017.887 C 958.210 1016.852, 957.260 1016.890, 950.500 1018.172 M 732 1019 C 732 1019.550, 732.450 1020, 733 1020 C 733.550 1020, 734 1019.550, 734 1019 C 734 1018.450, 733.550 1018, 733 1018 C 732.450 1018, 732 1018.450, 732 1019 M 875.750 1018.662 C 876.438 1018.940, 877.563 1018.940, 878.250 1018.662 C 878.938 1018.385, 878.375 1018.158, 877 1018.158 C 875.625 1018.158, 875.063 1018.385, 875.750 1018.662 M 763.500 1022 C 764.600 1022.473, 766.175 1022.884, 767 1022.914 C 768.333 1022.963, 768.333 1022.862, 767 1022 C 766.175 1021.467, 764.600 1021.055, 763.500 1021.086 L 761.500 1021.141 763.500 1022 M 935 1022 C 933.849 1022.744, 934.198 1022.969, 936.500 1022.969 C 938.150 1022.969, 940.175 1022.533, 941 1022 C 942.151 1021.256, 941.802 1021.031, 939.500 1021.031 C 937.850 1021.031, 935.825 1021.467, 935 1022 M 725.500 1025 C 725.160 1025.550, 725.332 1026, 725.882 1026 C 726.432 1026, 727.160 1025.550, 727.500 1025 C 727.840 1024.450, 727.668 1024, 727.118 1024 C 726.568 1024, 725.840 1024.450, 725.500 1025 M 922.739 1024.959 C 920.670 1025.361, 918.683 1025.984, 918.322 1026.344 C 917.167 1027.499, 923.377 1026.895, 927 1025.500 C 930.841 1024.021, 928.869 1023.771, 922.739 1024.959 M 1000.750 1025.162 C 998.197 1026.095, 996.919 1028, 998.846 1028 C 999.953 1028, 1006 1024.980, 1006 1024.427 C 1006 1023.753, 1003.743 1024.069, 1000.750 1025.162 M 778.813 1025.683 C 779.534 1025.972, 780.397 1025.936, 780.729 1025.604 C 781.061 1025.272, 780.471 1025.036, 779.417 1025.079 C 778.252 1025.127, 778.015 1025.364, 778.813 1025.683 M 679.500 1027 C 679.840 1027.550, 681.329 1027.993, 682.809 1027.985 C 684.914 1027.973, 685.173 1027.758, 684 1027 C 682.024 1025.723, 678.711 1025.723, 679.500 1027 M 912.750 1027.662 C 913.438 1027.940, 914.563 1027.940, 915.250 1027.662 C 915.938 1027.385, 915.375 1027.158, 914 1027.158 C 912.625 1027.158, 912.063 1027.385, 912.750 1027.662 M 1018 1028.500 C 1014.920 1029.686, 1014.800 1029.853, 1017 1029.888 C 1018.375 1029.911, 1020.625 1029.286, 1022 1028.500 C 1025.138 1026.706, 1022.658 1026.706, 1018 1028.500 M 686 1028.383 C 686 1028.594, 686.901 1029.002, 688.001 1029.290 C 689.102 1029.578, 689.751 1029.405, 689.442 1028.907 C 688.904 1028.036, 686 1027.594, 686 1028.383 M 808 1028.887 C 808 1029.374, 809.350 1029.971, 811 1030.213 C 814.170 1030.679, 815.093 1029.633, 812.418 1028.607 C 810.127 1027.728, 808 1027.862, 808 1028.887 M 822 1031.500 C 822.685 1032.325, 823.626 1033, 824.091 1033 C 824.556 1033, 824.678 1032.325, 824.362 1031.500 C 824.045 1030.675, 823.104 1030, 822.271 1030 C 821.037 1030, 820.987 1030.279, 822 1031.500 M 713 1032.559 C 713 1033.416, 713.457 1033.835, 714.016 1033.490 C 714.575 1033.144, 714.774 1032.443, 714.457 1031.931 C 713.600 1030.544, 713 1030.802, 713 1032.559 M 827 1031.893 C 827 1032.950, 829.483 1034.014, 831.832 1033.965 C 833.023 1033.939, 832.786 1033.521, 831 1032.500 C 828.068 1030.824, 827 1030.662, 827 1031.893 M 702.500 1034.522 C 708.244 1037.348, 708 1037.277, 708 1036.109 C 708 1035.155, 700.779 1031.979, 698.730 1032.031 C 698.053 1032.048, 699.750 1033.169, 702.500 1034.522 M 943.558 1032.907 C 943.249 1033.405, 943.898 1033.578, 944.999 1033.290 C 947.334 1032.679, 947.629 1032, 945.559 1032 C 944.766 1032, 943.866 1032.408, 943.558 1032.907 M 985.250 1033.031 C 984.013 1033.529, 983 1034.175, 983 1034.468 C 983 1035.566, 986.691 1034.945, 988.559 1033.532 C 990.824 1031.818, 988.967 1031.537, 985.250 1033.031 M 948.500 1034 C 946.951 1034.666, 947.458 1034.875, 950.750 1034.930 C 953.087 1034.968, 955 1034.550, 955 1034 C 955 1032.802, 951.289 1032.802, 948.500 1034 M 936.750 1034.662 C 937.438 1034.940, 938.563 1034.940, 939.250 1034.662 C 939.938 1034.385, 939.375 1034.158, 938 1034.158 C 936.625 1034.158, 936.063 1034.385, 936.750 1034.662 M 971.500 1038 C 971.160 1038.550, 971.332 1039, 971.882 1039 C 972.432 1039, 973.160 1038.550, 973.500 1038 C 973.840 1037.450, 973.668 1037, 973.118 1037 C 972.568 1037, 971.840 1037.450, 971.500 1038 M 965.500 1040 C 964.713 1041.273, 967.030 1041.273, 969 1040 C 970.219 1039.212, 970.090 1039.028, 968.309 1039.015 C 967.104 1039.007, 965.840 1039.450, 965.500 1040 M 921.714 1055.996 C 920.005 1057.661, 920.038 1057.715, 922.464 1057.252 C 923.859 1056.985, 925 1056.396, 925 1055.942 C 925 1054.277, 923.452 1054.302, 921.714 1055.996 M 884.423 1057.125 C 883.980 1057.841, 889.048 1059, 892.625 1059 C 893.931 1059, 895 1058.583, 895 1058.073 C 895 1057.564, 895.788 1056.954, 896.750 1056.718 C 897.712 1056.482, 895.420 1056.335, 891.657 1056.391 C 887.893 1056.447, 884.638 1056.777, 884.423 1057.125" stroke="none" fill="black" fill-rule="evenodd"/>
</svg>