<svg xmlns="http://www.w3.org/2000/svg" width="1240" height="1753" viewBox="0 0 1240 1753" version="1.1">
	<path d="M 595 53.500 C 594.315 54.325, 593.331 55, 592.813 55 C 592.296 55, 589.412 56.125, 586.406 57.500 C 583.400 58.875, 579.694 60, 578.170 60 C 576.647 60, 574.858 60.542, 574.196 61.204 C 573.534 61.866, 571.757 62.483, 570.246 62.575 C 565.293 62.877, 564.876 62.990, 565.430 63.886 C 566.114 64.993, 557.165 66.158, 549.371 65.977 C 546.142 65.902, 536.413 66.123, 527.750 66.470 C 516.510 66.919, 512 66.782, 512 65.990 C 512 65.381, 511.588 65.137, 511.084 65.448 C 509.587 66.373, 481.737 67.979, 464 68.162 C 454.925 68.256, 445.925 68.666, 444 69.074 C 442.075 69.482, 436.949 70.097, 432.609 70.440 C 427.028 70.882, 423.881 71.660, 421.859 73.100 C 418.762 75.306, 418.291 76.547, 420.250 77.338 C 420.997 77.639, 420.795 77.874, 419.750 77.921 C 418.787 77.964, 418.093 78.338, 418.206 78.750 C 418.616 80.248, 414.977 85.855, 410.500 90.623 C 405.449 96.002, 403.365 100.094, 398.849 113.500 C 397.181 118.450, 395.274 123.175, 394.611 124 C 393.158 125.809, 389.733 134.460, 387.485 142 C 384.289 152.725, 382.217 160.551, 381.529 164.500 C 381.146 166.700, 377.527 178.625, 373.486 191 C 369.445 203.375, 364.503 218.900, 362.503 225.500 C 360.504 232.100, 357.748 240.875, 356.379 245 C 355.011 249.125, 353.015 256.325, 351.944 261 C 350.033 269.340, 349.396 271.898, 343.019 296.858 C 341.282 303.655, 337.821 318.730, 335.329 330.358 C 328.632 361.594, 328.462 362.272, 323.393 378 C 319.469 390.174, 313.905 408.579, 306.314 434.500 C 305.508 437.250, 304.181 442.200, 303.364 445.500 C 302.547 448.800, 300.110 457.575, 297.949 465 C 295.787 472.425, 291.753 487.950, 288.982 499.500 C 286.212 511.050, 283.068 522.525, 281.997 525 C 280.925 527.475, 279.322 532.425, 278.435 536 C 277.547 539.575, 274.419 549.700, 271.484 558.500 C 268.548 567.300, 265.393 578.325, 264.472 583 C 263.552 587.675, 262.171 594.506, 261.403 598.179 C 260.636 601.853, 260.264 605.525, 260.577 606.340 C 261.121 607.757, 256.391 628.962, 255.300 630 C 255.010 630.275, 255.051 628.025, 255.391 625 C 255.902 620.440, 255.815 619.927, 254.884 622 C 254.266 623.375, 253.812 627.239, 253.876 630.588 C 253.993 636.784, 250.445 649.600, 247.693 652.919 C 245.296 655.810, 241.642 669.310, 241.457 675.958 C 241.230 684.122, 240.481 688.270, 237.295 699 C 235.907 703.675, 233.967 710.200, 232.985 713.500 C 232.003 716.800, 230.463 721.975, 229.564 725 C 225.518 738.606, 223.491 745.175, 220.458 754.500 C 218.670 760, 215.773 769.850, 214.021 776.388 C 212.269 782.926, 210.212 789.676, 209.450 791.388 C 208.193 794.211, 197.511 837.464, 188.678 875.500 C 184.703 892.615, 184.892 891.650, 180.931 915 C 174.931 950.375, 172.137 964.174, 166.860 984.500 C 163.162 998.747, 160.926 1006.264, 150.353 1040 C 147.854 1047.975, 145.207 1056.525, 144.472 1059 C 141.867 1067.762, 130.927 1102.648, 127.537 1113 C 124.072 1123.581, 122.019 1131.030, 114.995 1158.500 C 112.886 1166.750, 109.338 1179.707, 107.112 1187.293 C 104.885 1194.879, 102.350 1204.539, 101.478 1208.759 C 99.346 1219.081, 94.564 1237.244, 91.621 1246.197 C 82.121 1275.097, 78.967 1286.554, 75.024 1306.500 C 71.277 1325.449, 66.356 1348.198, 64.424 1355.500 C 63.551 1358.800, 61.815 1366.225, 60.566 1372 C 59.317 1377.775, 57.975 1383.509, 57.583 1384.741 C 57.191 1385.974, 56.004 1391.599, 54.944 1397.241 C 53.884 1402.884, 51.472 1414.700, 49.582 1423.500 C 47.693 1432.300, 45.428 1442.875, 44.547 1447 C 42.726 1455.536, 40.729 1462.830, 37.841 1471.500 C 36.741 1474.800, 35.462 1478.850, 34.999 1480.500 C 34.535 1482.150, 33.023 1486.201, 31.638 1489.502 C 30.253 1492.804, 28.164 1500.454, 26.996 1506.502 C 25.827 1512.551, 24.191 1520.200, 23.359 1523.500 C 21.179 1532.149, 20.463 1546.843, 21.995 1551.485 C 22.684 1553.571, 24.850 1556.678, 26.810 1558.389 C 33.409 1564.150, 34.936 1566.002, 34.349 1567.532 C 34.030 1568.364, 34.084 1572.409, 34.470 1576.522 C 34.976 1581.919, 35.559 1584, 36.566 1584 C 37.334 1584, 38.237 1585.095, 38.573 1586.433 C 38.982 1588.063, 39.677 1588.678, 40.676 1588.294 C 41.792 1587.866, 41.861 1587.532, 40.949 1586.968 C 40.078 1586.430, 40.308 1585.905, 41.755 1585.131 C 43.431 1584.234, 43.866 1584.379, 44.283 1585.975 C 44.690 1587.532, 45.624 1587.879, 49.144 1587.780 C 51.540 1587.713, 54.062 1587.229, 54.750 1586.706 C 55.604 1586.056, 56.005 1586.190, 56.015 1587.128 C 56.027 1588.206, 56.239 1588.178, 57 1587 C 57.533 1586.175, 57.991 1585.950, 58.016 1586.500 C 58.042 1587.050, 58.669 1586.703, 59.408 1585.728 C 60.928 1583.725, 64.019 1584.453, 68.972 1587.980 C 71.515 1589.791, 71.832 1589.809, 74.091 1588.263 C 75.416 1587.357, 76.872 1586.140, 77.326 1585.558 C 77.892 1584.833, 78.312 1584.893, 78.659 1585.750 C 78.938 1586.437, 79.731 1587, 80.421 1587 C 81.110 1587, 83.567 1588.800, 85.879 1591 C 88.376 1593.375, 91.054 1595, 92.471 1595 C 93.783 1595, 95.564 1595.707, 96.429 1596.571 C 97.293 1597.436, 98 1597.854, 98 1597.500 C 98 1597.146, 98.707 1597.564, 99.571 1598.429 C 100.436 1599.293, 101.945 1600, 102.925 1600 C 103.906 1600, 105.963 1601.163, 107.497 1602.585 C 109.031 1604.007, 111.158 1605.338, 112.223 1605.543 C 113.288 1605.748, 115.136 1606.227, 116.330 1606.608 C 117.523 1606.988, 119.945 1607.247, 121.711 1607.182 C 123.477 1607.117, 125.183 1607.487, 125.503 1608.005 C 125.986 1608.787, 131.610 1610.705, 135.500 1611.414 C 136.050 1611.514, 137.444 1612.116, 138.598 1612.752 C 139.751 1613.387, 143.494 1614.358, 146.914 1614.909 C 150.694 1615.517, 155.074 1617.104, 158.082 1618.955 C 160.803 1620.630, 164.178 1622, 165.581 1622 C 166.984 1622, 168.971 1622.449, 169.997 1622.999 C 171.024 1623.548, 175.607 1624.061, 180.182 1624.138 C 189.725 1624.300, 191.648 1624.843, 195.579 1628.486 C 197.204 1629.991, 199.176 1630.926, 200.177 1630.664 C 201.141 1630.412, 204.671 1630.896, 208.022 1631.740 C 213.412 1633.098, 214.316 1633.691, 215.868 1636.887 C 216.833 1638.874, 218.192 1640.376, 218.887 1640.225 C 219.734 1640.041, 219.939 1640.618, 219.508 1641.975 C 219.137 1643.145, 219.316 1644, 219.933 1644 C 220.520 1644, 221 1643.550, 221 1643 C 221 1640.962, 222.805 1642.085, 223.411 1644.500 C 224.137 1647.393, 226.049 1647.669, 229.535 1645.385 C 231.826 1643.884, 232 1643.892, 232 1645.492 C 232 1646.739, 232.483 1647.016, 233.750 1646.496 C 236.630 1645.314, 238.516 1645.421, 238.250 1646.750 C 237.830 1648.852, 239.677 1648.142, 241.376 1645.549 C 243.443 1642.395, 248.180 1638, 249.512 1638 C 251.141 1638, 253.609 1632.426, 257.458 1620.054 C 259.417 1613.759, 261.857 1607.684, 262.880 1606.554 C 264.168 1605.133, 264.912 1602.333, 265.294 1597.471 C 265.678 1592.582, 267.850 1584.449, 272.423 1570.767 C 276.040 1559.946, 279 1550.446, 279 1549.656 C 279 1548.176, 282.939 1538.887, 282.978 1540.275 C 282.990 1540.701, 280.717 1550.376, 277.927 1561.775 C 273.847 1578.443, 268 1604.867, 268 1606.638 C 268 1606.837, 268.395 1607, 268.879 1607 C 270.684 1607, 272.838 1598.598, 273.585 1588.642 C 273.941 1583.886, 274.375 1582.189, 278.091 1571 C 279.096 1567.975, 280.212 1562.918, 280.573 1559.761 C 280.949 1556.463, 281.639 1554.277, 282.195 1554.621 C 282.727 1554.950, 283.025 1554.382, 282.856 1553.359 C 282.688 1552.337, 282.857 1551.011, 283.233 1550.413 C 284.429 1548.511, 289.873 1525.814, 290.887 1518.500 C 291.269 1515.750, 292.112 1512.600, 292.760 1511.500 L 293.939 1509.500 294.065 1511.500 C 294.201 1513.659, 298.458 1497.685, 299.929 1489.500 C 300.423 1486.750, 301.525 1481.800, 302.378 1478.500 C 303.971 1472.335, 304.431 1467.531, 303 1472 L 302.199 1474.500 302.111 1472 C 302.062 1470.625, 302.652 1467.425, 303.421 1464.888 C 304.191 1462.351, 305.351 1456.780, 305.999 1452.508 C 306.646 1448.235, 309.637 1437.486, 312.643 1428.620 C 324.061 1394.956, 332.895 1363.359, 332.966 1355.932 C 332.985 1353.969, 333.695 1350.021, 334.545 1347.159 C 335.395 1344.297, 335.853 1341.572, 335.563 1341.103 C 334.972 1340.146, 337.763 1331.165, 339.235 1329.285 C 339.759 1328.616, 339.916 1326.366, 339.583 1324.285 C 339.251 1322.203, 339.427 1319.825, 339.974 1319 C 340.859 1317.667, 340.983 1317.667, 341.090 1319 C 341.292 1321.524, 343.841 1312.720, 343.923 1309.215 C 343.965 1307.408, 344.621 1304.933, 345.381 1303.715 C 346.141 1302.497, 347.069 1300.184, 347.444 1298.575 C 348.044 1296.003, 347.938 1295.807, 346.563 1296.948 C 345.193 1298.084, 345 1297.786, 345 1294.536 C 345 1292.496, 345.853 1287.604, 346.896 1283.664 C 347.939 1279.724, 349.561 1273.125, 350.500 1269 C 351.439 1264.875, 353.333 1258.945, 354.708 1255.823 C 356.083 1252.700, 356.918 1249.676, 356.563 1249.102 C 356.208 1248.528, 356.557 1246.808, 357.338 1245.279 C 358.119 1243.751, 359 1239.125, 359.296 1235 C 359.802 1227.938, 359.755 1227.705, 358.493 1231 L 357.152 1234.500 357.076 1231.218 C 357.034 1229.413, 357.608 1226.480, 358.351 1224.701 C 359.095 1222.922, 360.017 1219.449, 360.401 1216.983 C 360.784 1214.518, 361.782 1211.375, 362.618 1210 C 363.454 1208.625, 363.881 1208.327, 363.567 1209.337 C 363.253 1210.348, 362.768 1213.048, 362.491 1215.337 C 361.771 1221.265, 363.270 1216.887, 365.859 1205.500 C 368.512 1193.825, 369.465 1187.069, 368.206 1188.857 C 367.448 1189.932, 367.089 1189.952, 366.472 1188.955 C 366.015 1188.216, 366.328 1187.233, 367.232 1186.572 C 368.242 1185.834, 368.788 1183.743, 368.825 1180.474 C 368.856 1177.738, 370.708 1168.300, 372.941 1159.500 C 375.173 1150.700, 377 1142.768, 377 1141.872 C 377 1139.732, 379.953 1137.120, 380.102 1139.128 C 380.159 1139.882, 380.553 1139.150, 380.979 1137.500 C 381.404 1135.850, 382.110 1133.639, 382.546 1132.586 C 383.107 1131.235, 382.996 1130.885, 382.170 1131.395 C 380.764 1132.264, 380.670 1130.918, 381.919 1127.797 C 383.661 1123.441, 384.278 1121.495, 384.472 1119.750 C 384.700 1117.688, 386 1116.108, 386 1117.892 C 386 1118.566, 386.443 1118.844, 386.985 1118.509 C 388 1117.882, 387.605 1121.351, 385.906 1128 C 384.734 1132.584, 384.740 1134.668, 385.922 1133.450 C 386.852 1132.491, 395.036 1101.067, 394.958 1098.750 C 394.935 1098.063, 394.013 1099.075, 392.909 1101 L 390.901 1104.500 391.446 1100.500 C 391.746 1098.300, 392.443 1094.250, 392.995 1091.500 C 393.547 1088.750, 394.181 1085.375, 394.404 1084 C 394.627 1082.625, 395.137 1079.813, 395.536 1077.750 C 396.029 1075.199, 395.900 1074, 395.131 1074 C 394.509 1074, 394.052 1072.763, 394.116 1071.250 C 394.187 1069.558, 394.408 1069.173, 394.689 1070.250 C 395.471 1073.241, 396.876 1072.184, 398.011 1067.750 C 398.609 1065.412, 399.287 1062.938, 399.518 1062.250 C 399.780 1061.469, 402.104 1060.941, 405.719 1060.843 C 408.898 1060.757, 412.625 1060.587, 414 1060.465 C 415.375 1060.343, 422.350 1059.916, 429.500 1059.516 C 437.048 1059.093, 443.713 1058.206, 445.393 1057.399 C 449.862 1055.254, 467.298 1054.007, 491.817 1054.078 C 516.844 1054.151, 554.412 1053.167, 560.500 1052.279 C 562.700 1051.958, 592.400 1051.597, 626.500 1051.476 L 688.500 1051.256 700.500 1048.532 C 707.100 1047.034, 713.428 1045.590, 714.561 1045.324 C 716.437 1044.883, 717.235 1046.671, 723.425 1065.170 C 727.166 1076.351, 732.455 1091.125, 735.178 1098 C 737.900 1104.875, 740.744 1112.075, 741.498 1114 C 742.251 1115.925, 743.596 1119.975, 744.487 1123 C 745.378 1126.025, 746.533 1129.281, 747.053 1130.236 C 747.574 1131.191, 748 1132.451, 748 1133.035 C 748 1133.619, 748.889 1135.936, 749.975 1138.184 C 751.061 1140.433, 751.667 1142.730, 751.320 1143.291 C 750.933 1143.917, 751.196 1143.997, 752.003 1143.498 C 752.980 1142.894, 753.171 1143.238, 752.751 1144.845 C 752.386 1146.241, 752.566 1146.768, 753.263 1146.337 C 753.929 1145.926, 754.112 1146.265, 753.743 1147.227 C 753.415 1148.082, 753.758 1150.743, 754.506 1153.141 C 755.283 1155.630, 755.932 1156.642, 756.019 1155.500 C 756.204 1153.081, 757.777 1157.767, 758.410 1162.624 C 758.634 1164.341, 759.531 1167.125, 760.402 1168.810 C 761.273 1170.495, 761.716 1172.577, 761.386 1173.437 C 761.056 1174.296, 761.270 1175, 761.862 1175 C 762.453 1175, 762.678 1175.675, 762.362 1176.500 C 762.045 1177.325, 762.235 1178, 762.784 1178 C 763.332 1178, 763.998 1179.463, 764.264 1181.250 C 764.716 1184.293, 767.934 1194.003, 769.981 1198.500 C 770.481 1199.600, 772.673 1205.675, 774.852 1212 C 780.443 1228.229, 781.124 1229.668, 780.353 1223.608 C 779.596 1217.662, 781.480 1217.962, 782.491 1223.948 C 782.857 1226.113, 783.796 1228.416, 784.578 1229.065 C 785.360 1229.714, 786.007 1231.202, 786.015 1232.372 C 786.026 1233.923, 786.261 1234.137, 786.878 1233.164 C 787.872 1231.594, 796.306 1252.421, 795.695 1254.936 C 795.443 1255.974, 794.920 1255.490, 794.142 1253.500 C 793.496 1251.850, 792.514 1249.600, 791.958 1248.500 C 791.075 1246.752, 791.024 1246.815, 791.556 1249 C 791.891 1250.375, 792.558 1253.525, 793.039 1256 C 793.519 1258.475, 794.829 1263.425, 795.949 1267 C 798.248 1274.341, 798.398 1275.364, 797.050 1274.531 C 796.528 1274.208, 797.201 1277.179, 798.546 1281.134 C 801.131 1288.734, 802.644 1291.527, 801.452 1286.498 C 800.026 1280.480, 803.033 1285.568, 806.152 1294.452 C 808.530 1301.224, 808.947 1303.415, 807.974 1304.016 C 807.018 1304.607, 808.903 1311.321, 815.733 1331.648 C 824.388 1357.408, 827.443 1368.406, 824.997 1365 C 822.729 1361.842, 819.019 1354.023, 816.645 1347.399 C 814.610 1341.719, 808.469 1324.666, 806.457 1319.107 C 806.180 1318.341, 805.670 1317.996, 805.325 1318.342 C 804.647 1319.020, 806.915 1326.534, 816.176 1354.287 C 819.568 1364.449, 821.854 1372.883, 821.512 1373.963 C 821.175 1375.023, 822.439 1379.945, 824.391 1385.176 C 826.304 1390.304, 829.315 1398.775, 831.080 1404 C 832.846 1409.225, 834.705 1414.032, 835.212 1414.682 C 835.718 1415.333, 836.215 1417.431, 836.316 1419.345 C 836.417 1421.258, 836.894 1422.751, 837.375 1422.662 C 839.346 1422.297, 838.891 1424.826, 836.525 1427.378 C 835.136 1428.877, 833.984 1429.742, 833.965 1429.302 C 833.945 1428.861, 833.286 1429.625, 832.500 1431 C 831.714 1432.375, 831.055 1433.142, 831.035 1432.705 C 831.016 1432.267, 829.922 1432.942, 828.603 1434.205 C 827.285 1435.467, 824.290 1438.075, 821.948 1440 C 816.235 1444.695, 815 1445.962, 815 1447.130 C 815 1447.674, 814.591 1447.865, 814.091 1447.556 C 813.591 1447.247, 811.944 1448.458, 810.430 1450.247 C 808.916 1452.036, 807.280 1453.381, 806.793 1453.235 C 806.306 1453.089, 804.282 1454.209, 802.296 1455.724 C 799.323 1457.991, 798.913 1458.112, 799.979 1456.405 C 800.691 1455.265, 802.592 1453.470, 804.204 1452.416 C 805.815 1451.362, 807.558 1449.734, 808.076 1448.799 C 810.198 1444.968, 803.218 1449.211, 796.175 1456.034 C 792.220 1459.865, 788.733 1463, 788.426 1463 C 787.299 1463, 781 1468.267, 781 1469.208 C 781 1470.640, 775.705 1476, 774.291 1476 C 773.623 1476, 766.992 1481.907, 759.557 1489.127 C 752.122 1496.346, 743.893 1503.669, 741.270 1505.399 C 733.895 1510.262, 729.976 1513.861, 708.818 1535.200 C 691.692 1552.472, 688.957 1555.664, 687.759 1559.775 C 686.284 1564.841, 686.563 1573, 688.212 1573 C 688.763 1573, 688.947 1573.696, 688.620 1574.547 C 688.260 1575.485, 689.126 1577.168, 690.822 1578.826 C 693.922 1581.856, 695.494 1585, 693.910 1585 C 693.344 1585, 693.165 1585.457, 693.510 1586.016 C 693.856 1586.575, 694.557 1586.774, 695.069 1586.457 C 696.026 1585.866, 696.365 1587.175, 696.052 1590.251 C 695.942 1591.331, 696.951 1592.430, 698.687 1593.120 C 700.410 1593.805, 700.986 1594.428, 700.173 1594.728 C 699.337 1595.037, 702.058 1598.323, 707.523 1603.606 C 712.295 1608.220, 716.608 1611.742, 717.107 1611.434 C 717.606 1611.126, 718.283 1611.574, 718.612 1612.431 C 718.941 1613.288, 719.682 1613.697, 720.259 1613.340 C 720.841 1612.980, 721.015 1613.166, 720.650 1613.758 C 720.287 1614.344, 721.793 1616.252, 723.995 1617.996 C 726.198 1619.741, 728 1620.631, 728 1619.974 C 728 1619.317, 729.567 1620.516, 731.481 1622.640 C 733.396 1624.763, 734.760 1627.063, 734.513 1627.750 C 734.265 1628.438, 734.511 1629, 735.060 1629 C 735.608 1629, 738.376 1631.492, 741.210 1634.537 C 744.621 1638.202, 746.884 1639.875, 747.901 1639.484 C 748.747 1639.160, 749.107 1639.226, 748.702 1639.631 C 747.486 1640.847, 754.167 1647.106, 755.500 1646 C 756.303 1645.334, 757.160 1646.113, 758.335 1648.576 C 759.261 1650.518, 760.451 1651.839, 760.980 1651.512 C 762.117 1650.810, 768 1653.663, 768 1654.917 C 768 1655.394, 769.178 1656.079, 770.618 1656.440 C 772.058 1656.802, 772.962 1657.372, 772.627 1657.707 C 772.292 1658.042, 772.480 1658.873, 773.045 1659.555 C 774.211 1660.959, 778 1660.318, 778 1658.717 C 778 1658.139, 778.296 1657.963, 778.658 1658.325 C 779.020 1658.687, 779.931 1658.472, 780.682 1657.849 C 781.434 1657.225, 782.362 1657.029, 782.745 1657.412 C 783.128 1657.795, 782.780 1658.527, 781.971 1659.039 C 780.645 1659.878, 781.296 1660.427, 783.250 1660.118 C 783.662 1660.053, 784 1660.498, 784 1661.107 C 784 1661.716, 784.698 1661.946, 785.552 1661.618 C 786.406 1661.291, 786.853 1661.429, 786.546 1661.926 C 786.239 1662.423, 786.553 1663.041, 787.244 1663.301 C 787.992 1663.581, 787.488 1664.197, 786 1664.823 L 783.500 1665.873 786.500 1665.952 C 788.150 1665.995, 790.175 1666.474, 791 1667.015 C 792.333 1667.891, 792.333 1668.121, 791 1669.087 C 789.773 1669.976, 789.886 1670.090, 791.623 1669.714 C 793.353 1669.339, 793.648 1669.629, 793.216 1671.283 C 792.886 1672.544, 793.080 1673.068, 793.729 1672.667 C 794.303 1672.312, 795.296 1672.652, 795.935 1673.422 C 796.731 1674.380, 796.766 1675.026, 796.049 1675.470 C 795.472 1675.826, 795 1675.566, 795 1674.892 C 795 1674.218, 794.734 1673.933, 794.408 1674.258 C 794.083 1674.584, 794.236 1675.599, 794.748 1676.514 C 795.616 1678.065, 795.792 1678.065, 797.340 1676.518 C 798.811 1675.046, 799 1675.036, 799 1676.429 C 799 1677.293, 799.730 1678, 800.622 1678 C 801.962 1678, 802.025 1678.265, 800.981 1679.523 C 799.924 1680.796, 799.986 1680.943, 801.359 1680.416 C 802.261 1680.069, 803 1679.384, 803 1678.893 C 803 1678.402, 803.705 1678, 804.567 1678 C 805.680 1678, 805.950 1678.581, 805.500 1680 C 805.007 1681.553, 805.320 1682, 806.901 1682 C 808.215 1682, 808.751 1682.486, 808.411 1683.371 C 808.122 1684.125, 808.633 1685.029, 809.546 1685.379 C 810.461 1685.731, 810.963 1686.654, 810.663 1687.435 C 810.364 1688.215, 810.767 1689.392, 811.559 1690.049 C 812.581 1690.897, 813 1690.919, 813 1690.122 C 813 1689.505, 813.450 1689, 814 1689 C 814.550 1689, 815 1689.867, 815 1690.927 C 815 1693.018, 819.390 1697, 821.694 1697 C 822.477 1697, 822.840 1697.450, 822.500 1698 C 821.899 1698.972, 823.207 1699.405, 825.750 1699.075 C 826.438 1698.985, 827 1699.330, 827 1699.840 C 827 1700.349, 827.895 1701.001, 828.988 1701.287 C 830.081 1701.573, 831.404 1702.931, 831.926 1704.306 C 832.449 1705.681, 833.354 1707.101, 833.938 1707.462 C 834.522 1707.823, 835 1708.976, 835 1710.024 C 835 1711.072, 835.954 1712.440, 837.121 1713.065 C 838.413 1713.756, 838.993 1713.797, 838.604 1713.169 C 838.254 1712.602, 838.425 1711.856, 838.984 1711.510 C 839.580 1711.142, 840.001 1712.043, 840.003 1713.691 C 840.006 1716.218, 840.356 1716.507, 843.494 1716.575 C 847.538 1716.661, 849.069 1717.721, 846.999 1719.001 C 845.795 1719.745, 845.858 1720.008, 847.379 1720.592 C 848.382 1720.977, 849.495 1720.817, 849.854 1720.236 C 850.213 1719.656, 851.699 1719.253, 853.157 1719.340 C 854.615 1719.428, 855.600 1719.838, 855.345 1720.250 C 855.090 1720.662, 855.809 1721, 856.941 1721 C 859.437 1721, 859.722 1722.951, 857.250 1723.118 C 856.288 1723.182, 857.750 1723.636, 860.500 1724.126 C 863.250 1724.616, 867.075 1724.713, 869 1724.341 C 870.925 1723.970, 873.063 1723.761, 873.750 1723.877 C 874.437 1723.993, 875 1723.632, 875 1723.074 C 875 1722.517, 876.520 1722.118, 878.377 1722.188 C 880.323 1722.261, 883.290 1721.366, 885.377 1720.076 C 887.370 1718.844, 889 1718.167, 889 1718.571 C 889 1718.975, 889.788 1718.438, 890.750 1717.377 C 892.747 1715.176, 898 1711.663, 898 1712.528 C 898 1712.844, 899.012 1712.017, 900.250 1710.691 C 901.487 1709.364, 903.545 1707.950, 904.822 1707.549 C 906.310 1707.081, 906.943 1706.294, 906.584 1705.358 C 906.275 1704.554, 906.427 1704.146, 906.921 1704.451 C 908.332 1705.323, 911 1703.938, 911 1702.334 C 911 1701.535, 911.450 1701.160, 912 1701.500 C 912.550 1701.840, 913 1701.621, 913 1701.014 C 913 1699.901, 917.506 1694.935, 918.477 1694.977 C 920.909 1695.083, 922.301 1694.762, 921.250 1694.338 C 919.136 1693.485, 919.845 1692.434, 923.500 1691 C 925.524 1690.206, 927 1688.933, 927 1687.982 C 927 1687.078, 928.119 1685.739, 929.488 1685.007 C 931.408 1683.979, 931.722 1683.370, 930.865 1682.338 C 930.013 1681.311, 930.146 1681, 931.437 1681 C 932.361 1681, 932.840 1680.550, 932.500 1680 C 932.160 1679.450, 932.359 1679, 932.941 1679 C 933.523 1679, 934 1678.373, 934 1677.607 C 934 1675.815, 936.736 1674.736, 937.298 1676.306 C 937.534 1676.963, 938.077 1677.173, 938.506 1676.774 C 938.934 1676.375, 938.716 1675.362, 938.020 1674.524 C 937.155 1673.482, 937.110 1673, 937.878 1673 C 938.495 1673, 939 1673.487, 939 1674.083 C 939 1674.679, 939.563 1674.960, 940.250 1674.708 C 940.938 1674.456, 941.388 1673.744, 941.250 1673.125 C 941.113 1672.506, 941.450 1672, 942 1672 C 942.550 1672, 943 1671.298, 943 1670.441 C 943 1669.566, 943.480 1669.179, 944.096 1669.559 C 944.698 1669.932, 946.473 1668.833, 948.039 1667.118 C 949.606 1665.403, 950.618 1664, 950.289 1664 C 949.959 1664, 950.479 1663.128, 951.443 1662.063 C 952.407 1660.998, 952.871 1659.600, 952.473 1658.956 C 951.936 1658.088, 951.539 1658.128, 950.929 1659.114 C 950.478 1659.845, 949.760 1660.093, 949.333 1659.667 C 947.970 1658.303, 951.316 1657.017, 952.870 1658.307 C 954.627 1659.765, 954.357 1659.778, 956.335 1658.137 C 957.239 1657.387, 957.754 1656.411, 957.480 1655.967 C 957.206 1655.524, 957.714 1654.429, 958.610 1653.533 C 959.505 1652.637, 960.032 1651.698, 959.779 1651.446 C 959.069 1650.736, 954.465 1655.094, 954.775 1656.183 C 954.926 1656.714, 954.549 1656.839, 953.938 1656.462 C 953.217 1656.016, 953.869 1654.671, 955.790 1652.637 C 957.421 1650.912, 958.618 1648.926, 958.452 1648.225 C 958.286 1647.524, 958.378 1647.408, 958.656 1647.967 C 958.994 1648.647, 959.777 1648.654, 961.020 1647.989 C 962.256 1647.328, 963.086 1647.331, 963.498 1647.997 C 963.839 1648.549, 963.604 1649, 962.976 1649 C 962.347 1649, 962.018 1649.554, 962.243 1650.230 C 962.469 1650.907, 961.719 1652.242, 960.577 1653.197 C 958.826 1654.661, 958.762 1654.939, 960.167 1654.967 C 961.083 1654.985, 962.096 1654.437, 962.417 1653.750 C 962.883 1652.750, 963.117 1652.750, 963.583 1653.750 C 964.765 1656.281, 965.975 1654.897, 965.541 1651.510 C 965.185 1648.730, 965.516 1647.794, 967.168 1646.910 C 968.661 1646.111, 969.051 1646.108, 968.562 1646.900 C 967.638 1648.394, 969.271 1648.294, 971.002 1646.750 C 972.194 1645.687, 972.206 1645.761, 971.079 1647.250 C 970.351 1648.212, 969.135 1649, 968.378 1649 C 967.620 1649, 967 1649.477, 967 1650.059 C 967 1650.641, 967.526 1650.793, 968.170 1650.395 C 968.958 1649.908, 969.130 1650.218, 968.698 1651.345 C 968.184 1652.683, 968.652 1652.578, 971.028 1650.821 C 972.662 1649.613, 974.056 1648.259, 974.125 1647.812 C 974.194 1647.365, 974.327 1646.438, 974.420 1645.750 C 974.514 1645.063, 975.090 1644.598, 975.700 1644.718 C 976.309 1644.838, 977.385 1644.241, 978.090 1643.392 C 979.140 1642.126, 979.112 1641.683, 977.936 1640.939 C 976.852 1640.253, 976.821 1640.027, 977.809 1640.015 C 978.529 1640.007, 978.810 1639.502, 978.434 1638.893 C 977.968 1638.139, 978.467 1638.013, 980 1638.500 C 981.686 1639.035, 982.053 1638.894, 981.461 1637.937 C 980.892 1637.016, 981.161 1636.848, 982.426 1637.333 C 984.543 1638.145, 986.280 1637.261, 985.391 1635.824 C 984.978 1635.155, 984.445 1635.268, 983.890 1636.143 C 983.221 1637.200, 983.027 1637.113, 983.015 1635.750 C 983.007 1634.787, 983.675 1634, 984.500 1634 C 985.325 1634, 985.904 1633.662, 985.788 1633.250 C 985.671 1632.838, 986.119 1631.520, 986.784 1630.322 C 987.449 1629.125, 987.748 1627.507, 987.449 1626.727 C 987.123 1625.877, 988.285 1624.258, 990.352 1622.680 L 993.800 1620.051 993.800 1623.554 C 993.800 1626.932, 991.426 1630.759, 990.133 1629.466 C 989.786 1629.120, 990.290 1628.261, 991.252 1627.558 C 992.213 1626.855, 993 1625.937, 993 1625.517 C 993 1625.098, 992.404 1625.250, 991.676 1625.854 C 990.707 1626.658, 990.019 1626.624, 989.105 1625.726 C 988.113 1624.750, 987.988 1625.025, 988.494 1627.074 C 988.917 1628.789, 988.620 1630.070, 987.607 1630.912 C 986.410 1631.904, 986.343 1632.453, 987.292 1633.473 C 988.265 1634.519, 989.705 1633.596, 994.697 1628.727 C 998.105 1625.402, 1000.805 1622.206, 1000.697 1621.624 C 1000.589 1621.042, 1001.873 1619.865, 1003.551 1619.008 C 1005.229 1618.150, 1008.529 1615.660, 1010.884 1613.474 C 1013.239 1611.288, 1016.347 1608.874, 1017.790 1608.110 C 1019.233 1607.345, 1022.611 1604.982, 1025.297 1602.860 C 1027.982 1600.737, 1030.621 1599, 1031.160 1599 C 1031.700 1599, 1034.247 1597.302, 1036.821 1595.226 C 1039.394 1593.150, 1042.697 1590.562, 1044.160 1589.476 C 1045.623 1588.389, 1051.539 1583.323, 1057.306 1578.217 C 1063.073 1573.111, 1069.526 1567.626, 1071.646 1566.028 C 1077.113 1561.905, 1092.680 1546.541, 1105.529 1532.584 C 1111.563 1526.030, 1116.977 1520.180, 1117.560 1519.584 C 1118.142 1518.988, 1121.282 1515.350, 1124.536 1511.500 C 1138.395 1495.104, 1143.704 1489.215, 1151.934 1481.103 C 1156.061 1477.035, 1161.631 1470.960, 1164.312 1467.603 C 1166.992 1464.246, 1174.958 1455.425, 1182.013 1448 C 1193.764 1435.634, 1205.066 1422.337, 1218.756 1404.771 L 1224 1398.043 1224 1381.432 C 1224 1365.425, 1223.918 1364.753, 1221.750 1362.953 C 1220.513 1361.925, 1218.720 1361.319, 1217.767 1361.605 C 1216.735 1361.914, 1215.039 1361.130, 1213.577 1359.668 C 1212.226 1358.317, 1210.872 1357.462, 1210.567 1357.767 C 1209.608 1358.725, 1205.904 1354.693, 1206.446 1353.281 C 1206.748 1352.494, 1205.977 1351.562, 1204.586 1351.033 C 1203.279 1350.536, 1201.966 1349.538, 1201.668 1348.815 C 1201.253 1347.808, 1200.792 1347.910, 1199.703 1349.250 C 1197.840 1351.540, 1197 1351.463, 1197 1349 C 1197 1346.762, 1195.966 1346.434, 1194.267 1348.133 C 1193.644 1348.756, 1192.429 1348.995, 1191.567 1348.664 C 1189.853 1348.006, 1189.388 1345, 1191 1345 C 1191.550 1345, 1192 1343.603, 1192 1341.896 L 1192 1338.793 1188.250 1342.095 L 1184.500 1345.398 1184.183 1342.153 C 1183.913 1339.386, 1183.563 1339.004, 1181.808 1339.561 C 1180.310 1340.036, 1179.960 1339.873, 1180.524 1338.961 C 1181.103 1338.024, 1180.630 1337.876, 1178.649 1338.373 C 1176.910 1338.810, 1176 1338.635, 1176 1337.864 C 1176 1337.192, 1175.080 1337.504, 1173.847 1338.595 L 1171.695 1340.500 1172.335 1337.188 C 1172.722 1335.185, 1172.419 1332.546, 1171.569 1330.510 C 1170.397 1327.707, 1169.776 1327.246, 1167.850 1327.749 C 1165.545 1328.352, 1165.544 1328.345, 1167.336 1325.610 C 1168.635 1323.627, 1168.840 1322.513, 1168.076 1321.591 C 1167.494 1320.890, 1167.299 1320.034, 1167.644 1319.689 C 1167.989 1319.344, 1167.596 1318.032, 1166.771 1316.773 C 1165.420 1314.712, 1165.451 1314.149, 1167.079 1311.114 C 1168.614 1308.251, 1168.679 1307.536, 1167.509 1306.366 C 1166.751 1305.608, 1165.849 1304.100, 1165.505 1303.014 C 1165.160 1301.929, 1164.568 1301.080, 1164.189 1301.128 C 1162.046 1301.402, 1159 1299.518, 1159 1297.919 C 1159 1296.902, 1158.117 1295.598, 1157.037 1295.020 C 1155.958 1294.442, 1155.308 1293.361, 1155.593 1292.618 C 1155.894 1291.834, 1154.783 1290.426, 1152.944 1289.262 C 1150.997 1288.029, 1150.205 1286.991, 1150.888 1286.569 C 1152.651 1285.480, 1152.199 1284.412, 1149.444 1283.156 C 1148.038 1282.516, 1147.124 1281.609, 1147.413 1281.141 C 1147.702 1280.673, 1146.827 1279.247, 1145.469 1277.971 C 1144.111 1276.695, 1142.999 1274.942, 1142.999 1274.076 C 1142.998 1273.209, 1141.831 1271.150, 1140.405 1269.500 C 1138.979 1267.850, 1137.123 1265.177, 1136.282 1263.560 C 1134.522 1260.177, 1131.511 1257.352, 1128.190 1255.967 C 1126.919 1255.437, 1126.144 1254.576, 1126.468 1254.052 C 1126.791 1253.529, 1125.424 1252.795, 1123.429 1252.421 C 1120.888 1251.944, 1120.206 1251.484, 1121.151 1250.885 C 1122.003 1250.346, 1122.074 1250.025, 1121.344 1250.015 C 1120.653 1250.006, 1120.415 1249.131, 1120.751 1247.844 C 1121.138 1246.366, 1120.951 1245.912, 1120.158 1246.403 C 1119.470 1246.828, 1119 1246.485, 1119 1245.559 C 1119 1244.632, 1118.087 1243.968, 1116.750 1243.921 C 1115.513 1243.878, 1115.063 1243.615, 1115.750 1243.338 C 1117.926 1242.460, 1117.108 1241.272, 1113.884 1240.627 C 1110.933 1240.037, 1110.843 1239.884, 1112.181 1237.752 C 1113.282 1235.997, 1113.355 1234.793, 1112.512 1232.298 C 1111.917 1230.538, 1111.108 1228.775, 1110.715 1228.382 C 1110.322 1227.988, 1110 1226.617, 1110 1225.333 C 1110 1224.050, 1109.550 1223, 1109 1223 C 1108.450 1223, 1108 1223.450, 1108 1224 C 1108 1224.550, 1107.277 1225, 1106.393 1225 C 1105.401 1225, 1104.999 1225.554, 1105.342 1226.449 C 1105.678 1227.325, 1105.128 1228.142, 1103.949 1228.516 C 1102.877 1228.856, 1102 1229.554, 1102 1230.067 C 1102 1230.580, 1101.100 1231, 1100 1231 C 1098.900 1231, 1098 1231.525, 1098 1232.167 C 1098 1232.808, 1097.695 1233.029, 1097.323 1232.656 C 1096.950 1232.284, 1097.962 1230.605, 1099.571 1228.926 C 1101.255 1227.168, 1101.788 1226.144, 1100.826 1226.513 C 1099.907 1226.866, 1098.906 1227.803, 1098.602 1228.595 C 1098.282 1229.429, 1096.881 1229.972, 1095.275 1229.884 C 1093.749 1229.801, 1091.713 1230.066, 1090.750 1230.474 C 1088.209 1231.549, 1088.596 1230.323, 1091.925 1226.762 C 1094.767 1223.721, 1101.500 1221.144, 1106.867 1221.044 C 1108.826 1221.008, 1109.129 1220.613, 1108.630 1218.750 C 1108.299 1217.513, 1108.021 1216.215, 1108.014 1215.867 C 1107.955 1213.144, 1093 1215.749, 1093 1218.482 C 1093 1220.224, 1087.317 1225, 1085.243 1225 C 1084.145 1225, 1084.649 1224.099, 1086.842 1222.141 C 1089.321 1219.928, 1089.757 1219.049, 1088.772 1218.251 C 1087.228 1217, 1082 1216.903, 1082 1218.125 C 1082 1218.606, 1081.325 1219, 1080.500 1219 C 1079.675 1219, 1079 1219.675, 1079 1220.500 C 1079 1221.325, 1078.325 1222, 1077.500 1222 C 1076.675 1222, 1076 1222.723, 1076 1223.607 C 1076 1224.625, 1075.450 1225.003, 1074.500 1224.638 C 1073.675 1224.322, 1073 1224.499, 1073 1225.031 C 1073 1226.476, 1069.845 1229.333, 1066.680 1230.754 C 1065.144 1231.444, 1064.170 1232.466, 1064.516 1233.025 C 1065.033 1233.863, 1059.181 1237.225, 1056.833 1237.439 C 1056.467 1237.473, 1055.829 1237.838, 1055.417 1238.250 C 1054.219 1239.448, 1053 1239.120, 1053 1237.600 C 1053 1236.831, 1051.398 1232.052, 1049.439 1226.980 C 1047.481 1221.909, 1046.116 1217.139, 1046.408 1216.380 C 1046.699 1215.621, 1046.501 1215, 1045.969 1215 C 1045.436 1215, 1045 1214.100, 1045 1213 C 1045 1211.900, 1044.589 1211, 1044.087 1211 C 1043.586 1211, 1041.965 1207.834, 1040.486 1203.965 C 1038.283 1198.198, 1037.473 1197.032, 1035.996 1197.501 C 1034.567 1197.955, 1033.814 1197.080, 1032.363 1193.287 C 1031.186 1190.210, 1030.407 1189.145, 1030.182 1190.306 C 1029.862 1191.955, 1029.665 1191.920, 1027.916 1189.903 C 1025.809 1187.474, 1025.455 1186.545, 1027 1187.500 C 1028.126 1188.196, 1028.409 1182.743, 1027.304 1181.638 C 1026.484 1180.818, 1025.987 1178.865, 1025.297 1173.756 C 1025.019 1171.696, 1024.430 1170.234, 1023.989 1170.507 C 1023.548 1170.780, 1023.404 1170.171, 1023.670 1169.154 C 1024.057 1167.673, 1022.086 1162.109, 1019.275 1156.750 C 1019.059 1156.338, 1019.282 1156, 1019.772 1156 C 1020.262 1156, 1021.164 1157.013, 1021.776 1158.250 C 1023.827 1162.391, 1026.736 1169.463, 1027.974 1173.317 C 1028.648 1175.416, 1029.397 1176.936, 1029.638 1176.695 C 1029.880 1176.453, 1027.833 1169.561, 1025.090 1161.378 C 1022.347 1153.195, 1016.669 1135.700, 1012.473 1122.500 C 1008.277 1109.300, 1003.142 1094.675, 1001.062 1090 C 998.981 1085.325, 996.522 1079.410, 995.597 1076.856 C 994.643 1074.221, 993.148 1072.011, 992.143 1071.748 C 991.066 1071.466, 989.528 1068.971, 988.218 1065.377 C 987.033 1062.128, 985.353 1058.576, 984.483 1057.485 C 983.022 1055.649, 983.010 1055.725, 984.331 1058.500 C 985.117 1060.150, 986.063 1063.075, 986.434 1065 L 987.110 1068.500 984.142 1065.019 C 982.183 1062.721, 981.206 1060.512, 981.268 1058.519 C 981.359 1055.563, 977.214 1043.022, 975.796 1041.965 C 974.190 1040.769, 972.145 1034.163, 972.710 1032.001 C 973.100 1030.510, 972.941 1029.919, 972.262 1030.338 C 971.683 1030.696, 970.937 1030.279, 970.605 1029.412 C 969.697 1027.046, 969.904 1026.305, 971 1028 C 971.765 1029.184, 971.973 1028.960, 971.985 1026.941 C 971.993 1025.534, 971.288 1023.509, 970.418 1022.441 C 968.859 1020.527, 968.846 1020.528, 969.478 1022.500 C 969.864 1023.705, 969.765 1024.102, 969.228 1023.500 C 967.687 1021.769, 964.700 1010.224, 965.353 1008.523 C 965.696 1007.628, 965.570 1007.148, 965.071 1007.456 C 964.077 1008.071, 960.877 999.299, 960.352 994.514 C 960.169 992.857, 959.628 990.600, 959.149 989.500 C 956.198 982.728, 955.619 977, 957.887 977 C 959.268 977, 958.065 966.851, 955.575 957.496 C 954.159 952.175, 953 946.278, 953 944.392 C 953 942.506, 951.831 937.708, 950.403 933.731 C 948.975 929.754, 947.375 924.711, 946.848 922.525 C 946.320 920.338, 945.546 918.313, 945.127 918.025 C 942.237 916.035, 936.394 903.447, 932.119 890 C 929.408 881.475, 926.259 871.735, 925.120 868.356 C 923.982 864.977, 922.830 860.477, 922.561 858.356 C 922.292 856.235, 920.742 849.775, 919.117 844 C 917.491 838.225, 916.167 831.700, 916.172 829.500 C 916.179 826.977, 913.795 819.222, 909.716 808.500 C 906.160 799.150, 902.444 788.936, 901.459 785.802 C 900.473 782.668, 898.730 779.191, 897.584 778.076 C 896.438 776.960, 894.263 774.892, 892.750 773.478 C 891.237 772.065, 890 770.225, 890 769.389 C 890 768.553, 889.453 766.886, 888.784 765.684 C 886.290 761.202, 883.681 750.259, 883.378 743 C 883.138 737.285, 882.029 732.540, 878.716 723.061 C 876.325 716.220, 873.764 710.421, 873.025 710.175 C 872.100 709.867, 871.888 710.267, 872.345 711.456 C 872.710 712.408, 873.287 714.381, 873.628 715.843 C 874.205 718.314, 874.129 718.387, 872.551 716.891 C 871.617 716.006, 870.475 713.756, 870.013 711.891 C 869.551 710.026, 868.204 706.025, 867.019 703 C 864.535 696.656, 858.735 681.130, 856.934 676 C 856.258 674.075, 854.926 670.925, 853.974 669 C 853.022 667.075, 851.712 663.837, 851.062 661.804 C 850.387 659.694, 849.370 658.298, 848.690 658.550 C 847.949 658.825, 846.464 655.900, 844.754 650.799 C 841.569 641.301, 842.728 641.444, 846.404 651.003 C 850.419 661.444, 849.354 656.527, 844.995 644.500 C 842.803 638.450, 841.294 635.253, 841.643 637.395 C 842.529 642.840, 840.600 641.286, 839.013 635.276 C 835.505 621.988, 833.189 616.932, 828.510 612.343 C 824.931 608.833, 822.274 601.067, 824.237 599.853 C 825.253 599.225, 823.291 593.225, 816.926 577.500 C 816.150 575.583, 814.858 569.868, 814.839 568.267 C 814.834 567.845, 814.454 567.047, 813.995 566.494 C 813.536 565.941, 811.983 560.928, 810.543 555.356 C 809.104 549.783, 805.873 539.886, 803.362 533.362 C 798.928 521.844, 797.770 518.308, 796.037 511 C 795.161 507.307, 788.743 488.004, 783.885 474.450 C 782.298 470.022, 781 465.457, 781 464.304 C 781 463.152, 779.630 458.991, 777.957 455.057 C 776.283 451.124, 774.102 444.664, 773.111 440.703 C 771.383 433.799, 766.155 422.913, 757.886 409 C 752.968 400.724, 748 391.083, 748 389.814 C 748 389.275, 746.592 385.383, 744.872 381.167 C 743.151 376.950, 741.386 371.925, 740.949 370 C 740.513 368.075, 739.824 365.417, 739.420 364.094 C 738.877 362.314, 739.006 361.886, 739.916 362.448 C 740.834 363.016, 740.907 362.737, 740.201 361.355 C 733.318 347.878, 718.591 308.110, 715.090 293.548 C 713.641 287.521, 707.523 273.381, 705.482 271.339 C 704.667 270.524, 704 269.284, 704 268.584 C 704 267.883, 703.147 266.538, 702.105 265.595 C 701.063 264.652, 699.983 262.895, 699.706 261.690 C 699.429 260.486, 697.542 253.875, 695.514 247 C 693.486 240.125, 691.256 232.475, 690.558 230 C 689.861 227.525, 686.032 214.925, 682.049 202 C 678.066 189.075, 673.531 174.225, 671.972 169 C 665.868 148.554, 659.436 133.700, 649.081 116.138 C 647.387 113.264, 646 110.708, 646 110.458 C 646 109.626, 635.841 91.587, 631.643 84.966 C 629.364 81.372, 626.942 77.547, 626.259 76.466 C 625.576 75.385, 623.856 72.313, 622.436 69.639 C 619.950 64.959, 615.476 60.097, 613.595 60.032 C 613.097 60.014, 613.547 60.976, 614.595 62.170 C 616.395 64.219, 616.399 64.302, 614.668 63.670 C 613.661 63.301, 612.648 63, 612.418 63 C 612.188 63, 612 62.403, 612 61.674 C 612 59.616, 607.981 56.340, 602.667 54.067 C 596.896 51.599, 596.596 51.577, 595 53.500 M 549.500 57.713 C 545.544 58.665, 545.573 60, 549.550 60.048 C 551.722 60.074, 555.934 60.307, 558.908 60.566 L 564.317 61.037 561.751 59.018 C 559.269 57.066, 554.362 56.544, 549.500 57.713 M 541 547.448 C 541 548.245, 539.863 552.632, 538.474 557.198 C 533.677 572.960, 532.067 578.537, 529.435 588.500 C 527.983 594, 525.442 602.550, 523.789 607.500 C 522.136 612.450, 520.596 617.525, 520.367 618.778 C 520.138 620.031, 518.372 625.431, 516.443 630.778 C 509.801 649.188, 507.148 657.525, 504.992 666.757 C 503.681 672.369, 502.428 675.764, 501.808 675.381 C 501.174 674.990, 501.025 675.504, 501.415 676.734 C 501.797 677.936, 501.456 679.207, 500.549 679.959 C 499.726 680.642, 498.772 682.843, 498.428 684.850 C 498.084 686.858, 497.173 690.719, 496.402 693.432 C 495.631 696.144, 495 700.059, 495 702.133 C 495 706.138, 492.801 715.635, 491.166 718.690 C 490.627 719.697, 490.425 721.773, 490.717 723.302 C 491.104 725.325, 490.875 726.004, 489.875 725.792 C 488.972 725.600, 488.512 726.420, 488.534 728.175 C 488.552 729.647, 488.262 730.662, 487.888 730.431 C 486.853 729.791, 486.072 732.558, 486.656 734.793 C 486.942 735.885, 485.575 743.016, 483.620 750.639 C 477.822 773.243, 477.806 773.293, 476.828 771.830 C 476.269 770.994, 476.185 771.554, 476.601 773.340 C 477.193 775.883, 475.639 783.244, 472.872 791 C 472.083 793.213, 472.035 793.132, 472.456 790.294 C 472.835 787.746, 472.626 787.206, 471.436 787.663 C 470.493 788.025, 470.164 788.941, 470.546 790.144 C 470.951 791.419, 470.712 791.959, 469.825 791.775 C 468.551 791.511, 468.466 791.872, 468.892 795.750 C 469.243 798.942, 475.451 801.931, 481.575 801.858 C 484.627 801.821, 487.393 802.060, 487.720 802.387 C 488.048 802.715, 488.931 802.472, 489.682 801.849 C 490.434 801.225, 491.337 801.004, 491.691 801.357 C 492.658 802.325, 491.506 803.092, 488.863 803.240 C 487.563 803.312, 485.612 803.963, 484.527 804.686 C 483.443 805.409, 481.193 806.007, 479.527 806.015 C 477.862 806.024, 475.825 806.470, 475 807.006 C 473.987 807.665, 475.477 807.782, 479.593 807.365 C 484.210 806.897, 486.269 807.123, 488.093 808.297 C 489.821 809.410, 492.273 809.737, 496.789 809.458 C 500.248 809.245, 503.463 808.832, 503.934 808.541 C 505.282 807.708, 505.971 810.629, 504.722 811.878 C 503.323 813.277, 497.642 813.388, 498.500 812 C 499.411 810.525, 494.794 810.840, 492.750 812.392 C 491.788 813.123, 491 814.019, 491 814.383 C 491 815.136, 511.325 814.553, 523.817 813.441 C 528.905 812.989, 531.623 812.377, 530.817 811.866 C 529.891 811.279, 530.186 811.026, 531.809 811.015 C 533.097 811.007, 533.845 811.442, 533.500 812 C 532.582 813.485, 547.384 813.248, 562.006 811.544 C 568.878 810.743, 586.858 808.698, 601.962 806.999 C 617.066 805.300, 629.599 803.734, 629.814 803.519 C 630.029 803.304, 629.005 800.512, 627.537 797.314 C 626.070 794.116, 623.584 786.550, 622.013 780.500 C 620.441 774.450, 616.603 761.625, 613.483 752 C 610.362 742.375, 607.565 731.913, 607.266 728.750 C 606.967 725.587, 606.356 723, 605.908 723 C 605.460 723, 604.655 721.538, 604.119 719.750 C 603.583 717.962, 601.536 712.276, 599.572 707.114 C 597.607 701.952, 596 697.114, 596 696.364 C 596 693.719, 597.859 695.043, 599 698.500 C 599.635 700.425, 600.570 702, 601.078 702 C 602.239 702, 602.258 700.483, 601.123 698.236 C 599.494 695.012, 598 689.375, 597.994 686.429 C 597.990 684.818, 597.337 682.253, 596.542 680.728 C 595.747 679.204, 595.145 676.054, 595.204 673.728 C 595.331 668.741, 592.479 658.464, 588.064 648 C 583.425 637.007, 582.395 634.098, 580.978 628 C 579.689 622.449, 577.923 618.970, 574.791 615.808 C 573.852 614.859, 572.171 612.295, 571.056 610.109 C 569.941 607.924, 568.526 605.825, 567.912 605.446 C 567.298 605.066, 566.153 603.348, 565.366 601.628 C 564.580 599.908, 563.084 597.150, 562.041 595.500 C 560.999 593.850, 560.113 591.760, 560.073 590.855 C 560.033 589.951, 558.168 584.551, 555.930 578.855 C 553.691 573.160, 550.923 566.097, 549.777 563.160 C 548.632 560.223, 547.091 557.588, 546.353 557.305 C 545.615 557.022, 545.263 556.384, 545.570 555.886 C 546.397 554.549, 545.008 550.877, 543.928 551.544 C 543.418 551.860, 543 550.741, 543 549.059 C 543 547.377, 542.550 546, 542 546 C 541.450 546, 541 546.652, 541 547.448 M 540.684 559.382 C 540.308 560.362, 540.029 561.914, 540.063 562.832 C 540.105 563.937, 540.453 563.685, 541.092 562.086 C 541.623 560.758, 541.902 559.206, 541.712 558.636 C 541.522 558.067, 541.059 558.403, 540.684 559.382 M 822.071 586.500 C 822.071 587.050, 822.714 588.625, 823.500 590 C 824.286 591.375, 824.929 592.050, 824.929 591.500 C 824.929 590.950, 824.286 589.375, 823.500 588 C 822.714 586.625, 822.071 585.950, 822.071 586.500 M 827.414 599 C 827.655 599.825, 828.767 602.750, 829.886 605.500 C 831.005 608.250, 833.745 615.225, 835.974 621 C 838.204 626.775, 839.745 629.925, 839.399 628 C 839.052 626.075, 838.433 624.050, 838.022 623.500 C 837.611 622.950, 836.506 620.025, 835.566 617 C 834.626 613.975, 832.309 608.350, 830.417 604.500 C 828.525 600.650, 827.173 598.175, 827.414 599 M 834 606.953 C 834 608.621, 836.289 613, 837.161 613 C 838.335 613, 838.221 612.328, 836.474 608.950 C 834.930 605.964, 834 605.213, 834 606.953 M 517.079 647.583 C 517.127 648.748, 517.364 648.985, 517.683 648.188 C 517.972 647.466, 517.936 646.603, 517.604 646.271 C 517.272 645.939, 517.036 646.529, 517.079 647.583 M 584.500 660 C 584.840 660.550, 585.316 661, 585.559 661 C 585.802 661, 586 660.550, 586 660 C 586 659.450, 585.523 659, 584.941 659 C 584.359 659, 584.160 659.450, 584.500 660 M 848.543 663.250 C 850.027 668.174, 852.832 673.494, 852.894 671.500 C 852.962 669.309, 849.471 661, 848.482 661 C 848.143 661, 848.170 662.013, 848.543 663.250 M 855 664.632 C 855 666.129, 858.705 673, 859.512 673 C 860.051 673, 858.356 667.533, 857.075 665.139 C 855.706 662.583, 855 662.410, 855 664.632 M 845.070 666.191 C 845.032 667.671, 845.450 669.160, 846 669.500 C 847.194 670.238, 847.194 668.278, 846 665.500 C 845.233 663.714, 845.133 663.788, 845.070 666.191 M 856.186 682.750 C 858.762 688.652, 859.350 689.349, 858.503 685.498 C 857.665 681.682, 855.889 678, 854.887 678 C 854.461 678, 855.046 680.138, 856.186 682.750 M 862.215 684.750 C 863.395 687.913, 865.180 691.305, 866.181 692.289 C 868.512 694.582, 868.496 694.451, 865.384 686.057 C 863.914 682.091, 862.177 679, 861.418 679 C 860.377 679, 860.559 680.316, 862.215 684.750 M 602.032 707.128 C 602.014 708.023, 602.675 709.315, 603.500 710 C 605.423 711.596, 605.443 709.968, 603.532 707.441 C 602.298 705.810, 602.059 705.760, 602.032 707.128 M 476.500 768 C 476.160 768.550, 476.359 769, 476.941 769 C 477.523 769, 478 768.550, 478 768 C 478 767.450, 477.802 767, 477.559 767 C 477.316 767, 476.840 767.450, 476.500 768 M 489.080 773.704 C 488.501 775.852, 487.798 779.159, 487.518 781.054 C 487.237 782.950, 487.881 781.363, 488.949 777.529 C 490.017 773.695, 490.720 770.387, 490.511 770.178 C 490.302 769.969, 489.658 771.556, 489.080 773.704 M 483.813 798.683 C 484.534 798.972, 485.397 798.936, 485.729 798.604 C 486.061 798.272, 485.471 798.036, 484.417 798.079 C 483.252 798.127, 483.015 798.364, 483.813 798.683 M 490.750 799.662 C 491.438 799.940, 492.563 799.940, 493.250 799.662 C 493.938 799.385, 493.375 799.158, 492 799.158 C 490.625 799.158, 490.063 799.385, 490.750 799.662 M 562.750 803.662 C 563.438 803.940, 564.563 803.940, 565.250 803.662 C 565.938 803.385, 565.375 803.158, 564 803.158 C 562.625 803.158, 562.063 803.385, 562.750 803.662 M 519.433 805.892 C 519.994 806.799, 518.895 806.922, 514.936 806.397 C 511.292 805.914, 509.901 806.030, 510.364 806.780 C 510.746 807.397, 510.064 808.043, 508.765 808.292 C 507.109 808.611, 507.374 808.764, 509.750 808.864 C 512.914 808.996, 513.740 810.589, 511.500 812.235 C 510.950 812.639, 511.764 812.976, 513.309 812.985 C 514.854 812.993, 515.872 812.601, 515.570 812.114 C 515.269 811.626, 516.010 810.969, 517.218 810.653 C 518.425 810.338, 519.102 809.768, 518.722 809.389 C 518.342 809.009, 518.767 808.159, 519.667 807.502 C 520.966 806.552, 521.034 806.139, 519.997 805.498 C 519.116 804.954, 518.932 805.082, 519.433 805.892 M 531 808.940 C 531 810.201, 536.114 810.903, 538.440 809.961 C 540.659 809.062, 540.442 808.974, 534.750 808.455 C 532.688 808.267, 531 808.486, 531 808.940 M 959.610 957.500 C 960.433 961.177, 961.005 961.975, 960.985 959.417 C 960.976 958.362, 960.513 956.825, 959.954 956 C 959.213 954.905, 959.120 955.309, 959.610 957.500 M 961.079 963.583 C 961.127 964.748, 961.364 964.985, 961.683 964.188 C 961.972 963.466, 961.936 962.603, 961.604 962.271 C 961.272 961.939, 961.036 962.529, 961.079 963.583 M 962.079 967.583 C 962.127 968.748, 962.364 968.985, 962.683 968.188 C 962.972 967.466, 962.936 966.603, 962.604 966.271 C 962.272 965.939, 962.036 966.529, 962.079 967.583 M 964.086 974 C 964.055 974.825, 964.467 976.175, 965 977 C 966.181 978.828, 966.181 977.249, 965 974.500 C 964.433 973.181, 964.122 973.011, 964.086 974 M 960.031 977 C 960.031 977.825, 960.467 979.175, 961 980 C 961.862 981.333, 961.969 981.333, 961.969 980 C 961.969 979.175, 961.533 977.825, 961 977 C 960.138 975.667, 960.031 975.667, 960.031 977 M 962.086 982.500 C 962.190 984.394, 963.856 987.584, 963.914 986 C 963.945 985.175, 963.533 983.825, 963 983 C 962.467 982.175, 962.055 981.950, 962.086 982.500 M 967 997.813 C 967 1000.169, 972.019 1012.315, 972.708 1011.626 C 973.094 1011.239, 968.296 997.963, 967.471 997.138 C 967.212 996.879, 967 997.183, 967 997.813 M 975 1010.941 C 975 1011.459, 975.445 1012.157, 975.989 1012.493 C 976.555 1012.843, 976.723 1012.442, 976.382 1011.552 C 975.717 1009.820, 975 1009.503, 975 1010.941 M 980.280 1034.750 C 980.562 1035.713, 981.488 1038.525, 982.337 1041 C 983.187 1043.475, 984.346 1047.309, 984.912 1049.519 C 985.479 1051.730, 986.589 1054.423, 987.380 1055.505 C 988.686 1057.292, 988.748 1057.107, 988.055 1053.486 C 987.635 1051.293, 986.253 1046.350, 984.983 1042.500 C 983.712 1038.650, 982.536 1034.938, 982.368 1034.250 C 982.200 1033.563, 981.546 1033, 980.915 1033 C 980.283 1033, 979.998 1033.787, 980.280 1034.750 M 973.564 1035.293 C 973.940 1036.279, 974.499 1036.834, 974.807 1036.526 C 975.115 1036.219, 974.808 1035.412, 974.124 1034.733 C 973.136 1033.753, 973.022 1033.868, 973.564 1035.293 M 963 1036.882 C 963 1037.432, 963.450 1038.160, 964 1038.500 C 964.550 1038.840, 965 1038.668, 965 1038.118 C 965 1037.568, 964.550 1036.840, 964 1036.500 C 963.450 1036.160, 963 1036.332, 963 1036.882 M 396.769 1090.769 C 394.587 1096.838, 395.258 1097.509, 397.538 1091.538 C 398.501 1089.018, 399.099 1086.765, 398.867 1086.533 C 398.634 1086.301, 397.691 1088.207, 396.769 1090.769 M 387.731 1110.146 C 385.597 1113.864, 385.485 1116.135, 387.473 1115.372 C 388.818 1114.856, 390.763 1108.430, 389.851 1107.518 C 389.637 1107.304, 388.683 1108.487, 387.731 1110.146 M 379.079 1143.583 C 379.127 1144.748, 379.364 1144.985, 379.683 1144.188 C 379.972 1143.466, 379.936 1142.603, 379.604 1142.271 C 379.272 1141.939, 379.036 1142.529, 379.079 1143.583 M 377.158 1152 C 377.158 1153.375, 377.385 1153.938, 377.662 1153.250 C 377.940 1152.563, 377.940 1151.438, 377.662 1150.750 C 377.385 1150.063, 377.158 1150.625, 377.158 1152 M 375.731 1156.920 C 375.296 1158.583, 375.426 1158.974, 376.168 1158.232 C 376.750 1157.650, 377.028 1156.585, 376.788 1155.863 C 376.538 1155.114, 376.085 1155.568, 375.731 1156.920 M 380.278 1160.250 C 378.324 1162.777, 377.657 1164.330, 378.840 1163.599 C 380.024 1162.867, 382.393 1159, 381.658 1159 C 381.431 1159, 380.810 1159.563, 380.278 1160.250 M 373 1163.500 C 373 1164.325, 373.177 1165, 373.393 1165 C 373.609 1165, 374.045 1164.325, 374.362 1163.500 C 374.678 1162.675, 374.501 1162, 373.969 1162 C 373.436 1162, 373 1162.675, 373 1163.500 M 375.929 1176.366 C 375.291 1178.901, 374.371 1180.729, 373.884 1180.429 C 373.398 1180.128, 373 1180.359, 373 1180.941 C 373 1181.523, 373.582 1182, 374.293 1182 C 375.564 1182, 378.528 1173.195, 377.577 1172.244 C 377.309 1171.976, 376.568 1173.831, 375.929 1176.366 M 1031.817 1186.274 C 1032.230 1189.151, 1036.008 1195.582, 1035.994 1193.385 C 1035.980 1191.078, 1033.825 1185.100, 1032.660 1184.132 C 1031.618 1183.268, 1031.447 1183.703, 1031.817 1186.274 M 371.600 1193.600 C 371.244 1194.527, 371.178 1195.511, 371.453 1195.786 C 371.728 1196.061, 372.244 1195.527, 372.600 1194.600 C 372.956 1193.673, 373.022 1192.689, 372.747 1192.414 C 372.472 1192.139, 371.956 1192.673, 371.600 1193.600 M 1036 1202 C 1036 1202.550, 1036.450 1203, 1037 1203 C 1037.550 1203, 1038 1202.550, 1038 1202 C 1038 1201.450, 1037.550 1201, 1037 1201 C 1036.450 1201, 1036 1201.450, 1036 1202 M 370.204 1204.045 C 369.532 1205.120, 369.389 1206, 369.885 1206 C 370.782 1206, 372.328 1202.995, 371.736 1202.402 C 371.564 1202.231, 370.875 1202.970, 370.204 1204.045 M 1037.500 1206 C 1037.840 1206.550, 1038.316 1207, 1038.559 1207 C 1038.802 1207, 1039 1206.550, 1039 1206 C 1039 1205.450, 1038.523 1205, 1037.941 1205 C 1037.359 1205, 1037.160 1205.450, 1037.500 1206 M 1089.500 1216 C 1089.160 1216.550, 1089.332 1217, 1089.882 1217 C 1090.432 1217, 1091.160 1216.550, 1091.500 1216 C 1091.840 1215.450, 1091.668 1215, 1091.118 1215 C 1090.568 1215, 1089.840 1215.450, 1089.500 1216 M 363.583 1228.866 C 363.152 1229.563, 363.070 1230.403, 363.400 1230.733 C 364.295 1231.628, 365.271 1230.312, 364.787 1228.862 C 364.449 1227.846, 364.213 1227.846, 363.583 1228.866 M 787.031 1235.500 C 787.031 1236.050, 787.467 1237.175, 788 1238 C 788.533 1238.825, 788.969 1239.050, 788.969 1238.500 C 788.969 1237.950, 788.533 1236.825, 788 1236 C 787.467 1235.175, 787.031 1234.950, 787.031 1235.500 M 1060.500 1238 C 1060.160 1238.550, 1060.359 1239, 1060.941 1239 C 1061.523 1239, 1062 1238.550, 1062 1238 C 1062 1237.450, 1061.802 1237, 1061.559 1237 C 1061.316 1237, 1060.840 1237.450, 1060.500 1238 M 360.374 1242.467 C 360.065 1243.274, 360.004 1244.511, 360.240 1245.217 C 360.476 1245.923, 360.906 1245.263, 361.196 1243.750 C 361.762 1240.797, 361.295 1240.068, 360.374 1242.467 M 357.500 1253 C 357.125 1254.183, 357.042 1255.376, 357.317 1255.651 C 357.592 1255.926, 358.125 1255.183, 358.500 1254 C 358.875 1252.817, 358.958 1251.624, 358.683 1251.349 C 358.408 1251.074, 357.875 1251.817, 357.500 1253 M 348.932 1261.679 C 348.372 1263.153, 347.723 1265.965, 347.490 1267.929 C 347.257 1269.893, 346.805 1272.850, 346.486 1274.500 C 345.915 1277.448, 345.933 1277.440, 347.485 1274.057 C 348.355 1272.163, 348.840 1270.026, 348.564 1269.307 C 348.288 1268.588, 348.453 1268, 348.931 1268 C 349.408 1268, 349.960 1265.975, 350.157 1263.500 C 350.570 1258.302, 350.344 1257.965, 348.932 1261.679 M 348.372 1286.094 C 347.752 1286.867, 346.914 1288.578, 346.509 1289.894 L 345.774 1292.289 347.978 1290.235 C 349.190 1289.106, 350.028 1287.396, 349.841 1286.435 C 349.554 1284.967, 349.320 1284.912, 348.372 1286.094 M 802 1309.941 C 802 1310.459, 802.445 1311.157, 802.989 1311.493 C 803.555 1311.843, 803.723 1311.442, 803.382 1310.552 C 802.717 1308.820, 802 1308.503, 802 1309.941 M 1175 1321.441 C 1175 1322.848, 1174.550 1324, 1174 1324 C 1173.450 1324, 1173 1324.487, 1173 1325.083 C 1173 1325.679, 1173.538 1325.987, 1174.195 1325.768 C 1175.734 1325.255, 1177.110 1320.186, 1175.912 1319.446 C 1175.411 1319.136, 1175 1320.034, 1175 1321.441 M 1172 1322 C 1172 1322.550, 1172.450 1323, 1173 1323 C 1173.550 1323, 1174 1322.550, 1174 1322 C 1174 1321.450, 1173.550 1321, 1173 1321 C 1172.450 1321, 1172 1321.450, 1172 1322 M 324.063 1401.094 C 324.029 1402.520, 322.171 1408.978, 319.935 1415.445 C 317.699 1421.912, 316.094 1427.428, 316.369 1427.702 C 316.644 1427.977, 317.383 1426.291, 318.012 1423.955 C 318.641 1421.620, 320.040 1418.512, 321.122 1417.049 C 323.941 1413.236, 326.244 1403.785, 325.068 1400.850 L 324.127 1398.500 324.063 1401.094 M 315.079 1429.668 C 315.036 1430.311, 314.741 1431.661, 314.424 1432.668 C 313.877 1434.409, 313.906 1434.412, 314.995 1432.712 C 315.626 1431.729, 315.920 1430.379, 315.650 1429.712 C 315.295 1428.837, 315.136 1428.825, 315.079 1429.668 M 820.872 1435.750 C 819.629 1437.336, 819.664 1437.371, 821.250 1436.128 C 822.916 1434.821, 823.445 1434, 822.622 1434 C 822.415 1434, 821.627 1434.787, 820.872 1435.750 M 311.776 1441.500 C 311.426 1443.150, 310.877 1445.400, 310.555 1446.500 C 310.234 1447.600, 310.675 1446.985, 311.536 1445.133 C 312.397 1443.281, 312.946 1441.031, 312.756 1440.133 C 312.557 1439.189, 312.143 1439.765, 311.776 1441.500 M 811.139 1444.033 C 808.039 1446.616, 809.439 1446.587, 812.727 1444 C 814.126 1442.900, 814.872 1442.015, 814.385 1442.033 C 813.898 1442.052, 812.438 1442.952, 811.139 1444.033 M 283.459 1537.067 C 283.096 1537.653, 283.014 1538.348, 283.276 1538.610 C 283.538 1538.872, 284.019 1538.392, 284.345 1537.543 C 285.021 1535.781, 284.445 1535.471, 283.459 1537.067 M 68 1584.941 C 68 1587.356, 68.556 1587.599, 69.349 1585.532 C 69.659 1584.725, 69.482 1583.798, 68.956 1583.473 C 68.430 1583.148, 68 1583.809, 68 1584.941 M 266.218 1614.699 C 265.661 1616.240, 264.885 1618.287, 264.495 1619.250 C 264.105 1620.213, 264.229 1621, 264.771 1621 C 265.313 1621, 266.238 1619.102, 266.827 1616.782 C 268.069 1611.889, 267.696 1610.613, 266.218 1614.699 M 261.079 1613.668 C 261.036 1614.311, 260.741 1615.661, 260.424 1616.668 C 259.877 1618.409, 259.906 1618.412, 260.995 1616.712 C 261.626 1615.729, 261.920 1614.379, 261.650 1613.712 C 261.295 1612.837, 261.136 1612.825, 261.079 1613.668 M 263.079 1626.668 C 263.036 1627.311, 262.741 1628.661, 262.424 1629.668 C 261.877 1631.409, 261.906 1631.412, 262.995 1629.712 C 263.626 1628.729, 263.920 1627.379, 263.650 1626.712 C 263.295 1625.837, 263.136 1625.825, 263.079 1626.668 M 978.389 1632.779 C 976.678 1634.276, 973.680 1636.844, 971.726 1638.486 C 969.773 1640.129, 968.346 1641.751, 968.556 1642.090 C 968.766 1642.430, 967.755 1643.246, 966.309 1643.905 C 964.219 1644.857, 963.512 1644.836, 962.856 1643.801 C 962.277 1642.889, 962.026 1642.856, 962.015 1643.691 C 961.990 1645.648, 963.585 1646.041, 966.885 1644.890 C 968.598 1644.293, 970 1643.098, 970 1642.236 C 970 1641.373, 970.234 1640.900, 970.519 1641.186 C 971.058 1641.724, 982 1631.622, 982 1630.586 C 982 1629.692, 981.737 1629.851, 978.389 1632.779 M 980.020 1635.476 C 979.231 1636.426, 979.155 1637, 979.819 1637 C 981.027 1637, 982.436 1635.103, 981.743 1634.409 C 981.491 1634.158, 980.716 1634.638, 980.020 1635.476 M 973.333 1641.528 C 973.333 1643.257, 975.166 1643.001, 975.771 1641.188 C 975.989 1640.534, 975.529 1640, 974.750 1640 C 973.971 1640, 973.333 1640.688, 973.333 1641.528 M 753.543 1642.931 C 753.226 1643.443, 753.425 1644.144, 753.984 1644.490 C 754.543 1644.835, 755 1644.416, 755 1643.559 C 755 1641.802, 754.400 1641.544, 753.543 1642.931 M 958.500 1659 C 958.160 1659.550, 958.332 1660, 958.882 1660 C 959.432 1660, 960.160 1659.550, 960.500 1659 C 960.840 1658.450, 960.668 1658, 960.118 1658 C 959.568 1658, 958.840 1658.450, 958.500 1659 M 945 1662.763 C 943.204 1664.596, 942.993 1665.138, 944.250 1664.688 C 945.426 1664.268, 946 1664.564, 946 1665.590 C 946 1666.431, 946.481 1666.821, 947.068 1666.458 C 947.656 1666.095, 947.888 1665.151, 947.585 1664.361 C 947.282 1663.571, 947.699 1662.669, 948.511 1662.357 C 949.324 1662.046, 949.740 1661.388, 949.435 1660.895 C 948.619 1659.574, 947.776 1659.929, 945 1662.763 M 781 1663.500 C 780.315 1664.325, 780.148 1665.007, 780.628 1665.015 C 781.107 1665.024, 780.825 1665.457, 780 1665.979 C 778.688 1666.809, 778.719 1667.147, 780.250 1668.678 C 781.917 1670.345, 782.006 1670.323, 782.125 1668.214 C 782.297 1665.170, 782.415 1664.683, 783.324 1663.250 C 784.447 1661.482, 782.501 1661.691, 781 1663.500 M 810 1693.500 C 810 1694.325, 810.436 1695, 810.969 1695 C 811.501 1695, 811.678 1694.325, 811.362 1693.500 C 811.045 1692.675, 810.609 1692, 810.393 1692 C 810.177 1692, 810 1692.675, 810 1693.500 M 813 1695 C 813 1696.100, 813.408 1697, 813.906 1697 C 814.405 1697, 814.577 1696.100, 814.290 1695 C 814.002 1693.900, 813.594 1693, 813.383 1693 C 813.173 1693, 813 1693.900, 813 1695 M 829 1705.059 C 829 1705.641, 829.450 1705.840, 830 1705.500 C 830.550 1705.160, 831 1704.684, 831 1704.441 C 831 1704.198, 830.550 1704, 830 1704 C 829.450 1704, 829 1704.477, 829 1705.059 M 836.250 1709.518 C 836.250 1710.883, 836.644 1712, 837.125 1712 C 837.606 1712, 838 1711.127, 838 1710.059 C 838 1708.991, 837.606 1707.875, 837.125 1707.577 C 836.644 1707.280, 836.250 1708.153, 836.250 1709.518" stroke="none" fill="black" fill-rule="evenodd"/>
</svg>