<svg xmlns="http://www.w3.org/2000/svg" width="1240" height="1753" viewBox="0 0 1240 1753" version="1.1">
	<path d="M 509.226 16.985 C 507.425 18.093, 504.789 19, 503.367 19 C 501.130 19, 500.865 19.326, 501.394 21.432 C 501.856 23.276, 501.539 24.011, 500.083 24.474 C 498.755 24.895, 497.957 26.383, 497.501 29.292 C 497.137 31.606, 495.795 36.650, 494.517 40.500 C 492.399 46.887, 492.229 48.858, 492.582 63 C 492.994 79.529, 492.710 82, 490.397 82 C 489.590 82, 487.933 82.637, 486.715 83.416 C 485.497 84.195, 479.677 85.983, 473.783 87.389 C 467.889 88.795, 461.513 90.594, 459.615 91.388 C 457.716 92.181, 456.006 92.673, 455.815 92.481 C 455.377 92.044, 438.961 94.504, 429 96.499 C 424.875 97.325, 419.925 98.242, 418 98.537 C 416.075 98.832, 414.349 99.510, 414.165 100.043 C 413.980 100.576, 413.431 100.766, 412.944 100.465 C 412.457 100.164, 410.753 100.594, 409.156 101.419 C 407.560 102.245, 405.934 102.601, 405.543 102.210 C 405.153 101.820, 404.983 102.103, 405.167 102.841 C 405.381 103.703, 403.566 104.777, 400.079 105.852 C 397.098 106.771, 394.449 108.152, 394.193 108.921 C 393.874 109.878, 394.243 110.121, 395.364 109.691 C 396.264 109.345, 397 109.465, 397 109.956 C 397 110.860, 386.884 114.217, 386.205 113.539 C 386.003 113.336, 387.445 112.408, 389.410 111.476 C 391.375 110.543, 392.738 109.385, 392.439 108.901 C 392.140 108.418, 390.858 108.702, 389.589 109.534 C 388.320 110.365, 386.543 110.762, 385.641 110.416 C 384.738 110.069, 384 110.264, 384 110.848 C 384 111.432, 382.444 112.201, 380.542 112.558 C 375.060 113.586, 370.012 115.545, 367.665 117.554 C 366.474 118.574, 365.369 119.272, 365.210 119.105 C 364.452 118.312, 342.614 127.947, 337.901 131.153 C 336.471 132.126, 333.096 133.665, 330.401 134.574 C 327.705 135.483, 325.150 136.833, 324.723 137.573 C 324.295 138.314, 322.383 139.213, 320.473 139.571 C 318.523 139.937, 317 140.821, 317 141.588 C 317 142.339, 315.313 143.792, 313.250 144.817 C 289.712 156.518, 273.140 168.480, 248.368 191.650 C 246.320 193.566, 245 195.759, 245 197.247 C 245 198.931, 243.519 200.956, 240.250 203.743 C 237.637 205.970, 232.463 210.367, 228.750 213.513 C 225.037 216.660, 222 219.579, 222 220.001 C 222 220.423, 219.114 223.740, 215.587 227.373 C 212.060 231.006, 209.015 234.320, 208.821 234.739 C 207.472 237.648, 203.646 243, 202.915 243 C 202.426 243, 201.394 244.463, 200.621 246.250 C 199.847 248.037, 196.917 252.179, 194.110 255.453 C 191.303 258.728, 188.719 262.328, 188.368 263.453 C 188.017 264.579, 187.454 265.725, 187.115 266 C 186.431 266.556, 185.543 267.987, 180.910 276 C 179.161 279.025, 177.453 281.725, 177.115 282 C 176.282 282.678, 171.994 291.301, 171.997 292.292 C 171.999 292.727, 171.151 293.995, 170.113 295.109 C 167.146 298.293, 164.117 307.236, 164.654 311.222 C 164.991 313.720, 164.702 314.900, 163.658 315.301 C 162.850 315.611, 161.899 317.183, 161.545 318.794 C 161.157 320.563, 159.911 322.175, 158.402 322.863 C 156.419 323.766, 156.102 324.360, 156.870 325.733 C 157.533 326.917, 157.423 328.260, 156.522 329.982 C 155.798 331.367, 154.642 334.398, 153.953 336.717 C 153.265 339.036, 152.345 340.713, 151.909 340.444 C 151.474 340.175, 151.203 341.202, 151.309 342.727 C 151.414 344.252, 151.031 345.419, 150.458 345.319 C 149.885 345.220, 148.359 348.595, 147.068 352.819 C 145.776 357.044, 144.368 360.954, 143.938 361.509 C 143.099 362.590, 140.777 372.071, 138.557 383.474 C 135.944 396.897, 134.860 408.817, 135.179 420.625 C 135.480 431.773, 134.852 439.083, 131.493 463.500 C 128.895 482.388, 127.982 505.185, 129.171 521.472 C 129.614 527.537, 130.198 537.675, 130.468 544 C 131.064 557.925, 134.992 584.278, 137.996 594.500 C 138.481 596.150, 139.846 602.450, 141.029 608.500 C 143.019 618.676, 146.492 629.099, 152.565 643.125 C 153.904 646.219, 155 649.426, 155 650.253 C 155 651.079, 155.650 652.295, 156.445 652.955 C 157.240 653.614, 158.603 656.299, 159.474 658.922 C 161.462 664.907, 165.030 669.809, 167 669.263 C 168.161 668.942, 168.206 669.055, 167.199 669.765 C 166.160 670.497, 166.142 671.217, 167.109 673.341 C 167.776 674.803, 168.699 676, 169.161 676 C 169.622 676, 170 676.815, 170 677.811 C 170 678.808, 170.787 680.499, 171.750 681.570 C 172.713 682.641, 174.798 685.989, 176.384 689.009 C 177.970 692.029, 181.345 697.578, 183.884 701.341 C 186.423 705.104, 189.546 709.941, 190.825 712.091 C 192.104 714.241, 193.566 716, 194.075 716 C 194.584 716, 195 716.498, 195 717.106 C 195 720.601, 222.976 750.108, 231.250 755.339 C 234.413 757.339, 237 759.359, 237 759.828 C 237 760.297, 238.615 761.829, 240.588 763.234 C 242.561 764.638, 247.447 768.872, 251.444 772.643 C 255.441 776.414, 262.431 782.875, 266.978 787 C 271.524 791.125, 276.877 796.075, 278.872 798 C 286.187 805.056, 297.795 815.061, 304.559 820.140 C 310.981 824.963, 325.352 834, 326.599 834 C 326.896 834, 329.246 835.453, 331.820 837.230 C 334.394 839.006, 339.200 841.740, 342.500 843.305 C 345.800 844.870, 350.300 847.495, 352.500 849.137 C 354.700 850.779, 363.025 855.963, 371 860.657 C 378.975 865.352, 386.175 869.779, 387 870.495 C 389.597 872.749, 394.800 875.508, 443.500 900.446 C 467.390 912.680, 468.563 913.310, 474.500 917.113 C 479.713 920.452, 496.580 927.322, 505.911 929.908 C 512.851 931.831, 525.705 937.731, 529 940.506 C 531.041 942.224, 549.046 951, 550.530 951 C 551.185 951, 553.471 952.200, 555.610 953.668 C 559.796 956.538, 567.919 960.685, 591.500 971.989 C 612.774 982.187, 621.427 986.251, 630 990.072 C 634.125 991.910, 639.842 994.655, 642.705 996.171 C 645.568 997.687, 648.718 999.356, 649.705 999.880 C 653.178 1001.722, 658.814 1004, 659.901 1004 C 660.506 1004, 661 1004.441, 661 1004.981 C 661 1005.520, 662.125 1006.244, 663.500 1006.589 C 664.875 1006.934, 666 1007.588, 666 1008.041 C 666 1008.494, 666.819 1009.125, 667.821 1009.443 C 668.823 1009.761, 671.060 1011.408, 672.794 1013.103 C 677.367 1017.574, 678.720 1016.201, 674.547 1011.325 C 672.596 1009.047, 671 1006.916, 671 1006.591 C 671 1005.380, 674.083 1006.052, 674.590 1007.374 C 674.880 1008.130, 677.572 1010.439, 680.573 1012.506 C 687.135 1017.026, 696.772 1027.211, 698.580 1031.538 C 699.299 1033.259, 702.050 1036.411, 704.694 1038.542 C 707.337 1040.673, 711.212 1044.095, 713.305 1046.145 C 715.397 1048.196, 719.222 1051.089, 721.805 1052.573 C 724.387 1054.058, 727.664 1056.449, 729.088 1057.886 C 730.511 1059.324, 734.304 1062.750, 737.517 1065.500 C 744.313 1071.316, 747 1074.059, 747 1075.178 C 747 1075.618, 749.138 1078.366, 751.750 1081.285 C 761.415 1092.080, 766.079 1097.727, 769.249 1102.467 C 774.548 1110.394, 783.977 1125.383, 784.680 1127 C 785.039 1127.825, 786.555 1130.075, 788.049 1132 C 789.543 1133.925, 791.972 1137.662, 793.445 1140.305 C 794.919 1142.947, 799.198 1149.472, 802.954 1154.805 C 812.844 1168.848, 818.511 1180.778, 827.508 1206.500 C 830.394 1214.750, 833.695 1223.927, 834.844 1226.894 C 836.891 1232.181, 839.709 1247.039, 839.226 1250 C 838.599 1253.837, 837.948 1260.915, 837.845 1265 C 837.676 1271.720, 831.049 1297.604, 828.692 1300.750 C 828.177 1301.438, 828.090 1302, 828.500 1302 C 828.910 1302, 828.689 1302.669, 828.011 1303.487 C 827.332 1304.305, 827.016 1305.600, 827.310 1306.365 C 827.604 1307.130, 827.485 1308.149, 827.048 1308.628 C 826.610 1309.108, 825.277 1312.650, 824.086 1316.500 C 822.894 1320.350, 821.287 1324.850, 820.513 1326.500 C 818.417 1330.970, 814 1343.362, 814 1344.771 C 814 1345.447, 813.550 1346, 813 1346 C 812.450 1346, 812 1347.139, 812 1348.531 C 812 1349.924, 811.325 1351.322, 810.500 1351.638 C 809.675 1351.955, 809 1353.095, 809 1354.173 C 809 1357.025, 807.193 1360.176, 802.750 1365.072 C 801.787 1366.132, 801 1367.400, 801 1367.888 C 801 1368.376, 799.425 1371.065, 797.500 1373.864 C 795.575 1376.662, 794 1379.657, 794 1380.519 C 794 1381.382, 791.484 1384.430, 788.408 1387.294 C 785.332 1390.157, 780.045 1395.274, 776.658 1398.665 C 773.271 1402.056, 769.561 1405.101, 768.412 1405.431 C 767.264 1405.762, 764.789 1407.414, 762.912 1409.102 C 761.036 1410.791, 758.150 1412.861, 756.500 1413.701 C 754.850 1414.541, 752.267 1416.382, 750.760 1417.791 C 749.254 1419.201, 747.743 1420.077, 747.404 1419.737 C 747.065 1419.398, 745.850 1419.993, 744.705 1421.060 C 743.560 1422.127, 741.834 1423, 740.870 1423 C 739.907 1423, 738.853 1423.429, 738.528 1423.954 C 738.204 1424.479, 735.715 1426.119, 732.999 1427.597 C 730.282 1429.076, 728.340 1430.741, 728.684 1431.297 C 729.028 1431.854, 728.821 1432.007, 728.224 1431.638 C 727.627 1431.269, 726.868 1431.405, 726.537 1431.940 C 726.206 1432.475, 725.279 1432.661, 724.476 1432.353 C 723.654 1432.037, 722.743 1432.506, 722.390 1433.426 C 721.968 1434.527, 721.111 1434.853, 719.763 1434.425 C 718.343 1433.974, 717.897 1434.183, 718.223 1435.145 C 718.525 1436.033, 715.894 1437.901, 710.592 1440.565 L 702.500 1444.631 702 1452.065 C 701.380 1461.291, 699.279 1462.288, 697.462 1454.220 C 696.808 1451.316, 696.091 1448.757, 695.868 1448.535 C 695.646 1448.312, 692.322 1449.029, 688.482 1450.127 C 684.642 1451.225, 679.800 1452.488, 677.721 1452.933 C 675.643 1453.378, 673.133 1454.475, 672.143 1455.371 C 671.153 1456.267, 669.005 1457, 667.371 1457 C 665.737 1457, 663.935 1457.465, 663.366 1458.034 C 662.797 1458.603, 660.120 1459.476, 657.416 1459.975 C 654.712 1460.473, 648.675 1462.072, 644 1463.528 C 633.304 1466.858, 621.260 1469.813, 618 1469.906 C 616.625 1469.945, 611.237 1470.124, 606.027 1470.304 C 595.280 1470.675, 588.342 1469.816, 583.808 1467.554 C 582.095 1466.699, 579.871 1466, 578.867 1466 C 577.863 1466, 573.770 1464.953, 569.771 1463.673 C 565.772 1462.393, 558 1460.293, 552.500 1459.006 C 547 1457.719, 542.073 1456.291, 541.550 1455.833 C 541.028 1455.375, 539.549 1455, 538.265 1455 C 536.980 1455, 534.795 1454.257, 533.409 1453.348 C 529.270 1450.636, 517.806 1446.917, 513.211 1446.796 C 510.852 1446.733, 508.714 1446.346, 508.460 1445.935 C 508.206 1445.524, 505.693 1444.870, 502.876 1444.483 C 499.115 1443.966, 497.627 1443.291, 497.275 1441.943 C 497.011 1440.933, 496.053 1439.910, 495.147 1439.670 C 494.233 1439.427, 494.697 1439.180, 496.191 1439.116 C 497.671 1439.052, 499.200 1438.485, 499.590 1437.855 C 500.079 1437.063, 499.472 1436.868, 497.624 1437.221 C 495.459 1437.635, 495.052 1437.413, 495.482 1436.057 C 496.114 1434.067, 489.166 1430.687, 482 1429.498 C 479.371 1429.061, 476.508 1427.763, 475.114 1426.375 C 473.801 1425.069, 471.889 1424, 470.864 1424 C 469.839 1424, 469 1423.527, 469 1422.949 C 469 1422.371, 467.537 1421.287, 465.750 1420.540 C 462.831 1419.321, 450 1407.819, 450 1406.423 C 450 1405.475, 447.208 1403, 446.139 1403 C 445.587 1403, 444.856 1402.123, 444.516 1401.051 C 444.176 1399.979, 443.053 1398.834, 442.021 1398.507 C 440.990 1398.179, 439.100 1396.271, 437.823 1394.267 C 436.545 1392.263, 435.033 1389.920, 434.463 1389.062 C 432.791 1386.543, 427.647 1376.612, 427.310 1375.250 C 427.139 1374.563, 426.868 1373.370, 426.706 1372.601 C 426.545 1371.831, 425.814 1370.481, 425.084 1369.601 C 424.353 1368.720, 424.012 1368, 424.327 1368 C 424.641 1368, 424.230 1366.400, 423.413 1364.445 C 422.596 1362.490, 421.451 1358.553, 420.869 1355.695 C 420.286 1352.838, 419.203 1347.800, 418.461 1344.500 C 417.720 1341.200, 416.822 1337.150, 416.465 1335.500 C 416.109 1333.850, 415.184 1331.082, 414.409 1329.349 C 413.634 1327.616, 413 1325.270, 413 1324.136 C 413 1323.002, 412.107 1319.807, 411.015 1317.037 C 409.923 1314.267, 409.225 1312, 409.464 1312 C 409.702 1312, 409.289 1310.537, 408.545 1308.750 C 407.801 1306.963, 407.192 1303.925, 407.192 1302 C 407.192 1298.266, 404.332 1286.167, 403.055 1284.500 C 401.929 1283.031, 399.864 1274.311, 399.147 1268 C 398.150 1259.215, 398.673 1245, 399.993 1245 C 400.306 1245, 401.104 1243.763, 401.768 1242.250 C 402.431 1240.737, 404.352 1237.700, 406.037 1235.500 C 408.540 1232.231, 411.830 1226.398, 412.523 1224 C 413.187 1221.702, 415.675 1217.554, 419.420 1212.500 C 421.865 1209.200, 423.896 1206.171, 423.933 1205.770 C 423.970 1205.368, 426.294 1201.768, 429.097 1197.770 C 438.215 1184.764, 443 1177.014, 443.006 1175.240 C 443.010 1174.283, 443.685 1172.211, 444.506 1170.636 C 445.328 1169.060, 446 1167.134, 446 1166.354 C 446 1165.575, 446.638 1164.692, 447.418 1164.393 C 449.167 1163.722, 451.748 1153.749, 450.298 1153.266 C 449.733 1153.078, 449.497 1150.880, 449.755 1148.201 C 450.346 1142.049, 447.353 1136.521, 442.955 1135.641 C 440.993 1135.249, 439.638 1134.178, 439.008 1132.522 C 438.481 1131.135, 437.398 1130, 436.603 1130 C 434.806 1130, 427.859 1122.036, 428.605 1120.831 C 428.904 1120.347, 428.778 1120.054, 428.324 1120.181 C 427.161 1120.508, 420 1113.875, 420 1112.471 C 420 1111.832, 419.100 1110.495, 418 1109.500 C 416.900 1108.505, 416 1107.175, 416 1106.544 C 416 1105.914, 413.926 1104.088, 411.390 1102.485 C 408.855 1100.883, 405.812 1098.145, 404.627 1096.402 C 402.487 1093.252, 392.801 1085, 391.245 1085 C 390.328 1085, 381.795 1077.599, 371.933 1068.250 C 368.307 1064.813, 364.892 1062, 364.344 1062 C 363.797 1062, 362.258 1060.836, 360.924 1059.413 C 359.591 1057.990, 357.048 1056.217, 355.272 1055.473 C 353.497 1054.729, 351.472 1053.639, 350.772 1053.050 C 350.073 1052.461, 347.925 1050.633, 346 1048.989 C 344.075 1047.345, 340.700 1044.787, 338.500 1043.304 C 336.300 1041.822, 333.542 1039.684, 332.371 1038.554 C 329.102 1035.399, 326.742 1033.640, 323.578 1032 C 321.987 1031.175, 320.497 1029.784, 320.267 1028.909 C 319.998 1027.882, 318.638 1027.273, 316.426 1027.190 C 314.542 1027.119, 311.764 1026.155, 310.251 1025.048 C 305.497 1021.569, 285.368 1019.232, 282.746 1021.854 C 282.116 1022.484, 280.600 1023, 279.377 1023 C 278.154 1023, 275.881 1024.043, 274.327 1025.317 C 272.772 1026.592, 270.038 1028.221, 268.250 1028.939 C 266.462 1029.656, 265 1030.541, 265 1030.906 C 265 1031.270, 263.762 1032.319, 262.250 1033.237 C 260.738 1034.154, 258.038 1036.299, 256.250 1038.003 C 254.463 1039.707, 253 1040.813, 253 1040.460 C 253 1040.107, 250.270 1042.447, 246.933 1045.659 C 243.596 1048.872, 240.446 1051.650, 239.933 1051.833 C 239.420 1052.017, 239 1052.852, 239 1053.690 C 239 1054.634, 238.429 1054.995, 237.500 1054.638 C 236.675 1054.322, 236 1054.511, 236 1055.059 C 236 1055.606, 233.777 1058.405, 231.061 1061.277 C 228.345 1064.150, 224.243 1068.750, 221.946 1071.500 C 219.650 1074.250, 214.960 1079.650, 211.524 1083.500 C 195.852 1101.064, 192.015 1105.559, 192.008 1106.368 C 192.004 1106.845, 190.172 1109.063, 187.939 1111.297 C 185.705 1113.530, 183.253 1116.852, 182.490 1118.679 C 181.726 1120.506, 180.675 1122, 180.152 1122 C 179.629 1122, 178.317 1123.687, 177.236 1125.750 C 176.155 1127.813, 174.309 1131.201, 173.135 1133.280 C 171.961 1135.360, 171 1137.749, 171 1138.589 C 171 1139.430, 170.550 1139.840, 170 1139.500 C 169.450 1139.160, 168.991 1139.471, 168.980 1140.191 C 168.968 1140.911, 166.502 1146.225, 163.499 1152 C 160.496 1157.775, 157.286 1164.188, 156.367 1166.250 C 155.449 1168.312, 154.315 1170, 153.848 1170 C 153.382 1170, 153 1170.906, 153 1172.014 C 153 1173.121, 152.583 1174.809, 152.074 1175.764 C 151.565 1176.719, 150.426 1179.750, 149.544 1182.500 C 148.661 1185.250, 146.566 1191.775, 144.889 1197 C 140.474 1210.749, 138.989 1215.870, 137.781 1221.500 C 137.191 1224.250, 135.889 1229.313, 134.887 1232.752 C 133.884 1236.190, 133.293 1239.600, 133.573 1240.329 C 133.853 1241.058, 133.620 1242.869, 133.056 1244.353 C 132.492 1245.836, 131.538 1250.077, 130.936 1253.775 C 128.255 1270.258, 127.802 1277.210, 127.505 1306.500 C 127.244 1332.183, 128.175 1347.929, 130.904 1364 C 133.665 1380.256, 134.727 1385.749, 135.283 1386.649 C 135.797 1387.481, 136.664 1391.707, 138.430 1402 C 139.582 1408.718, 148.693 1438.966, 151.533 1445.500 C 152.249 1447.150, 153.817 1450.750, 155.015 1453.500 C 156.214 1456.250, 159.145 1464.267, 161.528 1471.315 C 163.912 1478.363, 166.272 1484.663, 166.773 1485.315 C 167.274 1485.967, 168.386 1488.300, 169.245 1490.500 C 175.263 1505.910, 189.129 1531.221, 193.658 1535.062 C 194.671 1535.922, 196.480 1537.947, 197.677 1539.562 C 205.001 1549.445, 209.035 1555.144, 212.146 1560 C 214.084 1563.025, 216.395 1566.098, 217.283 1566.830 C 218.171 1567.561, 219.436 1569.811, 220.093 1571.830 C 220.751 1573.848, 223.849 1579.100, 226.978 1583.500 C 230.107 1587.900, 234.811 1594.567, 237.431 1598.316 C 246.558 1611.374, 279.926 1643.342, 291.900 1650.500 C 292.820 1651.050, 294.906 1652.783, 296.536 1654.352 C 298.166 1655.921, 301.770 1658.688, 304.543 1660.501 C 307.317 1662.314, 310.185 1664.518, 310.916 1665.399 C 311.647 1666.279, 312.731 1667, 313.325 1667 C 313.919 1667, 315.776 1668.274, 317.452 1669.832 C 321.223 1673.336, 335.612 1682.455, 339 1683.488 C 340.375 1683.907, 344.112 1685.769, 347.304 1687.625 C 350.496 1689.481, 353.610 1691, 354.225 1691 C 354.840 1691, 356.053 1691.584, 356.921 1692.297 C 357.790 1693.011, 361.200 1694.633, 364.500 1695.902 C 367.800 1697.172, 372.525 1699.123, 375 1700.238 C 377.475 1701.353, 381.300 1703.051, 383.500 1704.011 C 385.700 1704.971, 389.975 1706.866, 393 1708.222 C 396.025 1709.578, 400.075 1711.295, 402 1712.036 C 403.925 1712.778, 407.300 1714.433, 409.500 1715.715 C 414.155 1718.427, 432.591 1727.502, 436.693 1729.100 C 438.237 1729.701, 441.750 1730.565, 444.500 1731.019 C 447.250 1731.472, 451.300 1732.364, 453.500 1732.999 C 455.700 1733.634, 461.100 1734.757, 465.500 1735.495 C 469.900 1736.232, 475.375 1737.514, 477.667 1738.344 C 479.958 1739.174, 484.008 1740.142, 486.667 1740.495 C 489.325 1740.848, 492.400 1741.523, 493.500 1741.994 C 495.411 1742.812, 510.627 1745.598, 518 1746.479 C 533.057 1748.279, 575.702 1748.647, 593.500 1747.132 C 605.920 1746.074, 636.231 1744.561, 641.500 1744.735 C 643.150 1744.790, 655.300 1745.349, 668.500 1745.978 C 693.678 1747.179, 699.635 1746.876, 704.392 1744.155 C 706.590 1742.897, 707.391 1742.800, 707.726 1743.750 C 708.342 1745.496, 711.924 1745.312, 720.833 1743.075 C 725.050 1742.016, 732.090 1740.620, 736.477 1739.972 C 746.910 1738.432, 757.407 1735.737, 759.392 1734.089 C 760.263 1733.367, 761.641 1733.032, 762.455 1733.344 C 763.270 1733.657, 764.168 1733.538, 764.451 1733.079 C 764.734 1732.621, 767.111 1731.720, 769.733 1731.078 C 777.152 1729.261, 800.576 1719.799, 802 1718.045 C 803.124 1716.660, 823.801 1708.208, 827.658 1707.557 C 829.945 1707.171, 832.645 1706.227, 833.658 1705.459 C 834.671 1704.692, 836.556 1704.049, 837.846 1704.032 C 839.136 1704.014, 841.386 1703.328, 842.846 1702.507 C 844.306 1701.686, 846.625 1700.562, 848 1700.009 C 849.375 1699.457, 851.175 1698.624, 852 1698.159 C 852.825 1697.694, 855.525 1696.407, 858 1695.298 C 870.004 1689.919, 872.612 1688.720, 874 1687.941 C 874.825 1687.478, 878.609 1685.452, 882.410 1683.440 C 886.210 1681.428, 891.115 1678.480, 893.310 1676.891 C 895.504 1675.301, 897.870 1674, 898.567 1674 C 899.263 1674, 899.983 1673.662, 900.167 1673.250 C 900.350 1672.837, 902.602 1671.369, 905.170 1669.987 C 907.739 1668.605, 911.983 1665.455, 914.601 1662.987 C 917.219 1660.519, 920.652 1657.536, 922.230 1656.357 C 925.457 1653.946, 932 1645.171, 932 1643.253 C 932 1642.564, 932.337 1641.995, 932.750 1641.989 C 933.163 1641.982, 934.325 1640.253, 935.334 1638.147 C 936.343 1636.040, 938.637 1632.665, 940.433 1630.646 C 942.229 1628.628, 944.527 1625.437, 945.541 1623.555 C 946.554 1621.673, 948.438 1619.568, 949.727 1618.879 C 951.015 1618.189, 951.849 1617.048, 951.579 1616.344 C 951.308 1615.640, 951.479 1614.822, 951.958 1614.526 C 952.437 1614.230, 953.011 1614.534, 953.234 1615.201 C 953.504 1616.011, 954.428 1615.679, 956.008 1614.207 C 957.311 1612.993, 958.817 1612, 959.355 1612 C 959.893 1612, 960.063 1611.730, 959.733 1611.400 C 959.403 1611.070, 960.566 1609.207, 962.317 1607.260 C 966.610 1602.485, 967.104 1602.029, 972.359 1598 C 974.870 1596.075, 976.941 1593.995, 976.962 1593.378 C 976.983 1592.760, 979.238 1590.060, 981.974 1587.378 C 984.710 1584.695, 986.960 1582.197, 986.974 1581.827 C 987.014 1580.788, 993.036 1575, 994.077 1575 C 994.585 1575, 995 1574.347, 995 1573.550 C 995 1572.752, 995.589 1571.740, 996.308 1571.300 C 997.028 1570.860, 1000.623 1566.675, 1004.298 1562 C 1014.482 1549.045, 1015 1548.300, 1015 1546.603 C 1015 1544.985, 1017.138 1541.943, 1020.250 1539.135 C 1021.212 1538.266, 1022 1536.321, 1022 1534.813 C 1022 1533.031, 1022.752 1531.668, 1024.147 1530.921 C 1027.951 1528.885, 1033.205 1522.976, 1032.603 1521.409 C 1032.290 1520.592, 1032.701 1519.668, 1033.517 1519.355 C 1034.333 1519.042, 1035 1518.267, 1035 1517.634 C 1035 1517, 1035.900 1515.919, 1037 1515.232 C 1038.100 1514.545, 1039 1513.312, 1039 1512.492 C 1039 1511.671, 1039.787 1510.132, 1040.750 1509.072 C 1044.267 1505.196, 1045 1504.052, 1045 1502.435 C 1045 1501.380, 1045.540 1500.993, 1046.500 1501.362 C 1047.461 1501.731, 1048 1501.342, 1048 1500.280 C 1048 1497.968, 1052.214 1492.015, 1053.857 1492.007 C 1054.698 1492.003, 1054.977 1491.382, 1054.590 1490.373 C 1054.246 1489.479, 1054.439 1488.176, 1055.018 1487.479 C 1055.597 1486.781, 1055.951 1485.826, 1055.806 1485.355 C 1055.460 1484.237, 1059.199 1478, 1060.216 1478 C 1060.647 1478, 1061 1477.127, 1061 1476.059 C 1061 1474.991, 1061.450 1473.840, 1062 1473.500 C 1062.550 1473.160, 1063 1472.041, 1063 1471.012 C 1063 1469.984, 1063.616 1468.527, 1064.368 1467.775 C 1065.121 1467.022, 1066.081 1465.303, 1066.503 1463.953 C 1066.924 1462.604, 1067.884 1460.612, 1068.635 1459.527 C 1069.386 1458.443, 1070 1456.911, 1070 1456.124 C 1070 1455.337, 1071.123 1452.319, 1072.496 1449.417 C 1073.868 1446.516, 1074.726 1443.322, 1074.401 1442.321 C 1073.912 1440.810, 1073.992 1440.755, 1074.876 1442 C 1075.741 1443.219, 1076.063 1442.891, 1076.595 1440.250 C 1076.955 1438.462, 1077.644 1437, 1078.125 1437 C 1078.606 1437, 1079 1435.451, 1079 1433.557 C 1079 1431.145, 1079.674 1429.616, 1081.250 1428.453 C 1082.527 1427.511, 1083.020 1426.605, 1082.391 1426.360 C 1081.087 1425.851, 1081.938 1420.514, 1084.282 1414.500 C 1085.139 1412.300, 1086.122 1408.813, 1086.466 1406.750 C 1086.854 1404.422, 1087.642 1403, 1088.545 1403 C 1089.345 1403, 1090 1402.550, 1090 1402 C 1090 1401.450, 1089.513 1401, 1088.917 1401 C 1088.321 1401, 1088.040 1400.438, 1088.292 1399.750 C 1088.544 1399.063, 1089.295 1398.625, 1089.961 1398.779 C 1090.775 1398.966, 1091.001 1398.148, 1090.650 1396.279 C 1088.978 1387.367, 1088.890 1384, 1090.330 1384 C 1092.146 1384, 1093.483 1379.083, 1092.055 1377.655 C 1090.548 1376.148, 1090.700 1375.615, 1093.500 1372.595 C 1094.875 1371.111, 1096 1368.881, 1096 1367.640 C 1096 1366.398, 1096.640 1364.509, 1097.423 1363.441 C 1098.272 1362.282, 1098.620 1360.368, 1098.286 1358.690 C 1097.978 1357.145, 1098.189 1354.895, 1098.755 1353.690 C 1100.097 1350.835, 1102.087 1338.950, 1101.408 1337.851 C 1101.119 1337.383, 1101.246 1337, 1101.691 1337 C 1102.557 1337, 1102.650 1336.323, 1103.285 1325.399 C 1103.512 1321.494, 1103.981 1317.839, 1104.328 1317.278 C 1104.675 1316.717, 1105.226 1313.388, 1105.553 1309.879 C 1106.414 1300.651, 1106.483 1300.328, 1107.971 1298.535 C 1108.716 1297.637, 1109.409 1295.462, 1109.512 1293.702 C 1109.614 1291.941, 1109.956 1289.825, 1110.270 1289 C 1110.585 1288.175, 1111.072 1285.475, 1111.353 1283 C 1111.633 1280.525, 1112.363 1275.629, 1112.974 1272.119 C 1114.541 1263.125, 1114.717 1243.871, 1113.314 1235 C 1112.661 1230.875, 1111.595 1223.675, 1110.945 1219 C 1110.295 1214.325, 1109.399 1209.600, 1108.954 1208.500 C 1108.508 1207.400, 1107.590 1204.025, 1106.914 1201 C 1106.238 1197.975, 1105.036 1193.946, 1104.244 1192.046 C 1103.451 1190.146, 1102.631 1187.221, 1102.420 1185.546 C 1102.210 1183.871, 1101.384 1181.150, 1100.584 1179.500 C 1099.306 1176.864, 1097.941 1171.954, 1094.190 1156.500 C 1093.105 1152.029, 1091.194 1146.419, 1089.832 1143.709 C 1089.337 1142.724, 1089.180 1141.518, 1089.482 1141.028 C 1089.785 1140.539, 1089.575 1139.856, 1089.016 1139.510 C 1088.457 1139.165, 1087.987 1137.896, 1087.972 1136.691 C 1087.956 1135.486, 1086.831 1132.475, 1085.470 1130 C 1083.002 1125.510, 1078.029 1115.319, 1075.392 1109.349 C 1074.626 1107.616, 1074 1105.449, 1074 1104.533 C 1074 1103.618, 1073.457 1101.886, 1072.794 1100.684 C 1071.528 1098.392, 1069.996 1094.406, 1065.615 1082 C 1059.237 1063.943, 1049.573 1044.848, 1046.590 1044.410 C 1044.142 1044.051, 1038 1037.477, 1038 1035.216 C 1038 1034.181, 1037.701 1033.034, 1037.335 1032.668 C 1036.969 1032.302, 1036.542 1030.808, 1036.387 1029.347 C 1035.951 1025.258, 1026.906 1007.723, 1019.399 996.414 C 1017.530 993.597, 1016 991.025, 1016 990.697 C 1016 990.369, 1014.698 988.165, 1013.107 985.800 C 1011.515 983.435, 1009.245 979.700, 1008.061 977.500 C 1006.877 975.300, 1002.666 968.673, 998.704 962.773 C 989.408 948.931, 984.903 941.638, 982.023 935.765 C 980.746 933.161, 977.856 928.808, 975.601 926.091 C 967.540 916.383, 965 913.125, 965 912.497 C 965 908.806, 935.784 877.844, 928 873.287 C 920.347 868.806, 915.044 864.589, 914.437 862.500 C 914.116 861.400, 912.328 859.375, 910.462 858 C 908.596 856.625, 901.513 850.953, 894.723 845.396 C 887.932 839.839, 881.054 834.457, 879.438 833.436 C 877.822 832.415, 874.007 829.696, 870.960 827.393 C 867.913 825.090, 861.613 820.604, 856.960 817.424 C 852.307 814.243, 846.475 810.156, 844 808.340 C 841.525 806.525, 834.865 801.993, 829.200 798.270 C 823.535 794.546, 814.392 788.350, 808.883 784.500 C 792.133 772.796, 781.004 766.053, 765.083 757.963 C 761.768 756.278, 758.792 754.473, 758.469 753.950 C 758.146 753.428, 757.184 753, 756.330 753 C 755.476 753, 751.115 750.838, 746.639 748.197 C 742.162 745.555, 737.375 742.903, 736 742.304 C 720.312 735.471, 715.894 733.827, 714.577 734.332 C 713.657 734.685, 712.641 734.197, 712.069 733.128 C 710.758 730.680, 691.166 722.462, 669.993 715.480 C 660.372 712.307, 651.150 709.155, 649.500 708.476 C 647.850 707.797, 643.800 706.113, 640.500 704.734 C 635.523 702.655, 613.658 694.750, 609.250 693.435 C 608.563 693.230, 608 692.599, 608 692.031 C 608 691.464, 606.923 691, 605.607 691 C 604.291 691, 602.985 690.402, 602.704 689.672 C 602.424 688.942, 600.914 687.701, 599.347 686.915 C 595.530 684.998, 584.953 678.825, 577.150 673.960 C 573.657 671.782, 570.588 670, 570.330 670 C 570.072 670, 567.898 668.650, 565.500 667 C 563.102 665.350, 560.836 664, 560.465 664 C 560.094 664, 557.767 662.635, 555.294 660.966 C 545.600 654.423, 530.888 649, 522.835 649 C 520.890 649, 517.772 648.468, 515.906 647.817 C 512.461 646.616, 494.777 635.193, 494.167 633.775 C 493.983 633.349, 493.181 633, 492.383 633 C 490.934 633, 476.477 623.581, 475.500 622 C 475.216 621.541, 471.613 618.628, 467.492 615.526 C 463.371 612.425, 460 609.165, 460 608.282 C 460 607.398, 459.220 604.202, 458.267 601.178 C 456.858 596.708, 455.036 594.160, 448.517 587.543 C 440.259 579.161, 437.036 576.586, 431 573.548 C 426.115 571.090, 416.743 564.800, 415.283 563 C 414.614 562.175, 413.336 559.997, 412.444 558.161 C 411.552 556.324, 410.074 554.069, 409.161 553.148 C 408.247 552.228, 406.375 549.231, 405 546.488 C 403.625 543.744, 399.312 536.550, 395.415 530.500 C 386.682 516.940, 383.415 510.693, 373.623 488.825 C 369.621 479.889, 369.080 454.642, 372.416 432.500 C 373.327 426.450, 374.495 418.143, 375.011 414.040 C 375.528 409.938, 376.629 404.538, 377.458 402.040 C 378.288 399.543, 380.085 393.675, 381.451 389 C 382.818 384.325, 385.485 376.675, 387.379 372 C 390.353 364.658, 392.027 362.221, 399.661 354.116 C 412.374 340.619, 413.677 339.353, 423.978 330.500 C 436.168 320.024, 442.057 315.707, 450.197 311.279 C 453.880 309.276, 456.636 307.220, 456.322 306.711 C 455.993 306.180, 456.665 306.076, 457.900 306.468 C 459.083 306.844, 459.986 306.779, 459.907 306.325 C 459.511 304.048, 460.150 303.769, 461.464 305.646 C 462.506 307.133, 463.660 307.596, 465.464 307.252 C 467.301 306.901, 468 307.196, 468 308.324 C 468 309.181, 467.543 310.165, 466.984 310.510 C 466.425 310.856, 466.298 311.670, 466.702 312.319 C 467.805 314.093, 467.915 321.338, 466.858 322.643 C 466.349 323.271, 466 327.321, 466.081 331.643 C 466.218 338.891, 465.409 355.463, 464.330 367.500 C 463.083 381.420, 462.745 401.533, 463.578 412.250 C 464.062 418.485, 463.933 421, 463.129 421 C 462.061 421, 461.563 419.031, 461.927 416.243 C 462.017 415.551, 461.634 414.201, 461.076 413.243 C 460.280 411.876, 460.015 412.578, 459.848 416.500 C 459.730 419.250, 459.726 422.793, 459.838 424.373 C 459.949 425.953, 459.658 427.753, 459.190 428.373 C 458.722 428.993, 458.246 433.100, 458.132 437.500 C 458.018 441.900, 457.858 446.625, 457.777 448 C 457.696 449.375, 458.389 452.242, 459.315 454.372 C 460.242 456.502, 461 458.776, 461 459.425 C 461 461.637, 467.063 468.913, 468.459 468.377 C 469.255 468.072, 470.099 468.735, 470.493 469.976 C 470.872 471.173, 471.892 472.004, 472.833 471.883 C 475.508 471.538, 484 473.153, 484 474.007 C 484 475.281, 487.288 476.153, 487.964 475.058 C 488.383 474.381, 489.780 474.377, 492.199 475.044 C 494.184 475.593, 498.664 475.945, 502.154 475.828 C 509.301 475.588, 515 476.641, 515 478.202 C 515 478.896, 515.444 478.877, 516.328 478.143 C 517.215 477.406, 518.708 477.343, 520.828 477.951 C 522.769 478.507, 524 478.499, 524 477.930 C 524 476.593, 527.383 476.783, 528.800 478.200 C 529.733 479.133, 530 479.102, 530 478.060 C 530 476.363, 539.712 477.179, 542.853 479.140 C 544.508 480.174, 545.208 480.192, 546.175 479.225 C 547.900 477.500, 548.997 477.703, 549.015 479.750 C 549.027 481.071, 549.235 481.177, 549.865 480.185 C 550.414 479.318, 552.123 479.012, 554.881 479.288 C 557.181 479.518, 559.302 479.321, 559.593 478.850 C 559.884 478.378, 561.220 478.268, 562.561 478.605 C 563.903 478.941, 565 478.786, 565 478.258 C 565 477.731, 566.835 477.484, 569.078 477.708 C 571.321 477.932, 573.708 477.658, 574.382 477.098 C 576.319 475.490, 585.113 475.132, 585.691 476.637 C 586 477.442, 588.086 477.919, 591.341 477.927 C 594.178 477.934, 597.737 477.972, 599.250 478.012 C 600.763 478.051, 602.563 478.042, 603.250 477.991 C 603.938 477.939, 608.775 478.198, 614 478.566 C 619.225 478.934, 625.638 479.244, 628.250 479.255 C 630.862 479.266, 633 479.667, 633 480.146 C 633 481.246, 644.382 479.997, 644.833 478.848 C 645.326 477.595, 646.960 477.817, 648.487 479.344 C 650.134 480.991, 660.943 480.710, 662.005 478.992 C 662.478 478.226, 662.894 478.487, 663.227 479.760 C 663.616 481.248, 664.947 481.834, 669.045 482.319 C 671.967 482.665, 674.840 482.595, 675.429 482.163 C 676.018 481.731, 677.175 481.430, 678 481.495 C 678.825 481.559, 680.764 480.750, 682.308 479.696 C 683.852 478.643, 686.215 477.718, 687.557 477.641 C 688.900 477.563, 689.999 477.215, 689.999 476.867 C 690 476.518, 691.125 476.018, 692.500 475.755 C 693.875 475.492, 695 475.665, 695 476.139 C 695 477.730, 696.848 477.019, 697.311 475.250 C 697.746 473.583, 697.774 473.583, 697.884 475.250 C 697.948 476.212, 698.675 477, 699.500 477 C 700.325 477, 701 477.505, 701 478.122 C 701 478.898, 701.464 478.860, 702.500 478 C 703.729 476.980, 704 477.049, 704 478.378 C 704 480.575, 705.590 480.424, 707.238 478.071 C 707.981 477.009, 709.807 475.836, 711.295 475.462 C 713.692 474.861, 714 475.066, 714 477.269 C 714 480.850, 715.869 481.912, 721.929 481.774 C 726.295 481.675, 727.370 481.301, 727.778 479.742 C 728.138 478.363, 728.493 478.180, 729.051 479.083 C 729.590 479.955, 730.463 479.298, 731.927 476.918 C 733.783 473.901, 733.960 472.504, 733.442 465 C 733.119 460.325, 732.204 453.119, 731.410 448.987 C 728.951 436.199, 728.842 434.911, 728.947 419.841 C 729.003 411.779, 728.604 403.195, 728.060 400.767 C 726.029 391.703, 724.824 372.914, 725.093 354.500 C 725.480 328.053, 725.243 310.383, 724.452 306.784 L 723.781 303.729 735.080 304.461 C 741.293 304.864, 747.447 305.600, 748.754 306.097 C 750.061 306.593, 753.463 307.005, 756.315 307.012 C 760.996 307.022, 769.516 308.796, 780.483 312.043 C 789.995 314.860, 805.291 323.515, 816.079 332.186 C 820.654 335.863, 824.737 338.662, 825.152 338.406 C 826.639 337.487, 839.532 349.194, 841.742 353.469 C 843.195 356.279, 843.188 356.400, 841.655 355.128 C 837.780 351.914, 841.547 357.660, 847.526 364.084 C 848.337 364.955, 849 366.197, 849 366.843 C 849 367.489, 850.350 369.431, 852 371.157 C 853.650 372.884, 855 375.159, 855 376.214 C 855 377.269, 855.436 378.946, 855.969 379.942 C 856.552 381.031, 856.604 383.497, 856.102 386.126 L 855.265 390.500 854.035 387.250 C 853.358 385.462, 852.118 384, 851.280 384 C 850.192 384, 850.042 384.358, 850.757 385.250 C 851.429 386.088, 851.358 390.978, 850.539 400.091 C 849.721 409.210, 849.622 415.956, 850.239 420.591 C 851.437 429.583, 851.490 428.611, 849.420 435.500 C 848.428 438.800, 847.576 443.750, 847.526 446.500 C 847.477 449.250, 846.888 452.483, 846.218 453.684 C 845.548 454.886, 845 456.737, 845 457.799 C 845 458.861, 844.082 460.898, 842.959 462.325 C 839.586 466.613, 836.704 476.825, 837.342 482.228 C 837.730 485.509, 837.485 487.372, 836.542 488.315 C 834.912 489.945, 833.013 496.402, 833.006 500.344 C 833.002 502.344, 833.590 503.342, 834.989 503.707 C 836.083 503.993, 836.739 504.614, 836.447 505.085 C 836.156 505.557, 836.663 507.082, 837.575 508.474 C 838.486 509.865, 838.997 511.903, 838.710 513.002 C 838.422 514.101, 838.595 515, 839.094 515 C 839.592 515, 840 515.661, 840 516.469 C 840 517.330, 839.410 517.711, 838.573 517.390 C 837.531 516.990, 837.293 517.403, 837.690 518.921 C 837.989 520.064, 838.757 521, 839.398 521 C 841.789 521, 851.795 528.094, 852.452 530.255 C 852.905 531.744, 853.318 532.051, 853.678 531.169 C 854.073 530.199, 854.991 530.575, 857.056 532.553 C 859.286 534.690, 861.020 535.330, 865.190 535.555 C 869.795 535.803, 870.565 536.146, 871.064 538.170 C 871.390 539.490, 872.334 540.445, 873.242 540.374 C 874.132 540.304, 875.096 541.247, 875.409 542.492 C 875.980 544.770, 881.711 548.297, 883.273 547.332 C 883.742 547.041, 884.885 547.474, 885.813 548.293 C 886.741 549.112, 889.413 550.096, 891.750 550.479 C 894.087 550.862, 896 551.586, 896 552.088 C 896 552.590, 896.873 553, 897.941 553 C 899.009 553, 900.160 553.450, 900.500 554 C 900.840 554.550, 901.943 555, 902.952 555 C 903.961 555, 905.036 555.651, 905.341 556.446 C 905.888 557.871, 915.641 563, 917.805 563 C 919.874 563, 929.972 571.234, 929.308 572.379 C 928.949 572.995, 929.521 572.792, 930.578 571.926 C 932.877 570.044, 936 570.512, 936 572.740 C 936 573.616, 936.275 574.058, 936.612 573.721 C 936.948 573.385, 939.485 575.335, 942.248 578.055 C 945.355 581.114, 948.155 583, 949.589 583 C 952.585 583, 957.086 585.051, 956.428 586.117 C 956.147 586.570, 957.062 587.228, 958.459 587.579 C 959.857 587.930, 961 588.634, 961 589.144 C 961 589.675, 961.824 589.630, 962.933 589.036 C 964.492 588.202, 964.983 588.372, 965.474 589.917 C 965.940 591.387, 967.666 592.100, 972.889 592.981 C 976.632 593.613, 980.881 594.745, 982.331 595.497 C 983.780 596.249, 985.215 596.461, 985.519 595.970 C 985.831 595.464, 987.175 595.578, 988.607 596.231 C 990.646 597.160, 991.338 597.103, 992.137 595.943 C 992.887 594.854, 992.983 595.029, 992.527 596.658 C 992.052 598.356, 992.565 599.136, 994.939 600.320 C 997.721 601.707, 998.149 601.671, 1000.467 599.847 C 1003.086 597.788, 1005 598.088, 1005 600.559 C 1005 601.352, 1005.434 602, 1005.965 602 C 1007.266 602, 1009.104 598.437, 1008.245 597.579 C 1007.869 597.202, 1008.335 597.191, 1009.280 597.554 C 1010.226 597.917, 1011 597.815, 1011 597.327 C 1011 596.839, 1013.222 595.578, 1015.938 594.524 C 1018.654 593.470, 1020.609 592.177, 1020.283 591.649 C 1019.958 591.122, 1020.184 590.996, 1020.787 591.368 C 1021.396 591.745, 1025.092 588.930, 1029.117 585.023 C 1033.096 581.160, 1036.749 578, 1037.235 578 C 1037.721 578, 1037.840 577.550, 1037.500 577 C 1037.160 576.450, 1037.529 576, 1038.320 576 C 1039.110 576, 1040.303 574.683, 1040.970 573.072 C 1041.637 571.462, 1043.042 569.367, 1044.091 568.417 C 1045.141 567.467, 1046 566.085, 1046 565.345 C 1046 564.605, 1046.473 564, 1047.051 564 C 1047.629 564, 1048.779 562.379, 1049.607 560.398 C 1051.415 556.071, 1052.130 555.134, 1058.250 549.062 C 1060.862 546.470, 1063 543.733, 1063 542.979 C 1063 542.226, 1064.053 540.460, 1065.341 539.055 C 1066.628 537.650, 1068.290 534.925, 1069.034 533 C 1069.778 531.075, 1070.846 529.189, 1071.408 528.808 C 1071.969 528.428, 1072.497 527.078, 1072.581 525.808 C 1072.664 524.539, 1074.635 519.537, 1076.960 514.693 C 1079.933 508.499, 1081.006 505.160, 1080.575 503.443 C 1080.151 501.754, 1080.380 501, 1081.314 501 C 1082.058 501, 1082.708 500.438, 1082.759 499.750 C 1082.810 499.063, 1083.572 496.025, 1084.454 493 C 1085.335 489.975, 1086.273 485.978, 1086.539 484.119 C 1086.976 481.053, 1086.866 480.866, 1085.351 482.119 C 1083.815 483.389, 1083.737 483.076, 1084.381 478.203 C 1084.766 475.289, 1086.135 468.764, 1087.422 463.703 C 1088.709 458.641, 1089.811 453.825, 1089.870 453 C 1090.089 449.968, 1090.916 445.398, 1091.949 441.500 C 1094.763 430.890, 1096.708 421.401, 1096.291 420.317 C 1096.037 419.655, 1095.164 418.976, 1094.350 418.807 C 1093.185 418.565, 1093.348 417.989, 1095.117 416.097 C 1096.914 414.174, 1097.406 412.373, 1097.573 407.097 C 1097.688 403.468, 1098.078 396.900, 1098.438 392.500 C 1099.019 385.410, 1097.982 374.867, 1096.224 370 C 1095.926 369.175, 1095.783 368.074, 1095.907 367.553 C 1096.030 367.033, 1095.386 361.183, 1094.476 354.553 C 1092.885 342.958, 1090.365 332.387, 1087.434 325 C 1086.670 323.075, 1085.852 319.700, 1085.617 317.500 C 1084.920 310.974, 1078.519 294, 1076.756 294 C 1076.340 294, 1076 293.303, 1076 292.450 C 1076 290.422, 1073.684 285.997, 1068.435 278 C 1066.088 274.425, 1063.061 269.308, 1061.708 266.629 C 1060.354 263.950, 1059.052 262.343, 1058.815 263.056 C 1058.204 264.887, 1056 263.270, 1056 260.993 C 1056 258.863, 1051.271 253.353, 1049.805 253.775 C 1049.281 253.926, 1049.118 253.617, 1049.445 253.089 C 1049.771 252.561, 1049.082 250.427, 1047.914 248.347 C 1046.246 245.378, 1046.029 244.183, 1046.904 242.783 C 1047.772 241.393, 1047.710 241, 1046.623 241 C 1045.857 241, 1044.425 239.762, 1043.440 238.250 C 1042.456 236.737, 1041.004 235.019, 1040.213 234.432 C 1039.423 233.844, 1038.714 231.812, 1038.638 229.915 C 1038.539 227.428, 1037.134 224.728, 1033.602 220.233 C 1030.909 216.805, 1028.321 214, 1027.852 214 C 1027.384 214, 1027 213.505, 1027 212.900 C 1027 212.295, 1025.538 210.291, 1023.750 208.447 C 1021.963 206.603, 1019.150 203.442, 1017.500 201.421 C 1015.850 199.401, 1013.263 196.605, 1011.750 195.209 C 1008.315 192.037, 1008.152 190.215, 1011.500 192.408 C 1012.875 193.309, 1014 193.623, 1014 193.106 C 1014 192.590, 1013.575 192.017, 1013.055 191.833 C 1012.536 191.650, 1010.246 189.925, 1007.968 188 C 998.787 180.245, 997.208 179, 996.544 179 C 996.164 179, 992.977 176.560, 989.462 173.579 C 985.948 170.597, 982.043 167.834, 980.786 167.438 C 979.529 167.042, 976.286 164.731, 973.579 162.303 C 970.873 159.875, 967.802 157.429, 966.754 156.868 C 965.020 155.940, 964.950 156.057, 965.979 158.174 C 967.058 160.393, 967.039 160.411, 965.555 158.559 C 964.700 157.491, 964 156.254, 964 155.809 C 964 155.364, 963.523 155, 962.941 155 C 962.359 155, 962.160 155.450, 962.500 156 C 963.950 158.347, 960.999 156.638, 954.967 151.641 C 951.410 148.694, 946.670 145.351, 944.433 144.214 C 942.196 143.077, 939.779 141.438, 939.061 140.573 C 938.343 139.708, 937.342 139, 936.837 139 C 936.332 139, 934.606 138.029, 933.001 136.843 C 930.537 135.021, 929.836 134.891, 928.491 136.007 C 927.129 137.138, 926.818 137.021, 926.341 135.198 C 926.035 134.025, 924.841 132.767, 923.689 132.401 C 922.536 132.035, 921.025 131.233, 920.331 130.618 C 917.144 127.794, 916.146 127.203, 912.575 126.025 C 909.823 125.117, 908.572 125.074, 908.080 125.870 C 907.288 127.153, 904.035 126.344, 896.500 122.992 C 889.092 119.696, 882.138 117.968, 881.359 119.228 C 881.003 119.804, 881.692 121.014, 882.890 121.917 C 885.012 123.518, 884.965 123.550, 881.039 123.175 C 878.824 122.964, 877.260 122.388, 877.565 121.895 C 877.869 121.403, 876.940 121, 875.500 121 C 874.009 121, 873.148 121.431, 873.500 122 C 874.388 123.437, 872.674 123.232, 869.364 121.506 C 867.789 120.685, 865.791 120.010, 864.924 120.006 C 864.058 120.003, 862.360 118.948, 861.152 117.661 C 859.541 115.947, 857.735 115.276, 854.390 115.150 C 851.880 115.055, 849.078 114.583, 848.163 114.102 C 847.248 113.621, 845.232 113.232, 843.682 113.238 C 841.932 113.246, 840.299 112.444, 839.375 111.125 C 838.556 109.956, 837.350 108.997, 836.693 108.994 C 836.037 108.990, 834.264 108.343, 832.753 107.555 C 830.269 106.259, 829.913 106.295, 829.038 107.929 C 827.887 110.079, 828.583 110.987, 831.417 111.035 C 832.563 111.055, 834.625 111.714, 836 112.500 C 838.415 113.881, 838.426 113.930, 836.309 113.965 C 835.104 113.984, 833.840 113.550, 833.500 113 C 833.160 112.450, 831.820 112, 830.523 112 C 827.127 112, 825 110.996, 825 109.393 C 825 108.627, 825.712 108, 826.583 108 C 827.454 108, 827.979 107.437, 827.750 106.750 C 827.078 104.734, 822.475 105.184, 822.639 107.250 C 822.799 109.265, 822.142 109.385, 818.505 108.002 C 817.061 107.453, 816.142 106.580, 816.462 106.061 C 817.233 104.815, 813.113 101.034, 810.811 100.875 C 806.871 100.603, 806.512 100.386, 806.850 98.478 C 807.591 94.288, 810.204 94.538, 816.287 99.380 C 819.067 101.593, 821.060 102.366, 823.781 102.289 C 825.821 102.231, 827.941 102.477, 828.494 102.835 C 829.047 103.194, 830.400 103.551, 831.500 103.629 C 833.481 103.771, 836.068 104.610, 845.230 108.081 C 847.832 109.066, 850.202 109.483, 850.497 109.005 C 851.133 107.975, 849.116 106.538, 847 106.514 C 846.175 106.504, 844.078 105.484, 842.341 104.245 C 840.603 103.006, 838.511 102.250, 837.692 102.565 C 836.873 102.879, 835.905 102.656, 835.542 102.068 C 835.179 101.481, 834.046 101, 833.024 101 C 832.003 101, 831.010 100.531, 830.819 99.957 C 830.628 99.383, 829.353 98.788, 827.986 98.634 C 824.838 98.279, 817.843 96.010, 816.408 94.878 C 815.807 94.405, 815.039 94.294, 814.701 94.632 C 814.363 94.970, 813.279 94.895, 812.293 94.465 C 811.307 94.035, 810.136 93.763, 809.692 93.861 C 809.247 93.959, 807.222 93.309, 805.192 92.417 C 803.161 91.526, 800.600 90.412, 799.500 89.942 C 798.400 89.472, 794.350 88.364, 790.500 87.480 C 786.650 86.595, 782.600 85.473, 781.500 84.986 C 776.819 82.914, 769.697 81, 766.665 81 C 764.869 81, 762.942 80.542, 762.383 79.983 C 761.823 79.423, 757.668 78.680, 753.149 78.332 C 748.629 77.983, 744.695 77.316, 744.407 76.849 C 744.118 76.382, 742.990 76, 741.900 76 C 739.544 76, 734 72.116, 734 70.465 C 734 69.828, 733.095 68.263, 731.989 66.987 C 730.246 64.978, 730.062 63.791, 730.605 58.084 C 730.950 54.463, 731.855 50.503, 732.616 49.285 C 734.033 47.017, 734.449 39.276, 733.370 35.250 C 732.992 33.839, 731.998 33, 730.704 33 C 729.570 33, 727.260 32.579, 725.571 32.064 C 722.695 31.188, 711.529 28.991, 699.078 26.850 C 696.095 26.338, 693.094 26.134, 692.407 26.397 C 691.721 26.661, 686.961 26.247, 681.830 25.477 C 676.698 24.708, 669.575 23.826, 666 23.518 C 662.425 23.210, 655 22.518, 649.500 21.981 C 644 21.444, 633.200 20.758, 625.500 20.455 C 610.908 19.882, 608.073 19.634, 599.054 18.139 C 596.058 17.643, 590.658 17.597, 587.054 18.038 C 583.449 18.480, 573.975 18.510, 566 18.107 C 557.034 17.654, 550.243 17.753, 548.206 18.368 C 545.729 19.116, 543.247 18.940, 538.206 17.661 C 534.518 16.725, 527.225 15.737, 522 15.465 C 513.694 15.032, 512.089 15.223, 509.226 16.985 M 801.500 96 C 801.840 96.550, 802.568 97, 803.118 97 C 803.668 97, 803.840 96.550, 803.500 96 C 803.160 95.450, 802.432 95, 801.882 95 C 801.332 95, 801.160 95.450, 801.500 96 M 403.813 107.683 C 404.534 107.972, 405.397 107.936, 405.729 107.604 C 406.061 107.272, 405.471 107.036, 404.417 107.079 C 403.252 107.127, 403.015 107.364, 403.813 107.683 M 398.750 108.662 C 399.438 108.940, 400.563 108.940, 401.250 108.662 C 401.938 108.385, 401.375 108.158, 400 108.158 C 398.625 108.158, 398.063 108.385, 398.750 108.662 M 856.813 112.683 C 857.534 112.972, 858.397 112.936, 858.729 112.604 C 859.061 112.272, 858.471 112.036, 857.417 112.079 C 856.252 112.127, 856.015 112.364, 856.813 112.683 M 860 112.915 C 860 113.546, 860.788 114.306, 861.750 114.604 C 862.712 114.902, 864.331 115.594, 865.347 116.142 C 866.363 116.690, 867.488 116.821, 867.847 116.432 C 868.206 116.044, 867.935 115.524, 867.244 115.278 C 866.553 115.031, 866.242 114.418, 866.553 113.915 C 866.864 113.412, 866.529 112.994, 865.809 112.986 C 865.089 112.979, 863.487 112.701, 862.250 112.370 C 860.873 112.001, 860 112.212, 860 112.915 M 395 115.959 C 388.566 118.107, 388.888 118.432, 395.951 116.917 C 398.728 116.322, 401 115.422, 401 114.917 C 401 114.413, 400.887 114.027, 400.750 114.061 C 400.613 114.095, 398.025 114.949, 395 115.959 M 872 115.929 C 872 116.439, 871.291 117.567, 870.424 118.434 C 868.988 119.869, 869.235 119.970, 873.174 119.562 C 875.553 119.316, 877.725 119.074, 878 119.024 C 878.799 118.879, 873.872 115, 872.889 115 C 872.400 115, 872 115.418, 872 115.929 M 844.500 117 C 844.840 117.550, 845.541 118, 846.059 118 C 846.577 118, 847 117.550, 847 117 C 847 116.450, 846.298 116, 845.441 116 C 844.584 116, 844.160 116.450, 844.500 117 M 394.441 120.468 C 392.568 121.885, 392.587 121.936, 395 121.936 C 396.375 121.936, 398.374 121.276, 399.441 120.468 C 401.315 119.051, 401.295 119, 398.882 119 C 397.507 119, 395.509 119.661, 394.441 120.468 M 383 120.969 C 383 121.501, 383.675 121.678, 384.500 121.362 C 385.325 121.045, 386 120.609, 386 120.393 C 386 120.177, 385.325 120, 384.500 120 C 383.675 120, 383 120.436, 383 120.969 M 857.635 122.524 C 858.661 123.301, 860.513 123.951, 861.750 123.968 C 862.987 123.986, 864 124.394, 864 124.875 C 864 125.356, 865.237 126, 866.750 126.305 C 868.263 126.610, 870.400 127.158, 871.500 127.523 C 873.168 128.076, 873.095 127.855, 871.058 126.194 C 868.602 124.190, 862.530 121.938, 858.135 121.401 C 855.896 121.127, 855.870 121.187, 857.635 122.524 M 383.308 124.230 C 381.552 124.794, 379.864 125.911, 379.557 126.712 C 379.250 127.512, 379.336 127.993, 379.749 127.781 C 380.162 127.568, 382.188 126.625, 384.250 125.684 C 389.898 123.107, 389.364 122.284, 383.308 124.230 M 886 125.031 C 886 126.320, 888.849 127.484, 889.764 126.569 C 890.137 126.196, 889.780 125.473, 888.971 124.961 C 887.035 123.737, 886 123.761, 886 125.031 M 892 127.448 C 892 128.384, 896.775 133, 897.742 133 C 898.299 133, 899.373 133.759, 900.128 134.687 C 901.329 136.165, 901.282 136.293, 899.750 135.719 C 898.788 135.358, 898 135.483, 898 135.996 C 898 138.140, 901.496 138.747, 903.366 136.927 C 905.182 135.160, 905.143 135.057, 901.866 133.060 C 900.015 131.931, 897.968 131.006, 897.317 131.004 C 896.667 131.002, 895.849 130.100, 895.500 129 C 894.971 127.333, 892 126.016, 892 127.448 M 874.813 128.683 C 875.534 128.972, 876.397 128.936, 876.729 128.604 C 877.061 128.272, 876.471 128.036, 875.417 128.079 C 874.252 128.127, 874.015 128.364, 874.813 128.683 M 907 133.756 C 907 134.172, 908.462 135.149, 910.250 135.927 C 912.038 136.705, 914.850 138.355, 916.500 139.593 C 918.150 140.831, 920.737 142.153, 922.250 142.531 C 923.763 142.908, 925 143.666, 925 144.215 C 925 144.765, 925.629 144.973, 926.398 144.678 C 927.176 144.379, 928.952 145.440, 930.405 147.071 C 931.856 148.699, 934.034 150, 935.308 150 C 936.568 150, 938.231 150.563, 939.002 151.250 C 940.115 152.242, 940.104 152.088, 938.952 150.500 C 938.153 149.400, 936.928 148.135, 936.229 147.689 C 935.530 147.242, 935.216 146.460, 935.531 145.950 C 935.846 145.440, 935.518 145.247, 934.802 145.522 C 934.086 145.796, 932.311 144.918, 930.857 143.570 C 929.404 142.221, 928.015 141.319, 927.770 141.564 C 926.996 142.337, 921.011 139.861, 915.211 136.368 C 909.773 133.094, 907 132.211, 907 133.756 M 365.500 136 C 365.160 136.550, 365.332 137, 365.882 137 C 366.432 137, 367.160 136.550, 367.500 136 C 367.840 135.450, 367.668 135, 367.118 135 C 366.568 135, 365.840 135.450, 365.500 136 M 906.709 139.001 C 904.989 140.676, 904.996 140.766, 906.873 141.257 C 908.213 141.607, 908.982 141.176, 909.320 139.885 C 909.997 137.297, 908.855 136.910, 906.709 139.001 M 353.095 140.569 C 350.122 141.919, 347.975 143.308, 348.323 143.656 C 349.189 144.522, 357.559 141.236, 359.044 139.447 C 360.693 137.460, 359.410 137.702, 353.095 140.569 M 931.020 139.524 C 931.716 140.362, 932.491 140.842, 932.743 140.591 C 933.436 139.897, 932.027 138, 930.819 138 C 930.155 138, 930.231 138.574, 931.020 139.524 M 341.750 145.787 C 337.891 147.519, 336.854 149, 339.500 149 C 340.325 149, 341 148.550, 341 148 C 341 147.450, 341.845 147, 342.878 147 C 343.910 147, 345.315 146.325, 346 145.500 C 347.582 143.594, 346.465 143.669, 341.750 145.787 M 330.638 152.500 C 330.322 153.325, 330.451 154, 330.924 154 C 331.398 154, 332.045 153.325, 332.362 152.500 C 332.678 151.675, 332.549 151, 332.076 151 C 331.602 151, 330.955 151.675, 330.638 152.500 M 326.813 154.683 C 327.534 154.972, 328.397 154.936, 328.729 154.604 C 329.061 154.272, 328.471 154.036, 327.417 154.079 C 326.252 154.127, 326.015 154.364, 326.813 154.683 M 305 165.531 C 305 167.149, 306.563 167.517, 307.435 166.105 C 307.740 165.612, 307.316 164.952, 306.494 164.636 C 305.587 164.288, 305 164.639, 305 165.531 M 303.500 169 C 303.160 169.550, 303.359 170, 303.941 170 C 304.523 170, 305 169.550, 305 169 C 305 168.450, 304.802 168, 304.559 168 C 304.316 168, 303.840 168.450, 303.500 169 M 299 170.500 C 297.980 171.729, 298.049 172, 299.378 172 C 300.270 172, 301 171.325, 301 170.500 C 301 169.675, 300.830 169, 300.622 169 C 300.415 169, 299.685 169.675, 299 170.500 M 242.890 203.250 C 241.715 205.488, 241.720 205.490, 243.854 203.595 C 246.238 201.479, 246.456 201, 245.035 201 C 244.505 201, 243.539 202.012, 242.890 203.250 M 1040 229.941 C 1040 230.459, 1040.445 231.157, 1040.989 231.493 C 1041.555 231.843, 1041.723 231.442, 1041.382 230.552 C 1040.717 228.820, 1040 228.503, 1040 229.941 M 1034 232.647 C 1034 234.134, 1041.255 242, 1042.626 242 C 1043.587 242, 1042.616 240.217, 1039.903 237 C 1036.069 232.454, 1034 230.928, 1034 232.647 M 443 241 C 441.667 241.862, 441.667 241.969, 443 241.969 C 443.825 241.969, 445.175 241.533, 446 241 C 447.333 240.138, 447.333 240.031, 446 240.031 C 445.175 240.031, 443.825 240.467, 443 241 M 1057 257.941 C 1057 258.459, 1057.445 259.157, 1057.989 259.493 C 1058.555 259.843, 1058.723 259.442, 1058.382 258.552 C 1057.717 256.820, 1057 256.503, 1057 257.941 M 1061.219 275.750 C 1061.432 276.163, 1062.362 278.157, 1063.288 280.182 C 1064.213 282.207, 1065.456 284.164, 1066.051 284.532 C 1067.435 285.387, 1068.769 284.123, 1067.461 283.196 C 1066.922 282.813, 1065.595 280.813, 1064.513 278.750 C 1063.431 276.688, 1062.160 275, 1061.689 275 C 1061.219 275, 1061.007 275.337, 1061.219 275.750 M 1067 287.882 C 1067 288.432, 1067.450 289.160, 1068 289.500 C 1068.550 289.840, 1069 289.668, 1069 289.118 C 1069 288.568, 1068.550 287.840, 1068 287.500 C 1067.450 287.160, 1067 287.332, 1067 287.882 M 739.500 289.904 C 746.141 291.297, 754.783 292.062, 752.354 291.043 C 751.174 290.547, 746.899 289.899, 742.854 289.603 C 737.510 289.212, 736.593 289.294, 739.500 289.904 M 939.500 333 C 939.840 333.550, 940.316 334, 940.559 334 C 940.802 334, 941 333.550, 941 333 C 941 332.450, 940.523 332, 939.941 332 C 939.359 332, 939.160 332.450, 939.500 333 M 163.232 358 C 163.232 359.925, 163.438 360.712, 163.689 359.750 C 163.941 358.788, 163.941 357.212, 163.689 356.250 C 163.438 355.288, 163.232 356.075, 163.232 358 M 148.667 365.667 C 148.300 366.033, 148 366.798, 148 367.367 C 148 367.993, 148.466 367.934, 149.183 367.217 C 149.834 366.566, 150.134 365.801, 149.850 365.517 C 149.566 365.233, 149.033 365.300, 148.667 365.667 M 152.560 368.618 C 151.621 372.358, 152.567 372.680, 153.832 369.051 C 154.417 367.373, 154.518 366, 154.056 366 C 153.595 366, 152.921 367.178, 152.560 368.618 M 159.427 366.765 C 158.096 367.677, 156.801 371.003, 157.781 370.992 C 158.177 370.988, 159.020 369.863, 159.656 368.492 C 160.292 367.121, 160.742 366.007, 160.656 366.015 C 160.570 366.024, 160.017 366.361, 159.427 366.765 M 1084.466 376.500 C 1084.894 378.700, 1085.303 381.175, 1085.373 382 C 1085.443 382.825, 1086.131 383.994, 1086.903 384.598 C 1087.798 385.299, 1087.993 386.203, 1087.441 387.095 C 1086.966 387.864, 1086.512 392.545, 1086.433 397.497 C 1086.354 402.449, 1085.939 408.245, 1085.509 410.378 C 1084.908 413.368, 1085.027 414.158, 1086.027 413.824 C 1087.759 413.247, 1087.992 411.716, 1088.678 396.391 C 1089.092 387.135, 1088.932 383.076, 1088.132 382.582 C 1087.510 382.197, 1087 380.389, 1087 378.563 C 1087 376.693, 1086.277 374.646, 1085.343 373.872 C 1083.831 372.620, 1083.754 372.848, 1084.466 376.500 M 145.539 375.107 C 144.444 378.105, 142.004 391.276, 142.072 393.815 C 142.139 396.306, 143.041 393.157, 146.117 379.691 C 147.130 375.253, 146.708 371.903, 145.539 375.107 M 848.499 375.649 C 848.933 376.667, 849.320 378.236, 849.359 379.136 C 849.399 380.079, 849.997 380.555, 850.768 380.259 C 852.800 379.479, 851.867 374.587, 849.604 374.157 C 848.094 373.870, 847.869 374.174, 848.499 375.649 M 156 380.214 C 156 383.106, 156.154 383.274, 157.537 381.892 C 158.406 381.022, 158.794 379.627, 158.430 378.678 C 157.369 375.913, 156 376.778, 156 380.214 M 1070 382.059 C 1070 382.641, 1070.450 382.840, 1071 382.500 C 1071.550 382.160, 1072 381.684, 1072 381.441 C 1072 381.198, 1071.550 381, 1071 381 C 1070.450 381, 1070 381.477, 1070 382.059 M 153.693 387.798 C 151.871 391.604, 150.703 400.669, 151.803 402.475 C 152.393 403.446, 152.464 404.063, 152.815 411.309 C 153.135 417.910, 154.487 414.532, 154.801 406.346 C 154.967 402.031, 155.518 396.701, 156.027 394.501 C 157.152 389.629, 157.272 383.996, 156.250 384.011 C 155.838 384.018, 154.687 385.722, 153.693 387.798 M 266.564 393.707 C 266.022 395.132, 266.136 395.247, 267.124 394.267 C 267.808 393.588, 268.115 392.781, 267.807 392.474 C 267.499 392.166, 266.940 392.721, 266.564 393.707 M 348.079 404.583 C 348.127 405.748, 348.364 405.985, 348.683 405.188 C 348.972 404.466, 348.936 403.603, 348.604 403.271 C 348.272 402.939, 348.036 403.529, 348.079 404.583 M 346.689 409.368 C 346.257 410.945, 346.150 412.483, 346.451 412.785 C 347.494 413.828, 348.149 412.172, 347.813 409.341 L 347.476 406.500 346.689 409.368 M 345.750 415.332 C 345.337 416.339, 345.055 420.389, 345.122 424.332 L 345.244 431.500 346.142 425.500 C 347.191 418.496, 346.955 412.388, 345.750 415.332 M 1078.823 419.750 C 1078.095 421.262, 1077.646 424.027, 1077.824 425.893 L 1078.148 429.286 1080.074 426.119 C 1082.065 422.845, 1082.705 417, 1081.073 417 C 1080.564 417, 1079.551 418.238, 1078.823 419.750 M 1084.750 417.572 C 1084.338 417.991, 1084 419.473, 1084 420.867 C 1084 422.687, 1084.305 423.095, 1085.085 422.315 C 1085.681 421.719, 1086.019 420.236, 1085.835 419.020 C 1085.651 417.805, 1085.162 417.153, 1084.750 417.572 M 1077.667 430.667 C 1076.629 431.704, 1076.883 435, 1078 435 C 1078.550 435, 1079 433.875, 1079 432.500 C 1079 429.882, 1078.769 429.564, 1077.667 430.667 M 1081.583 433.866 C 1081.152 434.563, 1081.070 435.403, 1081.400 435.733 C 1082.295 436.628, 1083.271 435.312, 1082.787 433.862 C 1082.449 432.846, 1082.213 432.846, 1081.583 433.866 M 1076.223 437.684 C 1075.550 438.886, 1075 440.798, 1075 441.934 C 1075 443.070, 1074.523 444, 1073.941 444 C 1073.359 444, 1073.105 444.361, 1073.378 444.803 C 1073.651 445.245, 1073.003 448.927, 1071.937 452.986 C 1070.872 457.044, 1070 461.183, 1070 462.182 C 1070 463.182, 1069.498 464, 1068.883 464 C 1068.232 464, 1067.966 465.041, 1068.245 466.500 C 1068.508 467.875, 1068.404 469, 1068.014 469 C 1067.623 469, 1067.265 470.391, 1067.216 472.092 C 1067.168 473.792, 1066.383 477.729, 1065.473 480.842 C 1064.562 483.954, 1063.178 488.750, 1062.396 491.500 C 1059.335 502.274, 1058.529 504.617, 1056.796 507.780 C 1055.808 509.585, 1055 511.767, 1055 512.629 C 1055 514.075, 1054.122 516.438, 1051.148 523 C 1050.524 524.375, 1049.597 526.175, 1049.087 527 C 1046.446 531.270, 1044.174 536.989, 1044.932 537.458 C 1045.864 538.034, 1053.063 523.789, 1057.041 513.500 C 1060.013 505.812, 1061 502.729, 1061 501.135 C 1061 500.131, 1061.889 498.505, 1062.976 497.521 C 1064.063 496.538, 1064.750 495.404, 1064.501 495.002 C 1064.253 494.601, 1064.939 492.433, 1066.025 490.184 C 1067.111 487.936, 1068 485.196, 1068 484.095 C 1068 481.387, 1070.078 477, 1071.361 477 C 1072.053 477, 1072.038 476.638, 1071.317 475.917 C 1070.173 474.773, 1072.001 465.320, 1074.071 461.679 C 1074.640 460.678, 1075.357 457.145, 1075.664 453.829 C 1076.195 448.096, 1078.980 440.135, 1078.994 444.309 C 1078.997 445.335, 1079.462 445.833, 1080.067 445.459 C 1080.653 445.096, 1080.919 444.586, 1080.658 444.325 C 1080.397 444.063, 1080.560 442.533, 1081.022 440.925 C 1081.997 437.524, 1080.593 436.904, 1079.494 440.250 C 1078.830 442.273, 1078.689 442.147, 1078.101 439 C 1077.472 435.638, 1077.398 435.586, 1076.223 437.684 M 1067.750 439.571 C 1067.338 439.990, 1067 441.923, 1067 443.867 C 1067 446.382, 1067.309 447.091, 1068.073 446.327 C 1068.663 445.737, 1069 443.804, 1068.823 442.032 C 1068.645 440.259, 1068.162 439.152, 1067.750 439.571 M 146 449.833 C 146 452.785, 146.785 454.251, 147.973 453.517 C 148.949 452.913, 147.964 447, 146.887 447 C 146.399 447, 146 448.275, 146 449.833 M 1078.015 450.750 C 1078.024 452.262, 1078.424 454.122, 1078.906 454.882 C 1080.126 456.808, 1083.473 451.676, 1082.556 449.286 C 1081.988 447.805, 1081.758 447.768, 1080.962 449.028 C 1080.332 450.024, 1080.026 450.096, 1080.015 449.250 C 1080.007 448.563, 1079.550 448, 1079 448 C 1078.450 448, 1078.007 449.238, 1078.015 450.750 M 1065.667 453.667 C 1065.300 454.033, 1065 454.798, 1065 455.367 C 1065 455.993, 1065.466 455.934, 1066.183 455.217 C 1066.834 454.566, 1067.134 453.801, 1066.850 453.517 C 1066.566 453.233, 1066.033 453.300, 1065.667 453.667 M 1077 457.941 C 1077 458.459, 1077.450 459.160, 1078 459.500 C 1078.550 459.840, 1079 459.416, 1079 458.559 C 1079 457.702, 1078.550 457, 1078 457 C 1077.450 457, 1077 457.423, 1077 457.941 M 1064 459.059 C 1064 459.641, 1064.450 459.840, 1065 459.500 C 1065.550 459.160, 1066 458.684, 1066 458.441 C 1066 458.198, 1065.550 458, 1065 458 C 1064.450 458, 1064 458.477, 1064 459.059 M 1054.723 467 C 1054.340 468.375, 1054.066 470.850, 1054.114 472.500 C 1054.193 475.231, 1054.284 475.144, 1055.131 471.528 C 1056.188 467.015, 1055.829 463.029, 1054.723 467 M 1074 466.819 C 1074 469.338, 1075.585 470.524, 1076.336 468.567 C 1076.636 467.786, 1076.233 466.608, 1075.441 465.951 C 1074.266 464.976, 1074 465.136, 1074 466.819 M 1026.964 537.170 C 1023.959 542.213, 1021.050 546.838, 1020.500 547.447 C 1017.689 550.559, 1014.912 555.196, 1016.095 554.802 C 1017.785 554.238, 1022.434 547.855, 1028.934 537.174 C 1034.278 528.390, 1034.460 528, 1033.214 528 C 1032.782 528, 1029.969 532.126, 1026.964 537.170 M 861.079 531.583 C 861.127 532.748, 861.364 532.985, 861.683 532.188 C 861.972 531.466, 861.936 530.603, 861.604 530.271 C 861.272 529.939, 861.036 530.529, 861.079 531.583 M 991.667 535.667 C 991.300 536.033, 991 536.798, 991 537.367 C 991 537.993, 991.466 537.934, 992.183 537.217 C 992.834 536.566, 993.134 535.801, 992.850 535.517 C 992.566 535.232, 992.033 535.300, 991.667 535.667 M 358 537 C 358 537.550, 358.450 538, 359 538 C 359.550 538, 360 537.550, 360 537 C 360 536.450, 359.550 536, 359 536 C 358.450 536, 358 536.450, 358 537 M 1034 540 C 1033.411 541.100, 1033.287 542, 1033.724 542 C 1034.161 542, 1035.081 541.100, 1035.768 540 C 1036.460 538.892, 1036.583 538, 1036.044 538 C 1035.508 538, 1034.589 538.900, 1034 540 M 1038.250 545.444 C 1034.957 549.753, 1034.394 551.001, 1035.750 550.998 C 1036.634 550.996, 1042.414 542.074, 1041.871 541.551 C 1041.667 541.354, 1040.037 543.106, 1038.250 545.444 M 1049.085 551.250 C 1048.178 553.650, 1048.529 555, 1050.059 555 C 1050.577 555, 1051 554.190, 1051 553.200 C 1051 552.210, 1051.540 550.860, 1052.200 550.200 C 1053.133 549.267, 1053.015 549, 1051.668 549 C 1050.715 549, 1049.553 550.013, 1049.085 551.250 M 892.813 552.683 C 893.534 552.972, 894.397 552.936, 894.729 552.604 C 895.061 552.272, 894.471 552.036, 893.417 552.079 C 892.252 552.127, 892.015 552.364, 892.813 552.683 M 1045 554 C 1045 554.550, 1045.450 555, 1046 555 C 1046.550 555, 1047 554.550, 1047 554 C 1047 553.450, 1046.550 553, 1046 553 C 1045.450 553, 1045 553.450, 1045 554 M 1022.667 555.667 C 1022.300 556.033, 1022 556.798, 1022 557.367 C 1022 557.993, 1022.466 557.934, 1023.183 557.217 C 1023.834 556.566, 1024.134 555.801, 1023.850 555.517 C 1023.566 555.232, 1023.033 555.300, 1022.667 555.667 M 995.500 559.469 C 993.850 560.821, 992.950 561.942, 993.500 561.959 C 994.050 561.976, 995.850 560.883, 997.500 559.531 C 999.150 558.179, 1000.050 557.058, 999.500 557.041 C 998.950 557.024, 997.150 558.117, 995.500 559.469 M 1007.750 562.467 C 1001.964 567.862, 1000.510 569.906, 1003.750 568.089 C 1007.373 566.057, 1014.286 559.360, 1013.901 558.255 C 1013.680 557.623, 1010.913 559.518, 1007.750 562.467 M 712 775 C 712 775.550, 712.477 776, 713.059 776 C 713.641 776, 713.840 775.550, 713.500 775 C 713.160 774.450, 712.684 774, 712.441 774 C 712.198 774, 712 774.450, 712 775 M 712 783.882 C 712 784.432, 712.450 785.160, 713 785.500 C 713.550 785.840, 714 785.668, 714 785.118 C 714 784.568, 713.550 783.840, 713 783.500 C 712.450 783.160, 712 783.332, 712 783.882 M 741.813 791.683 C 742.534 791.972, 743.397 791.936, 743.729 791.604 C 744.061 791.272, 743.471 791.036, 742.417 791.079 C 741.252 791.127, 741.015 791.364, 741.813 791.683 M 625 819 C 625.825 819.533, 627.175 819.969, 628 819.969 C 629.333 819.969, 629.333 819.862, 628 819 C 627.175 818.467, 625.825 818.031, 625 818.031 C 623.667 818.031, 623.667 818.138, 625 819 M 727 822.969 C 728.375 824.027, 730.400 825.119, 731.500 825.396 C 733.114 825.802, 732.959 825.427, 730.694 823.450 C 729.151 822.102, 727.126 821.010, 726.194 821.022 C 724.873 821.040, 725.050 821.468, 727 822.969 M 636.500 824 C 636.840 824.550, 637.316 825, 637.559 825 C 637.802 825, 638 824.550, 638 824 C 638 823.450, 637.523 823, 636.941 823 C 636.359 823, 636.160 823.450, 636.500 824 M 774.500 824 C 774.160 824.550, 774.332 825, 774.882 825 C 775.432 825, 776.160 824.550, 776.500 824 C 776.840 823.450, 776.668 823, 776.118 823 C 775.568 823, 774.840 823.450, 774.500 824 M 771.250 826.819 C 770.013 826.995, 769 827.783, 769 828.570 C 769 830.170, 770.794 830.416, 772.872 829.100 C 774.862 827.840, 773.871 826.446, 771.250 826.819 M 764.242 829.697 C 765.726 831.180, 767.291 832.042, 767.720 831.611 C 768.574 830.753, 764.457 827, 762.662 827 C 762.048 827, 762.759 828.214, 764.242 829.697 M 702.500 830.315 C 704.150 831.086, 705.688 831.555, 705.917 831.358 C 706.638 830.738, 705.595 830.183, 702.498 829.538 L 699.500 828.914 702.500 830.315 M 710.327 832.416 C 709.388 833.484, 709.645 833.750, 711.619 833.750 C 712.974 833.750, 713.924 833.272, 713.729 832.688 C 713.186 831.059, 711.629 830.935, 710.327 832.416 M 711 857.409 C 711 857.599, 711.675 858.315, 712.500 859 C 713.365 859.718, 714 859.815, 714 859.229 C 714 858.671, 713.325 857.955, 712.500 857.638 C 711.675 857.322, 711 857.219, 711 857.409 M 711 866 C 711 866.550, 711.477 867, 712.059 867 C 712.641 867, 712.840 866.550, 712.500 866 C 712.160 865.450, 711.684 865, 711.441 865 C 711.198 865, 711 865.450, 711 866 M 732.500 867 C 732.840 867.550, 733.316 868, 733.559 868 C 733.802 868, 734 867.550, 734 867 C 734 866.450, 733.523 866, 732.941 866 C 732.359 866, 732.160 866.450, 732.500 867 M 658.036 991.384 C 660.444 993.659, 670.698 998.969, 671.376 998.291 C 672.167 997.499, 669.072 994, 667.580 994 C 666.970 994, 664.791 993.100, 662.739 992 C 658.327 989.635, 655.841 989.309, 658.036 991.384 M 658 998.109 C 659.375 999.233, 661.503 1001.007, 662.730 1002.052 C 665.303 1004.244, 670.690 1005.926, 669.626 1004.204 C 668.819 1002.898, 657.605 995.986, 656.369 996.033 C 655.891 996.052, 656.625 996.986, 658 998.109 M 673 998.778 C 673 999.244, 674.350 1000.919, 676 1002.500 C 679.095 1005.465, 679.757 1005.284, 677.977 1001.957 C 676.862 999.874, 673 997.407, 673 998.778 M 990.964 1004.836 C 991.623 1006.120, 992.436 1006.897, 992.771 1006.562 C 993.107 1006.227, 992.568 1005.176, 991.574 1004.226 C 989.846 1002.576, 989.819 1002.603, 990.964 1004.836 M 931.692 1011.929 C 931.970 1012.992, 932.838 1014.108, 933.622 1014.408 C 934.748 1014.840, 934.831 1014.552, 934.018 1013.033 C 932.568 1010.325, 931.089 1009.623, 931.692 1011.929 M 938.015 1021.191 C 938.007 1022.121, 938.450 1023.160, 939 1023.500 C 940.266 1024.282, 940.266 1022.958, 939 1021 C 938.165 1019.707, 938.029 1019.734, 938.015 1021.191 M 957.032 1024.628 C 957.049 1025.107, 957.724 1026.374, 958.532 1027.441 C 959.707 1028.995, 960 1029.069, 960 1027.814 C 960 1026.951, 959.325 1025.685, 958.500 1025 C 957.675 1024.315, 957.014 1024.148, 957.032 1024.628 M 1042.241 1036.488 C 1043.483 1038.406, 1044.842 1039.981, 1045.259 1039.988 C 1045.677 1039.994, 1045.002 1038.431, 1043.759 1036.512 C 1042.517 1034.594, 1041.158 1033.019, 1040.741 1033.012 C 1040.323 1033.006, 1040.998 1034.569, 1042.241 1036.488 M 392 1172.417 C 392 1173.287, 392.712 1174, 393.583 1174 C 395.349 1174, 395.042 1171.847, 393.188 1171.229 C 392.534 1171.011, 392 1171.546, 392 1172.417 M 179.635 1185.434 C 178.736 1186.806, 178 1189.086, 178 1190.500 C 178 1191.914, 177.283 1194.165, 176.406 1195.503 C 175.529 1196.841, 174.987 1198.462, 175.202 1199.105 C 175.797 1200.892, 178.371 1196.189, 180.370 1189.662 C 182.360 1183.164, 182.101 1181.671, 179.635 1185.434 M 170.571 1212.571 C 170.204 1214.037, 170.096 1215.429, 170.331 1215.665 C 170.567 1215.900, 171.061 1214.894, 171.429 1213.429 C 171.796 1211.963, 171.904 1210.571, 171.669 1210.335 C 171.433 1210.100, 170.939 1211.106, 170.571 1212.571 M 140 1235.417 C 140 1236.287, 140.713 1237, 141.583 1237 C 143.349 1237, 143.042 1234.847, 141.188 1234.229 C 140.534 1234.011, 140 1234.546, 140 1235.417 M 157.624 1268.539 C 157.281 1269.432, 157.029 1270.689, 157.063 1271.332 C 157.098 1271.974, 157.558 1271.422, 158.085 1270.105 C 158.612 1268.787, 158.864 1267.531, 158.645 1267.312 C 158.426 1267.093, 157.966 1267.645, 157.624 1268.539 M 390.667 1273.667 C 389.516 1274.817, 389.938 1276, 391.500 1276 C 392.325 1276, 393 1275.325, 393 1274.500 C 393 1272.938, 391.817 1272.516, 390.667 1273.667 M 1071 1292.500 C 1071 1293.875, 1071.450 1295, 1072 1295 C 1072.550 1295, 1073 1293.875, 1073 1292.500 C 1073 1291.125, 1072.550 1290, 1072 1290 C 1071.450 1290, 1071 1291.125, 1071 1292.500 M 1070 1299.941 C 1070 1302.356, 1070.556 1302.599, 1071.349 1300.532 C 1071.659 1299.725, 1071.482 1298.798, 1070.956 1298.473 C 1070.430 1298.148, 1070 1298.809, 1070 1299.941 M 1100.081 1309.849 C 1098.773 1312.293, 1098.671 1315, 1099.887 1315 C 1100.715 1315, 1102.121 1308.900, 1101.462 1308.164 C 1101.297 1307.980, 1100.676 1308.738, 1100.081 1309.849 M 1065.995 1318.030 C 1064.798 1325.126, 1065.079 1328, 1066.969 1328 C 1067.596 1328, 1068 1324.672, 1068 1319.500 C 1068 1314.825, 1067.816 1311, 1067.590 1311 C 1067.365 1311, 1066.647 1314.164, 1065.995 1318.030 M 1073.515 1315.082 C 1073.120 1317.512, 1071.967 1322.650, 1070.953 1326.500 C 1068.733 1334.929, 1067.428 1343.798, 1068.567 1342.721 C 1069.021 1342.293, 1069.515 1341.393, 1069.667 1340.721 C 1069.818 1340.049, 1070.840 1335.900, 1071.937 1331.500 C 1073.034 1327.100, 1073.947 1322.233, 1073.966 1320.684 C 1073.985 1319.136, 1074.469 1316.992, 1075.042 1315.921 C 1075.700 1314.693, 1075.743 1313.362, 1075.159 1312.319 C 1074.439 1311.034, 1074.072 1311.650, 1073.515 1315.082 M 405.219 1332.750 C 408.225 1342.706, 409.139 1344.372, 408.553 1338.825 C 408.052 1334.087, 405.089 1326, 403.855 1326 C 403.484 1326, 404.098 1329.037, 405.219 1332.750 M 1064.032 1331.750 C 1064.062 1334.384, 1064.126 1334.418, 1065.532 1332.559 C 1067.403 1330.085, 1067.393 1329, 1065.500 1329 C 1064.523 1329, 1064.011 1329.958, 1064.032 1331.750 M 1084.763 1344.574 C 1084.443 1345.092, 1083.933 1347.312, 1083.630 1349.508 C 1083.326 1351.703, 1083.338 1352.611, 1083.656 1351.525 C 1083.973 1350.439, 1084.810 1349.089, 1085.515 1348.525 C 1086.291 1347.904, 1086.510 1346.738, 1086.070 1345.566 C 1085.671 1344.503, 1085.083 1344.056, 1084.763 1344.574 M 1081.051 1357.811 C 1080.467 1359.978, 1079.809 1363.045, 1079.588 1364.626 C 1078.911 1369.479, 1077.758 1374.421, 1076.920 1376.071 C 1076.481 1376.935, 1075.163 1381.210, 1073.993 1385.571 C 1067.947 1408.089, 1067.588 1410, 1069.403 1410 C 1071.496 1410, 1072.669 1407.910, 1073.329 1403 C 1073.661 1400.525, 1075.456 1393.100, 1077.317 1386.500 C 1080.823 1374.063, 1083.850 1361.255, 1084.262 1357.110 C 1084.668 1353.033, 1082.192 1353.573, 1081.051 1357.811 M 1089 1382.059 C 1089 1382.641, 1089.450 1382.840, 1090 1382.500 C 1090.550 1382.160, 1091 1381.684, 1091 1381.441 C 1091 1381.198, 1090.550 1381, 1090 1381 C 1089.450 1381, 1089 1381.477, 1089 1382.059 M 1083.683 1385.650 C 1083.307 1386.026, 1083 1387.483, 1083 1388.889 L 1083 1391.445 1084.616 1389.138 C 1086.128 1386.980, 1085.332 1384.002, 1083.683 1385.650 M 1057.729 1388.604 C 1057.328 1389.005, 1057.041 1390.946, 1057.090 1392.917 L 1057.180 1396.500 1058.143 1393.158 C 1059.158 1389.631, 1058.954 1387.380, 1057.729 1388.604 M 169.570 1407.887 C 169.269 1408.374, 169.657 1409.300, 170.432 1409.944 C 171.585 1410.900, 171.744 1410.738, 171.305 1409.057 C 170.711 1406.786, 170.386 1406.567, 169.570 1407.887 M 1067.480 1413.391 C 1065.258 1416.782, 1063.769 1423.244, 1065.329 1422.724 C 1065.957 1422.514, 1066.806 1420.386, 1067.214 1417.994 C 1067.622 1415.602, 1068.516 1413.299, 1069.199 1412.877 C 1069.883 1412.454, 1070.154 1411.820, 1069.801 1411.468 C 1069.448 1411.115, 1068.404 1411.980, 1067.480 1413.391 M 172.031 1415.500 C 172.031 1416.050, 172.467 1417.175, 173 1418 C 173.533 1418.825, 173.969 1419.050, 173.969 1418.500 C 173.969 1417.950, 173.533 1416.825, 173 1416 C 172.467 1415.175, 172.031 1414.950, 172.031 1415.500 M 770.667 1420.667 C 769.452 1421.881, 769.976 1422.947, 771.500 1422.362 C 772.325 1422.045, 773 1421.384, 773 1420.893 C 773 1419.845, 771.622 1419.711, 770.667 1420.667 M 176 1427 C 176 1427.550, 176.450 1428, 177 1428 C 177.550 1428, 178 1427.550, 178 1427 C 178 1426.450, 177.550 1426, 177 1426 C 176.450 1426, 176 1426.450, 176 1427 M 465 1430.809 C 465 1431.997, 473.765 1435.568, 474.609 1434.724 C 474.920 1434.414, 474.122 1433.479, 472.837 1432.648 C 469.687 1430.609, 465 1429.509, 465 1430.809 M 1059.201 1435.321 C 1057.499 1440.028, 1057.704 1440.646, 1060 1437.727 C 1062.016 1435.164, 1062.680 1432, 1061.201 1432 C 1060.761 1432, 1059.861 1433.494, 1059.201 1435.321 M 857 1438.059 C 857 1438.641, 857.450 1438.840, 858 1438.500 C 858.550 1438.160, 859 1437.684, 859 1437.441 C 859 1437.198, 858.550 1437, 858 1437 C 857.450 1437, 857 1437.477, 857 1438.059 M 1030.122 1442.353 C 1029.060 1443.633, 1029.544 1445, 1031.060 1445 C 1032.181 1445, 1033.019 1442.130, 1032.070 1441.543 C 1031.606 1441.256, 1030.730 1441.621, 1030.122 1442.353 M 851.872 1443.750 C 850.629 1445.336, 850.664 1445.371, 852.250 1444.128 C 853.916 1442.821, 854.445 1442, 853.622 1442 C 853.415 1442, 852.627 1442.787, 851.872 1443.750 M 1053.354 1448.082 C 1052.724 1448.862, 1051.746 1451.075, 1051.181 1453 C 1050.615 1454.925, 1049.191 1458.941, 1048.015 1461.924 C 1044.977 1469.628, 1048.111 1466.819, 1052.120 1458.243 C 1055.048 1451.980, 1055.905 1444.927, 1053.354 1448.082 M 1025.902 1451.756 C 1025.023 1453.265, 1023.291 1456.188, 1022.053 1458.250 C 1020.160 1461.405, 1020.055 1462, 1021.395 1462 C 1023.514 1462, 1029 1454.318, 1029 1451.350 C 1029 1448.239, 1027.864 1448.388, 1025.902 1451.756 M 1042.750 1471.577 C 1042.338 1471.993, 1042 1473.248, 1042 1474.367 C 1042 1475.838, 1042.302 1476.098, 1043.094 1475.306 C 1043.695 1474.705, 1044.033 1473.449, 1043.844 1472.517 C 1043.655 1471.584, 1043.162 1471.161, 1042.750 1471.577 M 700 1475 C 700 1475.550, 700.477 1476, 701.059 1476 C 701.641 1476, 701.840 1475.550, 701.500 1475 C 701.160 1474.450, 700.684 1474, 700.441 1474 C 700.198 1474, 700 1474.450, 700 1475 M 1011.250 1479.735 C 1008.735 1482.346, 1008.286 1484.211, 1010.365 1483.414 C 1011.590 1482.943, 1014.492 1477.990, 1013.787 1477.570 C 1013.629 1477.476, 1012.487 1478.450, 1011.250 1479.735 M 186.789 1480.172 C 186.522 1480.903, 187.010 1483.075, 187.873 1485 L 189.442 1488.500 189.795 1485.110 C 190.170 1481.505, 187.752 1477.534, 186.789 1480.172 M 1008.667 1486.667 C 1007.449 1487.885, 1007.978 1490, 1009.500 1490 C 1010.333 1490, 1011 1489.111, 1011 1488 C 1011 1486.008, 1009.934 1485.399, 1008.667 1486.667 M 1004.500 1488 C 1004.160 1488.550, 1004.359 1489, 1004.941 1489 C 1005.523 1489, 1006 1488.550, 1006 1488 C 1006 1487.450, 1005.802 1487, 1005.559 1487 C 1005.316 1487, 1004.840 1487.450, 1004.500 1488 M 189.500 1491 C 189.840 1491.550, 190.316 1492, 190.559 1492 C 190.802 1492, 191 1491.550, 191 1491 C 191 1490.450, 190.523 1490, 189.941 1490 C 189.359 1490, 189.160 1490.450, 189.500 1491 M 1025.667 1491.667 C 1025.300 1492.033, 1025 1492.798, 1025 1493.367 C 1025 1493.993, 1025.466 1493.934, 1026.183 1493.217 C 1026.834 1492.566, 1027.134 1491.801, 1026.850 1491.517 C 1026.566 1491.233, 1026.033 1491.300, 1025.667 1491.667 M 882.204 1503.067 C 880.959 1505.230, 880.398 1507, 880.957 1507 C 881.897 1507, 885.374 1500.040, 884.747 1499.413 C 884.593 1499.260, 883.449 1500.904, 882.204 1503.067 M 1017.583 1508.866 C 1017.152 1509.563, 1017.070 1510.403, 1017.400 1510.733 C 1018.295 1511.628, 1019.271 1510.312, 1018.787 1508.862 C 1018.449 1507.846, 1018.213 1507.846, 1017.583 1508.866 M 1014.125 1514.697 C 1012.968 1516.239, 1011.567 1518.044, 1011.011 1518.708 C 1010.455 1519.372, 1010 1520.179, 1010 1520.501 C 1010 1520.824, 1008.875 1522.301, 1007.500 1523.783 C 1006.125 1525.266, 1005 1527.014, 1005 1527.667 C 1005 1528.320, 1003.875 1529.740, 1002.500 1530.821 C 1001.125 1531.903, 1000 1533.095, 1000 1533.471 C 1000 1533.846, 998.650 1535.504, 997 1537.154 C 993.894 1540.260, 993.073 1543.001, 995.250 1542.998 C 995.938 1542.997, 997.175 1541.935, 998 1540.639 C 1003.945 1531.294, 1006.269 1528, 1006.917 1528 C 1007.327 1528, 1008.301 1526.763, 1009.081 1525.250 C 1009.861 1523.737, 1011.452 1521.728, 1012.615 1520.784 C 1014.836 1518.981, 1017.640 1513.306, 1016.749 1512.415 C 1016.462 1512.129, 1015.282 1513.156, 1014.125 1514.697 M 971.344 1516.508 C 970.708 1517.879, 970.434 1519, 970.734 1519 C 971.438 1519, 973.927 1515.730, 973.968 1514.750 C 974.039 1513.089, 972.430 1514.167, 971.344 1516.508 M 984.081 1516.328 C 983.301 1517.798, 982.348 1519, 981.964 1519 C 981.580 1519, 980.007 1520.912, 978.468 1523.250 C 976.930 1525.588, 973.945 1529.135, 971.836 1531.134 C 969.726 1533.132, 968 1535.045, 968 1535.384 C 968 1536.713, 970.028 1535.881, 972.698 1533.457 C 979.899 1526.920, 981 1525.753, 981 1524.655 C 981 1524.009, 982.155 1522.234, 983.566 1520.712 C 985.066 1519.095, 986.001 1517.054, 985.816 1515.801 C 985.517 1513.774, 985.422 1513.803, 984.081 1516.328 M 948.079 1516.583 C 948.127 1517.748, 948.364 1517.985, 948.683 1517.188 C 948.972 1516.466, 948.936 1515.603, 948.604 1515.271 C 948.272 1514.939, 948.036 1515.529, 948.079 1516.583 M 906.015 1519.250 C 906.028 1521.069, 906.216 1521.213, 907 1520 C 908.253 1518.061, 908.253 1517, 907 1517 C 906.450 1517, 906.007 1518.013, 906.015 1519.250 M 914.667 1520.667 C 914.300 1521.033, 914 1521.798, 914 1522.367 C 914 1522.993, 914.466 1522.934, 915.183 1522.217 C 915.834 1521.566, 916.134 1520.801, 915.850 1520.517 C 915.566 1520.233, 915.033 1520.300, 914.667 1520.667 M 561.813 1524.683 C 562.534 1524.972, 563.397 1524.936, 563.729 1524.604 C 564.061 1524.272, 563.471 1524.036, 562.417 1524.079 C 561.252 1524.127, 561.015 1524.364, 561.813 1524.683 M 911.789 1526.744 C 910.946 1527.710, 909.705 1529.565, 909.031 1530.866 C 907.093 1534.607, 910.067 1533.050, 912.360 1529.123 C 914.472 1525.507, 914.125 1524.066, 911.789 1526.744 M 975.553 1534.915 C 975.231 1535.436, 975.394 1536.125, 975.915 1536.447 C 976.436 1536.769, 977.125 1536.606, 977.447 1536.085 C 977.769 1535.564, 977.606 1534.875, 977.085 1534.553 C 976.564 1534.231, 975.875 1534.394, 975.553 1534.915 M 932.624 1538.539 C 931.659 1541.053, 931.943 1541.702, 933.122 1539.675 C 933.706 1538.671, 933.973 1537.639, 933.715 1537.382 C 933.458 1537.124, 932.966 1537.645, 932.624 1538.539 M 969.079 1544.583 C 969.127 1545.748, 969.364 1545.985, 969.683 1545.188 C 969.972 1544.466, 969.936 1543.603, 969.604 1543.271 C 969.272 1542.939, 969.036 1543.529, 969.079 1544.583 M 988.993 1548.673 C 987.092 1551.328, 983.970 1554.941, 982.055 1556.703 C 978.022 1560.413, 978.331 1561.679, 982.733 1559.483 C 984.586 1558.559, 987.227 1555.548, 989.434 1551.843 C 993.953 1544.257, 993.660 1542.155, 988.993 1548.673 M 914.583 1546.866 C 914.152 1547.563, 914.070 1548.403, 914.400 1548.733 C 915.295 1549.628, 916.271 1548.312, 915.787 1546.862 C 915.449 1545.846, 915.213 1545.846, 914.583 1546.866 M 929.600 1548.600 C 929.244 1549.527, 929.178 1550.511, 929.453 1550.786 C 929.728 1551.061, 930.244 1550.527, 930.600 1549.600 C 930.956 1548.673, 931.022 1547.689, 930.747 1547.414 C 930.472 1547.139, 929.956 1547.673, 929.600 1548.600 M 927 1553.059 C 927 1553.641, 927.450 1553.840, 928 1553.500 C 928.550 1553.160, 929 1552.684, 929 1552.441 C 929 1552.198, 928.550 1552, 928 1552 C 927.450 1552, 927 1552.477, 927 1553.059 M 934 1554.500 C 934 1555.325, 934.177 1556, 934.393 1556 C 934.609 1556, 935.045 1555.325, 935.362 1554.500 C 935.678 1553.675, 935.501 1553, 934.969 1553 C 934.436 1553, 934 1553.675, 934 1554.500 M 508.813 1558.683 C 509.534 1558.972, 510.397 1558.936, 510.729 1558.604 C 511.061 1558.272, 510.471 1558.036, 509.417 1558.079 C 508.252 1558.127, 508.015 1558.364, 508.813 1558.683 M 782.662 1559.618 C 781.100 1560.464, 780.015 1561.348, 780.249 1561.583 C 780.717 1562.051, 787 1559.114, 787 1558.427 C 787 1557.656, 785.545 1558.056, 782.662 1559.618 M 973.093 1565.817 C 972.022 1567.916, 970.438 1570.221, 969.573 1570.939 C 967.454 1572.698, 967.589 1574, 969.890 1574 C 971.141 1574, 972.474 1572.523, 973.835 1569.628 C 974.965 1567.224, 976.590 1564.988, 977.445 1564.660 C 979.660 1563.810, 979.371 1562, 977.020 1562 C 975.733 1562, 974.359 1563.335, 973.093 1565.817 M 981 1567.559 C 981 1568.416, 981.457 1568.835, 982.016 1568.490 C 982.575 1568.144, 982.774 1567.443, 982.457 1566.931 C 981.600 1565.544, 981 1565.802, 981 1567.559 M 406 1572.927 C 406 1574.580, 411.409 1578.272, 411.858 1576.926 C 412.081 1576.256, 411.192 1574.884, 409.882 1573.876 C 407.230 1571.837, 406 1571.536, 406 1572.927 M 403.022 1579.559 C 402.992 1581.004, 405.712 1584.621, 406.350 1583.983 C 406.632 1583.701, 406.004 1582.352, 404.954 1580.985 C 403.904 1579.618, 403.034 1578.976, 403.022 1579.559 M 408.500 1586 C 408.840 1586.550, 409.316 1587, 409.559 1587 C 409.802 1587, 410 1586.550, 410 1586 C 410 1585.450, 409.523 1585, 408.941 1585 C 408.359 1585, 408.160 1585.450, 408.500 1586 M 955 1611.559 C 955 1612.416, 955.457 1612.835, 956.016 1612.490 C 956.575 1612.144, 956.774 1611.443, 956.457 1610.931 C 955.600 1609.544, 955 1609.802, 955 1611.559 M 289.500 1637 C 289.840 1637.550, 290.316 1638, 290.559 1638 C 290.802 1638, 291 1637.550, 291 1637 C 291 1636.450, 290.523 1636, 289.941 1636 C 289.359 1636, 289.160 1636.450, 289.500 1637 M 851 1662.500 C 851 1663.325, 851.450 1664, 852 1664 C 852.550 1664, 853 1663.325, 853 1662.500 C 853 1661.675, 852.550 1661, 852 1661 C 851.450 1661, 851 1661.675, 851 1662.500 M 717 1739.059 C 717 1739.641, 717.450 1739.840, 718 1739.500 C 718.550 1739.160, 719 1738.684, 719 1738.441 C 719 1738.198, 718.550 1738, 718 1738 C 717.450 1738, 717 1738.477, 717 1739.059 M 575.543 1739.931 C 574.803 1741.128, 576.684 1742.313, 578.016 1741.490 C 579.135 1740.799, 578.400 1739, 577 1739 C 576.515 1739, 575.859 1739.419, 575.543 1739.931" stroke="none" fill="black" fill-rule="evenodd"/>
</svg>